<svg width="121" height="116" viewBox="0 0 121 116" fill="none" xmlns="http://www.w3.org/2000/svg">
<path fill-rule="evenodd" clip-rule="evenodd" d="M92.9873 45.0817C93.1248 39.8851 91.0095 34.7029 86.3715 31.5753C84.5755 30.3642 82.4479 29.9233 80.3525 29.5568C88.8649 29.2648 91.8201 20.3555 93.0046 13.4585C92.5933 19.6442 95.8273 26.3257 102.436 26.9423C95.8572 30.8128 93.5992 37.9153 92.9873 45.0817Z" fill="#02bfff" stroke="#0838b6" stroke-width="4.894" stroke-miterlimit="1.5" stroke-linecap="round" stroke-linejoin="round"/>
<path fill-rule="evenodd" clip-rule="evenodd" d="M45.9047 95.7844C46.1084 88.0862 42.9748 80.4093 36.104 75.776C33.4434 73.9819 30.2915 73.3286 27.1875 72.7858C39.7978 72.3532 44.1757 59.1548 45.9303 48.9376C45.321 58.1012 50.1119 67.9992 59.9026 68.9126C50.1562 74.6464 46.8111 85.168 45.9047 95.7844Z" fill="#02bfff" stroke="#0838b6" stroke-width="6" stroke-miterlimit="1.5" stroke-linecap="round" stroke-linejoin="round"/>
</svg>
