<svg width="1440" height="2988" viewBox="0 0 1440 2988" fill="none" xmlns="http://www.w3.org/2000/svg">
<g clip-path="url(#clip0_1164_110)">
<path d="M1440 0H0V2988H1440V0Z" fill="url(#paint0_linear_1164_110)"/>
<path d="M894.798 1251.03C893.143 1250.29 889.797 1240.95 888.657 1242.1C887.517 1243.24 885.826 1251.03 884.759 1251.03C883.693 1251.03 873.47 1248.26 874.022 1249.22C874.573 1250.18 882.626 1256.38 882.59 1257.82C882.553 1259.26 879.133 1266.93 880.199 1266.93C881.266 1266.93 888.363 1260.29 889.797 1260.36C891.231 1260.44 900.057 1267.78 900.755 1266.93C901.454 1266.08 896.857 1258.85 897.299 1257.82C897.74 1256.78 907.227 1249.22 905.867 1249.22C904.506 1249.22 896.453 1251.77 894.798 1251.03Z" fill="#5285E9" stroke="#5285E9" stroke-width="5" stroke-linecap="round"/>
<path d="M428.699 1849.06C427.768 1848.64 425.886 1843.41 425.245 1844.05C424.603 1844.69 423.652 1849.06 423.052 1849.06C422.452 1849.06 416.702 1847.51 417.012 1848.04C417.322 1848.58 421.852 1852.05 421.832 1852.86C421.811 1853.66 419.887 1857.96 420.487 1857.96C421.087 1857.96 425.079 1854.24 425.886 1854.28C426.693 1854.32 431.657 1858.44 432.05 1857.96C432.443 1857.49 429.857 1853.44 430.105 1852.86C430.354 1852.28 435.69 1848.04 434.925 1848.04C434.16 1848.04 429.63 1849.47 428.699 1849.06Z" fill="#4C5AD0" stroke="#4C5AD0" stroke-width="5" stroke-linecap="round"/>
<path d="M646.638 2014.22C645.315 2013.63 642.638 2006.16 641.726 2007.08C640.814 2007.99 639.46 2014.22 638.607 2014.22C637.754 2014.22 629.576 2012.01 630.017 2012.78C630.458 2013.54 636.901 2018.5 636.872 2019.65C636.842 2020.8 634.106 2026.95 634.959 2026.95C635.813 2026.95 641.49 2021.63 642.638 2021.69C643.785 2021.75 650.845 2027.62 651.404 2026.95C651.963 2026.27 648.286 2020.48 648.639 2019.65C648.992 2018.83 656.582 2012.78 655.493 2012.78C654.405 2012.78 647.962 2014.81 646.638 2014.22Z" fill="#4C5AD0" stroke="#4C5AD0" stroke-width="5" stroke-linecap="round"/>
<path d="M803.299 2395.14C802.161 2394.64 799.86 2388.29 799.077 2389.07C798.293 2389.84 797.13 2395.14 796.397 2395.14C795.664 2395.14 788.636 2393.26 789.015 2393.91C789.394 2394.56 794.931 2398.78 794.905 2399.76C794.88 2400.73 792.529 2405.95 793.262 2405.95C793.995 2405.95 798.874 2401.44 799.86 2401.49C800.846 2401.54 806.914 2406.53 807.394 2405.95C807.875 2405.38 804.714 2400.46 805.018 2399.76C805.321 2399.05 811.844 2393.91 810.908 2393.91C809.973 2393.91 804.436 2395.64 803.299 2395.14Z" fill="#4C5AD0" stroke="#4C5AD0" stroke-width="5" stroke-linecap="round"/>
<path d="M1132.07 2085.02C1130.66 2084.41 1126.59 2075.12 1125.62 2076.07C1124.64 2077.01 1121.7 2084.46 1120.79 2084.46C1119.88 2084.46 1112.55 2084.22 1113.02 2085.02C1113.49 2085.81 1120.24 2090.74 1120.21 2091.93C1120.18 2093.12 1118.62 2098.94 1119.53 2098.94C1120.44 2098.94 1125.65 2093.51 1126.88 2093.57C1128.1 2093.63 1132.73 2099.64 1133.33 2098.94C1133.93 2098.24 1131.96 2092.79 1132.33 2091.93C1132.71 2091.08 1141.05 2085.48 1139.89 2085.48C1138.73 2085.48 1133.48 2085.63 1132.07 2085.02Z" fill="#4C5AD0" stroke="#4C5AD0" stroke-width="5" stroke-linecap="round"/>
<path d="M495.394 1199C493.894 1198.85 490.355 1210.62 489.316 1210.62C488.277 1210.62 480.315 1209.54 480.007 1210.62C479.699 1211.69 489.316 1218.62 489.316 1219.62C489.316 1220.62 487.085 1230.23 487.739 1230.96C488.393 1231.69 494.663 1221.46 495.394 1221.66C496.125 1221.85 505.588 1231.5 506.165 1230.96C506.742 1230.42 500.933 1220.69 500.933 1219.62C500.933 1218.54 511.358 1211.46 511.973 1210.62C512.589 1209.77 502.472 1210.62 500.933 1210.62C499.394 1210.62 496.894 1199.16 495.394 1199Z" fill="#4C5AD0" stroke="#4C5AD0" stroke-width="5" stroke-linecap="round"/>
<path d="M466.432 2733C465.025 2732.86 461.708 2743.89 460.734 2743.89C459.76 2743.89 452.295 2742.88 452.007 2743.89C451.718 2744.9 460.734 2751.39 460.734 2752.33C460.734 2753.27 458.642 2762.28 459.255 2762.96C459.868 2763.65 465.747 2754.06 466.432 2754.24C467.117 2754.42 475.988 2763.47 476.529 2762.96C477.07 2762.46 471.625 2753.34 471.625 2752.33C471.625 2751.32 481.398 2744.68 481.975 2743.89C482.552 2743.1 473.067 2743.89 471.625 2743.89C470.182 2743.89 467.838 2733.15 466.432 2733Z" fill="#4C5AD0" stroke="#4C5AD0" stroke-width="5" stroke-linecap="round"/>
<path d="M1209.62 1221C1208.68 1220.9 1206.47 1228.26 1205.82 1228.26C1205.17 1228.26 1200.2 1227.59 1200 1228.26C1199.81 1228.93 1205.82 1233.26 1205.82 1233.89C1205.82 1234.51 1204.43 1240.52 1204.84 1240.98C1205.25 1241.43 1209.16 1235.04 1209.62 1235.16C1210.08 1235.28 1215.99 1241.31 1216.35 1240.98C1216.71 1240.64 1213.08 1234.56 1213.08 1233.89C1213.08 1233.21 1219.6 1228.79 1219.98 1228.26C1220.37 1227.73 1214.04 1228.26 1213.08 1228.26C1212.12 1228.26 1210.56 1221.1 1209.62 1221Z" fill="#4C5AD0" stroke="#4C5AD0" stroke-width="5" stroke-linecap="round"/>
<path d="M546.15 2363.63C555.291 2354.68 572.512 2349.63 575.154 2355.91C578.204 2363.16 566.357 2373.19 554.43 2377.86C540.295 2383.39 527.465 2377.96 531.821 2365.71C536.419 2352.79 553.02 2341.86 566.509 2337.92C581.784 2333.46 597.051 2341.95 586.49 2362.16" stroke="#4C5AD0" stroke-width="5" stroke-linecap="round"/>
<path d="M813.254 1863.66C800.393 1850.61 808.062 1837.69 817.161 1831.22C830.776 1821.53 854.998 1815.67 862.115 1830.25C869.232 1844.83 860.113 1858.71 838.709 1863.13C822.498 1866.48 815.923 1854.27 818.093 1846.06C820.529 1836.84 831.643 1830.93 840.145 1829.76C849.849 1828.43 853.924 1833.61 854.645 1840.48C855.542 1849.01 843.58 1854.92 836.983 1853.91C830.386 1852.91 830.695 1845.47 833.235 1842.12" stroke="#4C5AD0" stroke-width="5" stroke-linecap="round"/>
<path d="M575.378 1566.53C575.378 1566.53 572.339 1580.64 575.378 1603" stroke="#4C5AD0" stroke-width="5" stroke-linecap="round"/>
<path d="M562.785 1586.18C571.902 1584.22 583.082 1586.18 583.082 1586.18" stroke="#4C5AD0" stroke-width="5" stroke-linecap="round"/>
<path d="M567.008 1597.92C574.509 1579.34 592.091 1564.36 592.091 1564.36" stroke="#4C5AD0" stroke-width="5" stroke-linecap="round"/>
<path d="M560.836 1571.2C568.542 1582.81 590.164 1601.12 590.164 1601.12" stroke="#4C5AD0" stroke-width="5" stroke-linecap="round"/>
<path d="M820.554 2027C821.434 2027.11 821.065 2030.21 820.365 2030.6C818.953 2031.39 817.958 2027.76 820.933 2027.76" stroke="#4C5AD0" stroke-width="5" stroke-linecap="round"/>
<path d="M875.554 2222C876.434 2222.11 876.065 2225.21 875.365 2225.6C873.953 2226.39 872.958 2222.76 875.933 2222.76" stroke="#4C5AD0" stroke-width="5" stroke-linecap="round"/>
<path d="M595.554 2645C596.434 2645.11 596.065 2648.21 595.365 2648.6C593.953 2649.39 592.958 2645.76 595.933 2645.76" stroke="#4C5AD0" stroke-width="5" stroke-linecap="round"/>
<path d="M1244 2140C1249.5 2140 1246.23 2146.56 1246.23 2142.23" stroke="#4C5AD0" stroke-width="5" stroke-linecap="round"/>
<path d="M330.684 2054.54C331.209 2052.68 332.736 2051.22 332.736 2054.04C332.736 2056.21 331.209 2055.99 330.684 2054.54Z" fill="#4C5AD0"/>
<path d="M330.508 2055.71C330.508 2053.47 332.736 2050.63 332.736 2054.04C332.736 2056.67 330.508 2055.79 330.508 2053.48" stroke="#4C5AD0" stroke-width="5" stroke-linecap="round"/>
<path d="M558.176 2161.07C558.702 2159.22 560.229 2157.76 560.229 2160.58C560.229 2162.75 558.702 2162.52 558.176 2161.07Z" fill="#4C5AD0"/>
<path d="M558 2162.25C558 2160.01 560.228 2157.17 560.228 2160.58C560.228 2163.2 558 2162.33 558 2160.02" stroke="#4C5AD0" stroke-width="5" stroke-linecap="round"/>
<path d="M640.214 1890.83C637.088 1890.44 640.863 1882.29 642.442 1888.6" stroke="#4C5AD0" stroke-width="5" stroke-linecap="round"/>
<path d="M1285.99 1400.38C1293.12 1403.39 1287.25 1391.44 1285.99 1400.38Z" fill="#4C5AD0"/>
<path d="M1285.76 1404.24C1285.76 1386.96 1295.69 1407.17 1283 1398.71" stroke="#4C5AD0" stroke-width="5" stroke-linecap="round"/>
<path d="M575.524 1098C575.524 1102.82 574.824 1103.52 570 1103.52" stroke="#4C5AD0" stroke-width="5" stroke-linecap="round"/>
<path d="M889.762 1632H887" stroke="#4C5AD0" stroke-width="5" stroke-linecap="round"/>
<path d="M656.129 1391.79C653.584 1391.47 654.3 1390.9 653.367 1389.03" stroke="#4C5AD0" stroke-width="5" stroke-linecap="round"/>
<path d="M291 1119.76V1117" stroke="#4C5AD0" stroke-width="5" stroke-linecap="round"/>
</g>
<defs>
<linearGradient id="paint0_linear_1164_110" x1="720" y1="0" x2="720" y2="3126.41" gradientUnits="userSpaceOnUse">
<stop stop-color="#7F8CFF"/>
<stop offset="0.450412" stop-color="#3240B1"/>
<stop offset="1" stop-color="#0C1988"/>
</linearGradient>
<clipPath id="clip0_1164_110">
<rect width="1440" height="2988" fill="white"/>
</clipPath>
</defs>
</svg>
