<svg width="20" height="20" viewBox="0 0 20 20" fill="none" xmlns="http://www.w3.org/2000/svg">
<rect x="0.657025" y="0.801678" width="18.3967" height="18.3967" stroke="white" stroke-width="1.31405"/>
<path d="M1.43799 8.35748C1.43799 4.72742 4.38146 1.78723 8.01234 1.78723H11.5981C15.2856 1.78723 18.2742 4.77669 18.2742 8.46425C18.2742 10.8952 16.9544 13.1291 14.8282 14.3036L8.21356 17.9665V14.9359H8.15853C4.47098 15.0181 1.43799 12.0532 1.43799 8.35748ZM8.01234 3.42979C5.28815 3.42979 3.08055 5.63904 3.08055 8.35748C3.08055 11.1252 5.3555 13.3509 8.12157 13.2934L8.40984 13.2852H9.85612V15.1741L14.034 12.8663C15.6363 11.9793 16.6317 10.2957 16.6317 8.46425C16.6317 5.6801 14.3781 3.42979 11.5981 3.42979H8.01234Z" fill="#7C7C7C"/>
</svg>
