<svg width="26" height="14" viewBox="0 0 26 14" fill="none" xmlns="http://www.w3.org/2000/svg">
<path fill-rule="evenodd" clip-rule="evenodd" d="M12.9777 14C18.3177 14 22.9513 10.5821 25.2582 8.52287C26.1877 7.69321 26.1877 6.30679 25.2582 5.47713C22.9513 3.41796 18.3177 0 12.9777 0C7.63761 0 3.00407 3.41796 0.697116 5.47714C-0.232373 6.30679 -0.232372 7.69321 0.697118 8.52287C3.00408 10.5821 7.63761 14 12.9777 14ZM12.9777 11.8837C15.6749 11.8837 17.8614 9.69723 17.8614 6.99997C17.8614 4.30278 15.6749 2.11627 12.9777 2.11627C10.2805 2.11627 8.09396 4.30278 8.09396 6.99997C8.09396 9.69723 10.2805 11.8837 12.9777 11.8837Z" fill="#02BFFF"/>
</svg>
