<svg width="124" height="96" viewBox="0 0 124 96" fill="none" xmlns="http://www.w3.org/2000/svg">
<path d="M34.3968 32.7947C42.7273 25.2972 58.7511 20.1358 68.9738 26.3757C79.19 32.6115 87.4562 39.8581 91.7399 51.2814C95.0726 60.1684 97.7356 72.3231 92.3391 80.9801C86.2006 90.8272 74.7294 92.8766 64.0526 92.8766C49.8091 92.8766 38.3159 93.2558 27.2075 83.2053C21.5911 78.1238 15.3587 66.9997 17.9213 59.027C19.0288 55.5814 21.3216 52.7826 22.8425 49.7409" stroke="black" stroke-width="5" stroke-linecap="round"/>
<path d="M34.5031 39.7739C29.479 39.7739 24.6324 38.937 19.6059 38.937C15.506 38.937 7.00825 39.7971 4.7086 43.9584C1.42456 49.9009 3.21489 56.1675 7.19148 61.0683C12.031 67.0325 19.3488 69.2038 26.2729 71.8549C35.5678 75.4138 44.39 78.9395 54.2742 80.5958C68.4713 82.9748 82.227 83.9178 96.4372 81.6187C102.134 80.697 108.806 78.917 108.989 72.0409C109.156 65.8165 107.355 60.4112 103.104 55.7214C101.372 53.8102 94.8886 48.1744 92.437 50.6536" stroke="black" stroke-width="5" stroke-linecap="round"/>
<path d="M112.398 7.01809C112.398 9.57396 111.768 12.9638 113.311 15.1039C114.872 17.2685 116.854 19.61 118.985 21.2054C119.408 21.522 121.388 22.1976 120.932 22.1976C115.759 22.1976 110.332 22.3249 107.397 27.4558C106.908 28.3113 106.339 31.8647 106.339 30.8042C106.339 24.9023 104.121 20.4818 99.0785 17.1873C98.2476 16.6444 93.3263 15.3681 94.0778 15.0543C98.1811 13.3408 102.128 11.6217 106.171 9.69682C110.368 7.69833 112.657 7.42141 114.561 3" stroke="black" stroke-width="5" stroke-linecap="round"/>
<path d="M40.7344 44.4087C40.7951 44.8941 43.3523 45.0426 43.5395 45.0871C46.7629 45.8534 50.0751 46.89 52.7901 48.8448C53.592 49.4222 53.1338 49.3261 52.4508 49.7842C50.1047 51.3578 47.9758 53.2828 45.4836 54.6378C44.701 55.0633 39.5827 56.5437 42.6001 57.2211C47.6704 58.3594 52.4427 60.8846 57.6437 61.318" stroke="black" stroke-width="5" stroke-linecap="round"/>
<path d="M61.4014 54.2725C63.7166 54.4172 65.652 55.7709 67.4814 57.0776C69.5501 58.5553 67.7889 58.3176 66.0984 59.0739C65.2098 59.4714 61.0736 61.0668 63.4628 62.0225C65.503 62.8386 67.5061 64.0771 69.6212 64.6059" stroke="black" stroke-width="5" stroke-linecap="round"/>
<path d="M77.3713 65.7799C77.3151 65.2743 76.3309 63.6924 77.6322 63.6924C78.4044 63.6924 79.7025 65.084 78.7804 65.5451" stroke="black" stroke-width="5" stroke-linecap="round"/>
</svg>
