<svg width="29" height="29" viewBox="0 0 29 29" fill="none" xmlns="http://www.w3.org/2000/svg">
<path d="M14.5057 2.8335C18.3717 2.8335 21.5057 5.9675 21.5057 9.8335V11.0002H26.1723V13.3335H24.8108L23.9281 23.9303C23.8777 24.535 23.3722 25.0002 22.7654 25.0002H6.24582C5.63905 25.0002 5.13357 24.535 5.08318 23.9303L4.19932 13.3335H2.83899V11.0002H7.50566V9.8335C7.50566 5.9675 10.6397 2.8335 14.5057 2.8335ZM22.4693 13.3335H6.54082L7.31899 22.6668H21.6912L22.4693 13.3335ZM15.6723 15.6668V20.3335H13.339V15.6668H15.6723ZM11.0057 15.6668V20.3335H8.67232V15.6668H11.0057ZM20.339 15.6668V20.3335H18.0057V15.6668H20.339ZM14.5057 5.16683C12.0064 5.16683 9.96606 7.13146 9.84471 9.60058L9.83899 9.8335V11.0002H19.1723V9.8335C19.1723 7.33426 17.2077 5.2939 14.7385 5.17255L14.5057 5.16683Z" fill="#231F20"/>
</svg>
