<svg width="21" height="20" viewBox="0 0 21 20" fill="none" xmlns="http://www.w3.org/2000/svg">
<path d="M14.1717 4.66171C13.1681 4.61243 11.9715 5.08056 10.9769 6.43568L10.3158 7.33087L9.65383 6.43568C8.65844 5.08056 7.46101 4.61243 6.4574 4.66171C5.43655 4.7192 4.52821 5.30231 4.06747 6.23036C3.61413 7.15019 3.5476 8.51352 4.46087 10.1889C5.34292 11.8069 7.13578 13.6958 10.3158 15.6176C13.4941 13.6958 15.2862 11.8069 16.1682 10.1889C17.0807 8.51352 17.0141 7.15019 16.56 6.23036C16.0992 5.30231 15.1917 4.7192 14.1717 4.66171ZM17.6104 10.9774C16.5008 13.0141 14.3245 15.1823 10.7289 17.2766L10.3158 17.523L9.90185 17.2766C6.30547 15.1823 4.12907 13.0141 3.01788 10.9774C1.90094 8.92416 1.85987 6.98594 2.59574 5.49942C3.32422 4.02932 4.76967 3.10949 6.37445 3.02736C7.73039 2.95345 9.14053 3.48728 10.315 4.67814C11.4886 3.48728 12.8987 2.95345 14.2538 3.02736C15.8586 3.10949 17.3041 4.02932 18.0325 5.49942C18.7684 6.98594 18.7273 8.92416 17.6104 10.9774Z" fill="#7C7C7C"/>
</svg>
