<svg width="287" height="241" viewBox="0 0 287 241" fill="none" xmlns="http://www.w3.org/2000/svg">
<path fill-rule="evenodd" clip-rule="evenodd" d="M246.933 173.553C247.449 194.999 246.416 216.915 253.738 237.42C254.17 238.642 253.541 239.987 252.321 240.429C251.101 240.861 249.758 240.231 249.317 239.009C241.826 218.024 242.765 195.61 242.239 173.666C242.202 172.368 243.234 171.287 244.53 171.259C245.825 171.221 246.895 172.255 246.933 173.553Z" fill="#161616"/>
<path fill-rule="evenodd" clip-rule="evenodd" d="M215.846 171.626C209.705 178.31 205.105 185.606 202.825 194.425C202.5 195.685 201.219 196.437 199.965 196.118C198.71 195.789 197.957 194.501 198.282 193.25C200.76 183.66 205.718 175.716 212.391 168.448C213.268 167.489 214.754 167.423 215.708 168.307C216.66 169.181 216.723 170.676 215.846 171.626Z" fill="#161616"/>
<path fill-rule="evenodd" clip-rule="evenodd" d="M148.802 153.028C138.312 156.093 130.106 162.129 124.18 171.381C123.481 172.471 122.027 172.791 120.938 172.086C119.848 171.39 119.53 169.933 120.23 168.842C126.791 158.604 135.872 151.909 147.487 148.515C148.73 148.149 150.034 148.873 150.397 150.114C150.76 151.364 150.045 152.671 148.802 153.028Z" fill="#161616"/>
<path fill-rule="evenodd" clip-rule="evenodd" d="M134.565 47.3978C136.708 45.5738 139.018 43.9378 141.476 42.5464C142.571 41.9258 144.897 40.8352 146.891 40.666C149.017 40.4779 150.81 41.2018 151.754 43.0634C153.006 45.5361 152.876 47.5106 152.118 49.0337C151.391 50.5004 149.961 51.6474 148.044 52.3713C144.38 53.7534 138.781 53.5465 135.586 52.8226C133.581 54.7688 131.762 56.903 130.146 59.1877C118.107 76.2052 122.546 101.167 140.547 120.376C146.849 127.098 160.085 130.332 174.365 132.015C196.6 134.638 221.434 133.143 228.71 132.936C230.507 132.889 231.573 133.059 231.786 133.153C232.834 133.595 233.106 134.375 233.209 134.92C233.35 135.71 233.2 136.34 232.937 136.848C232.577 137.534 231.942 138.098 230.963 138.361C230.422 138.502 229.67 138.54 228.867 138.521C228.31 138.502 227.702 138.39 227.303 138.502C224.748 139.236 222.253 140.119 219.74 140.984C211.293 143.871 203.377 147.603 195.47 151.75C170.347 164.922 143.801 177.661 124.66 199.258C123.801 200.226 122.316 200.32 121.348 199.455C120.379 198.6 120.291 197.114 121.15 196.136C140.67 174.107 167.672 161.02 193.293 147.585C200.019 144.059 206.754 140.825 213.799 138.136C201.337 138.408 184.086 138.305 168.823 136.02C155.249 133.989 143.252 130.125 137.125 123.591C117.406 102.549 113.128 75.1052 126.317 56.4705C127.729 54.4773 129.282 52.5782 130.966 50.8107C113.388 41.0609 106.343 20.1886 114.75 1.74197C115.288 0.557331 116.681 0.0402346 117.859 0.576144C119.038 1.12146 119.558 2.51289 119.02 3.69753C111.444 20.3201 118.205 39.1711 134.565 47.3978ZM140.45 48.761C141.524 47.9995 142.637 47.2943 143.788 46.6362C144.406 46.2883 145.593 45.6865 146.755 45.4327C147.028 45.3763 147.454 45.3669 147.651 45.3669C147.97 46.0157 148.124 46.5233 147.917 46.937C147.661 47.4541 147.06 47.7174 146.389 47.9713C144.705 48.6106 142.473 48.8174 140.45 48.761Z" fill="#161616"/>
</svg>
