<svg width="130" height="45" viewBox="0 0 130 45" fill="none" xmlns="http://www.w3.org/2000/svg">
<path d="M43.1164 26.7404C39.1997 29.182 41.4887 34.0652 44.6424 33.4548C47.7962 32.8444 47.7962 30.0467 47.7962 30.0467C47.7962 30.0467 47.0332 24.2988 43.1164 26.7404Z" fill="#400072"/>
<path d="M119.762 1.23093C115.622 0.762952 112.641 1.74468 110.469 3.39276C109.864 2.73149 109.07 2.233 108.053 1.97358L107.987 1.95832C105.876 1.43948 100.926 0.223766 97.2486 3.09773C96.9434 3.33681 96.6637 3.59114 96.3992 3.86582C95.7328 3.34698 94.9444 3.01635 94.0949 2.91461C93.6625 2.86375 93.2353 2.80271 92.8182 2.74167C90.4122 2.39577 87.4212 1.96849 84.9847 3.82004C83.8605 4.67969 83.0416 5.8954 82.5482 7.45192C81.5715 6.91273 80.4728 6.67366 79.3487 6.76522C77.6141 6.90765 76.0118 7.80799 74.5723 9.11018C74.2162 7.42649 73.6312 5.83945 72.7309 4.53217C71.4847 2.72641 69.7399 1.56156 67.6697 1.15463C64.577 0.228852 60.6755 0.264459 58.7171 3.08756C58.2492 3.75391 57.9134 4.57795 57.7507 6.66349C57.0284 5.95644 56.2959 5.38165 55.6041 4.91367C50.5327 1.48526 44.4439 1.44965 40.4356 2.56363C38.1161 3.20455 36.1425 4.49657 34.6775 6.28199C34.4741 5.77841 34.2909 5.38673 34.1434 5.12731C32.2766 1.90237 26.605 1.50561 23.2274 2.4619C19.8092 3.42837 17.8101 5.82927 17.8864 8.88636C17.9119 9.87318 17.5965 10.7532 17.1997 11.4348C17.0726 10.7989 16.9403 10.097 16.8081 9.4052C16.1824 6.09887 14.1477 4.91367 12.9931 4.50165C9.26962 3.17403 5.20028 6.03274 2.06689 8.66255C0.556153 9.93422 -0.166154 11.9536 0.032226 14.3545C0.250953 16.9996 1.62944 20.3466 4.25416 23.4241C1.14112 26.298 0.169566 32.9514 0.123786 33.2719C-0.496787 37.6769 4.88491 40.7035 7.22478 41.8022C10.1649 43.1807 13.7866 44.1624 17.4286 44.1624C21.6353 44.1624 25.8674 42.85 29.0771 39.3148L29.2094 39.1571C29.8147 38.4094 30.364 37.6515 30.8829 36.8986C32.0172 39.559 34.7793 42.8704 41.4988 43.5164C42.277 43.5927 43.04 43.6334 43.7928 43.6334C48.8541 43.6334 53.2439 41.8785 56.5858 38.4908C57.3641 37.7023 58.0711 36.8223 58.712 35.8813C58.7273 36.2933 58.7375 36.6138 58.7375 36.8173C58.7375 39.2945 59.7802 40.7391 60.6552 41.5173C62.7966 43.4147 65.6096 43.0688 67.868 42.7941C68.1376 42.7636 68.4072 42.728 68.6768 42.6974C70.5487 42.4991 72.8733 41.6598 75.1318 39.2792C75.732 40.968 76.9427 42.26 78.6416 43.0332C79.9336 43.6181 81.3528 43.8318 82.7415 43.8318C86.0427 43.8318 89.1303 42.6313 89.6746 42.4075C91.8059 41.553 93.1284 39.7523 93.9983 37.6718C94.3035 39.5234 94.9291 41.0341 96.1652 42.1583C98.2914 44.0912 101.099 43.8725 103.571 43.6741C103.958 43.6436 104.324 43.6181 104.675 43.5978C106.883 43.4554 109.162 43.3129 111.054 41.6242C111.262 41.441 111.451 41.2427 111.629 41.0392C111.766 41.324 111.929 41.5987 112.122 41.8632C112.921 42.9467 114.111 43.6232 115.474 43.7707C115.84 43.8114 116.313 43.8826 116.817 43.9589C118.063 44.1522 119.579 44.3862 121.151 44.3862C123.216 44.3862 125.368 43.9844 127.107 42.5499C128.277 41.5835 129.707 39.7523 129.839 36.507C130.785 13.3168 127.58 2.11092 119.762 1.23093ZM26.432 36.9139C18.9038 45.2052 3.13509 37.3717 3.64376 33.7602C4.15243 30.1486 6.23796 24.5533 8.0183 25.825C9.74776 27.0458 14.1223 34.4723 20.0737 31.3186C25.9234 28.0631 26.7881 21.0435 26.7881 21.0435C26.7881 21.0435 19.3107 29.64 11.935 25.2654C4.55936 20.8909 2.11776 13.2609 4.35589 11.3788C6.59403 9.49676 12.342 4.96963 13.3084 10.0563C14.2749 15.143 14.5292 16.4655 16.4622 16.3638C18.3951 16.262 21.5488 12.854 21.4471 8.78463C21.3454 4.71529 29.9418 4.96963 31.0609 6.90256C32.18 8.8355 37.114 23.6886 26.432 36.9139ZM41.8447 39.9659C28.6193 38.6942 33.9603 25.2146 39.6574 22.773C45.3545 20.3314 48.9151 21.1452 50.2885 24.6042C50.2885 24.6042 51.255 12.6505 45.9648 13.3118C42.0481 14.0748 43.981 17.1268 41.4377 17.2285C38.8944 17.3302 36.758 18.3984 35.8424 16.4655C34.9268 14.5326 35.3337 7.66556 41.3868 5.98696C47.44 4.30836 57.8677 6.34303 59.1393 17.7372C60.411 29.1313 55.1209 41.2884 41.8447 39.9659ZM46.0971 17.8389C46.148 17.727 46.1988 17.6253 46.2395 17.5235C46.2701 17.6303 46.3057 17.7372 46.3311 17.8592C46.2548 17.8491 46.1734 17.844 46.0971 17.8389ZM88.3368 39.1012C85.3865 40.322 79.5877 41.3393 78.4687 38.033C77.3496 34.7775 76.3323 30.3521 76.3323 30.3521C74.0941 36.1509 71.1439 38.8468 68.2953 39.152C65.4468 39.4572 62.2931 40.2202 62.2931 36.8122C62.2931 33.4041 60.3601 6.90256 61.6318 5.12223C62.8526 3.34189 66.8202 4.61356 66.8202 4.61356C74.0433 5.78349 70.7369 21.9082 70.7369 21.9082C70.7369 21.9082 75.2641 10.6667 79.6386 10.3106C84.0131 9.95456 83.8097 22.2134 83.8097 22.2134C83.8097 22.2134 84.9796 15.1938 85.6409 9.95456C86.3021 4.76616 89.8119 5.98696 93.6778 6.44476C97.5437 6.90256 92.7622 25.9267 92.3044 28.9278C91.8466 31.929 91.2871 37.9312 88.3368 39.1012ZM126.283 36.3544C126.029 42.611 119.162 40.5763 115.856 40.2202C112.549 39.8642 116.873 30.3521 115.856 26.3845C114.838 22.4678 110.871 26.0793 110.413 33.2006C109.955 40.322 107.819 39.7624 103.292 40.1185C98.7645 40.4746 97.3911 40.322 97.2893 34.1162C97.1876 27.8596 97.2893 11.684 97.2893 11.684C97.3402 2.93496 104.512 4.76616 107.208 5.42743C109.955 6.13956 108.022 14.8378 108.022 14.8378C109.396 9.95456 111.227 3.85056 119.365 4.76616C127.504 5.68176 126.538 30.0978 126.283 36.3544Z" fill="#400072"/>
<path d="M31.0616 6.90236C29.9425 4.96942 21.3461 4.71509 21.4478 8.78442C21.5495 12.8538 18.3958 16.2618 16.4629 16.3636C14.5299 16.4653 14.2756 15.1428 13.3091 10.0561C12.3427 4.96942 6.59472 9.49656 4.35659 11.3786C2.11845 13.2607 4.56005 20.8907 11.9357 25.2652C19.3114 29.6398 26.7888 21.0433 26.7888 21.0433C26.7888 21.0433 25.9241 28.0629 20.0744 31.3184C14.123 34.4721 9.74845 27.0456 8.01899 25.8248C6.23865 24.5531 4.15312 30.1484 3.64445 33.76C3.13578 37.3715 18.9045 45.205 26.4327 36.9137C37.1147 23.6884 32.1807 8.83529 31.0616 6.90236Z" fill="#FF9900"/>
<path d="M59.1393 17.737C57.8676 6.34284 47.4399 4.30818 41.3868 5.98678C35.3337 7.66538 34.9267 14.5324 35.8423 16.4653C36.7579 18.3983 38.8943 17.3301 41.4377 17.2283C43.981 17.1266 42.0481 14.0746 45.9648 13.3116C51.2549 12.6503 50.2885 24.604 50.2885 24.604C48.9151 21.1451 45.3544 20.3312 39.6573 22.7728C33.9603 25.2144 28.6193 38.6941 41.8446 39.9657C55.1208 41.2883 60.4109 29.1311 59.1393 17.737ZM44.6423 33.4548C41.4885 34.0652 39.1995 29.182 43.1163 26.7404C47.033 24.2988 47.796 30.0467 47.796 30.0467C47.796 30.0467 47.796 32.8444 44.6423 33.4548Z" fill="#FF9900"/>
<path d="M93.677 6.44456C89.8111 5.98676 86.3013 4.76596 85.64 9.95437C84.9788 15.1936 83.8088 22.2132 83.8088 22.2132C83.8088 22.2132 84.0123 9.95437 79.6378 10.3104C75.2632 10.6665 70.7361 21.908 70.7361 21.908C70.7361 21.908 74.0424 5.7833 66.8194 4.61336C66.8194 4.61336 62.8518 3.3417 61.631 5.12203C60.3593 6.90236 62.2922 33.4039 62.2922 36.812C62.2922 40.2201 65.446 39.4571 68.2945 39.1518C71.143 38.8466 74.0933 36.1507 76.3314 30.3519C76.3314 30.3519 77.3488 34.7773 78.4678 38.0328C79.5869 41.3391 85.3857 40.3218 88.336 39.101C91.2862 37.931 91.8458 31.9288 92.3036 28.9276C92.7614 25.9265 97.5428 6.90236 93.677 6.44456Z" fill="#FF9900"/>
<path d="M119.365 4.76631C111.226 3.85071 109.395 9.95472 108.022 14.8379C108.022 14.8379 109.955 6.13972 107.208 5.42758C104.512 4.76631 97.3396 2.93511 97.2888 11.6842C97.2888 11.6842 97.187 27.8598 97.2888 34.1164C97.3905 40.3221 98.7639 40.4747 103.291 40.1187C107.818 39.7626 109.955 40.3221 110.412 33.2008C110.87 26.0795 114.838 22.4679 115.855 26.3847C116.872 30.3523 112.549 39.8643 115.855 40.2204C119.161 40.5765 126.028 42.6111 126.283 36.3545C126.537 30.0979 127.504 5.68191 119.365 4.76631Z" fill="#FF9900"/>
</svg>
