<svg width="190" height="190" viewBox="0 0 190 190" fill="none" xmlns="http://www.w3.org/2000/svg">
<g clip-path="url(#clip0_1121_82)">
<path d="M20.6035 189.228C13.7357 133.028 6.86783 76.8286 0 20.6289C56.2119 13.7596 112.42 6.89073 168.632 0.0214033C168.669 0.225212 168.714 0.428036 168.739 0.63332C175.554 56.3983 182.369 112.163 189.183 167.928C189.282 168.737 189.36 168.638 188.551 168.737C132.774 175.553 76.9965 182.369 21.2233 189.185C21.018 189.21 20.8103 189.215 20.6035 189.228ZM58.8642 51.0079C58.6427 50.9002 58.4945 50.8244 58.3423 50.749C56.9756 50.0622 55.5932 49.4141 54.1718 48.8483C53.2056 48.4639 52.2191 48.1473 51.1961 47.9659C49.3048 47.6333 47.6442 48.0854 46.2167 49.3752C45.9222 49.6399 45.6237 49.9052 45.3709 50.2098C43.4992 52.4444 41.7118 54.7341 40.8077 57.5654C40.7215 57.8292 40.6131 57.9119 40.32 57.8537C39.3739 57.667 38.5768 57.9973 37.896 58.6443C37.424 59.0942 37.0855 59.6339 36.8007 60.2121C36.2969 61.2378 36.0007 62.3239 35.8407 63.4547C35.8155 63.6497 35.81 63.8057 35.5554 63.8613C34.4612 64.1012 33.7229 64.8124 33.2364 65.7788C32.4079 67.4243 32.1769 69.1438 32.7428 70.9335C32.8017 71.1142 32.8565 71.2954 32.9345 71.4657C33.018 71.6475 32.989 71.7776 32.8427 71.9181C32.1815 72.5586 31.9429 73.3803 31.8635 74.2683C31.7147 75.8593 32.0279 77.3857 32.5056 78.8879C33.3818 81.6447 35.0057 83.9015 37.1901 85.763C39.9851 88.1422 43.1323 89.9596 46.4391 91.5123C47.2414 91.8923 48.0663 92.2245 48.9385 92.408C49.2487 92.4722 49.3333 92.5967 49.2937 92.9079C49.1472 94.0493 49.046 95.1933 48.8915 96.3356C48.2344 101.155 47.5356 105.967 46.9117 110.79C45.8113 119.304 44.9338 127.835 44.7909 136.427C44.7545 138.503 44.8408 140.58 45.1616 142.637C45.3529 143.867 45.6 145.087 46.1199 146.233C46.6904 147.491 47.6321 148.177 49.043 148.155C49.3081 148.152 49.5737 148.152 49.8318 148.124C51.0247 147.991 52.1449 147.597 53.2267 147.089C55.1808 146.163 56.9526 144.95 58.6944 143.691C61.6745 141.534 64.5423 139.227 67.387 136.897C67.807 136.556 67.7003 136.553 68.1538 136.82C69.3595 137.527 70.5374 138.273 71.678 139.082C71.8391 139.197 72.0224 139.293 72.1377 139.467C72.0085 139.613 71.8708 139.557 71.7491 139.563C70.8033 139.613 69.867 139.707 68.9564 139.978C68.1167 140.228 67.3206 140.566 66.7302 141.251C66.0142 142.078 66.0024 143.084 66.6906 143.936C67.0034 144.322 67.3985 144.613 67.8324 144.854C68.4114 145.18 69.0315 145.406 69.6632 145.595C70.6422 145.884 71.6416 146.072 72.6415 146.264C73.7329 146.47 74.8253 146.684 75.908 146.952C76.1819 147.021 76.3028 147.141 76.3624 147.427C76.5326 148.252 76.9481 148.978 77.4316 149.658C78.5424 151.226 79.9655 152.441 81.6641 153.336C81.9178 153.473 82.2526 153.538 82.1498 153.968C82.1279 154.056 82.2242 154.175 82.2732 154.275C83.2001 156.311 84.6601 157.828 86.6683 158.816C87.042 158.999 87.4248 159.157 87.8112 159.31C87.9961 159.385 88.1262 159.447 88.1361 159.695C88.1559 160.158 88.3847 160.559 88.6316 160.942C89.1545 161.744 89.8489 162.378 90.6512 162.893C91.6449 163.535 92.7468 163.928 93.8909 164.196C96.0563 164.7 98.2457 165.098 100.445 165.442C103.907 165.991 107.152 165.366 110.241 163.734C112.072 162.767 113.721 161.552 115.305 160.239C115.579 160.01 115.842 159.786 116.243 159.798C116.481 159.802 116.723 159.711 116.96 159.641C120.424 158.641 123.819 157.434 127.072 155.872C134.003 152.546 140.419 148.391 146.482 143.675C148.601 142.027 150.612 140.262 152.405 138.257C153.214 137.354 153.951 136.401 154.541 135.341C155.164 134.219 155.545 133.024 155.595 131.735C155.626 131.017 155.58 130.303 155.485 129.592C155.008 126.092 154.268 122.644 153.265 119.254C153.175 118.95 153.229 118.821 153.507 118.693C154.142 118.403 154.744 118.047 155.265 117.567C156.316 116.601 156.523 115.452 155.866 114.189C155.577 113.636 155.198 113.139 154.819 112.646C154.071 111.675 153.304 110.715 152.59 109.719C150.055 106.189 147.836 102.469 145.779 98.643C144.494 96.2508 143.305 93.8101 141.936 91.4649C140.799 89.5203 139.52 87.6789 137.843 86.1518C135.393 83.9224 132.551 82.5701 129.208 82.3577C128.953 82.3399 128.689 82.4211 128.438 82.3088C128.452 82.254 128.451 82.2092 128.472 82.1821C128.564 82.0647 128.664 81.9503 128.765 81.8359C130.304 80.0545 131.577 78.1055 132.574 75.9695C134.332 72.2005 134.794 68.2916 133.965 64.2137C133.574 62.2883 133.041 60.4006 132.481 58.5245C132.407 58.2843 132.295 58.0406 132.335 57.7294C132.72 57.8743 133.068 58.0115 133.422 58.1357C135.099 58.7233 136.807 59.0213 138.591 58.7093C141.142 58.2626 143.021 56.354 143.382 53.7893C143.606 52.2095 143.275 50.7097 142.65 49.2665C141.74 47.1716 140.346 45.4259 138.701 43.8702C135.675 41.0044 132.159 38.9094 128.315 37.3406C124.657 35.8513 120.838 34.9942 116.929 34.5283C116.1 34.4294 115.295 34.2949 114.586 33.8096C114.355 33.654 114.081 33.5527 113.822 33.4413C108.543 31.1287 103.014 30.0436 97.257 30.1057C93.9402 30.1434 90.6762 30.579 87.4533 31.3855C83.8817 32.2795 80.4905 33.6131 77.3165 35.488C75.5563 36.5284 73.8842 37.6887 72.402 39.0995C72.1055 39.3808 71.8219 39.534 71.4285 39.5575C70.8042 39.597 70.1907 39.7251 69.5942 39.892C64.0985 41.4215 60.5875 44.9513 59.0303 50.428C58.9639 50.5872 58.9252 50.7717 58.8642 51.0079Z" fill="#FEDA7E"/>
<path d="M20.6042 189.226C20.8109 189.213 21.0187 189.208 21.224 189.183C77.0012 182.366 132.778 175.55 188.552 168.734C189.361 168.636 189.283 168.735 189.184 167.926C182.369 112.161 175.555 56.396 168.74 0.631085C168.715 0.425801 168.67 0.222977 168.633 0.0191681C168.672 0.0388922 168.742 -0.0514482 168.752 0.061749C168.766 0.211173 168.788 0.359612 168.807 0.512569C175.658 56.5714 182.508 112.63 189.362 168.717C189.093 168.75 188.819 168.783 188.549 168.816C132.74 175.637 76.9345 182.456 21.1241 189.268C20.9591 189.288 20.7575 189.444 20.6042 189.226Z" fill="#A2EAF0"/>
<path d="M58.8654 51.0049C58.9264 50.7686 58.9656 50.5882 59.0174 50.4103C60.5781 44.9291 64.0896 41.4033 69.5813 39.8743C70.1778 39.7074 70.7948 39.5748 71.4156 39.5398C71.813 39.5158 72.0926 39.3631 72.3891 39.0818C73.8758 37.6745 75.5474 36.5102 77.3037 35.4703C80.4776 33.5954 83.8689 32.2618 87.4405 31.3678C90.6593 30.5618 93.9273 30.1257 97.2441 30.088C103.001 30.0259 108.53 31.111 113.809 33.4236C114.068 33.539 114.342 33.6363 114.573 33.7919C115.286 34.2767 116.087 34.4117 116.916 34.5106C120.825 34.9765 124.644 35.8336 128.302 37.3229C132.15 38.8872 135.662 40.9827 138.689 43.8525C140.333 45.4082 141.727 47.1539 142.637 49.2488C143.262 50.692 143.592 52.1878 143.369 53.7715C143.008 56.3322 141.129 58.2409 138.578 58.6916C136.794 59.0035 135.087 58.7056 133.409 58.118C133.055 57.9938 132.707 57.8566 132.322 57.7116C132.282 58.0229 132.397 58.2621 132.468 58.5068C133.033 60.3864 133.561 62.2705 133.952 64.196C134.781 68.2739 134.32 72.1869 132.561 75.9518C131.564 78.0878 130.291 80.0368 128.752 81.8182C128.651 81.9326 128.555 82.0465 128.459 82.1644C128.438 82.1915 128.439 82.2322 128.425 82.2911C128.676 82.4034 128.94 82.3262 129.195 82.34C132.539 82.5524 135.376 83.9051 137.83 86.1341C139.507 87.6612 140.786 89.5026 141.923 91.4472C143.292 93.7924 144.485 96.2326 145.766 98.6253C147.819 102.452 150.042 106.171 152.578 109.702C153.292 110.697 154.058 111.653 154.806 112.628C155.185 113.121 155.565 113.618 155.853 114.171C156.509 115.431 156.302 116.579 155.252 117.549C154.735 118.025 154.132 118.381 153.494 118.675C153.216 118.803 153.162 118.932 153.252 119.236C154.255 122.623 154.995 126.07 155.472 129.574C155.567 130.286 155.614 131.003 155.583 131.718C155.532 133.007 155.151 134.201 154.528 135.323C153.939 136.384 153.202 137.34 152.392 138.24C150.599 140.244 148.588 142.009 146.469 143.657C140.407 148.373 133.994 152.527 127.059 155.855C123.806 157.416 120.411 158.624 116.947 159.623C116.71 159.693 116.468 159.784 116.231 159.78C115.829 159.772 115.57 159.992 115.292 160.222C113.708 161.539 112.059 162.749 110.228 163.717C107.139 165.348 103.894 165.974 100.432 165.424C98.2323 165.076 96.0475 164.681 93.878 164.179C92.7344 163.914 91.6325 163.521 90.6384 162.875C89.8355 162.356 89.1416 161.726 88.6187 160.924C88.3718 160.541 88.139 160.141 88.1232 159.677C88.1133 159.429 87.9827 159.363 87.7983 159.292C87.412 159.139 87.0291 158.981 86.6554 158.798C84.6477 157.814 83.1872 156.293 82.2603 154.257C82.2153 154.157 82.115 154.038 82.1369 153.95C82.2397 153.521 81.9049 153.455 81.6513 153.319C79.9526 152.423 78.53 151.212 77.4188 149.64C76.9352 148.96 76.5238 148.234 76.3495 147.41C76.29 147.123 76.1691 147.003 75.8951 146.934C74.8165 146.666 73.7246 146.456 72.6287 146.247C71.6292 146.058 70.6293 145.866 69.6503 145.577C69.0146 145.389 68.3986 145.162 67.8195 144.837C67.3896 144.595 66.9946 144.304 66.6778 143.918C65.986 143.071 66.0013 142.06 66.7173 141.233C67.3077 140.548 68.1039 140.21 68.9435 139.96C69.8542 139.69 70.7905 139.596 71.7362 139.546C71.858 139.539 71.9956 139.596 72.1248 139.449C72.0141 139.279 71.8303 139.179 71.6651 139.064C70.5246 138.256 69.3426 137.509 68.1409 136.802C67.6834 136.536 67.7901 136.539 67.3742 136.88C64.5294 139.209 61.6616 141.516 58.6815 143.674C56.9403 144.936 55.1644 146.15 53.2138 147.071C52.1325 147.583 51.0158 147.973 49.8189 148.107C49.5567 148.135 49.2912 148.134 49.0301 148.138C47.6232 148.159 46.6775 147.473 46.1071 146.215C45.5871 145.07 45.34 143.85 45.1487 142.619C44.828 140.562 44.7421 138.489 44.778 136.41C44.9249 127.817 45.8025 119.286 46.8988 110.773C47.5227 105.949 48.2255 101.137 48.8786 96.3179C49.0336 95.1796 49.1344 94.0316 49.2809 92.8902C49.3209 92.583 49.2358 92.4545 48.9256 92.3903C48.0535 92.2068 47.2325 91.8741 46.4263 91.4946C43.1189 89.9379 39.9682 88.125 37.1772 85.7453C34.9929 83.8838 33.3689 81.627 32.4928 78.8702C32.015 77.368 31.7019 75.8416 31.8506 74.2506C31.9345 73.3661 32.1732 72.5444 32.8298 71.9004C32.9721 71.7604 33.0011 71.6302 32.9216 71.4479C32.8436 71.2777 32.7888 71.0965 32.7299 70.9158C32.164 69.1261 32.3951 67.4066 33.2235 65.7611C33.71 64.7947 34.4443 64.084 35.5425 63.8436C35.7971 63.7879 35.8026 63.632 35.8278 63.437C35.9883 62.3102 36.2841 61.2201 36.7879 60.1944C37.0726 59.6162 37.4106 59.0724 37.8831 58.6266C38.568 57.9791 39.3656 57.6529 40.3072 57.836C40.6002 57.8942 40.7086 57.8115 40.7948 57.5477C41.6985 54.7123 43.4863 52.4267 45.358 50.1921C45.6114 49.8915 45.9094 49.6222 46.2038 49.3575C47.6313 48.0677 49.2914 47.6116 51.1832 47.9482C52.2103 48.1291 53.1968 48.4457 54.1589 48.8306C55.5803 49.3964 56.9627 50.0445 58.3294 50.7313C58.4957 50.8213 58.6433 50.8931 58.8654 51.0049ZM89.7495 143.734C89.7746 143.739 89.8043 143.747 89.8294 143.752C89.8144 143.73 89.8034 143.707 89.7884 143.684C89.6059 143.261 89.2844 142.937 89.0234 142.572C88.3234 141.592 87.6043 140.621 86.8968 139.646C86.6958 139.372 86.465 139.188 86.0764 139.284C86.0954 139.507 86.2344 139.641 86.3381 139.787C87.0951 140.867 87.8708 141.933 88.6092 143.027C88.8942 143.454 89.2431 143.702 89.7495 143.734ZM79.0026 147.992L78.9896 147.986C78.4889 147.7 77.9365 147.559 77.3868 147.373C77.3084 147.701 77.4467 147.897 77.5478 148.089C77.8179 148.627 78.1565 149.125 78.533 149.598C79.8212 151.214 81.4522 152.358 83.3761 153.092C85.7452 153.991 88.2393 154.409 90.6836 155.022C90.9716 155.105 91.2626 155.18 91.5445 155.28C91.7792 155.362 91.9186 155.532 91.8695 155.8C91.8261 156.046 91.6049 156.175 91.3063 156.138C91.1775 156.121 91.0534 156.075 90.9228 156.042C88.7745 155.512 86.6217 154.979 84.4734 154.449C84.0659 154.29 83.665 154.118 83.1662 154.049C83.5719 154.861 84.0202 155.554 84.5929 156.162C86.1647 157.825 88.1532 158.652 90.3628 159.015C90.7504 159.078 91.1415 159.169 91.5385 159.109C91.8285 159.208 92.1358 159.183 92.434 159.216C92.7528 159.25 93.0732 159.264 93.3889 159.307C93.6464 159.341 93.7973 159.507 93.781 159.774C93.7611 160.046 93.5752 160.163 93.3196 160.178C93.2266 160.185 93.1315 160.176 93.037 160.171C91.8507 160.092 90.6653 160.02 89.4971 159.787C89.3759 159.765 89.2469 159.679 89.1308 159.799C89.4638 161.254 91.7977 162.868 94.0979 163.237C94.1821 163.324 94.3013 163.33 94.4104 163.354C96.5669 163.817 98.7316 164.247 100.918 164.556C103.803 164.959 106.551 164.513 109.167 163.225C110.712 162.464 112.172 161.567 113.514 160.484C114.455 159.723 115.377 158.949 116.318 158.192C116.724 157.865 116.937 157.908 117.14 158.362C117.224 158.552 117.317 158.577 117.482 158.524C117.805 158.419 118.127 158.315 118.453 158.209C122.061 157.078 125.553 155.667 128.911 153.929C133.326 151.645 137.522 149.004 141.59 146.157C143.973 144.494 146.292 142.744 148.471 140.815C150.211 139.274 151.868 137.658 153.21 135.741C154.396 134.044 154.901 132.193 154.644 130.125C154.39 128.08 154.013 126.063 153.576 124.054C153.05 121.659 152.433 119.287 151.58 116.985C151.465 116.676 151.329 116.632 151.047 116.67C150.07 116.794 149.118 117.032 148.179 117.302C144.962 118.223 141.86 119.447 138.828 120.847C138.329 121.076 138.33 121.084 138.478 121.658C138.481 121.715 138.475 121.773 138.486 121.829C138.986 124.076 139.488 126.319 139.716 128.615C139.723 128.704 139.727 128.802 139.851 128.885C140.035 128.85 140.193 128.708 140.364 128.602C140.698 128.393 141.026 128.165 141.369 127.968C141.575 127.849 141.779 127.91 141.927 128.088C142.07 128.258 142.038 128.528 141.854 128.697C141.759 128.786 141.645 128.854 141.531 128.925C140.377 129.642 139.262 130.419 138.157 131.204C136.266 132.546 134.405 133.934 132.564 135.348C127.861 138.95 123.308 142.742 118.749 146.522C118.504 146.728 118.408 146.911 118.477 147.242C118.602 147.831 118.68 148.43 118.749 149.03C118.789 149.356 118.643 149.534 118.385 149.565C118.132 149.596 117.951 149.455 117.876 149.145C117.834 148.962 117.819 148.772 117.796 148.587C117.7 147.839 117.569 147.095 117.31 146.383C116.731 144.783 115.812 143.388 114.708 142.105C114.66 142.05 114.604 141.991 114.515 141.994C114.375 142.154 114.415 142.386 114.306 142.563C114.194 142.744 114.032 142.829 113.83 142.776C113.628 142.728 113.5 142.588 113.495 142.376C113.49 142.266 113.521 142.152 113.544 142.043C113.683 141.377 113.882 140.727 114.127 140.093C114.84 138.241 116.013 136.708 117.446 135.361C118.065 134.779 118.676 134.189 119.216 133.531C119.675 132.972 120.068 132.377 120.191 131.643C120.325 130.801 119.937 130.105 119.146 129.785C118.79 129.641 118.421 129.596 118.036 129.626C117.199 129.692 116.478 130.05 115.81 130.528C114.942 131.149 114.223 131.919 113.547 132.737C112.294 134.254 111.229 135.9 110.15 137.539C109.382 138.708 108.608 139.864 107.742 140.963C106.317 142.775 104.568 144.178 102.477 145.152C100.367 146.137 98.1848 146.902 95.9099 147.409C95.5481 147.49 95.2125 147.519 94.9378 147.177C94.8275 147.043 94.62 146.983 94.4507 146.901C92.0516 145.756 89.6222 144.664 87.1371 143.718C83.4606 142.317 79.714 141.177 75.7987 140.663C73.8474 140.407 71.8916 140.282 69.9371 140.636C69.1495 140.777 68.3974 141.008 67.7467 141.5C67.3914 141.768 67.0993 142.085 67.1181 142.573C67.0805 143.068 67.3995 143.372 67.7282 143.655C68.2531 144.105 68.8882 144.355 69.5349 144.566C70.9179 145.018 72.3553 145.246 73.7815 145.517C75.6008 145.863 77.3887 146.319 79.1079 147.015C80.8785 147.731 82.6927 148.301 84.5795 148.63C87.2631 149.095 89.897 149.721 92.3826 150.872C92.5799 150.982 92.7874 151.075 92.9706 151.204C93.1408 151.326 93.1841 151.513 93.0895 151.708C92.9843 151.917 92.8165 152.016 92.5798 151.951C92.4908 151.925 92.4044 151.886 92.3175 151.844C90.1707 150.791 87.8884 150.167 85.5482 149.738C83.4337 149.351 81.3431 148.891 79.3439 148.077C79.2922 148.055 79.2349 148.054 79.1806 148.044C79.1193 148.011 79.0675 147.989 79.0026 147.992ZM120.016 48.512C119.81 48.529 119.603 48.538 119.397 48.5631C117.148 48.8461 114.904 49.1367 112.655 49.4237C112.523 49.44 112.395 49.4638 112.261 49.4719C112.026 49.4884 111.938 49.6013 111.95 49.8367C111.972 50.214 111.973 50.5898 111.962 50.967C111.744 58.7434 105.353 65.0151 97.5714 65.0264C93.3111 65.0322 89.7126 63.4334 86.7883 60.3305C86.6519 60.1838 86.5539 59.9833 86.3342 59.9244C86.1548 60.0607 86.1029 60.2713 86.0104 60.4501C85.54 61.3818 84.9808 62.255 84.3232 63.0584C80.1046 68.219 73.0161 69.8532 66.9599 67.0636C66.1893 66.7084 66.1812 66.7094 65.6744 67.376C65.6077 67.4658 65.5416 67.5597 65.4795 67.6531C64.5235 69.0568 63.8789 70.6022 63.4705 72.2413C63.2182 73.2526 63.0947 74.2808 63.0541 75.3193C63.0373 75.7504 63.0785 75.7862 63.5038 75.6893C64.0961 75.5556 64.6909 75.4747 65.2901 75.3974C67.9851 75.0518 70.6819 74.7222 73.368 74.3041C75.6611 73.9462 77.9641 73.6362 80.2596 73.2985C85.8611 72.4669 91.4778 71.7601 97.1245 71.2988C98.496 71.1884 99.8739 71.0976 101.246 71.028C103.658 70.9089 106.072 70.8018 108.484 70.7808C110.483 70.7612 112.485 70.7616 114.477 70.9799C115.756 71.1217 117.021 71.343 118.165 71.9794C119.033 72.4616 119.714 73.1219 120.059 74.0725C120.583 75.5119 120.261 76.8259 119.404 78.0337C118.477 79.3399 117.161 80.138 115.705 80.7325C115.129 80.9663 114.536 81.1614 113.936 81.3327C113.403 81.4837 113.408 81.4912 113.469 82.023C113.515 82.4341 113.578 82.8472 113.608 83.2602C113.668 84.0496 113.744 84.841 113.702 85.6346C113.672 86.2265 113.579 86.8016 113.253 87.3113C112.753 88.0996 111.864 88.2777 111.093 87.755C110.71 87.4954 110.423 87.1506 110.18 86.7636C109.876 86.2819 109.649 85.7622 109.438 85.2406C109.144 84.5044 108.869 83.7617 108.509 83.0541C108.315 82.6693 108.307 82.6702 107.907 82.7763C105.523 83.4271 103.11 83.9712 100.698 84.4947C97.4504 85.198 94.1889 85.8213 90.9125 86.3565C86.5909 87.0643 82.2491 87.6399 77.8809 87.9653C76.5653 88.0648 75.2437 88.1487 73.9249 88.1546C73.4677 88.1574 73.0084 88.1767 72.5522 88.1876C72.5544 88.2731 72.5489 88.2942 72.5544 88.3058C72.5884 88.3506 72.623 88.3995 72.6677 88.4308C74.4833 89.7491 76.4436 90.7801 78.5885 91.4494C78.7315 91.5831 78.9271 91.6123 79.1019 91.6726C80.7854 92.2431 82.5151 92.6241 84.2591 92.9216C88.1267 93.5806 92.0255 93.6925 95.9306 93.5216C98.6817 93.402 101.422 93.157 104.148 92.7013C106.998 92.2222 109.812 91.6088 112.563 90.7251C116.432 89.4884 120.088 87.8119 123.406 85.4455C127.025 82.8626 129.85 79.6045 131.746 75.5653C133.052 72.7789 133.659 69.8532 133.409 66.7748C133.261 64.9259 132.853 63.1252 132.357 61.3392C132.013 60.1025 131.627 58.8792 131.308 57.6394C131.217 57.2952 131.082 57.0911 130.771 56.9207C128.154 55.4961 125.82 53.6815 123.659 51.6415C122.698 50.7335 121.796 49.7693 121.008 48.7053C120.827 48.4619 120.637 48.3462 120.338 48.4359C120.24 48.4683 120.127 48.4861 120.016 48.512ZM67.7784 118.659C67.6125 118.471 67.3839 118.372 67.18 118.242C66.7006 117.929 66.697 117.933 66.279 118.323C64.6103 119.88 62.9376 121.436 61.1847 122.905C60.7698 123.254 60.3168 123.558 60.3316 124.214C60.3399 124.483 60.0911 124.619 59.8628 124.59C59.6305 124.561 59.47 124.385 59.4738 124.115C59.4753 123.926 59.5095 123.738 59.5357 123.551C60.136 119.27 60.5256 114.97 60.8654 110.663C61.3131 104.967 61.6658 99.2613 61.92 93.5517C61.9672 92.4674 62.1443 91.3755 61.9415 90.2849C61.9143 90.1289 62.0082 89.9949 62.082 89.8633C62.2397 89.5826 62.4019 89.3054 62.5471 89.0221C62.986 88.1678 63.429 87.3129 63.669 86.3685C63.7747 85.9634 63.754 85.6268 63.5358 85.245C63.0692 84.4359 63.1948 83.5912 63.8028 82.8837C64.039 82.6097 64.3233 82.3952 64.6261 82.1989C64.7435 82.1233 64.9126 82.1026 64.971 81.8789C64.8594 81.8681 64.7558 81.8562 64.6522 81.8444C64.1066 81.7926 63.56 81.7654 63.0195 81.6885C62.304 81.5839 61.6236 81.3647 61.0211 80.9481C59.9273 80.1871 59.6039 78.8785 60.2198 77.7002C60.5444 77.0804 61.0241 76.5928 61.6541 76.2993C62.0409 76.1213 62.1427 75.8842 62.1508 75.4828C62.1967 73.0506 62.7725 70.7415 63.8971 68.5777C64.0189 68.3381 64.0759 68.1024 64.0832 67.8278C64.1089 67.0689 63.9772 66.3251 63.9139 65.573C63.8866 65.2495 63.761 65.0238 63.5141 64.8089C62.2838 63.7336 61.2566 62.4824 60.4528 61.0527C60.3907 60.9459 60.3599 60.7944 60.1648 60.7693C59.9619 61.2148 59.8901 61.6975 59.8596 62.1833C59.7867 63.2912 59.7268 64.4056 59.683 65.5181C59.5993 67.7752 58.5658 69.5479 56.9381 71.0378C56.7581 71.2027 56.5758 71.2822 56.3244 71.2312C54.3262 70.8258 52.4378 70.1497 50.7106 69.0535C49.4353 68.2452 48.3002 67.2809 47.5161 65.9795C46.0916 63.6166 45.9529 61.211 47.4332 58.8158C48.1966 57.5746 49.1533 56.4772 50.1281 55.394C50.6427 54.8245 51.2729 54.6331 52.0244 54.7986C52.5955 54.9249 53.1528 55.106 53.7101 55.2871C54.893 55.6737 56.0881 56.026 57.3245 56.214C57.7865 56.2842 58.2465 56.371 58.7155 56.2973C58.7803 56.126 58.7415 55.9755 58.7198 55.8311C58.5574 54.7029 58.5298 53.5747 58.6738 52.4459C58.7201 52.0562 58.5989 51.8667 58.2639 51.6993C56.4717 50.8071 54.6704 49.9406 52.7765 49.2855C52.2775 49.1136 51.7668 48.98 51.247 48.8719C49.5369 48.5171 48.0319 48.9053 46.7435 50.0963C46.5786 50.2513 46.4092 50.4027 46.2538 50.5688C44.7999 52.1436 43.5789 53.8861 42.5235 55.7472C42.1298 56.4367 41.8833 57.194 41.6277 57.9443C41.5678 58.1232 41.4949 58.2955 41.6937 58.451C42.5675 59.149 43.0487 60.1115 43.4377 61.1221C44.3476 63.4866 45.4041 65.78 46.7265 67.943C46.9919 68.3763 47.1888 68.8506 47.3268 69.3444C47.6126 70.3798 47.1881 71.2855 46.1976 71.7048C45.5958 71.9622 44.9554 72.0037 44.3077 71.9521C44.1262 71.9375 43.9479 71.849 43.7611 71.9249C44.1651 74.6291 44.1371 74.7346 42.627 76.0835C42.6277 76.1896 42.7045 76.2497 42.7626 76.3243C43.3181 76.9917 43.7491 77.7112 43.645 78.6308C43.628 78.7922 43.7117 78.876 43.8484 78.9246C43.9725 78.9707 44.0931 79.0214 44.2177 79.0715C46.939 80.1116 49.3496 81.6187 51.2861 83.825C51.3859 83.9395 51.4967 84.0444 51.5849 84.1643C51.7232 84.3599 51.6985 84.559 51.5311 84.7265C51.3561 84.8991 51.1478 84.9 50.9666 84.7546C50.79 84.6128 50.635 84.4479 50.48 84.283C49.0123 82.6689 47.289 81.4047 45.2941 80.5251C44.8103 80.3105 44.3169 80.1175 43.8437 79.8893C43.4575 79.7037 43.1267 79.6379 42.7731 79.9875C42.5618 80.1972 42.2427 80.2607 41.9378 80.3061C41.4241 80.3811 40.9187 80.3244 40.4251 80.1968C39.0514 79.854 37.8356 79.1651 36.6436 78.4365C36.3613 78.2667 36.2961 78.0337 36.4088 77.8197C36.5352 77.5837 36.7929 77.5195 37.0938 77.6747C37.3118 77.787 37.5161 77.9214 37.7311 78.0422C38.5346 78.4996 39.3553 78.9304 40.2392 79.2104C40.7453 79.3733 41.2585 79.4944 41.7954 79.4084C42.517 79.2957 42.8745 78.7781 42.7261 78.065C42.6472 77.6865 42.4524 77.3631 42.2118 77.0656C41.9035 76.6825 41.5438 76.3466 41.1483 76.0517C39.8105 75.0672 38.4905 74.0602 37.1845 73.035C36.918 72.8265 36.6228 72.6502 36.3254 72.4904C35.9618 72.2898 35.579 72.1323 35.1627 72.0688C34.1054 71.9079 33.3053 72.3815 32.9465 73.3895C32.801 73.8036 32.7344 74.2284 32.7267 74.6665C32.6822 76.5757 33.1787 78.3656 33.941 80.0904C34.9012 82.2649 36.424 83.9948 38.2513 85.4751C40.6231 87.3995 43.248 88.9212 45.9719 90.2837C47.3642 90.9797 48.8007 91.5354 50.3406 91.8007C50.4533 91.8196 50.5623 91.843 50.6689 91.879C50.8985 91.9531 51.0047 92.1199 50.9844 92.3552C50.9617 92.5704 50.8179 92.731 50.6153 92.7108C50.1858 92.6734 50.1816 92.9395 50.1531 93.2412C49.8918 95.7161 49.5811 98.1889 49.2288 100.655C48.2345 107.562 47.2362 114.469 46.6114 121.425C46.105 127.043 45.5987 132.661 45.7129 138.309C45.7366 139.573 45.7808 140.838 46.0269 142.083C46.0493 142.901 46.2755 143.682 46.4614 144.468C46.5967 145.04 46.8024 145.587 47.0781 146.105C47.4509 146.815 48.0313 147.185 48.8389 147.242C49.9056 147.312 50.8977 147.039 51.8695 146.667C53.7002 145.97 55.3418 144.928 56.9388 143.821C60.2563 141.516 63.3988 138.983 66.5269 136.432C66.6383 136.341 66.7894 136.273 66.808 136.091C66.7749 136.054 66.7438 136.001 66.6996 135.974C65.2181 135.15 63.7361 134.322 62.1944 133.607C60.6988 132.801 59.1545 132.099 57.6138 131.393C56.6875 130.967 55.7485 130.571 54.8197 130.158C54.4308 129.985 54.3166 129.819 54.3757 129.534C54.4288 129.266 54.5972 129.106 54.8635 129.045C55.5621 128.878 56.2566 128.711 56.9552 128.544C57.2014 128.486 57.4609 128.47 57.6776 128.338C57.6462 128.215 57.5698 128.191 57.5045 128.159C56.9018 127.84 56.2905 127.551 55.6493 127.319C55.3845 127.225 55.158 127.109 55.1705 126.777C55.1824 126.473 55.36 126.288 55.753 126.195C56.0465 126.123 56.3399 126.05 56.6353 125.993C59.8083 125.381 62.9995 125.285 66.2075 125.661C67.3142 125.791 68.3979 126.035 69.4939 126.211C71.1786 126.692 72.8567 127.185 74.4511 127.93C74.6375 128.018 74.7724 127.952 74.9091 127.833C75.1889 127.583 75.4778 127.339 75.7531 127.085C76.1167 126.75 76.1082 126.747 75.8276 126.357C74.5679 124.607 73.1201 123.023 71.5221 121.58C70.3451 120.506 69.1372 119.482 67.7784 118.659ZM75.0091 123.838C75.0773 123.928 75.1379 124.022 75.2096 124.108C76.1982 125.278 77.0967 126.512 77.8137 127.866C78.159 128.519 78.4574 129.189 78.4362 129.952C78.4324 130.054 78.4548 130.137 78.5396 130.196C78.8153 130.379 79.0561 130.611 79.4012 130.761C79.4051 130.626 79.4123 130.551 79.4035 130.479C79.0925 127.432 79.0873 124.381 79.2003 121.328C79.3997 115.972 79.9254 110.646 80.7156 105.345C80.7745 104.958 80.8988 104.571 80.8415 104.169C80.8602 104.155 80.8658 104.134 80.8548 104.111C80.9102 104.063 80.919 104.001 80.9066 103.933C80.9478 103.768 80.9764 103.601 81.0347 103.443C81.1173 103.217 81.2936 103.121 81.5274 103.162C81.7652 103.203 81.8869 103.363 81.8833 103.601C81.8793 103.769 81.8426 103.937 81.8185 104.107C80.7699 110.805 80.0935 117.538 80.0446 124.326C80.0273 126.591 80.1036 128.853 80.3665 131.105C80.4047 131.451 80.5434 131.684 80.8154 131.904C82.725 133.456 84.4495 135.198 85.9767 137.131C86.0539 137.228 86.0953 137.366 86.2597 137.374C86.5708 136.944 86.8692 136.511 87.1902 136.096C87.5148 135.677 87.8489 135.268 88.1971 134.874C92.1468 130.388 96.4661 126.286 101.099 122.508C103.514 120.538 105.982 118.643 108.608 116.962C109.407 116.448 109.412 116.451 110.105 117.073C110.541 117.465 111.001 117.826 111.466 118.182C111.785 118.425 112.065 118.505 112.432 118.268C112.731 118.076 113.076 117.952 113.401 117.806C114.501 117.312 115.617 116.849 116.744 116.413C117.333 116.186 117.454 116.241 117.683 116.805C117.795 117.086 117.918 117.361 118.042 117.635C120.452 122.983 122.986 128.274 125.442 133.599C126.092 135.003 126.726 136.412 127.375 137.816C127.525 138.137 127.542 138.143 127.811 137.938C128.11 137.71 128.394 137.463 128.684 137.223C129.833 136.335 130.979 135.443 132.129 134.563C134.18 132.993 136.25 131.445 138.375 129.976C138.684 129.763 138.867 129.528 138.829 129.145C138.815 128.995 138.833 128.842 138.818 128.692C138.732 127.886 138.646 127.079 138.476 126.287C138.27 125.303 138.275 125.311 137.257 125.341C136.251 125.37 135.261 125.254 134.3 124.951C132.856 124.494 132.016 123.543 131.894 122.005C131.877 121.799 131.864 121.592 131.851 121.385C131.805 120.574 131.718 119.768 131.556 118.974C131.031 116.346 130.252 113.786 129.465 111.227C127.798 105.805 125.886 100.458 124.419 94.9752C124.402 94.863 124.372 94.7523 124.374 94.6376C124.373 94.3599 124.513 94.1712 124.74 94.1517C124.978 94.1308 125.135 94.2464 125.216 94.4694C125.253 94.5751 125.287 94.6854 125.309 94.7971C125.674 96.3785 126.173 97.923 126.66 99.473C128.216 104.443 129.884 109.374 131.333 114.377C132.035 116.808 132.697 119.248 132.788 121.802C132.793 121.973 132.825 122.141 132.85 122.309C132.956 123.044 133.369 123.549 134.022 123.874C134.309 124.018 134.612 124.124 134.924 124.205C135.883 124.463 136.867 124.453 137.847 124.452C138.055 124.451 138.113 124.358 138.074 124.171C137.891 123.307 137.708 122.447 137.511 121.535C136.857 121.803 136.31 122.136 135.745 122.433C135.58 122.519 135.412 122.617 135.235 122.671C135.038 122.728 134.858 122.656 134.76 122.46C134.668 122.275 134.681 122.081 134.839 121.939C134.95 121.84 135.088 121.77 135.218 121.697C136.533 120.952 137.89 120.296 139.27 119.686C142.898 118.079 146.588 116.655 150.495 115.859C151.151 115.812 151.801 115.651 152.469 115.732C152.929 115.787 153.354 115.922 153.72 116.209C153.905 116.354 153.961 116.547 153.869 116.762C153.784 116.965 153.604 117.032 153.403 116.991C153.277 116.965 153.162 116.89 153.041 116.835C152.859 116.755 152.692 116.624 152.424 116.706C152.561 117.086 152.685 117.438 152.814 117.786C152.875 117.954 152.993 117.948 153.132 117.882C153.744 117.578 154.342 117.256 154.816 116.753C155.344 116.194 155.504 115.562 155.173 114.83C154.915 114.257 154.555 113.749 154.165 113.266C151.046 109.407 148.423 105.225 146 100.909C144.533 98.2939 143.214 95.5953 141.766 92.9698C140.706 91.0486 139.555 89.1874 138.032 87.5923C135.815 85.2609 133.159 83.7471 129.937 83.3238C129.193 83.2267 128.441 83.1552 127.7 83.3725C127.37 83.4168 127.104 83.5761 126.862 83.8058C125.206 85.3685 123.374 86.6873 121.415 87.8418C121.27 87.9248 121.106 87.9858 121.001 88.1333C120.282 89.169 119.321 89.9646 118.351 90.7491C114.338 93.9848 109.732 95.9081 104.688 96.8186C101.075 97.4726 97.4462 97.4993 93.808 97.0125C90.9259 96.6293 88.1353 95.9245 85.5918 94.4664C84.9063 94.0722 84.2068 93.8309 83.4365 93.7126C83.0454 93.6542 82.7018 93.6839 82.3407 93.8383C80.7413 94.524 79.3724 95.5574 78.1007 96.7178C76.5612 98.1274 75.2495 99.7298 74.0568 101.436C72.4742 103.697 71.1478 106.114 69.8122 108.524C68.5202 110.855 67.1212 113.114 65.4426 115.19C65.1337 115.571 64.8519 115.973 64.6149 116.406C64.4511 116.704 64.322 117.018 64.2571 117.357C64.1796 117.759 64.315 118.098 64.5419 118.417C64.6161 118.523 64.713 118.58 64.8224 118.473C65.1447 118.168 65.5266 117.917 65.7636 117.516C65.6748 117.458 65.6054 117.425 65.5503 117.375C65.2948 117.157 65.2371 116.951 65.3795 116.746C65.532 116.523 65.7453 116.497 65.9784 116.599C66.203 116.699 66.4311 116.793 66.6455 116.91C67.8338 117.541 68.9221 118.323 69.9897 119.136C71.8178 120.523 73.4677 122.123 75.0091 123.838ZM84.182 44.5856C84.4018 44.379 84.4598 44.1513 84.567 43.9585C87.2766 38.9864 91.4725 36.2472 97.1149 36.0847C102.48 35.9274 106.686 38.2814 109.686 42.7395C110.494 43.9398 111.036 45.2667 111.442 46.647C111.561 47.0532 111.569 47.0522 111.988 47.0051C112.065 46.9957 112.137 46.9829 112.213 46.9735C114.397 46.6576 116.585 46.3453 118.769 46.0294C118.913 46.0076 119.07 46.0211 119.215 45.8973C119.146 45.534 118.931 45.217 118.807 44.8686C118.69 44.5479 118.558 44.2372 118.457 43.9145C118.363 43.6074 118.455 43.3919 118.684 43.2944C118.917 43.1965 119.138 43.2962 119.278 43.5732C119.327 43.6734 119.361 43.7837 119.398 43.8894C120.085 45.8358 121.138 47.5659 122.496 49.1158C124.282 51.1608 126.323 52.9173 128.536 54.4771C130.208 55.6577 131.963 56.6811 133.914 57.3373C135.401 57.8378 136.913 58.0739 138.484 57.788C140.749 57.3722 142.351 55.5996 142.519 53.3035C142.625 51.828 142.254 50.4599 141.611 49.1494C140.561 47.0103 139.013 45.2713 137.231 43.7242C134.25 41.1307 130.86 39.2287 127.175 37.8283C123.696 36.5049 120.081 35.7742 116.395 35.33C116.242 35.312 116.097 35.293 115.955 35.3675C115.739 35.4796 115.555 35.4041 115.376 35.2789C114.724 34.8234 114.008 34.4819 113.279 34.1666C107.891 31.8345 102.255 30.8115 96.3996 31.0001C93.7547 31.0864 91.1387 31.4428 88.5548 32.0282C85.7841 32.6569 83.1063 33.5438 80.5383 34.7605C78.1752 35.8827 75.9543 37.2326 73.9348 38.8929C73.7715 39.0272 73.5549 39.1272 73.4852 39.4258C75.5763 39.5216 77.5397 39.9762 79.3947 40.8811C81.2452 41.7825 82.8247 43.0398 84.182 44.5856ZM117.717 128.754C118.077 128.69 118.434 128.704 118.788 128.758C120.388 129.012 121.352 130.353 121.036 131.907C120.89 132.624 120.546 133.25 120.111 133.83C119.359 134.833 118.408 135.644 117.531 136.527C116.419 137.656 115.533 138.932 114.95 140.413C114.825 140.726 114.812 140.981 115.098 141.216C115.27 141.358 115.404 141.546 115.551 141.72C116.517 142.869 117.308 144.124 117.924 145.491C118.082 145.844 118.106 145.841 118.407 145.628C118.467 145.584 118.526 145.536 118.586 145.488C121.166 143.334 123.737 141.178 126.356 139.072C126.792 138.725 126.79 138.713 126.544 138.171C126.001 136.967 125.465 135.762 124.906 134.564C122.646 129.705 120.382 124.85 118.121 119.991C117.762 119.222 117.421 118.443 117.07 117.673C116.903 117.313 116.895 117.31 116.519 117.442C116.448 117.467 116.378 117.496 116.308 117.521C113.204 118.733 110.261 120.261 107.462 122.062C104.742 123.808 102.165 125.749 99.6795 127.809C95.5809 131.21 91.7039 134.854 87.9859 138.663C87.6192 139.038 87.6136 139.092 87.9272 139.52C89.0988 141.117 90.2779 142.709 91.4455 144.307C91.6073 144.528 91.8011 144.676 92.0482 144.793C93.1298 145.286 94.2078 145.783 95.2772 146.31C95.6072 146.47 95.913 146.498 96.2573 146.407C97.9893 145.938 99.6804 145.367 101.34 144.67C103.784 143.645 105.79 142.072 107.364 139.947C108.858 137.93 110.138 135.768 111.605 133.73C112.6 132.346 113.665 131.027 115.018 129.971C115.818 129.358 116.692 128.888 117.717 128.754ZM61.359 55.6311C61.4171 55.9059 61.5016 56.4307 61.6335 56.9416C63.2403 63.0366 69.2788 66.817 75.4404 65.488C79.8985 64.5265 82.8399 61.7853 84.3321 57.4809C84.4497 57.1397 84.4344 56.8475 84.2829 56.5105C83.1161 53.916 82.7358 51.2049 83.1555 48.3879C83.2077 48.0465 83.1471 47.7843 82.9603 47.4925C80.1429 43.1591 74.8631 41.1734 69.8495 42.5705C64.2788 44.1214 60.621 49.626 61.359 55.6311ZM112.083 76.9019C112.677 78.0141 112.997 79.1311 113.188 80.2885C113.231 80.5446 113.367 80.5852 113.587 80.5174C114.926 80.1047 116.243 79.6496 117.39 78.8067C118.226 78.1899 118.903 77.4493 119.237 76.4362C119.711 74.9975 119.181 73.6038 117.867 72.8452C117.458 72.6092 117.023 72.4294 116.566 72.2974C114.877 71.8174 113.145 71.7473 111.407 71.7023C108.522 71.6259 105.639 71.7372 102.754 71.865C99.8121 71.9958 96.8741 72.1914 93.9489 72.4917C89.6885 72.9306 85.4334 73.4465 81.1975 74.0867C77.728 74.6128 74.252 75.1193 70.7781 75.6092C68.8142 75.886 66.8474 76.1059 64.8821 76.3706C64.2833 76.4519 63.6875 76.5574 63.1006 76.7027C62.3587 76.8832 61.6728 77.1876 61.1967 77.8382C60.553 78.7217 60.7568 79.7548 61.6914 80.3147C61.9339 80.4607 62.1962 80.5676 62.4711 80.6443C62.9998 80.7921 63.5398 80.865 64.0884 80.9083C65.7881 81.0437 67.4815 80.9267 69.1768 80.8257C72.1132 80.6507 75.0487 80.435 77.9827 80.2072C80.484 80.0159 82.982 79.7637 85.4844 79.5805C86.8206 79.4826 88.1544 79.3318 89.4871 79.2057C92.0998 78.9559 94.7065 78.6905 97.3186 78.4366C97.5933 78.4112 97.7471 78.2984 97.885 78.0569C98.4946 76.9938 99.4054 76.2901 100.56 75.912C101.302 75.6661 102.079 75.6365 102.857 75.6518C104.032 75.6716 105.194 75.6195 106.337 75.3082C106.989 75.1305 107.652 74.9719 108.329 74.8973C109.365 74.7789 110.288 75.0173 111.06 75.7116C111.381 75.9991 111.685 76.0478 112.083 75.9664C113.323 75.7128 114.549 75.4118 115.78 75.1225C116.208 75.0211 116.451 75.1017 116.534 75.3776C116.611 75.6418 116.438 75.8632 116.011 75.9807C115.557 76.1097 115.096 76.2111 114.639 76.3159C113.809 76.5113 112.986 76.6977 112.083 76.9019ZM64.5897 86.448C64.2583 87.7141 63.6889 88.8376 63.0797 89.9375C62.9761 90.1258 62.9514 90.3249 62.9443 90.5342C62.9089 91.5149 62.8735 92.4956 62.8296 93.4733C62.63 97.824 62.3811 102.173 62.0749 106.52C61.7185 111.56 61.3334 116.599 60.7084 121.615C60.6909 121.772 60.5924 121.935 60.7327 122.114C61.8025 121.24 62.816 120.307 63.8351 119.386C64.0524 119.192 63.9134 119.058 63.8052 118.908C63.3452 118.286 63.2419 117.608 63.4502 116.872C63.5701 116.448 63.7557 116.062 63.9841 115.691C64.3014 115.178 64.6719 114.7 65.0424 114.222C66.0004 113.002 66.8962 111.74 67.6719 110.399C68.6367 108.733 69.5754 107.054 70.5271 105.381C71.7982 103.146 73.1542 100.97 74.7728 98.971C76.5544 96.7678 78.5636 94.8228 81.0612 93.4309C81.1262 93.3944 81.2052 93.3725 81.2006 93.2341C80.985 93.1747 80.7598 93.1041 80.5317 93.0422C78.5755 92.5132 76.6883 91.8123 74.8907 90.8759C73.5818 90.1943 72.331 89.4198 71.2327 88.4223C70.9979 88.2059 70.7669 88.0544 70.4354 88.0826C70.2855 88.0928 70.1342 88.0582 69.9853 88.0437C68.6126 87.9091 67.2567 87.6786 65.968 87.162C65.4957 86.9746 65.0633 86.7128 64.5897 86.448ZM83.9097 86.4524C87.0312 86.0873 89.8965 85.5982 92.7608 85.1338C94.0269 84.93 95.2885 84.6901 96.5436 84.4305C98.5008 84.032 100.455 83.6053 102.409 83.1867C104.085 82.8266 105.751 82.4147 107.414 81.9868C107.798 81.8867 107.819 81.8229 107.579 81.4968C106.805 80.4475 105.823 79.6933 104.563 79.3161C103.486 78.9903 102.378 78.8846 101.264 78.9268C100.483 78.9568 99.6721 78.8067 98.9321 79.2036C98.8863 79.2296 98.8229 79.2128 98.7666 79.2197C96.9815 79.3888 95.2005 79.5574 93.416 79.7306C91.9343 79.8749 90.4511 80.0398 88.9684 80.176C85.7772 80.4721 82.58 80.7525 79.3813 80.9881C77.292 81.1413 75.2062 81.3227 73.1209 81.4754C72.1817 81.5452 71.2385 81.5828 70.2982 81.6446C69.9415 81.6678 69.5648 81.6607 69.2351 81.7705C68.5872 81.9845 67.9239 82.1064 67.2561 82.2248C66.5843 82.3436 65.9384 82.541 65.3269 82.8527C65.0232 83.0083 64.7395 83.1941 64.505 83.4475C64.1336 83.8523 64.0755 84.3129 64.3156 84.8065C64.4411 85.0649 64.6302 85.2746 64.845 85.4608C65.2925 85.8473 65.8013 86.1324 66.35 86.3432C67.5207 86.7965 68.7443 87.0147 69.9888 87.1363C72.6474 87.3956 75.303 87.2631 77.9533 87.0536C80.021 86.8908 82.0892 86.732 83.9097 86.4524ZM87.1715 142.729C87.2472 142.614 87.1946 142.551 87.1545 142.49C86.8083 141.997 86.4505 141.51 86.1154 141.008C85.2879 139.785 84.369 138.651 83.2158 137.706C80.3773 135.372 77.3333 133.363 73.9978 131.809C71.2475 130.532 68.3886 129.602 65.3749 129.178C62.4733 128.769 59.5871 128.819 56.7238 129.492C56.5451 129.534 56.3544 129.545 56.2152 129.709C56.3445 129.865 56.537 129.903 56.7058 129.98C60.2058 131.542 63.6456 133.213 66.9842 135.093C69.2522 136.368 71.5039 137.678 73.4997 139.367C73.6823 139.524 73.8803 139.574 74.1152 139.59C75.393 139.683 76.6641 139.854 77.9264 140.088C80.8819 140.638 83.7465 141.514 86.5659 142.554C86.7669 142.627 86.9652 142.746 87.1715 142.729ZM47.3109 62.6955C47.4712 64.2079 48.0672 65.5077 49.1023 66.5905C51.0227 68.5986 53.4376 69.6721 56.1078 70.2609C56.3134 70.3052 56.4594 70.2629 56.6127 70.1134C57.7701 68.9874 58.5664 67.6808 58.7294 66.039C58.8121 65.2119 58.8376 64.3835 58.8715 63.5582C58.9118 62.6178 58.9602 61.6763 59.2117 60.7591C59.3301 60.3238 59.7269 59.9608 59.6764 59.5135C59.6248 59.0582 59.3876 58.6214 59.2314 58.1789C59.2124 58.124 59.198 58.0726 59.183 58.0173C59.1073 57.7651 59.1042 57.4386 58.9381 57.2833C58.7444 57.1027 58.403 57.2506 58.1295 57.2187C58.0344 57.2098 57.9434 57.2005 57.8484 57.1917C56.3389 57.0412 54.894 56.6172 53.4532 56.1601C52.9345 55.9947 52.4149 55.8212 51.8841 55.69C51.4589 55.5867 51.097 55.6677 50.8064 55.9974C49.819 57.1108 48.8281 58.2287 48.0665 59.5187C47.4491 60.5502 47.1859 61.6731 47.3109 62.6955ZM95.8403 37.0207C88.3554 37.9518 83.0402 44.7701 83.9667 52.2515C84.8874 59.6518 91.7183 64.9695 99.1438 64.0539C106.598 63.1389 111.89 56.3316 110.981 48.8603C110.123 41.8037 103.734 36.1582 95.8403 37.0207ZM83.4451 46.5794C83.5887 46.517 83.5794 46.4078 83.6229 46.3289C83.8888 45.8307 83.7651 45.4536 83.3941 45.0251C79.8001 40.8888 74.0308 39.2774 68.8268 40.9878C61.7062 43.3287 57.7755 50.9787 60.1515 58.1195C61.8177 63.1288 65.351 66.2675 70.5335 67.2561C75.6703 68.2379 80.0191 66.583 83.4873 62.6704C84.3562 61.6899 85.0157 60.5676 85.5476 59.371C85.6696 59.0987 85.6958 58.8789 85.4837 58.6475C85.3468 58.4967 85.2916 58.2788 85.0495 58.1368C83.9311 61.1536 82.0038 63.5012 79.1778 65.0476C76.3291 66.6091 73.2981 67.0122 70.1368 66.2832C64.8317 65.0605 60.9425 60.5476 60.433 55.0743C59.9333 49.6815 62.929 44.5764 67.8744 42.3543C72.9608 40.0823 79.5631 41.2895 83.4451 46.5794ZM45.1255 71.0555C45.2735 71.0293 45.4219 71.007 45.5689 70.9727C46.3541 70.7787 46.6613 70.251 46.421 69.4878C46.3203 69.1651 46.1838 68.8509 46.0207 68.5521C45.7024 67.9537 45.361 67.3663 45.0196 66.7789C44.0579 65.1275 43.3591 63.3541 42.6528 61.5857C42.3816 60.9039 42.0902 60.2246 41.619 59.6448C40.5247 58.312 39.0719 58.3588 38.0847 59.7744C37.3131 60.8819 36.9444 62.1444 36.7336 63.4611C36.6916 63.7195 36.7495 63.8922 37.037 63.9714C37.3667 64.0619 37.662 64.2382 37.9391 64.4331C38.5189 64.8321 39.0049 65.3324 39.4546 65.8698C40.7029 67.3595 41.9513 68.8493 42.9672 70.5104C43.0694 70.6777 43.1913 70.8057 43.3898 70.8591C43.9638 71.0096 44.5303 71.1323 45.1255 71.0555ZM98.8807 78.1477C100.337 78.031 101.651 77.9808 102.968 78.0935C105.56 78.3159 107.526 79.526 108.846 81.7709C109.161 82.3084 109.441 82.8625 109.683 83.4335C110.001 84.1994 110.311 84.9663 110.641 85.7267C110.813 86.1266 111.034 86.4999 111.342 86.8136C111.892 87.3714 112.417 87.2541 112.662 86.5174C112.834 85.9898 112.845 85.4451 112.827 84.8958C112.767 83.1956 112.545 81.515 112.199 79.8537C112.021 79.0012 111.78 78.1646 111.321 77.4199C110.525 76.12 109.618 75.5119 107.916 75.8629C107.585 75.9319 107.256 76.0129 106.927 76.098C105.865 76.3627 104.796 76.571 103.69 76.5468C103.104 76.5367 102.521 76.5426 101.94 76.5687C100.729 76.6227 99.7396 77.1194 98.8807 78.1477ZM36.1646 71.3417C36.2169 71.1678 36.0814 71.0618 36.0169 70.9349C35.7577 70.4518 35.5297 69.9568 35.3324 69.4457C35.212 69.1295 35.3123 68.8803 35.5621 68.7844C35.7886 68.6995 36.0288 68.7927 36.1427 69.0893C36.5756 70.2252 37.2343 71.2355 37.8778 72.2558C38.024 72.483 38.186 72.6716 38.3907 72.8427C39.3357 73.6219 40.3377 74.3328 41.321 75.0583C41.7296 75.3597 42.0329 75.3676 42.4411 75.0644C42.9356 74.6976 43.1266 74.1881 43.1142 73.585C43.093 72.7093 42.7762 71.9227 42.3316 71.1927C41.1509 69.2535 39.7232 67.4997 38.1917 65.8321C37.9515 65.5714 37.6629 65.3493 37.3682 65.1443C36.4345 64.4904 35.1915 64.5483 34.4141 65.5747C33.9956 66.1284 33.7233 66.7418 33.5504 67.4002C33.2465 68.5567 33.2322 69.7105 33.6571 70.8474C33.8024 71.2341 33.8044 71.2502 34.2291 71.1819C34.7821 71.0939 35.3192 71.1427 35.8494 71.3026C35.9474 71.3356 36.0513 71.4168 36.1646 71.3417ZM118.374 89.4962C118.308 89.492 118.29 89.4819 118.275 89.4879C118.154 89.5354 118.029 89.5873 117.909 89.6428C114.065 91.4118 110.027 92.5711 105.878 93.3478C102.83 93.9164 99.7578 94.2509 96.66 94.4089C93.696 94.5587 90.7386 94.5279 87.7807 94.2929C87.6489 94.2845 87.5153 94.2273 87.3395 94.3264C87.4701 94.3921 87.5494 94.4396 87.6318 94.4786C88.6717 94.9316 89.7486 95.2862 90.854 95.5392C96.5617 96.8476 102.24 96.746 107.873 95.1384C111.545 94.0933 114.897 92.4009 117.865 89.9832C118.04 89.8393 118.234 89.7217 118.374 89.4962ZM57.0469 126.854C57.7142 127.267 58.402 127.579 59.0159 128.023C59.182 128.146 59.3581 128.149 59.5518 128.129C62.4909 127.876 65.3914 128.11 68.2494 128.831C74.4584 130.397 79.8009 133.564 84.5666 137.761C84.8687 138.026 85.1641 138.17 85.6555 138.147C82.3495 133.926 78.4511 130.575 73.5442 128.499C68.2238 126.248 62.7053 125.819 57.0469 126.854ZM86.8473 138.438C87.107 138.39 87.2096 138.194 87.3473 138.05C90.5599 134.753 93.8943 131.584 97.3883 128.583C101.559 125.002 105.922 121.69 110.789 119.094C110.862 119.056 110.963 119.019 110.94 118.83C110.658 118.624 110.343 118.388 110.024 118.154C109.782 117.975 109.606 117.637 109.321 117.61C109.006 117.579 108.761 117.883 108.501 118.062C104.632 120.667 101.001 123.583 97.5383 126.702C94.3506 129.567 91.3163 132.585 88.5188 135.836C87.9391 136.507 87.3869 137.204 86.9637 137.987C86.8975 138.114 86.7639 138.224 86.8473 138.438ZM120.087 47.5188C119.873 46.8055 119.833 46.7817 119.17 46.8709C118.367 46.9814 117.567 47.0914 116.764 47.2058C115.198 47.4339 113.634 47.666 112.072 47.8896C111.843 47.9216 111.739 48.0078 111.769 48.2574C111.8 48.507 111.883 48.648 112.162 48.5935C112.253 48.5741 112.347 48.5708 112.444 48.559C114.817 48.2567 117.186 47.9549 119.555 47.6491C119.736 47.6229 119.931 47.6481 120.087 47.5188ZM77.3507 129.426C77.2853 128.691 76.9634 128.13 76.5953 127.558C76.2294 127.839 75.9168 128.123 75.608 128.471C76.2167 128.805 76.7857 129.116 77.3507 129.426ZM64.8721 65.9257C64.9105 66.2397 64.941 66.4892 64.9784 66.7951C65.1675 66.6045 65.3173 66.4596 65.4174 66.2758C65.2584 66.1113 65.1073 66.0113 64.8721 65.9257Z" fill="#070504"/>
<path d="M128.684 137.219C128.394 137.459 128.11 137.706 127.811 137.934C127.546 138.138 127.525 138.133 127.375 137.812C126.73 136.408 126.092 134.999 125.442 133.595C122.982 128.27 120.448 122.979 118.042 117.631C117.918 117.356 117.795 117.081 117.683 116.801C117.454 116.236 117.333 116.182 116.744 116.409C115.616 116.841 114.505 117.308 113.401 117.802C113.076 117.948 112.731 118.072 112.432 118.264C112.065 118.501 111.785 118.42 111.466 118.177C111.001 117.822 110.544 117.457 110.105 117.069C109.412 116.451 109.408 116.448 108.608 116.958C105.982 118.639 103.514 120.538 101.099 122.504C96.47 126.281 92.1507 130.383 88.197 134.87C87.8493 135.268 87.5112 135.677 87.1902 136.092C86.8691 136.507 86.5712 136.944 86.2597 137.37C86.0952 137.362 86.0498 137.224 85.9767 137.127C84.4494 135.193 82.7254 133.455 80.8154 131.899C80.5474 131.679 80.4087 131.447 80.3664 131.1C80.1075 128.848 80.0273 126.587 80.0446 124.321C80.0934 117.534 80.7704 110.804 81.8184 104.103C81.843 103.937 81.8797 103.769 81.8832 103.597C81.8909 103.359 81.7651 103.198 81.5273 103.158C81.2935 103.117 81.1172 103.212 81.0346 103.439C80.9763 103.597 80.9477 103.764 80.9065 103.928C80.8551 103.976 80.8338 104.035 80.8547 104.106C80.8657 104.13 80.8637 104.146 80.8415 104.165C80.639 104.28 80.6132 104.504 80.5423 104.692C80.3157 105.312 80.1188 105.941 79.8667 106.552C79.0312 108.574 78.3791 110.659 77.7984 112.761C76.8331 116.261 76.007 119.798 75.2398 123.348C75.2005 123.528 75.1965 123.729 75.001 123.835C73.4596 122.119 71.8097 120.519 69.9716 119.118C68.904 118.305 67.8162 117.527 66.6274 116.892C66.4129 116.775 66.1848 116.68 65.9603 116.581C65.7272 116.479 65.5138 116.505 65.3613 116.728C65.2189 116.933 65.2767 117.138 65.5321 117.356C65.5873 117.407 65.6566 117.439 65.7455 117.498C65.5085 117.899 65.1261 118.145 64.8043 118.454C64.6944 118.558 64.5975 118.5 64.5238 118.399C64.2968 118.079 64.1614 117.74 64.239 117.339C64.3038 117 64.4334 116.69 64.5967 116.388C64.8338 115.955 65.1161 115.557 65.4245 115.172C67.1026 113.091 68.5021 110.837 69.7941 108.506C71.1296 106.096 72.4566 103.682 74.0387 101.418C75.2314 99.7114 76.5431 98.109 78.0826 96.6994C79.3538 95.535 80.7232 94.5056 82.3226 93.8199C82.6836 93.6655 83.0273 93.6358 83.4184 93.6942C84.1887 93.8125 84.8841 94.0543 85.5736 94.4481C88.1172 95.9062 90.9078 96.611 93.7898 96.9941C97.4281 97.481 101.056 97.4502 104.67 96.8003C109.714 95.8897 114.32 93.9664 118.333 90.7307C119.304 89.9502 120.265 89.1547 120.983 88.115C121.084 87.9679 121.252 87.9105 121.397 87.8234C123.356 86.6729 125.188 85.3501 126.844 83.7874C127.085 83.5577 127.348 83.399 127.682 83.3541C128.565 83.4627 129.338 83.838 130.043 84.3605C131.534 85.4571 132.891 86.7047 134.206 88.0065C136.796 90.5743 139.169 93.3115 141.094 96.4303C142.454 98.6295 143.698 100.888 144.847 103.203C146.72 106.965 148.385 110.826 150.057 114.683C150.222 115.059 150.461 115.414 150.477 115.845C146.571 116.641 142.881 118.068 139.253 119.672C137.873 120.282 136.515 120.938 135.201 121.683C135.071 121.756 134.932 121.826 134.822 121.925C134.663 122.067 134.65 122.261 134.742 122.445C134.839 122.638 135.02 122.714 135.218 122.657C135.395 122.607 135.563 122.509 135.728 122.419C136.292 122.121 136.836 121.789 137.493 121.521C137.686 122.433 137.874 123.297 138.056 124.157C138.096 124.344 138.037 124.437 137.829 124.438C136.849 124.439 135.865 124.445 134.907 124.19C134.594 124.106 134.295 123.999 134.004 123.859C133.352 123.535 132.939 123.029 132.832 122.295C132.808 122.126 132.775 121.959 132.77 121.788C132.679 119.237 132.017 116.794 131.316 114.363C129.871 109.359 128.202 104.428 126.643 99.4586C126.16 97.9122 125.66 96.3676 125.291 94.7828C125.265 94.6715 125.232 94.5653 125.198 94.4551C125.122 94.2315 124.96 94.1164 124.722 94.1374C124.496 94.1569 124.356 94.3496 124.356 94.6233C124.358 94.7334 124.388 94.8482 124.402 94.9609C124.345 94.9678 124.29 94.9787 124.233 94.9856C123.663 95.0675 123.603 95.1729 123.772 95.7242C123.875 96.067 123.966 96.4113 124.065 96.7546C124.436 98.0819 124.535 99.4589 124.769 100.811C125.199 103.259 125.437 105.738 125.775 108.201C126.376 112.589 127.002 116.973 127.326 121.395C127.428 122.763 127.683 124.121 127.717 125.502C127.742 126.438 127.893 127.372 127.955 128.312C128.068 130.039 128.205 131.766 128.354 133.488C128.487 134.743 128.528 135.984 128.684 137.219Z" fill="#CF9356"/>
<path d="M46.0185 142.08C45.7724 140.836 45.7281 139.571 45.7044 138.307C45.5902 132.659 46.0966 127.041 46.603 121.423C47.2323 114.471 48.2261 107.559 49.2204 100.652C49.5767 98.1861 49.8838 95.7178 50.1447 93.2388C50.1772 92.9366 50.1774 92.671 50.6068 92.7084C50.809 92.7246 50.9573 92.5676 50.976 92.3529C50.9963 92.1175 50.8901 91.9507 50.6604 91.8767C50.5544 91.8447 50.4408 91.8177 50.3322 91.7983C48.7923 91.533 47.3558 90.9773 45.9635 90.2814C43.2396 88.9188 40.6142 87.3931 38.2429 85.4728C36.4156 83.9925 34.8888 82.2631 33.9326 80.0881C33.1703 78.3633 32.6737 76.5733 32.7182 74.6641C32.73 74.2255 32.792 73.7972 32.938 73.3871C33.2969 72.3792 34.0929 71.906 35.1543 72.0664C35.5706 72.1299 35.9534 72.2874 36.317 72.4881C36.6148 72.6519 36.9096 72.8242 37.1761 73.0327C38.4821 74.0578 39.8021 75.0649 41.1399 76.0494C41.5349 76.3402 41.8951 76.6802 42.2034 77.0633C42.444 77.3607 42.6388 77.6842 42.7177 78.0626C42.8661 78.7757 42.5086 79.2933 41.787 79.406C41.2501 79.4921 40.7364 79.3669 40.2308 79.2081C39.3464 78.924 38.5262 78.4972 37.7227 78.0398C37.5077 77.919 37.3029 77.7806 37.0854 77.6724C36.7805 77.5176 36.5268 77.5813 36.4004 77.8174C36.2877 78.0313 36.3524 78.2604 36.6351 78.4342C37.8277 79.1668 39.043 79.8516 40.4167 80.1944C40.9138 80.3175 41.4156 80.3788 41.9294 80.3037C42.2343 80.2583 42.5534 80.1948 42.7647 79.9851C43.1183 79.6355 43.449 79.7013 43.8353 79.887C44.3085 80.1151 44.8024 80.3121 45.2857 80.5227C47.2851 81.4059 49.0038 82.6666 50.4716 84.2807C50.6226 84.4461 50.782 84.6145 50.9582 84.7523C51.1394 84.8976 51.3476 84.8967 51.5226 84.7242C51.6901 84.5566 51.7148 84.3575 51.5765 84.162C51.4918 84.0375 51.3769 83.9331 51.2777 83.8227C49.3412 81.6163 46.9306 80.1093 44.2093 79.0692C44.0852 79.023 43.9641 78.9684 43.84 78.9223C43.7028 78.8696 43.615 78.7863 43.6366 78.6285C43.7448 77.7083 43.3137 76.9889 42.7542 76.3219C42.6965 76.2513 42.6192 76.1872 42.6185 76.0811C44.1287 74.7322 44.1571 74.6307 43.7526 71.9226C43.9354 71.8471 44.1178 71.9351 44.2993 71.9497C44.947 72.0013 45.5874 71.9598 46.1892 71.7024C47.1797 71.2832 47.6037 70.3734 47.3183 69.3421C47.1804 68.8482 46.9875 68.3734 46.7181 67.9406C45.3917 65.7782 44.3352 63.4847 43.4293 61.1197C43.0403 60.1092 42.5631 59.1461 41.6853 58.4486C41.486 58.2891 41.5594 58.1208 41.6193 57.9419C41.8748 57.1917 42.1254 56.4339 42.5151 55.7449C43.5704 53.8837 44.7955 52.1408 46.2454 50.5664C46.3967 50.4008 46.5662 50.2494 46.7351 50.0939C48.0235 48.9029 49.532 48.5102 51.2386 48.8695C51.7544 48.9781 52.265 49.1118 52.7681 49.2832C54.666 49.9377 56.4668 50.8003 58.2555 51.697C58.5865 51.8649 58.7117 52.0538 58.6654 52.4435C58.5254 53.5718 58.549 54.7006 58.7114 55.8287C58.7336 55.9771 58.7719 56.1236 58.7071 56.2949C58.2416 56.3641 57.7781 56.2818 57.316 56.2116C56.0797 56.0236 54.8846 55.6713 53.7017 55.2848C53.1443 55.1037 52.5911 54.9221 52.016 54.7963C51.2645 54.6307 50.6342 54.8221 50.1196 55.3916C49.1444 56.4708 48.1922 57.5717 47.4248 58.8135C45.9445 61.2086 46.0832 63.6142 47.5077 65.9771C48.2918 67.2785 49.4268 68.2428 50.7022 69.0511C52.4294 70.1473 54.3218 70.823 56.316 71.2289C56.5673 71.2798 56.7496 71.2004 56.9297 71.0354C58.5534 69.546 59.5909 67.7728 59.6745 65.5157C59.7143 64.4037 59.7747 63.2933 59.8512 62.1809C59.8822 61.6992 59.9535 61.2125 60.1564 60.7669C60.3515 60.7921 60.3818 60.9395 60.4443 61.0504C61.2482 62.48 62.2748 63.7272 63.5057 64.8065C63.7526 65.0214 63.8782 65.2471 63.9055 65.5706C63.9688 66.3227 64.1005 67.0665 64.0748 67.8254C64.0635 68.1005 64.0105 68.3358 63.8886 68.5754C62.7681 70.7386 62.1883 73.0482 62.1424 75.4805C62.1347 75.8859 62.0325 76.119 61.6457 76.297C61.0157 76.5905 60.54 77.0776 60.2114 77.6978C59.5915 78.8766 59.9148 80.1853 61.0127 80.9458C61.6152 81.3624 62.2996 81.581 63.011 81.6861C63.552 81.7671 64.0987 81.7942 64.6438 81.842C64.7469 81.8498 64.8505 81.8617 64.9626 81.8766C64.9041 82.1002 64.7351 82.1209 64.6177 82.1965C64.3148 82.3929 64.0306 82.6074 63.7944 82.8813C63.1864 83.5889 63.0608 84.4335 63.5274 85.2426C63.7496 85.624 63.7668 85.965 63.6606 86.3661C63.4161 87.307 62.9771 88.1614 62.5387 89.0198C62.3935 89.303 62.2313 89.5802 62.0736 89.861C61.9998 89.9925 61.9059 90.1266 61.9331 90.2826C62.1358 91.3731 61.9583 92.4611 61.9115 93.5494C61.6574 99.259 61.3047 104.964 60.8569 110.661C60.5212 114.967 60.1276 119.268 59.5273 123.549C59.5011 123.736 59.4669 123.924 59.4654 124.112C59.4611 124.378 59.6221 124.559 59.8544 124.588C60.0826 124.617 60.3315 124.48 60.3232 124.212C60.3044 123.556 60.7574 123.252 61.1763 122.902C62.9292 121.434 64.5984 119.882 66.2706 118.321C66.6886 117.931 66.6921 117.926 67.1716 118.24C67.376 118.374 67.6045 118.473 67.77 118.657C67.7789 118.729 67.7842 118.806 67.8051 118.877C68.1179 119.999 68.5395 121.075 69.036 122.13C69.3455 122.79 69.6551 123.451 69.8835 124.15C70.0735 124.736 70.0841 125.29 69.6672 125.791C69.5709 125.904 69.484 126.029 69.4876 126.192C68.3916 126.016 67.3038 125.773 66.2011 125.642C62.9931 125.266 59.8024 125.366 56.629 125.974C56.3336 126.031 56.0401 126.104 55.7467 126.176C55.3536 126.269 55.176 126.454 55.1641 126.758C55.1516 127.091 55.3782 127.206 55.643 127.3C56.2801 127.533 56.8955 127.821 57.4982 128.14C57.5635 128.173 57.6399 128.196 57.6712 128.319C57.4546 128.451 57.195 128.467 56.9489 128.525C56.2503 128.693 55.5557 128.859 54.8571 129.026C54.5909 129.087 54.4224 129.247 54.3694 129.515C54.3102 129.8 54.4245 129.966 54.8133 130.139C55.7422 130.552 56.6816 130.952 57.6075 131.374C59.1482 132.081 60.6964 132.782 62.1881 133.588C62.1303 133.751 62.0202 133.887 61.8997 134.003C61.1735 134.713 60.4618 135.442 59.7119 136.126C58.0333 137.667 56.3641 139.219 54.5957 140.66C53.2174 141.785 51.6996 142.636 50.0047 143.142C48.8736 143.48 47.7677 143.423 46.8143 142.575C46.5825 142.383 46.3634 142.128 46.0185 142.08Z" fill="#6E4F93"/>
<path d="M78.5967 91.4552C76.4519 90.7859 74.4875 89.7554 72.6759 88.4367C72.6312 88.4054 72.5967 88.3565 72.5626 88.3116C72.5531 88.3005 72.5622 88.2749 72.5604 88.1934C73.0166 88.1826 73.4754 88.1592 73.9331 88.1605C75.2565 88.1581 76.5735 88.0707 77.8891 87.9712C82.2574 87.6457 86.5992 87.0702 90.9207 86.3623C94.1971 85.8271 97.4586 85.2038 100.706 84.5006C103.122 83.9766 105.531 83.433 107.915 82.7821C108.318 82.6716 108.322 82.6711 108.517 83.0599C108.877 83.7676 109.152 84.5102 109.446 85.2464C109.657 85.7721 109.884 86.2918 110.188 86.7695C110.431 87.1564 110.718 87.5012 111.102 87.7608C111.872 88.2835 112.761 88.1054 113.262 87.3171C113.587 86.8075 113.676 86.2328 113.71 85.6404C113.752 84.8468 113.676 84.0554 113.616 83.2661C113.586 82.8531 113.523 82.4399 113.477 82.0289C113.416 81.4971 113.415 81.489 113.944 81.3386C114.544 81.1672 115.133 80.9727 115.714 80.7384C117.169 80.1478 118.485 79.3497 119.412 78.0395C120.269 76.8317 120.591 75.5178 120.068 74.0783C119.723 73.1278 119.037 72.468 118.174 71.9853C117.029 71.3448 115.764 71.1236 114.485 70.9857C112.493 70.7675 110.495 70.7665 108.492 70.7867C106.076 70.8082 103.663 70.9152 101.254 71.0338C99.8781 71.104 98.5037 71.1902 97.1328 71.3046C91.486 71.7659 85.8693 72.4727 80.2678 73.3043C77.9728 73.6461 75.6698 73.9561 73.3762 74.3099C70.6902 74.728 67.9933 75.0576 65.2984 75.4033C64.6991 75.4806 64.0999 75.5579 63.512 75.6951C63.0867 75.792 63.0451 75.7522 63.0623 75.3252C63.1029 74.2866 63.2265 73.2584 63.4787 72.2471C63.8907 70.6035 64.5317 69.0626 65.4877 67.6589C65.5498 67.5655 65.616 67.4717 65.6826 67.3818C66.1894 66.7153 66.1975 66.7143 66.9681 67.0695C73.0243 69.8591 80.1128 68.2248 84.3315 63.0643C84.9886 62.2568 85.5478 61.3837 86.0186 60.456C86.1106 60.2731 86.1625 60.0625 86.3425 59.9302C86.5621 59.9892 86.6601 60.1896 86.7965 60.3364C89.7209 63.4393 93.3198 65.0421 97.5796 65.0322C105.361 65.0209 111.756 58.7488 111.97 50.9728C111.981 50.5956 111.975 50.2163 111.958 49.8426C111.945 49.6031 112.034 49.4902 112.269 49.4778C112.399 49.4701 112.531 49.4458 112.664 49.4296C114.912 49.1425 117.157 48.856 119.406 48.5689C119.611 48.5438 119.818 48.5349 120.024 48.5178C120.166 48.909 120.538 49.1087 120.786 49.4052C121.884 50.7008 123.029 51.9459 124.237 53.1342C125.175 54.0572 126.091 55.0033 127.047 55.9078C127.703 56.5263 128.359 57.1488 129.026 57.7577C129.417 58.1144 129.813 58.4786 129.652 59.1029C129.636 59.1702 129.666 59.2523 129.675 59.3247C129.761 60.0618 130.052 60.7412 130.308 61.4289C130.726 62.5422 131.005 63.6928 131.249 64.8478C131.454 65.8236 131.449 66.825 131.42 67.8254C131.363 69.8588 130.974 71.8304 130.331 73.7515C129.639 75.8093 128.43 77.587 127.177 79.3374C126.891 79.736 126.518 80.0634 126.218 80.4474C125.589 81.2514 124.877 81.9798 124.123 82.6603C121.732 84.8195 119.072 86.5907 116.166 87.9875C114.519 88.7812 112.825 89.4621 111.071 89.9869C109.759 90.3802 108.447 90.7774 107.102 91.0725C106.661 91.1714 106.211 91.2305 105.78 91.3525C104.982 91.5767 104.163 91.7258 103.351 91.8332C101.297 92.1087 99.246 92.4084 97.1704 92.5068C96.4963 92.5402 95.8173 92.566 95.1427 92.5953C94.0375 92.6446 92.9291 92.5676 91.82 92.5846C90.5394 92.6022 89.263 92.5212 87.9913 92.4111C84.9525 92.1492 81.9219 91.821 78.9027 91.3852C78.7821 91.3672 78.6765 91.3393 78.5967 91.4552Z" fill="#6E4F93"/>
<path d="M84.4787 154.458C86.627 154.988 88.7798 155.522 90.928 156.052C91.0547 156.086 91.1823 156.127 91.3116 156.148C91.6067 156.19 91.8274 156.056 91.8748 155.81C91.9238 155.542 91.7845 155.371 91.5498 155.29C91.2679 155.189 90.9774 155.119 90.6889 155.031C90.6731 154.735 90.4459 154.681 90.2223 154.623C89.8931 154.536 89.5587 154.475 89.2387 154.363C87.4076 153.721 85.5861 153.057 83.788 152.316C82.6867 151.863 81.634 151.305 80.7434 150.503C79.9035 149.747 79.0706 148.983 78.1737 148.296C78.0653 148.211 77.8944 148.151 77.9504 147.907C78.2966 147.864 78.6365 148.072 78.9863 147.993L78.9994 147.999C79.0511 148.021 79.1069 148.043 79.1587 148.065C79.2129 148.075 79.2743 148.076 79.322 148.099C81.3212 148.912 83.4118 149.372 85.5263 149.759C87.8665 150.188 90.1488 150.812 92.2956 151.865C92.3785 151.908 92.4649 151.946 92.5579 151.972C92.7946 152.037 92.9659 151.934 93.0676 151.73C93.1626 151.538 93.1189 151.348 92.9487 151.225C92.7655 151.097 92.558 151.004 92.3607 150.893C92.3377 150.638 92.1812 150.494 91.9571 150.399C91.6808 150.277 91.4045 150.156 91.1383 150.017C89.2287 149.033 87.2776 148.144 85.2525 147.419C84.1335 147.02 83.0079 146.635 81.8989 146.219C80.3232 145.627 78.6972 145.225 77.0574 144.878C74.7174 144.384 72.3656 143.961 70.0684 143.281C69.0979 142.995 68.1154 142.711 67.1002 142.594C67.0809 142.102 67.3735 141.789 67.7288 141.52C68.3755 141.029 69.1316 140.797 69.9192 140.656C71.8737 140.303 73.8295 140.428 75.7808 140.684C79.6961 141.198 83.4427 142.337 87.1192 143.739C89.6048 144.689 92.0297 145.778 94.4328 146.922C94.6021 147.003 94.8132 147.059 94.9199 147.197C95.1987 147.539 95.5302 147.511 95.8921 147.43C98.1664 146.919 100.349 146.158 102.459 145.173C104.55 144.199 106.294 142.793 107.724 140.984C108.59 139.885 109.364 138.724 110.132 137.56C111.211 135.921 112.276 134.271 113.529 132.757C114.205 131.939 114.924 131.169 115.792 130.548C116.46 130.07 117.181 129.713 118.018 129.647C118.403 129.617 118.772 129.661 119.129 129.806C119.915 130.126 120.307 130.826 120.173 131.664C120.054 132.397 119.657 132.993 119.198 133.552C118.662 134.21 118.047 134.799 117.428 135.382C115.996 136.729 114.826 138.261 114.109 140.114C113.864 140.748 113.665 141.397 113.526 142.064C113.503 142.173 113.476 142.287 113.477 142.397C113.483 142.613 113.61 142.748 113.812 142.797C114.018 142.845 114.18 142.764 114.288 142.584C114.397 142.407 114.357 142.175 114.497 142.015C114.586 142.012 114.642 142.067 114.69 142.126C115.795 143.409 116.713 144.804 117.292 146.404C117.551 147.116 117.683 147.86 117.778 148.608C117.801 148.797 117.816 148.983 117.858 149.166C117.933 149.475 118.114 149.617 118.367 149.586C118.625 149.554 118.771 149.377 118.731 149.051C118.662 148.451 118.584 147.852 118.459 147.262C118.386 146.932 118.482 146.745 118.731 146.543C123.29 142.762 127.843 138.97 132.546 135.368C134.388 133.959 136.248 132.567 138.139 131.225C139.245 130.44 140.359 129.662 141.513 128.945C141.623 128.875 141.741 128.807 141.837 128.718C142.02 128.548 142.053 128.279 141.909 128.109C141.761 127.931 141.557 127.87 141.351 127.989C141.008 128.19 140.684 128.413 140.346 128.622C140.175 128.729 140.021 128.87 139.833 128.906C139.709 128.827 139.709 128.729 139.698 128.636C139.471 126.339 138.968 124.097 138.468 121.85C138.458 121.794 138.463 121.736 138.46 121.679C139.833 121.413 141.237 121.47 142.619 121.277C143.775 121.115 144.943 121.005 146.099 120.843C146.851 120.739 147.602 120.807 148.352 120.826C148.709 120.835 148.93 121.004 149.074 121.346C149.652 122.701 150.033 124.117 150.288 125.565C150.434 126.397 150.496 127.239 150.519 128.094C150.543 129.055 150.574 130.012 150.482 130.966C150.379 132.058 150.146 133.128 149.543 134.076C148.85 135.161 148.016 136.125 147.059 136.986C145.314 138.551 143.436 139.937 141.501 141.248C138.361 143.372 135.193 145.458 131.977 147.461C130.459 148.406 128.941 149.36 127.418 150.298C125.476 151.491 123.519 152.666 121.521 153.764C120.109 154.541 118.609 155.104 117.033 155.419C115.861 155.656 114.744 156.005 113.65 156.482C112.103 157.157 110.726 158.126 109.311 159.018C107.809 159.966 106.258 160.813 104.628 161.515C103.068 162.188 101.452 162.671 99.7621 162.918C98.9635 163.036 98.1616 163.093 97.3651 163.195C97.1961 163.216 97.0275 163.24 96.859 163.232C96.0534 163.192 95.2424 163.242 94.44 163.128C94.3027 163.108 94.1749 163.131 94.088 163.256C91.7879 162.888 89.454 161.273 89.121 159.819C89.237 159.698 89.3696 159.78 89.4872 159.807C90.6555 160.04 91.8408 160.112 93.0272 160.191C93.1217 160.196 93.2167 160.205 93.3098 160.198C93.5654 160.183 93.7513 160.066 93.7711 159.794C93.7915 159.526 93.6406 159.361 93.3791 159.327C93.0633 159.284 92.743 159.27 92.4242 159.235C92.126 159.202 91.8186 159.228 91.5287 159.128C91.495 158.953 91.3497 158.901 91.2081 158.845C90.6187 158.602 90.0284 158.352 89.4391 158.109C88.7422 157.822 88.056 157.522 87.435 157.088C86.4651 156.405 85.6159 155.574 84.6884 154.837C84.5815 154.732 84.4943 154.62 84.4787 154.458Z" fill="#6E4F93"/>
<path d="M84.1807 44.5842C82.8274 43.0378 81.2475 41.7766 79.3929 40.8756C77.5384 39.9747 75.5705 39.5166 73.4834 39.4203C73.5531 39.1218 73.7737 39.0213 73.933 38.8874C75.9561 37.2226 78.1769 35.8727 80.5365 34.755C83.1045 33.5383 85.7823 32.6514 88.553 32.0228C91.1369 31.4374 93.7529 31.0809 96.3978 30.9947C102.253 30.8061 107.89 31.8331 113.277 34.1611C114.006 34.4765 114.722 34.818 115.374 35.2734C115.553 35.3987 115.738 35.4741 115.953 35.3621C116.095 35.2875 116.24 35.3065 116.393 35.3245C120.076 35.7692 123.69 36.5 127.173 37.8228C130.858 39.2232 134.249 41.1293 137.229 43.7188C139.007 45.2663 140.56 47.0049 141.61 49.1439C142.251 50.4504 142.623 51.8225 142.518 53.298C142.352 55.5896 140.747 57.3667 138.482 57.7825C136.915 58.0679 135.403 57.8319 133.912 57.3318C131.961 56.6756 130.202 55.6487 128.534 54.4717C126.321 52.9119 124.28 51.1554 122.494 49.1104C121.141 47.56 120.084 45.8304 119.396 43.884C119.359 43.7782 119.325 43.668 119.276 43.5678C119.136 43.2907 118.915 43.191 118.682 43.289C118.453 43.3864 118.357 43.6024 118.456 43.909C118.556 44.2317 118.693 44.5459 118.805 44.8631C118.933 45.211 119.148 45.528 119.213 45.8918C119.069 46.0197 118.912 46.0062 118.767 46.0239C116.583 46.3398 114.395 46.6522 112.211 46.968C112.135 46.9774 112.063 46.9903 111.986 46.9996C111.567 47.0468 111.563 47.0472 111.44 46.6415C111.034 45.2572 110.492 43.9304 109.684 42.7341C106.68 38.2764 102.475 35.9265 97.1131 36.0792C91.4707 36.2418 87.2753 38.985 84.5652 43.953C84.455 44.1544 84.401 44.3816 84.1807 44.5842Z" fill="#6E4F93"/>
<path d="M117.717 128.757C116.695 128.89 115.821 129.36 115.019 129.981C113.665 131.037 112.601 132.356 111.605 133.74C110.143 135.778 108.859 137.941 107.365 139.958C105.791 142.086 103.785 143.659 101.34 144.681C99.6844 145.374 97.9893 145.944 96.2577 146.417C95.9139 146.513 95.6082 146.485 95.2777 146.321C94.2128 145.797 93.1303 145.296 92.0487 144.803C91.798 144.691 91.6078 144.539 91.446 144.317C90.2779 142.716 89.0988 141.123 87.9277 139.53C87.614 139.103 87.6197 139.049 87.9864 138.673C91.7084 134.865 95.5809 131.217 99.6799 127.82C102.165 125.759 104.743 123.818 107.463 122.072C110.266 120.271 113.208 118.743 116.308 117.531C116.378 117.502 116.449 117.477 116.519 117.452C116.895 117.321 116.907 117.319 117.07 117.683C117.422 118.457 117.766 119.232 118.122 120.002C120.382 124.861 122.65 129.715 124.907 134.574C125.462 135.773 126.001 136.977 126.545 138.182C126.791 138.723 126.792 138.735 126.357 139.083C123.738 141.188 121.166 143.345 118.586 145.499C118.527 145.547 118.471 145.594 118.407 145.639C118.106 145.851 118.082 145.854 117.925 145.502C117.308 144.135 116.517 142.875 115.552 141.731C115.404 141.557 115.271 141.369 115.098 141.227C114.812 140.988 114.826 140.737 114.951 140.424C115.534 138.943 116.42 137.666 117.532 136.538C118.404 135.651 119.359 134.844 120.111 133.841C120.547 133.26 120.891 132.634 121.036 131.918C121.349 130.364 120.384 129.019 118.789 128.769C118.434 128.706 118.073 128.693 117.717 128.757Z" fill="#3F713F"/>
<path d="M61.3582 55.6295C60.6208 49.6285 64.2825 44.1234 69.8493 42.5729C74.8628 41.1759 80.1432 43.1656 82.96 47.495C83.1463 47.7827 83.2074 48.0489 83.1552 48.3903C82.7355 51.2074 83.1158 53.9185 84.2826 56.513C84.4346 56.8539 84.4539 57.1457 84.3318 57.4834C82.8396 61.7878 79.8982 64.529 75.4402 65.4905C69.2785 66.8195 63.2401 63.0391 61.6332 56.9441C61.4968 56.4297 61.4163 55.9043 61.3582 55.6295Z" fill="#A2EAF0"/>
<path d="M94.1029 163.251C94.1898 163.126 94.3136 163.102 94.4548 163.122C95.2573 163.236 96.0682 163.186 96.8739 163.227C97.0424 163.235 97.2109 163.21 97.38 163.189C98.1765 163.088 98.9784 163.031 99.777 162.913C101.467 162.665 103.083 162.186 104.643 161.509C106.273 160.808 107.824 159.96 109.326 159.013C110.741 158.121 112.117 157.152 113.665 156.477C114.755 156 115.876 155.647 117.048 155.414C118.624 155.099 120.123 154.535 121.536 153.758C123.534 152.66 125.487 151.486 127.432 150.292C128.956 149.354 130.474 148.405 131.992 147.455C135.211 145.448 138.376 143.366 141.516 141.242C143.451 139.931 145.328 138.542 147.074 136.98C148.035 136.119 148.869 135.155 149.557 134.07C150.161 133.122 150.393 132.052 150.497 130.961C150.589 130.01 150.558 129.05 150.534 128.088C150.512 127.237 150.449 126.391 150.303 125.559C150.049 124.116 149.667 122.7 149.089 121.341C148.945 121.003 148.724 120.829 148.367 120.82C147.617 120.801 146.866 120.734 146.114 120.838C144.957 121 143.79 121.11 142.633 121.271C141.252 121.465 139.848 121.408 138.475 121.673C138.327 121.099 138.326 121.095 138.825 120.863C141.861 119.466 144.963 118.237 148.176 117.318C149.119 117.047 150.071 116.808 151.044 116.685C151.326 116.651 151.462 116.696 151.577 117C152.431 119.306 153.051 121.673 153.573 124.069C154.014 126.078 154.391 128.095 154.641 130.14C154.898 132.208 154.393 134.055 153.207 135.757C151.865 137.673 150.208 139.289 148.467 140.83C146.289 142.759 143.97 144.509 141.587 146.173C137.514 149.015 133.319 151.656 128.908 153.944C125.55 155.682 122.058 157.093 118.45 158.225C118.127 158.325 117.806 158.434 117.479 158.539C117.314 158.592 117.225 158.562 117.137 158.377C116.93 157.924 116.721 157.88 116.315 158.208C115.374 158.964 114.452 159.743 113.511 160.499C112.169 161.582 110.713 162.479 109.164 163.24C106.548 164.532 103.804 164.974 100.915 164.571C98.729 164.266 96.5644 163.836 94.4074 163.369C94.3063 163.344 94.1872 163.339 94.1029 163.251Z" fill="#5A3A83"/>
<path d="M112.084 76.9042C112.987 76.6999 113.813 76.5131 114.636 76.3227C115.097 76.2174 115.554 76.1125 116.008 75.9875C116.435 75.8659 116.612 75.6441 116.531 75.3843C116.448 75.1085 116.206 75.0278 115.777 75.1293C114.546 75.4186 113.32 75.7195 112.081 75.9732C111.678 76.055 111.374 76.0104 111.057 75.7183C110.285 75.0201 109.362 74.7857 108.326 74.904C107.646 74.9832 106.987 75.1413 106.334 75.315C105.191 75.6222 104.029 75.6784 102.854 75.6585C102.08 75.6428 101.3 75.6729 100.558 75.9188C99.4026 76.2969 98.4923 77.0046 97.8823 78.0637C97.7438 78.3012 97.5906 78.418 97.3159 78.4434C94.7032 78.6932 92.0965 78.9586 89.4844 79.2125C88.1516 79.3386 86.8178 79.4893 85.4816 79.5873C82.9798 79.7745 80.4813 80.0227 77.9799 80.2139C75.0459 80.4418 72.11 80.6535 69.1741 80.8325C67.4828 80.933 65.7854 81.0505 64.0857 80.9151C63.5411 80.8713 62.997 80.7989 62.4683 80.6511C62.1934 80.5744 61.9311 80.4675 61.6886 80.3215C60.7541 79.7616 60.5502 78.7284 61.1939 77.845C61.6701 77.1944 62.3519 76.8905 63.0978 76.7095C63.6847 76.5642 64.2805 76.4587 64.8793 76.3774C66.8447 76.1127 68.8155 75.8923 70.7753 75.616C74.2493 75.1261 77.7253 74.6196 81.1948 74.0935C85.4301 73.4493 89.6857 72.9374 93.9462 72.4984C96.8714 72.1982 99.8133 72.0021 102.751 71.8718C105.632 71.7445 108.519 71.6327 111.404 71.709C113.138 71.7546 114.875 71.8242 116.563 72.3042C117.02 72.4322 117.455 72.616 117.864 72.852C119.178 73.6106 119.708 75.0043 119.234 76.443C118.901 77.4561 118.227 78.2002 117.387 78.8135C116.244 79.6559 114.923 80.1114 113.585 80.5242C113.364 80.592 113.224 80.5519 113.185 80.2953C112.998 79.1334 112.674 78.0169 112.084 76.9042Z" fill="#5A3A83"/>
<path d="M64.5888 86.4501C65.0624 86.715 65.4948 86.9767 65.9675 87.1682C67.2568 87.6888 68.6122 87.9153 69.9849 88.0499C70.1338 88.0644 70.2851 88.099 70.435 88.0889C70.767 88.0646 70.994 88.2166 71.2323 88.4285C72.3306 89.426 73.5809 90.1964 74.8903 90.8821C76.6878 91.8186 78.5751 92.5194 80.5313 93.0484C80.7594 93.1103 80.9841 93.1769 81.2002 93.2403C81.2048 93.3787 81.1218 93.4011 81.0608 93.4371C78.5627 94.825 76.5535 96.77 74.7724 98.9772C73.1543 100.981 71.7983 103.156 70.5267 105.387C69.575 107.06 68.6363 108.739 67.6715 110.405C66.8957 111.746 66 113.008 65.042 114.228C64.671 114.702 64.3005 115.181 63.9837 115.697C63.7553 116.068 63.5656 116.455 63.4498 116.878C63.2415 117.614 63.3453 118.296 63.8048 118.914C63.9171 119.063 64.0515 119.194 63.8347 119.392C62.8156 120.313 61.8021 121.246 60.7323 122.12C60.596 121.941 60.6905 121.778 60.708 121.621C61.333 116.605 61.7181 111.566 62.0745 106.526C62.3812 102.183 62.6301 97.8342 62.8292 93.4795C62.8731 92.5018 62.9125 91.5206 62.9439 90.5404C62.951 90.3311 62.9757 90.132 63.0793 89.9437C63.688 88.8398 64.2534 87.7167 64.5888 86.4501Z" fill="#FFEE00"/>
<path d="M83.9099 86.4514C82.0889 86.7271 80.0171 86.8904 77.9494 87.0532C75.2992 87.2627 72.6436 87.3952 69.985 87.1359C68.7405 87.0143 67.5208 86.7956 66.3461 86.3427C65.7969 86.128 65.2882 85.8429 64.8411 85.4604C64.6264 85.2742 64.4378 85.0685 64.3118 84.8061C64.0722 84.3165 64.1298 83.8519 64.5011 83.447C64.7317 83.1942 65.0154 83.0083 65.3231 82.8522C65.9351 82.5446 66.5809 82.3472 67.2523 82.2243C67.92 82.1059 68.5833 81.984 69.2312 81.77C69.565 81.6598 69.9377 81.6674 70.2944 81.6442C71.2346 81.5824 72.1778 81.5448 73.1171 81.4749C75.2059 81.3177 77.2922 81.1404 79.3775 80.9877C82.5761 80.752 85.7693 80.4721 88.9645 80.1756C90.4472 80.0394 91.9305 79.8744 93.4121 79.7301C95.1967 79.557 96.9777 79.3884 98.7627 79.2193C98.8191 79.2124 98.8864 79.2287 98.9283 79.2031C99.6682 78.8063 100.479 78.9564 101.26 78.9264C102.374 78.8842 103.482 78.9938 104.559 79.3157C105.819 79.6929 106.806 80.4506 107.575 81.4964C107.815 81.8225 107.794 81.8863 107.41 81.9863C105.751 82.4178 104.086 82.8297 102.405 83.1862C100.451 83.6049 98.497 84.0315 96.5398 84.43C95.2841 84.6856 94.0225 84.9256 92.757 85.1334C89.8967 85.5973 87.0319 86.0904 83.9099 86.4514Z" fill="#5A3A83"/>
<path d="M128.682 137.221C128.527 135.986 128.486 134.745 128.379 133.508C128.23 131.786 128.093 130.058 127.98 128.332C127.918 127.392 127.763 126.459 127.742 125.522C127.709 124.141 127.449 122.788 127.351 121.415C127.027 116.993 126.401 112.604 125.8 108.221C125.462 105.758 125.224 103.278 124.795 100.831C124.556 99.4791 124.461 98.1017 124.09 96.7743C123.995 96.4305 123.904 96.0862 123.797 95.7439C123.627 95.1887 123.688 95.0872 124.258 95.0053C124.315 94.9984 124.371 94.9875 124.427 94.9806C125.894 100.464 127.809 105.81 129.473 111.232C130.259 113.792 131.038 116.352 131.563 118.98C131.722 119.777 131.813 120.583 131.858 121.391C131.871 121.598 131.884 121.804 131.901 122.011C132.024 123.548 132.859 124.5 134.308 124.956C135.272 125.259 136.263 125.375 137.264 125.347C138.282 125.316 138.273 125.309 138.483 126.293C138.65 127.089 138.74 127.895 138.826 128.698C138.84 128.847 138.822 129.001 138.836 129.15C138.875 129.533 138.695 129.768 138.382 129.982C136.258 131.451 134.188 132.999 132.137 134.569C130.973 135.442 129.828 136.334 128.682 137.221Z" fill="#A76A2B"/>
<path d="M87.1702 142.729C86.9644 142.75 86.7661 142.632 86.5646 142.554C83.7452 141.514 80.8847 140.638 77.9251 140.088C76.6628 139.854 75.3957 139.682 74.1139 139.59C73.879 139.574 73.6805 139.52 73.4984 139.367C71.4986 137.679 69.2509 136.368 66.9829 135.093C63.6443 133.213 60.2005 131.543 56.7045 129.98C56.5403 129.906 56.3437 129.869 56.2139 129.709C56.3531 129.545 56.5478 129.534 56.7225 129.492C59.5858 128.819 62.4675 128.765 65.3736 129.178C68.3873 129.603 71.2462 130.532 73.9965 131.809C77.336 133.362 80.3761 135.373 83.2145 137.706C84.3637 138.652 85.2866 139.785 86.1141 141.008C86.4528 141.505 86.8065 141.993 87.1532 142.49C87.1928 142.547 87.2455 142.61 87.1702 142.729Z" fill="#3F713F"/>
<path d="M47.3099 62.6974C47.1809 61.6755 47.4486 60.5561 48.057 59.5176C48.8186 58.2275 49.8055 57.1101 50.7969 55.9962C51.088 55.6706 51.4494 55.5856 51.8746 55.6889C52.4049 55.8161 52.925 55.9935 53.4436 56.1589C54.8804 56.6166 56.3253 57.0405 57.8389 57.1906C57.9339 57.1994 58.0249 57.2087 58.12 57.2175C58.3975 57.2489 58.7394 57.105 58.9286 57.2821C59.0946 57.4375 59.0977 57.7639 59.1735 58.0161C59.1884 58.0715 59.2034 58.1268 59.2218 58.1777C59.3781 58.6202 59.6153 59.057 59.6668 59.5123C59.7174 59.9596 59.3206 60.3227 59.2022 60.7579C58.9507 61.6752 58.9023 62.6166 58.862 63.5571C58.8285 64.3864 58.8031 65.2147 58.7199 66.0379C58.5574 67.6837 57.7651 68.9898 56.6032 70.1122C56.4498 70.2617 56.3039 70.304 56.0983 70.2597C53.428 69.6709 51.0132 68.5974 49.0928 66.5893C48.0662 65.5096 47.4702 64.2098 47.3099 62.6974Z" fill="#FFEE00"/>
<path d="M78.5958 91.4535C78.6756 91.3375 78.7811 91.3655 78.8973 91.3799C81.9165 91.8157 84.951 92.1435 87.9858 92.4058C89.2575 92.516 90.5339 92.5969 91.8145 92.5793C92.9196 92.5628 94.032 92.6393 95.1372 92.59C95.8118 92.5607 96.4904 92.5308 97.165 92.5015C99.2405 92.4031 101.291 92.1035 103.345 91.8279C104.157 91.7165 104.977 91.5714 105.775 91.3472C106.209 91.2247 106.655 91.1661 107.097 91.0672C108.437 90.7686 109.749 90.3754 111.066 89.9816C112.82 89.4568 114.513 88.7759 116.161 87.9822C119.066 86.5854 121.726 84.8102 124.118 82.655C124.872 81.9745 125.584 81.2502 126.213 80.4421C126.513 80.0581 126.886 79.7307 127.172 79.3321C128.425 77.5857 129.634 75.808 130.325 73.7462C130.969 71.8291 131.353 69.854 131.415 67.8201C131.444 66.8197 131.448 65.8183 131.243 64.8425C131 63.6875 130.724 62.5364 130.302 61.4236C130.043 60.7404 129.752 60.0611 129.669 59.3194C129.66 59.243 129.63 59.1649 129.646 59.0976C129.808 58.4773 129.411 58.1091 129.02 57.7524C128.354 57.1435 127.698 56.525 127.042 55.9025C126.086 54.998 125.169 54.0519 124.231 53.1289C123.02 51.941 121.874 50.692 120.781 49.3999C120.528 49.1039 120.161 48.9037 120.019 48.5125C120.13 48.4867 120.242 48.4689 120.349 48.4355C120.644 48.3503 120.838 48.4615 121.019 48.7049C121.806 49.7689 122.705 50.7335 123.669 51.6411C125.831 53.681 128.164 55.4957 130.782 56.9203C131.092 57.0906 131.232 57.2942 131.319 57.639C131.638 58.8787 132.024 60.102 132.367 61.3388C132.859 63.1212 133.267 64.926 133.42 66.7744C133.67 69.8568 133.063 72.7785 131.757 75.5649C129.861 79.6041 127.035 82.8622 123.417 85.4451C120.099 87.8115 116.443 89.4879 112.574 90.7247C109.822 91.6044 107.009 92.2218 104.159 92.7008C101.437 93.1601 98.6925 93.4015 95.9414 93.5212C92.0363 93.692 88.1375 93.5802 84.2699 92.9212C82.5218 92.6242 80.7921 92.2432 79.1127 91.6722C78.9343 91.6164 78.7392 91.5912 78.5958 91.4535Z" fill="#5A3A83"/>
<path d="M150.489 115.85C150.473 115.419 150.229 115.064 150.069 114.688C148.397 110.831 146.732 106.974 144.859 103.207C143.71 100.897 142.465 98.6343 141.106 96.435C139.181 93.3203 136.808 90.5831 134.218 88.0113C132.903 86.7095 131.546 85.4659 130.055 84.3653C129.35 83.8428 128.577 83.4674 127.693 83.3589C128.434 83.1376 129.186 83.2091 129.93 83.3102C133.152 83.7375 135.809 85.2513 138.026 87.5786C139.549 89.1778 140.7 91.0389 141.759 92.9562C143.208 95.5817 144.526 98.2803 145.994 100.895C148.417 105.212 151.04 109.393 154.159 113.252C154.549 113.736 154.909 114.243 155.167 114.816C155.497 115.544 155.338 116.18 154.809 116.739C154.335 117.238 153.738 117.565 153.125 117.868C152.987 117.938 152.869 117.941 152.807 117.772C152.679 117.425 152.554 117.072 152.418 116.692C152.686 116.611 152.857 116.741 153.034 116.821C153.155 116.872 153.271 116.952 153.396 116.977C153.598 117.018 153.777 116.951 153.863 116.749C153.955 116.533 153.899 116.34 153.713 116.195C153.344 115.909 152.918 115.773 152.462 115.719C151.795 115.641 151.144 115.798 150.489 115.85Z" fill="#A76A2B"/>
<path d="M46.0188 142.081C46.3637 142.129 46.5828 142.384 46.8166 142.592C47.7699 143.44 48.8758 143.497 50.0069 143.158C51.7019 142.653 53.2192 141.797 54.5979 140.677C56.3664 139.235 58.0355 137.683 59.7142 136.142C60.4635 135.454 61.1757 134.73 61.902 134.02C62.0225 133.903 62.1325 133.767 62.1903 133.605C63.732 134.319 65.214 135.147 66.6955 135.971C66.7397 135.999 66.7708 136.052 66.8038 136.089C66.7898 136.274 66.6347 136.342 66.5228 136.43C63.3947 138.981 60.2522 141.514 56.9347 143.819C55.3382 144.929 53.6961 145.967 51.8654 146.665C50.8936 147.037 49.8974 147.31 48.8348 147.24C48.0237 147.188 47.4468 146.813 47.074 146.103C46.7983 145.585 46.5921 145.034 46.4573 144.466C46.2674 143.681 46.0411 142.899 46.0188 142.081Z" fill="#5A3A83"/>
<path d="M95.8394 37.022C103.733 36.1595 110.126 41.8045 110.981 48.8656C111.89 56.3369 106.598 63.1442 99.1435 64.0592C91.7174 64.9708 84.887 59.6571 83.9663 52.2568C83.0353 44.7719 88.3505 37.9535 95.8394 37.022ZM110.043 49.0169C109.188 42.0498 102.896 37.132 95.9248 37.988C88.9612 38.839 84.0241 45.1413 84.8656 52.0938C85.7135 59.0659 92.0505 64.0191 99.0292 63.1581C105.98 62.3005 110.902 55.9795 110.043 49.0169Z" fill="#6E4F93"/>
<path d="M83.4438 46.5814C79.5618 41.2914 72.9595 40.0842 67.8781 42.3638C62.9322 44.5819 59.937 49.6909 60.4367 55.0838C60.9422 60.5576 64.8314 65.0704 70.1405 66.2927C73.3017 67.0217 76.3328 66.6186 79.1815 65.0571C82.0074 63.5107 83.9308 61.1636 85.0532 58.1463C85.2988 58.2838 85.3505 58.5062 85.4874 58.657C85.699 58.8844 85.6732 59.1082 85.5513 59.3804C85.0198 60.5811 84.3598 61.6994 83.491 62.6798C80.0227 66.5925 75.6735 68.2434 70.5372 67.2656C65.3547 66.277 61.8213 63.1383 60.1552 58.129C57.7791 50.9882 61.7104 43.3422 68.8305 40.9973C74.0345 39.2869 79.8033 40.8942 83.3978 45.0346C83.7688 45.4631 83.8925 45.8402 83.6266 46.3384C83.5781 46.4097 83.5873 46.5189 83.4438 46.5814Z" fill="#6E4F93"/>
<path d="M45.1247 71.0572C44.5294 71.134 43.9589 71.0117 43.3935 70.8643C43.1949 70.8109 43.0731 70.6828 42.9709 70.5156C41.9544 68.8504 40.7061 67.3607 39.4583 65.875C39.0091 65.3416 38.5226 64.8372 37.9427 64.4383C37.6616 64.2439 37.3704 64.067 37.0407 63.9766C36.7572 63.8968 36.6993 63.7242 36.7373 63.4662C36.9481 62.1495 37.3168 60.887 38.0884 59.7796C39.0756 58.3639 40.5278 58.3131 41.6227 59.65C42.0979 60.2292 42.3847 60.905 42.6565 61.5908C43.3628 63.3592 44.0616 65.1327 45.0233 66.7841C45.3647 67.3715 45.7061 67.9589 46.0244 68.5573C46.1835 68.8565 46.3199 69.1708 46.4247 69.4929C46.665 70.2561 46.3577 70.7839 45.5726 70.9779C45.4251 71.0082 45.2726 71.0309 45.1247 71.0572Z" fill="#6E4F93"/>
<path d="M75.009 123.841C75.2049 123.739 75.209 123.539 75.2477 123.354C76.015 119.804 76.841 116.268 77.8064 112.767C78.3866 110.662 79.0391 108.58 79.8746 106.558C80.1273 105.951 80.3237 105.318 80.5502 104.698C80.6211 104.51 80.6429 104.287 80.8494 104.171C80.9107 104.572 80.7819 104.956 80.7235 105.347C79.9333 110.648 79.4076 115.974 79.2082 121.33C79.0952 124.383 79.1009 127.438 79.4114 130.481C79.4202 130.553 79.409 130.628 79.4091 130.763C79.0599 130.614 78.8191 130.382 78.5475 130.198C78.4627 130.139 78.4403 130.056 78.4441 129.954C78.4653 129.191 78.1669 128.521 77.8216 127.868C77.1041 126.51 76.2056 125.276 75.2175 124.11C75.1377 124.025 75.0771 123.931 75.009 123.841Z" fill="#A76A2B"/>
<path d="M98.8796 78.1495C99.7425 77.1208 100.732 76.624 101.938 76.5665C102.523 76.5359 103.106 76.53 103.688 76.5447C104.794 76.5688 105.863 76.3605 106.926 76.0959C107.255 76.0148 107.584 75.9297 107.914 75.8607C109.616 75.5098 110.528 76.1174 111.32 77.4177C111.775 78.1669 112.02 79.003 112.197 79.8515C112.544 81.5169 112.766 83.1974 112.826 84.8936C112.844 85.4429 112.833 85.9917 112.66 86.5153C112.419 87.2515 111.89 87.3692 111.34 86.8114C111.032 86.4977 110.811 86.1244 110.64 85.7246C110.31 84.9642 109.999 84.1973 109.681 83.4314C109.439 82.8563 109.163 82.3017 108.845 81.7687C107.521 79.5243 105.555 78.3143 102.966 78.0914C101.649 77.9826 100.332 78.0333 98.8796 78.1495Z" fill="#A2EAF0"/>
<path d="M36.1651 71.3435C36.0477 71.4192 35.9478 71.3374 35.8503 71.3085C35.3161 71.1491 34.7831 71.0998 34.23 71.1878C33.8053 71.2561 33.8034 71.24 33.6581 70.8533C33.2332 69.7164 33.2474 68.5626 33.5514 67.4061C33.7237 66.7436 33.9965 66.1343 34.415 65.5806C35.1919 64.5501 36.4349 64.4922 37.3692 65.1502C37.6598 65.3557 37.9525 65.5773 38.1927 65.838C39.7282 67.5051 41.1559 69.2589 42.3325 71.1986C42.7772 71.9286 43.0939 72.7151 43.1151 73.5909C43.1316 74.1935 42.9365 74.7035 42.4421 75.0703C42.0338 75.3735 41.7306 75.3656 41.322 75.0642C40.3381 74.3347 39.3366 73.6278 38.3917 72.8486C38.1869 72.6775 38.0214 72.4934 37.8787 72.2617C37.2312 71.2419 36.5766 70.2311 36.1436 69.0952C36.0298 68.7986 35.7891 68.7014 35.563 68.7903C35.3133 68.8862 35.209 69.1359 35.3333 69.4516C35.5306 69.9626 35.7586 70.4577 36.0178 70.9408C36.0859 71.0632 36.2174 71.1697 36.1651 71.3435Z" fill="#6E4F93"/>
<path d="M118.375 89.4985C118.235 89.724 118.037 89.8421 117.866 89.9855C114.898 92.4032 111.546 94.0916 107.874 95.1407C102.241 96.7483 96.5627 96.8499 90.8549 95.5415C89.7496 95.2885 88.6767 94.9334 87.6327 94.4809C87.5463 94.4424 87.467 94.3949 87.3404 94.3287C87.5162 94.2296 87.6494 94.2828 87.7816 94.2952C90.7395 94.5302 93.6965 94.557 96.6609 94.4112C99.7592 94.2573 102.831 93.9187 105.878 93.3502C110.028 92.5734 114.062 91.4186 117.91 89.6451C118.03 89.5896 118.151 89.5422 118.275 89.4902C118.291 89.4842 118.312 89.4898 118.375 89.4985Z" fill="#CF9356"/>
<path d="M57.0463 126.856C62.7007 125.822 68.2197 126.255 73.5441 128.505C78.451 130.581 82.3534 133.932 85.6555 138.153C85.164 138.176 84.8686 138.033 84.5666 137.767C79.7968 133.57 74.4548 130.408 68.2493 128.837C65.3954 128.116 62.4908 127.882 59.5517 128.135C59.3575 128.151 59.1855 128.147 59.0158 128.029C58.4054 127.581 57.7137 127.269 57.0463 126.856Z" fill="#A2EAF0"/>
<path d="M86.8467 138.441C86.7592 138.227 86.8968 138.116 86.9631 137.989C87.3857 137.202 87.9384 136.51 88.5182 135.838C91.3157 132.588 94.3499 129.57 97.5377 126.704C101.005 123.584 104.632 120.67 108.501 118.064C108.761 117.889 109.01 117.585 109.32 117.613C109.605 117.639 109.781 117.977 110.024 118.156C110.342 118.391 110.661 118.626 110.94 118.833C110.963 119.022 110.861 119.055 110.788 119.096C105.922 121.697 101.558 125.004 97.3876 128.586C93.8937 131.586 90.5593 134.756 87.3467 138.053C87.209 138.196 87.1063 138.393 86.8467 138.441Z" fill="#A2EAF0"/>
<path d="M67.1036 142.587C68.1188 142.704 69.0968 142.985 70.0718 143.275C72.369 143.954 74.7248 144.377 77.0608 144.872C78.7006 145.219 80.3271 145.625 81.9023 146.212C83.0153 146.628 84.1409 147.013 85.2559 147.412C87.2809 148.137 89.2321 149.026 91.1417 150.01C91.4079 150.149 91.6842 150.271 91.9605 150.392C92.1851 150.491 92.3411 150.632 92.364 150.886C89.8785 149.736 87.2405 149.11 84.5609 148.645C82.6746 148.32 80.86 147.745 79.0894 147.03C77.3701 146.333 75.5823 145.878 73.763 145.532C72.3367 145.261 70.8994 145.032 69.5164 144.58C68.8696 144.369 68.2346 144.12 67.7097 143.67C67.385 143.386 67.066 143.082 67.1036 142.587Z" fill="#5A3A83"/>
<path d="M69.491 126.196C69.4834 126.034 69.5748 125.912 69.6706 125.794C70.0915 125.293 70.081 124.739 69.8869 124.154C69.659 123.459 69.349 122.794 69.0394 122.133C68.5429 121.079 68.1253 120.002 67.8085 118.881C67.7876 118.81 67.7863 118.732 67.7734 118.66C69.1322 119.483 70.3396 120.504 71.5152 121.565C73.1132 123.008 74.5609 124.592 75.8206 126.342C76.1017 126.736 76.1097 126.735 75.7462 127.07C75.4708 127.324 75.182 127.568 74.9021 127.818C74.766 127.941 74.6305 128.003 74.4441 127.915C72.8537 127.17 71.1761 126.68 69.491 126.196Z" fill="#5A3A83"/>
<path d="M78.9897 147.991C78.6359 148.071 78.2959 147.863 77.9538 147.905C77.8978 148.149 78.0686 148.21 78.177 148.294C79.074 148.981 79.9068 149.746 80.7467 150.501C81.6373 151.303 82.69 151.861 83.7913 152.315C85.5854 153.055 87.4069 153.719 89.242 154.361C89.5621 154.473 89.8964 154.534 90.2256 154.621C90.4453 154.68 90.6765 154.733 90.6923 155.03C88.2475 154.413 85.7498 153.999 83.3847 153.1C81.4609 152.367 79.8298 151.222 78.5416 149.606C78.1652 149.133 77.8265 148.635 77.5564 148.097C77.4589 147.9 77.3211 147.709 77.3954 147.381C77.9366 147.564 78.485 147.705 78.9897 147.991Z" fill="#5A3A83"/>
<path d="M84.4784 154.459C84.4941 154.62 84.5818 154.736 84.7078 154.831C85.6352 155.568 86.484 156.395 87.4544 157.082C88.0713 157.517 88.7616 157.817 89.4585 158.103C90.0478 158.346 90.6376 158.592 91.2274 158.839C91.3691 158.895 91.5143 158.947 91.548 159.122C91.147 159.184 90.76 159.092 90.3723 159.029C88.1587 158.666 86.1737 157.835 84.6024 156.176C84.0297 155.568 83.5774 154.875 83.1758 154.062C83.67 154.129 84.0704 154.296 84.4784 154.459Z" fill="#5A3A83"/>
<path d="M120.087 47.5219C119.931 47.6472 119.736 47.6261 119.555 47.6482C117.186 47.954 114.813 48.2563 112.443 48.5581C112.351 48.5695 112.254 48.5772 112.161 48.5926C111.883 48.6512 111.8 48.5061 111.769 48.2565C111.739 48.007 111.843 47.9247 112.071 47.8887C113.637 47.6646 115.202 47.4325 116.763 47.205C117.567 47.0905 118.366 46.9805 119.17 46.8701C119.833 46.7849 119.873 46.8086 120.087 47.5219Z" fill="#6E4F93"/>
<path d="M89.7485 143.734C89.2421 143.702 88.8932 143.454 88.6082 143.027C87.8698 141.933 87.0942 140.868 86.3371 139.788C86.2334 139.641 86.0945 139.507 86.0755 139.284C86.464 139.188 86.6984 139.368 86.8958 139.646C87.6034 140.621 88.3225 141.592 89.0224 142.572C89.284 142.941 89.6055 143.265 89.7874 143.684C89.7728 143.698 89.7627 143.716 89.7485 143.734Z" fill="#3F713F"/>
<path d="M77.3499 129.428C76.7808 129.117 76.2113 128.803 75.6071 128.472C75.9159 128.124 76.2245 127.841 76.5945 127.559C76.9671 128.135 77.289 128.696 77.3499 129.428Z" fill="#A76A2B"/>
<path d="M64.8711 65.9258C65.1063 66.0114 65.2574 66.1114 65.4164 66.2758C65.3163 66.4597 65.1665 66.6046 64.9773 66.7952C64.94 66.4893 64.9095 66.2397 64.8711 65.9258Z" fill="#FFEE00"/>
<path d="M80.8594 104.114C80.8384 104.043 80.8597 103.983 80.9112 103.936C80.9276 104.004 80.9188 104.066 80.8594 104.114Z" fill="#A76A2B"/>
<path d="M89.7884 143.686C89.8034 143.709 89.8144 143.732 89.8295 143.755C89.8043 143.749 89.7747 143.741 89.7496 143.736C89.7637 143.718 89.7738 143.7 89.7884 143.686Z" fill="#3F713F"/>
<path d="M79.1612 148.059C79.1095 148.036 79.0537 148.014 79.002 147.992C79.0668 147.988 79.1186 148.011 79.1612 148.059Z" fill="#5A3A83"/>
<path d="M110.043 49.0172C110.899 55.9843 105.976 62.3052 99.0294 63.1583C92.0507 64.0193 85.7137 59.0661 84.8658 52.094C84.0198 45.138 88.9613 38.8392 95.9249 37.9882C102.896 37.1322 109.187 42.046 110.043 49.0172ZM96.0086 38.84C89.538 39.647 84.9401 45.5484 85.7437 52.0235C86.5462 58.4905 92.4476 63.0884 98.9191 62.2893C105.383 61.4913 109.987 55.5769 109.18 49.1063C108.376 42.6232 102.483 38.0324 96.0086 38.84Z" fill="#070504"/>
<path d="M96.0098 38.8401C102.484 38.0326 108.377 42.6234 109.185 49.106C109.992 55.5765 105.388 61.4909 98.9243 62.289C92.4488 63.0885 86.5514 58.4901 85.7489 52.0231C84.9453 45.5481 89.5392 39.6472 96.0098 38.8401Z" fill="#A2EAF0"/>
</g>
<defs>
<clipPath id="clip0_1121_82">
<rect y="20.6211" width="170" height="170" rx="20" transform="rotate(-6.96723 0 20.6211)" fill="white"/>
</clipPath>
</defs>
</svg>
