<svg width="190" height="190" viewBox="0 0 190 190" fill="none" xmlns="http://www.w3.org/2000/svg">
<g clip-path="url(#clip0_1121_127)">
<path d="M20.9687 189.228C14.1009 133.028 7.23306 76.8286 0.365234 20.6289C56.5772 13.7596 112.785 6.89073 168.997 0.0214033C169.034 0.225212 169.079 0.428036 169.105 0.63332C175.919 56.3983 182.734 112.163 189.549 167.928C189.648 168.737 189.725 168.638 188.916 168.737C133.139 175.553 77.3617 182.369 21.5885 189.185C21.3832 189.21 21.1755 189.215 20.9687 189.228ZM59.2294 51.0079C59.0079 50.9002 58.8597 50.8244 58.7075 50.749C57.3408 50.0622 55.9584 49.4141 54.537 48.8483C53.5709 48.4639 52.5844 48.1473 51.5613 47.9659C49.67 47.6333 48.0094 48.0854 46.5819 49.3752C46.2875 49.6399 45.989 49.9052 45.7361 50.2098C43.8644 52.4444 42.0771 54.7341 41.173 57.5654C41.0867 57.8292 40.9784 57.9119 40.6853 57.8537C39.7392 57.667 38.942 57.9973 38.2612 58.6443C37.7892 59.0942 37.4507 59.6339 37.166 60.2121C36.6622 61.2378 36.3659 62.3239 36.2059 63.4547C36.1807 63.6497 36.1752 63.8057 35.9206 63.8613C34.8264 64.1012 34.0881 64.8124 33.6016 65.7788C32.7732 67.4243 32.5421 69.1438 33.1081 70.9335C33.1669 71.1142 33.2217 71.2954 33.2997 71.4657C33.3832 71.6475 33.3542 71.7776 33.208 71.9181C32.5468 72.5586 32.3081 73.3803 32.2287 74.2683C32.08 75.8593 32.3932 77.3857 32.8709 78.8879C33.747 81.6447 35.371 83.9015 37.5553 85.763C40.3504 88.1422 43.4975 89.9596 46.8044 91.5123C47.6066 91.8923 48.4316 92.2245 49.3037 92.408C49.6139 92.4722 49.6986 92.5967 49.659 92.9079C49.5125 94.0493 49.4113 95.1933 49.2567 96.3356C48.5996 101.155 47.9008 105.967 47.2769 110.79C46.1766 119.304 45.299 127.835 45.1561 136.427C45.1197 138.503 45.2061 140.58 45.5268 142.637C45.7181 143.867 45.9652 145.087 46.4852 146.233C47.0556 147.491 47.9973 148.177 49.4082 148.155C49.6733 148.152 49.9389 148.152 50.197 148.124C51.3899 147.991 52.5101 147.597 53.5919 147.089C55.5461 146.163 57.3179 144.95 59.0597 143.691C62.0397 141.534 64.9075 139.227 67.7523 136.897C68.1722 136.556 68.0656 136.553 68.519 136.82C69.7247 137.527 70.9027 138.273 72.0432 139.082C72.2044 139.197 72.3877 139.293 72.5029 139.467C72.3737 139.613 72.2361 139.557 72.1143 139.563C71.1686 139.613 70.2323 139.707 69.3216 139.978C68.482 140.228 67.6858 140.566 67.0955 141.251C66.3794 142.078 66.3676 143.084 67.0559 143.936C67.3687 144.322 67.7637 144.613 68.1976 144.854C68.7767 145.18 69.3967 145.406 70.0284 145.595C71.0075 145.884 72.0069 146.072 73.0068 146.264C74.0982 146.47 75.1906 146.684 76.2732 146.952C76.5472 147.021 76.6681 147.141 76.7276 147.427C76.8979 148.252 77.3134 148.978 77.7969 149.658C78.9077 151.226 80.3308 152.441 82.0294 153.336C82.283 153.473 82.6178 153.538 82.515 153.968C82.4932 154.056 82.5894 154.175 82.6384 154.275C83.5653 156.311 85.0253 157.828 87.0335 158.816C87.4072 158.999 87.7901 159.157 88.1765 159.31C88.3613 159.385 88.4914 159.447 88.5013 159.695C88.5212 160.158 88.7499 160.559 88.9968 160.942C89.5197 161.744 90.2141 162.378 91.0165 162.893C92.0101 163.535 93.1121 163.928 94.2561 164.196C96.4216 164.7 98.6109 165.098 100.81 165.442C104.272 165.991 107.517 165.366 110.606 163.734C112.437 162.767 114.086 161.552 115.67 160.239C115.944 160.01 116.207 159.786 116.609 159.798C116.846 159.802 117.088 159.711 117.325 159.641C120.79 158.641 124.184 157.434 127.437 155.872C134.368 152.546 140.785 148.391 146.847 143.675C148.966 142.027 150.977 140.262 152.77 138.257C153.579 137.354 154.317 136.401 154.906 135.341C155.529 134.219 155.91 133.024 155.961 131.735C155.991 131.017 155.945 130.303 155.85 129.592C155.373 126.092 154.633 122.644 153.631 119.254C153.54 118.95 153.594 118.821 153.873 118.693C154.507 118.403 155.109 118.047 155.631 117.567C156.681 116.601 156.888 115.452 156.231 114.189C155.943 113.636 155.563 113.139 155.184 112.646C154.437 111.675 153.67 110.715 152.956 109.719C150.42 106.189 148.201 102.469 146.144 98.643C144.859 96.2508 143.67 93.8101 142.301 91.4649C141.165 89.5203 139.886 87.6789 138.208 86.1518C135.758 83.9224 132.917 82.5701 129.573 82.3577C129.318 82.3399 129.054 82.4211 128.804 82.3088C128.817 82.254 128.816 82.2092 128.837 82.1821C128.929 82.0647 129.029 81.9503 129.13 81.8359C130.669 80.0545 131.942 78.1055 132.939 75.9695C134.697 72.2005 135.159 68.2916 134.33 64.2137C133.939 62.2883 133.406 60.4006 132.846 58.5245C132.772 58.2843 132.66 58.0406 132.7 57.7294C133.085 57.8743 133.433 58.0115 133.787 58.1357C135.465 58.7233 137.172 59.0213 138.956 58.7093C141.508 58.2626 143.387 56.354 143.747 53.7893C143.971 52.2095 143.64 50.7097 143.015 49.2665C142.105 47.1716 140.711 45.4259 139.067 43.8702C136.041 41.0044 132.524 38.9094 128.68 37.3406C125.022 35.8513 121.204 34.9942 117.294 34.5283C116.465 34.4294 115.66 34.2949 114.951 33.8096C114.72 33.654 114.446 33.5527 114.187 33.4413C108.908 31.1287 103.379 30.0436 97.6222 30.1057C94.3054 30.1434 91.0414 30.579 87.8186 31.3855C84.247 32.2795 80.8557 33.6131 77.6818 35.488C75.9215 36.5284 74.2494 37.6887 72.7673 39.0995C72.4707 39.3808 72.1871 39.534 71.7937 39.5575C71.1694 39.597 70.5559 39.7251 69.9594 39.892C64.4637 41.4215 60.9527 44.9513 59.3955 50.428C59.3292 50.5872 59.2904 50.7717 59.2294 51.0079Z" fill="#FFF494"/>
<path d="M20.9694 189.226C21.1762 189.213 21.3839 189.208 21.5892 189.183C77.3664 182.366 133.144 175.55 188.917 168.734C189.726 168.636 189.648 168.735 189.549 167.926C182.735 112.161 175.92 56.396 169.105 0.631085C169.08 0.425801 169.035 0.222977 168.998 0.0191681C169.037 0.0388922 169.108 -0.0514482 169.117 0.061749C169.132 0.211173 169.154 0.359612 169.172 0.512569C176.023 56.5714 182.874 112.63 189.728 168.717C189.458 168.75 189.184 168.783 188.915 168.816C133.105 175.637 77.2998 182.456 21.4894 189.268C21.3243 189.288 21.1227 189.444 20.9694 189.226Z" fill="#A2EAF0"/>
<path d="M59.2306 51.0049C59.2916 50.7686 59.3308 50.5882 59.3826 50.4103C60.9434 44.9291 64.4548 41.4033 69.9466 39.8743C70.5431 39.7074 71.1601 39.5748 71.7809 39.5398C72.1783 39.5158 72.4579 39.3631 72.7544 39.0818C74.241 37.6745 75.9126 36.5102 77.6689 35.4703C80.8428 33.5954 84.2341 32.2618 87.8057 31.3678C91.0245 30.5618 94.2926 30.1257 97.6093 30.088C103.366 30.0259 108.895 31.111 114.174 33.4236C114.434 33.539 114.707 33.6363 114.938 33.7919C115.651 34.2767 116.452 34.4117 117.281 34.5106C121.191 34.9765 125.009 35.8336 128.668 37.3229C132.515 38.8872 136.027 40.9827 139.054 43.8525C140.698 45.4082 142.092 47.1539 143.002 49.2488C143.628 50.692 143.957 52.1878 143.734 53.7715C143.373 56.3322 141.494 58.2409 138.943 58.6916C137.159 59.0035 135.452 58.7056 133.774 58.118C133.42 57.9938 133.072 57.8566 132.687 57.7116C132.647 58.0229 132.763 58.2621 132.833 58.5068C133.398 60.3864 133.926 62.2705 134.317 64.196C135.146 68.2739 134.685 72.1869 132.927 75.9518C131.929 78.0878 130.656 80.0368 129.117 81.8182C129.016 81.9326 128.92 82.0465 128.824 82.1644C128.803 82.1915 128.804 82.2322 128.791 82.2911C129.041 82.4034 129.306 82.3262 129.561 82.34C132.904 82.5524 135.741 83.9051 138.195 86.1341C139.873 87.6612 141.152 89.5026 142.288 91.4472C143.657 93.7924 144.85 96.2326 146.131 98.6253C148.184 102.452 150.407 106.171 152.943 109.702C153.657 110.697 154.423 111.653 155.171 112.628C155.55 113.121 155.93 113.618 156.218 114.171C156.874 115.431 156.668 116.579 155.618 117.549C155.1 118.025 154.498 118.381 153.86 118.675C153.581 118.803 153.527 118.932 153.618 119.236C154.62 122.623 155.36 126.07 155.837 129.574C155.932 130.286 155.979 131.003 155.948 131.718C155.897 133.007 155.516 134.201 154.893 135.323C154.304 136.384 153.567 137.34 152.758 138.24C150.964 140.244 148.953 142.009 146.834 143.657C140.772 148.373 134.359 152.527 127.424 155.855C124.171 157.416 120.777 158.624 117.312 159.623C117.075 159.693 116.833 159.784 116.596 159.78C116.194 159.772 115.935 159.992 115.657 160.222C114.073 161.539 112.424 162.749 110.593 163.717C107.504 165.348 104.259 165.974 100.797 165.424C98.5976 165.076 96.4127 164.681 94.2432 164.179C93.0997 163.914 91.9977 163.521 91.0036 162.875C90.2008 162.356 89.5069 161.726 88.984 160.924C88.737 160.541 88.5043 160.141 88.4884 159.677C88.4786 159.429 88.348 159.363 88.1636 159.292C87.7772 159.139 87.3944 158.981 87.0207 158.798C85.0129 157.814 83.5525 156.293 82.6255 154.257C82.5805 154.157 82.4803 154.038 82.5021 153.95C82.6049 153.521 82.2701 153.455 82.0165 153.319C80.3179 152.423 78.8953 151.212 77.784 149.64C77.3005 148.96 76.889 148.234 76.7148 147.41C76.6552 147.123 76.5343 147.003 76.2604 146.934C75.1817 146.666 74.0898 146.456 72.9939 146.247C71.9945 146.058 70.9946 145.866 70.0156 145.577C69.3798 145.389 68.7638 145.162 68.1847 144.837C67.7549 144.595 67.3598 144.304 67.043 143.918C66.3512 143.071 66.3666 142.06 67.0826 141.233C67.673 140.548 68.4691 140.21 69.3088 139.96C70.2194 139.69 71.1557 139.596 72.1014 139.546C72.2232 139.539 72.3608 139.596 72.49 139.449C72.3793 139.279 72.1955 139.179 72.0303 139.064C70.8898 138.256 69.7078 137.509 68.5061 136.802C68.0487 136.536 68.1553 136.539 67.7394 136.88C64.8947 139.209 62.0268 141.516 59.0468 143.674C57.3055 144.936 55.5297 146.15 53.5791 147.071C52.4978 147.583 51.3811 147.973 50.1841 148.107C49.922 148.135 49.6564 148.134 49.3954 148.138C47.9885 148.159 47.0427 147.473 46.4723 146.215C45.9523 145.07 45.7052 143.85 45.514 142.619C45.1932 140.562 45.1074 138.489 45.1433 136.41C45.2902 127.817 46.1677 119.286 47.264 110.773C47.8879 105.949 48.5908 101.137 49.2438 96.3179C49.3989 95.1796 49.4996 94.0316 49.6461 92.8902C49.6862 92.583 49.601 92.4545 49.2909 92.3903C48.4187 92.2068 47.5977 91.8741 46.7915 91.4946C43.4842 89.9379 40.3335 88.125 37.5424 85.7453C35.3581 83.8838 33.7341 81.627 32.858 78.8702C32.3803 77.368 32.0671 75.8416 32.2158 74.2506C32.2998 73.3661 32.5384 72.5444 33.1951 71.9004C33.3373 71.7604 33.3663 71.6302 33.2869 71.4479C33.2089 71.2777 33.154 71.0965 33.0952 70.9158C32.5292 69.1261 32.7603 67.4066 33.5887 65.7611C34.0752 64.7947 34.8095 64.084 35.9077 63.8436C36.1624 63.7879 36.1678 63.632 36.193 63.437C36.3536 62.3102 36.6493 61.2201 37.1531 60.1944C37.4379 59.6162 37.7758 59.0724 38.2484 58.6266C38.9332 57.9791 39.7308 57.6529 40.6724 57.836C40.9655 57.8942 41.0738 57.8115 41.1601 57.5477C42.0637 54.7123 43.8516 52.4267 45.7233 50.1921C45.9766 49.8915 46.2746 49.6222 46.5691 49.3575C47.9966 48.0677 49.6566 47.6116 51.5484 47.9482C52.5755 48.1291 53.562 48.4457 54.5242 48.8306C55.9455 49.3964 57.3279 50.0445 58.6947 50.7313C58.8609 50.8213 59.0086 50.8931 59.2306 51.0049ZM90.1147 143.734C90.1399 143.739 90.1695 143.747 90.1947 143.752C90.1796 143.73 90.1686 143.707 90.1536 143.684C89.9712 143.261 89.6497 142.937 89.3886 142.572C88.6887 141.592 87.9695 140.621 87.262 139.646C87.0611 139.372 86.8302 139.188 86.4416 139.284C86.4607 139.507 86.5996 139.641 86.7033 139.787C87.4604 140.867 88.236 141.933 88.9744 143.027C89.2594 143.454 89.6083 143.702 90.1147 143.734ZM79.3679 147.992L79.3548 147.986C78.8541 147.7 78.3017 147.559 77.752 147.373C77.6736 147.701 77.8119 147.897 77.913 148.089C78.1831 148.627 78.5218 149.125 78.8982 149.598C80.1864 151.214 81.8174 152.358 83.7413 153.092C86.1104 153.991 88.6046 154.409 91.0489 155.022C91.3368 155.105 91.6279 155.18 91.9098 155.28C92.1444 155.362 92.2838 155.532 92.2348 155.8C92.1913 156.046 91.9702 156.175 91.6715 156.138C91.5428 156.121 91.4187 156.075 91.288 156.042C89.1397 155.512 86.9869 154.979 84.8386 154.449C84.4311 154.29 84.0302 154.118 83.5315 154.049C83.9372 154.861 84.3854 155.554 84.9581 156.162C86.5299 157.825 88.5184 158.652 90.728 159.015C91.1157 159.078 91.5067 159.169 91.9037 159.109C92.1937 159.208 92.5011 159.183 92.7993 159.216C93.1181 159.25 93.4384 159.264 93.7542 159.307C94.0116 159.341 94.1625 159.507 94.1462 159.774C94.1263 160.046 93.9404 160.163 93.6849 160.178C93.5918 160.185 93.4968 160.176 93.4022 160.171C92.2159 160.092 91.0306 160.02 89.8623 159.787C89.7411 159.765 89.6121 159.679 89.4961 159.799C89.8291 161.254 92.163 162.868 94.4631 163.237C94.5474 163.324 94.6666 163.33 94.7756 163.354C96.9321 163.817 99.0968 164.247 101.283 164.556C104.168 164.959 106.916 164.513 109.532 163.225C111.078 162.464 112.537 161.567 113.879 160.484C114.82 159.723 115.742 158.949 116.684 158.192C117.089 157.865 117.303 157.908 117.505 158.362C117.59 158.552 117.682 158.577 117.848 158.524C118.17 158.419 118.492 158.315 118.818 158.209C122.426 157.078 125.918 155.667 129.276 153.929C133.691 151.645 137.887 149.004 141.955 146.157C144.338 144.494 146.657 142.744 148.836 140.815C150.576 139.274 152.233 137.658 153.576 135.741C154.761 134.044 155.266 132.193 155.01 130.125C154.756 128.08 154.378 126.063 153.941 124.054C153.415 121.659 152.799 119.287 151.945 116.985C151.83 116.676 151.694 116.632 151.413 116.67C150.435 116.794 149.484 117.032 148.544 117.302C145.327 118.223 142.225 119.447 139.193 120.847C138.694 121.076 138.695 121.084 138.843 121.658C138.846 121.715 138.841 121.773 138.852 121.829C139.351 124.076 139.854 126.319 140.081 128.615C140.088 128.704 140.092 128.802 140.216 128.885C140.4 128.85 140.558 128.708 140.729 128.602C141.063 128.393 141.391 128.165 141.734 127.968C141.94 127.849 142.144 127.91 142.292 128.088C142.436 128.258 142.403 128.528 142.22 128.697C142.124 128.786 142.01 128.854 141.896 128.925C140.742 129.642 139.628 130.419 138.522 131.204C136.632 132.546 134.771 133.934 132.929 135.348C128.226 138.95 123.673 142.742 119.114 146.522C118.869 146.728 118.773 146.911 118.842 147.242C118.968 147.831 119.045 148.43 119.114 149.03C119.154 149.356 119.008 149.534 118.75 149.565C118.497 149.596 118.316 149.455 118.242 149.145C118.199 148.962 118.184 148.772 118.161 148.587C118.066 147.839 117.934 147.095 117.675 146.383C117.096 144.783 116.178 143.388 115.073 142.105C115.025 142.05 114.969 141.991 114.88 141.994C114.74 142.154 114.781 142.386 114.671 142.563C114.559 142.744 114.398 142.829 114.195 142.776C113.993 142.728 113.866 142.588 113.86 142.376C113.855 142.266 113.886 142.152 113.909 142.043C114.049 141.377 114.247 140.727 114.492 140.093C115.205 138.241 116.379 136.708 117.811 135.361C118.431 134.779 119.041 134.189 119.581 133.531C120.04 132.972 120.433 132.377 120.556 131.643C120.69 130.801 120.302 130.105 119.512 129.785C119.155 129.641 118.786 129.596 118.402 129.626C117.564 129.692 116.844 130.05 116.175 130.528C115.307 131.149 114.588 131.919 113.912 132.737C112.659 134.254 111.594 135.9 110.516 137.539C109.747 138.708 108.974 139.864 108.107 140.963C106.682 142.775 104.933 144.178 102.842 145.152C100.732 146.137 98.5501 146.902 96.2752 147.409C95.9133 147.49 95.5778 147.519 95.3031 147.177C95.1928 147.043 94.9852 146.983 94.8159 146.901C92.4168 145.756 89.9874 144.664 87.5023 143.718C83.8258 142.317 80.0793 141.177 76.164 140.663C74.2126 140.407 72.2568 140.282 70.3023 140.636C69.5147 140.777 68.7627 141.008 68.112 141.5C67.7566 141.768 67.4645 142.085 67.4833 142.573C67.4457 143.068 67.7648 143.372 68.0934 143.655C68.6183 144.105 69.2534 144.355 69.9002 144.566C71.2831 145.018 72.7205 145.246 74.1467 145.517C75.9661 145.863 77.7539 146.319 79.4732 147.015C81.2437 147.731 83.0579 148.301 84.9447 148.63C87.6283 149.095 90.2622 149.721 92.7478 150.872C92.9452 150.982 93.1526 151.075 93.3359 151.204C93.506 151.326 93.5493 151.513 93.4547 151.708C93.3495 151.917 93.1817 152.016 92.945 151.951C92.8561 151.925 92.7696 151.886 92.6827 151.844C90.5359 150.791 88.2536 150.167 85.9134 149.738C83.7989 149.351 81.7083 148.891 79.7092 148.077C79.6574 148.055 79.6001 148.054 79.5458 148.044C79.4845 148.011 79.4328 147.989 79.3679 147.992ZM120.381 48.512C120.175 48.529 119.968 48.538 119.763 48.5631C117.513 48.8461 115.269 49.1367 113.021 49.4237C112.888 49.44 112.76 49.4638 112.626 49.4719C112.391 49.4884 112.303 49.6013 112.315 49.8367C112.337 50.214 112.338 50.5898 112.327 50.967C112.109 58.7434 105.718 65.0151 97.9366 65.0264C93.6763 65.0322 90.0779 63.4334 87.1535 60.3305C87.0171 60.1838 86.9191 59.9833 86.6995 59.9244C86.52 60.0607 86.4681 60.2713 86.3756 60.4501C85.9053 61.3818 85.3461 62.255 84.6885 63.0584C80.4698 68.219 73.3813 69.8532 67.3251 67.0636C66.5545 66.7084 66.5464 66.7094 66.0396 67.376C65.973 67.4658 65.9068 67.5597 65.8447 67.6531C64.8887 69.0568 64.2441 70.6022 63.8357 72.2413C63.5835 73.2526 63.4599 74.2808 63.4193 75.3193C63.4026 75.7504 63.4437 75.7862 63.869 75.6893C64.4614 75.5556 65.0561 75.4747 65.6554 75.3974C68.3503 75.0518 71.0472 74.7222 73.7332 74.3041C76.0263 73.9462 78.3293 73.6362 80.6248 73.2985C86.2263 72.4669 91.843 71.7601 97.4898 71.2988C98.8612 71.1884 100.239 71.0976 101.611 71.028C104.024 70.9089 106.437 70.8018 108.849 70.7808C110.848 70.7612 112.85 70.7616 114.842 70.9799C116.122 71.1217 117.387 71.343 118.531 71.9794C119.398 72.4616 120.08 73.1219 120.425 74.0725C120.948 75.5119 120.626 76.8259 119.769 78.0337C118.842 79.3399 117.526 80.138 116.071 80.7325C115.495 80.9663 114.901 81.1614 114.301 81.3327C113.768 81.4837 113.773 81.4912 113.834 82.023C113.88 82.4341 113.943 82.8472 113.973 83.2602C114.033 84.0496 114.109 84.841 114.067 85.6346C114.037 86.2265 113.944 86.8016 113.619 87.3113C113.118 88.0996 112.229 88.2777 111.458 87.755C111.075 87.4954 110.788 87.1506 110.545 86.7636C110.241 86.2819 110.014 85.7622 109.803 85.2406C109.509 84.5044 109.234 83.7617 108.874 83.0541C108.68 82.6693 108.672 82.6702 108.272 82.7763C105.888 83.4271 103.475 83.9712 101.063 84.4947C97.8156 85.198 94.5541 85.8213 91.2777 86.3565C86.9562 87.0643 82.6144 87.6399 78.2461 87.9653C76.9305 88.0648 75.609 88.1487 74.2901 88.1546C73.8329 88.1574 73.3736 88.1767 72.9174 88.1876C72.9197 88.2731 72.9141 88.2942 72.9196 88.3058C72.9537 88.3506 72.9882 88.3995 73.0329 88.4308C74.8486 89.7491 76.8089 90.7801 78.9537 91.4494C79.0967 91.5831 79.2923 91.6123 79.4672 91.6726C81.1506 92.2431 82.8803 92.6241 84.6243 92.9216C88.4919 93.5806 92.3907 93.6925 96.2958 93.5216C99.047 93.402 101.787 93.157 104.513 92.7013C107.364 92.2222 110.177 91.6088 112.929 90.7251C116.797 89.4884 120.453 87.8119 123.771 85.4455C127.39 82.8626 130.215 79.6045 132.111 75.5653C133.417 72.7789 134.024 69.8532 133.774 66.7748C133.626 64.9259 133.218 63.1252 132.722 61.3392C132.379 60.1025 131.992 58.8792 131.673 57.6394C131.582 57.2952 131.447 57.0911 131.136 56.9207C128.519 55.4961 126.185 53.6815 124.024 51.6415C123.063 50.7335 122.161 49.7693 121.373 48.7053C121.192 48.4619 121.002 48.3462 120.703 48.4359C120.605 48.4683 120.493 48.4861 120.381 48.512ZM68.1437 118.659C67.9777 118.471 67.7491 118.372 67.5453 118.242C67.0658 117.929 67.0623 117.933 66.6442 118.323C64.9756 119.88 63.3029 121.436 61.55 122.905C61.1351 123.254 60.682 123.558 60.6968 124.214C60.7051 124.483 60.4563 124.619 60.228 124.59C59.9957 124.561 59.8353 124.385 59.839 124.115C59.8405 123.926 59.8748 123.738 59.9009 123.551C60.5012 119.27 60.8908 114.97 61.2306 110.663C61.6784 104.967 62.0311 99.2613 62.2852 93.5517C62.3324 92.4674 62.5095 91.3755 62.3068 90.2849C62.2795 90.1289 62.3735 89.9949 62.4473 89.8633C62.605 89.5826 62.7672 89.3054 62.9123 89.0221C63.3513 88.1678 63.7942 87.3129 64.0342 86.3685C64.14 85.9634 64.1193 85.6268 63.901 85.245C63.4345 84.4359 63.56 83.5912 64.1681 82.8837C64.4042 82.6097 64.6885 82.3952 64.9913 82.1989C65.1087 82.1233 65.2778 82.1026 65.3362 81.8789C65.2246 81.8681 65.121 81.8562 65.0174 81.8444C64.4719 81.7926 63.9252 81.7654 63.3847 81.6885C62.6692 81.5839 61.9888 81.3647 61.3864 80.9481C60.2925 80.1871 59.9691 78.8785 60.585 77.7002C60.9096 77.0804 61.3893 76.5928 62.0194 76.2993C62.4061 76.1213 62.5079 75.8842 62.516 75.4828C62.562 73.0506 63.1377 70.7415 64.2623 68.5777C64.3842 68.3381 64.4412 68.1024 64.4485 67.8278C64.4742 67.0689 64.3424 66.3251 64.2791 65.573C64.2518 65.2495 64.1262 65.0238 63.8793 64.8089C62.649 63.7336 61.6218 62.4824 60.818 61.0527C60.7559 60.9459 60.7251 60.7944 60.5301 60.7693C60.3271 61.2148 60.2554 61.6975 60.2249 62.1833C60.1519 63.2912 60.092 64.4056 60.0482 65.5181C59.9645 67.7752 58.931 69.5479 57.3033 71.0378C57.1233 71.2027 56.941 71.2822 56.6896 71.2312C54.6914 70.8258 52.8031 70.1497 51.0758 69.0535C49.8005 68.2452 48.6654 67.2809 47.8813 65.9795C46.4569 63.6166 46.3181 61.211 47.7985 58.8158C48.5619 57.5746 49.5185 56.4772 50.4933 55.394C51.0079 54.8245 51.6382 54.6331 52.3897 54.7986C52.9607 54.9249 53.518 55.106 54.0753 55.2871C55.2583 55.6737 56.4534 56.026 57.6897 56.214C58.1517 56.2842 58.6117 56.371 59.0807 56.2973C59.1456 56.126 59.1067 55.9755 59.085 55.8311C58.9226 54.7029 58.8951 53.5747 59.039 52.4459C59.0854 52.0562 58.9642 51.8667 58.6291 51.6993C56.8369 50.8071 55.0356 49.9406 53.1417 49.2855C52.6427 49.1136 52.1321 48.98 51.6123 48.8719C49.9021 48.5171 48.3971 48.9053 47.1087 50.0963C46.9438 50.2513 46.7744 50.4027 46.619 50.5688C45.1651 52.1436 43.9441 53.8861 42.8888 55.7472C42.495 56.4367 42.2485 57.194 41.9929 57.9443C41.9331 58.1232 41.8602 58.2955 42.0589 58.451C42.9327 59.149 43.4139 60.1115 43.803 61.1221C44.7129 63.4866 45.7694 65.78 47.0918 67.943C47.3572 68.3763 47.554 68.8506 47.692 69.3444C47.9779 70.3798 47.5534 71.2855 46.5628 71.7048C45.9611 71.9622 45.3207 72.0037 44.673 71.9521C44.4914 71.9375 44.3131 71.849 44.1263 71.9249C44.5303 74.6291 44.5023 74.7346 42.9922 76.0835C42.9929 76.1896 43.0697 76.2497 43.1278 76.3243C43.6833 76.9917 44.1144 77.7112 44.0102 78.6308C43.9932 78.7922 44.077 78.876 44.2136 78.9246C44.3378 78.9707 44.4583 79.0214 44.5829 79.0715C47.3042 80.1116 49.7149 81.6187 51.6513 83.825C51.7511 83.9395 51.862 84.0444 51.9501 84.1643C52.0884 84.3599 52.0637 84.559 51.8963 84.7265C51.7213 84.8991 51.513 84.9 51.3319 84.7546C51.1552 84.6128 51.0002 84.4479 50.8453 84.283C49.3775 82.6689 47.6542 81.4047 45.6593 80.5251C45.1756 80.3105 44.6822 80.1175 44.209 79.8893C43.8227 79.7037 43.4919 79.6379 43.1384 79.9875C42.927 80.1972 42.608 80.2607 42.303 80.3061C41.7893 80.3811 41.284 80.3244 40.7904 80.1968C39.4167 79.854 38.2009 79.1651 37.0088 78.4365C36.7266 78.2667 36.6613 78.0337 36.7741 77.8197C36.9005 77.5837 37.1582 77.5195 37.459 77.6747C37.677 77.787 37.8814 77.9214 38.0963 78.0422C38.8998 78.4996 39.7205 78.9304 40.6045 79.2104C41.1105 79.3733 41.6237 79.4944 42.1607 79.4084C42.8822 79.2957 43.2398 78.7781 43.0914 78.065C43.0124 77.6865 42.8177 77.3631 42.577 77.0656C42.2688 76.6825 41.909 76.3466 41.5135 76.0517C40.1758 75.0672 38.8557 74.0602 37.5498 73.035C37.2833 72.8265 36.988 72.6502 36.6907 72.4904C36.3271 72.2898 35.9442 72.1323 35.5279 72.0688C34.4706 71.9079 33.6706 72.3815 33.3117 73.3895C33.1662 73.8036 33.0996 74.2284 33.0919 74.6665C33.0474 76.5757 33.5439 78.3656 34.3062 80.0904C35.2665 82.2649 36.7893 83.9948 38.6165 85.4751C40.9883 87.3995 43.6132 88.9212 46.3371 90.2837C47.7295 90.9797 49.166 91.5354 50.7059 91.8007C50.8185 91.8196 50.9276 91.843 51.0341 91.879C51.2638 91.9531 51.3699 92.1199 51.3497 92.3552C51.3269 92.5704 51.1832 92.731 50.9805 92.7108C50.5511 92.6734 50.5468 92.9395 50.5183 93.2412C50.257 95.7161 49.9464 98.1889 49.594 100.655C48.5997 107.562 47.6014 114.469 46.9767 121.425C46.4703 127.043 45.9639 132.661 46.0781 138.309C46.1018 139.573 46.1461 140.838 46.3921 142.083C46.4145 142.901 46.6407 143.682 46.8267 144.468C46.9619 145.04 47.1676 145.587 47.4434 146.105C47.8161 146.815 48.3965 147.185 49.2042 147.242C50.2708 147.312 51.2629 147.039 52.2347 146.667C54.0655 145.97 55.7071 144.928 57.304 143.821C60.6215 141.516 63.7641 138.983 66.8921 136.432C67.0035 136.341 67.1546 136.273 67.1732 136.091C67.1401 136.054 67.1091 136.001 67.0649 135.974C65.5834 135.15 64.1013 134.322 62.5597 133.607C61.064 132.801 59.5198 132.099 57.9791 131.393C57.0527 130.967 56.1138 130.571 55.1849 130.158C54.7961 129.985 54.6818 129.819 54.741 129.534C54.794 129.266 54.9625 129.106 55.2287 129.045C55.9273 128.878 56.6219 128.711 57.3205 128.544C57.5666 128.486 57.8262 128.47 58.0428 128.338C58.0115 128.215 57.9351 128.191 57.8698 128.159C57.2671 127.84 56.6557 127.551 56.0146 127.319C55.7498 127.225 55.5232 127.109 55.5357 126.777C55.5476 126.473 55.7252 126.288 56.1183 126.195C56.4117 126.123 56.7052 126.05 57.0006 125.993C60.1735 125.381 63.3647 125.285 66.5727 125.661C67.6794 125.791 68.7632 126.035 69.8592 126.211C71.5438 126.692 73.2219 127.185 74.8163 127.93C75.0027 128.018 75.1377 127.952 75.2743 127.833C75.5542 127.583 75.843 127.339 76.1184 127.085C76.4819 126.75 76.4734 126.747 76.1928 126.357C74.9331 124.607 73.4854 123.023 71.8874 121.58C70.7103 120.506 69.5025 119.482 68.1437 118.659ZM75.3743 123.838C75.4425 123.928 75.5031 124.022 75.5748 124.108C76.5635 125.278 77.4619 126.512 78.1789 127.866C78.5242 128.519 78.8226 129.189 78.8014 129.952C78.7976 130.054 78.82 130.137 78.9049 130.196C79.1805 130.379 79.4213 130.611 79.7664 130.761C79.7703 130.626 79.7776 130.551 79.7687 130.479C79.4577 127.432 79.4525 124.381 79.5656 121.328C79.7649 115.972 80.2906 110.646 81.0808 105.345C81.1397 104.958 81.264 104.571 81.2068 104.169C81.2254 104.155 81.231 104.134 81.22 104.111C81.2755 104.063 81.2842 104.001 81.2718 103.933C81.313 103.768 81.3416 103.601 81.3999 103.443C81.4825 103.217 81.6588 103.121 81.8926 103.162C82.1304 103.203 82.2522 103.363 82.2485 103.601C82.2445 103.769 82.2078 103.937 82.1837 104.107C81.1352 110.805 80.4587 117.538 80.4099 124.326C80.3926 126.591 80.4688 128.853 80.7317 131.105C80.77 131.451 80.9087 131.684 81.1807 131.904C83.0902 133.456 84.8147 135.198 86.342 137.131C86.4191 137.228 86.4605 137.366 86.625 137.374C86.936 136.944 87.2344 136.511 87.5555 136.096C87.8801 135.677 88.2142 135.268 88.5623 134.874C92.512 130.388 96.8313 126.286 101.464 122.508C103.879 120.538 106.348 118.643 108.973 116.962C109.772 116.448 109.777 116.451 110.47 117.073C110.906 117.465 111.367 117.826 111.831 118.182C112.151 118.425 112.43 118.505 112.797 118.268C113.097 118.076 113.441 117.952 113.766 117.806C114.866 117.312 115.982 116.849 117.11 116.413C117.699 116.186 117.82 116.241 118.048 116.805C118.16 117.086 118.283 117.361 118.407 117.635C120.817 122.983 123.351 128.274 125.808 133.599C126.457 135.003 127.091 136.412 127.74 137.816C127.89 138.137 127.907 138.143 128.176 137.938C128.475 137.71 128.759 137.463 129.049 137.223C130.199 136.335 131.344 135.443 132.495 134.563C134.545 132.993 136.615 131.445 138.74 129.976C139.049 129.763 139.233 129.528 139.194 129.145C139.18 128.995 139.198 128.842 139.184 128.692C139.097 127.886 139.011 127.079 138.841 126.287C138.635 125.303 138.64 125.311 137.622 125.341C136.617 125.37 135.626 125.254 134.666 124.951C133.221 124.494 132.382 123.543 132.259 122.005C132.242 121.799 132.229 121.592 132.216 121.385C132.17 120.574 132.084 119.768 131.921 118.974C131.396 116.346 130.617 113.786 129.831 111.227C128.163 105.805 126.251 100.458 124.785 94.9752C124.767 94.863 124.737 94.7523 124.739 94.6376C124.738 94.3599 124.878 94.1712 125.105 94.1517C125.343 94.1308 125.5 94.2464 125.581 94.4694C125.618 94.5751 125.652 94.6854 125.674 94.7971C126.039 96.3785 126.538 97.923 127.026 99.473C128.581 104.443 130.25 109.374 131.699 114.377C132.4 116.808 133.062 119.248 133.153 121.802C133.158 121.973 133.191 122.141 133.215 122.309C133.321 123.044 133.735 123.549 134.387 123.874C134.674 124.018 134.977 124.124 135.289 124.205C136.248 124.463 137.232 124.453 138.212 124.452C138.42 124.451 138.478 124.358 138.439 124.171C138.256 123.307 138.073 122.447 137.876 121.535C137.222 121.803 136.675 122.136 136.111 122.433C135.945 122.519 135.778 122.617 135.6 122.671C135.403 122.728 135.223 122.656 135.125 122.46C135.033 122.275 135.046 122.081 135.205 121.939C135.315 121.84 135.454 121.77 135.584 121.697C136.898 120.952 138.256 120.296 139.636 119.686C143.263 118.079 146.954 116.655 150.86 115.859C151.516 115.812 152.166 115.651 152.834 115.732C153.294 115.787 153.719 115.922 154.085 116.209C154.27 116.354 154.327 116.547 154.235 116.762C154.149 116.965 153.969 117.032 153.768 116.991C153.643 116.965 153.527 116.89 153.406 116.835C153.225 116.755 153.057 116.624 152.79 116.706C152.926 117.086 153.051 117.438 153.179 117.786C153.24 117.954 153.358 117.948 153.497 117.882C154.11 117.578 154.708 117.256 155.181 116.753C155.709 116.194 155.869 115.562 155.539 114.83C155.281 114.257 154.92 113.749 154.53 113.266C151.412 109.407 148.788 105.225 146.365 100.909C144.898 98.2939 143.579 95.5953 142.131 92.9698C141.071 91.0486 139.92 89.1874 138.398 87.5923C136.18 85.2609 133.524 83.7471 130.302 83.3238C129.559 83.2267 128.806 83.1552 128.065 83.3725C127.735 83.4168 127.469 83.5761 127.227 83.8058C125.572 85.3685 123.739 86.6873 121.78 87.8418C121.635 87.9248 121.471 87.9858 121.367 88.1333C120.648 89.169 119.687 89.9646 118.716 90.7491C114.704 93.9848 110.098 95.9081 105.053 96.8186C101.44 97.4726 97.8114 97.4993 94.1732 97.0125C91.2912 96.6293 88.5006 95.9245 85.957 94.4664C85.2715 94.0722 84.572 93.8309 83.8018 93.7126C83.4106 93.6542 83.067 93.6839 82.7059 93.8383C81.1066 94.524 79.7376 95.5574 78.4659 96.7178C76.9264 98.1274 75.6148 99.7298 74.422 101.436C72.8395 103.697 71.513 106.114 70.1775 108.524C68.8854 110.855 67.4865 113.114 65.8078 115.19C65.499 115.571 65.2172 115.973 64.9801 116.406C64.8163 116.704 64.6872 117.018 64.6224 117.357C64.5448 117.759 64.6802 118.098 64.9072 118.417C64.9813 118.523 65.0782 118.58 65.1877 118.473C65.5099 118.168 65.8919 117.917 66.1289 117.516C66.04 117.458 65.9707 117.425 65.9155 117.375C65.6601 117.157 65.6023 116.951 65.7447 116.746C65.8972 116.523 66.1105 116.497 66.3436 116.599C66.5682 116.699 66.7963 116.793 67.0108 116.91C68.1991 117.541 69.2874 118.323 70.355 119.136C72.183 120.523 73.8329 122.123 75.3743 123.838ZM84.5472 44.5856C84.7671 44.379 84.825 44.1513 84.9322 43.9585C87.6419 38.9864 91.8377 36.2472 97.4801 36.0847C102.845 35.9274 107.051 38.2814 110.051 42.7395C110.859 43.9398 111.401 45.2667 111.807 46.647C111.926 47.0532 111.934 47.0522 112.353 47.0051C112.43 46.9957 112.502 46.9829 112.578 46.9735C114.762 46.6576 116.95 46.3453 119.134 46.0294C119.279 46.0076 119.436 46.0211 119.58 45.8973C119.511 45.534 119.296 45.217 119.172 44.8686C119.055 44.5479 118.923 44.2372 118.823 43.9145C118.728 43.6074 118.82 43.3919 119.049 43.2944C119.282 43.1965 119.503 43.2962 119.643 43.5732C119.692 43.6734 119.726 43.7837 119.763 43.8894C120.451 45.8358 121.504 47.5659 122.861 49.1158C124.647 51.1608 126.688 52.9173 128.901 54.4771C130.573 55.6577 132.328 56.6811 134.28 57.3373C135.766 57.8378 137.278 58.0739 138.849 57.788C141.114 57.3722 142.716 55.5996 142.885 53.3035C142.99 51.828 142.619 50.4599 141.977 49.1494C140.927 47.0103 139.378 45.2713 137.596 43.7242C134.615 41.1307 131.225 39.2287 127.541 37.8283C124.062 36.5049 120.447 35.7742 116.76 35.33C116.607 35.312 116.462 35.293 116.32 35.3675C116.105 35.4796 115.92 35.4041 115.741 35.2789C115.089 34.8234 114.373 34.4819 113.644 34.1666C108.257 31.8345 102.621 30.8115 96.7648 31.0001C94.1199 31.0864 91.5039 31.4428 88.92 32.0282C86.1494 32.6569 83.4716 33.5438 80.9035 34.7605C78.5404 35.8827 76.3196 37.2326 74.3001 38.8929C74.1367 39.0272 73.9202 39.1272 73.8504 39.4258C75.9416 39.5216 77.905 39.9762 79.76 40.8811C81.6105 41.7825 83.1899 43.0398 84.5472 44.5856ZM118.083 128.754C118.442 128.69 118.799 128.704 119.153 128.758C120.753 129.012 121.718 130.353 121.401 131.907C121.256 132.624 120.911 133.25 120.476 133.83C119.724 134.833 118.773 135.644 117.897 136.527C116.784 137.656 115.899 138.932 115.316 140.413C115.191 140.726 115.177 140.981 115.463 141.216C115.635 141.358 115.769 141.546 115.917 141.72C116.882 142.869 117.673 144.124 118.289 145.491C118.447 145.844 118.471 145.841 118.772 145.628C118.832 145.584 118.891 145.536 118.951 145.488C121.531 143.334 124.103 141.178 126.721 139.072C127.157 138.725 127.156 138.713 126.91 138.171C126.366 136.967 125.831 135.762 125.272 134.564C123.011 129.705 120.747 124.85 118.486 119.991C118.127 119.222 117.786 118.443 117.435 117.673C117.269 117.313 117.26 117.31 116.884 117.442C116.813 117.467 116.743 117.496 116.673 117.521C113.569 118.733 110.627 120.261 107.828 122.062C105.108 123.808 102.53 125.749 100.045 127.809C95.9461 131.21 92.0691 134.854 88.3512 138.663C87.9845 139.038 87.9788 139.092 88.2925 139.52C89.464 141.117 90.6432 142.709 91.8107 144.307C91.9726 144.528 92.1663 144.676 92.4135 144.793C93.495 145.286 94.573 145.783 95.6424 146.31C95.9725 146.47 96.2782 146.498 96.6225 146.407C98.3545 145.938 100.046 145.367 101.705 144.67C104.149 143.645 106.155 142.072 107.729 139.947C109.223 137.93 110.503 135.768 111.97 133.73C112.965 132.346 114.03 131.027 115.384 129.971C116.183 129.358 117.057 128.888 118.083 128.754ZM61.7242 55.6311C61.7823 55.9059 61.8669 56.4307 61.9987 56.9416C63.6056 63.0366 69.644 66.817 75.8057 65.488C80.2637 64.5265 83.2052 61.7853 84.6973 57.4809C84.8149 57.1397 84.7996 56.8475 84.6482 56.5105C83.4813 53.916 83.101 51.2049 83.5207 48.3879C83.573 48.0465 83.5123 47.7843 83.3255 47.4925C80.5082 43.1591 75.2283 41.1734 70.2148 42.5705C64.644 44.1214 60.9863 49.626 61.7242 55.6311ZM112.449 76.9019C113.042 78.0141 113.362 79.1311 113.553 80.2885C113.596 80.5446 113.732 80.5852 113.953 80.5174C115.291 80.1047 116.608 79.6496 117.755 78.8067C118.591 78.1899 119.269 77.4493 119.602 76.4362C120.076 74.9975 119.546 73.6038 118.232 72.8452C117.823 72.6092 117.389 72.4294 116.931 72.2974C115.243 71.8174 113.51 71.7473 111.772 71.7023C108.887 71.6259 106.004 71.7372 103.119 71.865C100.177 71.9958 97.2393 72.1914 94.3142 72.4917C90.0537 72.9306 85.7986 73.4465 81.5627 74.0867C78.0932 74.6128 74.6173 75.1193 71.1433 75.6092C69.1794 75.886 67.2127 76.1059 65.2473 76.3706C64.6485 76.4519 64.0527 76.5574 63.4658 76.7027C62.7239 76.8832 62.038 77.1876 61.5619 77.8382C60.9182 78.7217 61.1221 79.7548 62.0566 80.3147C62.2991 80.4607 62.5614 80.5676 62.8363 80.6443C63.365 80.7921 63.905 80.865 64.4537 80.9083C66.1534 81.0437 67.8467 80.9267 69.5421 80.8257C72.4784 80.6507 75.4139 80.435 78.3479 80.2072C80.8493 80.0159 83.3473 79.7637 85.8496 79.5805C87.1858 79.4826 88.5196 79.3318 89.8524 79.2057C92.465 78.9559 95.0717 78.6905 97.6839 78.4366C97.9586 78.4112 98.1123 78.2984 98.2503 78.0569C98.8598 76.9938 99.7706 76.2901 100.926 75.912C101.668 75.6661 102.444 75.6365 103.222 75.6518C104.397 75.6716 105.559 75.6195 106.702 75.3082C107.354 75.1305 108.017 74.9719 108.694 74.8973C109.73 74.7789 110.654 75.0173 111.425 75.7116C111.746 75.9991 112.05 76.0478 112.449 75.9664C113.688 75.7128 114.914 75.4118 116.145 75.1225C116.574 75.0211 116.816 75.1017 116.899 75.3776C116.976 75.6418 116.803 75.8632 116.376 75.9807C115.922 76.1097 115.461 76.2111 115.004 76.3159C114.174 76.5113 113.351 76.6977 112.449 76.9019ZM64.955 86.448C64.6235 87.7141 64.0541 88.8376 63.445 89.9375C63.3413 90.1258 63.3166 90.3249 63.3095 90.5342C63.2741 91.5149 63.2387 92.4956 63.1948 93.4733C62.9952 97.824 62.7463 102.173 62.4401 106.52C62.0837 111.56 61.6986 116.599 61.0737 121.615C61.0561 121.772 60.9576 121.935 61.098 122.114C62.1677 121.24 63.1813 120.307 64.2003 119.386C64.4176 119.192 64.2787 119.058 64.1704 118.908C63.7104 118.286 63.6072 117.608 63.8154 116.872C63.9353 116.448 64.1209 116.062 64.3493 115.691C64.6666 115.178 65.0371 114.7 65.4076 114.222C66.3656 113.002 67.2614 111.74 68.0372 110.399C69.0019 108.733 69.9406 107.054 70.8923 105.381C72.1635 103.146 73.5195 100.97 75.138 98.971C76.9196 96.7678 78.9289 94.8228 81.4265 93.4309C81.4915 93.3944 81.5705 93.3725 81.5658 93.2341C81.3502 93.1747 81.1251 93.1041 80.8969 93.0422C78.9408 92.5132 77.0535 91.8123 75.2559 90.8759C73.947 90.1943 72.6962 89.4198 71.5979 88.4223C71.3631 88.2059 71.1322 88.0544 70.8006 88.0826C70.6507 88.0928 70.4994 88.0582 70.3506 88.0437C68.9778 87.9091 67.6219 87.6786 66.3332 87.162C65.8609 86.9746 65.4286 86.7128 64.955 86.448ZM84.275 86.4524C87.3965 86.0873 90.2618 85.5982 93.126 85.1338C94.3921 84.93 95.6537 84.6901 96.9089 84.4305C98.8661 84.032 100.82 83.6053 102.775 83.1867C104.45 82.8266 106.116 82.4147 107.779 81.9868C108.164 81.8867 108.184 81.8229 107.944 81.4968C107.171 80.4475 106.188 79.6933 104.928 79.3161C103.851 78.9903 102.743 78.8846 101.629 78.9268C100.848 78.9568 100.037 78.8067 99.2973 79.2036C99.2515 79.2296 99.1882 79.2128 99.1318 79.2197C97.3468 79.3888 95.5658 79.5574 93.7812 79.7306C92.2995 79.8749 90.8163 80.0398 89.3336 80.176C86.1424 80.4721 82.9452 80.7525 79.7466 80.9881C77.6573 81.1413 75.5714 81.3227 73.4861 81.4754C72.5469 81.5452 71.6037 81.5828 70.6635 81.6446C70.3068 81.6678 69.9301 81.6607 69.6003 81.7705C68.9524 81.9845 68.2891 82.1064 67.6213 82.2248C66.9495 82.3436 66.3037 82.541 65.6922 82.8527C65.3885 83.0083 65.1048 83.1941 64.8702 83.4475C64.4989 83.8523 64.4408 84.3129 64.6808 84.8065C64.8064 85.0649 64.9954 85.2746 65.2102 85.4608C65.6578 85.8473 66.1665 86.1324 66.7152 86.3432C67.8859 86.7965 69.1095 87.0147 70.3541 87.1363C73.0126 87.3956 75.6682 87.2631 78.3185 87.0536C80.3862 86.8908 82.4544 86.732 84.275 86.4524ZM87.5367 142.729C87.6125 142.614 87.5598 142.551 87.5198 142.49C87.1736 141.997 86.8158 141.51 86.4807 141.008C85.6531 139.785 84.7343 138.651 83.581 137.706C80.7426 135.372 77.6985 133.363 74.363 131.809C71.6127 130.532 68.7538 129.602 65.7401 129.178C62.8386 128.769 59.9523 128.819 57.089 129.492C56.9103 129.534 56.7197 129.545 56.5804 129.709C56.7097 129.865 56.9023 129.903 57.0711 129.98C60.571 131.542 64.0108 133.213 67.3495 135.093C69.6174 136.368 71.8692 137.678 73.8649 139.367C74.0475 139.524 74.2456 139.574 74.4804 139.59C75.7582 139.683 77.0293 139.854 78.2916 140.088C81.2472 140.638 84.1117 141.514 86.9311 142.554C87.1321 142.627 87.3304 142.746 87.5367 142.729ZM47.6761 62.6955C47.8364 64.2079 48.4324 65.5077 49.4676 66.5905C51.3879 68.5986 53.8028 69.6721 56.473 70.2609C56.6786 70.3052 56.8246 70.2629 56.9779 70.1134C58.1354 68.9874 58.9317 67.6808 59.0946 66.039C59.1774 65.2119 59.2028 64.3835 59.2368 63.5582C59.2771 62.6178 59.3254 61.6763 59.5769 60.7591C59.6953 60.3238 60.0922 59.9608 60.0416 59.5135C59.99 59.0582 59.7528 58.6214 59.5966 58.1789C59.5777 58.124 59.5632 58.0726 59.5483 58.0173C59.4725 57.7651 59.4694 57.4386 59.3033 57.2833C59.1097 57.1027 58.7682 57.2506 58.4947 57.2187C58.3997 57.2098 58.3087 57.2005 58.2136 57.1917C56.7041 57.0412 55.2592 56.6172 53.8184 56.1601C53.2998 55.9947 52.7802 55.8212 52.2494 55.69C51.8241 55.5867 51.4623 55.6677 51.1717 55.9974C50.1843 57.1108 49.1933 58.2287 48.4318 59.5187C47.8143 60.5502 47.5512 61.6731 47.6761 62.6955ZM96.2055 37.0207C88.7206 37.9518 83.4054 44.7701 84.3319 52.2515C85.2526 59.6518 92.0836 64.9695 99.5091 64.0539C106.963 63.1389 112.255 56.3316 111.346 48.8603C110.488 41.8037 104.099 36.1582 96.2055 37.0207ZM83.8104 46.5794C83.9539 46.517 83.9446 46.4078 83.9881 46.3289C84.2541 45.8307 84.1304 45.4536 83.7593 45.0251C80.1654 40.8888 74.3961 39.2774 69.1921 40.9878C62.0714 43.3287 58.1407 50.9787 60.5167 58.1195C62.1829 63.1288 65.7162 66.2675 70.8987 67.2561C76.0355 68.2379 80.3843 66.583 83.8526 62.6704C84.7214 61.6899 85.3809 60.5676 85.9128 59.371C86.0348 59.0987 86.061 58.8789 85.8489 58.6475C85.712 58.4967 85.6568 58.2788 85.4147 58.1368C84.2964 61.1536 82.369 63.5012 79.543 65.0476C76.6944 66.6091 73.6633 67.0122 70.5021 66.2832C65.197 65.0605 61.3078 60.5476 60.7982 55.0743C60.2985 49.6815 63.2943 44.5764 68.2397 42.3543C73.326 40.0823 79.9284 41.2895 83.8104 46.5794ZM45.4908 71.0555C45.6387 71.0293 45.7871 71.007 45.9341 70.9727C46.7193 70.7787 47.0266 70.251 46.7862 69.4878C46.6855 69.1651 46.5491 68.8509 46.3859 68.5521C46.0677 67.9537 45.7263 67.3663 45.3848 66.7789C44.4232 65.1275 43.7244 63.3541 43.018 61.5857C42.7468 60.9039 42.4554 60.2246 41.9842 59.6448C40.8899 58.312 39.4371 58.3588 38.4499 59.7744C37.6783 60.8819 37.3097 62.1444 37.0988 63.4611C37.0569 63.7195 37.1147 63.8922 37.4022 63.9714C37.7319 64.0619 38.0272 64.2382 38.3043 64.4331C38.8841 64.8321 39.3702 65.3324 39.8199 65.8698C41.0682 67.3595 42.3165 68.8493 43.3325 70.5104C43.4346 70.6777 43.5565 70.8057 43.755 70.8591C44.329 71.0096 44.8955 71.1323 45.4908 71.0555ZM99.2459 78.1477C100.702 78.031 102.016 77.9808 103.333 78.0935C105.926 78.3159 107.891 79.526 109.212 81.7709C109.526 82.3084 109.807 82.8625 110.048 83.4335C110.366 84.1994 110.676 84.9663 111.006 85.7267C111.178 86.1266 111.399 86.4999 111.707 86.8136C112.257 87.3714 112.782 87.2541 113.027 86.5174C113.2 85.9898 113.211 85.4451 113.193 84.8958C113.132 83.1956 112.91 81.515 112.564 79.8537C112.386 79.0012 112.145 78.1646 111.687 77.4199C110.89 76.12 109.983 75.5119 108.281 75.8629C107.951 75.9319 107.621 76.0129 107.293 76.098C106.23 76.3627 105.161 76.571 104.055 76.5468C103.469 76.5367 102.886 76.5426 102.305 76.5687C101.094 76.6227 100.105 77.1194 99.2459 78.1477ZM36.5299 71.3417C36.5822 71.1678 36.4466 71.0618 36.3821 70.9349C36.1229 70.4518 35.8949 69.9568 35.6976 69.4457C35.5773 69.1295 35.6776 68.8803 35.9273 68.7844C36.1539 68.6995 36.394 68.7927 36.5079 69.0893C36.9409 70.2252 37.5995 71.2355 38.243 72.2558C38.3893 72.483 38.5512 72.6716 38.756 72.8427C39.7009 73.6219 40.7029 74.3328 41.6863 75.0583C42.0949 75.3597 42.3981 75.3676 42.8064 75.0644C43.3008 74.6976 43.4918 74.1881 43.4794 73.585C43.4582 72.7093 43.1415 71.9227 42.6968 71.1927C41.5161 69.2535 40.0885 67.4997 38.557 65.8321C38.3168 65.5714 38.0282 65.3493 37.7335 65.1443C36.7997 64.4904 35.5567 64.5483 34.7793 65.5747C34.3608 66.1284 34.0885 66.7418 33.9157 67.4002C33.6117 68.5567 33.5975 69.7105 34.0224 70.8474C34.1677 71.2341 34.1696 71.2502 34.5943 71.1819C35.1474 71.0939 35.6844 71.1427 36.2146 71.3026C36.3126 71.3356 36.4165 71.4168 36.5299 71.3417ZM118.739 89.4962C118.673 89.492 118.655 89.4819 118.64 89.4879C118.519 89.5354 118.395 89.5873 118.275 89.6428C114.43 91.4118 110.392 92.5711 106.243 93.3478C103.195 93.9164 100.123 94.2509 97.0252 94.4089C94.0613 94.5587 91.1038 94.5279 88.1459 94.2929C88.0142 94.2845 87.8805 94.2273 87.7047 94.3264C87.8353 94.3921 87.9147 94.4396 87.997 94.4786C89.037 94.9316 90.1139 95.2862 91.2192 95.5392C96.927 96.8476 102.605 96.746 108.239 95.1384C111.91 94.0933 115.262 92.4009 118.231 89.9832C118.405 89.8393 118.599 89.7217 118.739 89.4962ZM57.4121 126.854C58.0795 127.267 58.7672 127.579 59.3811 128.023C59.5473 128.146 59.7233 128.149 59.917 128.129C62.8561 127.876 65.7567 128.11 68.6146 128.831C74.8236 130.397 80.1661 133.564 84.9319 137.761C85.2339 138.026 85.5293 138.17 86.0208 138.147C82.7147 133.926 78.8163 130.575 73.9094 128.499C68.589 126.248 63.0705 125.819 57.4121 126.854ZM87.2125 138.438C87.4722 138.39 87.5749 138.194 87.7126 138.05C90.9251 134.753 94.2596 131.584 97.7535 128.583C101.924 125.002 106.287 121.69 111.154 119.094C111.227 119.056 111.329 119.019 111.306 118.83C111.023 118.624 110.708 118.388 110.389 118.154C110.147 117.975 109.971 117.637 109.686 117.61C109.371 117.579 109.127 117.883 108.867 118.062C104.998 120.667 101.367 123.583 97.9035 126.702C94.7158 129.567 91.6815 132.585 88.8841 135.836C88.3043 136.507 87.7521 137.204 87.329 137.987C87.2627 138.114 87.1291 138.224 87.2125 138.438ZM120.452 47.5188C120.238 46.8055 120.198 46.7817 119.535 46.8709C118.732 46.9814 117.932 47.0914 117.129 47.2058C115.564 47.4339 113.999 47.666 112.437 47.8896C112.208 47.9216 112.104 48.0078 112.135 48.2574C112.165 48.507 112.248 48.648 112.527 48.5935C112.619 48.5741 112.712 48.5708 112.809 48.559C115.182 48.2567 117.552 47.9549 119.92 47.6491C120.101 47.6229 120.296 47.6481 120.452 47.5188ZM77.7159 129.426C77.6505 128.691 77.3287 128.13 76.9606 127.558C76.5946 127.839 76.282 128.123 75.9732 128.471C76.5819 128.805 77.1509 129.116 77.7159 129.426ZM65.2373 65.9257C65.2757 66.2397 65.3062 66.4892 65.3436 66.7951C65.5327 66.6045 65.6825 66.4596 65.7826 66.2758C65.6236 66.1113 65.4725 66.0113 65.2373 65.9257Z" fill="#070504"/>
<path d="M129.049 137.219C128.759 137.459 128.475 137.706 128.176 137.934C127.911 138.138 127.89 138.133 127.74 137.812C127.095 136.408 126.457 134.999 125.807 133.595C123.347 128.27 120.813 122.979 118.407 117.631C118.283 117.356 118.16 117.081 118.048 116.801C117.82 116.236 117.699 116.182 117.109 116.409C115.982 116.841 114.87 117.308 113.766 117.802C113.441 117.948 113.097 118.072 112.797 118.264C112.43 118.501 112.151 118.42 111.831 118.177C111.367 117.822 110.909 117.457 110.47 117.069C109.777 116.451 109.773 116.448 108.973 116.958C106.348 118.639 103.879 120.538 101.464 122.504C96.8353 126.281 92.516 130.383 88.5622 134.87C88.2146 135.268 87.8765 135.677 87.5554 136.092C87.2344 136.507 86.9364 136.944 86.6249 137.37C86.4605 137.362 86.4151 137.224 86.3419 137.127C84.8146 135.193 83.0907 133.455 81.1806 131.899C80.9126 131.679 80.7739 131.447 80.7316 131.1C80.4728 128.848 80.3925 126.587 80.4098 124.321C80.4587 117.534 81.1356 110.804 82.1837 104.103C82.2083 103.937 82.2449 103.769 82.2484 103.597C82.2561 103.359 82.1303 103.198 81.8925 103.158C81.6588 103.117 81.4825 103.212 81.3998 103.439C81.3416 103.597 81.3129 103.764 81.2717 103.928C81.2203 103.976 81.199 104.035 81.2199 104.106C81.2309 104.13 81.2289 104.146 81.2067 104.165C81.0042 104.28 80.9784 104.504 80.9075 104.692C80.681 105.312 80.4841 105.941 80.2319 106.552C79.3964 108.574 78.7443 110.659 78.1636 112.761C77.1983 116.261 76.3723 119.798 75.605 123.348C75.5658 123.528 75.5617 123.729 75.3662 123.835C73.8248 122.119 72.1749 120.519 70.3368 119.118C69.2692 118.305 68.1814 117.527 66.9926 116.892C66.7782 116.775 66.5501 116.68 66.3255 116.581C66.0924 116.479 65.8791 116.505 65.7266 116.728C65.5842 116.933 65.6419 117.138 65.8974 117.356C65.9525 117.407 66.0219 117.439 66.1107 117.498C65.8737 117.899 65.4913 118.145 65.1695 118.454C65.0596 118.558 64.9627 118.5 64.889 118.399C64.6621 118.079 64.5267 117.74 64.6042 117.339C64.6691 117 64.7987 116.69 64.962 116.388C65.1991 115.955 65.4813 115.557 65.7897 115.172C67.4678 113.091 68.8673 110.837 70.1594 108.506C71.4949 106.096 72.8218 103.682 74.4039 101.418C75.5967 99.7114 76.9083 98.109 78.4478 96.6994C79.719 95.535 81.0885 94.5056 82.6878 93.8199C83.0489 93.6655 83.3925 93.6358 83.7836 93.6942C84.5539 93.8125 85.2494 94.0543 85.9389 94.4481C88.4824 95.9062 91.273 96.611 94.1551 96.9941C97.7933 97.481 101.421 97.4502 105.035 96.8003C110.079 95.8897 114.686 93.9664 118.698 90.7307C119.669 89.9502 120.63 89.1547 121.349 88.115C121.449 87.9679 121.618 87.9105 121.762 87.8234C123.722 86.6729 125.554 85.3501 127.209 83.7874C127.451 83.5577 127.713 83.399 128.047 83.3541C128.93 83.4627 129.703 83.838 130.409 84.3605C131.899 85.4571 133.256 86.7047 134.572 88.0065C137.161 90.5743 139.534 93.3115 141.459 96.4303C142.819 98.6295 144.063 100.888 145.212 103.203C147.085 106.965 148.75 110.826 150.423 114.683C150.587 115.059 150.827 115.414 150.842 115.845C146.936 116.641 143.246 118.068 139.618 119.672C138.238 120.282 136.88 120.938 135.566 121.683C135.436 121.756 135.297 121.826 135.187 121.925C135.029 122.067 135.016 122.261 135.108 122.445C135.205 122.638 135.386 122.714 135.583 122.657C135.761 122.607 135.928 122.509 136.093 122.419C136.657 122.121 137.201 121.789 137.858 121.521C138.052 122.433 138.239 123.297 138.422 124.157C138.461 124.344 138.403 124.437 138.194 124.438C137.214 124.439 136.23 124.445 135.272 124.19C134.959 124.106 134.66 123.999 134.369 123.859C133.717 123.535 133.304 123.029 133.198 122.295C133.173 122.126 133.14 121.959 133.136 121.788C133.045 119.237 132.382 116.794 131.681 114.363C130.236 109.359 128.567 104.428 127.008 99.4586C126.525 97.9122 126.026 96.3676 125.656 94.7828C125.63 94.6715 125.597 94.5653 125.563 94.4551C125.487 94.2315 125.326 94.1164 125.087 94.1374C124.861 94.1569 124.721 94.3496 124.722 94.6233C124.723 94.7334 124.753 94.8482 124.767 94.9609C124.711 94.9678 124.655 94.9787 124.598 94.9856C124.028 95.0675 123.968 95.1729 124.137 95.7242C124.24 96.067 124.332 96.4113 124.431 96.7546C124.801 98.0819 124.9 99.4589 125.135 100.811C125.565 103.259 125.802 105.738 126.14 108.201C126.742 112.589 127.367 116.973 127.691 121.395C127.793 122.763 128.049 124.121 128.083 125.502C128.107 126.438 128.258 127.372 128.32 128.312C128.433 130.039 128.57 131.766 128.72 133.488C128.852 134.743 128.894 135.984 129.049 137.219Z" fill="#CF9356"/>
<path d="M46.3837 142.08C46.1377 140.836 46.0934 139.571 46.0697 138.307C45.9555 132.659 46.4618 127.041 46.9682 121.423C47.5975 114.471 48.5913 107.559 49.5856 100.652C49.942 98.1861 50.2491 95.7178 50.5099 93.2388C50.5424 92.9366 50.5426 92.671 50.9721 92.7084C51.1742 92.7246 51.3225 92.5676 51.3412 92.3529C51.3615 92.1175 51.2553 91.9507 51.0257 91.8767C50.9196 91.8447 50.806 91.8177 50.6974 91.7983C49.1575 91.533 47.7211 90.9773 46.3287 90.2814C43.6048 88.9188 40.9794 87.3931 38.6081 85.4728C36.7808 83.9925 35.254 82.2631 34.2978 80.0881C33.5355 78.3633 33.039 76.5733 33.0835 74.6641C33.0952 74.2255 33.1573 73.7972 33.3033 73.3871C33.6622 72.3792 34.4582 71.906 35.5195 72.0664C35.9358 72.1299 36.3186 72.2874 36.6823 72.4881C36.9801 72.6519 37.2748 72.8242 37.5414 73.0327C38.8473 74.0578 40.1674 75.0649 41.5051 76.0494C41.9001 76.3402 42.2603 76.6802 42.5686 77.0633C42.8092 77.3607 43.004 77.6842 43.0829 78.0626C43.2314 78.7757 42.8738 79.2933 42.1522 79.406C41.6153 79.4921 41.1016 79.3669 40.5961 79.2081C39.7116 78.924 38.8914 78.4972 38.0879 78.0398C37.8729 77.919 37.6681 77.7806 37.4506 77.6724C37.1457 77.5176 36.8921 77.5813 36.7657 77.8174C36.6529 78.0313 36.7177 78.2604 37.0004 78.4342C38.1929 79.1668 39.4082 79.8516 40.782 80.1944C41.2791 80.3175 41.7809 80.3788 42.2946 80.3037C42.5995 80.2583 42.9186 80.1948 43.1299 79.9851C43.4835 79.6355 43.8143 79.7013 44.2006 79.887C44.6737 80.1151 45.1676 80.3121 45.6509 80.5227C47.6503 81.4059 49.3691 82.6666 50.8369 84.2807C50.9878 84.4461 51.1473 84.6145 51.3235 84.7523C51.5046 84.8976 51.7129 84.8967 51.8879 84.7242C52.0553 84.5566 52.08 84.3575 51.9417 84.162C51.8571 84.0375 51.7422 83.9331 51.6429 83.8227C49.7065 81.6163 47.2958 80.1093 44.5745 79.0692C44.4504 79.023 44.3293 78.9684 44.2052 78.9223C44.0681 78.8696 43.9803 78.7863 44.0018 78.6285C44.11 77.7083 43.6789 76.9889 43.1194 76.3219C43.0618 76.2513 42.9845 76.1872 42.9838 76.0811C44.4939 74.7322 44.5224 74.6307 44.1179 71.9226C44.3007 71.8471 44.483 71.9351 44.6645 71.9497C45.3122 72.0013 45.9526 71.9598 46.5544 71.7024C47.5449 71.2832 47.9689 70.3734 47.6836 69.3421C47.5456 68.8482 47.3528 68.3734 47.0833 67.9406C45.7569 65.7782 44.7004 63.4847 43.7945 61.1197C43.4055 60.1092 42.9283 59.1461 42.0505 58.4486C41.8513 58.2891 41.9247 58.1208 41.9845 57.9419C42.2401 57.1917 42.4906 56.4339 42.8803 55.7449C43.9357 53.8837 45.1607 52.1408 46.6106 50.5664C46.762 50.4008 46.9314 50.2494 47.1003 50.0939C48.3887 48.9029 49.8972 48.5102 51.6039 48.8695C52.1196 48.9781 52.6303 49.1118 53.1333 49.2832C55.0312 49.9377 56.8321 50.8003 58.6207 51.697C58.9517 51.8649 59.0769 52.0538 59.0306 52.4435C58.8907 53.5718 58.9142 54.7006 59.0766 55.8287C59.0988 55.9771 59.1371 56.1236 59.0723 56.2949C58.6068 56.3641 58.1433 56.2818 57.6813 56.2116C56.445 56.0236 55.2498 55.6713 54.0669 55.2848C53.5096 55.1037 52.9563 54.9221 52.3812 54.7963C51.6297 54.6307 50.9995 54.8221 50.4849 55.3916C49.5096 56.4708 48.5575 57.5717 47.79 58.8135C46.3097 61.2086 46.4484 63.6142 47.8729 65.9771C48.657 67.2785 49.7921 68.2428 51.0674 69.0511C52.7947 70.1473 54.687 70.823 56.6812 71.2289C56.9326 71.2798 57.1149 71.2004 57.2949 71.0354C58.9186 69.546 59.9561 67.7728 60.0398 65.5157C60.0796 64.4037 60.14 63.2933 60.2165 62.1809C60.2475 61.6992 60.3187 61.2125 60.5216 60.7669C60.7167 60.7921 60.747 60.9395 60.8096 61.0504C61.6134 62.48 62.6401 63.7272 63.8709 64.8065C64.1178 65.0214 64.2434 65.2471 64.2707 65.5706C64.334 66.3227 64.4658 67.0665 64.44 67.8254C64.4287 68.1005 64.3757 68.3358 64.2539 68.5754C63.1333 70.7386 62.5535 73.0482 62.5076 75.4805C62.5 75.8859 62.3977 76.119 62.0109 76.297C61.3809 76.5905 60.9052 77.0776 60.5766 77.6978C59.9567 78.8766 60.28 80.1853 61.378 80.9458C61.9804 81.3624 62.6648 81.581 63.3763 81.6861C63.9173 81.7671 64.4639 81.7942 65.009 81.842C65.1121 81.8498 65.2157 81.8617 65.3278 81.8766C65.2694 82.1002 65.1003 82.1209 64.9829 82.1965C64.6801 82.3929 64.3958 82.6074 64.1596 82.8813C63.5516 83.5889 63.426 84.4335 63.8926 85.2426C64.1149 85.624 64.132 85.965 64.0258 86.3661C63.7813 87.307 63.3423 88.1614 62.9039 89.0198C62.7588 89.303 62.5965 89.5802 62.4388 89.861C62.365 89.9925 62.2711 90.1266 62.2983 90.2826C62.5011 91.3731 62.3235 92.4611 62.2768 93.5494C62.0226 99.259 61.6699 104.964 61.2222 110.661C60.8864 114.967 60.4928 119.268 59.8925 123.549C59.8663 123.736 59.8321 123.924 59.8306 124.112C59.8263 124.378 59.9873 124.559 60.2196 124.588C60.4479 124.617 60.6967 124.48 60.6884 124.212C60.6696 123.556 61.1226 123.252 61.5416 122.902C63.2945 121.434 64.9636 119.882 66.6358 118.321C67.0538 117.931 67.0574 117.926 67.5369 118.24C67.7412 118.374 67.9698 118.473 68.1353 118.657C68.1441 118.729 68.1494 118.806 68.1704 118.877C68.4831 119.999 68.9047 121.075 69.4012 122.13C69.7108 122.79 70.0203 123.451 70.2487 124.15C70.4388 124.736 70.4493 125.29 70.0325 125.791C69.9361 125.904 69.8492 126.029 69.8528 126.192C68.7568 126.016 67.669 125.773 66.5663 125.642C63.3584 125.266 60.1677 125.366 56.9942 125.974C56.6988 126.031 56.4054 126.104 56.1119 126.176C55.7188 126.269 55.5413 126.454 55.5294 126.758C55.5169 127.091 55.7434 127.206 56.0082 127.3C56.6454 127.533 57.2607 127.821 57.8634 128.14C57.9287 128.173 58.0051 128.196 58.0364 128.319C57.8198 128.451 57.5602 128.467 57.3141 128.525C56.6155 128.693 55.9209 128.859 55.2223 129.026C54.9561 129.087 54.7877 129.247 54.7346 129.515C54.6755 129.8 54.7897 129.966 55.1785 130.139C56.1074 130.552 57.0469 130.952 57.9727 131.374C59.5134 132.081 61.0617 132.782 62.5533 133.588C62.4955 133.751 62.3855 133.887 62.2649 134.003C61.5387 134.713 60.827 135.442 60.0772 136.126C58.3985 137.667 56.7294 139.219 54.9609 140.66C53.5827 141.785 52.0649 142.636 50.3699 143.142C49.2388 143.48 48.1329 143.423 47.1796 142.575C46.9477 142.383 46.7286 142.128 46.3837 142.08Z" fill="#6E4F93"/>
<path d="M78.962 91.4552C76.8171 90.7859 74.8528 89.7554 73.0411 88.4367C72.9965 88.4054 72.9619 88.3565 72.9278 88.3116C72.9183 88.3005 72.9274 88.2749 72.9256 88.1934C73.3819 88.1826 73.8406 88.1592 74.2984 88.1605C75.6217 88.1581 76.9387 88.0707 78.2543 87.9712C82.6226 87.6457 86.9644 87.0702 91.286 86.3623C94.5623 85.8271 97.8239 85.2038 101.072 84.5006C103.487 83.9766 105.897 83.433 108.28 82.7821C108.684 82.6716 108.688 82.6711 108.882 83.0599C109.242 83.7676 109.517 84.5102 109.811 85.2464C110.023 85.7721 110.25 86.2918 110.553 86.7695C110.796 87.1564 111.084 87.5012 111.467 87.7608C112.237 88.2835 113.127 88.1054 113.627 87.3171C113.953 86.8075 114.042 86.2328 114.075 85.6404C114.117 84.8468 114.041 84.0554 113.981 83.2661C113.951 82.8531 113.889 82.4399 113.843 82.0289C113.782 81.4971 113.781 81.489 114.31 81.3386C114.91 81.1672 115.499 80.9727 116.079 80.7384C117.535 80.1478 118.851 79.3497 119.777 78.0395C120.634 76.8317 120.956 75.5178 120.433 74.0783C120.088 73.1278 119.403 72.468 118.539 71.9853C117.394 71.3448 116.129 71.1236 114.85 70.9857C112.859 70.7675 110.861 70.7665 108.857 70.7867C106.441 70.8082 104.028 70.9152 101.62 71.0338C100.243 71.104 98.8689 71.1902 97.498 71.3046C91.8513 71.7659 86.2346 72.4727 80.6331 73.3043C78.338 73.6461 76.035 73.9561 73.7415 74.3099C71.0554 74.728 68.3585 75.0576 65.6636 75.4033C65.0643 75.4806 64.4651 75.5579 63.8772 75.6951C63.4519 75.792 63.4103 75.7522 63.4276 75.3252C63.4682 74.2866 63.5917 73.2584 63.844 72.2471C64.2559 70.6035 64.8969 69.0626 65.8529 67.6589C65.9151 67.5655 65.9812 67.4717 66.0478 67.3818C66.5547 66.7153 66.5627 66.7143 67.3333 67.0695C73.3896 69.8591 80.4781 68.2248 84.6967 63.0643C85.3538 62.2568 85.913 61.3837 86.3838 60.456C86.4759 60.2731 86.5278 60.0625 86.7077 59.9302C86.9273 59.9892 87.0254 60.1896 87.1618 60.3364C90.0861 63.4393 93.685 65.0421 97.9448 65.0322C105.726 65.0209 112.121 58.7488 112.335 50.9728C112.346 50.5956 112.341 50.2163 112.324 49.8426C112.311 49.6031 112.399 49.4902 112.634 49.4778C112.764 49.4701 112.896 49.4458 113.029 49.4296C115.278 49.1425 117.522 48.856 119.771 48.5689C119.976 48.5438 120.183 48.5349 120.39 48.5178C120.531 48.909 120.903 49.1087 121.152 49.4052C122.25 50.7008 123.394 51.9459 124.602 53.1342C125.54 54.0572 126.456 55.0033 127.412 55.9078C128.068 56.5263 128.724 57.1488 129.391 57.7577C129.782 58.1144 130.178 58.4786 130.017 59.1029C130.001 59.1702 130.031 59.2523 130.04 59.3247C130.126 60.0618 130.418 60.7412 130.673 61.4289C131.091 62.5422 131.371 63.6928 131.614 64.8478C131.819 65.8236 131.815 66.825 131.786 67.8254C131.728 69.8588 131.34 71.8304 130.696 73.7515C130.004 75.8093 128.795 77.587 127.543 79.3374C127.256 79.736 126.884 80.0634 126.583 80.4474C125.954 81.2514 125.243 81.9798 124.488 82.6603C122.097 84.8195 119.437 86.5907 116.532 87.9875C114.884 88.7812 113.19 89.4621 111.436 89.9869C110.124 90.3802 108.812 90.7774 107.467 91.0725C107.026 91.1714 106.576 91.2305 106.145 91.3525C105.348 91.5767 104.528 91.7258 103.716 91.8332C101.662 92.1087 99.6112 92.4084 97.5357 92.5068C96.8616 92.5402 96.1825 92.566 95.5079 92.5953C94.4027 92.6446 93.2944 92.5676 92.1852 92.5846C90.9046 92.6022 89.6283 92.5212 88.3565 92.4111C85.3177 92.1492 82.2872 91.821 79.268 91.3852C79.1473 91.3672 79.0418 91.3393 78.962 91.4552Z" fill="#6E4F93"/>
<path d="M84.8439 154.458C86.9922 154.988 89.145 155.522 91.2933 156.052C91.4199 156.086 91.5476 156.127 91.6768 156.148C91.9719 156.19 92.1926 156.056 92.24 155.81C92.2891 155.542 92.1497 155.371 91.915 155.29C91.6332 155.189 91.3426 155.119 91.0542 155.031C91.0384 154.735 90.8112 154.681 90.5875 154.623C90.2583 154.536 89.924 154.475 89.6039 154.363C87.7728 153.721 85.9513 153.057 84.1532 152.316C83.0519 151.863 81.9992 151.305 81.1086 150.503C80.2687 149.747 79.4359 148.983 78.5389 148.296C78.4305 148.211 78.2597 148.151 78.3157 147.907C78.6618 147.864 79.0018 148.072 79.3516 147.993L79.3646 147.999C79.4164 148.021 79.4721 148.043 79.5239 148.065C79.5782 148.075 79.6395 148.076 79.6873 148.099C81.6864 148.912 83.777 149.372 85.8915 149.759C88.2317 150.188 90.514 150.812 92.6608 151.865C92.7437 151.908 92.8301 151.946 92.9231 151.972C93.1598 152.037 93.3311 151.934 93.4328 151.73C93.5279 151.538 93.4841 151.348 93.314 151.225C93.1307 151.097 92.9233 151.004 92.7259 150.893C92.703 150.638 92.5464 150.494 92.3224 150.399C92.046 150.277 91.7697 150.156 91.5035 150.017C89.5939 149.033 87.6428 148.144 85.6178 147.419C84.4987 147.02 83.3731 146.635 82.2642 146.219C80.6885 145.627 79.0624 145.225 77.4227 144.878C75.0826 144.384 72.7309 143.961 70.4336 143.281C69.4631 142.995 68.4806 142.711 67.4654 142.594C67.4461 142.102 67.7387 141.789 68.0941 141.52C68.7407 141.029 69.4969 140.797 70.2844 140.656C72.239 140.303 74.1947 140.428 76.1461 140.684C80.0614 141.198 83.808 142.337 87.4844 143.739C89.97 144.689 92.3949 145.778 94.798 146.922C94.9673 147.003 95.1784 147.059 95.2852 147.197C95.5639 147.539 95.8954 147.511 96.2573 147.43C98.5317 146.919 100.714 146.158 102.824 145.173C104.915 144.199 106.66 142.793 108.089 140.984C108.956 139.885 109.729 138.724 110.498 137.56C111.576 135.921 112.641 134.271 113.894 132.757C114.57 131.939 115.289 131.169 116.157 130.548C116.826 130.07 117.546 129.713 118.384 129.647C118.768 129.617 119.137 129.661 119.494 129.806C120.281 130.126 120.672 130.826 120.538 131.664C120.419 132.397 120.022 132.993 119.563 133.552C119.027 134.21 118.413 134.799 117.793 135.382C116.361 136.729 115.192 138.261 114.474 140.114C114.229 140.748 114.031 141.397 113.892 142.064C113.868 142.173 113.841 142.287 113.842 142.397C113.848 142.613 113.975 142.748 114.177 142.797C114.383 142.845 114.545 142.764 114.654 142.584C114.763 142.407 114.722 142.175 114.862 142.015C114.951 142.012 115.007 142.067 115.055 142.126C116.16 143.409 117.078 144.804 117.657 146.404C117.916 147.116 118.048 147.86 118.143 148.608C118.166 148.797 118.181 148.983 118.224 149.166C118.298 149.475 118.479 149.617 118.733 149.586C118.99 149.554 119.136 149.377 119.096 149.051C119.027 148.451 118.95 147.852 118.825 147.262C118.751 146.932 118.847 146.745 119.096 146.543C123.655 142.762 128.208 138.97 132.912 135.368C134.753 133.959 136.614 132.567 138.505 131.225C139.61 130.44 140.724 129.662 141.878 128.945C141.988 128.875 142.107 128.807 142.202 128.718C142.385 128.548 142.418 128.279 142.274 128.109C142.126 127.931 141.922 127.87 141.716 127.989C141.373 128.19 141.049 128.413 140.711 128.622C140.54 128.729 140.386 128.87 140.198 128.906C140.074 128.827 140.075 128.729 140.063 128.636C139.836 126.339 139.333 124.097 138.834 121.85C138.823 121.794 138.828 121.736 138.825 121.679C140.198 121.413 141.602 121.47 142.984 121.277C144.141 121.115 145.308 121.005 146.465 120.843C147.216 120.739 147.968 120.807 148.718 120.826C149.074 120.835 149.295 121.004 149.439 121.346C150.017 122.701 150.399 124.117 150.653 125.565C150.8 126.397 150.862 127.239 150.884 128.094C150.908 129.055 150.939 130.012 150.847 130.966C150.744 132.058 150.511 133.128 149.908 134.076C149.215 135.161 148.381 136.125 147.424 136.986C145.679 138.551 143.802 139.937 141.866 141.248C138.727 143.372 135.558 145.458 132.343 147.461C130.824 148.406 129.306 149.36 127.783 150.298C125.841 151.491 123.885 152.666 121.886 153.764C120.474 154.541 118.974 155.104 117.399 155.419C116.227 155.656 115.109 156.005 114.015 156.482C112.468 157.157 111.091 158.126 109.676 159.018C108.174 159.966 106.623 160.813 104.993 161.515C103.433 162.188 101.817 162.671 100.127 162.918C99.3288 163.036 98.5269 163.093 97.7304 163.195C97.5613 163.216 97.3927 163.24 97.2243 163.232C96.4186 163.192 95.6077 163.242 94.8052 163.128C94.668 163.108 94.5401 163.131 94.4533 163.256C92.1532 162.888 89.8192 161.273 89.4862 159.819C89.6023 159.698 89.7348 159.78 89.8525 159.807C91.0207 160.04 92.2061 160.112 93.3924 160.191C93.4869 160.196 93.582 160.205 93.675 160.198C93.9306 160.183 94.1165 160.066 94.1364 159.794C94.1567 159.526 94.0058 159.361 93.7443 159.327C93.4286 159.284 93.1082 159.27 92.7894 159.235C92.4912 159.202 92.1839 159.228 91.8939 159.128C91.8602 158.953 91.715 158.901 91.5733 158.845C90.984 158.602 90.3936 158.352 89.8043 158.109C89.1075 157.822 88.4212 157.522 87.8002 157.088C86.8304 156.405 85.9811 155.574 85.0536 154.837C84.9468 154.732 84.8596 154.62 84.8439 154.458Z" fill="#6E4F93"/>
<path d="M84.5459 44.5842C83.1926 43.0378 81.6127 41.7766 79.7582 40.8756C77.9036 39.9747 75.9357 39.5166 73.8486 39.4203C73.9184 39.1218 74.1389 39.0213 74.2982 38.8874C76.3213 37.2226 78.5422 35.8727 80.9017 34.755C83.4698 33.5383 86.1476 32.6514 88.9182 32.0228C91.5021 31.4374 94.1181 31.0809 96.763 30.9947C102.619 30.8061 108.255 31.8331 113.642 34.1611C114.371 34.4765 115.087 34.818 115.739 35.2734C115.918 35.3987 116.103 35.4741 116.318 35.3621C116.46 35.2875 116.605 35.3065 116.759 35.3245C120.441 35.7692 124.056 36.5 127.539 37.8228C131.223 39.2232 134.614 41.1293 137.594 43.7188C139.372 45.2663 140.925 47.0049 141.975 49.1439C142.616 50.4504 142.988 51.8225 142.883 53.298C142.718 55.5896 141.113 57.3667 138.847 57.7825C137.281 58.0679 135.769 57.8319 134.278 57.3318C132.326 56.6756 130.567 55.6487 128.899 54.4717C126.686 52.9119 124.646 51.1554 122.86 49.1104C121.506 47.56 120.449 45.8304 119.762 43.884C119.724 43.7782 119.69 43.668 119.641 43.5678C119.501 43.2907 119.281 43.191 119.047 43.289C118.818 43.3864 118.722 43.6024 118.821 43.909C118.922 44.2317 119.058 44.5459 119.17 44.8631C119.299 45.211 119.513 45.528 119.578 45.8918C119.434 46.0197 119.277 46.0062 119.132 46.0239C116.949 46.3398 114.76 46.6522 112.576 46.968C112.5 46.9774 112.428 46.9903 112.352 46.9996C111.932 47.0468 111.928 47.0472 111.805 46.6415C111.399 45.2572 110.857 43.9304 110.049 42.7341C107.045 38.2764 102.84 35.9265 97.4783 36.0792C91.8359 36.2418 87.6406 38.985 84.9304 43.953C84.8202 44.1544 84.7662 44.3816 84.5459 44.5842Z" fill="#6E4F93"/>
<path d="M118.082 128.757C117.061 128.89 116.187 129.36 115.384 129.981C114.03 131.037 112.966 132.356 111.971 133.74C110.508 135.778 109.224 137.941 107.73 139.958C106.156 142.086 104.15 143.659 101.705 144.681C100.05 145.374 98.3545 145.944 96.623 146.417C96.2792 146.513 95.9734 146.485 95.6429 146.321C94.5781 145.797 93.4955 145.296 92.414 144.803C92.1633 144.691 91.9731 144.539 91.8112 144.317C90.6432 142.716 89.464 141.123 88.293 139.53C87.9793 139.103 87.985 139.049 88.3517 138.673C92.0736 134.865 95.9461 131.217 100.045 127.82C102.531 125.759 105.108 123.818 107.828 122.072C110.631 120.271 113.574 118.743 116.673 117.531C116.743 117.502 116.814 117.477 116.884 117.452C117.26 117.321 117.273 117.319 117.436 117.683C117.787 118.457 118.131 119.232 118.487 120.002C120.747 124.861 123.016 129.715 125.272 134.574C125.827 135.773 126.367 136.977 126.91 138.182C127.156 138.723 127.157 138.735 126.722 139.083C124.103 141.188 121.532 143.345 118.951 145.499C118.892 145.547 118.836 145.594 118.772 145.639C118.472 145.851 118.447 145.854 118.29 145.502C117.673 144.135 116.882 142.875 115.917 141.731C115.769 141.557 115.636 141.369 115.463 141.227C115.177 140.988 115.191 140.737 115.316 140.424C115.899 138.943 116.785 137.666 117.897 136.538C118.769 135.651 119.725 134.844 120.476 133.841C120.912 133.26 121.256 132.634 121.402 131.918C121.714 130.364 120.749 129.019 119.154 128.769C118.799 128.706 118.438 128.693 118.082 128.757Z" fill="#3F713F"/>
<path d="M61.7234 55.6295C60.986 49.6285 64.6478 44.1234 70.2145 42.5729C75.228 41.1759 80.5084 43.1656 83.3252 47.495C83.5115 47.7827 83.5727 48.0489 83.5204 48.3903C83.1007 51.2074 83.4811 53.9185 84.6479 56.513C84.7998 56.8539 84.8192 57.1457 84.697 57.4834C83.2049 61.7878 80.2634 64.529 75.8054 65.4905C69.6437 66.8195 63.6053 63.0391 61.9985 56.9441C61.8621 56.4297 61.7815 55.9043 61.7234 55.6295Z" fill="#A2EAF0"/>
<path d="M94.4681 163.251C94.555 163.126 94.6788 163.102 94.8201 163.122C95.6225 163.236 96.4335 163.186 97.2391 163.227C97.4076 163.235 97.5762 163.21 97.7452 163.189C98.5417 163.088 99.3436 163.031 100.142 162.913C101.832 162.665 103.448 162.186 105.008 161.509C106.638 160.808 108.189 159.96 109.691 159.013C111.106 158.121 112.483 157.152 114.03 156.477C115.12 156 116.241 155.647 117.414 155.414C118.989 155.099 120.489 154.535 121.901 153.758C123.9 152.66 125.852 151.486 127.798 150.292C129.321 149.354 130.839 148.405 132.357 147.455C135.577 145.448 138.741 143.366 141.881 141.242C143.816 139.931 145.693 138.542 147.439 136.98C148.4 136.119 149.234 135.155 149.923 134.07C150.526 133.122 150.759 132.052 150.862 130.961C150.954 130.01 150.923 129.05 150.899 128.088C150.877 127.237 150.814 126.391 150.668 125.559C150.414 124.116 150.032 122.7 149.454 121.341C149.31 121.003 149.089 120.829 148.732 120.82C147.983 120.801 147.231 120.734 146.48 120.838C145.323 121 144.155 121.11 142.999 121.271C141.617 121.465 140.213 121.408 138.84 121.673C138.692 121.099 138.692 121.095 139.19 120.863C142.227 119.466 145.328 118.237 148.541 117.318C149.485 117.047 150.436 116.808 151.41 116.685C151.691 116.651 151.828 116.696 151.942 117C152.796 119.306 153.416 121.673 153.938 124.069C154.379 126.078 154.757 128.095 155.007 130.14C155.263 132.208 154.758 134.055 153.573 135.757C152.23 137.673 150.573 139.289 148.833 140.83C146.654 142.759 144.335 144.509 141.952 146.173C137.879 149.015 133.684 151.656 129.273 153.944C125.915 155.682 122.423 157.093 118.815 158.225C118.493 158.325 118.171 158.434 117.845 158.539C117.679 158.592 117.59 158.562 117.502 158.377C117.296 157.924 117.086 157.88 116.681 158.208C115.739 158.964 114.817 159.743 113.876 160.499C112.534 161.582 111.079 162.479 109.529 163.24C106.913 164.532 104.169 164.974 101.28 164.571C99.0943 164.266 96.9296 163.836 94.7726 163.369C94.6716 163.344 94.5524 163.339 94.4681 163.251Z" fill="#5A3A83"/>
<path d="M112.449 76.9042C113.352 76.6999 114.179 76.5131 115.001 76.3227C115.462 76.2174 115.919 76.1125 116.374 75.9875C116.8 75.8659 116.977 75.6441 116.896 75.3843C116.814 75.1085 116.571 75.0278 116.142 75.1293C114.911 75.4186 113.685 75.7195 112.446 75.9732C112.043 76.055 111.74 76.0104 111.422 75.7183C110.65 75.0201 109.727 74.7857 108.692 74.904C108.011 74.9832 107.352 75.1413 106.699 75.315C105.556 75.6222 104.394 75.6784 103.22 75.6585C102.446 75.6428 101.665 75.6729 100.923 75.9188C99.7679 76.2969 98.8575 77.0046 98.2475 78.0637C98.109 78.3012 97.9558 78.418 97.6811 78.4434C95.0685 78.6932 92.4618 78.9586 89.8496 79.2125C88.5169 79.3386 87.183 79.4893 85.8469 79.5873C83.345 79.7745 80.8465 80.0227 78.3452 80.2139C75.4112 80.4418 72.4752 80.6535 69.5393 80.8325C67.848 80.933 66.1506 81.0505 64.4509 80.9151C63.9063 80.8713 63.3623 80.7989 62.8336 80.6511C62.5586 80.5744 62.2964 80.4675 62.0538 80.3215C61.1193 79.7616 60.9154 78.7284 61.5592 77.845C62.0353 77.1944 62.7172 76.8905 63.4631 76.7095C64.05 76.5642 64.6458 76.4587 65.2445 76.3774C67.2099 76.1127 69.1807 75.8923 71.1406 75.616C74.6145 75.1261 78.0905 74.6196 81.56 74.0935C85.7954 73.4493 90.051 72.9374 94.3114 72.4984C97.2366 72.1982 100.179 72.0021 103.116 71.8718C105.997 71.7445 108.884 71.6327 111.77 71.709C113.503 71.7546 115.24 71.8242 116.929 72.3042C117.385 72.4322 117.82 72.616 118.229 72.852C119.543 73.6106 120.073 75.0043 119.599 76.443C119.266 77.4561 118.593 78.2002 117.753 78.8135C116.609 79.6559 115.288 80.1114 113.95 80.5242C113.729 80.592 113.59 80.5519 113.55 80.2953C113.363 79.1334 113.039 78.0169 112.449 76.9042Z" fill="#5A3A83"/>
<path d="M64.9541 86.4501C65.4277 86.715 65.86 86.9767 66.3328 87.1682C67.622 87.6888 68.9774 87.9153 70.3502 88.0499C70.499 88.0644 70.6503 88.099 70.8002 88.0889C71.1323 88.0646 71.3592 88.2166 71.5975 88.4285C72.6958 89.426 73.9461 90.1964 75.2555 90.8821C77.0531 91.8186 78.9403 92.5194 80.8965 93.0484C81.1247 93.1103 81.3493 93.1769 81.5654 93.2403C81.5701 93.3787 81.487 93.4011 81.4261 93.4371C78.928 94.825 76.9187 96.77 75.1376 98.9772C73.5196 100.981 72.1636 103.156 70.8919 105.387C69.9402 107.06 69.0015 108.739 68.0368 110.405C67.261 111.746 66.3652 113.008 65.4072 114.228C65.0362 114.702 64.6657 115.181 64.3489 115.697C64.1205 116.068 63.9309 116.455 63.815 116.878C63.6068 117.614 63.7105 118.296 64.17 118.914C64.2823 119.063 64.4167 119.194 64.1999 119.392C63.1809 120.313 62.1673 121.246 61.0976 122.12C60.9612 121.941 61.0557 121.778 61.0733 121.621C61.6982 116.605 62.0833 111.566 62.4397 106.526C62.7464 102.183 62.9953 97.8342 63.1944 93.4795C63.2383 92.5018 63.2778 91.5206 63.3091 90.5404C63.3162 90.3311 63.3409 90.132 63.4446 89.9437C64.0532 88.8398 64.6186 87.7167 64.9541 86.4501Z" fill="#FFEE00"/>
<path d="M84.2751 86.4514C82.4541 86.7271 80.3824 86.8904 78.3147 87.0532C75.6644 87.2627 73.0088 87.3952 70.3502 87.1359C69.1057 87.0143 67.8861 86.7956 66.7114 86.3427C66.1622 86.128 65.6535 85.8429 65.2063 85.4604C64.9916 85.2742 64.803 85.0685 64.677 84.8061C64.4374 84.3165 64.495 83.8519 64.8663 83.447C65.0969 83.1942 65.3806 83.0083 65.6883 82.8522C66.3003 82.5446 66.9462 82.3472 67.6175 82.2243C68.2853 82.1059 68.9485 81.984 69.5965 81.77C69.9302 81.6598 70.3029 81.6674 70.6596 81.6442C71.5999 81.5824 72.543 81.5448 73.4823 81.4749C75.5711 81.3177 77.6575 81.1404 79.7427 80.9877C82.9413 80.752 86.1345 80.4721 89.3298 80.1756C90.8124 80.0394 92.2957 79.8744 93.7774 79.7301C95.5619 79.557 97.3429 79.3884 99.128 79.2193C99.1843 79.2124 99.2517 79.2287 99.2935 79.2031C100.033 78.8063 100.844 78.9564 101.625 78.9264C102.739 78.8842 103.848 78.9938 104.925 79.3157C106.184 79.6929 107.171 80.4506 107.94 81.4964C108.18 81.8225 108.16 81.8863 107.776 81.9863C106.117 82.4178 104.451 82.8297 102.771 83.1862C100.816 83.6049 98.8622 84.0315 96.905 84.43C95.6494 84.6856 94.3878 84.9256 93.1222 85.1334C90.262 85.5973 87.3971 86.0904 84.2751 86.4514Z" fill="#5A3A83"/>
<path d="M129.047 137.221C128.892 135.986 128.851 134.745 128.745 133.508C128.595 131.786 128.458 130.058 128.345 128.332C128.283 127.392 128.128 126.459 128.108 125.522C128.074 124.141 127.814 122.788 127.716 121.415C127.392 116.993 126.766 112.604 126.165 108.221C125.827 105.758 125.59 103.278 125.16 100.831C124.921 99.4791 124.826 98.1017 124.456 96.7743C124.361 96.4305 124.27 96.0862 124.162 95.7439C123.992 95.1887 124.053 95.0872 124.624 95.0053C124.68 94.9984 124.736 94.9875 124.792 94.9806C126.259 100.464 128.175 105.81 129.838 111.232C130.625 113.792 131.403 116.352 131.929 118.98C132.087 119.777 132.178 120.583 132.223 121.391C132.236 121.598 132.249 121.804 132.266 122.011C132.389 123.548 133.224 124.5 134.673 124.956C135.638 125.259 136.628 125.375 137.63 125.347C138.647 125.316 138.638 125.309 138.848 126.293C139.015 127.089 139.105 127.895 139.191 128.698C139.205 128.847 139.187 129.001 139.201 129.15C139.24 129.533 139.06 129.768 138.748 129.982C136.623 131.451 134.553 132.999 132.502 134.569C131.338 135.442 130.193 136.334 129.047 137.221Z" fill="#A76A2B"/>
<path d="M87.5354 142.729C87.3296 142.75 87.1313 142.632 86.9298 142.554C84.1104 141.514 81.2499 140.638 78.2904 140.088C77.028 139.854 75.761 139.682 74.4791 139.59C74.2443 139.574 74.0458 139.52 73.8636 139.367C71.8639 137.679 69.6161 136.368 67.3482 135.093C64.0095 133.213 60.5657 131.543 57.0698 129.98C56.9055 129.906 56.7089 129.869 56.5791 129.709C56.7184 129.545 56.9131 129.534 57.0877 129.492C59.951 128.819 62.8327 128.765 65.7388 129.178C68.7525 129.603 71.6114 130.532 74.3617 131.809C77.7013 133.362 80.7413 135.373 83.5797 137.706C84.7289 138.652 85.6518 139.785 86.4794 141.008C86.818 141.505 87.1718 141.993 87.5185 142.49C87.558 142.547 87.6107 142.61 87.5354 142.729Z" fill="#3F713F"/>
<path d="M47.6751 62.6974C47.5461 61.6755 47.8138 60.5561 48.4222 59.5176C49.1838 58.2275 50.1707 57.1101 51.1621 55.9962C51.4532 55.6706 51.8146 55.5856 52.2399 55.6889C52.7702 55.8161 53.2902 55.9935 53.8089 56.1589C55.2456 56.6166 56.6905 57.0405 58.2041 57.1906C58.2991 57.1994 58.3901 57.2087 58.4852 57.2175C58.7627 57.2489 59.1047 57.105 59.2938 57.2821C59.4599 57.4375 59.463 57.7639 59.5387 58.0161C59.5537 58.0715 59.5686 58.1268 59.5871 58.1777C59.7433 58.6202 59.9805 59.057 60.0321 59.5123C60.0826 59.9596 59.6858 60.3227 59.5674 60.7579C59.3159 61.6752 59.2675 62.6166 59.2272 63.5571C59.1938 64.3864 59.1683 65.2147 59.0851 66.0379C58.9226 67.6837 58.1303 68.9898 56.9684 70.1122C56.8151 70.2617 56.6691 70.304 56.4635 70.2597C53.7933 69.6709 51.3784 68.5974 49.458 66.5893C48.4314 65.5096 47.8354 64.2098 47.6751 62.6974Z" fill="#FFEE00"/>
<path d="M78.961 91.4535C79.0408 91.3375 79.1463 91.3655 79.2625 91.3799C82.2817 91.8157 85.3163 92.1435 88.351 92.4058C89.6228 92.516 90.8991 92.5969 92.1798 92.5793C93.2849 92.5628 94.3972 92.6393 95.5024 92.59C96.177 92.5607 96.8556 92.5308 97.5302 92.5015C99.6058 92.4031 101.657 92.1035 103.711 91.8279C104.522 91.7165 105.342 91.5714 106.14 91.3472C106.574 91.2247 107.021 91.1661 107.462 91.0672C108.802 90.7686 110.115 90.3754 111.431 89.9816C113.185 89.4568 114.879 88.7759 116.526 87.9822C119.432 86.5854 122.091 84.8102 124.483 82.655C125.237 81.9745 125.949 81.2502 126.578 80.4421C126.878 80.0581 127.251 79.7307 127.537 79.3321C128.79 77.5857 129.999 75.808 130.691 73.7462C131.335 71.8291 131.718 69.854 131.78 67.8201C131.809 66.8197 131.813 65.8183 131.608 64.8425C131.365 63.6875 131.09 62.5364 130.668 61.4236C130.409 60.7404 130.117 60.0611 130.035 59.3194C130.025 59.243 129.995 59.1649 130.012 59.0976C130.173 58.4773 129.776 58.1091 129.386 57.7524C128.719 57.1435 128.063 56.525 127.407 55.9025C126.451 54.998 125.534 54.0519 124.596 53.1289C123.385 51.941 122.24 50.692 121.146 49.3999C120.893 49.1039 120.526 48.9037 120.384 48.5125C120.495 48.4867 120.608 48.4689 120.714 48.4355C121.01 48.3503 121.203 48.4615 121.384 48.7049C122.172 49.7689 123.07 50.7335 124.035 51.6411C126.196 53.681 128.53 55.4957 131.147 56.9203C131.458 57.0906 131.597 57.2942 131.684 57.639C132.003 58.8787 132.389 60.102 132.733 61.3388C133.224 63.1212 133.633 64.926 133.785 66.7744C134.035 69.8568 133.428 72.7785 132.122 75.5649C130.226 79.6041 127.401 82.8622 123.782 85.4451C120.464 87.8115 116.808 89.4879 112.939 90.7247C110.187 91.6044 107.374 92.2218 104.524 92.7008C101.802 93.1601 99.0578 93.4015 96.3066 93.5212C92.4015 93.692 88.5027 93.5802 84.6351 92.9212C82.8871 92.6242 81.1574 92.2432 79.478 91.6722C79.2996 91.6164 79.1045 91.5912 78.961 91.4535Z" fill="#5A3A83"/>
<path d="M150.854 115.85C150.838 115.419 150.595 115.064 150.434 114.688C148.762 110.831 147.098 106.974 145.224 103.207C144.075 100.897 142.831 98.6343 141.471 96.435C139.546 93.3203 137.173 90.5831 134.583 88.0113C133.268 86.7095 131.911 85.4659 130.42 84.3653C129.715 83.8428 128.942 83.4674 128.058 83.3589C128.799 83.1376 129.552 83.2091 130.295 83.3102C133.518 83.7375 136.174 85.2513 138.391 87.5786C139.914 89.1778 141.065 91.0389 142.124 92.9562C143.573 95.5817 144.891 98.2803 146.359 100.895C148.782 105.212 151.405 109.393 154.524 113.252C154.914 113.736 155.274 114.243 155.532 114.816C155.862 115.544 155.703 116.18 155.175 116.739C154.701 117.238 154.103 117.565 153.491 117.868C153.352 117.938 153.234 117.941 153.173 117.772C153.044 117.425 152.919 117.072 152.783 116.692C153.051 116.611 153.222 116.741 153.399 116.821C153.52 116.872 153.636 116.952 153.762 116.977C153.963 117.018 154.143 116.951 154.228 116.749C154.32 116.533 154.264 116.34 154.079 116.195C153.709 115.909 153.284 115.773 152.828 115.719C152.16 115.641 151.51 115.798 150.854 115.85Z" fill="#A76A2B"/>
<path d="M46.384 142.081C46.7289 142.129 46.948 142.384 47.1818 142.592C48.1352 143.44 49.2411 143.497 50.3722 143.158C52.0671 142.653 53.5844 141.797 54.9632 140.677C56.7316 139.235 58.4008 137.683 60.0794 136.142C60.8287 135.454 61.541 134.73 62.2672 134.02C62.3877 133.903 62.4978 133.767 62.5555 133.605C64.0972 134.319 65.5792 135.147 67.0608 135.971C67.105 135.999 67.136 136.052 67.1691 136.089C67.155 136.274 66.9999 136.342 66.888 136.43C63.76 138.981 60.6174 141.514 57.2999 143.819C55.7034 144.929 54.0614 145.967 52.2306 146.665C51.2588 147.037 50.2627 147.31 49.2001 147.24C48.3889 147.188 47.812 146.813 47.4392 146.103C47.1635 145.585 46.9573 145.034 46.8226 144.466C46.6326 143.681 46.4064 142.899 46.384 142.081Z" fill="#5A3A83"/>
<path d="M96.2046 37.022C104.098 36.1595 110.491 41.8045 111.346 48.8656C112.255 56.3369 106.963 63.1442 99.5087 64.0592C92.0827 64.9708 85.2523 59.6571 84.3316 52.2568C83.4005 44.7719 88.7157 37.9535 96.2046 37.022ZM110.408 49.0169C109.553 42.0498 103.261 37.132 96.29 37.988C89.3264 38.839 84.3894 45.1413 85.2308 52.0938C86.0788 59.0659 92.4158 64.0191 99.3945 63.1581C106.345 62.3005 111.268 55.9795 110.408 49.0169Z" fill="#6E4F93"/>
<path d="M83.809 46.5814C79.927 41.2914 73.3247 40.0842 68.2433 42.3638C63.2975 44.5819 60.3022 49.6909 60.8019 55.0838C61.3074 60.5576 65.1966 65.0704 70.5057 66.2927C73.667 67.0217 76.698 66.6186 79.5467 65.0571C82.3727 63.5107 84.296 61.1636 85.4184 58.1463C85.664 58.2838 85.7157 58.5062 85.8526 58.657C86.0642 58.8844 86.0385 59.1082 85.9165 59.3804C85.3851 60.5811 84.7251 61.6994 83.8562 62.6798C80.388 66.5925 76.0387 68.2434 70.9024 67.2656C65.7199 66.277 62.1866 63.1383 60.5204 58.129C58.1444 50.9882 62.0756 43.3422 69.1957 40.9973C74.3998 39.2869 80.1685 40.8942 83.763 45.0346C84.134 45.4631 84.2577 45.8402 83.9918 46.3384C83.9433 46.4097 83.9526 46.5189 83.809 46.5814Z" fill="#6E4F93"/>
<path d="M45.4899 71.0572C44.8947 71.134 44.3241 71.0117 43.7587 70.8643C43.5602 70.8109 43.4383 70.6828 43.3361 70.5156C42.3197 68.8504 41.0714 67.3607 39.8235 65.875C39.3743 65.3416 38.8878 64.8372 38.308 64.4383C38.0268 64.2439 37.7356 64.067 37.4059 63.9766C37.1224 63.8968 37.0646 63.7242 37.1025 63.4662C37.3134 62.1495 37.682 60.887 38.4536 59.7796C39.4408 58.3639 40.8931 58.3131 41.9879 59.65C42.4631 60.2292 42.75 60.905 43.0217 61.5908C43.7281 63.3592 44.4268 65.1327 45.3885 66.7841C45.7299 67.3715 46.0714 67.9589 46.3896 68.5573C46.5487 68.8565 46.6852 69.1708 46.7899 69.4929C47.0302 70.2561 46.723 70.7839 45.9378 70.9779C45.7903 71.0082 45.6379 71.0309 45.4899 71.0572Z" fill="#6E4F93"/>
<path d="M75.3742 123.841C75.5701 123.739 75.5742 123.539 75.6129 123.354C76.3802 119.804 77.2063 116.268 78.1716 112.767C78.7518 110.662 79.4044 108.58 80.2398 106.558C80.4925 105.951 80.6889 105.318 80.9154 104.698C80.9864 104.51 81.0081 104.287 81.2147 104.171C81.2759 104.572 81.1471 104.956 81.0887 105.347C80.2985 110.648 79.7728 115.974 79.5734 121.33C79.4604 124.383 79.4661 127.438 79.7766 130.481C79.7855 130.553 79.7742 130.628 79.7743 130.763C79.4252 130.614 79.1844 130.382 78.9128 130.198C78.8279 130.139 78.8055 130.056 78.8093 129.954C78.8305 129.191 78.5321 128.521 78.1868 127.868C77.4693 126.51 76.5709 125.276 75.5827 124.11C75.5029 124.025 75.4423 123.931 75.3742 123.841Z" fill="#A76A2B"/>
<path d="M99.2448 78.1495C100.108 77.1208 101.097 76.624 102.303 76.5665C102.888 76.5359 103.471 76.53 104.053 76.5447C105.159 76.5688 106.229 76.3605 107.291 76.0959C107.62 76.0148 107.949 75.9297 108.28 75.8607C109.981 75.5098 110.893 76.1174 111.685 77.4177C112.14 78.1669 112.385 79.003 112.563 79.8515C112.909 81.5169 113.131 83.1974 113.191 84.8936C113.209 85.4429 113.199 85.9917 113.026 86.5153C112.785 87.2515 112.256 87.3692 111.705 86.8114C111.397 86.4977 111.176 86.1244 111.005 85.7246C110.675 84.9642 110.365 84.1973 110.046 83.4314C109.805 82.8563 109.528 82.3017 109.21 81.7687C107.886 79.5243 105.92 78.3143 103.331 78.0914C102.015 77.9826 100.697 78.0333 99.2448 78.1495Z" fill="#A2EAF0"/>
<path d="M36.5303 71.3435C36.4129 71.4192 36.3131 71.3374 36.2156 71.3085C35.6813 71.1491 35.1483 71.0998 34.5953 71.1878C34.1706 71.2561 34.1686 71.24 34.0233 70.8533C33.5984 69.7164 33.6126 68.5626 33.9166 67.4061C34.0889 66.7436 34.3617 66.1343 34.7802 65.5806C35.5572 64.5501 36.8002 64.4922 37.7344 65.1502C38.0251 65.3557 38.3177 65.5773 38.5579 65.838C40.0934 67.5051 41.5211 69.2589 42.6978 71.1986C43.1424 71.9286 43.4591 72.7151 43.4804 73.5909C43.4968 74.1935 43.3018 74.7035 42.8073 75.0703C42.3991 75.3735 42.0958 75.3656 41.6872 75.0642C40.7034 74.3347 39.7019 73.6278 38.7569 72.8486C38.5522 72.6775 38.3867 72.4934 38.244 72.2617C37.5964 71.2419 36.9418 70.2311 36.5089 69.0952C36.395 68.7986 36.1543 68.7014 35.9282 68.7903C35.6785 68.8862 35.5742 69.1359 35.6986 69.4516C35.8958 69.9626 36.1238 70.4577 36.3831 70.9408C36.4511 71.0632 36.5826 71.1697 36.5303 71.3435Z" fill="#6E4F93"/>
<path d="M118.74 89.4985C118.6 89.724 118.402 89.8421 118.231 89.9855C115.263 92.4032 111.911 94.0916 108.24 95.1407C102.606 96.7483 96.9279 96.8499 91.2202 95.5415C90.1148 95.2885 89.0419 94.9334 87.998 94.4809C87.9116 94.4424 87.8322 94.3949 87.7057 94.3287C87.8815 94.2296 88.0146 94.2828 88.1469 94.2952C91.1047 94.5302 94.0617 94.557 97.0262 94.4112C100.124 94.2573 103.196 93.9187 106.244 93.3502C110.393 92.5734 114.427 91.4186 118.276 89.6451C118.396 89.5896 118.516 89.5422 118.641 89.4902C118.656 89.4842 118.677 89.4898 118.74 89.4985Z" fill="#CF9356"/>
<path d="M57.4116 126.856C63.0659 125.822 68.5849 126.255 73.9093 128.505C78.8162 130.581 82.7187 133.932 86.0207 138.153C85.5292 138.176 85.2339 138.033 84.9318 137.767C80.162 133.57 74.82 130.408 68.6145 128.837C65.7606 128.116 62.856 127.882 59.9169 128.135C59.7227 128.151 59.5507 128.147 59.381 128.029C58.7706 127.581 58.0789 127.269 57.4116 126.856Z" fill="#A2EAF0"/>
<path d="M87.2119 138.441C87.1245 138.227 87.2621 138.116 87.3283 137.989C87.751 137.202 88.3037 136.51 88.8834 135.838C91.6809 132.588 94.7152 129.57 97.9029 126.704C101.37 123.584 104.997 120.67 108.866 118.064C109.127 117.889 109.375 117.585 109.685 117.613C109.97 117.639 110.146 117.977 110.389 118.156C110.708 118.391 111.026 118.626 111.305 118.833C111.328 119.022 111.226 119.055 111.153 119.096C106.287 121.697 101.923 125.004 97.7529 128.586C94.2589 131.586 90.9245 134.756 87.7119 138.053C87.5742 138.196 87.4716 138.393 87.2119 138.441Z" fill="#A2EAF0"/>
<path d="M67.4688 142.587C68.484 142.704 69.462 142.985 70.437 143.275C72.7343 143.954 75.0901 144.377 77.426 144.872C79.0658 145.219 80.6923 145.625 82.2676 146.212C83.3805 146.628 84.5061 147.013 85.6212 147.412C87.6462 148.137 89.5973 149.026 91.5069 150.01C91.7731 150.149 92.0494 150.271 92.3257 150.392C92.5503 150.491 92.7063 150.632 92.7293 150.886C90.2437 149.736 87.6058 149.11 84.9262 148.645C83.0399 148.32 81.2252 147.745 79.4547 147.03C77.7354 146.333 75.9475 145.878 74.1282 145.532C72.702 145.261 71.2646 145.032 69.8816 144.58C69.2349 144.369 68.5998 144.12 68.0749 143.67C67.7503 143.386 67.4312 143.082 67.4688 142.587Z" fill="#5A3A83"/>
<path d="M69.8562 126.196C69.8486 126.034 69.94 125.912 70.0359 125.794C70.4567 125.293 70.4462 124.739 70.2522 124.154C70.0242 123.459 69.7142 122.794 69.4047 122.133C68.9081 121.079 68.4906 120.002 68.1738 118.881C68.1528 118.81 68.1516 118.732 68.1387 118.66C69.4975 119.483 70.7048 120.504 71.8804 121.565C73.4784 123.008 74.9262 124.592 76.1858 126.342C76.4669 126.736 76.475 126.735 76.1114 127.07C75.8361 127.324 75.5472 127.568 75.2673 127.818C75.1312 127.941 74.9957 128.003 74.8094 127.915C73.219 127.17 71.5414 126.68 69.8562 126.196Z" fill="#5A3A83"/>
<path d="M79.3549 147.991C79.0011 148.071 78.6612 147.863 78.319 147.905C78.263 148.149 78.4339 148.21 78.5423 148.294C79.4392 148.981 80.2721 149.746 81.112 150.501C82.0025 151.303 83.0553 151.861 84.1565 152.315C85.9507 153.055 87.7721 153.719 89.6072 154.361C89.9273 154.473 90.2617 154.534 90.5909 154.621C90.8105 154.68 91.0417 154.733 91.0575 155.03C88.6127 154.413 86.115 153.999 83.75 153.1C81.8261 152.367 80.1951 151.222 78.9068 149.606C78.5304 149.133 78.1918 148.635 77.9216 148.097C77.8241 147.9 77.6863 147.709 77.7606 147.381C78.3019 147.564 78.8502 147.705 79.3549 147.991Z" fill="#5A3A83"/>
<path d="M84.8436 154.459C84.8593 154.62 84.947 154.736 85.073 154.831C86.0005 155.568 86.8492 156.395 87.8196 157.082C88.4366 157.517 89.1268 157.817 89.8237 158.103C90.413 158.346 91.0028 158.592 91.5927 158.839C91.7343 158.895 91.8796 158.947 91.9133 159.122C91.5122 159.184 91.1252 159.092 90.7376 159.029C88.5239 158.666 86.5389 157.835 84.9677 156.176C84.3949 155.568 83.9427 154.875 83.541 154.062C84.0353 154.129 84.4357 154.296 84.8436 154.459Z" fill="#5A3A83"/>
<path d="M120.452 47.5219C120.296 47.6472 120.101 47.6261 119.92 47.6482C117.551 47.954 115.178 48.2563 112.808 48.5581C112.716 48.5695 112.619 48.5772 112.527 48.5926C112.248 48.6512 112.165 48.5061 112.134 48.2565C112.104 48.007 112.208 47.9247 112.437 47.8887C114.002 47.6646 115.567 47.4325 117.129 47.205C117.932 47.0905 118.731 46.9805 119.535 46.8701C120.199 46.7849 120.238 46.8086 120.452 47.5219Z" fill="#6E4F93"/>
<path d="M90.1138 143.734C89.6074 143.702 89.2585 143.454 88.9735 143.027C88.2351 141.933 87.4594 140.868 86.7024 139.788C86.5987 139.641 86.4597 139.507 86.4407 139.284C86.8293 139.188 87.0637 139.368 87.2611 139.646C87.9686 140.621 88.6877 141.592 89.3877 142.572C89.6492 142.941 89.9707 143.265 90.1527 143.684C90.138 143.698 90.1279 143.716 90.1138 143.734Z" fill="#3F713F"/>
<path d="M77.7151 129.428C77.1461 129.117 76.5766 128.803 75.9724 128.472C76.2812 128.124 76.5898 127.841 76.9597 127.559C77.3324 128.135 77.6542 128.696 77.7151 129.428Z" fill="#A76A2B"/>
<path d="M65.2363 65.9258C65.4715 66.0114 65.6226 66.1114 65.7816 66.2758C65.6815 66.4597 65.5317 66.6046 65.3426 66.7952C65.3052 66.4893 65.2747 66.2397 65.2363 65.9258Z" fill="#FFEE00"/>
<path d="M81.2246 104.114C81.2037 104.043 81.225 103.983 81.2764 103.936C81.2928 104.004 81.2841 104.066 81.2246 104.114Z" fill="#A76A2B"/>
<path d="M90.1537 143.686C90.1687 143.709 90.1797 143.732 90.1947 143.755C90.1696 143.749 90.1399 143.741 90.1148 143.736C90.1289 143.718 90.139 143.7 90.1537 143.686Z" fill="#3F713F"/>
<path d="M79.5264 148.059C79.4747 148.036 79.4189 148.014 79.3672 147.992C79.4321 147.988 79.4838 148.011 79.5264 148.059Z" fill="#5A3A83"/>
<path d="M110.409 49.0172C111.264 55.9843 106.342 62.3052 99.3947 63.1583C92.4159 64.0193 86.0789 59.0661 85.231 52.094C84.385 45.138 89.3266 38.8392 96.2902 37.9882C103.261 37.1322 109.553 42.046 110.409 49.0172ZM96.3738 38.84C89.9033 39.647 85.3054 45.5484 86.1089 52.0235C86.9115 58.4905 92.8128 63.0884 99.2844 62.2893C105.748 61.4913 110.352 55.5769 109.545 49.1063C108.741 42.6232 102.848 38.0324 96.3738 38.84Z" fill="#070504"/>
<path d="M96.375 38.8401C102.85 38.0326 108.742 42.6234 109.55 49.106C110.358 55.5765 105.753 61.4909 99.2896 62.289C92.814 63.0885 86.9166 58.4901 86.1141 52.0231C85.3106 45.5481 89.9044 39.6472 96.375 38.8401Z" fill="#A2EAF0"/>
</g>
<defs>
<clipPath id="clip0_1121_127">
<rect x="0.365234" y="20.6211" width="170" height="170" rx="20" transform="rotate(-6.96723 0.365234 20.6211)" fill="white"/>
</clipPath>
</defs>
</svg>
