<svg width="190" height="190" viewBox="0 0 190 190" fill="none" xmlns="http://www.w3.org/2000/svg">
<g clip-path="url(#clip0_1121_262)">
<path d="M21.0644 189.228C14.1966 133.028 7.32877 76.8286 0.460938 20.6289C56.6729 13.7596 112.881 6.89073 169.093 0.0214033C169.13 0.225212 169.175 0.428036 169.2 0.63332C176.015 56.3983 182.83 112.163 189.644 167.928C189.743 168.737 189.821 168.638 189.012 168.737C133.235 175.553 77.4574 182.369 21.6842 189.185C21.4789 189.21 21.2712 189.215 21.0644 189.228ZM59.3251 51.0079C59.1036 50.9002 58.9554 50.8244 58.8032 50.749C57.4365 50.0622 56.0541 49.4141 54.6327 48.8483C53.6666 48.4639 52.6801 48.1473 51.657 47.9659C49.7657 47.6333 48.1051 48.0854 46.6776 49.3752C46.3832 49.6399 46.0847 49.9052 45.8318 50.2098C43.9601 52.4444 42.1728 54.7341 41.2687 57.5654C41.1824 57.8292 41.0741 57.9119 40.781 57.8537C39.8349 57.667 39.0378 57.9973 38.3569 58.6443C37.8849 59.0942 37.5464 59.6339 37.2617 60.2121C36.7579 61.2378 36.4616 62.3239 36.3016 63.4547C36.2764 63.6497 36.271 63.8057 36.0163 63.8613C34.9221 64.1012 34.1838 64.8124 33.6973 65.7788C32.8689 67.4243 32.6378 69.1438 33.2038 70.9335C33.2626 71.1142 33.3174 71.2954 33.3954 71.4657C33.4789 71.6475 33.4499 71.7776 33.3037 71.9181C32.6425 72.5586 32.4038 73.3803 32.3244 74.2683C32.1757 75.8593 32.4889 77.3857 32.9666 78.8879C33.8427 81.6447 35.4667 83.9015 37.651 85.763C40.4461 88.1422 43.5932 89.9596 46.9001 91.5123C47.7023 91.8923 48.5273 92.2245 49.3994 92.408C49.7096 92.4722 49.7943 92.5967 49.7547 92.9079C49.6082 94.0493 49.507 95.1933 49.3524 96.3356C48.6953 101.155 47.9965 105.967 47.3726 110.79C46.2723 119.304 45.3947 127.835 45.2518 136.427C45.2154 138.503 45.3018 140.58 45.6225 142.637C45.8138 143.867 46.0609 145.087 46.5809 146.233C47.1513 147.491 48.093 148.177 49.5039 148.155C49.769 148.152 50.0346 148.152 50.2927 148.124C51.4856 147.991 52.6058 147.597 53.6876 147.089C55.6418 146.163 57.4136 144.95 59.1554 143.691C62.1354 141.534 65.0032 139.227 67.848 136.897C68.2679 136.556 68.1613 136.553 68.6147 136.82C69.8204 137.527 70.9984 138.273 72.1389 139.082C72.3001 139.197 72.4834 139.293 72.5986 139.467C72.4694 139.613 72.3318 139.557 72.21 139.563C71.2643 139.613 70.328 139.707 69.4173 139.978C68.5777 140.228 67.7815 140.566 67.1912 141.251C66.4751 142.078 66.4633 143.084 67.1516 143.936C67.4644 144.322 67.8594 144.613 68.2933 144.854C68.8724 145.18 69.4924 145.406 70.1241 145.595C71.1032 145.884 72.1026 146.072 73.1025 146.264C74.1939 146.47 75.2863 146.684 76.3689 146.952C76.6429 147.021 76.7638 147.141 76.8233 147.427C76.9936 148.252 77.4091 148.978 77.8926 149.658C79.0034 151.226 80.4265 152.441 82.1251 153.336C82.3787 153.473 82.7135 153.538 82.6107 153.968C82.5889 154.056 82.6851 154.175 82.7341 154.275C83.661 156.311 85.121 157.828 87.1292 158.816C87.5029 158.999 87.8858 159.157 88.2722 159.31C88.457 159.385 88.5871 159.447 88.597 159.695C88.6169 160.158 88.8456 160.559 89.0925 160.942C89.6154 161.744 90.3098 162.378 91.1122 162.893C92.1058 163.535 93.2078 163.928 94.3518 164.196C96.5173 164.7 98.7066 165.098 100.906 165.442C104.368 165.991 107.613 165.366 110.702 163.734C112.532 162.767 114.182 161.552 115.766 160.239C116.04 160.01 116.302 159.786 116.704 159.798C116.942 159.802 117.184 159.711 117.42 159.641C120.885 158.641 124.28 157.434 127.533 155.872C134.463 152.546 140.88 148.391 146.943 143.675C149.062 142.027 151.072 140.262 152.866 138.257C153.675 137.354 154.412 136.401 155.002 135.341C155.625 134.219 156.006 133.024 156.056 131.735C156.087 131.017 156.041 130.303 155.946 129.592C155.469 126.092 154.729 122.644 153.726 119.254C153.636 118.95 153.69 118.821 153.968 118.693C154.603 118.403 155.205 118.047 155.726 117.567C156.777 116.601 156.983 115.452 156.327 114.189C156.038 113.636 155.659 113.139 155.28 112.646C154.532 111.675 153.765 110.715 153.051 109.719C150.516 106.189 148.297 102.469 146.24 98.643C144.955 96.2508 143.766 93.8101 142.397 91.4649C141.26 89.5203 139.981 87.6789 138.303 86.1518C135.854 83.9224 133.012 82.5701 129.669 82.3577C129.414 82.3399 129.15 82.4211 128.899 82.3088C128.913 82.254 128.912 82.2092 128.933 82.1821C129.025 82.0647 129.125 81.9503 129.225 81.8359C130.764 80.0545 132.038 78.1055 133.035 75.9695C134.793 72.2005 135.255 68.2916 134.426 64.2137C134.035 62.2883 133.502 60.4006 132.942 58.5245C132.868 58.2843 132.756 58.0406 132.796 57.7294C133.181 57.8743 133.529 58.0115 133.883 58.1357C135.56 58.7233 137.268 59.0213 139.052 58.7093C141.603 58.2626 143.482 56.354 143.843 53.7893C144.067 52.2095 143.736 50.7097 143.11 49.2665C142.201 47.1716 140.807 45.4259 139.162 43.8702C136.136 41.0044 132.62 38.9094 128.776 37.3406C125.118 35.8513 121.299 34.9942 117.39 34.5283C116.561 34.4294 115.756 34.2949 115.047 33.8096C114.815 33.654 114.542 33.5527 114.283 33.4413C109.004 31.1287 103.475 30.0436 97.7179 30.1057C94.4011 30.1434 91.1371 30.579 87.9143 31.3855C84.3427 32.2795 80.9514 33.6131 77.7775 35.488C76.0172 36.5284 74.3451 37.6887 72.863 39.0995C72.5664 39.3808 72.2828 39.534 71.8894 39.5575C71.2651 39.597 70.6516 39.7251 70.0551 39.892C64.5594 41.4215 61.0484 44.9513 59.4912 50.428C59.4249 50.5872 59.3861 50.7717 59.3251 51.0079Z" fill="#578CF3"/>
<path d="M21.0651 189.226C21.2719 189.213 21.4796 189.208 21.6849 189.183C77.4621 182.366 133.239 175.55 189.013 168.734C189.822 168.636 189.744 168.735 189.645 167.926C182.83 112.161 176.016 56.396 169.201 0.631085C169.176 0.425801 169.131 0.222977 169.093 0.0191681C169.133 0.0388922 169.203 -0.0514482 169.213 0.061749C169.227 0.211173 169.249 0.359612 169.268 0.512569C176.119 56.5714 182.969 112.63 189.823 168.717C189.554 168.75 189.28 168.783 189.01 168.816C133.201 175.637 77.3955 182.456 21.5851 189.268C21.42 189.288 21.2184 189.444 21.0651 189.226Z" fill="#A2EAF0"/>
<path d="M59.3263 51.0049C59.3873 50.7686 59.4265 50.5882 59.4783 50.4103C61.0391 44.9291 64.5505 41.4033 70.0423 39.8743C70.6388 39.7074 71.2558 39.5748 71.8766 39.5398C72.274 39.5158 72.5536 39.3631 72.8501 39.0818C74.3367 37.6745 76.0083 36.5102 77.7646 35.4703C80.9385 33.5954 84.3298 32.2618 87.9014 31.3678C91.1202 30.5618 94.3883 30.1257 97.705 30.088C103.462 30.0259 108.991 31.111 114.27 33.4236C114.529 33.539 114.803 33.6363 115.034 33.7919C115.747 34.2767 116.548 34.4117 117.377 34.5106C121.286 34.9765 125.105 35.8336 128.763 37.3229C132.611 38.8872 136.123 40.9827 139.149 43.8525C140.794 45.4082 142.188 47.1539 143.098 49.2488C143.723 50.692 144.053 52.1878 143.83 53.7715C143.469 56.3322 141.59 58.2409 139.039 58.6916C137.255 59.0035 135.547 58.7056 133.87 58.118C133.516 57.9938 133.168 57.8566 132.783 57.7116C132.743 58.0229 132.858 58.2621 132.929 58.5068C133.494 60.3864 134.022 62.2705 134.413 64.196C135.242 68.2739 134.78 72.1869 133.022 75.9518C132.025 78.0878 130.752 80.0368 129.213 81.8182C129.112 81.9326 129.016 82.0465 128.92 82.1644C128.899 82.1915 128.9 82.2322 128.886 82.2911C129.137 82.4034 129.401 82.3262 129.656 82.34C133 82.5524 135.837 83.9051 138.291 86.1341C139.968 87.6612 141.247 89.5026 142.384 91.4472C143.753 93.7924 144.946 96.2326 146.227 98.6253C148.28 102.452 150.503 106.171 153.038 109.702C153.752 110.697 154.519 111.653 155.267 112.628C155.646 113.121 156.025 113.618 156.314 114.171C156.97 115.431 156.763 116.579 155.713 117.549C155.195 118.025 154.593 118.381 153.955 118.675C153.677 118.803 153.623 118.932 153.713 119.236C154.716 122.623 155.455 126.07 155.933 129.574C156.028 130.286 156.075 131.003 156.043 131.718C155.993 133.007 155.612 134.201 154.989 135.323C154.399 136.384 153.663 137.34 152.853 138.24C151.06 140.244 149.049 142.009 146.93 143.657C140.867 148.373 134.455 152.527 127.52 155.855C124.267 157.416 120.872 158.624 117.408 159.623C117.171 159.693 116.929 159.784 116.691 159.78C116.29 159.772 116.031 159.992 115.753 160.222C114.169 161.539 112.52 162.749 110.689 163.717C107.6 165.348 104.355 165.974 100.893 165.424C98.6933 165.076 96.5084 164.681 94.3389 164.179C93.1954 163.914 92.0934 163.521 91.0993 162.875C90.2965 162.356 89.6026 161.726 89.0797 160.924C88.8328 160.541 88.6 160.141 88.5841 159.677C88.5743 159.429 88.4437 159.363 88.2593 159.292C87.8729 159.139 87.4901 158.981 87.1164 158.798C85.1087 157.814 83.6482 156.293 82.7212 154.257C82.6762 154.157 82.576 154.038 82.5979 153.95C82.7006 153.521 82.3658 153.455 82.1122 153.319C80.4136 152.423 78.991 151.212 77.8797 149.64C77.3962 148.96 76.9847 148.234 76.8105 147.41C76.7509 147.123 76.63 147.003 76.3561 146.934C75.2774 146.666 74.1855 146.456 73.0896 146.247C72.0902 146.058 71.0903 145.866 70.1113 145.577C69.4755 145.389 68.8595 145.162 68.2805 144.837C67.8506 144.595 67.4555 144.304 67.1387 143.918C66.4469 143.071 66.4623 142.06 67.1783 141.233C67.7687 140.548 68.5648 140.21 69.4045 139.96C70.3151 139.69 71.2514 139.596 72.1972 139.546C72.3189 139.539 72.4565 139.596 72.5857 139.449C72.475 139.279 72.2912 139.179 72.126 139.064C70.9855 138.256 69.8035 137.509 68.6018 136.802C68.1444 136.536 68.251 136.539 67.8351 136.88C64.9904 139.209 62.1225 141.516 59.1425 143.674C57.4012 144.936 55.6254 146.15 53.6748 147.071C52.5935 147.583 51.4768 147.973 50.2798 148.107C50.0177 148.135 49.7521 148.134 49.4911 148.138C48.0842 148.159 47.1384 147.473 46.568 146.215C46.0481 145.07 45.8009 143.85 45.6097 142.619C45.2889 140.562 45.2031 138.489 45.239 136.41C45.3859 127.817 46.2634 119.286 47.3597 110.773C47.9836 105.949 48.6865 101.137 49.3395 96.3179C49.4946 95.1796 49.5953 94.0316 49.7418 92.8902C49.7819 92.583 49.6967 92.4545 49.3866 92.3903C48.5144 92.2068 47.6935 91.8741 46.8872 91.4946C43.5799 89.9379 40.4292 88.125 37.6381 85.7453C35.4538 83.8838 33.8298 81.627 32.9537 78.8702C32.476 77.368 32.1628 75.8416 32.3115 74.2506C32.3955 73.3661 32.6341 72.5444 33.2908 71.9004C33.433 71.7604 33.462 71.6302 33.3826 71.4479C33.3046 71.2777 33.2497 71.0965 33.1909 70.9158C32.6249 69.1261 32.856 67.4066 33.6844 65.7611C34.171 64.7947 34.9053 64.084 36.0034 63.8436C36.2581 63.7879 36.2635 63.632 36.2887 63.437C36.4493 62.3102 36.745 61.2201 37.2488 60.1944C37.5336 59.6162 37.8716 59.0724 38.3441 58.6266C39.0289 57.9791 39.8265 57.6529 40.7681 57.836C41.0612 57.8942 41.1695 57.8115 41.2558 57.5477C42.1594 54.7123 43.9473 52.4267 45.819 50.1921C46.0723 49.8915 46.3703 49.6222 46.6648 49.3575C48.0923 48.0677 49.7523 47.6116 51.6441 47.9482C52.6712 48.1291 53.6577 48.4457 54.6199 48.8306C56.0412 49.3964 57.4236 50.0445 58.7904 50.7313C58.9566 50.8213 59.1043 50.8931 59.3263 51.0049ZM90.2104 143.734C90.2356 143.739 90.2652 143.747 90.2904 143.752C90.2753 143.73 90.2643 143.707 90.2493 143.684C90.0669 143.261 89.7454 142.937 89.4843 142.572C88.7844 141.592 88.0652 140.621 87.3577 139.646C87.1568 139.372 86.9259 139.188 86.5374 139.284C86.5564 139.507 86.6953 139.641 86.799 139.787C87.5561 140.867 88.3317 141.933 89.0701 143.027C89.3551 143.454 89.704 143.702 90.2104 143.734ZM79.4636 147.992L79.4505 147.986C78.9498 147.7 78.3975 147.559 77.8477 147.373C77.7693 147.701 77.9076 147.897 78.0087 148.089C78.2788 148.627 78.6175 149.125 78.9939 149.598C80.2821 151.214 81.9132 152.358 83.837 153.092C86.2061 153.991 88.7003 154.409 91.1446 155.022C91.4325 155.105 91.7236 155.18 92.0055 155.28C92.2401 155.362 92.3795 155.532 92.3305 155.8C92.287 156.046 92.0659 156.175 91.7672 156.138C91.6385 156.121 91.5144 156.075 91.3837 156.042C89.2354 155.512 87.0826 154.979 84.9343 154.449C84.5269 154.29 84.1259 154.118 83.6272 154.049C84.0329 154.861 84.4811 155.554 85.0539 156.162C86.6256 157.825 88.6141 158.652 90.8237 159.015C91.2114 159.078 91.6024 159.169 91.9994 159.109C92.2894 159.208 92.5968 159.183 92.895 159.216C93.2138 159.25 93.5341 159.264 93.8499 159.307C94.1073 159.341 94.2582 159.507 94.2419 159.774C94.2221 160.046 94.0361 160.163 93.7806 160.178C93.6875 160.185 93.5925 160.176 93.4979 160.171C92.3116 160.092 91.1263 160.02 89.958 159.787C89.8368 159.765 89.7078 159.679 89.5918 159.799C89.9248 161.254 92.2587 162.868 94.5588 163.237C94.6431 163.324 94.7623 163.33 94.8713 163.354C97.0279 163.817 99.1925 164.247 101.379 164.556C104.264 164.959 107.012 164.513 109.628 163.225C111.173 162.464 112.633 161.567 113.975 160.484C114.916 159.723 115.838 158.949 116.779 158.192C117.185 157.865 117.398 157.908 117.601 158.362C117.685 158.552 117.778 158.577 117.943 158.524C118.265 158.419 118.588 158.315 118.914 158.209C122.522 157.078 126.014 155.667 129.372 153.929C133.787 151.645 137.983 149.004 142.051 146.157C144.434 144.494 146.753 142.744 148.931 140.815C150.671 139.274 152.329 137.658 153.671 135.741C154.857 134.044 155.362 132.193 155.105 130.125C154.851 128.08 154.474 126.063 154.037 124.054C153.511 121.659 152.894 119.287 152.041 116.985C151.926 116.676 151.79 116.632 151.508 116.67C150.531 116.794 149.579 117.032 148.64 117.302C145.423 118.223 142.321 119.447 139.289 120.847C138.79 121.076 138.791 121.084 138.939 121.658C138.942 121.715 138.936 121.773 138.947 121.829C139.447 124.076 139.949 126.319 140.177 128.615C140.184 128.704 140.188 128.802 140.312 128.885C140.496 128.85 140.654 128.708 140.825 128.602C141.159 128.393 141.486 128.165 141.83 127.968C142.036 127.849 142.24 127.91 142.388 128.088C142.531 128.258 142.499 128.528 142.315 128.697C142.22 128.786 142.106 128.854 141.992 128.925C140.838 129.642 139.723 130.419 138.618 131.204C136.727 132.546 134.866 133.934 133.025 135.348C128.322 138.95 123.769 142.742 119.21 146.522C118.965 146.728 118.869 146.911 118.938 147.242C119.063 147.831 119.141 148.43 119.21 149.03C119.25 149.356 119.104 149.534 118.846 149.565C118.593 149.596 118.412 149.455 118.337 149.145C118.295 148.962 118.28 148.772 118.257 148.587C118.161 147.839 118.03 147.095 117.771 146.383C117.191 144.783 116.273 143.388 115.169 142.105C115.121 142.05 115.065 141.991 114.975 141.994C114.836 142.154 114.876 142.386 114.767 142.563C114.655 142.744 114.493 142.829 114.291 142.776C114.089 142.728 113.961 142.588 113.956 142.376C113.951 142.266 113.982 142.152 114.005 142.043C114.144 141.377 114.343 140.727 114.588 140.093C115.301 138.241 116.474 136.708 117.907 135.361C118.526 134.779 119.137 134.189 119.677 133.531C120.136 132.972 120.529 132.377 120.651 131.643C120.786 130.801 120.398 130.105 119.607 129.785C119.251 129.641 118.882 129.596 118.497 129.626C117.66 129.692 116.939 130.05 116.271 130.528C115.403 131.149 114.684 131.919 114.008 132.737C112.755 134.254 111.69 135.9 110.611 137.539C109.843 138.708 109.069 139.864 108.203 140.963C106.778 142.775 105.029 144.178 102.938 145.152C100.828 146.137 98.6458 146.902 96.3709 147.409C96.009 147.49 95.6735 147.519 95.3988 147.177C95.2885 147.043 95.0809 146.983 94.9116 146.901C92.5125 145.756 90.0831 144.664 87.598 143.718C83.9215 142.317 80.175 141.177 76.2597 140.663C74.3083 140.407 72.3525 140.282 70.398 140.636C69.6104 140.777 68.8584 141.008 68.2077 141.5C67.8523 141.768 67.5602 142.085 67.579 142.573C67.5414 143.068 67.8605 143.372 68.1891 143.655C68.714 144.105 69.3491 144.355 69.9959 144.566C71.3788 145.018 72.8162 145.246 74.2424 145.517C76.0618 145.863 77.8496 146.319 79.5689 147.015C81.3394 147.731 83.1536 148.301 85.0404 148.63C87.724 149.095 90.3579 149.721 92.8435 150.872C93.0409 150.982 93.2483 151.075 93.4316 151.204C93.6017 151.326 93.645 151.513 93.5504 151.708C93.4452 151.917 93.2774 152.016 93.0407 151.951C92.9518 151.925 92.8654 151.886 92.7785 151.844C90.6316 150.791 88.3493 150.167 86.0091 149.738C83.8946 149.351 81.804 148.891 79.8049 148.077C79.7531 148.055 79.6958 148.054 79.6415 148.044C79.5802 148.011 79.5285 147.989 79.4636 147.992ZM120.477 48.512C120.271 48.529 120.064 48.538 119.858 48.5631C117.609 48.8461 115.365 49.1367 113.116 49.4237C112.984 49.44 112.856 49.4638 112.722 49.4719C112.487 49.4884 112.399 49.6013 112.411 49.8367C112.433 50.214 112.434 50.5898 112.423 50.967C112.204 58.7434 105.813 65.0151 98.0323 65.0264C93.772 65.0322 90.1736 63.4334 87.2492 60.3305C87.1128 60.1838 87.0148 59.9833 86.7952 59.9244C86.6157 60.0607 86.5638 60.2713 86.4713 60.4501C86.001 61.3818 85.4418 62.255 84.7842 63.0584C80.5655 68.219 73.477 69.8532 67.4208 67.0636C66.6502 66.7084 66.6422 66.7094 66.1353 67.376C66.0687 67.4658 66.0025 67.5597 65.9404 67.6531C64.9844 69.0568 64.3398 70.6022 63.9314 72.2413C63.6792 73.2526 63.5556 74.2808 63.515 75.3193C63.4983 75.7504 63.5394 75.7862 63.9647 75.6893C64.5571 75.5556 65.1518 75.4747 65.7511 75.3974C68.446 75.0518 71.1429 74.7222 73.8289 74.3041C76.122 73.9462 78.425 73.6362 80.7205 73.2985C86.322 72.4669 91.9387 71.7601 97.5855 71.2988C98.9569 71.1884 100.335 71.0976 101.707 71.028C104.119 70.9089 106.533 70.8018 108.945 70.7808C110.944 70.7612 112.946 70.7616 114.938 70.9799C116.217 71.1217 117.482 71.343 118.626 71.9794C119.494 72.4616 120.175 73.1219 120.52 74.0725C121.043 75.5119 120.722 76.8259 119.865 78.0337C118.937 79.3399 117.622 80.138 116.166 80.7325C115.59 80.9663 114.997 81.1614 114.397 81.3327C113.864 81.4837 113.869 81.4912 113.93 82.023C113.976 82.4341 114.039 82.8472 114.069 83.2602C114.129 84.0496 114.205 84.841 114.163 85.6346C114.133 86.2265 114.04 86.8016 113.714 87.3113C113.214 88.0996 112.325 88.2777 111.554 87.755C111.171 87.4954 110.884 87.1506 110.64 86.7636C110.337 86.2819 110.11 85.7622 109.899 85.2406C109.605 84.5044 109.33 83.7617 108.97 83.0541C108.776 82.6693 108.768 82.6702 108.368 82.7763C105.984 83.4271 103.571 83.9712 101.159 84.4947C97.9113 85.198 94.6498 85.8213 91.3734 86.3565C87.0519 87.0643 82.7101 87.6399 78.3418 87.9653C77.0262 88.0648 75.7047 88.1487 74.3858 88.1546C73.9286 88.1574 73.4693 88.1767 73.0131 88.1876C73.0154 88.2731 73.0098 88.2942 73.0153 88.3058C73.0494 88.3506 73.0839 88.3995 73.1286 88.4308C74.9443 89.7491 76.9046 90.7801 79.0494 91.4494C79.1924 91.5831 79.388 91.6123 79.5629 91.6726C81.2463 92.2431 82.976 92.6241 84.72 92.9216C88.5876 93.5806 92.4864 93.6925 96.3915 93.5216C99.1427 93.402 101.883 93.157 104.609 92.7013C107.459 92.2222 110.273 91.6088 113.024 90.7251C116.893 89.4884 120.549 87.8119 123.867 85.4455C127.486 82.8626 130.311 79.6045 132.207 75.5653C133.513 72.7789 134.119 69.8532 133.87 66.7748C133.722 64.9259 133.314 63.1252 132.818 61.3392C132.474 60.1025 132.088 58.8792 131.769 57.6394C131.678 57.2952 131.543 57.0911 131.232 56.9207C128.615 55.4961 126.281 53.6815 124.12 51.6415C123.159 50.7335 122.257 49.7693 121.469 48.7053C121.288 48.4619 121.098 48.3462 120.799 48.4359C120.7 48.4683 120.588 48.4861 120.477 48.512ZM68.2394 118.659C68.0734 118.471 67.8448 118.372 67.641 118.242C67.1615 117.929 67.158 117.933 66.7399 118.323C65.0713 119.88 63.3986 121.436 61.6457 122.905C61.2308 123.254 60.7777 123.558 60.7925 124.214C60.8009 124.483 60.552 124.619 60.3237 124.59C60.0914 124.561 59.931 124.385 59.9347 124.115C59.9362 123.926 59.9705 123.738 59.9966 123.551C60.5969 119.27 60.9865 114.97 61.3263 110.663C61.7741 104.967 62.1268 99.2613 62.3809 93.5517C62.4282 92.4674 62.6052 91.3755 62.4025 90.2849C62.3752 90.1289 62.4692 89.9949 62.543 89.8633C62.7007 89.5826 62.8629 89.3054 63.008 89.0221C63.447 88.1678 63.8899 87.3129 64.1299 86.3685C64.2357 85.9634 64.215 85.6268 63.9967 85.245C63.5302 84.4359 63.6557 83.5912 64.2638 82.8837C64.4999 82.6097 64.7842 82.3952 65.087 82.1989C65.2044 82.1233 65.3735 82.1026 65.4319 81.8789C65.3203 81.8681 65.2167 81.8562 65.1132 81.8444C64.5676 81.7926 64.0209 81.7654 63.4804 81.6885C62.7649 81.5839 62.0845 81.3647 61.4821 80.9481C60.3882 80.1871 60.0649 78.8785 60.6807 77.7002C61.0053 77.0804 61.485 76.5928 62.1151 76.2993C62.5018 76.1213 62.6036 75.8842 62.6117 75.4828C62.6577 73.0506 63.2334 70.7415 64.358 68.5777C64.4799 68.3381 64.5369 68.1024 64.5442 67.8278C64.5699 67.0689 64.4381 66.3251 64.3748 65.573C64.3475 65.2495 64.2219 65.0238 63.975 64.8089C62.7447 63.7336 61.7175 62.4824 60.9137 61.0527C60.8516 60.9459 60.8208 60.7944 60.6258 60.7693C60.4228 61.2148 60.3511 61.6975 60.3206 62.1833C60.2476 63.2912 60.1877 64.4056 60.1439 65.5181C60.0602 67.7752 59.0267 69.5479 57.399 71.0378C57.219 71.2027 57.0367 71.2822 56.7854 71.2312C54.7871 70.8258 52.8988 70.1497 51.1715 69.0535C49.8962 68.2452 48.7611 67.2809 47.977 65.9795C46.5526 63.6166 46.4138 61.211 47.8942 58.8158C48.6576 57.5746 49.6143 56.4772 50.589 55.394C51.1036 54.8245 51.7339 54.6331 52.4854 54.7986C53.0564 54.9249 53.6137 55.106 54.171 55.2871C55.354 55.6737 56.5491 56.026 57.7854 56.214C58.2474 56.2842 58.7074 56.371 59.1764 56.2973C59.2413 56.126 59.2024 55.9755 59.1807 55.8311C59.0183 54.7029 58.9908 53.5747 59.1347 52.4459C59.1811 52.0562 59.0599 51.8667 58.7248 51.6993C56.9326 50.8071 55.1313 49.9406 53.2374 49.2855C52.7384 49.1136 52.2278 48.98 51.708 48.8719C49.9978 48.5171 48.4928 48.9053 47.2044 50.0963C47.0395 50.2513 46.8701 50.4027 46.7147 50.5688C45.2608 52.1436 44.0398 53.8861 42.9845 55.7472C42.5907 56.4367 42.3442 57.194 42.0886 57.9443C42.0288 58.1232 41.9559 58.2955 42.1546 58.451C43.0284 59.149 43.5096 60.1115 43.8987 61.1221C44.8086 63.4866 45.8651 65.78 47.1875 67.943C47.4529 68.3763 47.6497 68.8506 47.7877 69.3444C48.0736 70.3798 47.6491 71.2855 46.6585 71.7048C46.0568 71.9622 45.4164 72.0037 44.7687 71.9521C44.5871 71.9375 44.4088 71.849 44.222 71.9249C44.626 74.6291 44.598 74.7346 43.0879 76.0835C43.0886 76.1896 43.1654 76.2497 43.2235 76.3243C43.779 76.9917 44.2101 77.7112 44.1059 78.6308C44.0889 78.7922 44.1727 78.876 44.3094 78.9246C44.4335 78.9707 44.554 79.0214 44.6786 79.0715C47.3999 80.1116 49.8106 81.6187 51.747 83.825C51.8468 83.9395 51.9577 84.0444 52.0459 84.1643C52.1841 84.3599 52.1594 84.559 51.992 84.7265C51.817 84.8991 51.6088 84.9 51.4276 84.7546C51.2509 84.6128 51.096 84.4479 50.941 84.283C49.4732 82.6689 47.75 81.4047 45.755 80.5251C45.2713 80.3105 44.7779 80.1175 44.3047 79.8893C43.9184 79.7037 43.5876 79.6379 43.2341 79.9875C43.0227 80.1972 42.7037 80.2607 42.3987 80.3061C41.885 80.3811 41.3797 80.3244 40.8861 80.1968C39.5124 79.854 38.2966 79.1651 37.1045 78.4365C36.8223 78.2667 36.757 78.0337 36.8698 77.8197C36.9962 77.5837 37.2539 77.5195 37.5547 77.6747C37.7727 77.787 37.9771 77.9214 38.192 78.0422C38.9955 78.4996 39.8162 78.9304 40.7002 79.2104C41.2062 79.3733 41.7194 79.4944 42.2564 79.4084C42.9779 79.2957 43.3355 78.7781 43.1871 78.065C43.1081 77.6865 42.9134 77.3631 42.6727 77.0656C42.3645 76.6825 42.0048 76.3466 41.6092 76.0517C40.2715 75.0672 38.9514 74.0602 37.6455 73.035C37.379 72.8265 37.0837 72.6502 36.7864 72.4904C36.4228 72.2898 36.0399 72.1323 35.6236 72.0688C34.5663 71.9079 33.7663 72.3815 33.4074 73.3895C33.2619 73.8036 33.1953 74.2284 33.1876 74.6665C33.1431 76.5757 33.6396 78.3656 34.4019 80.0904C35.3622 82.2649 36.885 83.9948 38.7122 85.4751C41.084 87.3995 43.7089 88.9212 46.4328 90.2837C47.8252 90.9797 49.2617 91.5354 50.8016 91.8007C50.9142 91.8196 51.0233 91.843 51.1298 91.879C51.3595 91.9531 51.4656 92.1199 51.4454 92.3552C51.4226 92.5704 51.2789 92.731 51.0762 92.7108C50.6468 92.6734 50.6425 92.9395 50.614 93.2412C50.3527 95.7161 50.0421 98.1889 49.6897 100.655C48.6954 107.562 47.6971 114.469 47.0724 121.425C46.566 127.043 46.0596 132.661 46.1738 138.309C46.1975 139.573 46.2418 140.838 46.4878 142.083C46.5102 142.901 46.7364 143.682 46.9224 144.468C47.0576 145.04 47.2633 145.587 47.5391 146.105C47.9118 146.815 48.4922 147.185 49.2999 147.242C50.3665 147.312 51.3586 147.039 52.3304 146.667C54.1612 145.97 55.8028 144.928 57.3997 143.821C60.7172 141.516 63.8598 138.983 66.9878 136.432C67.0992 136.341 67.2503 136.273 67.2689 136.091C67.2358 136.054 67.2048 136.001 67.1606 135.974C65.6791 135.15 64.197 134.322 62.6554 133.607C61.1597 132.801 59.6155 132.099 58.0748 131.393C57.1484 130.967 56.2095 130.571 55.2806 130.158C54.8918 129.985 54.7775 129.819 54.8367 129.534C54.8897 129.266 55.0582 129.106 55.3244 129.045C56.023 128.878 56.7176 128.711 57.4162 128.544C57.6623 128.486 57.9219 128.47 58.1385 128.338C58.1072 128.215 58.0308 128.191 57.9655 128.159C57.3628 127.84 56.7515 127.551 56.1103 127.319C55.8455 127.225 55.6189 127.109 55.6314 126.777C55.6433 126.473 55.8209 126.288 56.214 126.195C56.5074 126.123 56.8009 126.05 57.0963 125.993C60.2692 125.381 63.4604 125.285 66.6684 125.661C67.7751 125.791 68.8589 126.035 69.9549 126.211C71.6395 126.692 73.3176 127.185 74.912 127.93C75.0984 128.018 75.2334 127.952 75.37 127.833C75.6499 127.583 75.9387 127.339 76.2141 127.085C76.5776 126.75 76.5691 126.747 76.2885 126.357C75.0288 124.607 73.5811 123.023 71.9831 121.58C70.806 120.506 69.5982 119.482 68.2394 118.659ZM75.4701 123.838C75.5382 123.928 75.5988 124.022 75.6705 124.108C76.6592 125.278 77.5576 126.512 78.2746 127.866C78.6199 128.519 78.9183 129.189 78.8971 129.952C78.8933 130.054 78.9157 130.137 79.0006 130.196C79.2762 130.379 79.517 130.611 79.8621 130.761C79.866 130.626 79.8733 130.551 79.8644 130.479C79.5534 127.432 79.5482 124.381 79.6613 121.328C79.8606 115.972 80.3863 110.646 81.1765 105.345C81.2354 104.958 81.3597 104.571 81.3025 104.169C81.3211 104.155 81.3267 104.134 81.3157 104.111C81.3712 104.063 81.3799 104.001 81.3675 103.933C81.4087 103.768 81.4373 103.601 81.4956 103.443C81.5782 103.217 81.7545 103.121 81.9883 103.162C82.2261 103.203 82.3479 103.363 82.3442 103.601C82.3402 103.769 82.3035 103.937 82.2794 104.107C81.2309 110.805 80.5544 117.538 80.5056 124.326C80.4883 126.591 80.5645 128.853 80.8274 131.105C80.8657 131.451 81.0044 131.684 81.2764 131.904C83.1859 133.456 84.9104 135.198 86.4377 137.131C86.5149 137.228 86.5562 137.366 86.7207 137.374C87.0317 136.944 87.3301 136.511 87.6512 136.096C87.9758 135.677 88.3099 135.268 88.658 134.874C92.6077 130.388 96.927 126.286 101.56 122.508C103.975 120.538 106.443 118.643 109.069 116.962C109.868 116.448 109.873 116.451 110.566 117.073C111.002 117.465 111.462 117.826 111.927 118.182C112.246 118.425 112.526 118.505 112.893 118.268C113.192 118.076 113.537 117.952 113.862 117.806C114.962 117.312 116.078 116.849 117.205 116.413C117.794 116.186 117.915 116.241 118.144 116.805C118.256 117.086 118.379 117.361 118.503 117.635C120.913 122.983 123.447 128.274 125.903 133.599C126.553 135.003 127.187 136.412 127.836 137.816C127.986 138.137 128.003 138.143 128.272 137.938C128.571 137.71 128.855 137.463 129.145 137.223C130.294 136.335 131.439 135.443 132.59 134.563C134.641 132.993 136.711 131.445 138.836 129.976C139.145 129.763 139.328 129.528 139.29 129.145C139.276 128.995 139.294 128.842 139.279 128.692C139.193 127.886 139.107 127.079 138.936 126.287C138.73 125.303 138.735 125.311 137.718 125.341C136.712 125.37 135.722 125.254 134.761 124.951C133.317 124.494 132.477 123.543 132.355 122.005C132.338 121.799 132.325 121.592 132.312 121.385C132.266 120.574 132.179 119.768 132.017 118.974C131.492 116.346 130.713 113.786 129.926 111.227C128.259 105.805 126.347 100.458 124.88 94.9752C124.863 94.863 124.833 94.7523 124.835 94.6376C124.834 94.3599 124.974 94.1712 125.201 94.1517C125.439 94.1308 125.596 94.2464 125.677 94.4694C125.714 94.5751 125.748 94.6854 125.77 94.7971C126.134 96.3785 126.634 97.923 127.121 99.473C128.676 104.443 130.345 109.374 131.794 114.377C132.496 116.808 133.158 119.248 133.249 121.802C133.254 121.973 133.286 122.141 133.311 122.309C133.417 123.044 133.83 123.549 134.483 123.874C134.77 124.018 135.073 124.124 135.385 124.205C136.344 124.463 137.327 124.453 138.308 124.452C138.516 124.451 138.574 124.358 138.535 124.171C138.352 123.307 138.169 122.447 137.972 121.535C137.318 121.803 136.771 122.136 136.206 122.433C136.041 122.519 135.873 122.617 135.696 122.671C135.499 122.728 135.318 122.656 135.221 122.46C135.129 122.275 135.142 122.081 135.3 121.939C135.411 121.84 135.549 121.77 135.679 121.697C136.994 120.952 138.351 120.296 139.731 119.686C143.359 118.079 147.049 116.655 150.956 115.859C151.612 115.812 152.262 115.651 152.93 115.732C153.39 115.787 153.815 115.922 154.181 116.209C154.366 116.354 154.422 116.547 154.33 116.762C154.245 116.965 154.065 117.032 153.864 116.991C153.738 116.965 153.623 116.89 153.502 116.835C153.32 116.755 153.153 116.624 152.885 116.706C153.022 117.086 153.146 117.438 153.275 117.786C153.336 117.954 153.454 117.948 153.593 117.882C154.205 117.578 154.803 117.256 155.277 116.753C155.805 116.194 155.965 115.562 155.634 114.83C155.376 114.257 155.016 113.749 154.626 113.266C151.507 109.407 148.884 105.225 146.461 100.909C144.994 98.2939 143.675 95.5953 142.227 92.9698C141.167 91.0486 140.016 89.1874 138.493 87.5923C136.276 85.2609 133.619 83.7471 130.398 83.3238C129.654 83.2267 128.902 83.1552 128.161 83.3725C127.831 83.4168 127.565 83.5761 127.323 83.8058C125.667 85.3685 123.835 86.6873 121.876 87.8418C121.731 87.9248 121.567 87.9858 121.462 88.1333C120.743 89.169 119.782 89.9646 118.812 90.7491C114.799 93.9848 110.193 95.9081 105.149 96.8186C101.536 97.4726 97.9071 97.4993 94.2689 97.0125C91.3869 96.6293 88.5963 95.9245 86.0527 94.4664C85.3672 94.0722 84.6677 93.8309 83.8975 93.7126C83.5063 93.6542 83.1627 93.6839 82.8016 93.8383C81.2023 94.524 79.8333 95.5574 78.5616 96.7178C77.0221 98.1274 75.7105 99.7298 74.5177 101.436C72.9352 103.697 71.6087 106.114 70.2732 108.524C68.9811 110.855 67.5822 113.114 65.9035 115.19C65.5947 115.571 65.3129 115.973 65.0758 116.406C64.912 116.704 64.7829 117.018 64.7181 117.357C64.6405 117.759 64.7759 118.098 65.0029 118.417C65.077 118.523 65.1739 118.58 65.2834 118.473C65.6056 118.168 65.9876 117.917 66.2246 117.516C66.1357 117.458 66.0664 117.425 66.0112 117.375C65.7558 117.157 65.698 116.951 65.8404 116.746C65.9929 116.523 66.2062 116.497 66.4393 116.599C66.6639 116.699 66.892 116.793 67.1065 116.91C68.2948 117.541 69.3831 118.323 70.4507 119.136C72.2787 120.523 73.9286 122.123 75.4701 123.838ZM84.6429 44.5856C84.8628 44.379 84.9207 44.1513 85.0279 43.9585C87.7376 38.9864 91.9335 36.2472 97.5758 36.0847C102.941 35.9274 107.147 38.2814 110.147 42.7395C110.955 43.9398 111.497 45.2667 111.903 46.647C112.022 47.0532 112.03 47.0522 112.449 47.0051C112.526 46.9957 112.598 46.9829 112.674 46.9735C114.858 46.6576 117.046 46.3453 119.23 46.0294C119.374 46.0076 119.531 46.0211 119.675 45.8973C119.607 45.534 119.392 45.217 119.268 44.8686C119.151 44.5479 119.019 44.2372 118.918 43.9145C118.824 43.6074 118.916 43.3919 119.145 43.2944C119.378 43.1965 119.599 43.2962 119.739 43.5732C119.788 43.6734 119.822 43.7837 119.859 43.8894C120.546 45.8358 121.599 47.5659 122.957 49.1158C124.743 51.1608 126.784 52.9173 128.997 54.4771C130.669 55.6577 132.424 56.6811 134.375 57.3373C135.862 57.8378 137.374 58.0739 138.945 57.788C141.21 57.3722 142.811 55.5996 142.98 53.3035C143.086 51.828 142.714 50.4599 142.072 49.1494C141.022 47.0103 139.474 45.2713 137.692 43.7242C134.711 41.1307 131.321 39.2287 127.636 37.8283C124.157 36.5049 120.542 35.7742 116.856 35.33C116.703 35.312 116.557 35.293 116.415 35.3675C116.2 35.4796 116.015 35.4041 115.837 35.2789C115.185 34.8234 114.469 34.4819 113.74 34.1666C108.352 31.8345 102.716 30.8115 96.8605 31.0001C94.2156 31.0864 91.5996 31.4428 89.0157 32.0282C86.2451 32.6569 83.5673 33.5438 80.9992 34.7605C78.6361 35.8827 76.4153 37.2326 74.3958 38.8929C74.2324 39.0272 74.0159 39.1272 73.9461 39.4258C76.0373 39.5216 78.0007 39.9762 79.8557 40.8811C81.7062 41.7825 83.2856 43.0398 84.6429 44.5856ZM118.178 128.754C118.538 128.69 118.895 128.704 119.249 128.758C120.849 129.012 121.813 130.353 121.497 131.907C121.351 132.624 121.007 133.25 120.571 133.83C119.82 134.833 118.869 135.644 117.992 136.527C116.88 137.656 115.994 138.932 115.411 140.413C115.286 140.726 115.273 140.981 115.559 141.216C115.731 141.358 115.864 141.546 116.012 141.72C116.978 142.869 117.769 144.124 118.385 145.491C118.543 145.844 118.567 145.841 118.868 145.628C118.928 145.584 118.987 145.536 119.047 145.488C121.627 143.334 124.198 141.178 126.817 139.072C127.253 138.725 127.251 138.713 127.005 138.171C126.462 136.967 125.926 135.762 125.367 134.564C123.107 129.705 120.843 124.85 118.582 119.991C118.223 119.222 117.882 118.443 117.531 117.673C117.364 117.313 117.356 117.31 116.98 117.442C116.909 117.467 116.839 117.496 116.769 117.521C113.665 118.733 110.722 120.261 107.923 122.062C105.203 123.808 102.626 125.749 100.14 127.809C96.0418 131.21 92.1648 134.854 88.4469 138.663C88.0802 139.038 88.0745 139.092 88.3882 139.52C89.5597 141.117 90.7389 142.709 91.9064 144.307C92.0683 144.528 92.262 144.676 92.5092 144.793C93.5907 145.286 94.6687 145.783 95.7381 146.31C96.0682 146.47 96.3739 146.498 96.7182 146.407C98.4502 145.938 100.141 145.367 101.801 144.67C104.245 143.645 106.251 142.072 107.825 139.947C109.319 137.93 110.599 135.768 112.066 133.73C113.061 132.346 114.125 131.027 115.479 129.971C116.279 129.358 117.153 128.888 118.178 128.754ZM61.8199 55.6311C61.878 55.9059 61.9626 56.4307 62.0944 56.9416C63.7013 63.0366 69.7397 66.817 75.9014 65.488C80.3594 64.5265 83.3009 61.7853 84.793 57.4809C84.9106 57.1397 84.8953 56.8475 84.7439 56.5105C83.577 53.916 83.1967 51.2049 83.6164 48.3879C83.6687 48.0465 83.608 47.7843 83.4212 47.4925C80.6039 43.1591 75.324 41.1734 70.3105 42.5705C64.7397 44.1214 61.082 49.626 61.8199 55.6311ZM112.544 76.9019C113.138 78.0141 113.458 79.1311 113.649 80.2885C113.692 80.5446 113.828 80.5852 114.048 80.5174C115.387 80.1047 116.704 79.6496 117.851 78.8067C118.687 78.1899 119.364 77.4493 119.698 76.4362C120.172 74.9975 119.642 73.6038 118.328 72.8452C117.919 72.6092 117.484 72.4294 117.027 72.2974C115.338 71.8174 113.606 71.7473 111.868 71.7023C108.983 71.6259 106.1 71.7372 103.215 71.865C100.273 71.9958 97.335 72.1914 94.4099 72.4917C90.1494 72.9306 85.8943 73.4465 81.6584 74.0867C78.1889 74.6128 74.713 75.1193 71.239 75.6092C69.2751 75.886 67.3084 76.1059 65.343 76.3706C64.7442 76.4519 64.1484 76.5574 63.5615 76.7027C62.8196 76.8832 62.1337 77.1876 61.6576 77.8382C61.0139 78.7217 61.2178 79.7548 62.1523 80.3147C62.3948 80.4607 62.6571 80.5676 62.932 80.6443C63.4607 80.7921 64.0007 80.865 64.5494 80.9083C66.2491 81.0437 67.9424 80.9267 69.6378 80.8257C72.5741 80.6507 75.5096 80.435 78.4436 80.2072C80.945 80.0159 83.443 79.7637 85.9453 79.5805C87.2815 79.4826 88.6153 79.3318 89.9481 79.2057C92.5607 78.9559 95.1674 78.6905 97.7796 78.4366C98.0543 78.4112 98.208 78.2984 98.346 78.0569C98.9555 76.9938 99.8663 76.2901 101.021 75.912C101.763 75.6661 102.54 75.6365 103.318 75.6518C104.493 75.6716 105.655 75.6195 106.798 75.3082C107.45 75.1305 108.113 74.9719 108.79 74.8973C109.825 74.7789 110.749 75.0173 111.52 75.7116C111.842 75.9991 112.146 76.0478 112.544 75.9664C113.784 75.7128 115.009 75.4118 116.241 75.1225C116.669 75.0211 116.912 75.1017 116.995 75.3776C117.072 75.6418 116.899 75.8632 116.472 75.9807C116.018 76.1097 115.557 76.2111 115.1 76.3159C114.27 76.5113 113.447 76.6977 112.544 76.9019ZM65.0507 86.448C64.7192 87.7141 64.1498 88.8376 63.5407 89.9375C63.437 90.1258 63.4124 90.3249 63.4052 90.5342C63.3698 91.5149 63.3344 92.4956 63.2905 93.4733C63.0909 97.824 62.842 102.173 62.5358 106.52C62.1794 111.56 61.7943 116.599 61.1694 121.615C61.1519 121.772 61.0533 121.935 61.1937 122.114C62.2634 121.24 63.277 120.307 64.296 119.386C64.5133 119.192 64.3744 119.058 64.2662 118.908C63.8061 118.286 63.7029 117.608 63.9111 116.872C64.031 116.448 64.2167 116.062 64.445 115.691C64.7623 115.178 65.1328 114.7 65.5033 114.222C66.4613 113.002 67.3571 111.74 68.1329 110.399C69.0976 108.733 70.0363 107.054 70.988 105.381C72.2592 103.146 73.6152 100.97 75.2337 98.971C77.0153 96.7678 79.0246 94.8228 81.5222 93.4309C81.5872 93.3944 81.6662 93.3725 81.6615 93.2341C81.4459 93.1747 81.2208 93.1041 80.9926 93.0422C79.0365 92.5132 77.1492 91.8123 75.3516 90.8759C74.0427 90.1943 72.7919 89.4198 71.6936 88.4223C71.4588 88.2059 71.2279 88.0544 70.8963 88.0826C70.7464 88.0928 70.5951 88.0582 70.4463 88.0437C69.0735 87.9091 67.7176 87.6786 66.4289 87.162C65.9566 86.9746 65.5243 86.7128 65.0507 86.448ZM84.3707 86.4524C87.4922 86.0873 90.3575 85.5982 93.2217 85.1338C94.4878 84.93 95.7494 84.6901 97.0046 84.4305C98.9618 84.032 100.916 83.6053 102.87 83.1867C104.546 82.8266 106.212 82.4147 107.875 81.9868C108.259 81.8867 108.28 81.8229 108.04 81.4968C107.266 80.4475 106.284 79.6933 105.024 79.3161C103.947 78.9903 102.839 78.8846 101.725 78.9268C100.944 78.9568 100.133 78.8067 99.393 79.2036C99.3472 79.2296 99.2839 79.2128 99.2275 79.2197C97.4425 79.3888 95.6615 79.5574 93.8769 79.7306C92.3952 79.8749 90.912 80.0398 89.4293 80.176C86.2381 80.4721 83.0409 80.7525 79.8423 80.9881C77.753 81.1413 75.6671 81.3227 73.5818 81.4754C72.6426 81.5452 71.6994 81.5828 70.7592 81.6446C70.4025 81.6678 70.0258 81.6607 69.696 81.7705C69.0481 81.9845 68.3848 82.1064 67.717 82.2248C67.0452 82.3436 66.3994 82.541 65.7879 82.8527C65.4842 83.0083 65.2005 83.1941 64.9659 83.4475C64.5946 83.8523 64.5365 84.3129 64.7765 84.8065C64.9021 85.0649 65.0911 85.2746 65.3059 85.4608C65.7535 85.8473 66.2622 86.1324 66.8109 86.3432C67.9816 86.7965 69.2052 87.0147 70.4498 87.1363C73.1083 87.3956 75.7639 87.2631 78.4142 87.0536C80.4819 86.8908 82.5501 86.732 84.3707 86.4524ZM87.6324 142.729C87.7082 142.614 87.6555 142.551 87.6155 142.49C87.2693 141.997 86.9115 141.51 86.5764 141.008C85.7488 139.785 84.83 138.651 83.6767 137.706C80.8383 135.372 77.7942 133.363 74.4587 131.809C71.7084 130.532 68.8495 129.602 65.8358 129.178C62.9343 128.769 60.048 128.819 57.1847 129.492C57.006 129.534 56.8154 129.545 56.6761 129.709C56.8054 129.865 56.998 129.903 57.1668 129.98C60.6667 131.542 64.1065 133.213 67.4452 135.093C69.7131 136.368 71.9649 137.678 73.9606 139.367C74.1432 139.524 74.3413 139.574 74.5761 139.59C75.8539 139.683 77.125 139.854 78.3873 140.088C81.3429 140.638 84.2074 141.514 87.0268 142.554C87.2278 142.627 87.4261 142.746 87.6324 142.729ZM47.7718 62.6955C47.9321 64.2079 48.5281 65.5077 49.5633 66.5905C51.4836 68.5986 53.8985 69.6721 56.5687 70.2609C56.7743 70.3052 56.9203 70.2629 57.0736 70.1134C58.2311 68.9874 59.0274 67.6808 59.1903 66.039C59.2731 65.2119 59.2985 64.3835 59.3325 63.5582C59.3728 62.6178 59.4211 61.6763 59.6726 60.7591C59.791 60.3238 60.1879 59.9608 60.1373 59.5135C60.0857 59.0582 59.8485 58.6214 59.6923 58.1789C59.6734 58.124 59.6589 58.0726 59.644 58.0173C59.5682 57.7651 59.5651 57.4386 59.399 57.2833C59.2054 57.1027 58.8639 57.2506 58.5904 57.2187C58.4954 57.2098 58.4044 57.2005 58.3093 57.1917C56.7998 57.0412 55.3549 56.6172 53.9141 56.1601C53.3955 55.9947 52.8759 55.8212 52.3451 55.69C51.9198 55.5867 51.558 55.6677 51.2674 55.9974C50.28 57.1108 49.289 58.2287 48.5275 59.5187C47.91 60.5502 47.6469 61.6731 47.7718 62.6955ZM96.3012 37.0207C88.8163 37.9518 83.5011 44.7701 84.4276 52.2515C85.3483 59.6518 92.1793 64.9695 99.6048 64.0539C107.059 63.1389 112.351 56.3316 111.442 48.8603C110.584 41.8037 104.195 36.1582 96.3012 37.0207ZM83.9061 46.5794C84.0496 46.517 84.0403 46.4078 84.0838 46.3289C84.3498 45.8307 84.2261 45.4536 83.855 45.0251C80.2611 40.8888 74.4918 39.2774 69.2878 40.9878C62.1671 43.3287 58.2364 50.9787 60.6124 58.1195C62.2786 63.1288 65.8119 66.2675 70.9944 67.2561C76.1312 68.2379 80.48 66.583 83.9483 62.6704C84.8171 61.6899 85.4766 60.5676 86.0085 59.371C86.1305 59.0987 86.1567 58.8789 85.9446 58.6475C85.8077 58.4967 85.7525 58.2788 85.5105 58.1368C84.3921 61.1536 82.4647 63.5012 79.6387 65.0476C76.7901 66.6091 73.759 67.0122 70.5978 66.2832C65.2927 65.0605 61.4035 60.5476 60.8939 55.0743C60.3942 49.6815 63.39 44.5764 68.3354 42.3543C73.4217 40.0823 80.0241 41.2895 83.9061 46.5794ZM45.5865 71.0555C45.7344 71.0293 45.8829 71.007 46.0298 70.9727C46.815 70.7787 47.1223 70.251 46.8819 69.4878C46.7812 69.1651 46.6448 68.8509 46.4816 68.5521C46.1634 67.9537 45.822 67.3663 45.4805 66.7789C44.5189 65.1275 43.8201 63.3541 43.1137 61.5857C42.8425 60.9039 42.5511 60.2246 42.0799 59.6448C40.9856 58.312 39.5329 58.3588 38.5456 59.7744C37.774 60.8819 37.4054 62.1444 37.1945 63.4611C37.1526 63.7195 37.2104 63.8922 37.4979 63.9714C37.8276 64.0619 38.1229 64.2382 38.4 64.4331C38.9799 64.8321 39.4659 65.3324 39.9156 65.8698C41.1639 67.3595 42.4122 68.8493 43.4282 70.5104C43.5303 70.6777 43.6522 70.8057 43.8507 70.8591C44.4247 71.0096 44.9912 71.1323 45.5865 71.0555ZM99.3416 78.1477C100.798 78.031 102.111 77.9808 103.428 78.0935C106.021 78.3159 107.987 79.526 109.307 81.7709C109.622 82.3084 109.902 82.8625 110.144 83.4335C110.462 84.1994 110.772 84.9663 111.102 85.7267C111.273 86.1266 111.495 86.4999 111.803 86.8136C112.353 87.3714 112.878 87.2541 113.123 86.5174C113.295 85.9898 113.306 85.4451 113.288 84.8958C113.228 83.1956 113.006 81.515 112.66 79.8537C112.482 79.0012 112.241 78.1646 111.782 77.4199C110.986 76.12 110.078 75.5119 108.377 75.8629C108.046 75.9319 107.717 76.0129 107.388 76.098C106.326 76.3627 105.257 76.571 104.151 76.5468C103.565 76.5367 102.982 76.5426 102.401 76.5687C101.19 76.6227 100.201 77.1194 99.3416 78.1477ZM36.6256 71.3417C36.6779 71.1678 36.5423 71.0618 36.4778 70.9349C36.2186 70.4518 35.9906 69.9568 35.7933 69.4457C35.673 69.1295 35.7733 68.8803 36.023 68.7844C36.2496 68.6995 36.4897 68.7927 36.6036 69.0893C37.0366 70.2252 37.6952 71.2355 38.3387 72.2558C38.485 72.483 38.6469 72.6716 38.8517 72.8427C39.7966 73.6219 40.7986 74.3328 41.782 75.0583C42.1906 75.3597 42.4938 75.3676 42.9021 75.0644C43.3965 74.6976 43.5875 74.1881 43.5751 73.585C43.5539 72.7093 43.2372 71.9227 42.7925 71.1927C41.6118 69.2535 40.1842 67.4997 38.6527 65.8321C38.4125 65.5714 38.1239 65.3493 37.8292 65.1443C36.8954 64.4904 35.6524 64.5483 34.875 65.5747C34.4565 66.1284 34.1842 66.7418 34.0114 67.4002C33.7074 68.5567 33.6932 69.7105 34.1181 70.8474C34.2634 71.2341 34.2653 71.2502 34.69 71.1819C35.2431 71.0939 35.7801 71.1427 36.3103 71.3026C36.4083 71.3356 36.5122 71.4168 36.6256 71.3417ZM118.835 89.4962C118.769 89.492 118.751 89.4819 118.736 89.4879C118.615 89.5354 118.49 89.5873 118.37 89.6428C114.526 91.4118 110.488 92.5711 106.338 93.3478C103.291 93.9164 100.219 94.2509 97.1209 94.4089C94.157 94.5587 91.1995 94.5279 88.2416 94.2929C88.1099 94.2845 87.9762 94.2273 87.8004 94.3264C87.931 94.3921 88.0104 94.4396 88.0928 94.4786C89.1327 94.9316 90.2096 95.2862 91.3149 95.5392C97.0227 96.8476 102.701 96.746 108.334 95.1384C112.006 94.0933 115.358 92.4009 118.326 89.9832C118.501 89.8393 118.695 89.7217 118.835 89.4962ZM57.5078 126.854C58.1752 127.267 58.8629 127.579 59.4768 128.023C59.643 128.146 59.819 128.149 60.0127 128.129C62.9518 127.876 65.8524 128.11 68.7103 128.831C74.9193 130.397 80.2618 133.564 85.0276 137.761C85.3296 138.026 85.625 138.17 86.1165 138.147C82.8104 133.926 78.912 130.575 74.0051 128.499C68.6847 126.248 63.1662 125.819 57.5078 126.854ZM87.3082 138.438C87.5679 138.39 87.6706 138.194 87.8083 138.05C91.0208 134.753 94.3553 131.584 97.8492 128.583C102.02 125.002 106.383 121.69 111.25 119.094C111.323 119.056 111.424 119.019 111.401 118.83C111.119 118.624 110.804 118.388 110.485 118.154C110.243 117.975 110.067 117.637 109.781 117.61C109.467 117.579 109.222 117.883 108.962 118.062C105.093 120.667 101.462 123.583 97.9992 126.702C94.8115 129.567 91.7773 132.585 88.9798 135.836C88.4 136.507 87.8478 137.204 87.4247 137.987C87.3584 138.114 87.2248 138.224 87.3082 138.438ZM120.548 47.5188C120.334 46.8055 120.294 46.7817 119.631 46.8709C118.827 46.9814 118.028 47.0914 117.225 47.2058C115.659 47.4339 114.095 47.666 112.533 47.8896C112.304 47.9216 112.2 48.0078 112.23 48.2574C112.261 48.507 112.343 48.648 112.623 48.5935C112.714 48.5741 112.808 48.5708 112.905 48.559C115.278 48.2567 117.647 47.9549 120.016 47.6491C120.197 47.6229 120.392 47.6481 120.548 47.5188ZM77.8116 129.426C77.7463 128.691 77.4244 128.13 77.0563 127.558C76.6903 127.839 76.3777 128.123 76.0689 128.471C76.6776 128.805 77.2466 129.116 77.8116 129.426ZM65.333 65.9257C65.3714 66.2397 65.4019 66.4892 65.4393 66.7951C65.6284 66.6045 65.7782 66.4596 65.8783 66.2758C65.7193 66.1113 65.5682 66.0113 65.333 65.9257Z" fill="#070504"/>
<path d="M129.144 137.219C128.855 137.459 128.571 137.706 128.272 137.934C128.007 138.138 127.986 138.133 127.836 137.812C127.191 136.408 126.553 134.999 125.903 133.595C123.443 128.27 120.909 122.979 118.503 117.631C118.379 117.356 118.256 117.081 118.144 116.801C117.915 116.236 117.794 116.182 117.205 116.409C116.077 116.841 114.966 117.308 113.862 117.802C113.537 117.948 113.192 118.072 112.893 118.264C112.526 118.501 112.246 118.42 111.927 118.177C111.462 117.822 111.005 117.457 110.566 117.069C109.873 116.451 109.869 116.448 109.069 116.958C106.443 118.639 103.975 120.538 101.56 122.504C96.931 126.281 92.6117 130.383 88.6579 134.87C88.3103 135.268 87.9722 135.677 87.6511 136.092C87.3301 136.507 87.0321 136.944 86.7206 137.37C86.5562 137.362 86.5108 137.224 86.4376 137.127C84.9103 135.193 83.1864 133.455 81.2763 131.899C81.0083 131.679 80.8696 131.447 80.8273 131.1C80.5685 128.848 80.4882 126.587 80.5055 124.321C80.5544 117.534 81.2313 110.804 82.2794 104.103C82.304 103.937 82.3406 103.769 82.3441 103.597C82.3518 103.359 82.226 103.198 81.9882 103.158C81.7545 103.117 81.5782 103.212 81.4955 103.439C81.4373 103.597 81.4086 103.764 81.3674 103.928C81.316 103.976 81.2947 104.035 81.3157 104.106C81.3267 104.13 81.3246 104.146 81.3024 104.165C81.0999 104.28 81.0741 104.504 81.0032 104.692C80.7767 105.312 80.5798 105.941 80.3276 106.552C79.4921 108.574 78.84 110.659 78.2593 112.761C77.294 116.261 76.468 119.798 75.7007 123.348C75.6615 123.528 75.6574 123.729 75.4619 123.835C73.9205 122.119 72.2706 120.519 70.4325 119.118C69.3649 118.305 68.2771 117.527 67.0883 116.892C66.8739 116.775 66.6458 116.68 66.4212 116.581C66.1881 116.479 65.9748 116.505 65.8223 116.728C65.6799 116.933 65.7376 117.138 65.9931 117.356C66.0483 117.407 66.1176 117.439 66.2064 117.498C65.9694 117.899 65.587 118.145 65.2652 118.454C65.1553 118.558 65.0584 118.5 64.9847 118.399C64.7578 118.079 64.6224 117.74 64.6999 117.339C64.7648 117 64.8944 116.69 65.0577 116.388C65.2948 115.955 65.577 115.557 65.8854 115.172C67.5635 113.091 68.963 110.837 70.2551 108.506C71.5906 106.096 72.9175 103.682 74.4996 101.418C75.6924 99.7114 77.004 98.109 78.5435 96.6994C79.8147 95.535 81.1842 94.5056 82.7835 93.8199C83.1446 93.6655 83.4882 93.6358 83.8794 93.6942C84.6496 93.8125 85.3451 94.0543 86.0346 94.4481C88.5781 95.9062 91.3687 96.611 94.2508 96.9941C97.889 97.481 101.517 97.4502 105.131 96.8003C110.175 95.8897 114.781 93.9664 118.794 90.7307C119.765 89.9502 120.726 89.1547 121.444 88.115C121.545 87.9679 121.713 87.9105 121.858 87.8234C123.817 86.6729 125.649 85.3501 127.305 83.7874C127.546 83.5577 127.809 83.399 128.142 83.3541C129.026 83.4627 129.799 83.838 130.504 84.3605C131.995 85.4571 133.352 86.7047 134.667 88.0065C137.257 90.5743 139.63 93.3115 141.555 96.4303C142.915 98.6295 144.159 100.888 145.308 103.203C147.181 106.965 148.846 110.826 150.518 114.683C150.683 115.059 150.922 115.414 150.938 115.845C147.032 116.641 143.342 118.068 139.714 119.672C138.334 120.282 136.976 120.938 135.662 121.683C135.532 121.756 135.393 121.826 135.283 121.925C135.124 122.067 135.111 122.261 135.203 122.445C135.3 122.638 135.481 122.714 135.679 122.657C135.856 122.607 136.024 122.509 136.189 122.419C136.753 122.121 137.297 121.789 137.954 121.521C138.147 122.433 138.335 123.297 138.517 124.157C138.556 124.344 138.498 124.437 138.29 124.438C137.31 124.439 136.326 124.445 135.368 124.19C135.055 124.106 134.756 123.999 134.465 123.859C133.813 123.535 133.4 123.029 133.293 122.295C133.269 122.126 133.236 121.959 133.231 121.788C133.14 119.237 132.478 116.794 131.777 114.363C130.332 109.359 128.663 104.428 127.104 99.4586C126.621 97.9122 126.121 96.3676 125.752 94.7828C125.726 94.6715 125.693 94.5653 125.659 94.4551C125.583 94.2315 125.421 94.1164 125.183 94.1374C124.957 94.1569 124.817 94.3496 124.817 94.6233C124.819 94.7334 124.849 94.8482 124.863 94.9609C124.806 94.9678 124.751 94.9787 124.694 94.9856C124.124 95.0675 124.063 95.1729 124.233 95.7242C124.336 96.067 124.427 96.4113 124.526 96.7546C124.897 98.0819 124.996 99.4589 125.23 100.811C125.66 103.259 125.898 105.738 126.236 108.201C126.837 112.589 127.463 116.973 127.787 121.395C127.889 122.763 128.144 124.121 128.178 125.502C128.203 126.438 128.354 127.372 128.416 128.312C128.528 130.039 128.666 131.766 128.815 133.488C128.948 134.743 128.989 135.984 129.144 137.219Z" fill="#CF9356"/>
<path d="M46.4794 142.08C46.2334 140.836 46.1891 139.571 46.1654 138.307C46.0512 132.659 46.5576 127.041 47.0639 121.423C47.6932 114.471 48.687 107.559 49.6813 100.652C50.0377 98.1861 50.3448 95.7178 50.6056 93.2388C50.6381 92.9366 50.6383 92.671 51.0678 92.7084C51.2699 92.7246 51.4183 92.5676 51.437 92.3529C51.4572 92.1175 51.351 91.9507 51.1214 91.8767C51.0153 91.8447 50.9017 91.8177 50.7932 91.7983C49.2533 91.533 47.8168 90.9773 46.4244 90.2814C43.7005 88.9188 41.0751 87.3931 38.7038 85.4728C36.8765 83.9925 35.3497 82.2631 34.3935 80.0881C33.6312 78.3633 33.1347 76.5733 33.1792 74.6641C33.1909 74.2255 33.253 73.7972 33.399 73.3871C33.7579 72.3792 34.5539 71.906 35.6152 72.0664C36.0315 72.1299 36.4144 72.2874 36.778 72.4881C37.0758 72.6519 37.3706 72.8242 37.6371 73.0327C38.943 74.0578 40.2631 75.0649 41.6008 76.0494C41.9958 76.3402 42.356 76.6802 42.6643 77.0633C42.9049 77.3607 43.0997 77.6842 43.1786 78.0626C43.3271 78.7757 42.9695 79.2933 42.2479 79.406C41.711 79.4921 41.1973 79.3669 40.6918 79.2081C39.8073 78.924 38.9871 78.4972 38.1836 78.0398C37.9686 77.919 37.7638 77.7806 37.5463 77.6724C37.2414 77.5176 36.9878 77.5813 36.8614 77.8174C36.7486 78.0313 36.8134 78.2604 37.0961 78.4342C38.2886 79.1668 39.504 79.8516 40.8777 80.1944C41.3748 80.3175 41.8766 80.3788 42.3903 80.3037C42.6953 80.2583 43.0143 80.1948 43.2256 79.9851C43.5792 79.6355 43.91 79.7013 44.2963 79.887C44.7694 80.1151 45.2633 80.3121 45.7466 80.5227C47.746 81.4059 49.4648 82.6666 50.9326 84.2807C51.0835 84.4461 51.243 84.6145 51.4192 84.7523C51.6003 84.8976 51.8086 84.8967 51.9836 84.7242C52.151 84.5566 52.1757 84.3575 52.0374 84.162C51.9528 84.0375 51.8379 83.9331 51.7386 83.8227C49.8022 81.6163 47.3915 80.1093 44.6702 79.0692C44.5461 79.023 44.425 78.9684 44.3009 78.9223C44.1638 78.8696 44.076 78.7863 44.0975 78.6285C44.2057 77.7083 43.7746 76.9889 43.2151 76.3219C43.1575 76.2513 43.0802 76.1872 43.0795 76.0811C44.5896 74.7322 44.6181 74.6307 44.2136 71.9226C44.3964 71.8471 44.5787 71.9351 44.7602 71.9497C45.4079 72.0013 46.0483 71.9598 46.6501 71.7024C47.6406 71.2832 48.0646 70.3734 47.7793 69.3421C47.6413 68.8482 47.4485 68.3734 47.1791 67.9406C45.8526 65.7782 44.7961 63.4847 43.8902 61.1197C43.5012 60.1092 43.024 59.1461 42.1462 58.4486C41.947 58.2891 42.0204 58.1208 42.0802 57.9419C42.3358 57.1917 42.5863 56.4339 42.976 55.7449C44.0314 53.8837 45.2564 52.1408 46.7063 50.5664C46.8577 50.4008 47.0271 50.2494 47.196 50.0939C48.4844 48.9029 49.9929 48.5102 51.6996 48.8695C52.2153 48.9781 52.726 49.1118 53.229 49.2832C55.1269 49.9377 56.9278 50.8003 58.7164 51.697C59.0474 51.8649 59.1726 52.0538 59.1263 52.4435C58.9864 53.5718 59.0099 54.7006 59.1723 55.8287C59.1945 55.9771 59.2328 56.1236 59.168 56.2949C58.7025 56.3641 58.239 56.2818 57.777 56.2116C56.5407 56.0236 55.3455 55.6713 54.1626 55.2848C53.6053 55.1037 53.052 54.9221 52.4769 54.7963C51.7254 54.6307 51.0952 54.8221 50.5806 55.3916C49.6053 56.4708 48.6532 57.5717 47.8857 58.8135C46.4054 61.2086 46.5441 63.6142 47.9686 65.9771C48.7527 67.2785 49.8878 68.2428 51.1631 69.0511C52.8904 70.1473 54.7827 70.823 56.7769 71.2289C57.0283 71.2798 57.2106 71.2004 57.3906 71.0354C59.0143 69.546 60.0518 67.7728 60.1355 65.5157C60.1753 64.4037 60.2357 63.2933 60.3122 62.1809C60.3432 61.6992 60.4144 61.2125 60.6173 60.7669C60.8124 60.7921 60.8427 60.9395 60.9053 61.0504C61.7091 62.48 62.7358 63.7272 63.9666 64.8065C64.2135 65.0214 64.3391 65.2471 64.3664 65.5706C64.4297 66.3227 64.5615 67.0665 64.5357 67.8254C64.5244 68.1005 64.4715 68.3358 64.3496 68.5754C63.229 70.7386 62.6493 73.0482 62.6033 75.4805C62.5957 75.8859 62.4934 76.119 62.1066 76.297C61.4766 76.5905 61.001 77.0776 60.6723 77.6978C60.0524 78.8766 60.3757 80.1853 61.4737 80.9458C62.0761 81.3624 62.7606 81.581 63.472 81.6861C64.013 81.7671 64.5596 81.7942 65.1047 81.842C65.2078 81.8498 65.3114 81.8617 65.4235 81.8766C65.3651 82.1002 65.196 82.1209 65.0786 82.1965C64.7758 82.3929 64.4915 82.6074 64.2553 82.8813C63.6473 83.5889 63.5218 84.4335 63.9883 85.2426C64.2106 85.624 64.2277 85.965 64.1215 86.3661C63.877 87.307 63.438 88.1614 62.9996 89.0198C62.8545 89.303 62.6922 89.5802 62.5345 89.861C62.4607 89.9925 62.3668 90.1266 62.3941 90.2826C62.5968 91.3731 62.4192 92.4611 62.3725 93.5494C62.1183 99.259 61.7656 104.964 61.3179 110.661C60.9821 114.967 60.5885 119.268 59.9882 123.549C59.962 123.736 59.9278 123.924 59.9263 124.112C59.9221 124.378 60.083 124.559 60.3153 124.588C60.5436 124.617 60.7924 124.48 60.7841 124.212C60.7653 123.556 61.2183 123.252 61.6373 122.902C63.3902 121.434 65.0593 119.882 66.7315 118.321C67.1495 117.931 67.1531 117.926 67.6326 118.24C67.8369 118.374 68.0655 118.473 68.231 118.657C68.2398 118.729 68.2451 118.806 68.2661 118.877C68.5788 119.999 69.0004 121.075 69.497 122.13C69.8065 122.79 70.116 123.451 70.3444 124.15C70.5345 124.736 70.545 125.29 70.1282 125.791C70.0318 125.904 69.9449 126.029 69.9485 126.192C68.8525 126.016 67.7647 125.773 66.662 125.642C63.4541 125.266 60.2634 125.366 57.0899 125.974C56.7945 126.031 56.5011 126.104 56.2076 126.176C55.8145 126.269 55.637 126.454 55.6251 126.758C55.6126 127.091 55.8391 127.206 56.1039 127.3C56.7411 127.533 57.3564 127.821 57.9591 128.14C58.0244 128.173 58.1008 128.196 58.1322 128.319C57.9155 128.451 57.6559 128.467 57.4098 128.525C56.7112 128.693 56.0166 128.859 55.318 129.026C55.0518 129.087 54.8834 129.247 54.8303 129.515C54.7712 129.8 54.8854 129.966 55.2742 130.139C56.2031 130.552 57.1426 130.952 58.0684 131.374C59.6091 132.081 61.1574 132.782 62.649 133.588C62.5912 133.751 62.4812 133.887 62.3607 134.003C61.6344 134.713 60.9227 135.442 60.1729 136.126C58.4942 137.667 56.8251 139.219 55.0566 140.66C53.6784 141.785 52.1606 142.636 50.4656 143.142C49.3345 143.48 48.2286 143.423 47.2753 142.575C47.0434 142.383 46.8243 142.128 46.4794 142.08Z" fill="#6E4F93"/>
<path d="M79.0577 91.4552C76.9128 90.7859 74.9485 89.7554 73.1369 88.4367C73.0922 88.4054 73.0576 88.3565 73.0235 88.3116C73.014 88.3005 73.0231 88.2749 73.0213 88.1934C73.4776 88.1826 73.9364 88.1592 74.3941 88.1605C75.7174 88.1581 77.0345 88.0707 78.35 87.9712C82.7183 87.6457 87.0601 87.0702 91.3817 86.3623C94.658 85.8271 97.9196 85.2038 101.167 84.5006C103.583 83.9766 105.992 83.433 108.376 82.7821C108.779 82.6716 108.783 82.6711 108.978 83.0599C109.338 83.7676 109.613 84.5102 109.907 85.2464C110.118 85.7721 110.345 86.2918 110.649 86.7695C110.892 87.1564 111.179 87.5012 111.562 87.7608C112.333 88.2835 113.222 88.1054 113.722 87.3171C114.048 86.8075 114.137 86.2328 114.171 85.6404C114.213 84.8468 114.137 84.0554 114.077 83.2661C114.047 82.8531 113.984 82.4399 113.938 82.0289C113.877 81.4971 113.876 81.489 114.405 81.3386C115.005 81.1672 115.594 80.9727 116.174 80.7384C117.63 80.1478 118.946 79.3497 119.873 78.0395C120.73 76.8317 121.052 75.5178 120.529 74.0783C120.184 73.1278 119.498 72.468 118.635 71.9853C117.49 71.3448 116.225 71.1236 114.946 70.9857C112.954 70.7675 110.956 70.7665 108.953 70.7867C106.537 70.8082 104.123 70.9152 101.715 71.0338C100.339 71.104 98.9646 71.1902 97.5937 71.3046C91.947 71.7659 86.3303 72.4727 80.7288 73.3043C78.4337 73.6461 76.1307 73.9561 73.8372 74.3099C71.1511 74.728 68.4542 75.0576 65.7593 75.4033C65.1601 75.4806 64.5608 75.5579 63.9729 75.6951C63.5476 75.792 63.506 75.7522 63.5233 75.3252C63.5639 74.2866 63.6874 73.2584 63.9397 72.2471C64.3516 70.6035 64.9926 69.0626 65.9486 67.6589C66.0108 67.5655 66.0769 67.4717 66.1436 67.3818C66.6504 66.7153 66.6584 66.7143 67.429 67.0695C73.4853 69.8591 80.5738 68.2248 84.7924 63.0643C85.4495 62.2568 86.0087 61.3837 86.4795 60.456C86.5716 60.2731 86.6235 60.0625 86.8034 59.9302C87.023 59.9892 87.1211 60.1896 87.2575 60.3364C90.1818 63.4393 93.7807 65.0421 98.0405 65.0322C105.822 65.0209 112.217 58.7488 112.431 50.9728C112.442 50.5956 112.436 50.2163 112.419 49.8426C112.406 49.6031 112.495 49.4902 112.73 49.4778C112.86 49.4701 112.992 49.4458 113.125 49.4296C115.373 49.1425 117.618 48.856 119.866 48.5689C120.072 48.5438 120.279 48.5349 120.485 48.5178C120.627 48.909 120.999 49.1087 121.247 49.4052C122.345 50.7008 123.49 51.9459 124.698 53.1342C125.636 54.0572 126.552 55.0033 127.508 55.9078C128.164 56.5263 128.82 57.1488 129.487 57.7577C129.878 58.1144 130.273 58.4786 130.113 59.1029C130.097 59.1702 130.127 59.2523 130.136 59.3247C130.222 60.0618 130.513 60.7412 130.769 61.4289C131.187 62.5422 131.466 63.6928 131.71 64.8478C131.915 65.8236 131.91 66.825 131.881 67.8254C131.824 69.8588 131.435 71.8304 130.792 73.7515C130.1 75.8093 128.891 77.587 127.638 79.3374C127.352 79.736 126.979 80.0634 126.679 80.4474C126.05 81.2514 125.338 81.9798 124.584 82.6603C122.192 84.8195 119.533 86.5907 116.627 87.9875C114.98 88.7812 113.286 89.4621 111.532 89.9869C110.22 90.3802 108.908 90.7774 107.563 91.0725C107.122 91.1714 106.671 91.2305 106.241 91.3525C105.443 91.5767 104.624 91.7258 103.812 91.8332C101.758 92.1087 99.7069 92.4084 97.6314 92.5068C96.9573 92.5402 96.2782 92.566 95.6036 92.5953C94.4984 92.6446 93.3901 92.5676 92.281 92.5846C91.0003 92.6022 89.724 92.5212 88.4522 92.4111C85.4134 92.1492 82.3829 91.821 79.3637 91.3852C79.243 91.3672 79.1375 91.3393 79.0577 91.4552Z" fill="#6E4F93"/>
<path d="M84.9396 154.458C87.0879 154.988 89.2407 155.522 91.389 156.052C91.5156 156.086 91.6433 156.127 91.7725 156.148C92.0676 156.19 92.2883 156.056 92.3358 155.81C92.3848 155.542 92.2454 155.371 92.0107 155.29C91.7289 155.189 91.4383 155.119 91.1499 155.031C91.1341 154.735 90.9069 154.681 90.6832 154.623C90.354 154.536 90.0197 154.475 89.6996 154.363C87.8685 153.721 86.047 153.057 84.2489 152.316C83.1476 151.863 82.0949 151.305 81.2043 150.503C80.3644 149.747 79.5316 148.983 78.6346 148.296C78.5262 148.211 78.3554 148.151 78.4114 147.907C78.7575 147.864 79.0975 148.072 79.4473 147.993L79.4603 147.999C79.5121 148.021 79.5678 148.043 79.6196 148.065C79.6739 148.075 79.7352 148.076 79.783 148.099C81.7821 148.912 83.8727 149.372 85.9872 149.759C88.3274 150.188 90.6097 150.812 92.7565 151.865C92.8394 151.908 92.9258 151.946 93.0188 151.972C93.2555 152.037 93.4268 151.934 93.5285 151.73C93.6236 151.538 93.5798 151.348 93.4097 151.225C93.2264 151.097 93.019 151.004 92.8216 150.893C92.7987 150.638 92.6421 150.494 92.4181 150.399C92.1418 150.277 91.8654 150.156 91.5993 150.017C89.6896 149.033 87.7385 148.144 85.7135 147.419C84.5944 147.02 83.4688 146.635 82.3599 146.219C80.7842 145.627 79.1581 145.225 77.5184 144.878C75.1783 144.384 72.8266 143.961 70.5293 143.281C69.5589 142.995 68.5763 142.711 67.5611 142.594C67.5418 142.102 67.8344 141.789 68.1898 141.52C68.8364 141.029 69.5926 140.797 70.3801 140.656C72.3347 140.303 74.2904 140.428 76.2418 140.684C80.1571 141.198 83.9037 142.337 87.5801 143.739C90.0657 144.689 92.4906 145.778 94.8937 146.922C95.063 147.003 95.2741 147.059 95.3809 147.197C95.6596 147.539 95.9911 147.511 96.353 147.43C98.6274 146.919 100.81 146.158 102.92 145.173C105.011 144.199 106.755 142.793 108.185 140.984C109.051 139.885 109.825 138.724 110.593 137.56C111.672 135.921 112.737 134.271 113.99 132.757C114.666 131.939 115.385 131.169 116.253 130.548C116.921 130.07 117.642 129.713 118.479 129.647C118.864 129.617 119.233 129.661 119.589 129.806C120.376 130.126 120.768 130.826 120.634 131.664C120.515 132.397 120.118 132.993 119.659 133.552C119.123 134.21 118.508 134.799 117.889 135.382C116.456 136.729 115.287 138.261 114.57 140.114C114.325 140.748 114.126 141.397 113.987 142.064C113.964 142.173 113.937 142.287 113.938 142.397C113.944 142.613 114.071 142.748 114.273 142.797C114.479 142.845 114.641 142.764 114.749 142.584C114.858 142.407 114.818 142.175 114.958 142.015C115.047 142.012 115.103 142.067 115.151 142.126C116.255 143.409 117.174 144.804 117.753 146.404C118.012 147.116 118.143 147.86 118.239 148.608C118.262 148.797 118.277 148.983 118.319 149.166C118.394 149.475 118.575 149.617 118.828 149.586C119.086 149.554 119.232 149.377 119.192 149.051C119.123 148.451 119.045 147.852 118.92 147.262C118.847 146.932 118.943 146.745 119.192 146.543C123.751 142.762 128.304 138.97 133.007 135.368C134.849 133.959 136.709 132.567 138.6 131.225C139.705 130.44 140.82 129.662 141.974 128.945C142.084 128.875 142.202 128.807 142.298 128.718C142.481 128.548 142.514 128.279 142.37 128.109C142.222 127.931 142.018 127.87 141.812 127.989C141.469 128.19 141.145 128.413 140.807 128.622C140.636 128.729 140.482 128.87 140.294 128.906C140.17 128.827 140.17 128.729 140.159 128.636C139.932 126.339 139.429 124.097 138.929 121.85C138.918 121.794 138.924 121.736 138.921 121.679C140.294 121.413 141.698 121.47 143.08 121.277C144.236 121.115 145.404 121.005 146.56 120.843C147.312 120.739 148.063 120.807 148.813 120.826C149.17 120.835 149.391 121.004 149.535 121.346C150.113 122.701 150.494 124.117 150.749 125.565C150.895 126.397 150.957 127.239 150.98 128.094C151.004 129.055 151.035 130.012 150.943 130.966C150.84 132.058 150.607 133.128 150.004 134.076C149.311 135.161 148.477 136.125 147.52 136.986C145.775 138.551 143.897 139.937 141.962 141.248C138.822 143.372 135.654 145.458 132.438 147.461C130.92 148.406 129.402 149.36 127.878 150.298C125.937 151.491 123.98 152.666 121.982 153.764C120.57 154.541 119.07 155.104 117.494 155.419C116.322 155.656 115.205 156.005 114.111 156.482C112.563 157.157 111.187 158.126 109.772 159.018C108.27 159.966 106.719 160.813 105.089 161.515C103.529 162.188 101.913 162.671 100.223 162.918C99.4245 163.036 98.6226 163.093 97.8261 163.195C97.657 163.216 97.4884 163.24 97.32 163.232C96.5143 163.192 95.7034 163.242 94.9009 163.128C94.7637 163.108 94.6358 163.131 94.549 163.256C92.2489 162.888 89.9149 161.273 89.582 159.819C89.698 159.698 89.8305 159.78 89.9482 159.807C91.1164 160.04 92.3018 160.112 93.4881 160.191C93.5826 160.196 93.6777 160.205 93.7707 160.198C94.0263 160.183 94.2122 160.066 94.2321 159.794C94.2524 159.526 94.1015 159.361 93.84 159.327C93.5243 159.284 93.2039 159.27 92.8851 159.235C92.587 159.202 92.2796 159.228 91.9896 159.128C91.9559 158.953 91.8107 158.901 91.669 158.845C91.0797 158.602 90.4894 158.352 89.9 158.109C89.2032 157.822 88.5169 157.522 87.8959 157.088C86.9261 156.405 86.0768 155.574 85.1493 154.837C85.0425 154.732 84.9553 154.62 84.9396 154.458Z" fill="#6E4F93"/>
<path d="M84.6416 44.5842C83.2883 43.0378 81.7084 41.7766 79.8539 40.8756C77.9993 39.9747 76.0314 39.5166 73.9443 39.4203C74.0141 39.1218 74.2346 39.0213 74.3939 38.8874C76.417 37.2226 78.6379 35.8727 80.9974 34.755C83.5655 33.5383 86.2433 32.6514 89.0139 32.0228C91.5978 31.4374 94.2138 31.0809 96.8587 30.9947C102.714 30.8061 108.351 31.8331 113.738 34.1611C114.467 34.4765 115.183 34.818 115.835 35.2734C116.014 35.3987 116.199 35.4741 116.414 35.3621C116.556 35.2875 116.701 35.3065 116.854 35.3245C120.536 35.7692 124.151 36.5 127.634 37.8228C131.319 39.2232 134.71 41.1293 137.69 43.7188C139.468 45.2663 141.021 47.0049 142.07 49.1439C142.712 50.4504 143.084 51.8225 142.978 53.298C142.813 55.5896 141.208 57.3667 138.943 57.7825C137.376 58.0679 135.864 57.8319 134.373 57.3318C132.422 56.6756 130.663 55.6487 128.995 54.4717C126.782 52.9119 124.741 51.1554 122.955 49.1104C121.601 47.56 120.544 45.8304 119.857 43.884C119.82 43.7782 119.786 43.668 119.737 43.5678C119.597 43.2907 119.376 43.191 119.143 43.289C118.914 43.3864 118.818 43.6024 118.917 43.909C119.017 44.2317 119.154 44.5459 119.266 44.8631C119.394 45.211 119.609 45.528 119.674 45.8918C119.53 46.0197 119.373 46.0062 119.228 46.0239C117.044 46.3398 114.856 46.6522 112.672 46.968C112.596 46.9774 112.524 46.9903 112.447 46.9996C112.028 47.0468 112.024 47.0472 111.901 46.6415C111.495 45.2572 110.953 43.9304 110.145 42.7341C107.141 38.2764 102.936 35.9265 97.574 36.0792C91.9316 36.2418 87.7363 38.985 85.0261 43.953C84.9159 44.1544 84.8619 44.3816 84.6416 44.5842Z" fill="#6E4F93"/>
<path d="M118.178 128.757C117.156 128.89 116.282 129.36 115.48 129.981C114.126 131.037 113.062 132.356 112.066 133.74C110.604 135.778 109.32 137.941 107.826 139.958C106.252 142.086 104.246 143.659 101.801 144.681C100.145 145.374 98.4502 145.944 96.7187 146.417C96.3749 146.513 96.0691 146.485 95.7386 146.321C94.6738 145.797 93.5912 145.296 92.5097 144.803C92.259 144.691 92.0688 144.539 91.9069 144.317C90.7389 142.716 89.5597 141.123 88.3887 139.53C88.075 139.103 88.0807 139.049 88.4474 138.673C92.1693 134.865 96.0418 131.217 100.141 127.82C102.626 125.759 105.204 123.818 107.924 122.072C110.727 120.271 113.669 118.743 116.769 117.531C116.839 117.502 116.91 117.477 116.98 117.452C117.356 117.321 117.368 117.319 117.531 117.683C117.883 118.457 118.227 119.232 118.583 120.002C120.843 124.861 123.111 129.715 125.368 134.574C125.923 135.773 126.462 136.977 127.006 138.182C127.252 138.723 127.253 138.735 126.818 139.083C124.199 141.188 121.627 143.345 119.047 145.499C118.988 145.547 118.932 145.594 118.868 145.639C118.567 145.851 118.543 145.854 118.386 145.502C117.769 144.135 116.978 142.875 116.013 141.731C115.865 141.557 115.732 141.369 115.559 141.227C115.272 140.988 115.287 140.737 115.412 140.424C115.995 138.943 116.881 137.666 117.993 136.538C118.865 135.651 119.82 134.844 120.572 133.841C121.008 133.26 121.352 132.634 121.497 131.918C121.81 130.364 120.845 129.019 119.25 128.769C118.895 128.706 118.533 128.693 118.178 128.757Z" fill="#3F713F"/>
<path d="M61.8191 55.6295C61.0817 49.6285 64.7435 44.1234 70.3102 42.5729C75.3237 41.1759 80.6041 43.1656 83.4209 47.495C83.6072 47.7827 83.6684 48.0489 83.6161 48.3903C83.1964 51.2074 83.5768 53.9185 84.7436 56.513C84.8955 56.8539 84.9149 57.1457 84.7927 57.4834C83.3006 61.7878 80.3591 64.529 75.9011 65.4905C69.7394 66.8195 63.701 63.0391 62.0942 56.9441C61.9578 56.4297 61.8772 55.9043 61.8191 55.6295Z" fill="#A2EAF0"/>
<path d="M94.5638 163.251C94.6507 163.126 94.7745 163.102 94.9158 163.122C95.7182 163.236 96.5292 163.186 97.3348 163.227C97.5033 163.235 97.6719 163.21 97.8409 163.189C98.6374 163.088 99.4393 163.031 100.238 162.913C101.928 162.665 103.544 162.186 105.104 161.509C106.734 160.808 108.285 159.96 109.787 159.013C111.201 158.121 112.578 157.152 114.126 156.477C115.216 156 116.337 155.647 117.509 155.414C119.084 155.099 120.584 154.535 121.997 153.758C123.995 152.66 125.948 151.486 127.893 150.292C129.417 149.354 130.935 148.405 132.453 147.455C135.672 145.448 138.837 143.366 141.977 141.242C143.912 139.931 145.789 138.542 147.535 136.98C148.496 136.119 149.33 135.155 150.018 134.07C150.622 133.122 150.854 132.052 150.958 130.961C151.05 130.01 151.019 129.05 150.995 128.088C150.973 127.237 150.91 126.391 150.764 125.559C150.51 124.116 150.128 122.7 149.549 121.341C149.406 121.003 149.185 120.829 148.828 120.82C148.078 120.801 147.326 120.734 146.575 120.838C145.418 121 144.251 121.11 143.094 121.271C141.713 121.465 140.309 121.408 138.936 121.673C138.788 121.099 138.787 121.095 139.286 120.863C142.322 119.466 145.424 118.237 148.637 117.318C149.58 117.047 150.532 116.808 151.505 116.685C151.787 116.651 151.923 116.696 152.038 117C152.892 119.306 153.512 121.673 154.034 124.069C154.475 126.078 154.852 128.095 155.102 130.14C155.359 132.208 154.854 134.055 153.668 135.757C152.326 137.673 150.668 139.289 148.928 140.83C146.75 142.759 144.431 144.509 142.048 146.173C137.975 149.015 133.779 151.656 129.369 153.944C126.011 155.682 122.519 157.093 118.911 158.225C118.588 158.325 118.267 158.434 117.94 158.539C117.775 158.592 117.686 158.562 117.598 158.377C117.391 157.924 117.182 157.88 116.776 158.208C115.835 158.964 114.913 159.743 113.972 160.499C112.629 161.582 111.174 162.479 109.625 163.24C107.009 164.532 104.265 164.974 101.376 164.571C99.19 164.266 97.0253 163.836 94.8683 163.369C94.7673 163.344 94.6481 163.339 94.5638 163.251Z" fill="#5A3A83"/>
<path d="M112.545 76.9042C113.447 76.6999 114.274 76.5131 115.097 76.3227C115.558 76.2174 116.015 76.1125 116.469 75.9875C116.896 75.8659 117.073 75.6441 116.992 75.3843C116.909 75.1085 116.667 75.0278 116.238 75.1293C115.007 75.4186 113.781 75.7195 112.542 75.9732C112.139 76.055 111.835 76.0104 111.518 75.7183C110.746 75.0201 109.823 74.7857 108.787 74.904C108.107 74.9832 107.448 75.1413 106.795 75.315C105.652 75.6222 104.49 75.6784 103.315 75.6585C102.541 75.6428 101.761 75.6729 101.018 75.9188C99.8636 76.2969 98.9532 77.0046 98.3432 78.0637C98.2047 78.3012 98.0515 78.418 97.7768 78.4434C95.1642 78.6932 92.5575 78.9586 89.9453 79.2125C88.6126 79.3386 87.2787 79.4893 85.9426 79.5873C83.4407 79.7745 80.9422 80.0227 78.4409 80.2139C75.5069 80.4418 72.5709 80.6535 69.635 80.8325C67.9437 80.933 66.2463 81.0505 64.5466 80.9151C64.002 80.8713 63.458 80.7989 62.9293 80.6511C62.6543 80.5744 62.3921 80.4675 62.1495 80.3215C61.215 79.7616 61.0112 78.7284 61.6549 77.845C62.131 77.1944 62.8129 76.8905 63.5588 76.7095C64.1457 76.5642 64.7415 76.4587 65.3402 76.3774C67.3056 76.1127 69.2764 75.8923 71.2363 75.616C74.7102 75.1261 78.1862 74.6196 81.6557 74.0935C85.8911 73.4493 90.1467 72.9374 94.4071 72.4984C97.3323 72.1982 100.274 72.0021 103.212 71.8718C106.093 71.7445 108.98 71.6327 111.865 71.709C113.599 71.7546 115.336 71.8242 117.024 72.3042C117.481 72.4322 117.916 72.616 118.325 72.852C119.639 73.6106 120.169 75.0043 119.695 76.443C119.361 77.4561 118.688 78.2002 117.848 78.8135C116.705 79.6559 115.384 80.1114 114.046 80.5242C113.825 80.592 113.685 80.5519 113.646 80.2953C113.459 79.1334 113.135 78.0169 112.545 76.9042Z" fill="#5A3A83"/>
<path d="M65.0498 86.4501C65.5234 86.715 65.9557 86.9767 66.4285 87.1682C67.7177 87.6888 69.0731 87.9153 70.4459 88.0499C70.5947 88.0644 70.746 88.099 70.8959 88.0889C71.228 88.0646 71.4549 88.2166 71.6932 88.4285C72.7915 89.426 74.0418 90.1964 75.3512 90.8821C77.1488 91.8186 79.0361 92.5194 80.9922 93.0484C81.2204 93.1103 81.445 93.1769 81.6611 93.2403C81.6658 93.3787 81.5827 93.4011 81.5218 93.4371C79.0237 94.825 77.0144 96.77 75.2333 98.9772C73.6153 100.981 72.2593 103.156 70.9876 105.387C70.0359 107.06 69.0972 108.739 68.1325 110.405C67.3567 111.746 66.4609 113.008 65.5029 114.228C65.1319 114.702 64.7614 115.181 64.4446 115.697C64.2162 116.068 64.0266 116.455 63.9107 116.878C63.7025 117.614 63.8062 118.296 64.2657 118.914C64.378 119.063 64.5124 119.194 64.2956 119.392C63.2766 120.313 62.263 121.246 61.1933 122.12C61.0569 121.941 61.1514 121.778 61.169 121.621C61.7939 116.605 62.179 111.566 62.5354 106.526C62.8421 102.183 63.091 97.8342 63.2901 93.4795C63.334 92.5018 63.3735 91.5206 63.4048 90.5404C63.4119 90.3311 63.4366 90.132 63.5403 89.9437C64.1489 88.8398 64.7143 87.7167 65.0498 86.4501Z" fill="#FFEE00"/>
<path d="M84.3708 86.4514C82.5498 86.7271 80.4781 86.8904 78.4104 87.0532C75.7601 87.2627 73.1045 87.3952 70.4459 87.1359C69.2014 87.0143 67.9818 86.7956 66.8071 86.3427C66.2579 86.128 65.7492 85.8429 65.3021 85.4604C65.0873 85.2742 64.8987 85.0685 64.7727 84.8061C64.5331 84.3165 64.5907 83.8519 64.962 83.447C65.1926 83.1942 65.4763 83.0083 65.784 82.8522C66.396 82.5446 67.0419 82.3472 67.7132 82.2243C68.381 82.1059 69.0442 81.984 69.6922 81.77C70.0259 81.6598 70.3986 81.6674 70.7553 81.6442C71.6956 81.5824 72.6388 81.5448 73.578 81.4749C75.6668 81.3177 77.7532 81.1404 79.8384 80.9877C83.037 80.752 86.2302 80.4721 89.4255 80.1756C90.9081 80.0394 92.3914 79.8744 93.8731 79.7301C95.6576 79.557 97.4386 79.3884 99.2237 79.2193C99.28 79.2124 99.3474 79.2287 99.3892 79.2031C100.129 78.8063 100.94 78.9564 101.721 78.9264C102.835 78.8842 103.943 78.9938 105.02 79.3157C106.28 79.6929 107.267 80.4506 108.036 81.4964C108.276 81.8225 108.255 81.8863 107.871 81.9863C106.212 82.4178 104.547 82.8297 102.866 83.1862C100.912 83.6049 98.9579 84.0315 97.0007 84.43C95.7451 84.6856 94.4835 84.9256 93.2179 85.1334C90.3577 85.5973 87.4928 86.0904 84.3708 86.4514Z" fill="#5A3A83"/>
<path d="M129.143 137.221C128.988 135.986 128.947 134.745 128.84 133.508C128.691 131.786 128.554 130.058 128.441 128.332C128.379 127.392 128.224 126.459 128.203 125.522C128.169 124.141 127.91 122.788 127.812 121.415C127.488 116.993 126.862 112.604 126.261 108.221C125.923 105.758 125.685 103.278 125.256 100.831C125.017 99.4791 124.922 98.1017 124.551 96.7743C124.456 96.4305 124.365 96.0862 124.258 95.7439C124.088 95.1887 124.149 95.0872 124.719 95.0053C124.776 94.9984 124.831 94.9875 124.888 94.9806C126.355 100.464 128.27 105.81 129.934 111.232C130.72 113.792 131.499 116.352 132.024 118.98C132.183 119.777 132.274 120.583 132.319 121.391C132.332 121.598 132.345 121.804 132.362 122.011C132.485 123.548 133.32 124.5 134.769 124.956C135.733 125.259 136.724 125.375 137.725 125.347C138.743 125.316 138.734 125.309 138.944 126.293C139.111 127.089 139.201 127.895 139.287 128.698C139.301 128.847 139.283 129.001 139.297 129.15C139.336 129.533 139.156 129.768 138.843 129.982C136.719 131.451 134.649 132.999 132.598 134.569C131.434 135.442 130.289 136.334 129.143 137.221Z" fill="#A76A2B"/>
<path d="M87.6311 142.729C87.4253 142.75 87.227 142.632 87.0255 142.554C84.2061 141.514 81.3456 140.638 78.3861 140.088C77.1237 139.854 75.8567 139.682 74.5748 139.59C74.34 139.574 74.1415 139.52 73.9593 139.367C71.9596 137.679 69.7118 136.368 67.4439 135.093C64.1052 133.213 60.6614 131.543 57.1655 129.98C57.0012 129.906 56.8046 129.869 56.6748 129.709C56.8141 129.545 57.0088 129.534 57.1834 129.492C60.0467 128.819 62.9284 128.765 65.8345 129.178C68.8482 129.603 71.7071 130.532 74.4574 131.809C77.797 133.362 80.837 135.373 83.6754 137.706C84.8246 138.652 85.7475 139.785 86.5751 141.008C86.9137 141.505 87.2675 141.993 87.6142 142.49C87.6538 142.547 87.7064 142.61 87.6311 142.729Z" fill="#3F713F"/>
<path d="M47.7708 62.6974C47.6418 61.6755 47.9095 60.5561 48.5179 59.5176C49.2795 58.2275 50.2664 57.1101 51.2578 55.9962C51.5489 55.6706 51.9103 55.5856 52.3356 55.6889C52.8659 55.8161 53.3859 55.9935 53.9046 56.1589C55.3413 56.6166 56.7862 57.0405 58.2998 57.1906C58.3948 57.1994 58.4858 57.2087 58.5809 57.2175C58.8584 57.2489 59.2004 57.105 59.3895 57.2821C59.5556 57.4375 59.5587 57.7639 59.6344 58.0161C59.6494 58.0715 59.6643 58.1268 59.6828 58.1777C59.839 58.6202 60.0762 59.057 60.1278 59.5123C60.1783 59.9596 59.7815 60.3227 59.6631 60.7579C59.4116 61.6752 59.3632 62.6166 59.3229 63.5571C59.2895 64.3864 59.264 65.2147 59.1808 66.0379C59.0183 67.6837 58.2261 68.9898 57.0641 70.1122C56.9108 70.2617 56.7648 70.304 56.5592 70.2597C53.889 69.6709 51.4741 68.5974 49.5537 66.5893C48.5271 65.5096 47.9311 64.2098 47.7708 62.6974Z" fill="#FFEE00"/>
<path d="M79.0567 91.4535C79.1365 91.3375 79.242 91.3655 79.3582 91.3799C82.3774 91.8157 85.412 92.1435 88.4467 92.4058C89.7185 92.516 90.9948 92.5969 92.2755 92.5793C93.3806 92.5628 94.4929 92.6393 95.5981 92.59C96.2727 92.5607 96.9513 92.5308 97.6259 92.5015C99.7015 92.4031 101.752 92.1035 103.806 91.8279C104.618 91.7165 105.438 91.5714 106.236 91.3472C106.67 91.2247 107.116 91.1661 107.558 91.0672C108.898 90.7686 110.21 90.3754 111.527 89.9816C113.281 89.4568 114.974 88.7759 116.622 87.9822C119.527 86.5854 122.187 84.8102 124.579 82.655C125.333 81.9745 126.045 81.2502 126.674 80.4421C126.974 80.0581 127.346 79.7307 127.633 79.3321C128.886 77.5857 130.095 75.808 130.786 73.7462C131.43 71.8291 131.814 69.854 131.876 67.8201C131.905 66.8197 131.909 65.8183 131.704 64.8425C131.461 63.6875 131.185 62.5364 130.763 61.4236C130.504 60.7404 130.213 60.0611 130.13 59.3194C130.121 59.243 130.091 59.1649 130.107 59.0976C130.269 58.4773 129.872 58.1091 129.481 57.7524C128.815 57.1435 128.159 56.525 127.503 55.9025C126.546 54.998 125.63 54.0519 124.692 53.1289C123.481 51.941 122.335 50.692 121.242 49.3999C120.989 49.1039 120.622 48.9037 120.48 48.5125C120.591 48.4867 120.703 48.4689 120.809 48.4355C121.105 48.3503 121.299 48.4615 121.48 48.7049C122.267 49.7689 123.166 50.7335 124.13 51.6411C126.292 53.681 128.625 55.4957 131.243 56.9203C131.553 57.0906 131.693 57.2942 131.78 57.639C132.099 58.8787 132.485 60.102 132.828 61.3388C133.32 63.1212 133.728 64.926 133.881 66.7744C134.131 69.8568 133.524 72.7785 132.218 75.5649C130.321 79.6041 127.496 82.8622 123.878 85.4451C120.56 87.8115 116.904 89.4879 113.035 90.7247C110.283 91.6044 107.47 92.2218 104.62 92.7008C101.898 93.1601 99.1535 93.4015 96.4023 93.5212C92.4972 93.692 88.5984 93.5802 84.7308 92.9212C82.9828 92.6242 81.2531 92.2432 79.5737 91.6722C79.3953 91.6164 79.2002 91.5912 79.0567 91.4535Z" fill="#5A3A83"/>
<path d="M150.95 115.85C150.934 115.419 150.69 115.064 150.53 114.688C148.858 110.831 147.193 106.974 145.319 103.207C144.171 100.897 142.926 98.6343 141.567 96.435C139.642 93.3203 137.269 90.5831 134.679 88.0113C133.364 86.7095 132.007 85.4659 130.516 84.3653C129.811 83.8428 129.038 83.4674 128.154 83.3589C128.895 83.1376 129.647 83.2091 130.391 83.3102C133.613 83.7375 136.27 85.2513 138.487 87.5786C140.01 89.1778 141.161 91.0389 142.22 92.9562C143.669 95.5817 144.987 98.2803 146.455 100.895C148.878 105.212 151.501 109.393 154.62 113.252C155.01 113.736 155.37 114.243 155.628 114.816C155.958 115.544 155.799 116.18 155.27 116.739C154.796 117.238 154.199 117.565 153.586 117.868C153.448 117.938 153.33 117.941 153.268 117.772C153.14 117.425 153.015 117.072 152.879 116.692C153.147 116.611 153.318 116.741 153.495 116.821C153.616 116.872 153.732 116.952 153.857 116.977C154.058 117.018 154.238 116.951 154.324 116.749C154.416 116.533 154.36 116.34 154.174 116.195C153.804 115.909 153.379 115.773 152.923 115.719C152.256 115.641 151.605 115.798 150.95 115.85Z" fill="#A76A2B"/>
<path d="M46.4797 142.081C46.8246 142.129 47.0437 142.384 47.2775 142.592C48.2309 143.44 49.3368 143.497 50.4679 143.158C52.1628 142.653 53.6801 141.797 55.0589 140.677C56.8273 139.235 58.4965 137.683 60.1751 136.142C60.9244 135.454 61.6367 134.73 62.3629 134.02C62.4834 133.903 62.5935 133.767 62.6512 133.605C64.1929 134.319 65.6749 135.147 67.1565 135.971C67.2007 135.999 67.2317 136.052 67.2648 136.089C67.2507 136.274 67.0956 136.342 66.9837 136.43C63.8557 138.981 60.7131 141.514 57.3956 143.819C55.7991 144.929 54.1571 145.967 52.3263 146.665C51.3545 147.037 50.3584 147.31 49.2958 147.24C48.4846 147.188 47.9077 146.813 47.5349 146.103C47.2592 145.585 47.053 145.034 46.9183 144.466C46.7283 143.681 46.5021 142.899 46.4797 142.081Z" fill="#5A3A83"/>
<path d="M96.3003 37.022C104.194 36.1595 110.587 41.8045 111.442 48.8656C112.351 56.3369 107.059 63.1442 99.6044 64.0592C92.1784 64.9708 85.348 59.6571 84.4273 52.2568C83.4962 44.7719 88.8114 37.9535 96.3003 37.022ZM110.504 49.0169C109.649 42.0498 103.357 37.132 96.3857 37.988C89.4221 38.839 84.4851 45.1413 85.3265 52.0938C86.1745 59.0659 92.5115 64.0191 99.4902 63.1581C106.441 62.3005 111.363 55.9795 110.504 49.0169Z" fill="#6E4F93"/>
<path d="M83.9047 46.5814C80.0227 41.2914 73.4204 40.0842 68.339 42.3638C63.3932 44.5819 60.3979 49.6909 60.8976 55.0838C61.4031 60.5576 65.2923 65.0704 70.6014 66.2927C73.7627 67.0217 76.7937 66.6186 79.6424 65.0571C82.4684 63.5107 84.3917 61.1636 85.5141 58.1463C85.7597 58.2838 85.8114 58.5062 85.9483 58.657C86.1599 58.8844 86.1342 59.1082 86.0122 59.3804C85.4808 60.5811 84.8208 61.6994 83.9519 62.6798C80.4837 66.5925 76.1344 68.2434 70.9981 67.2656C65.8156 66.277 62.2823 63.1383 60.6161 58.129C58.2401 50.9882 62.1713 43.3422 69.2914 40.9973C74.4955 39.2869 80.2642 40.8942 83.8587 45.0346C84.2297 45.4631 84.3534 45.8402 84.0875 46.3384C84.039 46.4097 84.0483 46.5189 83.9047 46.5814Z" fill="#6E4F93"/>
<path d="M45.5856 71.0572C44.9904 71.134 44.4198 71.0117 43.8544 70.8643C43.6559 70.8109 43.534 70.6828 43.4318 70.5156C42.4154 68.8504 41.1671 67.3607 39.9192 65.875C39.47 65.3416 38.9835 64.8372 38.4037 64.4383C38.1226 64.2439 37.8313 64.067 37.5016 63.9766C37.2181 63.8968 37.1603 63.7242 37.1982 63.4662C37.4091 62.1495 37.7777 60.887 38.5493 59.7796C39.5365 58.3639 40.9888 58.3131 42.0836 59.65C42.5588 60.2292 42.8457 60.905 43.1174 61.5908C43.8238 63.3592 44.5225 65.1327 45.4842 66.7841C45.8256 67.3715 46.1671 67.9589 46.4853 68.5573C46.6444 68.8565 46.7809 69.1708 46.8856 69.4929C47.1259 70.2561 46.8187 70.7839 46.0335 70.9779C45.886 71.0082 45.7336 71.0309 45.5856 71.0572Z" fill="#6E4F93"/>
<path d="M75.4699 123.841C75.6658 123.739 75.6699 123.539 75.7086 123.354C76.4759 119.804 77.302 116.268 78.2673 112.767C78.8475 110.662 79.5001 108.58 80.3355 106.558C80.5882 105.951 80.7846 105.318 81.0111 104.698C81.0821 104.51 81.1038 104.287 81.3104 104.171C81.3716 104.572 81.2428 104.956 81.1844 105.347C80.3942 110.648 79.8685 115.974 79.6692 121.33C79.5561 124.383 79.5618 127.438 79.8723 130.481C79.8812 130.553 79.8699 130.628 79.87 130.763C79.5209 130.614 79.2801 130.382 79.0085 130.198C78.9236 130.139 78.9012 130.056 78.905 129.954C78.9262 129.191 78.6278 128.521 78.2825 127.868C77.565 126.51 76.6666 125.276 75.6784 124.11C75.5987 124.025 75.538 123.931 75.4699 123.841Z" fill="#A76A2B"/>
<path d="M99.3405 78.1495C100.203 77.1208 101.193 76.624 102.399 76.5665C102.984 76.5359 103.567 76.53 104.149 76.5447C105.255 76.5688 106.324 76.3605 107.387 76.0959C107.716 76.0148 108.045 75.9297 108.375 75.8607C110.077 75.5098 110.989 76.1174 111.781 77.4177C112.236 78.1669 112.481 79.003 112.658 79.8515C113.005 81.5169 113.226 83.1974 113.287 84.8936C113.305 85.4429 113.294 85.9917 113.121 86.5153C112.88 87.2515 112.351 87.3692 111.801 86.8114C111.493 86.4977 111.272 86.1244 111.1 85.7246C110.771 84.9642 110.46 84.1973 110.142 83.4314C109.9 82.8563 109.624 82.3017 109.306 81.7687C107.981 79.5243 106.016 78.3143 103.427 78.0914C102.11 77.9826 100.793 78.0333 99.3405 78.1495Z" fill="#A2EAF0"/>
<path d="M36.626 71.3435C36.5086 71.4192 36.4088 71.3374 36.3113 71.3085C35.777 71.1491 35.244 71.0998 34.691 71.1878C34.2663 71.2561 34.2643 71.24 34.119 70.8533C33.6941 69.7164 33.7083 68.5626 34.0123 67.4061C34.1847 66.7436 34.4574 66.1343 34.8759 65.5806C35.6529 64.5501 36.8959 64.4922 37.8301 65.1502C38.1208 65.3557 38.4134 65.5773 38.6536 65.838C40.1892 67.5051 41.6168 69.2589 42.7935 71.1986C43.2381 71.9286 43.5548 72.7151 43.5761 73.5909C43.5925 74.1935 43.3975 74.7035 42.903 75.0703C42.4948 75.3735 42.1915 75.3656 41.7829 75.0642C40.7991 74.3347 39.7976 73.6278 38.8526 72.8486C38.6479 72.6775 38.4824 72.4934 38.3397 72.2617C37.6921 71.2419 37.0375 70.2311 36.6046 69.0952C36.4907 68.7986 36.25 68.7014 36.0239 68.7903C35.7742 68.8862 35.6699 69.1359 35.7943 69.4516C35.9915 69.9626 36.2195 70.4577 36.4788 70.9408C36.5468 71.0632 36.6783 71.1697 36.626 71.3435Z" fill="#6E4F93"/>
<path d="M118.836 89.4985C118.696 89.724 118.498 89.8421 118.327 89.9855C115.358 92.4032 112.006 94.0916 108.335 95.1407C102.702 96.7483 97.0236 96.8499 91.3159 95.5415C90.2105 95.2885 89.1376 94.9334 88.0937 94.4809C88.0073 94.4424 87.9279 94.3949 87.8014 94.3287C87.9772 94.2296 88.1103 94.2828 88.2426 94.2952C91.2004 94.5302 94.1574 94.557 97.1219 94.4112C100.22 94.2573 103.292 93.9187 106.339 93.3502C110.489 92.5734 114.523 91.4186 118.371 89.6451C118.491 89.5896 118.612 89.5422 118.736 89.4902C118.752 89.4842 118.773 89.4898 118.836 89.4985Z" fill="#CF9356"/>
<path d="M57.5073 126.856C63.1616 125.822 68.6806 126.255 74.005 128.505C78.9119 130.581 82.8144 133.932 86.1164 138.153C85.6249 138.176 85.3296 138.033 85.0275 137.767C80.2577 133.57 74.9157 130.408 68.7102 128.837C65.8563 128.116 62.9517 127.882 60.0126 128.135C59.8184 128.151 59.6464 128.147 59.4767 128.029C58.8663 127.581 58.1746 127.269 57.5073 126.856Z" fill="#A2EAF0"/>
<path d="M87.3076 138.441C87.2202 138.227 87.3578 138.116 87.424 137.989C87.8467 137.202 88.3994 136.51 88.9791 135.838C91.7766 132.588 94.8109 129.57 97.9986 126.704C101.466 123.584 105.093 120.67 108.962 118.064C109.222 117.889 109.471 117.585 109.781 117.613C110.066 117.639 110.242 117.977 110.484 118.156C110.803 118.391 111.122 118.626 111.401 118.833C111.424 119.022 111.321 119.055 111.249 119.096C106.382 121.697 102.019 125.004 97.8486 128.586C94.3546 131.586 91.0202 134.756 87.8076 138.053C87.6699 138.196 87.5673 138.393 87.3076 138.441Z" fill="#A2EAF0"/>
<path d="M67.5645 142.587C68.5797 142.704 69.5577 142.985 70.5327 143.275C72.83 143.954 75.1858 144.377 77.5217 144.872C79.1615 145.219 80.788 145.625 82.3633 146.212C83.4762 146.628 84.6018 147.013 85.7169 147.412C87.7419 148.137 89.693 149.026 91.6026 150.01C91.8688 150.149 92.1451 150.271 92.4214 150.392C92.646 150.491 92.802 150.632 92.825 150.886C90.3394 149.736 87.7015 149.11 85.0219 148.645C83.1356 148.32 81.3209 147.745 79.5504 147.03C77.8311 146.333 76.0432 145.878 74.2239 145.532C72.7977 145.261 71.3603 145.032 69.9773 144.58C69.3306 144.369 68.6955 144.12 68.1706 143.67C67.846 143.386 67.5269 143.082 67.5645 142.587Z" fill="#5A3A83"/>
<path d="M69.9519 126.196C69.9443 126.034 70.0357 125.912 70.1316 125.794C70.5524 125.293 70.5419 124.739 70.3479 124.154C70.1199 123.459 69.8099 122.794 69.5004 122.133C69.0038 121.079 68.5863 120.002 68.2695 118.881C68.2485 118.81 68.2473 118.732 68.2344 118.66C69.5932 119.483 70.8005 120.504 71.9761 121.565C73.5741 123.008 75.0219 124.592 76.2815 126.342C76.5626 126.736 76.5707 126.735 76.2071 127.07C75.9318 127.324 75.6429 127.568 75.363 127.818C75.2269 127.941 75.0914 128.003 74.9051 127.915C73.3147 127.17 71.6371 126.68 69.9519 126.196Z" fill="#5A3A83"/>
<path d="M79.4506 147.991C79.0968 148.071 78.7569 147.863 78.4147 147.905C78.3587 148.149 78.5296 148.21 78.638 148.294C79.5349 148.981 80.3678 149.746 81.2077 150.501C82.0983 151.303 83.151 151.861 84.2522 152.315C86.0464 153.055 87.8678 153.719 89.7029 154.361C90.023 154.473 90.3574 154.534 90.6866 154.621C90.9062 154.68 91.1374 154.733 91.1532 155.03C88.7084 154.413 86.2107 153.999 83.8457 153.1C81.9218 152.367 80.2908 151.222 79.0025 149.606C78.6261 149.133 78.2875 148.635 78.0173 148.097C77.9198 147.9 77.782 147.709 77.8563 147.381C78.3976 147.564 78.9459 147.705 79.4506 147.991Z" fill="#5A3A83"/>
<path d="M84.9394 154.459C84.955 154.62 85.0427 154.736 85.1687 154.831C86.0962 155.568 86.9449 156.395 87.9153 157.082C88.5323 157.517 89.2225 157.817 89.9194 158.103C90.5087 158.346 91.0985 158.592 91.6884 158.839C91.83 158.895 91.9753 158.947 92.009 159.122C91.6079 159.184 91.2209 159.092 90.8333 159.029C88.6196 158.666 86.6347 157.835 85.0634 156.176C84.4907 155.568 84.0384 154.875 83.6367 154.062C84.131 154.129 84.5314 154.296 84.9394 154.459Z" fill="#5A3A83"/>
<path d="M120.548 47.5219C120.391 47.6472 120.197 47.6261 120.016 47.6482C117.647 47.954 115.273 48.2563 112.904 48.5581C112.812 48.5695 112.714 48.5772 112.622 48.5926C112.344 48.6512 112.26 48.5061 112.23 48.2565C112.199 48.007 112.304 47.9247 112.532 47.8887C114.098 47.6646 115.663 47.4325 117.224 47.205C118.028 47.0905 118.827 46.9805 119.631 46.8701C120.294 46.7849 120.334 46.8086 120.548 47.5219Z" fill="#6E4F93"/>
<path d="M90.2095 143.734C89.7031 143.702 89.3542 143.454 89.0692 143.027C88.3308 141.933 87.5551 140.868 86.7981 139.788C86.6944 139.641 86.5554 139.507 86.5364 139.284C86.925 139.188 87.1594 139.368 87.3568 139.646C88.0643 140.621 88.7834 141.592 89.4834 142.572C89.7449 142.941 90.0664 143.265 90.2484 143.684C90.2337 143.698 90.2236 143.716 90.2095 143.734Z" fill="#3F713F"/>
<path d="M77.8108 129.428C77.2418 129.117 76.6723 128.803 76.0681 128.472C76.3769 128.124 76.6855 127.841 77.0554 127.559C77.4281 128.135 77.7499 128.696 77.8108 129.428Z" fill="#A76A2B"/>
<path d="M65.332 65.9258C65.5672 66.0114 65.7183 66.1114 65.8773 66.2758C65.7772 66.4597 65.6274 66.6046 65.4383 66.7952C65.4009 66.4893 65.3704 66.2397 65.332 65.9258Z" fill="#FFEE00"/>
<path d="M81.3203 104.114C81.2994 104.043 81.3207 103.983 81.3721 103.936C81.3885 104.004 81.3798 104.066 81.3203 104.114Z" fill="#A76A2B"/>
<path d="M90.2494 143.686C90.2644 143.709 90.2754 143.732 90.2904 143.755C90.2653 143.749 90.2356 143.741 90.2105 143.736C90.2246 143.718 90.2347 143.7 90.2494 143.686Z" fill="#3F713F"/>
<path d="M79.6222 148.059C79.5704 148.036 79.5146 148.014 79.4629 147.992C79.5278 147.988 79.5795 148.011 79.6222 148.059Z" fill="#5A3A83"/>
<path d="M110.504 49.0172C111.36 55.9843 106.437 62.3052 99.4904 63.1583C92.5116 64.0193 86.1746 59.0661 85.3267 52.094C84.4807 45.138 89.4223 38.8392 96.3859 37.9882C103.357 37.1322 109.648 42.046 110.504 49.0172ZM96.4695 38.84C89.999 39.647 85.4011 45.5484 86.2046 52.0235C87.0072 58.4905 92.9085 63.0884 99.3801 62.2893C105.844 61.4913 110.448 55.5769 109.641 49.1063C108.836 42.6232 102.944 38.0324 96.4695 38.84Z" fill="#070504"/>
<path d="M96.4707 38.8401C102.945 38.0326 108.838 42.6234 109.646 49.106C110.453 55.5765 105.849 61.4909 99.3853 62.289C92.9097 63.0885 87.0123 58.4901 86.2098 52.0231C85.4063 45.5481 90.0001 39.6472 96.4707 38.8401Z" fill="#A2EAF0"/>
</g>
<defs>
<clipPath id="clip0_1121_262">
<rect x="0.460938" y="20.6211" width="170" height="170" rx="20" transform="rotate(-6.96723 0.460938 20.6211)" fill="white"/>
</clipPath>
</defs>
</svg>
