<svg width="191" height="190" viewBox="0 0 191 190" fill="none" xmlns="http://www.w3.org/2000/svg">
<g clip-path="url(#clip0_1121_475)">
<mask id="mask0_1121_475" style="mask-type:luminance" maskUnits="userSpaceOnUse" x="3" y="2" width="185" height="186">
<path d="M149.623 2.42585L20.5828 18.1951C9.61865 19.5349 1.81664 29.5093 3.1565 40.4734L18.9257 169.513C20.2656 180.478 30.2399 188.28 41.2041 186.94L170.244 171.171C181.208 169.831 189.01 159.856 187.67 148.892L171.901 19.8521C170.561 8.888 160.587 1.08599 149.623 2.42585Z" fill="white"/>
</mask>
<g mask="url(#mask0_1121_475)">
<path d="M21.334 189.23C14.4661 133.03 7.5983 76.8306 0.730469 20.6309C56.9424 13.7616 113.15 6.89276 169.362 0.0234375C169.399 0.227246 169.445 0.43007 169.47 0.635354C176.284 56.4003 183.099 112.165 189.914 167.93C190.013 168.739 190.09 168.64 189.281 168.739C133.504 175.555 77.727 182.371 21.9537 189.187C21.7485 189.212 21.5407 189.217 21.334 189.23ZM59.5947 51.0099C59.3731 50.9022 59.225 50.8264 59.0728 50.751C57.7061 50.0642 56.3236 49.4161 54.9023 48.8503C53.9361 48.4659 52.9496 48.1493 51.9265 47.9679C50.0352 47.6353 48.3747 48.0874 46.9472 49.3772C46.6527 49.6419 46.3542 49.9072 46.1014 50.2118C44.2297 52.4464 42.4423 54.7361 41.5382 57.5674C41.452 57.8312 41.3436 57.9139 41.0505 57.8557C40.1044 57.669 39.3073 57.9993 38.6265 58.6463C38.1544 59.0962 37.816 59.6359 37.5312 60.2141C37.0274 61.2398 36.7312 62.3259 36.5711 63.4567C36.5459 63.6517 36.5405 63.8077 36.2858 63.8633C35.1917 64.1032 34.4534 64.8144 33.9668 65.7808C33.1384 67.4263 32.9073 69.1458 33.4733 70.9355C33.5321 71.1162 33.587 71.2974 33.665 71.4677C33.7485 71.6495 33.7194 71.7796 33.5732 71.9201C32.912 72.5606 32.6733 73.3823 32.5939 74.2703C32.4452 75.8613 32.7584 77.3877 33.2361 78.8899C34.1122 81.6467 35.7362 83.9035 37.9205 85.765C40.7156 88.1442 43.8628 89.9616 47.1696 91.5143C47.9718 91.8943 48.7968 92.2265 49.669 92.41C49.9791 92.4742 50.0638 92.5987 50.0242 92.9099C49.8777 94.0513 49.7765 95.1953 49.6219 96.3376C48.9649 101.157 48.266 105.969 47.6421 110.792C46.5418 119.306 45.6642 127.837 45.5214 136.429C45.485 138.505 45.5713 140.582 45.8921 142.639C46.0833 143.869 46.3305 145.089 46.8504 146.235C47.4208 147.493 48.3625 148.179 49.7735 148.157C50.0385 148.154 50.3041 148.154 50.5622 148.126C51.7552 147.993 52.8754 147.599 53.9572 147.091C55.9113 146.165 57.6831 144.952 59.4249 143.693C62.405 141.536 65.2728 139.229 68.1175 136.899C68.5374 136.558 68.4308 136.555 68.8843 136.822C70.09 137.529 71.2679 138.275 72.4085 139.084C72.5696 139.199 72.7529 139.295 72.8681 139.469C72.739 139.615 72.6013 139.559 72.4796 139.565C71.5338 139.615 70.5975 139.709 69.6869 139.98C68.8472 140.23 68.0511 140.568 67.4607 141.253C66.7447 142.08 66.7329 143.086 67.4211 143.938C67.7339 144.324 68.1289 144.615 68.5629 144.856C69.1419 145.182 69.762 145.408 70.3937 145.597C71.3727 145.886 72.3721 146.074 73.372 146.266C74.4634 146.472 75.5558 146.686 76.6385 146.954C76.9124 147.023 77.0333 147.143 77.0929 147.429C77.2631 148.254 77.6786 148.98 78.1621 149.66C79.2729 151.228 80.696 152.443 82.3946 153.338C82.6482 153.475 82.983 153.54 82.8803 153.97C82.8584 154.058 82.9546 154.177 83.0036 154.277C83.9306 156.313 85.3906 157.83 87.3988 158.818C87.7725 159.001 88.1553 159.159 88.5417 159.312C88.7266 159.387 88.8567 159.449 88.8666 159.697C88.8864 160.16 89.1152 160.561 89.3621 160.944C89.885 161.746 90.5794 162.38 91.3817 162.895C92.3753 163.537 93.4773 163.93 94.6213 164.198C96.7868 164.702 98.9762 165.1 101.175 165.444C104.637 165.993 107.882 165.368 110.972 163.736C112.802 162.769 114.451 161.554 116.035 160.241C116.309 160.012 116.572 159.788 116.974 159.8C117.211 159.804 117.453 159.713 117.69 159.643C121.155 158.643 124.549 157.436 127.802 155.874C134.733 152.548 141.15 148.393 147.212 143.677C149.331 142.029 151.342 140.264 153.136 138.259C153.944 137.356 154.682 136.403 155.271 135.343C155.894 134.221 156.275 133.026 156.326 131.737C156.357 131.019 156.31 130.305 156.215 129.594C155.738 126.094 154.998 122.646 153.996 119.256C153.906 118.952 153.959 118.823 154.238 118.695C154.872 118.405 155.474 118.049 155.996 117.569C157.046 116.603 157.253 115.454 156.596 114.191C156.308 113.638 155.928 113.141 155.55 112.648C154.802 111.677 154.035 110.717 153.321 109.721C150.786 106.191 148.566 102.471 146.509 98.645C145.224 96.2528 144.035 93.8121 142.666 91.4669C141.53 89.5223 140.251 87.6809 138.573 86.1538C136.123 83.9244 133.282 82.5721 129.939 82.3597C129.683 82.3419 129.419 82.4231 129.169 82.3108C129.183 82.256 129.181 82.2112 129.202 82.1841C129.294 82.0667 129.395 81.9523 129.495 81.8379C131.034 80.0565 132.307 78.1075 133.305 75.9715C135.062 72.2025 135.524 68.2936 134.695 64.2157C134.305 62.2903 133.772 60.4026 133.211 58.5265C133.137 58.2863 133.026 58.0426 133.065 57.7314C133.451 57.8763 133.798 58.0135 134.153 58.1377C135.83 58.7253 137.537 59.0233 139.321 58.7113C141.873 58.2646 143.752 56.356 144.112 53.7913C144.336 52.2115 144.006 50.7117 143.38 49.2685C142.47 47.1736 141.076 45.4279 139.432 43.8722C136.406 41.0064 132.89 38.9114 129.046 37.3426C125.387 35.8533 121.569 34.9962 117.659 34.5303C116.83 34.4314 116.025 34.2969 115.316 33.8116C115.085 33.656 114.811 33.5547 114.552 33.4433C109.274 31.1307 103.744 30.0456 97.9874 30.1077C94.6707 30.1454 91.4066 30.581 88.1838 31.3875C84.6122 32.2815 81.221 33.6151 78.047 35.49C76.2867 36.5304 74.6146 37.6907 73.1325 39.1015C72.836 39.3828 72.5524 39.536 72.159 39.5595C71.5347 39.599 70.9212 39.7271 70.3247 39.894C64.8289 41.4235 61.318 44.9533 59.7607 50.43C59.6944 50.5892 59.6557 50.7737 59.5947 51.0099Z" fill="#B083FA"/>
<path d="M21.334 189.226C21.5408 189.213 21.7485 189.208 21.9538 189.183C77.7311 182.366 133.508 175.55 189.281 168.734C190.09 168.636 190.012 168.735 189.914 167.926C183.099 112.161 176.284 56.3964 169.469 0.631454C169.444 0.42617 169.399 0.223346 169.362 0.0195373C169.401 0.0392614 169.472 -0.051079 169.482 0.0621182C169.496 0.211542 169.518 0.359981 169.537 0.512938C176.387 56.5718 183.238 112.63 190.092 168.717C189.822 168.75 189.549 168.783 189.279 168.816C133.469 175.637 77.6644 182.456 21.854 189.268C21.689 189.288 21.4874 189.444 21.334 189.226Z" fill="#A2EAF0"/>
<path d="M59.595 51.0054C59.656 50.7691 59.6953 50.5887 59.7471 50.4108C61.3078 44.9296 64.8193 41.4038 70.311 39.8748C70.9075 39.7079 71.5245 39.5753 72.1453 39.5403C72.5427 39.5163 72.8223 39.3636 73.1188 39.0823C74.6055 37.675 76.2771 36.5107 78.0333 35.4708C81.2073 33.5959 84.5985 32.2623 88.1701 31.3683C91.3889 30.5623 94.657 30.1262 97.9737 30.0885C103.73 30.0264 109.26 31.1115 114.539 33.4241C114.798 33.5395 115.071 33.6368 115.303 33.7924C116.016 34.2772 116.816 34.4122 117.646 34.5111C121.555 34.977 125.373 35.8341 129.032 37.3234C132.879 38.8877 136.391 40.9832 139.418 43.853C141.062 45.4087 142.456 47.1544 143.366 49.2493C143.992 50.6925 144.322 52.1883 144.099 53.772C143.737 56.3327 141.859 58.2414 139.307 58.6921C137.523 59.004 135.816 58.7061 134.139 58.1185C133.784 57.9943 133.437 57.8571 133.051 57.7121C133.012 58.0234 133.127 58.2626 133.197 58.5073C133.762 60.3869 134.291 62.271 134.681 64.1965C135.51 68.2744 135.049 72.1874 133.291 75.9523C132.294 78.0883 131.02 80.0373 129.481 81.8187C129.381 81.9331 129.284 82.047 129.188 82.1649C129.167 82.192 129.168 82.2327 129.155 82.2916C129.406 82.4039 129.67 82.3267 129.925 82.3405C133.268 82.5529 136.105 83.9056 138.559 86.1346C140.237 87.6617 141.516 89.5031 142.652 91.4477C144.022 93.7929 145.214 96.2331 146.495 98.6258C148.548 102.452 150.772 106.171 153.307 109.702C154.021 110.697 154.787 111.653 155.536 112.628C155.915 113.121 156.294 113.618 156.582 114.171C157.239 115.431 157.032 116.579 155.982 117.549C155.464 118.025 154.862 118.381 154.224 118.675C153.945 118.803 153.892 118.932 153.982 119.236C154.984 122.623 155.724 126.07 156.201 129.574C156.296 130.286 156.343 131.003 156.312 131.718C156.261 133.007 155.88 134.201 155.257 135.323C154.668 136.384 153.931 137.34 153.122 138.24C151.328 140.244 149.317 142.009 147.198 143.657C141.136 148.373 134.723 152.527 127.788 155.855C124.535 157.416 121.141 158.624 117.676 159.623C117.44 159.693 117.197 159.784 116.96 159.78C116.559 159.772 116.299 159.992 116.021 160.222C114.438 161.539 112.788 162.749 110.958 163.717C107.868 165.348 104.623 165.974 101.161 165.424C98.962 165.076 96.7771 164.681 94.6077 164.179C93.4641 163.914 92.3621 163.521 91.368 162.875C90.5652 162.356 89.8713 161.726 89.3484 160.924C89.1015 160.541 88.8687 160.141 88.8529 159.677C88.843 159.429 88.7124 159.363 88.528 159.292C88.1416 159.139 87.7588 158.981 87.3851 158.798C85.3774 157.814 83.9169 156.293 82.99 154.257C82.945 154.157 82.8447 154.038 82.8666 153.95C82.9694 153.521 82.6346 153.455 82.3809 153.319C80.6823 152.423 79.2597 151.212 78.1484 149.64C77.6649 148.96 77.2535 148.234 77.0792 147.41C77.0196 147.123 76.8987 147.003 76.6248 146.934C75.5461 146.666 74.4542 146.456 73.3583 146.247C72.3589 146.058 71.359 145.866 70.38 145.577C69.7443 145.389 69.1282 145.162 68.5492 144.837C68.1193 144.595 67.7243 144.304 67.4074 143.918C66.7156 143.071 66.731 142.06 67.447 141.233C68.0374 140.548 68.8335 140.21 69.6732 139.96C70.5838 139.69 71.5201 139.596 72.4659 139.546C72.5876 139.539 72.7253 139.596 72.8544 139.449C72.7438 139.279 72.5599 139.179 72.3948 139.064C71.2542 138.256 70.0723 137.509 68.8706 136.802C68.4131 136.536 68.5197 136.539 68.1038 136.88C65.2591 139.209 62.3913 141.516 59.4112 143.674C57.6699 144.936 55.8941 146.15 53.9435 147.071C52.8622 147.583 51.7455 147.973 50.5485 148.107C50.2864 148.135 50.0208 148.134 49.7598 148.138C48.3529 148.159 47.4072 147.473 46.8367 146.215C46.3168 145.07 46.0697 143.85 45.8784 142.619C45.5576 140.562 45.4718 138.489 45.5077 136.41C45.6546 127.817 46.5322 119.286 47.6285 110.773C48.2524 105.949 48.9552 101.137 49.6083 96.3184C49.7633 95.1801 49.864 94.0321 50.0105 92.8907C50.0506 92.5835 49.9655 92.455 49.6553 92.3908C48.7831 92.2073 47.9622 91.8746 47.1559 91.4951C43.8486 89.9384 40.6979 88.1255 37.9069 85.7458C35.7225 83.8843 34.0986 81.6275 33.2224 78.8707C32.7447 77.3685 32.4315 75.8421 32.5803 74.2511C32.6642 73.3666 32.9029 72.5449 33.5595 71.9009C33.7017 71.7609 33.7308 71.6307 33.6513 71.4484C33.5733 71.2782 33.5185 71.097 33.4596 70.9163C32.8937 69.1266 33.1247 67.4071 33.9532 65.7616C34.4397 64.7952 35.174 64.0845 36.2721 63.8441C36.5268 63.7884 36.5323 63.6325 36.5575 63.4375C36.718 62.3107 37.0137 61.2206 37.5175 60.1949C37.8023 59.6167 38.1403 59.0729 38.6128 58.6271C39.2976 57.9796 40.0953 57.6534 41.0368 57.8365C41.3299 57.8947 41.4383 57.812 41.5245 57.5482C42.4281 54.7128 44.216 52.4272 46.0877 50.1926C46.341 49.892 46.639 49.6227 46.9335 49.358C48.361 48.0682 50.0211 47.6121 51.9129 47.9487C52.94 48.1296 53.9264 48.4462 54.8886 48.8311C56.31 49.3969 57.6924 50.045 59.0591 50.7318C59.2253 50.8218 59.373 50.8936 59.595 51.0054ZM90.4792 143.734C90.5043 143.739 90.534 143.747 90.5591 143.752C90.5441 143.73 90.5331 143.707 90.518 143.684C90.3356 143.261 90.0141 142.937 89.753 142.572C89.0531 141.592 88.334 140.621 87.6265 139.646C87.4255 139.372 87.1946 139.188 86.8061 139.284C86.8251 139.507 86.964 139.641 87.0678 139.787C87.8248 140.867 88.6005 141.933 89.3388 143.027C89.6239 143.454 89.9728 143.702 90.4792 143.734ZM79.7323 147.992L79.7193 147.986C79.2186 147.7 78.6662 147.559 78.1164 147.373C78.0381 147.701 78.1764 147.897 78.2774 148.089C78.5476 148.627 78.8862 149.125 79.2626 149.598C80.5508 151.214 82.1819 152.358 84.1058 153.092C86.4749 153.991 88.969 154.409 91.4133 155.022C91.7013 155.105 91.9923 155.18 92.2742 155.28C92.5089 155.362 92.6482 155.532 92.5992 155.8C92.5558 156.046 92.3346 156.175 92.0359 156.138C91.9072 156.121 91.7831 156.075 91.6524 156.042C89.5041 155.512 87.3513 154.979 85.2031 154.449C84.7956 154.29 84.3947 154.118 83.8959 154.049C84.3016 154.861 84.7499 155.554 85.3226 156.162C86.8943 157.825 88.8829 158.652 91.0925 159.015C91.4801 159.078 91.8712 159.169 92.2682 159.109C92.5581 159.208 92.8655 159.183 93.1637 159.216C93.4825 159.25 93.8028 159.264 94.1186 159.307C94.376 159.341 94.527 159.507 94.5106 159.774C94.4908 160.046 94.3049 160.163 94.0493 160.178C93.9562 160.185 93.8612 160.176 93.7666 160.171C92.5803 160.092 91.395 160.02 90.2267 159.787C90.1056 159.765 89.9765 159.679 89.8605 159.799C90.1935 161.254 92.5274 162.868 94.8275 163.237C94.9118 163.324 95.031 163.33 95.1401 163.354C97.2966 163.817 99.4612 164.247 101.648 164.556C104.532 164.959 107.28 164.513 109.897 163.225C111.442 162.464 112.901 161.567 114.243 160.484C115.184 159.723 116.107 158.949 117.048 158.192C117.453 157.865 117.667 157.908 117.869 158.362C117.954 158.552 118.047 158.577 118.212 158.524C118.534 158.419 118.856 158.315 119.182 158.209C122.79 157.078 126.282 155.667 129.641 153.929C134.056 151.645 138.251 149.004 142.32 146.157C144.702 144.494 147.021 142.744 149.2 140.815C150.94 139.274 152.597 137.658 153.94 135.741C155.126 134.044 155.631 132.193 155.374 130.125C155.12 128.08 154.743 126.063 154.305 124.054C153.78 121.659 153.163 119.287 152.31 116.985C152.194 116.676 152.058 116.632 151.777 116.67C150.799 116.794 149.848 117.032 148.909 117.302C145.692 118.223 142.589 119.447 139.558 120.847C139.058 121.076 139.059 121.084 139.207 121.658C139.21 121.715 139.205 121.773 139.216 121.829C139.715 124.076 140.218 126.319 140.445 128.615C140.452 128.704 140.456 128.802 140.581 128.885C140.764 128.85 140.923 128.708 141.093 128.602C141.427 128.393 141.755 128.165 142.099 127.968C142.305 127.849 142.508 127.91 142.657 128.088C142.8 128.258 142.767 128.528 142.584 128.697C142.489 128.786 142.374 128.854 142.26 128.925C141.106 129.642 139.992 130.419 138.887 131.204C136.996 132.546 135.135 133.934 133.294 135.348C128.59 138.95 124.037 142.742 119.478 146.522C119.234 146.728 119.138 146.911 119.207 147.242C119.332 147.831 119.409 148.43 119.478 149.03C119.518 149.356 119.372 149.534 119.115 149.565C118.861 149.596 118.68 149.455 118.606 149.145C118.563 148.962 118.548 148.772 118.525 148.587C118.43 147.839 118.298 147.095 118.04 146.383C117.46 144.783 116.542 143.388 115.437 142.105C115.39 142.05 115.334 141.991 115.244 141.994C115.104 142.154 115.145 142.386 115.036 142.563C114.923 142.744 114.762 142.829 114.559 142.776C114.357 142.728 114.23 142.588 114.224 142.376C114.219 142.266 114.25 142.152 114.274 142.043C114.413 141.377 114.611 140.727 114.856 140.093C115.57 138.241 116.743 136.708 118.176 135.361C118.795 134.779 119.405 134.189 119.946 133.531C120.404 132.972 120.797 132.377 120.92 131.643C121.054 130.801 120.667 130.105 119.876 129.785C119.519 129.641 119.15 129.596 118.766 129.626C117.928 129.692 117.208 130.05 116.539 130.528C115.671 131.149 114.952 131.919 114.276 132.737C113.024 134.254 111.958 135.9 110.88 137.539C110.112 138.708 109.338 139.864 108.471 140.963C107.046 142.775 105.298 144.178 103.207 145.152C101.096 146.137 98.9145 146.902 96.6396 147.409C96.2778 147.49 95.9422 147.519 95.6675 147.177C95.5572 147.043 95.3496 146.983 95.1804 146.901C92.7813 145.756 90.3519 144.664 87.8667 143.718C84.1903 142.317 80.4437 141.177 76.5284 140.663C74.577 140.407 72.6213 140.282 70.6667 140.636C69.8792 140.777 69.1271 141.008 68.4764 141.5C68.121 141.768 67.8289 142.085 67.8477 142.573C67.8101 143.068 68.1292 143.372 68.4579 143.655C68.9828 144.105 69.6178 144.355 70.2646 144.566C71.6475 145.018 73.0849 145.246 74.5112 145.517C76.3305 145.863 78.1183 146.319 79.8376 147.015C81.6082 147.731 83.4223 148.301 85.3091 148.63C87.9928 149.095 90.6266 149.721 93.1122 150.872C93.3096 150.982 93.5171 151.075 93.7003 151.204C93.8705 151.326 93.9137 151.513 93.8191 151.708C93.7139 151.917 93.5462 152.016 93.3094 151.951C93.2205 151.925 93.1341 151.886 93.0472 151.844C90.9003 150.791 88.618 150.167 86.2778 149.738C84.1634 149.351 82.0727 148.891 80.0736 148.077C80.0219 148.055 79.9645 148.054 79.9102 148.044C79.849 148.011 79.7972 147.989 79.7323 147.992ZM120.746 48.5125C120.539 48.5295 120.332 48.5385 120.127 48.5636C117.878 48.8466 115.634 49.1372 113.385 49.4242C113.252 49.4405 113.124 49.4643 112.99 49.4724C112.756 49.4889 112.667 49.6018 112.68 49.8372C112.701 50.2145 112.702 50.5903 112.691 50.9675C112.473 58.7439 106.082 65.0156 98.301 65.0269C94.0408 65.0327 90.4423 63.4339 87.518 60.331C87.3816 60.1843 87.2835 59.9838 87.0639 59.9249C86.8845 60.0612 86.8326 60.2718 86.74 60.4506C86.2697 61.3823 85.7105 62.2555 85.0529 63.0589C80.8343 68.2195 73.7458 69.8537 67.6895 67.0641C66.9189 66.7089 66.9109 66.7099 66.4041 67.3765C66.3374 67.4663 66.2713 67.5602 66.2091 67.6536C65.2531 69.0573 64.6086 70.6027 64.2002 72.2418C63.9479 73.2531 63.8244 74.2813 63.7838 75.3198C63.767 75.7509 63.8081 75.7867 64.2334 75.6898C64.8258 75.5561 65.4206 75.4752 66.0198 75.3979C68.7147 75.0523 71.4116 74.7227 74.0977 74.3046C76.3907 73.9467 78.6937 73.6367 80.9893 73.299C86.5907 72.4674 92.2075 71.7606 97.8542 71.2993C99.2256 71.1889 100.603 71.0981 101.976 71.0285C104.388 70.9094 106.801 70.8023 109.213 70.7813C111.213 70.7617 113.215 70.7621 115.206 70.9804C116.486 71.1222 117.751 71.3435 118.895 71.9799C119.763 72.4621 120.444 73.1224 120.789 74.073C121.312 75.5124 120.99 76.8264 120.133 78.0342C119.206 79.3404 117.89 80.1385 116.435 80.733C115.859 80.9668 115.266 81.1619 114.666 81.3332C114.133 81.4842 114.138 81.4917 114.199 82.0235C114.245 82.4346 114.307 82.8477 114.337 83.2607C114.397 84.0501 114.473 84.8415 114.432 85.6351C114.402 86.227 114.309 86.8021 113.983 87.3118C113.483 88.1001 112.593 88.2782 111.823 87.7555C111.44 87.4959 111.152 87.1511 110.909 86.7641C110.605 86.2824 110.378 85.7627 110.167 85.2411C109.873 84.5049 109.598 83.7622 109.238 83.0546C109.044 82.6698 109.036 82.6707 108.636 82.7768C106.253 83.4276 103.839 83.9717 101.428 84.4952C98.1801 85.1985 94.9185 85.8218 91.6422 86.357C87.3206 87.0648 82.9788 87.6404 78.6105 87.9658C77.295 88.0653 75.9734 88.1492 74.6546 88.1551C74.1973 88.1579 73.7381 88.1772 73.2818 88.1881C73.2841 88.2736 73.2785 88.2947 73.284 88.3063C73.3181 88.3511 73.3527 88.4 73.3973 88.4313C75.213 89.7496 77.1733 90.7806 79.3182 91.4499C79.4612 91.5836 79.6567 91.6128 79.8316 91.6731C81.515 92.2436 83.2447 92.6246 84.9887 92.9221C88.8564 93.5811 92.7552 93.693 96.6603 93.5221C99.4114 93.4025 102.151 93.1575 104.878 92.7018C107.728 92.2227 110.541 91.6093 113.293 90.7256C117.162 89.4889 120.817 87.8124 124.136 85.446C127.754 82.8631 130.579 79.605 132.476 75.5658C133.781 72.7794 134.388 69.8537 134.138 66.7753C133.99 64.9264 133.582 63.1257 133.086 61.3397C132.743 60.103 132.356 58.8797 132.037 57.6399C131.946 57.2957 131.811 57.0916 131.5 56.9212C128.883 55.4966 126.549 53.682 124.388 51.642C123.427 50.734 122.525 49.7698 121.737 48.7058C121.557 48.4624 121.367 48.3467 121.067 48.4364C120.969 48.4688 120.857 48.4866 120.746 48.5125ZM68.5081 118.659C68.3421 118.471 68.1136 118.372 67.9097 118.242C67.4302 117.929 67.4267 117.933 67.0086 118.323C65.34 119.88 63.6673 121.436 61.9144 122.905C61.4995 123.254 61.0465 123.558 61.0613 124.214C61.0696 124.483 60.8207 124.619 60.5925 124.59C60.3602 124.561 60.1997 124.385 60.2035 124.115C60.205 123.926 60.2392 123.738 60.2654 123.551C60.8656 119.27 61.2552 114.97 61.595 110.663C62.0428 104.967 62.3955 99.2618 62.6496 93.5522C62.6969 92.4679 62.8739 91.376 62.6712 90.2854C62.644 90.1294 62.7379 89.9954 62.8117 89.8638C62.9694 89.5831 63.1316 89.3059 63.2768 89.0226C63.7157 88.1683 64.1587 87.3134 64.3987 86.369C64.5044 85.9639 64.4837 85.6273 64.2655 85.2455C63.7989 84.4364 63.9245 83.5917 64.5325 82.8842C64.7687 82.6102 65.0529 82.3957 65.3558 82.1994C65.4732 82.1238 65.6422 82.1031 65.7007 81.8794C65.589 81.8686 65.4855 81.8567 65.3819 81.8449C64.8363 81.7931 64.2896 81.7659 63.7491 81.689C63.0337 81.5844 62.3532 81.3652 61.7508 80.9486C60.6569 80.1876 60.3336 78.879 60.9495 77.7007C61.2741 77.0809 61.7538 76.5933 62.3838 76.2998C62.7706 76.1218 62.8723 75.8847 62.8805 75.4833C62.9264 73.0511 63.5021 70.742 64.6267 68.5782C64.7486 68.3386 64.8056 68.1029 64.8129 67.8283C64.8386 67.0694 64.7069 66.3256 64.6436 65.5735C64.6163 65.25 64.4907 65.0243 64.2438 64.8094C63.0134 63.7341 61.9863 62.4829 61.1824 61.0532C61.1203 60.9464 61.0896 60.7949 60.8945 60.7698C60.6916 61.2153 60.6198 61.698 60.5893 62.1838C60.5163 63.2917 60.4564 64.4061 60.4126 65.5186C60.329 67.7757 59.2955 69.5484 57.6677 71.0383C57.4877 71.2032 57.3054 71.2827 57.0541 71.2317C55.0559 70.8263 53.1675 70.1502 51.4403 69.054C50.1649 68.2457 49.0298 67.2814 48.2458 65.98C46.8213 63.6171 46.6826 61.2115 48.1629 58.8163C48.9263 57.5751 49.883 56.4777 50.8577 55.3945C51.3723 54.825 52.0026 54.6336 52.7541 54.7991C53.3251 54.9254 53.8824 55.1065 54.4397 55.2876C55.6227 55.6742 56.8178 56.0265 58.0541 56.2145C58.5162 56.2847 58.9762 56.3715 59.4451 56.2978C59.51 56.1265 59.4712 55.976 59.4494 55.8316C59.2871 54.7034 59.2595 53.5752 59.4034 52.4464C59.4498 52.0567 59.3286 51.8672 58.9936 51.6998C57.2014 50.8076 55.4001 49.9411 53.5061 49.286C53.0072 49.1141 52.4965 48.9805 51.9767 48.8724C50.2666 48.5176 48.7616 48.9058 47.4732 50.0968C47.3083 50.2518 47.1388 50.4032 46.9835 50.5693C45.5295 52.1441 44.3085 53.8866 43.2532 55.7477C42.8595 56.4372 42.6129 57.1945 42.3574 57.9448C42.2975 58.1237 42.2246 58.296 42.4234 58.4515C43.2971 59.1495 43.7784 60.112 44.1674 61.1226C45.0773 63.4871 46.1338 65.7805 47.4562 67.9435C47.7216 68.3768 47.9185 68.8511 48.0564 69.3449C48.3423 70.3803 47.9178 71.286 46.9273 71.7053C46.3255 71.9627 45.6851 72.0042 45.0374 71.9526C44.8559 71.938 44.6775 71.8495 44.4907 71.9254C44.8947 74.6296 44.8668 74.7351 43.3566 76.084C43.3573 76.1901 43.4341 76.2502 43.4923 76.3248C44.0477 76.9922 44.4788 77.7117 44.3747 78.6313C44.3576 78.7927 44.4414 78.8765 44.5781 78.9251C44.7022 78.9712 44.8228 79.0219 44.9474 79.072C47.6686 80.1121 50.0793 81.6192 52.0157 83.8255C52.1155 83.94 52.2264 84.0449 52.3146 84.1648C52.4529 84.3604 52.4282 84.5595 52.2607 84.727C52.0857 84.8996 51.8775 84.9005 51.6963 84.7551C51.5196 84.6133 51.3647 84.4484 51.2097 84.2835C49.7419 82.6694 48.0187 81.4052 46.0238 80.5256C45.54 80.311 45.0466 80.118 44.5734 79.8898C44.1871 79.7042 43.8564 79.6384 43.5028 79.988C43.2915 80.1977 42.9724 80.2612 42.6675 80.3066C42.1537 80.3816 41.6484 80.3249 41.1548 80.1973C39.7811 79.8545 38.5653 79.1656 37.3732 78.437C37.091 78.2672 37.0258 78.0342 37.1385 77.8202C37.2649 77.5842 37.5226 77.52 37.8235 77.6752C38.0415 77.7875 38.2458 77.9219 38.4607 78.0427C39.2643 78.5001 40.0849 78.9309 40.9689 79.2109C41.475 79.3738 41.9882 79.4949 42.5251 79.4089C43.2467 79.2962 43.6042 78.7786 43.4558 78.0655C43.3769 77.687 43.1821 77.3636 42.9415 77.0661C42.6332 76.683 42.2735 76.3471 41.8779 76.0522C40.5402 75.0677 39.2201 74.0607 37.9142 73.0355C37.6477 72.827 37.3524 72.6507 37.0551 72.4909C36.6915 72.2903 36.3087 72.1328 35.8924 72.0693C34.8351 71.9084 34.035 72.382 33.6761 73.39C33.5306 73.8041 33.4641 74.2289 33.4563 74.667C33.4118 76.5762 33.9084 78.3661 34.6707 80.0909C35.6309 82.2654 37.1537 83.9953 38.981 85.4756C41.3528 87.4 43.9777 88.9217 46.7016 90.2842C48.0939 90.9802 49.5304 91.5359 51.0703 91.8012C51.1829 91.8201 51.292 91.8435 51.3985 91.8795C51.6282 91.9536 51.7344 92.1204 51.7141 92.3557C51.6914 92.5709 51.5476 92.7315 51.3449 92.7113C50.9155 92.6739 50.9112 92.94 50.8827 93.2417C50.6214 95.7166 50.3108 98.1894 49.9585 100.655C48.9642 107.562 47.9658 114.469 47.3411 121.425C46.8347 127.043 46.3283 132.661 46.4425 138.309C46.4662 139.573 46.5105 140.838 46.7566 142.083C46.779 142.901 47.0052 143.682 47.1911 144.468C47.3263 145.04 47.5321 145.587 47.8078 146.105C48.1805 146.815 48.761 147.185 49.5686 147.242C50.6352 147.312 51.6274 147.039 52.5991 146.667C54.4299 145.97 56.0715 144.928 57.6685 143.821C60.986 141.516 64.1285 138.983 67.2565 136.432C67.3679 136.341 67.519 136.273 67.5376 136.091C67.5045 136.054 67.4735 136.001 67.4293 135.974C65.9478 135.15 64.4658 134.322 62.9241 133.607C61.4284 132.801 59.8842 132.099 58.3435 131.393C57.4172 130.967 56.4782 130.571 55.5493 130.158C55.1605 129.985 55.0463 129.819 55.1054 129.534C55.1585 129.266 55.3269 129.106 55.5931 129.045C56.2917 128.878 56.9863 128.711 57.6849 128.544C57.931 128.486 58.1906 128.47 58.4073 128.338C58.3759 128.215 58.2995 128.191 58.2342 128.159C57.6315 127.84 57.0202 127.551 56.379 127.319C56.1142 127.225 55.8877 127.109 55.9002 126.777C55.9121 126.473 56.0896 126.288 56.4827 126.195C56.7761 126.123 57.0696 126.05 57.365 125.993C60.538 125.381 63.7291 125.285 66.9371 125.661C68.0438 125.791 69.1276 126.035 70.2236 126.211C71.9083 126.692 73.5864 127.185 75.1808 127.93C75.3671 128.018 75.5021 127.952 75.6387 127.833C75.9186 127.583 76.2075 127.339 76.4828 127.085C76.8464 126.75 76.8378 126.747 76.5572 126.357C75.2976 124.607 73.8498 123.023 72.2518 121.58C71.0748 120.506 69.8669 119.482 68.5081 118.659ZM75.7388 123.838C75.8069 123.928 75.8675 124.022 75.9392 124.108C76.9279 125.278 77.8263 126.512 78.5434 127.866C78.8886 128.519 79.1871 129.189 79.1659 129.952C79.162 130.054 79.1845 130.137 79.2693 130.196C79.5449 130.379 79.7857 130.611 80.1309 130.761C80.1348 130.626 80.142 130.551 80.1331 130.479C79.8221 127.432 79.817 124.381 79.93 121.328C80.1293 115.972 80.655 110.646 81.4452 105.345C81.5041 104.958 81.6284 104.571 81.5712 104.169C81.5899 104.155 81.5954 104.134 81.5844 104.111C81.6399 104.063 81.6486 104.001 81.6362 103.933C81.6774 103.768 81.7061 103.601 81.7643 103.443C81.8469 103.217 82.0232 103.121 82.257 103.162C82.4948 103.203 82.6166 103.363 82.6129 103.601C82.6089 103.769 82.5723 103.937 82.5482 104.107C81.4996 110.805 80.8232 117.538 80.7743 124.326C80.757 126.591 80.8332 128.853 81.0961 131.105C81.1344 131.451 81.2731 131.684 81.5451 131.904C83.4547 133.456 85.1791 135.198 86.7064 137.131C86.7836 137.228 86.8249 137.366 86.9894 137.374C87.3004 136.944 87.5989 136.511 87.9199 136.096C88.2445 135.677 88.5786 135.268 88.9267 134.874C92.8764 130.388 97.1958 126.286 101.828 122.508C104.243 120.538 106.712 118.643 109.338 116.962C110.137 116.448 110.141 116.451 110.834 117.073C111.27 117.465 111.731 117.826 112.195 118.182C112.515 118.425 112.794 118.505 113.162 118.268C113.461 118.076 113.805 117.952 114.131 117.806C115.231 117.312 116.346 116.849 117.474 116.413C118.063 116.186 118.184 116.241 118.412 116.805C118.524 117.086 118.648 117.361 118.771 117.635C121.181 122.983 123.715 128.274 126.172 133.599C126.821 135.003 127.455 136.412 128.105 137.816C128.254 138.137 128.271 138.143 128.54 137.938C128.839 137.71 129.124 137.463 129.413 137.223C130.563 136.335 131.708 135.443 132.859 134.563C134.91 132.993 136.98 131.445 139.104 129.976C139.413 129.763 139.597 129.528 139.558 129.145C139.544 128.995 139.562 128.842 139.548 128.692C139.462 127.886 139.375 127.079 139.205 126.287C138.999 125.303 139.004 125.311 137.986 125.341C136.981 125.37 135.99 125.254 135.03 124.951C133.585 124.494 132.746 123.543 132.623 122.005C132.606 121.799 132.593 121.592 132.58 121.385C132.534 120.574 132.448 119.768 132.286 118.974C131.76 116.346 130.982 113.786 130.195 111.227C128.527 105.805 126.616 100.458 125.149 94.9757C125.131 94.8635 125.101 94.7528 125.104 94.6381C125.102 94.3604 125.243 94.1717 125.469 94.1522C125.708 94.1313 125.865 94.2469 125.945 94.4699C125.982 94.5756 126.016 94.6859 126.038 94.7976C126.403 96.379 126.902 97.9235 127.39 99.4735C128.945 104.443 130.614 109.374 132.063 114.377C132.764 116.808 133.426 119.248 133.518 121.802C133.522 121.973 133.555 122.141 133.58 122.309C133.686 123.044 134.099 123.549 134.751 123.874C135.039 124.018 135.342 124.124 135.654 124.205C136.613 124.463 137.596 124.453 138.576 124.452C138.785 124.451 138.843 124.358 138.803 124.171C138.62 123.307 138.437 122.447 138.24 121.535C137.587 121.803 137.039 122.136 136.475 122.433C136.31 122.519 136.142 122.617 135.965 122.671C135.767 122.728 135.587 122.656 135.489 122.46C135.397 122.275 135.411 122.081 135.569 121.939C135.679 121.84 135.818 121.77 135.948 121.697C137.262 120.952 138.62 120.296 140 119.686C143.627 118.079 147.318 116.655 151.224 115.859C151.88 115.812 152.531 115.651 153.198 115.732C153.658 115.787 154.084 115.922 154.449 116.209C154.635 116.354 154.691 116.547 154.599 116.762C154.513 116.965 154.334 117.032 154.132 116.991C154.007 116.965 153.891 116.89 153.77 116.835C153.589 116.755 153.422 116.624 153.154 116.706C153.29 117.086 153.415 117.438 153.543 117.786C153.605 117.954 153.722 117.948 153.861 117.882C154.474 117.578 155.072 117.256 155.545 116.753C156.074 116.194 156.233 115.562 155.903 114.83C155.645 114.257 155.285 113.749 154.895 113.266C151.776 109.407 149.153 105.225 146.73 100.909C145.262 98.2944 143.944 95.5958 142.495 92.9703C141.435 91.0491 140.284 89.1879 138.762 87.5928C136.545 85.2614 133.888 83.7476 130.666 83.3243C129.923 83.2272 129.171 83.1557 128.429 83.373C128.1 83.4173 127.833 83.5766 127.591 83.8063C125.936 85.369 124.103 86.6878 122.145 87.8423C122 87.9253 121.835 87.9863 121.731 88.1338C121.012 89.1695 120.051 89.9651 119.081 90.7496C115.068 93.9853 110.462 95.9086 105.417 96.8191C101.804 97.4731 98.1759 97.4998 94.5376 97.013C91.6556 96.6298 88.865 95.925 86.3214 94.4669C85.6359 94.0727 84.9364 93.8314 84.1662 93.7131C83.7751 93.6547 83.4314 93.6844 83.0704 93.8388C81.471 94.5245 80.1021 95.5579 78.8304 96.7183C77.2909 98.1279 75.9792 99.7303 74.7865 101.436C73.2039 103.697 71.8774 106.114 70.5419 108.524C69.2499 110.855 67.8509 113.114 66.1723 115.19C65.8634 115.571 65.5816 115.973 65.3445 116.406C65.1807 116.704 65.0516 117.018 64.9868 117.357C64.9092 117.759 65.0446 118.098 65.2716 118.417C65.3457 118.523 65.4427 118.58 65.5521 118.473C65.8743 118.168 66.2563 117.917 66.4933 117.516C66.4044 117.458 66.3351 117.425 66.2799 117.375C66.0245 117.157 65.9667 116.951 66.1091 116.746C66.2616 116.523 66.475 116.497 66.7081 116.599C66.9326 116.699 67.1607 116.793 67.3752 116.91C68.5635 117.541 69.6518 118.323 70.7194 119.136C72.5475 120.523 74.1973 122.123 75.7388 123.838ZM84.9116 44.5861C85.1315 44.3795 85.1895 44.1518 85.2966 43.959C88.0063 38.9869 92.2022 36.2477 97.8446 36.0852C103.21 35.9279 107.415 38.2819 110.415 42.74C111.224 43.9403 111.766 45.2672 112.171 46.6475C112.29 47.0537 112.298 47.0527 112.718 47.0056C112.794 46.9962 112.866 46.9834 112.943 46.974C115.126 46.6581 117.315 46.3458 119.498 46.0299C119.643 46.0081 119.8 46.0216 119.944 45.8978C119.875 45.5345 119.661 45.2175 119.536 44.8691C119.42 44.5484 119.288 44.2377 119.187 43.915C119.092 43.6079 119.184 43.3924 119.413 43.2949C119.647 43.197 119.867 43.2967 120.007 43.5737C120.056 43.6739 120.09 43.7842 120.128 43.8899C120.815 45.8363 121.868 47.5664 123.226 49.1163C125.012 51.1613 127.052 52.9178 129.265 54.4776C130.937 55.6582 132.693 56.6816 134.644 57.3378C136.131 57.8383 137.643 58.0744 139.213 57.7885C141.479 57.3727 143.08 55.6001 143.249 53.304C143.354 51.8285 142.983 50.4604 142.341 49.1499C141.291 47.0108 139.743 45.2718 137.96 43.7247C134.98 41.1312 131.589 39.2292 127.905 37.8288C124.426 36.5054 120.811 35.7747 117.125 35.3305C116.971 35.3125 116.826 35.2935 116.684 35.368C116.469 35.4801 116.284 35.4046 116.105 35.2794C115.453 34.8239 114.737 34.4824 114.008 34.1671C108.621 31.835 102.985 30.812 97.1292 31.0006C94.4843 31.0869 91.8684 31.4433 89.2844 32.0287C86.5138 32.6574 83.836 33.5443 81.2679 34.761C78.9049 35.8832 76.684 37.2331 74.6645 38.8934C74.5012 39.0277 74.2846 39.1277 74.2149 39.4263C76.306 39.5221 78.2694 39.9767 80.1244 40.8816C81.9749 41.783 83.5543 43.0403 84.9116 44.5861ZM118.447 128.754C118.807 128.69 119.164 128.704 119.518 128.758C121.117 129.012 122.082 130.353 121.765 131.907C121.62 132.624 121.276 133.25 120.84 133.83C120.088 134.833 119.137 135.644 118.261 136.527C117.149 137.656 116.263 138.932 115.68 140.413C115.555 140.726 115.541 140.981 115.827 141.216C116 141.358 116.133 141.546 116.281 141.72C117.246 142.869 118.037 144.124 118.654 145.491C118.811 145.844 118.835 145.841 119.136 145.628C119.196 145.584 119.256 145.536 119.315 145.488C121.895 143.334 124.467 141.178 127.086 139.072C127.521 138.725 127.52 138.713 127.274 138.171C126.73 136.967 126.195 135.762 125.636 134.564C123.375 129.705 121.111 124.85 118.851 119.991C118.491 119.222 118.151 118.443 117.799 117.673C117.633 117.313 117.624 117.31 117.248 117.442C117.178 117.467 117.108 117.496 117.037 117.521C113.933 118.733 110.991 120.261 108.192 122.062C105.472 123.808 102.894 125.749 100.409 127.809C96.3105 131.21 92.4336 134.854 88.7156 138.663C88.3489 139.038 88.3432 139.092 88.6569 139.52C89.8285 141.117 91.0076 142.709 92.1752 144.307C92.337 144.528 92.5307 144.676 92.7779 144.793C93.8595 145.286 94.9375 145.783 96.0069 146.31C96.3369 146.47 96.6426 146.498 96.9869 146.407C98.719 145.938 100.41 145.367 102.069 144.67C104.513 143.645 106.519 142.072 108.094 139.947C109.588 137.93 110.868 135.768 112.334 133.73C113.33 132.346 114.394 131.027 115.748 129.971C116.547 129.358 117.421 128.888 118.447 128.754ZM62.0886 55.6316C62.1467 55.9064 62.2313 56.4312 62.3632 56.9421C63.97 63.0371 70.0084 66.8175 76.1701 65.4885C80.6282 64.527 83.5696 61.7858 85.0617 57.4814C85.1794 57.1402 85.1641 56.848 85.0126 56.511C83.8458 53.9165 83.4654 51.2054 83.8851 48.3884C83.9374 48.047 83.8767 47.7848 83.6899 47.493C80.8726 43.1596 75.5928 41.1739 70.5792 42.571C65.0085 44.1219 61.3507 49.6265 62.0886 55.6316ZM112.813 76.9024C113.406 78.0146 113.727 79.1316 113.917 80.289C113.961 80.5451 114.096 80.5857 114.317 80.5179C115.655 80.1052 116.972 79.6501 118.12 78.8072C118.955 78.1904 119.633 77.4498 119.966 76.4367C120.44 74.998 119.91 73.6043 118.596 72.8457C118.187 72.6097 117.753 72.4299 117.295 72.2979C115.607 71.8179 113.874 71.7478 112.137 71.7028C109.251 71.6264 106.368 71.7377 103.483 71.8655C100.542 71.9963 97.6038 72.1919 94.6786 72.4922C90.4182 72.9311 86.163 73.447 81.9272 74.0872C78.4577 74.6133 74.9817 75.1198 71.5078 75.6097C69.5439 75.8865 67.5771 76.1064 65.6117 76.3711C65.013 76.4524 64.4171 76.5579 63.8303 76.7032C63.0884 76.8837 62.4025 77.1881 61.9264 77.8387C61.2826 78.7222 61.4865 79.7553 62.421 80.3152C62.6636 80.4612 62.9258 80.5681 63.2007 80.6448C63.7295 80.7926 64.2695 80.8655 64.8181 80.9088C66.5178 81.0442 68.2112 80.9272 69.9065 80.8262C72.8429 80.6512 75.7784 80.4355 78.7124 80.2077C81.2137 80.0164 83.7117 79.7642 86.214 79.581C87.5502 79.4831 88.8841 79.3323 90.2168 79.2062C92.8295 78.9564 95.4361 78.691 98.0483 78.4371C98.323 78.4117 98.4767 78.2989 98.6147 78.0574C99.2242 76.9943 100.135 76.2906 101.29 75.9125C102.032 75.6666 102.808 75.637 103.587 75.6523C104.761 75.6721 105.924 75.62 107.066 75.3087C107.718 75.131 108.381 74.9724 109.059 74.8978C110.094 74.7794 111.018 75.0178 111.789 75.7121C112.11 75.9996 112.414 76.0483 112.813 75.9669C114.052 75.7133 115.278 75.4123 116.509 75.123C116.938 75.0216 117.181 75.1022 117.263 75.3781C117.341 75.6423 117.167 75.8637 116.741 75.9812C116.287 76.1102 115.825 76.2116 115.368 76.3164C114.538 76.5118 113.715 76.6982 112.813 76.9024ZM65.3194 86.4485C64.988 87.7146 64.4185 88.8381 63.8094 89.938C63.7058 90.1263 63.6811 90.3254 63.674 90.5347C63.6386 91.5154 63.6032 92.4961 63.5592 93.4738C63.3596 97.8245 63.1108 102.173 62.8045 106.52C62.4481 111.56 62.0631 116.599 61.4381 121.615C61.4206 121.772 61.3221 121.935 61.4624 122.114C62.5321 121.24 63.5457 120.307 64.5648 119.386C64.7821 119.192 64.6431 119.058 64.5349 118.908C64.0749 118.286 63.9716 117.608 64.1799 116.872C64.2997 116.448 64.4854 116.062 64.7138 115.691C65.031 115.178 65.4015 114.7 65.772 114.222C66.7301 113.002 67.6258 111.74 68.4016 110.399C69.3664 108.733 70.305 107.054 71.2568 105.381C72.5279 103.146 73.8839 100.97 75.5025 98.9715C77.2841 96.7683 79.2933 94.8233 81.7909 93.4314C81.8559 93.3949 81.9349 93.373 81.9303 93.2346C81.7147 93.1752 81.4895 93.1046 81.2613 93.0427C79.3052 92.5137 77.4179 91.8128 75.6203 90.8764C74.3114 90.1948 73.0606 89.4203 71.9624 88.4228C71.7276 88.2064 71.4966 88.0549 71.1651 88.0831C71.0152 88.0933 70.8639 88.0587 70.715 88.0442C69.3422 87.9096 67.9863 87.6791 66.6976 87.1625C66.2253 86.9751 65.793 86.7133 65.3194 86.4485ZM84.6394 86.4529C87.7609 86.0878 90.6262 85.5987 93.4905 85.1343C94.7565 84.9305 96.0182 84.6906 97.2733 84.431C99.2305 84.0325 101.184 83.6058 103.139 83.1872C104.815 82.8271 106.48 82.4152 108.144 81.9873C108.528 81.8872 108.549 81.8234 108.309 81.4973C107.535 80.448 106.552 79.6938 105.293 79.3166C104.215 78.9908 103.107 78.8851 101.993 78.9273C101.212 78.9573 100.402 78.8072 99.6618 79.2041C99.6159 79.2301 99.5526 79.2133 99.4962 79.2202C97.7112 79.3893 95.9302 79.5579 94.1456 79.7311C92.664 79.8754 91.1807 80.0403 89.6981 80.1765C86.5068 80.4726 83.3096 80.753 80.111 80.9886C78.0217 81.1418 75.9359 81.3232 73.8506 81.4759C72.9113 81.5457 71.9681 81.5833 71.0279 81.6451C70.6712 81.6683 70.2945 81.6612 69.9647 81.771C69.3168 81.985 68.6536 82.1069 67.9858 82.2253C67.314 82.3441 66.6681 82.5415 66.0566 82.8532C65.7529 83.0088 65.4692 83.1946 65.2346 83.448C64.8633 83.8528 64.8052 84.3134 65.0453 84.807C65.1708 85.0654 65.3599 85.2751 65.5746 85.4613C66.0222 85.8478 66.531 86.1329 67.0796 86.3437C68.2503 86.797 69.474 87.0152 70.7185 87.1368C73.3771 87.3961 76.0327 87.2636 78.6829 87.0541C80.7506 86.8913 82.8188 86.7325 84.6394 86.4529ZM87.9011 142.729C87.9769 142.614 87.9243 142.551 87.8842 142.49C87.538 141.997 87.1802 141.51 86.8451 141.008C86.0175 139.785 85.0987 138.651 83.9455 137.706C81.107 135.372 78.063 133.363 74.7275 131.809C71.9772 130.532 69.1183 129.602 66.1046 129.178C63.203 128.769 60.3167 128.819 57.4534 129.492C57.2748 129.534 57.0841 129.545 56.9448 129.709C57.0742 129.865 57.2667 129.903 57.4355 129.98C60.9355 131.542 64.3753 133.213 67.7139 135.093C69.9819 136.368 72.2336 137.678 74.2293 139.367C74.412 139.524 74.61 139.574 74.8449 139.59C76.1227 139.683 77.3937 139.854 78.6561 140.088C81.6116 140.638 84.4762 141.514 87.2955 142.554C87.4965 142.627 87.6949 142.746 87.9011 142.729ZM48.0405 62.696C48.2008 64.2084 48.7968 65.5082 49.832 66.591C51.7524 68.5991 54.1672 69.6726 56.8375 70.2614C57.0431 70.3057 57.189 70.2634 57.3424 70.1139C58.4998 68.9879 59.2961 67.6813 59.4591 66.0395C59.5418 65.2124 59.5672 64.384 59.6012 63.5587C59.6415 62.6183 59.6899 61.6768 59.9414 60.7596C60.0598 60.3243 60.4566 59.9613 60.406 59.514C60.3545 59.0587 60.1173 58.6219 59.961 58.1794C59.9421 58.1245 59.9276 58.0731 59.9127 58.0178C59.837 57.7656 59.8338 57.4391 59.6678 57.2838C59.4741 57.1032 59.1327 57.2511 58.8591 57.2192C58.7641 57.2103 58.6731 57.201 58.5781 57.1922C57.0685 57.0417 55.6236 56.6177 54.1828 56.1606C53.6642 55.9952 53.1446 55.8217 52.6138 55.6905C52.1886 55.5872 51.8267 55.6682 51.5361 55.9979C50.5487 57.1113 49.5578 58.2292 48.7962 59.5192C48.1787 60.5507 47.9156 61.6736 48.0405 62.696ZM96.5699 37.0212C89.085 37.9523 83.7699 44.7706 84.6964 52.252C85.6171 59.6523 92.448 64.97 99.8735 64.0544C107.327 63.1394 112.619 56.3321 111.711 48.8608C110.852 41.8042 104.463 36.1587 96.5699 37.0212ZM84.1748 46.5799C84.3183 46.5175 84.3091 46.4083 84.3526 46.3294C84.6185 45.8312 84.4948 45.4541 84.1238 45.0256C80.5298 40.8893 74.7605 39.2779 69.5565 40.9883C62.4359 43.3292 58.5051 50.9792 60.8812 58.12C62.5473 63.1293 66.0807 66.268 71.2632 67.2566C76.3999 68.2384 80.7487 66.5835 84.217 62.6709C85.0858 61.6904 85.7453 60.5681 86.2773 59.3715C86.3992 59.0992 86.4255 58.8794 86.2134 58.648C86.0765 58.4972 86.0212 58.2793 85.7792 58.1373C84.6608 61.1541 82.7334 63.5017 79.9075 65.0481C77.0588 66.6096 74.0277 67.0127 70.8665 66.2837C65.5614 65.061 61.6722 60.5481 61.1627 55.0748C60.663 49.682 63.6587 44.5769 68.6041 42.3548C73.6905 40.0828 80.2928 41.29 84.1748 46.5799ZM45.8552 71.056C46.0031 71.0298 46.1516 71.0075 46.2985 70.9732C47.0837 70.7792 47.391 70.2515 47.1507 69.4883C47.0499 69.1656 46.9135 68.8514 46.7504 68.5526C46.4321 67.9542 46.0907 67.3668 45.7493 66.7794C44.7876 65.128 44.0888 63.3546 43.3825 61.5862C43.1112 60.9044 42.8199 60.2251 42.3487 59.6453C41.2543 58.3125 39.8016 58.3593 38.8144 59.7749C38.0428 60.8824 37.6741 62.1449 37.4633 63.4616C37.4213 63.72 37.4792 63.8927 37.7667 63.9719C38.0964 64.0624 38.3916 64.2387 38.6687 64.4336C39.2486 64.8326 39.7346 65.3329 40.1843 65.8703C41.4326 67.36 42.6809 68.8498 43.6969 70.5109C43.799 70.6782 43.9209 70.8062 44.1195 70.8596C44.6934 71.0101 45.26 71.1328 45.8552 71.056ZM99.6104 78.1482C101.067 78.0315 102.38 77.9813 103.697 78.094C106.29 78.3164 108.256 79.5265 109.576 81.7714C109.891 82.3089 110.171 82.863 110.412 83.434C110.73 84.1999 111.041 84.9668 111.371 85.7272C111.542 86.1271 111.763 86.5004 112.071 86.8141C112.622 87.3719 113.146 87.2546 113.391 86.5179C113.564 85.9903 113.575 85.4456 113.557 84.8963C113.496 83.1961 113.274 81.5155 112.928 79.8542C112.751 79.0017 112.51 78.1651 112.051 77.4204C111.255 76.1205 110.347 75.5124 108.645 75.8634C108.315 75.9324 107.986 76.0134 107.657 76.0985C106.594 76.3632 105.525 76.5715 104.419 76.5473C103.834 76.5372 103.25 76.5431 102.669 76.5692C101.458 76.6232 100.469 77.1199 99.6104 78.1482ZM36.8943 71.3422C36.9466 71.1683 36.8111 71.0623 36.7465 70.9354C36.4873 70.4523 36.2593 69.9573 36.0621 69.4462C35.9417 69.13 36.042 68.8808 36.2917 68.7849C36.5183 68.7 36.7585 68.7932 36.8723 69.0898C37.3053 70.2257 37.9639 71.236 38.6075 72.2563C38.7537 72.4835 38.9156 72.6721 39.1204 72.8432C40.0654 73.6224 41.0673 74.3333 42.0507 75.0588C42.4593 75.3602 42.7626 75.3681 43.1708 75.0649C43.6652 74.6981 43.8563 74.1886 43.8439 73.5855C43.8226 72.7098 43.5059 71.9232 43.0613 71.1932C41.8806 69.254 40.4529 67.5002 38.9214 65.8326C38.6812 65.5719 38.3926 65.3498 38.0979 65.1448C37.1642 64.4909 35.9211 64.5488 35.1437 65.5752C34.7252 66.1289 34.4529 66.7423 34.2801 67.4007C33.9761 68.5572 33.9619 69.711 34.3868 70.8479C34.5321 71.2346 34.5341 71.2507 34.9588 71.1824C35.5118 71.0944 36.0488 71.1432 36.579 71.3031C36.677 71.3361 36.7809 71.4173 36.8943 71.3422ZM119.103 89.4967C119.037 89.4925 119.02 89.4824 119.004 89.4884C118.883 89.5359 118.759 89.5878 118.639 89.6433C114.794 91.4123 110.757 92.5716 106.607 93.3483C103.559 93.9169 100.487 94.2514 97.3897 94.4094C94.4257 94.5592 91.4683 94.5284 88.5104 94.2934C88.3786 94.285 88.245 94.2278 88.0692 94.3269C88.1998 94.3926 88.2791 94.4401 88.3615 94.4791C89.4014 94.9321 90.4783 95.2867 91.5837 95.5397C97.2914 96.8481 102.97 96.7465 108.603 95.1389C112.275 94.0938 115.626 92.4014 118.595 89.9837C118.769 89.8398 118.963 89.7222 119.103 89.4967ZM57.7766 126.854C58.4439 127.267 59.1316 127.579 59.7455 128.023C59.9117 128.146 60.0877 128.149 60.2814 128.129C63.2205 127.876 66.1211 128.11 68.9791 128.831C75.1881 130.397 80.5306 133.564 85.2963 137.761C85.5984 138.026 85.8937 138.17 86.3852 138.147C83.0792 133.926 79.1807 130.575 74.2738 128.499C68.9535 126.248 63.4349 125.819 57.7766 126.854ZM87.577 138.438C87.8366 138.39 87.9393 138.194 88.077 138.05C91.2896 134.753 94.624 131.584 98.1179 128.583C102.288 125.002 106.651 121.69 111.518 119.094C111.591 119.056 111.693 119.019 111.67 118.83C111.387 118.624 111.072 118.388 110.754 118.154C110.511 117.975 110.335 117.637 110.05 117.61C109.736 117.579 109.491 117.883 109.231 118.062C105.362 120.667 101.731 123.583 98.268 126.702C95.0802 129.567 92.046 132.585 89.2485 135.836C88.6687 136.507 88.1165 137.204 87.6934 137.987C87.6272 138.114 87.4936 138.224 87.577 138.438ZM120.816 47.5193C120.602 46.806 120.563 46.7822 119.9 46.8714C119.096 46.9819 118.296 47.0919 117.493 47.2063C115.928 47.4344 114.363 47.6665 112.801 47.8901C112.572 47.9221 112.468 48.0083 112.499 48.2579C112.529 48.5075 112.612 48.6485 112.891 48.594C112.983 48.5746 113.076 48.5713 113.173 48.5595C115.546 48.2572 117.916 47.9554 120.285 47.6496C120.465 47.6234 120.66 47.6486 120.816 47.5193ZM78.0804 129.426C78.015 128.691 77.6931 128.13 77.325 127.558C76.9591 127.839 76.6464 128.123 76.3376 128.471C76.9463 128.805 77.5154 129.116 78.0804 129.426ZM65.6018 65.9262C65.6401 66.2402 65.6706 66.4897 65.708 66.7956C65.8972 66.605 66.0469 66.4601 66.147 66.2763C65.9881 66.1118 65.8369 66.0118 65.6018 65.9262Z" fill="#070504"/>
<path d="M129.414 137.22C129.125 137.46 128.84 137.707 128.541 137.935C128.276 138.139 128.255 138.134 128.106 137.813C127.46 136.409 126.822 135 126.173 133.596C123.712 128.271 121.178 122.98 118.772 117.632C118.649 117.357 118.525 117.082 118.413 116.802C118.185 116.237 118.064 116.183 117.475 116.41C116.347 116.842 115.235 117.309 114.132 117.803C113.806 117.949 113.462 118.073 113.163 118.265C112.795 118.502 112.516 118.421 112.196 118.178C111.732 117.823 111.275 117.458 110.835 117.07C110.143 116.452 110.138 116.449 109.338 116.959C106.713 118.64 104.244 120.539 101.829 122.505C97.2003 126.282 92.881 130.384 88.9273 134.871C88.5796 135.269 88.2415 135.678 87.9205 136.093C87.5994 136.508 87.3015 136.945 86.9899 137.371C86.8255 137.363 86.7801 137.225 86.7069 137.128C85.1797 135.194 83.4557 133.456 81.5457 131.9C81.2777 131.68 81.139 131.448 81.0967 131.101C80.8378 128.849 80.7575 126.588 80.7748 124.322C80.8237 117.535 81.5006 110.805 82.5487 104.104C82.5733 103.938 82.61 103.77 82.6135 103.598C82.6212 103.36 82.4954 103.199 82.2576 103.159C82.0238 103.118 81.8475 103.213 81.7649 103.44C81.7066 103.598 81.678 103.765 81.6368 103.929C81.5853 103.977 81.5641 104.036 81.585 104.107C81.596 104.131 81.5939 104.147 81.5717 104.166C81.3692 104.281 81.3435 104.505 81.2725 104.693C81.046 105.313 80.8491 105.942 80.5969 106.553C79.7614 108.575 79.1094 110.66 78.5287 112.762C77.5634 116.262 76.7373 119.799 75.97 123.349C75.9308 123.529 75.9267 123.73 75.7313 123.836C74.1898 122.12 72.5399 120.52 70.7019 119.119C69.6343 118.306 68.5465 117.528 67.3577 116.893C67.1432 116.776 66.9151 116.681 66.6906 116.582C66.4575 116.48 66.2441 116.506 66.0916 116.729C65.9492 116.934 66.007 117.139 66.2624 117.357C66.3176 117.408 66.3869 117.44 66.4758 117.499C66.2388 117.9 65.8563 118.146 65.5346 118.455C65.4246 118.559 65.3277 118.501 65.2541 118.4C65.0271 118.08 64.8917 117.741 64.9693 117.34C65.0341 117.001 65.1637 116.691 65.327 116.389C65.5641 115.956 65.8464 115.558 66.1547 115.173C67.8329 113.092 69.2323 110.838 70.5244 108.507C71.8599 106.097 73.1869 103.683 74.7689 101.419C75.9617 99.7128 77.2733 98.1104 78.8128 96.7008C80.0841 95.5364 81.4535 94.507 83.0528 93.8213C83.4139 93.6669 83.7575 93.6372 84.1487 93.6956C84.9189 93.8139 85.6144 94.0557 86.3039 94.4495C88.8475 95.9076 91.6381 96.6124 94.5201 96.9955C98.1583 97.4824 101.787 97.4516 105.4 96.8017C110.445 95.8911 115.051 93.9678 119.063 90.7321C120.034 89.9516 120.995 89.1561 121.714 88.1164C121.814 87.9693 121.983 87.9119 122.128 87.8248C124.087 86.6743 125.919 85.3515 127.574 83.7888C127.816 83.5591 128.078 83.4004 128.412 83.3555C129.295 83.4641 130.069 83.8394 130.774 84.3619C132.264 85.4585 133.622 86.7061 134.937 88.0079C137.526 90.5757 139.899 93.3129 141.825 96.4317C143.184 98.6309 144.428 100.889 145.577 103.204C147.451 106.966 149.116 110.827 150.788 114.684C150.952 115.06 151.192 115.415 151.208 115.846C147.301 116.642 143.611 118.069 139.983 119.673C138.603 120.283 137.245 120.939 135.931 121.684C135.801 121.757 135.663 121.827 135.552 121.926C135.394 122.068 135.381 122.262 135.473 122.446C135.57 122.639 135.751 122.715 135.948 122.658C136.126 122.608 136.294 122.51 136.458 122.42C137.022 122.122 137.566 121.79 138.224 121.522C138.417 122.434 138.604 123.298 138.787 124.158C138.826 124.345 138.768 124.438 138.56 124.439C137.579 124.44 136.596 124.446 135.637 124.191C135.324 124.107 135.025 124 134.735 123.86C134.082 123.536 133.669 123.03 133.563 122.296C133.538 122.127 133.506 121.96 133.501 121.789C133.41 119.238 132.748 116.795 132.046 114.364C130.601 109.36 128.932 104.429 127.373 99.46C126.89 97.9136 126.391 96.369 126.022 94.7842C125.996 94.6729 125.962 94.5667 125.928 94.4565C125.852 94.2329 125.691 94.1178 125.452 94.1388C125.226 94.1583 125.086 94.351 125.087 94.6247C125.088 94.7348 125.119 94.8496 125.132 94.9623C125.076 94.9692 125.02 94.9801 124.964 94.987C124.394 95.0689 124.333 95.1743 124.502 95.7256C124.606 96.0684 124.697 96.4127 124.796 96.756C125.166 98.0833 125.265 99.4603 125.5 100.812C125.93 103.26 126.167 105.739 126.505 108.202C127.107 112.59 127.732 116.974 128.056 121.396C128.158 122.764 128.414 124.122 128.448 125.503C128.472 126.439 128.623 127.373 128.685 128.313C128.798 130.04 128.936 131.767 129.085 133.489C129.218 134.744 129.259 135.985 129.414 137.22Z" fill="#CF9356"/>
<path d="M46.7483 142.081C46.5023 140.837 46.458 139.572 46.4343 138.308C46.3201 132.66 46.8265 127.042 47.3329 121.424C47.9621 114.472 48.9559 107.56 49.9502 100.653C50.3066 98.1869 50.6137 95.7186 50.8745 93.2396C50.907 92.9374 50.9073 92.6718 51.3367 92.7092C51.5389 92.7254 51.6872 92.5684 51.7059 92.3537C51.7261 92.1183 51.62 91.9515 51.3903 91.8775C51.2843 91.8455 51.1707 91.8185 51.0621 91.7991C49.5222 91.5338 48.0857 90.9781 46.6933 90.2822C43.9694 88.9196 41.344 87.3939 38.9728 85.4736C37.1455 83.9933 35.6187 82.2639 34.6625 80.0889C33.9002 78.3641 33.4036 76.5741 33.4481 74.6649C33.4599 74.2263 33.5219 73.798 33.6679 73.3879C34.0268 72.38 34.8228 71.9068 35.8842 72.0672C36.3004 72.1307 36.6833 72.2882 37.0469 72.4889C37.3447 72.6527 37.6395 72.825 37.906 73.0335C39.2119 74.0586 40.532 75.0657 41.8697 76.0502C42.2648 76.341 42.625 76.681 42.9332 77.0641C43.1739 77.3615 43.3686 77.685 43.4476 78.0634C43.596 78.7765 43.2385 79.2941 42.5169 79.4068C41.9799 79.4929 41.4662 79.3677 40.9607 79.2089C40.0762 78.9248 39.256 78.498 38.4525 78.0406C38.2376 77.9198 38.0327 77.7814 37.8152 77.6732C37.5104 77.5184 37.2567 77.5821 37.1303 77.8182C37.0175 78.0321 37.0823 78.2612 37.365 78.435C38.5576 79.1676 39.7729 79.8524 41.1466 80.1952C41.6437 80.3183 42.1455 80.3796 42.6593 80.3045C42.9642 80.2591 43.2832 80.1956 43.4946 79.9859C43.8481 79.6363 44.1789 79.7021 44.5652 79.8878C45.0384 80.1159 45.5323 80.3129 46.0155 80.5235C48.015 81.4067 49.7337 82.6674 51.2015 84.2815C51.3524 84.4469 51.5119 84.6153 51.6881 84.7531C51.8693 84.8984 52.0775 84.8975 52.2525 84.725C52.42 84.5574 52.4447 84.3583 52.3064 84.1628C52.2217 84.0383 52.1068 83.9339 52.0075 83.8235C50.0711 81.6171 47.6604 80.1101 44.9391 79.07C44.815 79.0238 44.694 78.9692 44.5699 78.9231C44.4327 78.8704 44.3449 78.7871 44.3665 78.6293C44.4746 77.7091 44.0435 76.9897 43.484 76.3227C43.4264 76.2521 43.3491 76.188 43.3484 76.0819C44.8585 74.733 44.887 74.6315 44.4825 71.9234C44.6653 71.8479 44.8476 71.9359 45.0292 71.9505C45.6769 72.0021 46.3173 71.9606 46.919 71.7032C47.9096 71.284 48.3336 70.3742 48.0482 69.3429C47.9102 68.849 47.7174 68.3742 47.448 67.9414C46.1215 65.779 45.0651 63.4855 44.1592 61.1205C43.7701 60.11 43.2929 59.1469 42.4151 58.4494C42.2159 58.2899 42.2893 58.1216 42.3491 57.9427C42.6047 57.1925 42.8553 56.4347 43.245 55.7457C44.3003 53.8845 45.5254 52.1416 46.9753 50.5672C47.1266 50.4016 47.296 50.2502 47.4649 50.0947C48.7533 48.9037 50.2619 48.511 51.9685 48.8703C52.4843 48.9789 52.9949 49.1126 53.4979 49.284C55.3959 49.9385 57.1967 50.8011 58.9853 51.6978C59.3163 51.8657 59.4416 52.0546 59.3952 52.4443C59.2553 53.5726 59.2789 54.7014 59.4412 55.8295C59.4635 55.9779 59.5018 56.1244 59.4369 56.2957C58.9715 56.3649 58.508 56.2826 58.0459 56.2124C56.8096 56.0244 55.6145 55.6721 54.4315 55.2856C53.8742 55.1045 53.3209 54.9229 52.7459 54.7971C51.9944 54.6315 51.3641 54.8229 50.8495 55.3924C49.8743 56.4716 48.9221 57.5725 48.1547 58.8143C46.6743 61.2094 46.8131 63.615 48.2375 65.9779C49.0216 67.2793 50.1567 68.2436 51.4321 69.0519C53.1593 70.1481 55.0517 70.8238 57.0459 71.2297C57.2972 71.2806 57.4795 71.2012 57.6595 71.0362C59.2832 69.5468 60.3207 67.7736 60.4044 65.5165C60.4442 64.4045 60.5046 63.2941 60.5811 62.1817C60.6121 61.7 60.6833 61.2133 60.8863 60.7677C61.0814 60.7929 61.1116 60.9403 61.1742 61.0512C61.978 62.4808 63.0047 63.728 64.2356 64.8073C64.4824 65.0222 64.6081 65.2479 64.6353 65.5714C64.6986 66.3235 64.8304 67.0673 64.8047 67.8262C64.7933 68.1013 64.7404 68.3366 64.6185 68.5762C63.4979 70.7394 62.9182 73.049 62.8723 75.4813C62.8646 75.8867 62.7624 76.1198 62.3756 76.2978C61.7455 76.5913 61.2699 77.0784 60.9412 77.6986C60.3213 78.8774 60.6447 80.1861 61.7426 80.9466C62.345 81.3632 63.0295 81.5818 63.7409 81.6869C64.2819 81.7679 64.8286 81.795 65.3737 81.8428C65.4767 81.8506 65.5803 81.8625 65.6925 81.8774C65.634 82.101 65.4649 82.1217 65.3475 82.1973C65.0447 82.3937 64.7604 82.6082 64.5243 82.8821C63.9162 83.5897 63.7907 84.4343 64.2572 85.2434C64.4795 85.6248 64.4967 85.9658 64.3904 86.3669C64.1459 87.3078 63.707 88.1622 63.2685 89.0206C63.1234 89.3038 62.9612 89.581 62.8035 89.8618C62.7297 89.9933 62.6357 90.1274 62.663 90.2834C62.8657 91.3739 62.6882 92.4619 62.6414 93.5502C62.3873 99.2598 62.0346 104.965 61.5868 110.662C61.251 114.968 60.8574 119.269 60.2571 123.55C60.231 123.737 60.1968 123.925 60.1952 124.113C60.191 124.379 60.3519 124.56 60.5842 124.589C60.8125 124.618 61.0614 124.481 61.053 124.213C61.0342 123.557 61.4872 123.253 61.9062 122.903C63.6591 121.435 65.3282 119.883 67.0004 118.322C67.4185 117.932 67.422 117.927 67.9015 118.241C68.1058 118.375 68.3344 118.474 68.4999 118.658C68.5087 118.73 68.5141 118.807 68.535 118.878C68.8478 120 69.2693 121.076 69.7659 122.131C70.0754 122.791 70.3849 123.452 70.6134 124.151C70.8034 124.737 70.8139 125.291 70.3971 125.792C70.3007 125.905 70.2139 126.03 70.2174 126.193C69.1214 126.017 68.0336 125.774 66.931 125.643C63.723 125.267 60.5323 125.367 57.3588 125.975C57.0634 126.032 56.77 126.105 56.4765 126.177C56.0835 126.27 55.9059 126.455 55.894 126.759C55.8815 127.092 56.108 127.207 56.3729 127.301C57.01 127.534 57.6253 127.822 58.228 128.141C58.2933 128.174 58.3697 128.197 58.4011 128.32C58.1844 128.452 57.9249 128.468 57.6787 128.526C56.9801 128.694 56.2856 128.86 55.587 129.027C55.3207 129.088 55.1523 129.248 55.0992 129.516C55.0401 129.801 55.1543 129.967 55.5432 130.14C56.472 130.553 57.4115 130.953 58.3373 131.375C59.878 132.082 61.4263 132.783 62.9179 133.589C62.8601 133.752 62.7501 133.888 62.6296 134.004C61.9033 134.714 61.1916 135.443 60.4418 136.127C58.7631 137.668 57.094 139.22 55.3256 140.661C53.9473 141.786 52.4295 142.637 50.7346 143.143C49.6034 143.481 48.4975 143.424 47.5442 142.576C47.3124 142.384 47.0933 142.129 46.7483 142.081Z" fill="#6E4F93"/>
<path d="M79.3266 91.4569C77.1817 90.7876 75.2174 89.7571 73.4058 88.4384C73.3611 88.4071 73.3265 88.3582 73.2925 88.3133C73.2829 88.3022 73.2921 88.2766 73.2903 88.1951C73.7465 88.1843 74.2053 88.1609 74.663 88.1622C75.9863 88.1598 77.3034 88.0724 78.619 87.9729C82.9872 87.6474 87.329 87.0719 91.6506 86.364C94.927 85.8288 98.1885 85.2055 101.436 84.5023C103.852 83.9783 106.261 83.4347 108.645 82.7838C109.048 82.6733 109.052 82.6728 109.247 83.0616C109.607 83.7693 109.881 84.5119 110.176 85.2481C110.387 85.7738 110.614 86.2935 110.917 86.7712C111.161 87.1581 111.448 87.5029 111.831 87.7625C112.602 88.2852 113.491 88.1071 113.991 87.3188C114.317 86.8092 114.406 86.2345 114.44 85.6421C114.482 84.8485 114.405 84.0571 114.346 83.2678C114.316 82.8548 114.253 82.4416 114.207 82.0306C114.146 81.4988 114.145 81.4907 114.674 81.3403C115.274 81.1689 115.863 80.9744 116.443 80.7401C117.899 80.1495 119.215 79.3514 120.141 78.0412C120.999 76.8334 121.32 75.5195 120.797 74.08C120.452 73.1295 119.767 72.4697 118.903 71.987C117.759 71.3465 116.494 71.1253 115.214 70.9874C113.223 70.7692 111.225 70.7682 109.221 70.7884C106.806 70.8099 104.392 70.9169 101.984 71.0355C100.608 71.1057 99.2336 71.1919 97.8626 71.3063C92.2159 71.7676 86.5992 72.4744 80.9977 73.306C78.7027 73.6478 76.3997 73.9578 74.1061 74.3116C71.4201 74.7297 68.7232 75.0593 66.0282 75.405C65.429 75.4823 64.8297 75.5596 64.2419 75.6968C63.8166 75.7937 63.7749 75.7539 63.7922 75.3269C63.8328 74.2883 63.9563 73.2601 64.2086 72.2488C64.6205 70.6052 65.2616 69.0643 66.2176 67.6606C66.2797 67.5672 66.3458 67.4734 66.4125 67.3835C66.9193 66.717 66.9274 66.716 67.698 67.0712C73.7542 69.8608 80.8427 68.2265 85.0613 63.066C85.7184 62.2585 86.2776 61.3854 86.7485 60.4577C86.8405 60.2748 86.8924 60.0642 87.0723 59.9319C87.292 59.9909 87.39 60.1913 87.5264 60.3381C90.4507 63.441 94.0497 65.0438 98.3095 65.0339C106.09 65.0226 112.485 58.7505 112.699 50.9745C112.71 50.5973 112.705 50.218 112.688 49.8443C112.675 49.6048 112.763 49.4919 112.999 49.4795C113.128 49.4718 113.26 49.4475 113.393 49.4313C115.642 49.1442 117.886 48.8577 120.135 48.5706C120.34 48.5455 120.548 48.5366 120.754 48.5195C120.896 48.9107 121.267 49.1104 121.516 49.4069C122.614 50.7025 123.759 51.9476 124.966 53.1359C125.904 54.0589 126.82 55.005 127.777 55.9095C128.432 56.528 129.089 57.1505 129.755 57.7594C130.146 58.1161 130.542 58.4803 130.381 59.1046C130.365 59.1719 130.396 59.254 130.404 59.3264C130.49 60.0635 130.782 60.7429 131.037 61.4306C131.455 62.5439 131.735 63.6945 131.978 64.8495C132.183 65.8253 132.179 66.8267 132.15 67.8271C132.092 69.8605 131.704 71.8321 131.06 73.7532C130.368 75.811 129.16 77.5887 127.907 79.3391C127.621 79.7377 127.248 80.0651 126.948 80.4491C126.319 81.2531 125.607 81.9815 124.853 82.662C122.461 84.8212 119.801 86.5924 116.896 87.9892C115.248 88.7829 113.555 89.4638 111.801 89.9886C110.488 90.3819 109.176 90.7791 107.832 91.0742C107.39 91.1731 106.94 91.2322 106.51 91.3542C105.712 91.5784 104.892 91.7275 104.08 91.8349C102.026 92.1104 99.9759 92.4101 97.9003 92.5085C97.2262 92.5419 96.5471 92.5677 95.8725 92.597C94.7674 92.6463 93.659 92.5693 92.5499 92.5863C91.2692 92.6039 89.9929 92.5229 88.7212 92.4128C85.6824 92.1509 82.6518 91.8227 79.6326 91.3869C79.5119 91.3689 79.4064 91.341 79.3266 91.4569Z" fill="#6E4F93"/>
<path d="M85.2096 154.457C87.3578 154.987 89.5106 155.521 91.6589 156.051C91.7856 156.085 91.9132 156.126 92.0424 156.147C92.3376 156.189 92.5582 156.055 92.6057 155.809C92.6547 155.541 92.5153 155.37 92.2807 155.289C91.9988 155.188 91.7083 155.118 91.4198 155.03C91.404 154.734 91.1768 154.68 90.9531 154.622C90.6239 154.535 90.2896 154.474 89.9695 154.362C88.1384 153.72 86.3169 153.056 84.5188 152.315C83.4175 151.862 82.3648 151.304 81.4742 150.502C80.6343 149.746 79.8015 148.982 78.9046 148.295C78.7961 148.21 78.6253 148.15 78.6813 147.906C79.0275 147.863 79.3674 148.071 79.7172 147.992L79.7303 147.998C79.782 148.02 79.8378 148.042 79.8895 148.064C79.9438 148.074 80.0052 148.075 80.0529 148.098C82.052 148.911 84.1427 149.371 86.2571 149.758C88.5973 150.187 90.8796 150.811 93.0265 151.864C93.1094 151.907 93.1958 151.945 93.2887 151.971C93.5255 152.036 93.6968 151.933 93.7984 151.729C93.8935 151.537 93.8498 151.347 93.6796 151.224C93.4964 151.096 93.2889 151.003 93.0915 150.892C93.0686 150.637 92.9121 150.493 92.688 150.398C92.4117 150.276 92.1354 150.155 91.8692 150.016C89.9596 149.032 88.0084 148.143 85.9834 147.418C84.8644 147.019 83.7388 146.634 82.6298 146.218C81.0541 145.626 79.4281 145.224 77.7883 144.877C75.4483 144.383 73.0965 143.96 70.7993 143.28C69.8288 142.994 68.8462 142.71 67.831 142.593C67.8118 142.101 68.1044 141.788 68.4597 141.519C69.1064 141.028 69.8625 140.796 70.6501 140.655C72.6046 140.302 74.5604 140.427 76.5117 140.683C80.427 141.197 84.1736 142.336 87.85 143.738C90.3357 144.688 92.7606 145.777 95.1637 146.921C95.333 147.002 95.5441 147.058 95.6508 147.196C95.9295 147.538 96.2611 147.51 96.6229 147.429C98.8973 146.918 101.079 146.157 103.19 145.172C105.281 144.198 107.025 142.792 108.454 140.983C109.321 139.884 110.094 138.723 110.863 137.559C111.941 135.92 113.006 134.27 114.259 132.756C114.935 131.938 115.654 131.168 116.522 130.547C117.191 130.069 117.911 129.712 118.749 129.646C119.133 129.616 119.502 129.66 119.859 129.805C120.646 130.125 121.038 130.825 120.903 131.663C120.784 132.396 120.387 132.992 119.929 133.551C119.392 134.209 118.778 134.798 118.159 135.381C116.726 136.728 115.557 138.26 114.84 140.113C114.594 140.747 114.396 141.396 114.257 142.063C114.233 142.172 114.206 142.286 114.208 142.396C114.213 142.612 114.34 142.747 114.542 142.796C114.749 142.844 114.91 142.763 115.019 142.583C115.128 142.406 115.087 142.174 115.227 142.014C115.317 142.011 115.372 142.066 115.42 142.125C116.525 143.408 117.443 144.803 118.023 146.403C118.281 147.115 118.413 147.859 118.509 148.607C118.532 148.796 118.546 148.982 118.589 149.165C118.664 149.474 118.844 149.616 119.098 149.585C119.355 149.553 119.501 149.376 119.461 149.05C119.392 148.45 119.315 147.851 119.19 147.261C119.117 146.931 119.212 146.744 119.461 146.542C124.02 142.761 128.574 138.969 133.277 135.367C135.119 133.958 136.979 132.566 138.87 131.224C139.975 130.439 141.089 129.661 142.244 128.944C142.353 128.874 142.472 128.806 142.567 128.717C142.751 128.547 142.783 128.278 142.64 128.108C142.491 127.93 142.288 127.869 142.082 127.988C141.739 128.189 141.415 128.412 141.076 128.621C140.906 128.728 140.751 128.869 140.564 128.905C140.44 128.826 140.44 128.728 140.429 128.635C140.201 126.338 139.698 124.096 139.199 121.849C139.188 121.793 139.193 121.735 139.19 121.678C140.563 121.412 141.967 121.469 143.349 121.276C144.506 121.114 145.673 121.004 146.83 120.842C147.581 120.738 148.333 120.806 149.083 120.825C149.439 120.834 149.66 121.003 149.804 121.345C150.382 122.7 150.764 124.116 151.018 125.564C151.165 126.396 151.227 127.238 151.25 128.093C151.273 129.054 151.304 130.011 151.213 130.965C151.109 132.057 150.876 133.127 150.273 134.075C149.58 135.16 148.746 136.124 147.789 136.985C146.044 138.55 144.167 139.936 142.231 141.247C139.092 143.371 135.923 145.457 132.708 147.46C131.189 148.405 129.672 149.359 128.148 150.297C126.206 151.49 124.25 152.665 122.252 153.763C120.839 154.54 119.339 155.103 117.764 155.418C116.592 155.655 115.474 156.004 114.38 156.481C112.833 157.156 111.456 158.125 110.041 159.017C108.539 159.965 106.988 160.812 105.358 161.514C103.798 162.187 102.182 162.67 100.493 162.917C99.6944 163.035 98.8925 163.092 98.096 163.194C97.9269 163.215 97.7584 163.239 97.5899 163.231C96.7842 163.191 95.9733 163.241 95.1708 163.127C95.0336 163.107 94.9058 163.13 94.8189 163.255C92.5188 162.887 90.1849 161.272 89.8519 159.818C89.9679 159.697 90.1005 159.779 90.2181 159.806C91.3864 160.039 92.5717 160.111 93.758 160.19C93.8526 160.195 93.9476 160.204 94.0407 160.197C94.2962 160.182 94.4821 160.065 94.502 159.793C94.5224 159.525 94.3714 159.36 94.11 159.326C93.7942 159.283 93.4739 159.269 93.1551 159.234C92.8569 159.201 92.5495 159.227 92.2595 159.127C92.2258 158.952 92.0806 158.9 91.9389 158.844C91.3496 158.601 90.7593 158.351 90.17 158.108C89.4731 157.821 88.7869 157.521 88.1659 157.087C87.196 156.404 86.3467 155.573 85.4193 154.836C85.3124 154.731 85.2252 154.619 85.2096 154.457Z" fill="#6E4F93"/>
<path d="M84.912 44.5841C83.5587 43.0377 81.9788 41.7765 80.1243 40.8755C78.2698 39.9746 76.3019 39.5165 74.2148 39.4202C74.2845 39.1217 74.5051 39.0212 74.6644 38.8873C76.6874 37.2225 78.9083 35.8726 81.2678 34.7549C83.8359 33.5382 86.5137 32.6513 89.2843 32.0227C91.8682 31.4373 94.4842 31.0808 97.1291 30.9946C102.985 30.806 108.622 31.833 114.009 34.161C114.738 34.4764 115.453 34.8179 116.105 35.2733C116.284 35.3986 116.469 35.474 116.684 35.362C116.826 35.2874 116.972 35.3064 117.125 35.3244C120.807 35.7691 124.422 36.4999 127.905 37.8227C131.589 39.2231 134.98 41.1292 137.96 43.7187C139.739 45.2662 141.291 47.0048 142.341 49.1438C142.983 50.4503 143.355 51.8224 143.249 53.2979C143.084 55.5895 141.479 57.3666 139.213 57.7824C137.647 58.0678 136.135 57.8318 134.644 57.3317C132.693 56.6755 130.933 55.6486 129.265 54.4716C127.053 52.9118 125.012 51.1553 123.226 49.1103C121.872 47.5599 120.815 45.8303 120.128 43.8839C120.09 43.7781 120.056 43.6679 120.007 43.5677C119.867 43.2906 119.647 43.1909 119.414 43.2889C119.185 43.3863 119.088 43.6023 119.187 43.9089C119.288 44.2316 119.424 44.5458 119.537 44.863C119.665 45.2109 119.879 45.5279 119.944 45.8917C119.8 46.0196 119.644 46.0061 119.499 46.0238C117.315 46.3397 115.127 46.6521 112.943 46.9679C112.866 46.9773 112.794 46.9902 112.718 46.9995C112.299 47.0467 112.295 47.0471 112.172 46.6414C111.765 45.2571 111.223 43.9303 110.415 42.734C107.411 38.2763 103.206 35.9264 97.8445 36.0791C92.2021 36.2417 88.0067 38.9849 85.2965 43.9529C85.1863 44.1543 85.1324 44.3815 84.912 44.5841Z" fill="#6E4F93"/>
<path d="M118.447 128.757C117.426 128.89 116.552 129.36 115.749 129.981C114.395 131.037 113.331 132.356 112.336 133.74C110.873 135.778 109.589 137.941 108.095 139.958C106.521 142.086 104.515 143.659 102.071 144.681C100.415 145.374 98.7196 145.944 96.988 146.417C96.6442 146.513 96.3385 146.485 96.008 146.321C94.9431 145.797 93.8605 145.296 92.779 144.803C92.5283 144.691 92.3381 144.539 92.1762 144.317C91.0082 142.716 89.8291 141.123 88.658 139.53C88.3443 139.103 88.35 139.049 88.7167 138.673C92.4387 134.865 96.3111 131.217 100.41 127.82C102.896 125.759 105.473 123.818 108.193 122.072C110.996 120.271 113.939 118.743 117.039 117.531C117.109 117.502 117.179 117.477 117.25 117.452C117.626 117.321 117.638 117.319 117.801 117.683C118.153 118.457 118.497 119.232 118.852 120.002C121.113 124.861 123.381 129.715 125.637 134.574C126.192 135.773 126.732 136.977 127.275 138.182C127.521 138.723 127.523 138.735 127.087 139.083C124.468 141.188 121.897 143.345 119.317 145.499C119.257 145.547 119.202 145.594 119.138 145.639C118.837 145.851 118.813 145.854 118.655 145.502C118.039 144.135 117.247 142.875 116.282 141.731C116.134 141.557 116.001 141.369 115.829 141.227C115.542 140.988 115.556 140.737 115.681 140.424C116.264 138.943 117.15 137.666 118.262 136.538C119.134 135.651 120.09 134.844 120.842 133.841C121.277 133.26 121.621 132.634 121.767 131.918C122.079 130.364 121.114 129.019 119.519 128.769C119.164 128.706 118.803 128.693 118.447 128.757Z" fill="#3F713F"/>
<path d="M62.0884 55.6313C61.3509 49.6303 65.0127 44.1252 70.5794 42.5747C75.593 41.1777 80.8733 43.1674 83.6902 47.4968C83.8765 47.7845 83.9376 48.0507 83.8854 48.3921C83.4657 51.2092 83.846 53.9203 85.0128 56.5148C85.1648 56.8557 85.1841 57.1475 85.0619 57.4852C83.5698 61.7896 80.6284 64.5308 76.1703 65.4923C70.0087 66.8213 63.9702 63.0409 62.3634 56.9459C62.227 56.4315 62.1465 55.9061 62.0884 55.6313Z" fill="#A2EAF0"/>
<path d="M94.834 163.251C94.9208 163.126 95.0446 163.102 95.1859 163.122C95.9883 163.236 96.7993 163.186 97.605 163.227C97.7734 163.235 97.942 163.21 98.1111 163.189C98.9076 163.088 99.7095 163.031 100.508 162.913C102.198 162.665 103.815 162.186 105.374 161.509C107.004 160.808 108.555 159.96 110.057 159.013C111.472 158.121 112.849 157.152 114.396 156.477C115.486 156 116.607 155.647 117.78 155.414C119.355 155.099 120.855 154.535 122.267 153.758C124.266 152.66 126.218 151.486 128.164 150.292C129.687 149.354 131.206 148.405 132.724 147.455C135.943 145.448 139.108 143.366 142.247 141.242C144.183 139.931 146.06 138.542 147.805 136.98C148.766 136.119 149.6 135.155 150.289 134.07C150.892 133.122 151.125 132.052 151.228 130.961C151.321 130.01 151.289 129.05 151.266 128.088C151.243 127.237 151.181 126.391 151.034 125.559C150.78 124.116 150.399 122.7 149.82 121.341C149.677 121.003 149.455 120.829 149.099 120.82C148.349 120.801 147.597 120.734 146.846 120.838C145.689 121 144.522 121.11 143.365 121.271C141.983 121.465 140.579 121.408 139.206 121.673C139.058 121.099 139.058 121.095 139.556 120.863C142.593 119.466 145.695 118.237 148.908 117.318C149.851 117.047 150.802 116.808 151.776 116.685C152.058 116.651 152.194 116.696 152.309 117C153.162 119.306 153.783 121.673 154.304 124.069C154.746 126.078 155.123 128.095 155.373 130.14C155.63 132.208 155.124 134.055 153.939 135.757C152.596 137.673 150.939 139.289 149.199 140.83C147.02 142.759 144.701 144.509 142.319 146.173C138.246 149.015 134.05 151.656 129.64 153.944C126.281 155.682 122.789 157.093 119.181 158.225C118.859 158.325 118.537 158.434 118.211 158.539C118.046 158.592 117.956 158.562 117.868 158.377C117.662 157.924 117.452 157.88 117.047 158.208C116.106 158.964 115.184 159.743 114.242 160.499C112.9 161.582 111.445 162.479 109.896 163.24C107.28 164.532 104.535 164.974 101.647 164.571C99.4601 164.266 97.2955 163.836 95.1384 163.369C95.0374 163.344 94.9182 163.339 94.834 163.251Z" fill="#5A3A83"/>
<path d="M112.815 76.9037C113.717 76.6994 114.544 76.5126 115.366 76.3222C115.827 76.2169 116.284 76.112 116.739 75.987C117.165 75.8654 117.342 75.6436 117.262 75.3838C117.179 75.108 116.936 75.0273 116.507 75.1288C115.276 75.4181 114.051 75.719 112.811 75.9727C112.409 76.0545 112.105 76.0099 111.787 75.7178C111.016 75.0196 110.092 74.7852 109.057 74.9035C108.376 74.9827 107.717 75.1408 107.064 75.3145C105.921 75.6217 104.76 75.6779 103.585 75.658C102.811 75.6423 102.03 75.6724 101.288 75.9183C100.133 76.2964 99.2225 77.0041 98.6125 78.0632C98.474 78.3007 98.3208 78.4175 98.0461 78.4429C95.4334 78.6927 92.8267 78.9581 90.2145 79.212C88.8818 79.3381 87.548 79.4888 86.2118 79.5868C83.71 79.774 81.2115 80.0222 78.7101 80.2134C75.7761 80.4413 72.8401 80.653 69.9042 80.832C68.2129 80.9325 66.5156 81.05 64.8159 80.9146C64.2712 80.8708 63.7272 80.7984 63.1985 80.6506C62.9236 80.5739 62.6613 80.467 62.4188 80.321C61.4843 79.7611 61.2804 78.7279 61.9241 77.8445C62.4002 77.1939 63.0821 76.89 63.828 76.709C64.4149 76.5637 65.0107 76.4582 65.6095 76.3769C67.5749 76.1122 69.5456 75.8918 71.5055 75.6155C74.9794 75.1256 78.4554 74.6191 81.9249 74.093C86.1603 73.4488 90.4159 72.9369 94.6764 72.4979C97.6015 72.1977 100.544 72.0016 103.482 71.8713C106.362 71.744 109.249 71.6322 112.135 71.7085C113.868 71.7541 115.605 71.8237 117.294 72.3037C117.751 72.4317 118.186 72.6155 118.594 72.8515C119.909 73.6101 120.438 75.0038 119.965 76.4425C119.631 77.4556 118.958 78.1997 118.118 78.813C116.975 79.6554 115.654 80.1109 114.315 80.5237C114.095 80.5915 113.955 80.5514 113.915 80.2948C113.728 79.1329 113.404 78.0164 112.815 76.9037Z" fill="#5A3A83"/>
<path d="M65.3196 86.4492C65.7932 86.7141 66.2255 86.9758 66.6983 87.1673C67.9875 87.6879 69.3429 87.9144 70.7157 88.049C70.8645 88.0635 71.0159 88.0981 71.1658 88.088C71.4978 88.0637 71.7247 88.2157 71.9631 88.4276C73.0613 89.4251 74.3116 90.1955 75.621 90.8812C77.4186 91.8177 79.3059 92.5185 81.262 93.0475C81.4902 93.1094 81.7149 93.176 81.931 93.2394C81.9356 93.3778 81.8526 93.4002 81.7916 93.4362C79.2935 94.8241 77.2843 96.7691 75.5032 98.9763C73.8851 100.98 72.5291 103.155 71.2574 105.386C70.3057 107.059 69.3671 108.738 68.4023 110.404C67.6265 111.745 66.7308 113.007 65.7727 114.227C65.4017 114.701 65.0312 115.18 64.7144 115.696C64.4861 116.067 64.2964 116.454 64.1806 116.877C63.9723 117.613 64.076 118.295 64.5356 118.913C64.6478 119.062 64.7823 119.193 64.5654 119.391C63.5464 120.312 62.5328 121.245 61.4631 122.119C61.3268 121.94 61.4213 121.777 61.4388 121.62C62.0637 116.604 62.4488 111.565 62.8052 106.525C63.1119 102.182 63.3608 97.8333 63.5599 93.4786C63.6039 92.5009 63.6433 91.5197 63.6747 90.5395C63.6818 90.3302 63.7065 90.1311 63.8101 89.9428C64.4187 88.8389 64.9842 87.7158 65.3196 86.4492Z" fill="#FFEE00"/>
<path d="M84.6404 86.4516C82.8193 86.7273 80.7476 86.8906 78.6799 87.0534C76.0296 87.2629 73.374 87.3954 70.7155 87.1361C69.4709 87.0145 68.2513 86.7958 67.0766 86.3429C66.5274 86.1282 66.0187 85.8431 65.5716 85.4606C65.3568 85.2744 65.1683 85.0687 65.0422 84.8063C64.8027 84.3167 64.8603 83.8521 65.2316 83.4472C65.4621 83.1944 65.7458 83.0085 66.0536 82.8524C66.6655 82.5448 67.3114 82.3474 67.9827 82.2245C68.6505 82.1061 69.3138 81.9842 69.9617 81.7702C70.2955 81.66 70.6682 81.6676 71.0248 81.6444C71.9651 81.5826 72.9083 81.545 73.8475 81.4751C75.9364 81.3179 78.0227 81.1406 80.108 80.9879C83.3066 80.7522 86.4998 80.4723 89.695 80.1758C91.1777 80.0396 92.6609 79.8746 94.1426 79.7303C95.9271 79.5572 97.7082 79.3886 99.4932 79.2195C99.5496 79.2126 99.6169 79.2289 99.6587 79.2033C100.399 78.8065 101.21 78.9566 101.99 78.9266C103.105 78.8844 104.213 78.994 105.29 79.3159C106.549 79.6931 107.537 80.4508 108.306 81.4966C108.546 81.8227 108.525 81.8865 108.141 81.9865C106.482 82.418 104.816 82.8299 103.136 83.1864C101.181 83.6051 99.2275 84.0317 97.2703 84.4302C96.0146 84.6858 94.753 84.9258 93.4874 85.1336C90.6272 85.5975 87.7624 86.0906 84.6404 86.4516Z" fill="#5A3A83"/>
<path d="M129.413 137.221C129.258 135.986 129.217 134.745 129.111 133.508C128.962 131.786 128.824 130.058 128.711 128.332C128.649 127.392 128.494 126.459 128.474 125.522C128.44 124.141 128.181 122.788 128.082 121.415C127.759 116.993 127.132 112.604 126.531 108.221C126.194 105.758 125.956 103.278 125.526 100.831C125.287 99.479 125.193 98.1016 124.822 96.7742C124.727 96.4304 124.636 96.0861 124.529 95.7438C124.359 95.1886 124.42 95.0871 124.99 95.0052C125.046 94.9983 125.102 94.9874 125.158 94.9805C126.625 100.464 128.541 105.81 130.204 111.232C130.991 113.792 131.77 116.352 132.295 118.98C132.454 119.777 132.544 120.583 132.59 121.391C132.603 121.598 132.616 121.804 132.633 122.011C132.755 123.548 133.591 124.5 135.039 124.956C136.004 125.259 136.994 125.375 137.996 125.347C139.013 125.316 139.004 125.309 139.214 126.293C139.381 127.089 139.472 127.895 139.557 128.698C139.572 128.847 139.554 129.001 139.568 129.15C139.606 129.533 139.427 129.768 139.114 129.982C136.989 131.451 134.919 132.999 132.868 134.569C131.704 135.442 130.559 136.334 129.413 137.221Z" fill="#A76A2B"/>
<path d="M87.8997 142.731C87.694 142.752 87.4956 142.634 87.2941 142.556C84.4748 141.516 81.6142 140.64 78.6547 140.09C77.3923 139.856 76.1253 139.684 74.8435 139.592C74.6086 139.576 74.4101 139.522 74.2279 139.369C72.2282 137.681 69.9805 136.37 67.7125 135.095C64.3739 133.215 60.93 131.545 57.4341 129.982C57.2698 129.908 57.0733 129.871 56.9434 129.711C57.0827 129.547 57.2774 129.536 57.452 129.494C60.3154 128.821 63.1971 128.767 66.1032 129.18C69.1169 129.605 71.9758 130.534 74.7261 131.811C78.0656 133.364 81.1056 135.375 83.9441 137.708C85.0933 138.654 86.0161 139.787 86.8437 141.01C87.1823 141.507 87.5361 141.995 87.8828 142.492C87.9224 142.549 87.975 142.612 87.8997 142.731Z" fill="#3F713F"/>
<path d="M48.0395 62.6984C47.9106 61.6765 48.1782 60.5571 48.7867 59.5186C49.5482 58.2285 50.5351 57.1111 51.5266 55.9972C51.8177 55.6716 52.1791 55.5866 52.6043 55.6899C53.1346 55.8171 53.6547 55.9945 54.1733 56.1599C55.6101 56.6176 57.055 57.0415 58.5685 57.1916C58.6636 57.2004 58.7546 57.2097 58.8496 57.2185C59.1272 57.2499 59.4691 57.106 59.6582 57.2831C59.8243 57.4385 59.8274 57.7649 59.9032 58.0171C59.9181 58.0725 59.933 58.1278 59.9515 58.1787C60.1077 58.6212 60.3449 59.058 60.3965 59.5133C60.4471 59.9606 60.0502 60.3237 59.9318 60.7589C59.6803 61.6762 59.632 62.6176 59.5917 63.5581C59.5582 64.3874 59.5328 65.2157 59.4495 66.0389C59.2871 67.6847 58.4948 68.9908 57.3328 70.1132C57.1795 70.2627 57.0335 70.305 56.8279 70.2607C54.1577 69.6719 51.7428 68.5984 49.8225 66.5903C48.7958 65.5106 48.1999 64.2108 48.0395 62.6984Z" fill="#FFEE00"/>
<path d="M79.3262 91.4527C79.406 91.3367 79.5116 91.3647 79.6277 91.3791C82.6469 91.8149 85.6815 92.1427 88.7163 92.405C89.988 92.5152 91.2644 92.5961 92.545 92.5785C93.6501 92.562 94.7625 92.6385 95.8677 92.5892C96.5422 92.5599 97.2208 92.53 97.8954 92.5007C99.971 92.4023 102.022 92.1027 104.076 91.8271C104.888 91.7157 105.707 91.5706 106.505 91.3464C106.94 91.2239 107.386 91.1653 107.827 91.0664C109.167 90.7678 110.48 90.3746 111.796 89.9808C113.55 89.456 115.244 88.7751 116.891 87.9814C119.797 86.5846 122.456 84.8094 124.848 82.6542C125.602 81.9737 126.315 81.2494 126.943 80.4413C127.243 80.0573 127.616 79.7299 127.902 79.3313C129.156 77.5849 130.364 75.8072 131.056 73.7454C131.7 71.8283 132.084 69.8532 132.145 67.8193C132.174 66.8189 132.179 65.8175 131.974 64.8417C131.73 63.6867 131.455 62.5356 131.033 61.4228C130.774 60.7396 130.482 60.0603 130.4 59.3186C130.391 59.2422 130.361 59.1641 130.377 59.0968C130.538 58.4765 130.142 58.1083 129.751 57.7516C129.084 57.1427 128.428 56.5242 127.772 55.9017C126.816 54.9972 125.9 54.0511 124.962 53.1281C123.75 51.9402 122.605 50.6912 121.511 49.3991C121.259 49.1031 120.891 48.9029 120.749 48.5117C120.861 48.4859 120.973 48.4681 121.079 48.4347C121.375 48.3495 121.568 48.4607 121.749 48.7041C122.537 49.7681 123.435 50.7327 124.4 51.6403C126.561 53.6802 128.895 55.4949 131.512 56.9195C131.823 57.0898 131.962 57.2934 132.049 57.6382C132.368 58.8779 132.755 60.1012 133.098 61.338C133.589 63.1204 133.998 64.9252 134.15 66.7736C134.4 69.856 133.793 72.7777 132.487 75.5641C130.591 79.6033 127.766 82.8614 124.147 85.4443C120.829 87.8107 117.173 89.4871 113.305 90.7239C110.552 91.6036 107.74 92.221 104.889 92.7C102.167 93.1593 99.423 93.4007 96.6719 93.5204C92.7668 93.6912 88.868 93.5794 85.0003 92.9204C83.2523 92.6234 81.5226 92.2424 79.8432 91.6714C79.6648 91.6156 79.4697 91.5904 79.3262 91.4527Z" fill="#5A3A83"/>
<path d="M151.219 115.851C151.203 115.42 150.96 115.065 150.799 114.689C149.127 110.832 147.463 106.975 145.589 103.208C144.441 100.898 143.196 98.6356 141.836 96.4363C139.911 93.3216 137.538 90.5844 134.949 88.0126C133.633 86.7108 132.276 85.4672 130.785 84.3666C130.08 83.8441 129.307 83.4687 128.424 83.3602C129.165 83.1389 129.917 83.2104 130.661 83.3115C133.883 83.7388 136.54 85.2526 138.756 87.5799C140.279 89.1791 141.43 91.0402 142.49 92.9575C143.938 95.583 145.257 98.2816 146.724 100.896C149.147 105.213 151.77 109.394 154.889 113.253C155.279 113.737 155.639 114.244 155.897 114.817C156.227 115.545 156.068 116.181 155.54 116.74C155.066 117.239 154.468 117.566 153.856 117.869C153.717 117.939 153.599 117.942 153.538 117.773C153.409 117.426 153.285 117.073 153.148 116.693C153.416 116.612 153.587 116.742 153.765 116.822C153.885 116.873 154.001 116.953 154.127 116.978C154.328 117.019 154.508 116.952 154.593 116.75C154.685 116.534 154.629 116.341 154.444 116.196C154.074 115.91 153.649 115.774 153.193 115.72C152.526 115.642 151.875 115.799 151.219 115.851Z" fill="#A76A2B"/>
<path d="M46.75 142.081C47.0949 142.129 47.314 142.384 47.5479 142.592C48.5012 143.44 49.6071 143.497 50.7382 143.158C52.4331 142.653 53.9505 141.797 55.3292 140.677C57.0976 139.235 58.7668 137.683 60.4455 136.142C61.1948 135.454 61.907 134.73 62.6332 134.02C62.7538 133.903 62.8638 133.767 62.9216 133.605C64.4633 134.319 65.9453 135.147 67.4268 135.971C67.471 135.999 67.502 136.052 67.5351 136.089C67.521 136.274 67.3659 136.342 67.254 136.43C64.126 138.981 60.9834 141.514 57.666 143.819C56.0695 144.929 54.4274 145.967 52.5966 146.665C51.6248 147.037 50.6287 147.31 49.5661 147.24C48.7549 147.188 48.178 146.813 47.8053 146.103C47.5296 145.585 47.3233 145.034 47.1886 144.466C46.9986 143.681 46.7724 142.899 46.75 142.081Z" fill="#5A3A83"/>
<path d="M96.5707 37.0209C104.465 36.1584 110.857 41.8034 111.712 48.8645C112.621 56.3358 107.329 63.1431 99.8747 64.0581C92.4487 64.9697 85.6183 59.656 84.6976 52.2557C83.7666 44.7708 89.0817 37.9524 96.5707 37.0209ZM110.775 49.0158C109.919 42.0487 103.627 37.1309 96.656 37.9869C89.6924 38.8379 84.7554 45.1402 85.5969 52.0927C86.4448 59.0648 92.7818 64.018 99.7605 63.157C106.711 62.2994 111.634 55.9784 110.775 49.0158Z" fill="#6E4F93"/>
<path d="M84.1739 46.5798C80.2919 41.2898 73.6894 40.0826 68.6081 42.3622C63.6622 44.5803 60.6671 49.6893 61.1667 55.0822C61.6723 60.556 65.5614 65.0688 70.8706 66.2911C74.0318 67.0201 77.0629 66.617 79.9115 65.0555C82.7375 63.5091 84.6608 61.162 85.7833 58.1447C86.0288 58.2822 86.0804 58.5046 86.2173 58.6554C86.429 58.8828 86.4033 59.1066 86.2813 59.3788C85.7499 60.5795 85.0898 61.6978 84.221 62.6782C80.7527 66.5909 76.4035 68.2418 71.2673 67.264C66.0848 66.2754 62.5514 63.1367 60.8852 58.1274C58.5092 50.9866 62.4403 43.3406 69.5605 40.9957C74.7645 39.2853 80.5333 40.8926 84.1277 45.033C84.4988 45.4615 84.6226 45.8386 84.3566 46.3368C84.3081 46.4081 84.3174 46.5173 84.1739 46.5798Z" fill="#6E4F93"/>
<path d="M45.8549 71.0593C45.2596 71.1361 44.6891 71.0138 44.1236 70.8664C43.9251 70.813 43.8032 70.6849 43.7011 70.5177C42.6846 68.8525 41.4363 67.3628 40.1885 65.8771C39.7393 65.3437 39.2528 64.8393 38.6729 64.4404C38.3918 64.246 38.1005 64.0691 37.7708 63.9787C37.4874 63.8989 37.4295 63.7263 37.4674 63.4683C37.6783 62.1516 38.0469 60.8891 38.8185 59.7817C39.8058 58.366 41.258 58.3152 42.3528 59.6521C42.8281 60.2313 43.1149 60.9071 43.3866 61.5929C44.093 63.3613 44.7918 65.1348 45.7535 66.7862C46.0949 67.3736 46.4363 67.961 46.7545 68.5594C46.9137 68.8586 47.0501 69.1729 47.1548 69.495C47.3952 70.2582 47.0879 70.786 46.3027 70.98C46.1553 71.0103 46.0028 71.033 45.8549 71.0593Z" fill="#6E4F93"/>
<path d="M75.7402 123.842C75.9362 123.74 75.9402 123.54 75.979 123.355C76.7462 119.805 77.5723 116.269 78.5376 112.768C79.1178 110.663 79.7704 108.581 80.6059 106.559C80.8585 105.952 81.0549 105.319 81.2815 104.699C81.3524 104.511 81.3742 104.288 81.5807 104.172C81.642 104.573 81.5131 104.957 81.4547 105.348C80.6645 110.649 80.1388 115.975 79.9395 121.331C79.8265 124.384 79.8321 127.439 80.1426 130.482C80.1515 130.554 80.1402 130.629 80.1404 130.764C79.7912 130.615 79.5504 130.383 79.2788 130.199C79.194 130.14 79.1715 130.057 79.1753 129.955C79.1966 129.192 78.8981 128.522 78.5529 127.869C77.8353 126.511 76.9369 125.277 75.9487 124.111C75.869 124.026 75.8084 123.932 75.7402 123.842Z" fill="#A76A2B"/>
<path d="M99.6094 78.1486C100.472 77.1199 101.461 76.6231 102.668 76.5656C103.252 76.535 103.836 76.5291 104.417 76.5438C105.523 76.5679 106.593 76.3596 107.655 76.095C107.985 76.0139 108.313 75.9288 108.644 75.8598C110.345 75.5089 111.257 76.1165 112.049 77.4168C112.504 78.166 112.75 79.0021 112.927 79.8506C113.273 81.516 113.495 83.1965 113.555 84.8927C113.573 85.442 113.563 85.9908 113.39 86.5144C113.149 87.2506 112.62 87.3683 112.07 86.8105C111.762 86.4968 111.54 86.1235 111.369 85.7237C111.039 84.9633 110.729 84.1964 110.411 83.4305C110.169 82.8554 109.893 82.3008 109.574 81.7678C108.25 79.5234 106.284 78.3134 103.695 78.0905C102.379 77.9817 101.061 78.0324 99.6094 78.1486Z" fill="#A2EAF0"/>
<path d="M36.8954 71.3434C36.778 71.4191 36.6781 71.3373 36.5806 71.3084C36.0464 71.149 35.5133 71.0997 34.9603 71.1877C34.5356 71.256 34.5336 71.2399 34.3883 70.8532C33.9634 69.7163 33.9777 68.5625 34.2816 67.406C34.454 66.7435 34.7268 66.1342 35.1453 65.5805C35.9222 64.55 37.1652 64.4921 38.0995 65.1501C38.3901 65.3556 38.6827 65.5772 38.9229 65.8379C40.4585 67.505 41.8861 69.2588 43.0628 71.1985C43.5074 71.9285 43.8242 72.715 43.8454 73.5908C43.8618 74.1934 43.6668 74.7034 43.1724 75.0702C42.7641 75.3734 42.4608 75.3655 42.0522 75.0641C41.0684 74.3346 40.0669 73.6277 39.1219 72.8485C38.9172 72.6774 38.7517 72.4933 38.609 72.2616C37.9615 71.2418 37.3068 70.231 36.8739 69.0951C36.76 68.7985 36.5194 68.7013 36.2933 68.7902C36.0435 68.8861 35.9392 69.1358 36.0636 69.4515C36.2609 69.9625 36.4889 70.4576 36.7481 70.9407C36.8162 71.0631 36.9476 71.1696 36.8954 71.3434Z" fill="#6E4F93"/>
<path d="M119.104 89.4991C118.964 89.7246 118.766 89.8427 118.596 89.9861C115.627 92.4038 112.275 94.0922 108.604 95.1413C102.971 96.7489 97.2925 96.8505 91.5848 95.5421C90.4794 95.2891 89.4065 94.934 88.3626 94.4815C88.2762 94.443 88.1969 94.3955 88.0703 94.3293C88.2461 94.2302 88.3792 94.2834 88.5115 94.2958C91.4694 94.5308 94.4263 94.5576 97.3908 94.4118C100.489 94.2579 103.56 93.9193 106.608 93.3508C110.758 92.574 114.792 91.4192 118.64 89.6457C118.76 89.5902 118.881 89.5428 119.005 89.4908C119.021 89.4848 119.042 89.4904 119.104 89.4991Z" fill="#CF9356"/>
<path d="M57.7773 126.856C63.4316 125.822 68.9507 126.255 74.2751 128.505C79.182 130.581 83.0844 133.932 86.3864 138.153C85.8949 138.176 85.5996 138.033 85.2975 137.767C80.5277 133.57 75.1857 130.408 68.9803 128.837C66.1263 128.116 63.2218 127.882 60.2826 128.135C60.0885 128.151 59.9164 128.147 59.7468 128.029C59.1364 127.581 58.4446 127.269 57.7773 126.856Z" fill="#A2EAF0"/>
<path d="M87.577 138.443C87.4896 138.229 87.6272 138.118 87.6935 137.991C88.1161 137.204 88.6688 136.512 89.2486 135.84C92.046 132.59 95.0803 129.572 98.268 126.706C101.735 123.586 105.362 120.672 109.231 118.066C109.492 117.891 109.741 117.587 110.05 117.615C110.335 117.641 110.512 117.979 110.754 118.158C111.073 118.393 111.392 118.628 111.67 118.835C111.693 119.024 111.591 119.057 111.518 119.098C106.652 121.699 102.289 125.006 98.118 128.588C94.6241 131.588 91.2896 134.758 88.0771 138.055C87.9394 138.198 87.8367 138.395 87.577 138.443Z" fill="#A2EAF0"/>
<path d="M67.8331 142.586C68.8483 142.703 69.8263 142.984 70.8013 143.274C73.0986 143.953 75.4544 144.376 77.7904 144.871C79.4301 145.218 81.0567 145.624 82.6319 146.211C83.7449 146.627 84.8705 147.012 85.9855 147.411C88.0105 148.136 89.9616 149.025 91.8713 150.009C92.1375 150.148 92.4138 150.27 92.6901 150.391C92.9146 150.49 93.0707 150.631 93.0936 150.885C90.608 149.735 87.9701 149.109 85.2905 148.644C83.4042 148.319 81.5895 147.744 79.819 147.029C78.0997 146.332 76.3119 145.877 74.4925 145.531C73.0663 145.26 71.6289 145.031 70.246 144.579C69.5992 144.368 68.9641 144.119 68.4393 143.669C68.1146 143.385 67.7955 143.081 67.8331 142.586Z" fill="#5A3A83"/>
<path d="M70.2215 126.196C70.2139 126.034 70.3052 125.912 70.4011 125.794C70.822 125.293 70.8114 124.739 70.6174 124.154C70.3894 123.459 70.0794 122.794 69.7699 122.133C69.2733 121.079 68.8558 120.002 68.539 118.881C68.5181 118.81 68.5168 118.732 68.5039 118.66C69.8627 119.483 71.0701 120.504 72.2456 121.565C73.8436 123.008 75.2914 124.592 76.5511 126.342C76.8321 126.736 76.8402 126.735 76.4766 127.07C76.2013 127.324 75.9124 127.568 75.6326 127.818C75.4964 127.941 75.361 128.003 75.1746 127.915C73.5842 127.17 71.9066 126.68 70.2215 126.196Z" fill="#5A3A83"/>
<path d="M79.721 147.993C79.3671 148.073 79.0272 147.865 78.6851 147.907C78.6291 148.151 78.7999 148.212 78.9083 148.296C79.8052 148.983 80.6381 149.748 81.478 150.503C82.3686 151.305 83.4213 151.863 84.5226 152.317C86.3167 153.057 88.1382 153.721 89.9733 154.363C90.2934 154.475 90.6277 154.536 90.9569 154.623C91.1765 154.682 91.4078 154.735 91.4235 155.032C88.9787 154.415 86.4811 154.001 84.116 153.102C82.1921 152.369 80.5611 151.224 79.2729 149.608C78.8964 149.135 78.5578 148.637 78.2877 148.099C78.1901 147.902 78.0523 147.711 78.1267 147.383C78.6679 147.566 79.2163 147.707 79.721 147.993Z" fill="#5A3A83"/>
<path d="M85.209 154.46C85.2246 154.621 85.3123 154.736 85.4383 154.831C86.3658 155.568 87.2146 156.396 88.1849 157.083C88.8019 157.518 89.4922 157.818 90.189 158.104C90.7783 158.347 91.3682 158.593 91.958 158.84C92.0997 158.896 92.2449 158.947 92.2786 159.122C91.8776 159.184 91.4905 159.093 91.1029 159.03C88.8893 158.667 86.9043 157.835 85.333 156.176C84.7603 155.568 84.3079 154.876 83.9062 154.062C84.4006 154.13 84.801 154.297 85.209 154.46Z" fill="#5A3A83"/>
<path d="M120.817 47.5222C120.661 47.6475 120.466 47.6264 120.285 47.6485C117.916 47.9543 115.543 48.2566 113.174 48.5584C113.081 48.5698 112.984 48.5775 112.892 48.5929C112.613 48.6515 112.53 48.5064 112.499 48.2568C112.469 48.0073 112.573 47.925 112.802 47.889C114.368 47.6649 115.933 47.4328 117.494 47.2053C118.297 47.0908 119.097 46.9808 119.9 46.8704C120.564 46.7852 120.603 46.8089 120.817 47.5222Z" fill="#6E4F93"/>
<path d="M90.4797 143.734C89.9733 143.702 89.6244 143.454 89.3394 143.027C88.601 141.933 87.8253 140.868 87.0683 139.788C86.9646 139.641 86.8256 139.507 86.8066 139.284C87.1952 139.188 87.4296 139.368 87.627 139.646C88.3345 140.621 89.0536 141.592 89.7536 142.572C90.0151 142.941 90.3367 143.265 90.5186 143.684C90.504 143.698 90.4939 143.716 90.4797 143.734Z" fill="#3F713F"/>
<path d="M78.0806 129.428C77.5116 129.117 76.9421 128.803 76.3379 128.472C76.6467 128.124 76.9553 127.841 77.3253 127.559C77.6979 128.135 78.0198 128.696 78.0806 129.428Z" fill="#A76A2B"/>
<path d="M65.6016 65.9258C65.8367 66.0114 65.9878 66.1114 66.1468 66.2758C66.0467 66.4597 65.897 66.6046 65.7078 66.7952C65.6704 66.4893 65.6399 66.2397 65.6016 65.9258Z" fill="#FFEE00"/>
<path d="M81.59 104.116C81.5691 104.045 81.5904 103.984 81.6418 103.938C81.6582 104.006 81.6495 104.068 81.59 104.116Z" fill="#A76A2B"/>
<path d="M90.5194 143.688C90.5344 143.711 90.5454 143.734 90.5604 143.757C90.5353 143.751 90.5057 143.742 90.4805 143.737C90.4947 143.719 90.5048 143.702 90.5194 143.688Z" fill="#3F713F"/>
<path d="M79.8917 148.06C79.8399 148.037 79.7842 148.015 79.7324 147.993C79.7973 147.989 79.8491 148.012 79.8917 148.06Z" fill="#5A3A83"/>
<path d="M110.774 49.0164C111.629 55.9835 106.707 62.3044 99.7599 63.1575C92.7812 64.0185 86.4442 59.0653 85.5962 52.0932C84.7503 45.1372 89.6918 38.8384 96.6554 37.9874C103.627 37.1314 109.918 42.0452 110.774 49.0164ZM96.7391 38.8392C90.2685 39.6462 85.6706 45.5476 86.4741 52.0227C87.2767 58.4897 93.1781 63.0876 99.6496 62.2885C106.113 61.4905 110.718 55.5761 109.911 49.1055C109.106 42.6224 103.214 38.0316 96.7391 38.8392Z" fill="#070504"/>
<path d="M96.7408 38.8421C103.216 38.0346 109.108 42.6254 109.917 49.108C110.724 55.5785 106.119 61.4929 99.6554 62.291C93.1798 63.0905 87.2825 58.4921 86.4799 52.0251C85.6764 45.5501 90.2703 39.6492 96.7408 38.8421Z" fill="#A2EAF0"/>
</g>
</g>
<defs>
<clipPath id="clip0_1121_475">
<rect width="191" height="190" fill="white"/>
</clipPath>
</defs>
</svg>
