<svg width="190" height="190" viewBox="0 0 190 190" fill="none" xmlns="http://www.w3.org/2000/svg">
<g clip-path="url(#clip0_1121_217)">
<path d="M20.6992 189.228C13.8314 133.028 6.96353 76.8286 0.0957031 20.6289C56.3077 13.7596 112.516 6.89073 168.728 0.0214033C168.765 0.225212 168.81 0.428036 168.835 0.63332C175.65 56.3983 182.464 112.163 189.279 167.928C189.378 168.737 189.456 168.638 188.647 168.737C132.869 175.553 77.0922 182.369 21.319 189.185C21.1137 189.21 20.906 189.215 20.6992 189.228ZM58.9599 51.0079C58.7384 50.9002 58.5902 50.8244 58.438 50.749C57.0713 50.0622 55.6889 49.4141 54.2675 48.8483C53.3013 48.4639 52.3148 48.1473 51.2918 47.9659C49.4005 47.6333 47.7399 48.0854 46.3124 49.3752C46.0179 49.6399 45.7194 49.9052 45.4666 50.2098C43.5949 52.4444 41.8075 54.7341 40.9034 57.5654C40.8172 57.8292 40.7088 57.9119 40.4157 57.8537C39.4696 57.667 38.6725 57.9973 37.9917 58.6443C37.5197 59.0942 37.1812 59.6339 36.8964 60.2121C36.3926 61.2378 36.0964 62.3239 35.9364 63.4547C35.9112 63.6497 35.9057 63.8057 35.6511 63.8613C34.5569 64.1012 33.8186 64.8124 33.3321 65.7788C32.5036 67.4243 32.2726 69.1438 32.8385 70.9335C32.8974 71.1142 32.9522 71.2954 33.0302 71.4657C33.1137 71.6475 33.0847 71.7776 32.9384 71.9181C32.2772 72.5586 32.0386 73.3803 31.9592 74.2683C31.8104 75.8593 32.1236 77.3857 32.6013 78.8879C33.4775 81.6447 35.1014 83.9015 37.2858 85.763C40.0808 88.1422 43.228 89.9596 46.5349 91.5123C47.3371 91.8923 48.162 92.2245 49.0342 92.408C49.3444 92.4722 49.429 92.5967 49.3894 92.9079C49.243 94.0493 49.1417 95.1933 48.9872 96.3356C48.3301 101.155 47.6313 105.967 47.0074 110.79C45.907 119.304 45.0295 127.835 44.8866 136.427C44.8502 138.503 44.9365 140.58 45.2573 142.637C45.4486 143.867 45.6957 145.087 46.2156 146.233C46.7861 147.491 47.7278 148.177 49.1387 148.155C49.4038 148.152 49.6694 148.152 49.9275 148.124C51.1204 147.991 52.2406 147.597 53.3224 147.089C55.2765 146.163 57.0483 144.95 58.7901 143.691C61.7702 141.534 64.638 139.227 67.4827 136.897C67.9027 136.556 67.796 136.553 68.2495 136.82C69.4552 137.527 70.6331 138.273 71.7737 139.082C71.9348 139.197 72.1182 139.293 72.2334 139.467C72.1042 139.613 71.9665 139.557 71.8448 139.563C70.899 139.613 69.9627 139.707 69.0521 139.978C68.2124 140.228 67.4163 140.566 66.8259 141.251C66.1099 142.078 66.0981 143.084 66.7863 143.936C67.0991 144.322 67.4942 144.613 67.9281 144.854C68.5071 145.18 69.1272 145.406 69.7589 145.595C70.7379 145.884 71.7373 146.072 72.7372 146.264C73.8286 146.47 74.921 146.684 76.0037 146.952C76.2776 147.021 76.3985 147.141 76.4581 147.427C76.6284 148.252 77.0438 148.978 77.5273 149.658C78.6381 151.226 80.0612 152.441 81.7598 153.336C82.0135 153.473 82.3483 153.538 82.2455 153.968C82.2236 154.056 82.3199 154.175 82.3689 154.275C83.2958 156.311 84.7558 157.828 86.764 158.816C87.1377 158.999 87.5206 159.157 87.9069 159.31C88.0918 159.385 88.2219 159.447 88.2318 159.695C88.2516 160.158 88.4804 160.559 88.7273 160.942C89.2502 161.744 89.9446 162.378 90.7469 162.893C91.7406 163.535 92.8425 163.928 93.9866 164.196C96.152 164.7 98.3414 165.098 100.541 165.442C104.003 165.991 107.247 165.366 110.337 163.734C112.167 162.767 113.816 161.552 115.4 160.239C115.675 160.01 115.937 159.786 116.339 159.798C116.576 159.802 116.819 159.711 117.055 159.641C120.52 158.641 123.914 157.434 127.168 155.872C134.098 152.546 140.515 148.391 146.577 143.675C148.697 142.027 150.707 140.262 152.501 138.257C153.31 137.354 154.047 136.401 154.637 135.341C155.259 134.219 155.64 133.024 155.691 131.735C155.722 131.017 155.675 130.303 155.58 129.592C155.104 126.092 154.364 122.644 153.361 119.254C153.271 118.95 153.324 118.821 153.603 118.693C154.238 118.403 154.84 118.047 155.361 117.567C156.411 116.601 156.618 115.452 155.961 114.189C155.673 113.636 155.294 113.139 154.915 112.646C154.167 111.675 153.4 110.715 152.686 109.719C150.151 106.189 147.931 102.469 145.875 98.643C144.59 96.2508 143.401 93.8101 142.031 91.4649C140.895 89.5203 139.616 87.6789 137.938 86.1518C135.488 83.9224 132.647 82.5701 129.304 82.3577C129.048 82.3399 128.785 82.4211 128.534 82.3088C128.548 82.254 128.546 82.2092 128.568 82.1821C128.659 82.0647 128.76 81.9503 128.86 81.8359C130.399 80.0545 131.673 78.1055 132.67 75.9695C134.428 72.2005 134.89 68.2916 134.06 64.2137C133.67 62.2883 133.137 60.4006 132.577 58.5245C132.502 58.2843 132.391 58.0406 132.43 57.7294C132.816 57.8743 133.163 58.0115 133.518 58.1357C135.195 58.7233 136.902 59.0213 138.686 58.7093C141.238 58.2626 143.117 56.354 143.478 53.7893C143.701 52.2095 143.371 50.7097 142.745 49.2665C141.836 47.1716 140.442 45.4259 138.797 43.8702C135.771 41.0044 132.255 38.9094 128.411 37.3406C124.752 35.8513 120.934 34.9942 117.025 34.5283C116.195 34.4294 115.391 34.2949 114.682 33.8096C114.45 33.654 114.176 33.5527 113.918 33.4413C108.639 31.1287 103.109 30.0436 97.3527 30.1057C94.0359 30.1434 90.7719 30.579 87.5491 31.3855C83.9774 32.2795 80.5862 33.6131 77.4122 35.488C75.652 36.5284 73.9799 37.6887 72.4977 39.0995C72.2012 39.3808 71.9176 39.534 71.5242 39.5575C70.8999 39.597 70.2864 39.7251 69.6899 39.892C64.1942 41.4215 60.6832 44.9513 59.126 50.428C59.0596 50.5872 59.0209 50.7717 58.9599 51.0079Z" fill="#94B8FF"/>
<path d="M20.6999 189.226C20.9066 189.213 21.1144 189.208 21.3197 189.183C77.0969 182.366 132.874 175.55 188.647 168.734C189.456 168.636 189.379 168.735 189.28 167.926C182.465 112.161 175.65 56.396 168.836 0.631085C168.811 0.425801 168.765 0.222977 168.728 0.0191681C168.767 0.0388922 168.838 -0.0514482 168.848 0.061749C168.862 0.211173 168.884 0.359612 168.903 0.512569C175.754 56.5714 182.604 112.63 189.458 168.717C189.188 168.75 188.915 168.783 188.645 168.816C132.836 175.637 77.0303 182.456 21.2198 189.268C21.0548 189.288 20.8532 189.444 20.6999 189.226Z" fill="#A2EAF0"/>
<path d="M58.9611 51.0049C59.0221 50.7686 59.0613 50.5882 59.1131 50.4103C60.6738 44.9291 64.1853 41.4033 69.677 39.8743C70.2735 39.7074 70.8905 39.5748 71.5113 39.5398C71.9087 39.5158 72.1883 39.3631 72.4849 39.0818C73.9715 37.6745 75.6431 36.5102 77.3994 35.4703C80.5733 33.5954 83.9646 32.2618 87.5362 31.3678C90.755 30.5618 94.023 30.1257 97.3398 30.088C103.097 30.0259 108.626 31.111 113.905 33.4236C114.164 33.539 114.437 33.6363 114.669 33.7919C115.382 34.2767 116.183 34.4117 117.012 34.5106C120.921 34.9765 124.739 35.8336 128.398 37.3229C132.246 38.8872 135.758 40.9827 138.784 43.8525C140.429 45.4082 141.823 47.1539 142.732 49.2488C143.358 50.692 143.688 52.1878 143.465 53.7715C143.104 56.3322 141.225 58.2409 138.673 58.6916C136.889 59.0035 135.182 58.7056 133.505 58.118C133.151 57.9938 132.803 57.8566 132.418 57.7116C132.378 58.0229 132.493 58.2621 132.564 58.5068C133.128 60.3864 133.657 62.2705 134.047 64.196C134.877 68.2739 134.415 72.1869 132.657 75.9518C131.66 78.0878 130.386 80.0368 128.847 81.8182C128.747 81.9326 128.651 82.0465 128.555 82.1644C128.533 82.1915 128.534 82.2322 128.521 82.2911C128.772 82.4034 129.036 82.3262 129.291 82.34C132.634 82.5524 135.471 83.9051 137.925 86.1341C139.603 87.6612 140.882 89.5026 142.019 91.4472C143.388 93.7924 144.581 96.2326 145.862 98.6253C147.914 102.452 150.138 106.171 152.673 109.702C153.387 110.697 154.154 111.653 154.902 112.628C155.281 113.121 155.66 113.618 155.948 114.171C156.605 115.431 156.398 116.579 155.348 117.549C154.83 118.025 154.228 118.381 153.59 118.675C153.312 118.803 153.258 118.932 153.348 119.236C154.35 122.623 155.09 126.07 155.567 129.574C155.663 130.286 155.709 131.003 155.678 131.718C155.627 133.007 155.246 134.201 154.624 135.323C154.034 136.384 153.297 137.34 152.488 138.24C150.694 140.244 148.684 142.009 146.565 143.657C140.502 148.373 134.089 152.527 127.155 155.855C123.902 157.416 120.507 158.624 117.042 159.623C116.806 159.693 116.564 159.784 116.326 159.78C115.925 159.772 115.666 159.992 115.387 160.222C113.804 161.539 112.154 162.749 110.324 163.717C107.235 165.348 103.99 165.974 100.528 165.424C98.328 165.076 96.1432 164.681 93.9737 164.179C92.8301 163.914 91.7282 163.521 90.7341 162.875C89.9312 162.356 89.2373 161.726 88.7144 160.924C88.4675 160.541 88.2347 160.141 88.2189 159.677C88.209 159.429 88.0784 159.363 87.894 159.292C87.5077 159.139 87.1248 158.981 86.7511 158.798C84.7434 157.814 83.2829 156.293 82.356 154.257C82.311 154.157 82.2107 154.038 82.2326 153.95C82.3354 153.521 82.0006 153.455 81.747 153.319C80.0484 152.423 78.6257 151.212 77.5145 149.64C77.031 148.96 76.6195 148.234 76.4452 147.41C76.3857 147.123 76.2648 147.003 75.9908 146.934C74.9122 146.666 73.8203 146.456 72.7244 146.247C71.7249 146.058 70.725 145.866 69.746 145.577C69.1103 145.389 68.4943 145.162 67.9152 144.837C67.4853 144.595 67.0903 144.304 66.7735 143.918C66.0817 143.071 66.097 142.06 66.813 141.233C67.4034 140.548 68.1996 140.21 69.0392 139.96C69.9499 139.69 70.8862 139.596 71.8319 139.546C71.9537 139.539 72.0913 139.596 72.2205 139.449C72.1098 139.279 71.926 139.179 71.7608 139.064C70.6203 138.256 69.4383 137.509 68.2366 136.802C67.7791 136.536 67.8858 136.539 67.4699 136.88C64.6251 139.209 61.7573 141.516 58.7772 143.674C57.036 144.936 55.2601 146.15 53.3095 147.071C52.2282 147.583 51.1115 147.973 49.9146 148.107C49.6525 148.135 49.3869 148.134 49.1258 148.138C47.7189 148.159 46.7732 147.473 46.2028 146.215C45.6828 145.07 45.4357 143.85 45.2444 142.619C44.9237 140.562 44.8378 138.489 44.8737 136.41C45.0206 127.817 45.8982 119.286 46.9945 110.773C47.6184 105.949 48.3212 101.137 48.9743 96.3179C49.1293 95.1796 49.2301 94.0316 49.3766 92.8902C49.4166 92.583 49.3315 92.4545 49.0213 92.3903C48.1492 92.2068 47.3282 91.8741 46.522 91.4946C43.2146 89.9379 40.0639 88.125 37.2729 85.7453C35.0886 83.8838 33.4646 81.627 32.5885 78.8702C32.1107 77.368 31.7976 75.8416 31.9463 74.2506C32.0302 73.3661 32.2689 72.5444 32.9255 71.9004C33.0678 71.7604 33.0968 71.6302 33.0173 71.4479C32.9393 71.2777 32.8845 71.0965 32.8257 70.9158C32.2597 69.1261 32.4908 67.4066 33.3192 65.7611C33.8057 64.7947 34.54 64.084 35.6382 63.8436C35.8928 63.7879 35.8983 63.632 35.9235 63.437C36.084 62.3102 36.3798 61.2201 36.8836 60.1944C37.1683 59.6162 37.5063 59.0724 37.9788 58.6266C38.6637 57.9791 39.4613 57.6529 40.4029 57.836C40.6959 57.8942 40.8043 57.8115 40.8905 57.5477C41.7942 54.7123 43.582 52.4267 45.4537 50.1921C45.7071 49.8915 46.0051 49.6222 46.2995 49.3575C47.727 48.0677 49.3871 47.6116 51.2789 47.9482C52.306 48.1291 53.2925 48.4457 54.2546 48.8306C55.676 49.3964 57.0584 50.0445 58.4251 50.7313C58.5914 50.8213 58.739 50.8931 58.9611 51.0049ZM89.8452 143.734C89.8703 143.739 89.9 143.747 89.9251 143.752C89.9101 143.73 89.8991 143.707 89.8841 143.684C89.7016 143.261 89.3801 142.937 89.1191 142.572C88.4191 141.592 87.7 140.621 86.9925 139.646C86.7916 139.372 86.5607 139.188 86.1721 139.284C86.1911 139.507 86.3301 139.641 86.4338 139.787C87.1908 140.867 87.9665 141.933 88.7049 143.027C88.9899 143.454 89.3388 143.702 89.8452 143.734ZM79.0984 147.992L79.0853 147.986C78.5846 147.7 78.0322 147.559 77.4825 147.373C77.4041 147.701 77.5424 147.897 77.6435 148.089C77.9136 148.627 78.2522 149.125 78.6287 149.598C79.9169 151.214 81.5479 152.358 83.4718 153.092C85.8409 153.991 88.335 154.409 90.7793 155.022C91.0673 155.105 91.3583 155.18 91.6402 155.28C91.8749 155.362 92.0143 155.532 91.9652 155.8C91.9218 156.046 91.7006 156.175 91.402 156.138C91.2733 156.121 91.1491 156.075 91.0185 156.042C88.8702 155.512 86.7174 154.979 84.5691 154.449C84.1616 154.29 83.7607 154.118 83.2619 154.049C83.6676 154.861 84.1159 155.554 84.6886 156.162C86.2604 157.825 88.2489 158.652 90.4585 159.015C90.8461 159.078 91.2372 159.169 91.6342 159.109C91.9242 159.208 92.2315 159.183 92.5297 159.216C92.8485 159.25 93.1689 159.264 93.4846 159.307C93.7421 159.341 93.893 159.507 93.8767 159.774C93.8568 160.046 93.6709 160.163 93.4153 160.178C93.3223 160.185 93.2272 160.176 93.1327 160.171C91.9464 160.092 90.761 160.02 89.5928 159.787C89.4716 159.765 89.3426 159.679 89.2265 159.799C89.5595 161.254 91.8935 162.868 94.1936 163.237C94.2778 163.324 94.397 163.33 94.5061 163.354C96.6626 163.817 98.8273 164.247 101.014 164.556C103.898 164.959 106.646 164.513 109.263 163.225C110.808 162.464 112.267 161.567 113.61 160.484C114.55 159.723 115.473 158.949 116.414 158.192C116.819 157.865 117.033 157.908 117.235 158.362C117.32 158.552 117.413 158.577 117.578 158.524C117.9 158.419 118.222 158.315 118.549 158.209C122.157 157.078 125.649 155.667 129.007 153.929C133.422 151.645 137.617 149.004 141.686 146.157C144.068 144.494 146.388 142.744 148.566 140.815C150.306 139.274 151.963 137.658 153.306 135.741C154.492 134.044 154.997 132.193 154.74 130.125C154.486 128.08 154.109 126.063 153.671 124.054C153.146 121.659 152.529 119.287 151.676 116.985C151.561 116.676 151.424 116.632 151.143 116.67C150.165 116.794 149.214 117.032 148.275 117.302C145.058 118.223 141.956 119.447 138.924 120.847C138.425 121.076 138.426 121.084 138.573 121.658C138.576 121.715 138.571 121.773 138.582 121.829C139.081 124.076 139.584 126.319 139.812 128.615C139.819 128.704 139.822 128.802 139.947 128.885C140.13 128.85 140.289 128.708 140.46 128.602C140.794 128.393 141.121 128.165 141.465 127.968C141.671 127.849 141.874 127.91 142.023 128.088C142.166 128.258 142.134 128.528 141.95 128.697C141.855 128.786 141.741 128.854 141.627 128.925C140.472 129.642 139.358 130.419 138.253 131.204C136.362 132.546 134.501 133.934 132.66 135.348C127.957 138.95 123.403 142.742 118.844 146.522C118.6 146.728 118.504 146.911 118.573 147.242C118.698 147.831 118.775 148.43 118.845 149.03C118.884 149.356 118.739 149.534 118.481 149.565C118.227 149.596 118.047 149.455 117.972 149.145C117.929 148.962 117.914 148.772 117.892 148.587C117.796 147.839 117.664 147.095 117.406 146.383C116.826 144.783 115.908 143.388 114.804 142.105C114.756 142.05 114.7 141.991 114.61 141.994C114.47 142.154 114.511 142.386 114.402 142.563C114.289 142.744 114.128 142.829 113.926 142.776C113.723 142.728 113.596 142.588 113.591 142.376C113.585 142.266 113.616 142.152 113.64 142.043C113.779 141.377 113.977 140.727 114.223 140.093C114.936 138.241 116.109 136.708 117.542 135.361C118.161 134.779 118.771 134.189 119.312 133.531C119.771 132.972 120.163 132.377 120.286 131.643C120.42 130.801 120.033 130.105 119.242 129.785C118.885 129.641 118.516 129.596 118.132 129.626C117.294 129.692 116.574 130.05 115.905 130.528C115.037 131.149 114.319 131.919 113.642 132.737C112.39 134.254 111.324 135.9 110.246 137.539C109.478 138.708 108.704 139.864 107.837 140.963C106.413 142.775 104.664 144.178 102.573 145.152C100.463 146.137 98.2805 146.902 96.0057 147.409C95.6438 147.49 95.3082 147.519 95.0335 147.177C94.9232 147.043 94.7157 146.983 94.5464 146.901C92.1473 145.756 89.7179 144.664 87.2328 143.718C83.5563 142.317 79.8097 141.177 75.8944 140.663C73.9431 140.407 71.9873 140.282 70.0328 140.636C69.2452 140.777 68.4931 141.008 67.8424 141.5C67.4871 141.768 67.195 142.085 67.2138 142.573C67.1762 143.068 67.4952 143.372 67.8239 143.655C68.3488 144.105 68.9839 144.355 69.6306 144.566C71.0136 145.018 72.451 145.246 73.8772 145.517C75.6965 145.863 77.4844 146.319 79.2037 147.015C80.9742 147.731 82.7884 148.301 84.6752 148.63C87.3588 149.095 89.9927 149.721 92.4783 150.872C92.6756 150.982 92.8831 151.075 93.0663 151.204C93.2365 151.326 93.2798 151.513 93.1852 151.708C93.08 151.917 92.9122 152.016 92.6755 151.951C92.5865 151.925 92.5001 151.886 92.4132 151.844C90.2664 150.791 87.9841 150.167 85.6439 149.738C83.5294 149.351 81.4388 148.891 79.4396 148.077C79.3879 148.055 79.3306 148.054 79.2763 148.044C79.215 148.011 79.1632 147.989 79.0984 147.992ZM120.112 48.512C119.906 48.529 119.698 48.538 119.493 48.5631C117.244 48.8461 115 49.1367 112.751 49.4237C112.618 49.44 112.491 49.4638 112.357 49.4719C112.122 49.4884 112.033 49.6013 112.046 49.8367C112.067 50.214 112.068 50.5898 112.057 50.967C111.839 58.7434 105.448 65.0151 97.6671 65.0264C93.4068 65.0322 89.8083 63.4334 86.884 60.3305C86.7476 60.1838 86.6496 59.9833 86.4299 59.9244C86.2505 60.0607 86.1986 60.2713 86.1061 60.4501C85.6357 61.3818 85.0765 62.255 84.4189 63.0584C80.2003 68.219 73.1118 69.8532 67.0556 67.0636C66.285 66.7084 66.2769 66.7094 65.7701 67.376C65.7034 67.4658 65.6373 67.5597 65.5752 67.6531C64.6192 69.0568 63.9746 70.6022 63.5662 72.2413C63.3139 73.2526 63.1904 74.2808 63.1498 75.3193C63.133 75.7504 63.1742 75.7862 63.5995 75.6893C64.1918 75.5556 64.7866 75.4747 65.3859 75.3974C68.0808 75.0518 70.7777 74.7222 73.4637 74.3041C75.7568 73.9462 78.0598 73.6362 80.3553 73.2985C85.9568 72.4669 91.5735 71.7601 97.2202 71.2988C98.5917 71.1884 99.9696 71.0976 101.342 71.028C103.754 70.9089 106.168 70.8018 108.579 70.7808C110.579 70.7612 112.581 70.7616 114.572 70.9799C115.852 71.1217 117.117 71.343 118.261 71.9794C119.129 72.4616 119.81 73.1219 120.155 74.0725C120.678 75.5119 120.357 76.8259 119.499 78.0337C118.572 79.3399 117.256 80.138 115.801 80.7325C115.225 80.9663 114.632 81.1614 114.032 81.3327C113.499 81.4837 113.504 81.4912 113.565 82.023C113.611 82.4341 113.674 82.8472 113.704 83.2602C113.763 84.0496 113.84 84.841 113.798 85.6346C113.768 86.2265 113.675 86.8016 113.349 87.3113C112.849 88.0996 111.96 88.2777 111.189 87.755C110.806 87.4954 110.519 87.1506 110.275 86.7636C109.971 86.2819 109.744 85.7622 109.534 85.2406C109.239 84.5044 108.965 83.7617 108.605 83.0541C108.41 82.6693 108.402 82.6702 108.003 82.7763C105.619 83.4271 103.206 83.9712 100.794 84.4947C97.5461 85.198 94.2846 85.8213 91.0082 86.3565C86.6866 87.0643 82.3448 87.6399 77.9766 87.9653C76.661 88.0648 75.3394 88.1487 74.0206 88.1546C73.5634 88.1574 73.1041 88.1767 72.6479 88.1876C72.6501 88.2731 72.6446 88.2942 72.6501 88.3058C72.6841 88.3506 72.7187 88.3995 72.7634 88.4308C74.579 89.7491 76.5393 90.7801 78.6842 91.4494C78.8272 91.5831 79.0228 91.6123 79.1976 91.6726C80.8811 92.2431 82.6108 92.6241 84.3548 92.9216C88.2224 93.5806 92.1212 93.6925 96.0263 93.5216C98.7774 93.402 101.517 93.157 104.244 92.7013C107.094 92.2222 109.907 91.6088 112.659 90.7251C116.528 89.4884 120.184 87.8119 123.502 85.4455C127.12 82.8626 129.945 79.6045 131.842 75.5653C133.148 72.7789 133.754 69.8532 133.505 66.7748C133.356 64.9259 132.948 63.1252 132.452 61.3392C132.109 60.1025 131.723 58.8792 131.404 57.6394C131.313 57.2952 131.177 57.0911 130.867 56.9207C128.249 55.4961 125.916 53.6815 123.754 51.6415C122.794 50.7335 121.891 49.7693 121.104 48.7053C120.923 48.4619 120.733 48.3462 120.433 48.4359C120.335 48.4683 120.223 48.4861 120.112 48.512ZM67.8741 118.659C67.7082 118.471 67.4796 118.372 67.2757 118.242C66.7963 117.929 66.7927 117.933 66.3747 118.323C64.706 119.88 63.0334 121.436 61.2804 122.905C60.8655 123.254 60.4125 123.558 60.4273 124.214C60.4356 124.483 60.1868 124.619 59.9585 124.59C59.7262 124.561 59.5657 124.385 59.5695 124.115C59.571 123.926 59.6052 123.738 59.6314 123.551C60.2317 119.27 60.6213 114.97 60.9611 110.663C61.4088 104.967 61.7615 99.2613 62.0157 93.5517C62.0629 92.4674 62.24 91.3755 62.0372 90.2849C62.01 90.1289 62.1039 89.9949 62.1777 89.8633C62.3354 89.5826 62.4977 89.3054 62.6428 89.0221C63.0817 88.1678 63.5247 87.3129 63.7647 86.3685C63.8704 85.9634 63.8497 85.6268 63.6315 85.245C63.1649 84.4359 63.2905 83.5912 63.8985 82.8837C64.1347 82.6097 64.419 82.3952 64.7218 82.1989C64.8392 82.1233 65.0083 82.1026 65.0667 81.8789C64.9551 81.8681 64.8515 81.8562 64.7479 81.8444C64.2023 81.7926 63.6557 81.7654 63.1152 81.6885C62.3997 81.5839 61.7193 81.3647 61.1169 80.9481C60.023 80.1871 59.6996 78.8785 60.3155 77.7002C60.6401 77.0804 61.1198 76.5928 61.7498 76.2993C62.1366 76.1213 62.2384 75.8842 62.2465 75.4828C62.2924 73.0506 62.8682 70.7415 63.9928 68.5777C64.1146 68.3381 64.1716 68.1024 64.1789 67.8278C64.2047 67.0689 64.0729 66.3251 64.0096 65.573C63.9823 65.2495 63.8567 65.0238 63.6098 64.8089C62.3795 63.7336 61.3523 62.4824 60.5485 61.0527C60.4864 60.9459 60.4556 60.7944 60.2605 60.7693C60.0576 61.2148 59.9859 61.6975 59.9553 62.1833C59.8824 63.2912 59.8225 64.4056 59.7787 65.5181C59.695 67.7752 58.6615 69.5479 57.0338 71.0378C56.8538 71.2027 56.6715 71.2822 56.4201 71.2312C54.4219 70.8258 52.5335 70.1497 50.8063 69.0535C49.531 68.2452 48.3959 67.2809 47.6118 65.9795C46.1873 63.6166 46.0486 61.211 47.5289 58.8158C48.2923 57.5746 49.249 56.4772 50.2238 55.394C50.7384 54.8245 51.3686 54.6331 52.1201 54.7986C52.6912 54.9249 53.2485 55.106 53.8058 55.2871C54.9887 55.6737 56.1838 56.026 57.4202 56.214C57.8822 56.2842 58.3422 56.371 58.8112 56.2973C58.876 56.126 58.8372 55.9755 58.8155 55.8311C58.6531 54.7029 58.6255 53.5747 58.7695 52.4459C58.8158 52.0562 58.6946 51.8667 58.3596 51.6993C56.5674 50.8071 54.7661 49.9406 52.8722 49.2855C52.3732 49.1136 51.8625 48.98 51.3427 48.8719C49.6326 48.5171 48.1276 48.9053 46.8392 50.0963C46.6743 50.2513 46.5049 50.4027 46.3495 50.5688C44.8956 52.1436 43.6746 53.8861 42.6192 55.7472C42.2255 56.4367 41.979 57.194 41.7234 57.9443C41.6636 58.1232 41.5907 58.2955 41.7894 58.451C42.6632 59.149 43.1444 60.1115 43.5334 61.1221C44.4433 63.4866 45.4998 65.78 46.8222 67.943C47.0876 68.3763 47.2845 68.8506 47.4225 69.3444C47.7083 70.3798 47.2838 71.2855 46.2933 71.7048C45.6915 71.9622 45.0511 72.0037 44.4034 71.9521C44.2219 71.9375 44.0436 71.849 43.8568 71.9249C44.2608 74.6291 44.2328 74.7346 42.7227 76.0835C42.7234 76.1896 42.8002 76.2497 42.8583 76.3243C43.4138 76.9917 43.8448 77.7112 43.7407 78.6308C43.7237 78.7922 43.8074 78.876 43.9441 78.9246C44.0682 78.9707 44.1888 79.0214 44.3134 79.0715C47.0347 80.1116 49.4453 81.6187 51.3818 83.825C51.4816 83.9395 51.5924 84.0444 51.6806 84.1643C51.8189 84.3599 51.7942 84.559 51.6268 84.7265C51.4518 84.8991 51.2435 84.9 51.0623 84.7546C50.8857 84.6128 50.7307 84.4479 50.5757 84.283C49.108 82.6689 47.3847 81.4047 45.3898 80.5251C44.906 80.3105 44.4126 80.1175 43.9394 79.8893C43.5532 79.7037 43.2224 79.6379 42.8688 79.9875C42.6575 80.1972 42.3384 80.2607 42.0335 80.3061C41.5198 80.3811 41.0144 80.3244 40.5208 80.1968C39.1471 79.854 37.9313 79.1651 36.7393 78.4365C36.457 78.2667 36.3918 78.0337 36.5046 77.8197C36.6309 77.5837 36.8887 77.5195 37.1895 77.6747C37.4075 77.787 37.6118 77.9214 37.8268 78.0422C38.6303 78.4996 39.451 78.9304 40.3349 79.2104C40.841 79.3733 41.3542 79.4944 41.8911 79.4084C42.6127 79.2957 42.9702 78.7781 42.8218 78.065C42.7429 77.6865 42.5481 77.3631 42.3075 77.0656C41.9992 76.6825 41.6395 76.3466 41.244 76.0517C39.9062 75.0672 38.5862 74.0602 37.2802 73.035C37.0137 72.8265 36.7185 72.6502 36.4211 72.4904C36.0575 72.2898 35.6747 72.1323 35.2584 72.0688C34.2011 71.9079 33.401 72.3815 33.0422 73.3895C32.8967 73.8036 32.8301 74.2284 32.8224 74.6665C32.7779 76.5757 33.2744 78.3656 34.0367 80.0904C34.9969 82.2649 36.5197 83.9948 38.347 85.4751C40.7188 87.3995 43.3437 88.9212 46.0676 90.2837C47.4599 90.9797 48.8964 91.5354 50.4363 91.8007C50.549 91.8196 50.658 91.843 50.7646 91.879C50.9942 91.9531 51.1004 92.1199 51.0801 92.3552C51.0574 92.5704 50.9136 92.731 50.711 92.7108C50.2815 92.6734 50.2773 92.9395 50.2488 93.2412C49.9875 95.7161 49.6768 98.1889 49.3245 100.655C48.3302 107.562 47.3319 114.469 46.7071 121.425C46.2007 127.043 45.6944 132.661 45.8086 138.309C45.8323 139.573 45.8766 140.838 46.1226 142.083C46.145 142.901 46.3712 143.682 46.5571 144.468C46.6924 145.04 46.8981 145.587 47.1738 146.105C47.5466 146.815 48.127 147.185 48.9346 147.242C50.0013 147.312 50.9934 147.039 51.9652 146.667C53.7959 145.97 55.4375 144.928 57.0345 143.821C60.352 141.516 63.4945 138.983 66.6226 136.432C66.734 136.341 66.8851 136.273 66.9037 136.091C66.8706 136.054 66.8395 136.001 66.7953 135.974C65.3138 135.15 63.8318 134.322 62.2901 133.607C60.7945 132.801 59.2502 132.099 57.7095 131.393C56.7832 130.967 55.8442 130.571 54.9154 130.158C54.5265 129.985 54.4123 129.819 54.4714 129.534C54.5245 129.266 54.6929 129.106 54.9592 129.045C55.6578 128.878 56.3523 128.711 57.0509 128.544C57.2971 128.486 57.5566 128.47 57.7733 128.338C57.7419 128.215 57.6655 128.191 57.6002 128.159C56.9975 127.84 56.3862 127.551 55.7451 127.319C55.4802 127.225 55.2537 127.109 55.2662 126.777C55.2781 126.473 55.4557 126.288 55.8487 126.195C56.1422 126.123 56.4356 126.05 56.731 125.993C59.904 125.381 63.0952 125.285 66.3032 125.661C67.4099 125.791 68.4936 126.035 69.5896 126.211C71.2743 126.692 72.9524 127.185 74.5468 127.93C74.7332 128.018 74.8681 127.952 75.0048 127.833C75.2846 127.583 75.5735 127.339 75.8488 127.085C76.2124 126.75 76.2039 126.747 75.9233 126.357C74.6636 124.607 73.2159 123.023 71.6178 121.58C70.4408 120.506 69.2329 119.482 67.8741 118.659ZM75.1048 123.838C75.173 123.928 75.2336 124.022 75.3053 124.108C76.2939 125.278 77.1924 126.512 77.9094 127.866C78.2547 128.519 78.5531 129.189 78.5319 129.952C78.5281 130.054 78.5505 130.137 78.6353 130.196C78.911 130.379 79.1518 130.611 79.4969 130.761C79.5008 130.626 79.508 130.551 79.4992 130.479C79.1882 127.432 79.183 124.381 79.296 121.328C79.4954 115.972 80.0211 110.646 80.8113 105.345C80.8702 104.958 80.9945 104.571 80.9372 104.169C80.9559 104.155 80.9615 104.134 80.9505 104.111C81.0059 104.063 81.0147 104.001 81.0023 103.933C81.0435 103.768 81.0721 103.601 81.1304 103.443C81.213 103.217 81.3893 103.121 81.6231 103.162C81.8609 103.203 81.9826 103.363 81.979 103.601C81.975 103.769 81.9383 103.937 81.9142 104.107C80.8656 110.805 80.1892 117.538 80.1403 124.326C80.123 126.591 80.1993 128.853 80.4622 131.105C80.5004 131.451 80.6391 131.684 80.9111 131.904C82.8207 133.456 84.5452 135.198 86.0724 137.131C86.1496 137.228 86.191 137.366 86.3554 137.374C86.6665 136.944 86.9649 136.511 87.2859 136.096C87.6105 135.677 87.9446 135.268 88.2928 134.874C92.2425 130.388 96.5618 126.286 101.195 122.508C103.609 120.538 106.078 118.643 108.704 116.962C109.503 116.448 109.507 116.451 110.2 117.073C110.636 117.465 111.097 117.826 111.561 118.182C111.881 118.425 112.161 118.505 112.528 118.268C112.827 118.076 113.172 117.952 113.497 117.806C114.597 117.312 115.713 116.849 116.84 116.413C117.429 116.186 117.55 116.241 117.778 116.805C117.89 117.086 118.014 117.361 118.137 117.635C120.547 122.983 123.082 128.274 125.538 133.599C126.187 135.003 126.821 136.412 127.471 137.816C127.62 138.137 127.637 138.143 127.907 137.938C128.206 137.71 128.49 137.463 128.779 137.223C129.929 136.335 131.074 135.443 132.225 134.563C134.276 132.993 136.346 131.445 138.471 129.976C138.779 129.763 138.963 129.528 138.925 129.145C138.91 128.995 138.928 128.842 138.914 128.692C138.828 127.886 138.742 127.079 138.571 126.287C138.365 125.303 138.37 125.311 137.353 125.341C136.347 125.37 135.357 125.254 134.396 124.951C132.951 124.494 132.112 123.543 131.989 122.005C131.972 121.799 131.959 121.592 131.946 121.385C131.9 120.574 131.814 119.768 131.652 118.974C131.126 116.346 130.348 113.786 129.561 111.227C127.894 105.805 125.982 100.458 124.515 94.9752C124.497 94.863 124.468 94.7523 124.47 94.6376C124.469 94.3599 124.609 94.1712 124.835 94.1517C125.074 94.1308 125.231 94.2464 125.311 94.4694C125.349 94.5751 125.383 94.6854 125.404 94.7971C125.769 96.3785 126.268 97.923 126.756 99.473C128.311 104.443 129.98 109.374 131.429 114.377C132.131 116.808 132.792 119.248 132.884 121.802C132.888 121.973 132.921 122.141 132.946 122.309C133.052 123.044 133.465 123.549 134.117 123.874C134.405 124.018 134.708 124.124 135.02 124.205C135.979 124.463 136.962 124.453 137.943 124.452C138.151 124.451 138.209 124.358 138.17 124.171C137.986 123.307 137.804 122.447 137.607 121.535C136.953 121.803 136.405 122.136 135.841 122.433C135.676 122.519 135.508 122.617 135.331 122.671C135.134 122.728 134.953 122.656 134.856 122.46C134.764 122.275 134.777 122.081 134.935 121.939C135.046 121.84 135.184 121.77 135.314 121.697C136.628 120.952 137.986 120.296 139.366 119.686C142.993 118.079 146.684 116.655 150.591 115.859C151.247 115.812 151.897 115.651 152.565 115.732C153.025 115.787 153.45 115.922 153.816 116.209C154.001 116.354 154.057 116.547 153.965 116.762C153.879 116.965 153.7 117.032 153.499 116.991C153.373 116.965 153.258 116.89 153.136 116.835C152.955 116.755 152.788 116.624 152.52 116.706C152.656 117.086 152.781 117.438 152.91 117.786C152.971 117.954 153.089 117.948 153.228 117.882C153.84 117.578 154.438 117.256 154.912 116.753C155.44 116.194 155.6 115.562 155.269 114.83C155.011 114.257 154.651 113.749 154.261 113.266C151.142 109.407 148.519 105.225 146.096 100.909C144.628 98.2939 143.31 95.5953 141.861 92.9698C140.801 91.0486 139.651 89.1874 138.128 87.5923C135.911 85.2609 133.254 83.7471 130.032 83.3238C129.289 83.2267 128.537 83.1552 127.795 83.3725C127.466 83.4168 127.199 83.5761 126.958 83.8058C125.302 85.3685 123.47 86.6873 121.511 87.8418C121.366 87.9248 121.202 87.9858 121.097 88.1333C120.378 89.169 119.417 89.9646 118.447 90.7491C114.434 93.9848 109.828 95.9081 104.784 96.8186C101.17 97.4726 97.5419 97.4993 93.9037 97.0125C91.0217 96.6293 88.231 95.9245 85.6875 94.4664C85.002 94.0722 84.3025 93.8309 83.5322 93.7126C83.1411 93.6542 82.7975 93.6839 82.4364 93.8383C80.837 94.524 79.4681 95.5574 78.1964 96.7178C76.6569 98.1274 75.3453 99.7298 74.1525 101.436C72.5699 103.697 71.2435 106.114 69.9079 108.524C68.6159 110.855 67.2169 113.114 65.5383 115.19C65.2294 115.571 64.9477 115.973 64.7106 116.406C64.5468 116.704 64.4177 117.018 64.3528 117.357C64.2753 117.759 64.4107 118.098 64.6376 118.417C64.7118 118.523 64.8087 118.58 64.9181 118.473C65.2404 118.168 65.6223 117.917 65.8593 117.516C65.7705 117.458 65.7011 117.425 65.646 117.375C65.3905 117.157 65.3328 116.951 65.4752 116.746C65.6277 116.523 65.841 116.497 66.0741 116.599C66.2987 116.699 66.5268 116.793 66.7412 116.91C67.9295 117.541 69.0178 118.323 70.0854 119.136C71.9135 120.523 73.5634 122.123 75.1048 123.838ZM84.2777 44.5856C84.4975 44.379 84.5555 44.1513 84.6627 43.9585C87.3723 38.9864 91.5682 36.2472 97.2106 36.0847C102.576 35.9274 106.781 38.2814 109.781 42.7395C110.59 43.9398 111.132 45.2667 111.538 46.647C111.657 47.0532 111.665 47.0522 112.084 47.0051C112.16 46.9957 112.232 46.9829 112.309 46.9735C114.493 46.6576 116.681 46.3453 118.865 46.0294C119.009 46.0076 119.166 46.0211 119.31 45.8973C119.241 45.534 119.027 45.217 118.903 44.8686C118.786 44.5479 118.654 44.2372 118.553 43.9145C118.458 43.6074 118.551 43.3919 118.78 43.2944C119.013 43.1965 119.233 43.2962 119.373 43.5732C119.422 43.6734 119.456 43.7837 119.494 43.8894C120.181 45.8358 121.234 47.5659 122.592 49.1158C124.378 51.1608 126.419 52.9173 128.631 54.4771C130.304 55.6577 132.059 56.6811 134.01 57.3373C135.497 57.8378 137.009 58.0739 138.579 57.788C140.845 57.3722 142.446 55.5996 142.615 53.3035C142.721 51.828 142.349 50.4599 141.707 49.1494C140.657 47.0103 139.109 45.2713 137.326 43.7242C134.346 41.1307 130.955 39.2287 127.271 37.8283C123.792 36.5049 120.177 35.7742 116.491 35.33C116.338 35.312 116.192 35.293 116.05 35.3675C115.835 35.4796 115.65 35.4041 115.472 35.2789C114.819 34.8234 114.104 34.4819 113.375 34.1666C107.987 31.8345 102.351 30.8115 96.4953 31.0001C93.8504 31.0864 91.2344 31.4428 88.6505 32.0282C85.8798 32.6569 83.202 33.5438 80.634 34.7605C78.2709 35.8827 76.05 37.2326 74.0305 38.8929C73.8672 39.0272 73.6506 39.1272 73.5809 39.4258C75.672 39.5216 77.6354 39.9762 79.4904 40.8811C81.3409 41.7825 82.9204 43.0398 84.2777 44.5856ZM117.813 128.754C118.173 128.69 118.53 128.704 118.884 128.758C120.484 129.012 121.448 130.353 121.132 131.907C120.986 132.624 120.642 133.25 120.206 133.83C119.455 134.833 118.504 135.644 117.627 136.527C116.515 137.656 115.629 138.932 115.046 140.413C114.921 140.726 114.907 140.981 115.193 141.216C115.366 141.358 115.499 141.546 115.647 141.72C116.613 142.869 117.403 144.124 118.02 145.491C118.177 145.844 118.201 145.841 118.502 145.628C118.562 145.584 118.622 145.536 118.681 145.488C121.261 143.334 123.833 141.178 126.452 139.072C126.887 138.725 126.886 138.713 126.64 138.171C126.097 136.967 125.561 135.762 125.002 134.564C122.742 129.705 120.477 124.85 118.217 119.991C117.857 119.222 117.517 118.443 117.165 117.673C116.999 117.313 116.99 117.31 116.614 117.442C116.544 117.467 116.474 117.496 116.403 117.521C113.3 118.733 110.357 120.261 107.558 122.062C104.838 123.808 102.261 125.749 99.7752 127.809C95.6766 131.21 91.7996 134.854 88.0816 138.663C87.7149 139.038 87.7093 139.092 88.0229 139.52C89.1945 141.117 90.3736 142.709 91.5412 144.307C91.703 144.528 91.8968 144.676 92.1439 144.793C93.2255 145.286 94.3035 145.783 95.3729 146.31C95.7029 146.47 96.0087 146.498 96.353 146.407C98.085 145.938 99.7761 145.367 101.435 144.67C103.88 143.645 105.885 142.072 107.46 139.947C108.954 137.93 110.234 135.768 111.701 133.73C112.696 132.346 113.76 131.027 115.114 129.971C115.914 129.358 116.788 128.888 117.813 128.754ZM61.4547 55.6311C61.5128 55.9059 61.5973 56.4307 61.7292 56.9416C63.336 63.0366 69.3745 66.817 75.5361 65.488C79.9942 64.5265 82.9356 61.7853 84.4278 57.4809C84.5454 57.1397 84.5301 56.8475 84.3786 56.5105C83.2118 53.916 82.8315 51.2049 83.2512 48.3879C83.3034 48.0465 83.2428 47.7843 83.056 47.4925C80.2386 43.1591 74.9588 41.1734 69.9452 42.5705C64.3745 44.1214 60.7167 49.626 61.4547 55.6311ZM112.179 76.9019C112.773 78.0141 113.093 79.1311 113.283 80.2885C113.327 80.5446 113.463 80.5852 113.683 80.5174C115.022 80.1047 116.339 79.6496 117.486 78.8067C118.321 78.1899 118.999 77.4493 119.333 76.4362C119.806 74.9975 119.277 73.6038 117.962 72.8452C117.554 72.6092 117.119 72.4294 116.662 72.2974C114.973 71.8174 113.24 71.7473 111.503 71.7023C108.617 71.6259 105.734 71.7372 102.85 71.865C99.9078 71.9958 96.9698 72.1914 94.0447 72.4917C89.7842 72.9306 85.5291 73.4465 81.2932 74.0867C77.8237 74.6128 74.3477 75.1193 70.8738 75.6092C68.9099 75.886 66.9431 76.1059 64.9778 76.3706C64.379 76.4519 63.7832 76.5574 63.1963 76.7027C62.4544 76.8832 61.7685 77.1876 61.2924 77.8382C60.6487 78.7217 60.8525 79.7548 61.7871 80.3147C62.0296 80.4607 62.2919 80.5676 62.5668 80.6443C63.0955 80.7921 63.6355 80.865 64.1841 80.9083C65.8838 81.0437 67.5772 80.9267 69.2725 80.8257C72.2089 80.6507 75.1444 80.435 78.0784 80.2072C80.5797 80.0159 83.0777 79.7637 85.5801 79.5805C86.9163 79.4826 88.2501 79.3318 89.5828 79.2057C92.1955 78.9559 94.8022 78.6905 97.4143 78.4366C97.689 78.4112 97.8428 78.2984 97.9807 78.0569C98.5903 76.9938 99.5011 76.2901 100.656 75.912C101.398 75.6661 102.175 75.6365 102.953 75.6518C104.128 75.6716 105.29 75.6195 106.432 75.3082C107.085 75.1305 107.748 74.9719 108.425 74.8973C109.46 74.7789 110.384 75.0173 111.155 75.7116C111.476 75.9991 111.781 76.0478 112.179 75.9664C113.419 75.7128 114.644 75.4118 115.875 75.1225C116.304 75.0211 116.547 75.1017 116.63 75.3776C116.707 75.6418 116.534 75.8632 116.107 75.9807C115.653 76.1097 115.191 76.2111 114.734 76.3159C113.904 76.5113 113.081 76.6977 112.179 76.9019ZM64.6854 86.448C64.354 87.7141 63.7846 88.8376 63.1754 89.9375C63.0718 90.1258 63.0471 90.3249 63.04 90.5342C63.0046 91.5149 62.9692 92.4956 62.9253 93.4733C62.7257 97.824 62.4768 102.173 62.1706 106.52C61.8142 111.56 61.4291 116.599 60.8042 121.615C60.7866 121.772 60.6881 121.935 60.8284 122.114C61.8982 121.24 62.9117 120.307 63.9308 119.386C64.1481 119.192 64.0091 119.058 63.9009 118.908C63.4409 118.286 63.3376 117.608 63.5459 116.872C63.6658 116.448 63.8514 116.062 64.0798 115.691C64.3971 115.178 64.7676 114.7 65.1381 114.222C66.0961 113.002 66.9919 111.74 67.7676 110.399C68.7324 108.733 69.6711 107.054 70.6228 105.381C71.8939 103.146 73.2499 100.97 74.8685 98.971C76.6501 96.7678 78.6593 94.8228 81.1569 93.4309C81.2219 93.3944 81.301 93.3725 81.2963 93.2341C81.0807 93.1747 80.8556 93.1041 80.6274 93.0422C78.6712 92.5132 76.784 91.8123 74.9864 90.8759C73.6775 90.1943 72.4267 89.4198 71.3284 88.4223C71.0936 88.2059 70.8626 88.0544 70.5311 88.0826C70.3812 88.0928 70.2299 88.0582 70.081 88.0437C68.7083 87.9091 67.3524 87.6786 66.0637 87.162C65.5914 86.9746 65.159 86.7128 64.6854 86.448ZM84.0054 86.4524C87.1269 86.0873 89.9922 85.5982 92.8565 85.1338C94.1226 84.93 95.3842 84.6901 96.6393 84.4305C98.5965 84.032 100.55 83.6053 102.505 83.1867C104.181 82.8266 105.846 82.4147 107.51 81.9868C107.894 81.8867 107.915 81.8229 107.675 81.4968C106.901 80.4475 105.918 79.6933 104.659 79.3161C103.581 78.9903 102.474 78.8846 101.359 78.9268C100.579 78.9568 99.7678 78.8067 99.0278 79.2036C98.982 79.2296 98.9186 79.2128 98.8623 79.2197C97.0772 79.3888 95.2962 79.5574 93.5117 79.7306C92.03 79.8749 90.5468 80.0398 89.0641 80.176C85.8729 80.4721 82.6757 80.7525 79.4771 80.9881C77.3878 81.1413 75.3019 81.3227 73.2166 81.4754C72.2774 81.5452 71.3342 81.5828 70.3939 81.6446C70.0372 81.6678 69.6605 81.6607 69.3308 81.7705C68.6829 81.9845 68.0196 82.1064 67.3518 82.2248C66.68 82.3436 66.0341 82.541 65.4227 82.8527C65.1189 83.0083 64.8352 83.1941 64.6007 83.4475C64.2293 83.8523 64.1712 84.3129 64.4113 84.8065C64.5368 85.0649 64.7259 85.2746 64.9407 85.4608C65.3883 85.8473 65.897 86.1324 66.4457 86.3432C67.6164 86.7965 68.84 87.0147 70.0846 87.1363C72.7431 87.3956 75.3987 87.2631 78.049 87.0536C80.1167 86.8908 82.1849 86.732 84.0054 86.4524ZM87.2672 142.729C87.3429 142.614 87.2903 142.551 87.2502 142.49C86.904 141.997 86.5462 141.51 86.2111 141.008C85.3836 139.785 84.4647 138.651 83.3115 137.706C80.4731 135.372 77.429 133.363 74.0935 131.809C71.3432 130.532 68.4843 129.602 65.4706 129.178C62.569 128.769 59.6828 128.819 56.8195 129.492C56.6408 129.534 56.4501 129.545 56.3109 129.709C56.4402 129.865 56.6327 129.903 56.8015 129.98C60.3015 131.542 63.7413 133.213 67.0799 135.093C69.3479 136.368 71.5997 137.678 73.5954 139.367C73.778 139.524 73.976 139.574 74.2109 139.59C75.4887 139.683 76.7598 139.854 78.0221 140.088C80.9776 140.638 83.8422 141.514 86.6616 142.554C86.8626 142.627 87.0609 142.746 87.2672 142.729ZM47.4066 62.6955C47.5669 64.2079 48.1629 65.5077 49.198 66.5905C51.1184 68.5986 53.5333 69.6721 56.2035 70.2609C56.4091 70.3052 56.5551 70.2629 56.7084 70.1134C57.8658 68.9874 58.6621 67.6808 58.8251 66.039C58.9078 65.2119 58.9333 64.3835 58.9672 63.5582C59.0075 62.6178 59.0559 61.6763 59.3074 60.7591C59.4258 60.3238 59.8226 59.9608 59.7721 59.5135C59.7205 59.0582 59.4833 58.6214 59.3271 58.1789C59.3081 58.124 59.2937 58.0726 59.2787 58.0173C59.203 57.7651 59.1999 57.4386 59.0338 57.2833C58.8401 57.1027 58.4987 57.2506 58.2252 57.2187C58.1301 57.2098 58.0391 57.2005 57.9441 57.1917C56.4346 57.0412 54.9897 56.6172 53.5489 56.1601C53.0302 55.9947 52.5106 55.8212 51.9799 55.69C51.5546 55.5867 51.1928 55.6677 50.9021 55.9974C49.9147 57.1108 48.9238 58.2287 48.1622 59.5187C47.5448 60.5502 47.2816 61.6731 47.4066 62.6955ZM95.936 37.0207C88.4511 37.9518 83.1359 44.7701 84.0624 52.2515C84.9831 59.6518 91.814 64.9695 99.2395 64.0539C106.694 63.1389 111.986 56.3316 111.077 48.8603C110.219 41.8037 103.83 36.1582 95.936 37.0207ZM83.5409 46.5794C83.6844 46.517 83.6751 46.4078 83.7186 46.3289C83.9845 45.8307 83.8608 45.4536 83.4898 45.0251C79.8958 40.8888 74.1265 39.2774 68.9225 40.9878C61.8019 43.3287 57.8712 50.9787 60.2472 58.1195C61.9134 63.1288 65.4467 66.2675 70.6292 67.2561C75.766 68.2379 80.1148 66.583 83.583 62.6704C84.4519 61.6899 85.1114 60.5676 85.6433 59.371C85.7653 59.0987 85.7915 58.8789 85.5794 58.6475C85.4425 58.4967 85.3873 58.2788 85.1452 58.1368C84.0268 61.1536 82.0995 63.5012 79.2735 65.0476C76.4248 66.6091 73.3938 67.0122 70.2325 66.2832C64.9274 65.0605 61.0382 60.5476 60.5287 55.0743C60.029 49.6815 63.0247 44.5764 67.9701 42.3543C73.0565 40.0823 79.6588 41.2895 83.5409 46.5794ZM45.2212 71.0555C45.3692 71.0293 45.5176 71.007 45.6646 70.9727C46.4498 70.7787 46.757 70.251 46.5167 69.4878C46.416 69.1651 46.2795 68.8509 46.1164 68.5521C45.7981 67.9537 45.4567 67.3663 45.1153 66.7789C44.1536 65.1275 43.4548 63.3541 42.7485 61.5857C42.4773 60.9039 42.1859 60.2246 41.7147 59.6448C40.6204 58.312 39.1676 58.3588 38.1804 59.7744C37.4088 60.8819 37.0401 62.1444 36.8293 63.4611C36.7873 63.7195 36.8452 63.8922 37.1327 63.9714C37.4624 64.0619 37.7577 64.2382 38.0348 64.4331C38.6146 64.8321 39.1006 65.3324 39.5503 65.8698C40.7986 67.3595 42.047 68.8493 43.0629 70.5104C43.1651 70.6777 43.287 70.8057 43.4855 70.8591C44.0595 71.0096 44.626 71.1323 45.2212 71.0555ZM98.9764 78.1477C100.433 78.031 101.746 77.9808 103.063 78.0935C105.656 78.3159 107.622 79.526 108.942 81.7709C109.257 82.3084 109.537 82.8625 109.778 83.4335C110.097 84.1994 110.407 84.9663 110.737 85.7267C110.908 86.1266 111.13 86.4999 111.438 86.8136C111.988 87.3714 112.513 87.2541 112.758 86.5174C112.93 85.9898 112.941 85.4451 112.923 84.8958C112.862 83.1956 112.641 81.515 112.295 79.8537C112.117 79.0012 111.876 78.1646 111.417 77.4199C110.621 76.12 109.713 75.5119 108.012 75.8629C107.681 75.9319 107.352 76.0129 107.023 76.098C105.961 76.3627 104.891 76.571 103.785 76.5468C103.2 76.5367 102.616 76.5426 102.035 76.5687C100.825 76.6227 99.8353 77.1194 98.9764 78.1477ZM36.2603 71.3417C36.3126 71.1678 36.1771 71.0618 36.1126 70.9349C35.8534 70.4518 35.6254 69.9568 35.4281 69.4457C35.3078 69.1295 35.408 68.8803 35.6578 68.7844C35.8843 68.6995 36.1245 68.7927 36.2384 69.0893C36.6713 70.2252 37.33 71.2355 37.9735 72.2558C38.1197 72.483 38.2817 72.6716 38.4864 72.8427C39.4314 73.6219 40.4334 74.3328 41.4167 75.0583C41.8253 75.3597 42.1286 75.3676 42.5368 75.0644C43.0313 74.6976 43.2223 74.1881 43.2099 73.585C43.1887 72.7093 42.8719 71.9227 42.4273 71.1927C41.2466 69.2535 39.8189 67.4997 38.2874 65.8321C38.0472 65.5714 37.7586 65.3493 37.4639 65.1443C36.5302 64.4904 35.2872 64.5483 34.5098 65.5747C34.0913 66.1284 33.819 66.7418 33.6461 67.4002C33.3422 68.5567 33.3279 69.7105 33.7528 70.8474C33.8981 71.2341 33.9001 71.2502 34.3248 71.1819C34.8778 71.0939 35.4149 71.1427 35.9451 71.3026C36.0431 71.3356 36.147 71.4168 36.2603 71.3417ZM118.469 89.4962C118.403 89.492 118.386 89.4819 118.37 89.4879C118.249 89.5354 118.125 89.5873 118.005 89.6428C114.161 91.4118 110.123 92.5711 105.973 93.3478C102.926 93.9164 99.8535 94.2509 96.7557 94.4089C93.7917 94.5587 90.8343 94.5279 87.8764 94.2929C87.7446 94.2845 87.611 94.2273 87.4352 94.3264C87.5658 94.3921 87.6451 94.4396 87.7275 94.4786C88.7674 94.9316 89.8443 95.2862 90.9497 95.5392C96.6574 96.8476 102.336 96.746 107.969 95.1384C111.641 94.0933 114.992 92.4009 117.961 89.9832C118.135 89.8393 118.329 89.7217 118.469 89.4962ZM57.1426 126.854C57.8099 127.267 58.4977 127.579 59.1116 128.023C59.2777 128.146 59.4538 128.149 59.6475 128.129C62.5866 127.876 65.4871 128.11 68.3451 128.831C74.5541 130.397 79.8966 133.564 84.6623 137.761C84.9644 138.026 85.2598 138.17 85.7512 138.147C82.4452 133.926 78.5468 130.575 73.6399 128.499C68.3195 126.248 62.801 125.819 57.1426 126.854ZM86.943 138.438C87.2027 138.39 87.3053 138.194 87.443 138.05C90.6556 134.753 93.99 131.584 97.484 128.583C101.654 125.002 106.017 121.69 110.884 119.094C110.957 119.056 111.059 119.019 111.036 118.83C110.753 118.624 110.439 118.388 110.12 118.154C109.877 117.975 109.701 117.637 109.416 117.61C109.102 117.579 108.857 117.883 108.597 118.062C104.728 120.667 101.097 123.583 97.634 126.702C94.4463 129.567 91.412 132.585 88.6145 135.836C88.0348 136.507 87.4826 137.204 87.0594 137.987C86.9932 138.114 86.8596 138.224 86.943 138.438ZM120.182 47.5188C119.969 46.8055 119.929 46.7817 119.266 46.8709C118.462 46.9814 117.663 47.0914 116.86 47.2058C115.294 47.4339 113.729 47.666 112.167 47.8896C111.938 47.9216 111.835 48.0078 111.865 48.2574C111.896 48.507 111.978 48.648 112.258 48.5935C112.349 48.5741 112.443 48.5708 112.539 48.559C114.913 48.2567 117.282 47.9549 119.651 47.6491C119.832 47.6229 120.027 47.6481 120.182 47.5188ZM77.4464 129.426C77.381 128.691 77.0591 128.13 76.691 127.558C76.3251 127.839 76.0125 128.123 75.7037 128.471C76.3124 128.805 76.8814 129.116 77.4464 129.426ZM64.9678 65.9257C65.0062 66.2397 65.0367 66.4892 65.0741 66.7951C65.2632 66.6045 65.413 66.4596 65.5131 66.2758C65.3541 66.1113 65.203 66.0113 64.9678 65.9257Z" fill="#070504"/>
<path d="M128.779 137.219C128.49 137.459 128.205 137.706 127.907 137.934C127.641 138.138 127.62 138.133 127.471 137.812C126.825 136.408 126.187 134.999 125.538 133.595C123.077 128.27 120.543 122.979 118.137 117.631C118.014 117.356 117.89 117.081 117.778 116.801C117.55 116.236 117.429 116.182 116.84 116.409C115.712 116.841 114.601 117.308 113.497 117.802C113.171 117.948 112.827 118.072 112.528 118.264C112.16 118.501 111.881 118.42 111.561 118.177C111.097 117.822 110.64 117.457 110.2 117.069C109.508 116.451 109.503 116.448 108.704 116.958C106.078 118.639 103.61 120.538 101.195 122.504C96.5657 126.281 92.2464 130.383 88.2927 134.87C87.9451 135.268 87.6069 135.677 87.2859 136.092C86.9648 136.507 86.6669 136.944 86.3554 137.37C86.1909 137.362 86.1455 137.224 86.0724 137.127C84.5451 135.193 82.8211 133.455 80.9111 131.899C80.6431 131.679 80.5044 131.447 80.4621 131.1C80.2032 128.848 80.123 126.587 80.1403 124.321C80.1891 117.534 80.8661 110.804 81.9141 104.103C81.9387 103.937 81.9754 103.769 81.9789 103.597C81.9866 103.359 81.8608 103.198 81.623 103.158C81.3892 103.117 81.2129 103.212 81.1303 103.439C81.072 103.597 81.0434 103.764 81.0022 103.928C80.9508 103.976 80.9295 104.035 80.9504 104.106C80.9614 104.13 80.9594 104.146 80.9372 104.165C80.7347 104.28 80.7089 104.504 80.638 104.692C80.4114 105.312 80.2145 105.941 79.9624 106.552C79.1269 108.574 78.4748 110.659 77.8941 112.761C76.9288 116.261 76.1027 119.798 75.3355 123.348C75.2962 123.528 75.2922 123.729 75.0967 123.835C73.5553 122.119 71.9054 120.519 70.0673 119.118C68.9997 118.305 67.9119 117.527 66.7231 116.892C66.5086 116.775 66.2805 116.68 66.056 116.581C65.8229 116.479 65.6096 116.505 65.457 116.728C65.3146 116.933 65.3724 117.138 65.6278 117.356C65.683 117.407 65.7523 117.439 65.8412 117.498C65.6042 117.899 65.2218 118.145 64.9 118.454C64.7901 118.558 64.6932 118.5 64.6195 118.399C64.3925 118.079 64.2572 117.74 64.3347 117.339C64.3995 117 64.5291 116.69 64.6924 116.388C64.9295 115.955 65.2118 115.557 65.5202 115.172C67.1983 113.091 68.5978 110.837 69.8898 108.506C71.2253 106.096 72.5523 103.682 74.1344 101.418C75.3271 99.7114 76.6388 98.109 78.1783 96.6994C79.4495 95.535 80.8189 94.5056 82.4183 93.8199C82.7793 93.6655 83.123 93.6358 83.5141 93.6942C84.2844 93.8125 84.9798 94.0543 85.6693 94.4481C88.2129 95.9062 91.0035 96.611 93.8855 96.9941C97.5238 97.481 101.152 97.4502 104.766 96.8003C109.81 95.8897 114.416 93.9664 118.429 90.7307C119.4 89.9502 120.36 89.1547 121.079 88.115C121.18 87.9679 121.348 87.9105 121.493 87.8234C123.452 86.6729 125.284 85.3501 126.94 83.7874C127.181 83.5577 127.444 83.399 127.777 83.3541C128.661 83.4627 129.434 83.838 130.139 84.3605C131.629 85.4571 132.987 86.7047 134.302 88.0065C136.891 90.5743 139.265 93.3115 141.19 96.4303C142.549 98.6295 143.794 100.888 144.943 103.203C146.816 106.965 148.481 110.826 150.153 114.683C150.318 115.059 150.557 115.414 150.573 115.845C146.667 116.641 142.976 118.068 139.348 119.672C137.969 120.282 136.611 120.938 135.296 121.683C135.166 121.756 135.028 121.826 134.917 121.925C134.759 122.067 134.746 122.261 134.838 122.445C134.935 122.638 135.116 122.714 135.313 122.657C135.491 122.607 135.659 122.509 135.823 122.419C136.388 122.121 136.931 121.789 137.589 121.521C137.782 122.433 137.969 123.297 138.152 124.157C138.191 124.344 138.133 124.437 137.925 124.438C136.945 124.439 135.961 124.445 135.002 124.19C134.69 124.106 134.391 123.999 134.1 123.859C133.447 123.535 133.034 123.029 132.928 122.295C132.903 122.126 132.871 121.959 132.866 121.788C132.775 119.237 132.113 116.794 131.411 114.363C129.967 109.359 128.298 104.428 126.739 99.4586C126.255 97.9122 125.756 96.3676 125.387 94.7828C125.361 94.6715 125.328 94.5653 125.294 94.4551C125.217 94.2315 125.056 94.1164 124.818 94.1374C124.591 94.1569 124.451 94.3496 124.452 94.6233C124.453 94.7334 124.484 94.8482 124.498 94.9609C124.441 94.9678 124.385 94.9787 124.329 94.9856C123.759 95.0675 123.698 95.1729 123.868 95.7242C123.971 96.067 124.062 96.4113 124.161 96.7546C124.532 98.0819 124.631 99.4589 124.865 100.811C125.295 103.259 125.533 105.738 125.87 108.201C126.472 112.589 127.098 116.973 127.421 121.395C127.523 122.763 127.779 124.121 127.813 125.502C127.838 126.438 127.988 127.372 128.05 128.312C128.163 130.039 128.301 131.766 128.45 133.488C128.583 134.743 128.624 135.984 128.779 137.219Z" fill="#CF9356"/>
<path d="M46.1142 142.08C45.8681 140.836 45.8238 139.571 45.8001 138.307C45.6859 132.659 46.1923 127.041 46.6987 121.423C47.328 114.471 48.3218 107.559 49.3161 100.652C49.6724 98.1861 49.9795 95.7178 50.2404 93.2388C50.2729 92.9366 50.2731 92.671 50.7026 92.7084C50.9047 92.7246 51.053 92.5676 51.0717 92.3529C51.092 92.1175 50.9858 91.9507 50.7561 91.8767C50.6501 91.8447 50.5365 91.8177 50.4279 91.7983C48.888 91.533 47.4515 90.9773 46.0592 90.2814C43.3353 88.9188 40.7099 87.3931 38.3386 85.4728C36.5113 83.9925 34.9845 82.2631 34.0283 80.0881C33.266 78.3633 32.7694 76.5733 32.8139 74.6641C32.8257 74.2255 32.8878 73.7972 33.0337 73.3871C33.3926 72.3792 34.1886 71.906 35.25 72.0664C35.6663 72.1299 36.0491 72.2874 36.4127 72.4881C36.7105 72.6519 37.0053 72.8242 37.2718 73.0327C38.5778 74.0578 39.8978 75.0649 41.2356 76.0494C41.6306 76.3402 41.9908 76.6802 42.2991 77.0633C42.5397 77.3607 42.7345 77.6842 42.8134 78.0626C42.9618 78.7757 42.6043 79.2933 41.8827 79.406C41.3458 79.4921 40.8321 79.3669 40.3265 79.2081C39.4421 78.924 38.6219 78.4972 37.8184 78.0398C37.6034 77.919 37.3986 77.7806 37.1811 77.6724C36.8762 77.5176 36.6225 77.5813 36.4961 77.8174C36.3834 78.0313 36.4481 78.2604 36.7308 78.4342C37.9234 79.1668 39.1387 79.8516 40.5124 80.1944C41.0095 80.3175 41.5113 80.3788 42.0251 80.3037C42.33 80.2583 42.6491 80.1948 42.8604 79.9851C43.214 79.6355 43.5447 79.7013 43.931 79.887C44.4042 80.1151 44.8981 80.3121 45.3814 80.5227C47.3808 81.4059 49.0995 82.6666 50.5673 84.2807C50.7183 84.4461 50.8778 84.6145 51.0539 84.7523C51.2351 84.8976 51.4433 84.8967 51.6183 84.7242C51.7858 84.5566 51.8105 84.3575 51.6722 84.162C51.5875 84.0375 51.4726 83.9331 51.3734 83.8227C49.4369 81.6163 47.0263 80.1093 44.305 79.0692C44.1809 79.023 44.0598 78.9684 43.9357 78.9223C43.7985 78.8696 43.7107 78.7863 43.7323 78.6285C43.8405 77.7083 43.4094 76.9889 42.8499 76.3219C42.7922 76.2513 42.7149 76.1872 42.7142 76.0811C44.2244 74.7322 44.2528 74.6307 43.8483 71.9226C44.0311 71.8471 44.2135 71.9351 44.395 71.9497C45.0427 72.0013 45.6831 71.9598 46.2849 71.7024C47.2754 71.2832 47.6994 70.3734 47.414 69.3421C47.2761 68.8482 47.0832 68.3734 46.8138 67.9406C45.4874 65.7782 44.4309 63.4847 43.525 61.1197C43.136 60.1092 42.6588 59.1461 41.781 58.4486C41.5817 58.2891 41.6551 58.1208 41.715 57.9419C41.9705 57.1917 42.2211 56.4339 42.6108 55.7449C43.6661 53.8837 44.8912 52.1408 46.3411 50.5664C46.4924 50.4008 46.6619 50.2494 46.8308 50.0939C48.1192 48.9029 49.6277 48.5102 51.3343 48.8695C51.8501 48.9781 52.3607 49.1118 52.8638 49.2832C54.7617 49.9377 56.5625 50.8003 58.3512 51.697C58.6822 51.8649 58.8074 52.0538 58.7611 52.4435C58.6211 53.5718 58.6447 54.7006 58.8071 55.8287C58.8293 55.9771 58.8676 56.1236 58.8028 56.2949C58.3373 56.3641 57.8738 56.2818 57.4117 56.2116C56.1754 56.0236 54.9803 55.6713 53.7974 55.2848C53.2401 55.1037 52.6868 54.9221 52.1117 54.7963C51.3602 54.6307 50.7299 54.8221 50.2153 55.3916C49.2401 56.4708 48.2879 57.5717 47.5205 58.8135C46.0402 61.2086 46.1789 63.6142 47.6034 65.9771C48.3875 67.2785 49.5225 68.2428 50.7979 69.0511C52.5251 70.1473 54.4175 70.823 56.4117 71.2289C56.6631 71.2798 56.8453 71.2004 57.0254 71.0354C58.6491 69.546 59.6866 67.7728 59.7702 65.5157C59.81 64.4037 59.8704 63.2933 59.9469 62.1809C59.9779 61.6992 60.0492 61.2125 60.2521 60.7669C60.4472 60.7921 60.4775 60.9395 60.54 61.0504C61.3439 62.48 62.3706 63.7272 63.6014 64.8065C63.8483 65.0214 63.9739 65.2471 64.0012 65.5706C64.0645 66.3227 64.1962 67.0665 64.1705 67.8254C64.1592 68.1005 64.1062 68.3358 63.9843 68.5754C62.8638 70.7386 62.284 73.0482 62.2381 75.4805C62.2304 75.8859 62.1282 76.119 61.7414 76.297C61.1114 76.5905 60.6357 77.0776 60.3071 77.6978C59.6872 78.8766 60.0105 80.1853 61.1084 80.9458C61.7109 81.3624 62.3953 81.581 63.1067 81.6861C63.6477 81.7671 64.1944 81.7942 64.7395 81.842C64.8426 81.8498 64.9462 81.8617 65.0583 81.8766C64.9998 82.1002 64.8308 82.1209 64.7134 82.1965C64.4105 82.3929 64.1263 82.6074 63.8901 82.8813C63.2821 83.5889 63.1565 84.4335 63.6231 85.2426C63.8453 85.624 63.8625 85.965 63.7563 86.3661C63.5118 87.307 63.0728 88.1614 62.6344 89.0198C62.4892 89.303 62.327 89.5802 62.1693 89.861C62.0955 89.9925 62.0016 90.1266 62.0288 90.2826C62.2315 91.3731 62.054 92.4611 62.0072 93.5494C61.7531 99.259 61.4004 104.964 60.9526 110.661C60.6169 114.967 60.2233 119.268 59.623 123.549C59.5968 123.736 59.5626 123.924 59.5611 124.112C59.5568 124.378 59.7178 124.559 59.9501 124.588C60.1783 124.617 60.4272 124.48 60.4189 124.212C60.4001 123.556 60.8531 123.252 61.272 122.902C63.0249 121.434 64.6941 119.882 66.3663 118.321C66.7843 117.931 66.7878 117.926 67.2673 118.24C67.4717 118.374 67.7002 118.473 67.8657 118.657C67.8746 118.729 67.8799 118.806 67.9008 118.877C68.2136 119.999 68.6352 121.075 69.1317 122.13C69.4412 122.79 69.7508 123.451 69.9792 124.15C70.1692 124.736 70.1798 125.29 69.7629 125.791C69.6666 125.904 69.5797 126.029 69.5833 126.192C68.4873 126.016 67.3995 125.773 66.2968 125.642C63.0888 125.266 59.8981 125.366 56.7247 125.974C56.4293 126.031 56.1358 126.104 55.8424 126.176C55.4493 126.269 55.2717 126.454 55.2598 126.758C55.2473 127.091 55.4739 127.206 55.7387 127.3C56.3758 127.533 56.9912 127.821 57.5939 128.14C57.6592 128.173 57.7356 128.196 57.7669 128.319C57.5503 128.451 57.2907 128.467 57.0446 128.525C56.346 128.693 55.6514 128.859 54.9528 129.026C54.6866 129.087 54.5181 129.247 54.4651 129.515C54.4059 129.8 54.5202 129.966 54.909 130.139C55.8379 130.552 56.7773 130.952 57.7032 131.374C59.2439 132.081 60.7921 132.782 62.2838 133.588C62.226 133.751 62.116 133.887 61.9954 134.003C61.2692 134.713 60.5575 135.442 59.8076 136.126C58.129 137.667 56.4598 139.219 54.6914 140.66C53.3132 141.785 51.7953 142.636 50.1004 143.142C48.9693 143.48 47.8634 143.423 46.91 142.575C46.6782 142.383 46.4591 142.128 46.1142 142.08Z" fill="#6E4F93"/>
<path d="M78.6924 91.4552C76.5476 90.7859 74.5832 89.7554 72.7716 88.4367C72.7269 88.4054 72.6924 88.3565 72.6583 88.3116C72.6488 88.3005 72.6579 88.2749 72.6561 88.1934C73.1123 88.1826 73.5711 88.1592 74.0288 88.1605C75.3522 88.1581 76.6692 88.0707 77.9848 87.9712C82.3531 87.6457 86.6949 87.0702 91.0164 86.3623C94.2928 85.8271 97.5543 85.2038 100.802 84.5006C103.218 83.9766 105.627 83.433 108.011 82.7821C108.414 82.6716 108.418 82.6711 108.613 83.0599C108.973 83.7676 109.248 84.5102 109.542 85.2464C109.753 85.7721 109.98 86.2918 110.284 86.7695C110.527 87.1564 110.814 87.5012 111.197 87.7608C111.968 88.2835 112.857 88.1054 113.357 87.3171C113.683 86.8075 113.772 86.2328 113.806 85.6404C113.848 84.8468 113.772 84.0554 113.712 83.2661C113.682 82.8531 113.619 82.4399 113.573 82.0289C113.512 81.4971 113.511 81.489 114.04 81.3386C114.64 81.1672 115.229 80.9727 115.809 80.7384C117.265 80.1478 118.581 79.3497 119.508 78.0395C120.365 76.8317 120.686 75.5178 120.163 74.0783C119.818 73.1278 119.133 72.468 118.269 71.9853C117.125 71.3448 115.86 71.1236 114.581 70.9857C112.589 70.7675 110.591 70.7665 108.588 70.7867C106.172 70.8082 103.758 70.9152 101.35 71.0338C99.9738 71.104 98.5994 71.1902 97.2285 71.3046C91.5817 71.7659 85.965 72.4727 80.3635 73.3043C78.0685 73.6461 75.7655 73.9561 73.4719 74.3099C70.7859 74.728 68.089 75.0576 65.3941 75.4033C64.7948 75.4806 64.1956 75.5579 63.6077 75.6951C63.1824 75.792 63.1408 75.7522 63.158 75.3252C63.1986 74.2866 63.3222 73.2584 63.5744 72.2471C63.9864 70.6035 64.6274 69.0626 65.5834 67.6589C65.6455 67.5655 65.7117 67.4717 65.7783 67.3818C66.2851 66.7153 66.2932 66.7143 67.0638 67.0695C73.12 69.8591 80.2085 68.2248 84.4272 63.0643C85.0843 62.2568 85.6435 61.3837 86.1143 60.456C86.2064 60.2731 86.2582 60.0625 86.4382 59.9302C86.6578 59.9892 86.7558 60.1896 86.8922 60.3364C89.8166 63.4393 93.4155 65.0421 97.6753 65.0322C105.456 65.0209 111.852 58.7488 112.066 50.9728C112.077 50.5956 112.071 50.2163 112.054 49.8426C112.041 49.6031 112.13 49.4902 112.365 49.4778C112.495 49.4701 112.627 49.4458 112.759 49.4296C115.008 49.1425 117.253 48.856 119.501 48.5689C119.707 48.5438 119.914 48.5349 120.12 48.5178C120.262 48.909 120.633 49.1087 120.882 49.4052C121.98 50.7008 123.125 51.9459 124.332 53.1342C125.27 54.0572 126.187 55.0033 127.143 55.9078C127.799 56.5263 128.455 57.1488 129.122 57.7577C129.512 58.1144 129.908 58.4786 129.748 59.1029C129.731 59.1702 129.762 59.2523 129.771 59.3247C129.857 60.0618 130.148 60.7412 130.404 61.4289C130.822 62.5422 131.101 63.6928 131.344 64.8478C131.549 65.8236 131.545 66.825 131.516 67.8254C131.458 69.8588 131.07 71.8304 130.427 73.7515C129.734 75.8093 128.526 77.587 127.273 79.3374C126.987 79.736 126.614 80.0634 126.314 80.4474C125.685 81.2514 124.973 81.9798 124.219 82.6603C121.827 84.8195 119.168 86.5907 116.262 87.9875C114.615 88.7812 112.921 89.4621 111.167 89.9869C109.855 90.3802 108.543 90.7774 107.198 91.0725C106.757 91.1714 106.306 91.2305 105.876 91.3525C105.078 91.5767 104.259 91.7258 103.447 91.8332C101.393 92.1087 99.3417 92.4084 97.2661 92.5068C96.5921 92.5402 95.913 92.566 95.2384 92.5953C94.1332 92.6446 93.0248 92.5676 91.9157 92.5846C90.6351 92.6022 89.3587 92.5212 88.087 92.4111C85.0482 92.1492 82.0177 91.821 78.9985 91.3852C78.8778 91.3672 78.7722 91.3393 78.6924 91.4552Z" fill="#6E4F93"/>
<path d="M84.5744 154.458C86.7227 154.988 88.8755 155.522 91.0237 156.052C91.1504 156.086 91.278 156.127 91.4073 156.148C91.7024 156.19 91.9231 156.056 91.9705 155.81C92.0195 155.542 91.8802 155.371 91.6455 155.29C91.3636 155.189 91.0731 155.119 90.7846 155.031C90.7688 154.735 90.5416 154.681 90.318 154.623C89.9888 154.536 89.6545 154.475 89.3344 154.363C87.5033 153.721 85.6818 153.057 83.8837 152.316C82.7824 151.863 81.7297 151.305 80.8391 150.503C79.9992 149.747 79.1663 148.983 78.2694 148.296C78.161 148.211 77.9901 148.151 78.0461 147.907C78.3923 147.864 78.7322 148.072 79.082 147.993L79.0951 147.999C79.1468 148.021 79.2026 148.043 79.2544 148.065C79.3087 148.075 79.37 148.076 79.4177 148.099C81.4169 148.912 83.5075 149.372 85.622 149.759C87.9622 150.188 90.2445 150.812 92.3913 151.865C92.4742 151.908 92.5606 151.946 92.6536 151.972C92.8903 152.037 93.0616 151.934 93.1633 151.73C93.2583 151.538 93.2146 151.348 93.0444 151.225C92.8612 151.097 92.6537 151.004 92.4564 150.893C92.4334 150.638 92.2769 150.494 92.0528 150.399C91.7765 150.277 91.5002 150.156 91.234 150.017C89.3244 149.033 87.3733 148.144 85.3482 147.419C84.2292 147.02 83.1036 146.635 81.9947 146.219C80.4189 145.627 78.7929 145.225 77.1531 144.878C74.8131 144.384 72.4613 143.961 70.1641 143.281C69.1936 142.995 68.2111 142.711 67.1959 142.594C67.1766 142.102 67.4692 141.789 67.8245 141.52C68.4712 141.029 69.2273 140.797 70.0149 140.656C71.9694 140.303 73.9252 140.428 75.8766 140.684C79.7918 141.198 83.5384 142.337 87.2149 143.739C89.7005 144.689 92.1254 145.778 94.5285 146.922C94.6978 147.003 94.9089 147.059 95.0156 147.197C95.2944 147.539 95.6259 147.511 95.9878 147.43C98.2621 146.919 100.445 146.158 102.555 145.173C104.646 144.199 106.39 142.793 107.82 140.984C108.686 139.885 109.459 138.724 110.228 137.56C111.307 135.921 112.371 134.271 113.624 132.757C114.301 131.939 115.02 131.169 115.887 130.548C116.556 130.07 117.276 129.713 118.114 129.647C118.498 129.617 118.868 129.661 119.224 129.806C120.011 130.126 120.403 130.826 120.268 131.664C120.15 132.397 119.753 132.993 119.294 133.552C118.757 134.21 118.143 134.799 117.524 135.382C116.091 136.729 114.922 138.261 114.205 140.114C113.96 140.748 113.761 141.397 113.622 142.064C113.599 142.173 113.572 142.287 113.573 142.397C113.579 142.613 113.706 142.748 113.908 142.797C114.114 142.845 114.275 142.764 114.384 142.584C114.493 142.407 114.453 142.175 114.592 142.015C114.682 142.012 114.738 142.067 114.786 142.126C115.89 143.409 116.808 144.804 117.388 146.404C117.646 147.116 117.778 147.86 117.874 148.608C117.897 148.797 117.911 148.983 117.954 149.166C118.029 149.475 118.209 149.617 118.463 149.586C118.721 149.554 118.867 149.377 118.827 149.051C118.757 148.451 118.68 147.852 118.555 147.262C118.482 146.932 118.578 146.745 118.827 146.543C123.385 142.762 127.939 138.97 132.642 135.368C134.484 133.959 136.344 132.567 138.235 131.225C139.34 130.44 140.454 129.662 141.609 128.945C141.719 128.875 141.837 128.807 141.932 128.718C142.116 128.548 142.148 128.279 142.005 128.109C141.857 127.931 141.653 127.87 141.447 127.989C141.104 128.19 140.78 128.413 140.442 128.622C140.271 128.729 140.117 128.87 139.929 128.906C139.805 128.827 139.805 128.729 139.794 128.636C139.566 126.339 139.063 124.097 138.564 121.85C138.553 121.794 138.558 121.736 138.556 121.679C139.928 121.413 141.333 121.47 142.714 121.277C143.871 121.115 145.038 121.005 146.195 120.843C146.946 120.739 147.698 120.807 148.448 120.826C148.805 120.835 149.025 121.004 149.169 121.346C149.748 122.701 150.129 124.117 150.384 125.565C150.53 126.397 150.592 127.239 150.615 128.094C150.638 129.055 150.67 130.012 150.578 130.966C150.474 132.058 150.241 133.128 149.638 134.076C148.946 135.161 148.112 136.125 147.155 136.986C145.409 138.551 143.532 139.937 141.597 141.248C138.457 143.372 135.289 145.458 132.073 147.461C130.554 148.406 129.037 149.36 127.513 150.298C125.571 151.491 123.615 152.666 121.617 153.764C120.204 154.541 118.704 155.104 117.129 155.419C115.957 155.656 114.84 156.005 113.746 156.482C112.198 157.157 110.821 158.126 109.407 159.018C107.905 159.966 106.354 160.813 104.723 161.515C103.163 162.188 101.547 162.671 99.8578 162.918C99.0592 163.036 98.2573 163.093 97.4608 163.195C97.2918 163.216 97.1232 163.24 96.9547 163.232C96.1491 163.192 95.3381 163.242 94.5357 163.128C94.3984 163.108 94.2706 163.131 94.1837 163.256C91.8836 162.888 89.5497 161.273 89.2167 159.819C89.3327 159.698 89.4653 159.78 89.5829 159.807C90.7512 160.04 91.9365 160.112 93.1229 160.191C93.2174 160.196 93.3124 160.205 93.4055 160.198C93.6611 160.183 93.847 160.066 93.8668 159.794C93.8872 159.526 93.7363 159.361 93.4748 159.327C93.1591 159.284 92.8387 159.27 92.5199 159.235C92.2217 159.202 91.9143 159.228 91.6244 159.128C91.5907 158.953 91.4454 158.901 91.3038 158.845C90.7144 158.602 90.1241 158.352 89.5348 158.109C88.8379 157.822 88.1517 157.522 87.5307 157.088C86.5608 156.405 85.7116 155.574 84.7841 154.837C84.6772 154.732 84.59 154.62 84.5744 154.458Z" fill="#6E4F93"/>
<path d="M84.2764 44.5842C82.9231 43.0378 81.3432 41.7766 79.4886 40.8756C77.6341 39.9747 75.6662 39.5166 73.5791 39.4203C73.6488 39.1218 73.8694 39.0213 74.0287 38.8874C76.0518 37.2226 78.2726 35.8727 80.6322 34.755C83.2002 33.5383 85.878 32.6514 88.6487 32.0228C91.2326 31.4374 93.8486 31.0809 96.4935 30.9947C102.349 30.8061 107.986 31.8331 113.373 34.1611C114.102 34.4765 114.818 34.818 115.47 35.2734C115.648 35.3987 115.833 35.4741 116.048 35.3621C116.19 35.2875 116.336 35.3065 116.489 35.3245C120.171 35.7692 123.786 36.5 127.269 37.8228C130.954 39.2232 134.345 41.1293 137.325 43.7188C139.103 45.2663 140.655 47.0049 141.705 49.1439C142.347 50.4504 142.719 51.8225 142.613 53.298C142.448 55.5896 140.843 57.3667 138.578 57.7825C137.011 58.0679 135.499 57.8319 134.008 57.3318C132.057 56.6756 130.297 55.6487 128.63 54.4717C126.417 52.9119 124.376 51.1554 122.59 49.1104C121.236 47.56 120.179 45.8304 119.492 43.884C119.455 43.7782 119.421 43.668 119.372 43.5678C119.232 43.2907 119.011 43.191 118.778 43.289C118.549 43.3864 118.453 43.6024 118.551 43.909C118.652 44.2317 118.789 44.5459 118.901 44.8631C119.029 45.211 119.244 45.528 119.308 45.8918C119.165 46.0197 119.008 46.0062 118.863 46.0239C116.679 46.3398 114.491 46.6522 112.307 46.968C112.23 46.9774 112.159 46.9903 112.082 46.9996C111.663 47.0468 111.659 47.0472 111.536 46.6415C111.13 45.2572 110.588 43.9304 109.78 42.7341C106.775 38.2764 102.57 35.9265 97.2088 36.0792C91.5664 36.2418 87.371 38.985 84.6609 43.953C84.5507 44.1544 84.4967 44.3816 84.2764 44.5842Z" fill="#6E4F93"/>
<path d="M117.812 128.757C116.791 128.89 115.917 129.36 115.115 129.981C113.761 131.037 112.696 132.356 111.701 133.74C110.238 135.778 108.954 137.941 107.46 139.958C105.886 142.086 103.881 143.659 101.436 144.681C99.7801 145.374 98.085 145.944 96.3534 146.417C96.0097 146.513 95.7039 146.485 95.3734 146.321C94.3085 145.797 93.226 145.296 92.1444 144.803C91.8937 144.691 91.7035 144.539 91.5417 144.317C90.3736 142.716 89.1945 141.123 88.0234 139.53C87.7097 139.103 87.7154 139.049 88.0821 138.673C91.8041 134.865 95.6766 131.217 99.7757 127.82C102.261 125.759 104.839 123.818 107.559 122.072C110.362 120.271 113.304 118.743 116.404 117.531C116.474 117.502 116.544 117.477 116.615 117.452C116.991 117.321 117.003 117.319 117.166 117.683C117.518 118.457 117.862 119.232 118.217 120.002C120.478 124.861 122.746 129.715 125.003 134.574C125.558 135.773 126.097 136.977 126.64 138.182C126.886 138.723 126.888 138.735 126.452 139.083C123.834 141.188 121.262 143.345 118.682 145.499C118.622 145.547 118.567 145.594 118.503 145.639C118.202 145.851 118.178 145.854 118.02 145.502C117.404 144.135 116.613 142.875 115.648 141.731C115.5 141.557 115.366 141.369 115.194 141.227C114.907 140.988 114.922 140.737 115.047 140.424C115.63 138.943 116.515 137.666 117.628 136.538C118.5 135.651 119.455 134.844 120.207 133.841C120.642 133.26 120.987 132.634 121.132 131.918C121.445 130.364 120.48 129.019 118.884 128.769C118.529 128.706 118.168 128.693 117.812 128.757Z" fill="#3F713F"/>
<path d="M61.4539 55.6295C60.7165 49.6285 64.3782 44.1234 69.945 42.5729C74.9585 41.1759 80.2389 43.1656 83.0557 47.495C83.242 47.7827 83.3031 48.0489 83.2509 48.3903C82.8312 51.2074 83.2115 53.9185 84.3783 56.513C84.5303 56.8539 84.5496 57.1457 84.4275 57.4834C82.9353 61.7878 79.9939 64.529 75.5359 65.4905C69.3742 66.8195 63.3358 63.0391 61.7289 56.9441C61.5925 56.4297 61.512 55.9043 61.4539 55.6295Z" fill="#A2EAF0"/>
<path d="M94.1986 163.251C94.2855 163.126 94.4093 163.102 94.5505 163.122C95.353 163.236 96.1639 163.186 96.9696 163.227C97.1381 163.235 97.3066 163.21 97.4757 163.189C98.2722 163.088 99.0741 163.031 99.8727 162.913C101.562 162.665 103.179 162.186 104.738 161.509C106.368 160.808 107.919 159.96 109.421 159.013C110.836 158.121 112.213 157.152 113.761 156.477C114.85 156 115.971 155.647 117.144 155.414C118.719 155.099 120.219 154.535 121.632 153.758C123.63 152.66 125.582 151.486 127.528 150.292C129.052 149.354 130.57 148.405 132.088 147.455C135.307 145.448 138.472 143.366 141.611 141.242C143.547 139.931 145.424 138.542 147.169 136.98C148.131 136.119 148.965 135.155 149.653 134.07C150.256 133.122 150.489 132.052 150.593 130.961C150.685 130.01 150.653 129.05 150.63 128.088C150.608 127.237 150.545 126.391 150.398 125.559C150.144 124.116 149.763 122.7 149.184 121.341C149.041 121.003 148.819 120.829 148.463 120.82C147.713 120.801 146.961 120.734 146.21 120.838C145.053 121 143.886 121.11 142.729 121.271C141.347 121.465 139.943 121.408 138.57 121.673C138.423 121.099 138.422 121.095 138.921 120.863C141.957 119.466 145.059 118.237 148.272 117.318C149.215 117.047 150.166 116.808 151.14 116.685C151.422 116.651 151.558 116.696 151.673 117C152.527 119.306 153.147 121.673 153.668 124.069C154.11 126.078 154.487 128.095 154.737 130.14C154.994 132.208 154.488 134.055 153.303 135.757C151.96 137.673 150.303 139.289 148.563 140.83C146.384 142.759 144.065 144.509 141.683 146.173C137.61 149.015 133.414 151.656 129.004 153.944C125.646 155.682 122.154 157.093 118.546 158.225C118.223 158.325 117.901 158.434 117.575 158.539C117.41 158.592 117.32 158.562 117.232 158.377C117.026 157.924 116.816 157.88 116.411 158.208C115.47 158.964 114.548 159.743 113.607 160.499C112.264 161.582 110.809 162.479 109.26 163.24C106.644 164.532 103.899 164.974 101.011 164.571C98.8247 164.266 96.6601 163.836 94.5031 163.369C94.4021 163.344 94.2829 163.339 94.1986 163.251Z" fill="#5A3A83"/>
<path d="M112.18 76.9042C113.082 76.6999 113.909 76.5131 114.732 76.3227C115.193 76.2174 115.65 76.1125 116.104 75.9875C116.53 75.8659 116.708 75.6441 116.627 75.3843C116.544 75.1085 116.301 75.0278 115.873 75.1293C114.641 75.4186 113.416 75.7195 112.176 75.9732C111.774 76.055 111.47 76.0104 111.152 75.7183C110.381 75.0201 109.457 74.7857 108.422 74.904C107.741 74.9832 107.082 75.1413 106.43 75.315C105.286 75.6222 104.125 75.6784 102.95 75.6585C102.176 75.6428 101.395 75.6729 100.653 75.9188C99.4983 76.2969 98.588 77.0046 97.978 78.0637C97.8395 78.3012 97.6863 78.418 97.4116 78.4434C94.7989 78.6932 92.1922 78.9586 89.5801 79.2125C88.2473 79.3386 86.9135 79.4893 85.5773 79.5873C83.0755 79.7745 80.577 80.0227 78.0757 80.2139C75.1416 80.4418 72.2057 80.6535 69.2698 80.8325C67.5785 80.933 65.8811 81.0505 64.1814 80.9151C63.6368 80.8713 63.0927 80.7989 62.564 80.6511C62.2891 80.5744 62.0268 80.4675 61.7843 80.3215C60.8498 79.7616 60.6459 78.7284 61.2897 77.845C61.7658 77.1944 62.4476 76.8905 63.1935 76.7095C63.7804 76.5642 64.3762 76.4587 64.975 76.3774C66.9404 76.1127 68.9112 75.8923 70.871 75.616C74.345 75.1261 77.821 74.6196 81.2905 74.0935C85.5258 73.4493 89.7814 72.9374 94.0419 72.4984C96.9671 72.1982 99.909 72.0021 102.847 71.8718C105.728 71.7445 108.615 71.6327 111.5 71.709C113.234 71.7546 114.97 71.8242 116.659 72.3042C117.116 72.4322 117.551 72.616 117.96 72.852C119.274 73.6106 119.804 75.0043 119.33 76.443C118.996 77.4561 118.323 78.2002 117.483 78.8135C116.34 79.6559 115.019 80.1114 113.68 80.5242C113.46 80.592 113.32 80.5519 113.281 80.2953C113.094 79.1334 112.769 78.0169 112.18 76.9042Z" fill="#5A3A83"/>
<path d="M64.6845 86.4501C65.1581 86.715 65.5905 86.9767 66.0633 87.1682C67.3525 87.6888 68.7079 87.9153 70.0806 88.0499C70.2295 88.0644 70.3808 88.099 70.5307 88.0889C70.8627 88.0646 71.0897 88.2166 71.328 88.4285C72.4263 89.426 73.6766 90.1964 74.986 90.8821C76.7835 91.8186 78.6708 92.5194 80.627 93.0484C80.8551 93.1103 81.0798 93.1769 81.2959 93.2403C81.3005 93.3787 81.2175 93.4011 81.1565 93.4371C78.6584 94.825 76.6492 96.77 74.8681 98.9772C73.25 100.981 71.894 103.156 70.6224 105.387C69.6707 107.06 68.732 108.739 67.7672 110.405C66.9915 111.746 66.0957 113.008 65.1377 114.228C64.7667 114.702 64.3962 115.181 64.0794 115.697C63.851 116.068 63.6613 116.455 63.5455 116.878C63.3372 117.614 63.441 118.296 63.9005 118.914C64.0128 119.063 64.1472 119.194 63.9304 119.392C62.9113 120.313 61.8978 121.246 60.828 122.12C60.6917 121.941 60.7862 121.778 60.8037 121.621C61.4287 116.605 61.8138 111.566 62.1702 106.526C62.4769 102.183 62.7258 97.8342 62.9249 93.4795C62.9688 92.5018 63.0082 91.5206 63.0396 90.5404C63.0467 90.3311 63.0714 90.132 63.175 89.9437C63.7837 88.8398 64.3491 87.7167 64.6845 86.4501Z" fill="#FFEE00"/>
<path d="M84.0056 86.4514C82.1846 86.7271 80.1128 86.8904 78.0451 87.0532C75.3949 87.2627 72.7393 87.3952 70.0807 87.1359C68.8362 87.0143 67.6165 86.7956 66.4418 86.3427C65.8927 86.128 65.3839 85.8429 64.9368 85.4604C64.7221 85.2742 64.5335 85.0685 64.4075 84.8061C64.1679 84.3165 64.2255 83.8519 64.5968 83.447C64.8274 83.1942 65.1111 83.0083 65.4188 82.8522C66.0308 82.5446 66.6766 82.3472 67.348 82.2243C68.0157 82.1059 68.679 81.984 69.3269 81.77C69.6607 81.6598 70.0334 81.6674 70.3901 81.6442C71.3303 81.5824 72.2735 81.5448 73.2128 81.4749C75.3016 81.3177 77.3879 81.1404 79.4732 80.9877C82.6718 80.752 85.865 80.4721 89.0603 80.1756C90.5429 80.0394 92.0262 79.8744 93.5078 79.7301C95.2924 79.557 97.0734 79.3884 98.8584 79.2193C98.9148 79.2124 98.9821 79.2287 99.024 79.2031C99.7639 78.8063 100.575 78.9564 101.356 78.9264C102.47 78.8842 103.578 78.9938 104.655 79.3157C105.914 79.6929 106.902 80.4506 107.671 81.4964C107.911 81.8225 107.89 81.8863 107.506 81.9863C105.847 82.4178 104.182 82.8297 102.501 83.1862C100.546 83.6049 98.5927 84.0315 96.6355 84.43C95.3799 84.6856 94.1182 84.9256 92.8527 85.1334C89.9924 85.5973 87.1276 86.0904 84.0056 86.4514Z" fill="#5A3A83"/>
<path d="M128.778 137.221C128.623 135.986 128.581 134.745 128.475 133.508C128.326 131.786 128.188 130.058 128.075 128.332C128.014 127.392 127.859 126.459 127.838 125.522C127.804 124.141 127.545 122.788 127.447 121.415C127.123 116.993 126.497 112.604 125.895 108.221C125.558 105.758 125.32 103.278 124.89 100.831C124.652 99.4791 124.557 98.1017 124.186 96.7743C124.091 96.4305 124 96.0862 123.893 95.7439C123.723 95.1887 123.784 95.0872 124.354 95.0053C124.41 94.9984 124.466 94.9875 124.523 94.9806C125.989 100.464 127.905 105.81 129.569 111.232C130.355 113.792 131.134 116.352 131.659 118.98C131.818 119.777 131.908 120.583 131.954 121.391C131.967 121.598 131.98 121.804 131.997 122.011C132.119 123.548 132.955 124.5 134.404 124.956C135.368 125.259 136.359 125.375 137.36 125.347C138.378 125.316 138.369 125.309 138.579 126.293C138.745 127.089 138.836 127.895 138.922 128.698C138.936 128.847 138.918 129.001 138.932 129.15C138.971 129.533 138.791 129.768 138.478 129.982C136.353 131.451 134.283 132.999 132.232 134.569C131.069 135.442 129.923 136.334 128.778 137.221Z" fill="#A76A2B"/>
<path d="M87.2659 142.729C87.0601 142.75 86.8618 142.632 86.6603 142.554C83.8409 141.514 80.9804 140.638 78.0208 140.088C76.7585 139.854 75.4914 139.682 74.2096 139.59C73.9748 139.574 73.7762 139.52 73.5941 139.367C71.5943 137.679 69.3466 136.368 67.0786 135.093C63.74 133.213 60.2962 131.543 56.8002 129.98C56.636 129.906 56.4394 129.869 56.3096 129.709C56.4488 129.545 56.6435 129.534 56.8182 129.492C59.6815 128.819 62.5632 128.765 65.4693 129.178C68.483 129.603 71.3419 130.532 74.0922 131.809C77.4317 133.362 80.4718 135.373 83.3102 137.706C84.4594 138.652 85.3823 139.785 86.2098 141.008C86.5485 141.505 86.9022 141.993 87.2489 142.49C87.2885 142.547 87.3412 142.61 87.2659 142.729Z" fill="#3F713F"/>
<path d="M47.4056 62.6974C47.2766 61.6755 47.5443 60.5561 48.1527 59.5176C48.9143 58.2275 49.9012 57.1101 50.8926 55.9962C51.1837 55.6706 51.5451 55.5856 51.9703 55.6889C52.5006 55.8161 53.0207 55.9935 53.5393 56.1589C54.9761 56.6166 56.421 57.0405 57.9346 57.1906C58.0296 57.1994 58.1206 57.2087 58.2157 57.2175C58.4932 57.2489 58.8351 57.105 59.0243 57.2821C59.1903 57.4375 59.1935 57.7639 59.2692 58.0161C59.2841 58.0715 59.2991 58.1268 59.3176 58.1777C59.4738 58.6202 59.711 59.057 59.7625 59.5123C59.8131 59.9596 59.4163 60.3227 59.2979 60.7579C59.0464 61.6752 58.998 62.6166 58.9577 63.5571C58.9242 64.3864 58.8988 65.2147 58.8156 66.0379C58.6531 67.6837 57.8608 68.9898 56.6989 70.1122C56.5455 70.2617 56.3996 70.304 56.194 70.2597C53.5237 69.6709 51.1089 68.5974 49.1885 66.5893C48.1619 65.5096 47.5659 64.2098 47.4056 62.6974Z" fill="#FFEE00"/>
<path d="M78.6915 91.4535C78.7713 91.3375 78.8768 91.3655 78.993 91.3799C82.0122 91.8157 85.0467 92.1435 88.0815 92.4058C89.3532 92.516 90.6296 92.5969 91.9102 92.5793C93.0153 92.5628 94.1277 92.6393 95.2329 92.59C95.9075 92.5607 96.5861 92.5308 97.2607 92.5015C99.3362 92.4031 101.387 92.1035 103.441 91.8279C104.253 91.7165 105.072 91.5714 105.87 91.3472C106.305 91.2247 106.751 91.1661 107.192 91.0672C108.533 90.7686 109.845 90.3754 111.161 89.9816C112.915 89.4568 114.609 88.7759 116.257 87.9822C119.162 86.5854 121.821 84.8102 124.213 82.655C124.968 81.9745 125.68 81.2502 126.308 80.4421C126.609 80.0581 126.981 79.7307 127.268 79.3321C128.521 77.5857 129.729 75.808 130.421 73.7462C131.065 71.8291 131.449 69.854 131.511 67.8201C131.54 66.8197 131.544 65.8183 131.339 64.8425C131.096 63.6875 130.82 62.5364 130.398 61.4236C130.139 60.7404 129.848 60.0611 129.765 59.3194C129.756 59.243 129.726 59.1649 129.742 59.0976C129.903 58.4773 129.507 58.1091 129.116 57.7524C128.449 57.1435 127.794 56.525 127.137 55.9025C126.181 54.998 125.265 54.0519 124.327 53.1289C123.115 51.941 121.97 50.692 120.877 49.3999C120.624 49.1039 120.256 48.9037 120.115 48.5125C120.226 48.4867 120.338 48.4689 120.444 48.4355C120.74 48.3503 120.934 48.4615 121.114 48.7049C121.902 49.7689 122.8 50.7335 123.765 51.6411C125.926 53.681 128.26 55.4957 130.877 56.9203C131.188 57.0906 131.327 57.2942 131.415 57.639C131.734 58.8787 132.12 60.102 132.463 61.3388C132.955 63.1212 133.363 64.926 133.515 66.7744C133.766 69.8568 133.158 72.7785 131.853 75.5649C129.956 79.6041 127.131 82.8622 123.513 85.4451C120.194 87.8115 116.539 89.4879 112.67 90.7247C109.918 91.6044 107.105 92.2218 104.255 92.7008C101.533 93.1601 98.7882 93.4015 96.0371 93.5212C92.132 93.692 88.2332 93.5802 84.3656 92.9212C82.6175 92.6242 80.8878 92.2432 79.2084 91.6722C79.03 91.6164 78.8349 91.5912 78.6915 91.4535Z" fill="#5A3A83"/>
<path d="M150.585 115.85C150.569 115.419 150.325 115.064 150.165 114.688C148.492 110.831 146.828 106.974 144.954 103.207C143.806 100.897 142.561 98.6343 141.202 96.435C139.277 93.3203 136.904 90.5831 134.314 88.0113C132.999 86.7095 131.641 85.4659 130.151 84.3653C129.445 83.8428 128.672 83.4674 127.789 83.3589C128.53 83.1376 129.282 83.2091 130.026 83.3102C133.248 83.7375 135.905 85.2513 138.122 87.5786C139.645 89.1778 140.795 91.0389 141.855 92.9562C143.303 95.5817 144.622 98.2803 146.089 100.895C148.512 105.212 151.135 109.393 154.254 113.252C154.644 113.736 155.005 114.243 155.263 114.816C155.593 115.544 155.433 116.18 154.905 116.739C154.431 117.238 153.834 117.565 153.221 117.868C153.083 117.938 152.964 117.941 152.903 117.772C152.775 117.425 152.65 117.072 152.514 116.692C152.781 116.611 152.953 116.741 153.13 116.821C153.251 116.872 153.366 116.952 153.492 116.977C153.693 117.018 153.873 116.951 153.959 116.749C154.051 116.533 153.994 116.34 153.809 116.195C153.439 115.909 153.014 115.773 152.558 115.719C151.891 115.641 151.24 115.798 150.585 115.85Z" fill="#A76A2B"/>
<path d="M46.1145 142.081C46.4594 142.129 46.6785 142.384 46.9123 142.592C47.8656 143.44 48.9715 143.497 50.1026 143.158C51.7976 142.653 53.3149 141.797 54.6936 140.677C56.4621 139.235 58.1312 137.683 59.8099 136.142C60.5592 135.454 61.2714 134.73 61.9977 134.02C62.1182 133.903 62.2282 133.767 62.286 133.605C63.8277 134.319 65.3097 135.147 66.7912 135.971C66.8354 135.999 66.8665 136.052 66.8996 136.089C66.8855 136.274 66.7304 136.342 66.6185 136.43C63.4904 138.981 60.3479 141.514 57.0304 143.819C55.4339 144.929 53.7918 145.967 51.9611 146.665C50.9893 147.037 49.9931 147.31 48.9305 147.24C48.1194 147.188 47.5425 146.813 47.1697 146.103C46.894 145.585 46.6878 145.034 46.553 144.466C46.3631 143.681 46.1369 142.899 46.1145 142.081Z" fill="#5A3A83"/>
<path d="M95.9351 37.022C103.829 36.1595 110.222 41.8045 111.076 48.8656C111.985 56.3369 106.693 63.1442 99.2392 64.0592C91.8131 64.9708 84.9827 59.6571 84.062 52.2568C83.131 44.7719 88.4462 37.9535 95.9351 37.022ZM110.139 49.0169C109.283 42.0498 102.992 37.132 96.0205 37.988C89.0569 38.839 84.1199 45.1413 84.9613 52.0938C85.8092 59.0659 92.1462 64.0191 99.125 63.1581C106.075 62.3005 110.998 55.9795 110.139 49.0169Z" fill="#6E4F93"/>
<path d="M83.5395 46.5814C79.6575 41.2914 73.0552 40.0842 67.9738 42.3638C63.0279 44.5819 60.0327 49.6909 60.5324 55.0838C61.0379 60.5576 64.9271 65.0704 70.2362 66.2927C73.3974 67.0217 76.4285 66.6186 79.2772 65.0571C82.1031 63.5107 84.0265 61.1636 85.1489 58.1463C85.3945 58.2838 85.4462 58.5062 85.5831 58.657C85.7947 58.8844 85.7689 59.1082 85.647 59.3804C85.1155 60.5811 84.4555 61.6994 83.5867 62.6798C80.1184 66.5925 75.7692 68.2434 70.6329 67.2656C65.4504 66.277 61.917 63.1383 60.2509 58.129C57.8748 50.9882 61.8061 43.3422 68.9262 40.9973C74.1302 39.2869 79.899 40.8942 83.4935 45.0346C83.8645 45.4631 83.9882 45.8402 83.7223 46.3384C83.6738 46.4097 83.683 46.5189 83.5395 46.5814Z" fill="#6E4F93"/>
<path d="M45.2204 71.0572C44.6252 71.134 44.0546 71.0117 43.4892 70.8643C43.2906 70.8109 43.1688 70.6828 43.0666 70.5156C42.0501 68.8504 40.8018 67.3607 39.554 65.875C39.1048 65.3416 38.6183 64.8372 38.0385 64.4383C37.7573 64.2439 37.4661 64.067 37.1364 63.9766C36.8529 63.8968 36.795 63.7242 36.833 63.4662C37.0438 62.1495 37.4125 60.887 38.1841 59.7796C39.1713 58.3639 40.6235 58.3131 41.7184 59.65C42.1936 60.2292 42.4804 60.905 42.7522 61.5908C43.4585 63.3592 44.1573 65.1327 45.119 66.7841C45.4604 67.3715 45.8018 67.9589 46.1201 68.5573C46.2792 68.8565 46.4156 69.1708 46.5204 69.4929C46.7607 70.2561 46.4534 70.7839 45.6683 70.9779C45.5208 71.0082 45.3683 71.0309 45.2204 71.0572Z" fill="#6E4F93"/>
<path d="M75.1047 123.841C75.3006 123.739 75.3047 123.539 75.3434 123.354C76.1107 119.804 76.9368 116.268 77.9021 112.767C78.4823 110.662 79.1348 108.58 79.9703 106.558C80.223 105.951 80.4194 105.318 80.6459 104.698C80.7168 104.51 80.7386 104.287 80.9451 104.171C81.0064 104.572 80.8776 104.956 80.8192 105.347C80.029 110.648 79.5033 115.974 79.3039 121.33C79.1909 124.383 79.1966 127.438 79.5071 130.481C79.5159 130.553 79.5047 130.628 79.5048 130.763C79.1556 130.614 78.9148 130.382 78.6432 130.198C78.5584 130.139 78.536 130.056 78.5398 129.954C78.561 129.191 78.2626 128.521 77.9173 127.868C77.1998 126.51 76.3013 125.276 75.3132 124.11C75.2334 124.025 75.1728 123.931 75.1047 123.841Z" fill="#A76A2B"/>
<path d="M98.9753 78.1495C99.8382 77.1208 100.827 76.624 102.034 76.5665C102.618 76.5359 103.202 76.53 103.784 76.5447C104.89 76.5688 105.959 76.3605 107.022 76.0959C107.351 76.0148 107.679 75.9297 108.01 75.8607C109.712 75.5098 110.623 76.1174 111.416 77.4177C111.871 78.1669 112.116 79.003 112.293 79.8515C112.64 81.5169 112.861 83.1974 112.921 84.8936C112.94 85.4429 112.929 85.9917 112.756 86.5153C112.515 87.2515 111.986 87.3692 111.436 86.8114C111.128 86.4977 110.907 86.1244 110.735 85.7246C110.405 84.9642 110.095 84.1973 109.777 83.4314C109.535 82.8563 109.259 82.3017 108.94 81.7687C107.616 79.5243 105.65 78.3143 103.062 78.0914C101.745 77.9826 100.428 78.0333 98.9753 78.1495Z" fill="#A2EAF0"/>
<path d="M36.2608 71.3435C36.1434 71.4192 36.0435 71.3374 35.946 71.3085C35.4118 71.1491 34.8788 71.0998 34.3258 71.1878C33.901 71.2561 33.8991 71.24 33.7538 70.8533C33.3289 69.7164 33.3431 68.5626 33.6471 67.4061C33.8194 66.7436 34.0922 66.1343 34.5107 65.5806C35.2876 64.5501 36.5306 64.4922 37.4649 65.1502C37.7555 65.3557 38.0482 65.5773 38.2884 65.838C39.8239 67.5051 41.2516 69.2589 42.4282 71.1986C42.8729 71.9286 43.1896 72.7151 43.2108 73.5909C43.2273 74.1935 43.0322 74.7035 42.5378 75.0703C42.1295 75.3735 41.8263 75.3656 41.4177 75.0642C40.4338 74.3347 39.4323 73.6278 38.4874 72.8486C38.2826 72.6775 38.1171 72.4934 37.9744 72.2617C37.3269 71.2419 36.6723 70.2311 36.2393 69.0952C36.1255 68.7986 35.8848 68.7014 35.6587 68.7903C35.409 68.8862 35.3047 69.1359 35.429 69.4516C35.6263 69.9626 35.8543 70.4577 36.1135 70.9408C36.1816 71.0632 36.3131 71.1697 36.2608 71.3435Z" fill="#6E4F93"/>
<path d="M118.47 89.4985C118.33 89.724 118.132 89.8421 117.962 89.9855C114.993 92.4032 111.641 94.0916 107.97 95.1407C102.337 96.7483 96.6584 96.8499 90.9506 95.5415C89.8453 95.2885 88.7724 94.9334 87.7284 94.4809C87.642 94.4424 87.5627 94.3949 87.4361 94.3287C87.6119 94.2296 87.7451 94.2828 87.8773 94.2952C90.8352 94.5302 93.7922 94.557 96.7566 94.4112C99.8549 94.2573 102.927 93.9187 105.974 93.3502C110.124 92.5734 114.158 91.4186 118.006 89.6451C118.126 89.5896 118.247 89.5422 118.371 89.4902C118.387 89.4842 118.408 89.4898 118.47 89.4985Z" fill="#CF9356"/>
<path d="M57.142 126.856C62.7964 125.822 68.3154 126.255 73.6398 128.505C78.5467 130.581 82.4491 133.932 85.7512 138.153C85.2597 138.176 84.9643 138.033 84.6623 137.767C79.8925 133.57 74.5505 130.408 68.345 128.837C65.4911 128.116 62.5865 127.882 59.6474 128.135C59.4532 128.151 59.2812 128.147 59.1115 128.029C58.5011 127.581 57.8094 127.269 57.142 126.856Z" fill="#A2EAF0"/>
<path d="M86.9424 138.441C86.8549 138.227 86.9926 138.116 87.0588 137.989C87.4814 137.202 88.0341 136.51 88.6139 135.838C91.4114 132.588 94.4456 129.57 97.6334 126.704C101.1 123.584 104.727 120.67 108.596 118.064C108.857 117.889 109.106 117.585 109.416 117.613C109.701 117.639 109.877 117.977 110.119 118.156C110.438 118.391 110.757 118.626 111.035 118.833C111.058 119.022 110.956 119.055 110.884 119.096C106.017 121.697 101.654 125.004 97.4833 128.586C93.9894 131.586 90.655 134.756 87.4424 138.053C87.3047 138.196 87.202 138.393 86.9424 138.441Z" fill="#A2EAF0"/>
<path d="M67.1993 142.587C68.2145 142.704 69.1925 142.985 70.1675 143.275C72.4647 143.954 74.8205 144.377 77.1565 144.872C78.7963 145.219 80.4228 145.625 81.998 146.212C83.111 146.628 84.2366 147.013 85.3516 147.412C87.3766 148.137 89.3278 149.026 91.2374 150.01C91.5036 150.149 91.7799 150.271 92.0562 150.392C92.2808 150.491 92.4368 150.632 92.4597 150.886C89.9742 149.736 87.3362 149.11 84.6566 148.645C82.7703 148.32 80.9557 147.745 79.1851 147.03C77.4658 146.333 75.678 145.878 73.8587 145.532C72.4325 145.261 70.9951 145.032 69.6121 144.58C68.9653 144.369 68.3303 144.12 67.8054 143.67C67.4807 143.386 67.1617 143.082 67.1993 142.587Z" fill="#5A3A83"/>
<path d="M69.5867 126.196C69.5791 126.034 69.6705 125.912 69.7663 125.794C70.1872 125.293 70.1767 124.739 69.9826 124.154C69.7547 123.459 69.4447 122.794 69.1351 122.133C68.6386 121.079 68.221 120.002 67.9042 118.881C67.8833 118.81 67.882 118.732 67.8691 118.66C69.2279 119.483 70.4353 120.504 71.6109 121.565C73.2089 123.008 74.6566 124.592 75.9163 126.342C76.1974 126.736 76.2054 126.735 75.8419 127.07C75.5665 127.324 75.2777 127.568 74.9978 127.818C74.8617 127.941 74.7262 128.003 74.5398 127.915C72.9494 127.17 71.2718 126.68 69.5867 126.196Z" fill="#5A3A83"/>
<path d="M79.0854 147.991C78.7316 148.071 78.3916 147.863 78.0495 147.905C77.9935 148.149 78.1643 148.21 78.2727 148.294C79.1697 148.981 80.0025 149.746 80.8424 150.501C81.733 151.303 82.7857 151.861 83.887 152.315C85.6811 153.055 87.5026 153.719 89.3377 154.361C89.6578 154.473 89.9921 154.534 90.3213 154.621C90.541 154.68 90.7722 154.733 90.788 155.03C88.3432 154.413 85.8455 153.999 83.4805 153.1C81.5566 152.367 79.9255 151.222 78.6373 149.606C78.2609 149.133 77.9222 148.635 77.6521 148.097C77.5546 147.9 77.4168 147.709 77.4911 147.381C78.0323 147.564 78.5807 147.705 79.0854 147.991Z" fill="#5A3A83"/>
<path d="M84.5741 154.459C84.5898 154.62 84.6775 154.736 84.8035 154.831C85.7309 155.568 86.5797 156.395 87.5501 157.082C88.167 157.517 88.8573 157.817 89.5542 158.103C90.1435 158.346 90.7333 158.592 91.3231 158.839C91.4648 158.895 91.61 158.947 91.6437 159.122C91.2427 159.184 90.8557 159.092 90.468 159.029C88.2544 158.666 86.2694 157.835 84.6981 156.176C84.1254 155.568 83.6731 154.875 83.2715 154.062C83.7657 154.129 84.1661 154.296 84.5741 154.459Z" fill="#5A3A83"/>
<path d="M120.183 47.5219C120.026 47.6472 119.832 47.6261 119.651 47.6482C117.282 47.954 114.908 48.2563 112.539 48.5581C112.446 48.5695 112.349 48.5772 112.257 48.5926C111.978 48.6512 111.895 48.5061 111.865 48.2565C111.834 48.007 111.939 47.9247 112.167 47.8887C113.733 47.6646 115.298 47.4325 116.859 47.205C117.662 47.0905 118.462 46.9805 119.265 46.8701C119.929 46.7849 119.969 46.8086 120.183 47.5219Z" fill="#6E4F93"/>
<path d="M89.8443 143.734C89.3378 143.702 88.9889 143.454 88.7039 143.027C87.9655 141.933 87.1899 140.868 86.4328 139.788C86.3291 139.641 86.1902 139.507 86.1712 139.284C86.5597 139.188 86.7941 139.368 86.9915 139.646C87.6991 140.621 88.4182 141.592 89.1181 142.572C89.3797 142.941 89.7012 143.265 89.8831 143.684C89.8685 143.698 89.8584 143.716 89.8443 143.734Z" fill="#3F713F"/>
<path d="M77.4456 129.428C76.8765 129.117 76.307 128.803 75.7028 128.472C76.0116 128.124 76.3202 127.841 76.6902 127.559C77.0628 128.135 77.3847 128.696 77.4456 129.428Z" fill="#A76A2B"/>
<path d="M64.9668 65.9258C65.202 66.0114 65.3531 66.1114 65.5121 66.2758C65.412 66.4597 65.2622 66.6046 65.073 66.7952C65.0357 66.4893 65.0052 66.2397 64.9668 65.9258Z" fill="#FFEE00"/>
<path d="M80.9551 104.114C80.9341 104.043 80.9554 103.983 81.0069 103.936C81.0233 104.004 81.0145 104.066 80.9551 104.114Z" fill="#A76A2B"/>
<path d="M89.8841 143.686C89.8991 143.709 89.9102 143.732 89.9252 143.755C89.9 143.749 89.8704 143.741 89.8453 143.736C89.8594 143.718 89.8695 143.7 89.8841 143.686Z" fill="#3F713F"/>
<path d="M79.2569 148.059C79.2052 148.036 79.1494 148.014 79.0977 147.992C79.1626 147.988 79.2143 148.011 79.2569 148.059Z" fill="#5A3A83"/>
<path d="M110.139 49.0172C110.995 55.9843 106.072 62.3052 99.1251 63.1583C92.1464 64.0193 85.8094 59.0661 84.9615 52.094C84.1155 45.138 89.057 38.8392 96.0206 37.9882C102.992 37.1322 109.283 42.046 110.139 49.0172ZM96.1043 38.84C89.6337 39.647 85.0358 45.5484 85.8394 52.0235C86.6419 58.4905 92.5433 63.0884 99.0148 62.2893C105.478 61.4913 110.083 55.5769 109.276 49.1063C108.471 42.6232 102.579 38.0324 96.1043 38.84Z" fill="#070504"/>
<path d="M96.1055 38.8401C102.58 38.0326 108.472 42.6234 109.281 49.106C110.088 55.5765 105.484 61.4909 99.02 62.289C92.5445 63.0885 86.6471 58.4901 85.8446 52.0231C85.041 45.5481 89.6349 39.6472 96.1055 38.8401Z" fill="#A2EAF0"/>
</g>
<defs>
<clipPath id="clip0_1121_217">
<rect x="0.0957031" y="20.6211" width="170" height="170" rx="20" transform="rotate(-6.96723 0.0957031 20.6211)" fill="white"/>
</clipPath>
</defs>
</svg>
