<svg width="191" height="190" viewBox="0 0 191 190" fill="none" xmlns="http://www.w3.org/2000/svg">
<g clip-path="url(#clip0_1121_172)">
<path d="M21.334 189.228C14.4661 133.028 7.5983 76.8286 0.730469 20.6289C56.9424 13.7596 113.15 6.89073 169.362 0.0214033C169.399 0.225212 169.445 0.428036 169.47 0.63332C176.284 56.3983 183.099 112.163 189.914 167.928C190.013 168.737 190.09 168.638 189.281 168.737C133.504 175.553 77.727 182.369 21.9537 189.185C21.7485 189.21 21.5407 189.215 21.334 189.228ZM59.5947 51.0079C59.3731 50.9002 59.225 50.8244 59.0728 50.749C57.7061 50.0622 56.3236 49.4141 54.9023 48.8483C53.9361 48.4639 52.9496 48.1473 51.9265 47.9659C50.0352 47.6333 48.3747 48.0854 46.9472 49.3752C46.6527 49.6399 46.3542 49.9052 46.1014 50.2098C44.2297 52.4444 42.4423 54.7341 41.5382 57.5654C41.452 57.8292 41.3436 57.9119 41.0505 57.8537C40.1044 57.667 39.3073 57.9973 38.6265 58.6443C38.1544 59.0942 37.816 59.6339 37.5312 60.2121C37.0274 61.2378 36.7312 62.3239 36.5711 63.4547C36.5459 63.6497 36.5405 63.8057 36.2858 63.8613C35.1917 64.1012 34.4534 64.8124 33.9668 65.7788C33.1384 67.4243 32.9073 69.1438 33.4733 70.9335C33.5321 71.1142 33.587 71.2954 33.665 71.4657C33.7485 71.6475 33.7194 71.7776 33.5732 71.9181C32.912 72.5586 32.6733 73.3803 32.5939 74.2683C32.4452 75.8593 32.7584 77.3857 33.2361 78.8879C34.1122 81.6447 35.7362 83.9015 37.9205 85.763C40.7156 88.1422 43.8628 89.9596 47.1696 91.5123C47.9718 91.8923 48.7968 92.2245 49.669 92.408C49.9791 92.4722 50.0638 92.5967 50.0242 92.9079C49.8777 94.0493 49.7765 95.1933 49.6219 96.3356C48.9649 101.155 48.266 105.967 47.6421 110.79C46.5418 119.304 45.6642 127.835 45.5214 136.427C45.485 138.503 45.5713 140.58 45.8921 142.637C46.0833 143.867 46.3305 145.087 46.8504 146.233C47.4208 147.491 48.3625 148.177 49.7735 148.155C50.0385 148.152 50.3041 148.152 50.5622 148.124C51.7552 147.991 52.8754 147.597 53.9572 147.089C55.9113 146.163 57.6831 144.95 59.4249 143.691C62.405 141.534 65.2728 139.227 68.1175 136.897C68.5374 136.556 68.4308 136.553 68.8843 136.82C70.09 137.527 71.2679 138.273 72.4085 139.082C72.5696 139.197 72.7529 139.293 72.8681 139.467C72.739 139.613 72.6013 139.557 72.4796 139.563C71.5338 139.613 70.5975 139.707 69.6869 139.978C68.8472 140.228 68.0511 140.566 67.4607 141.251C66.7447 142.078 66.7329 143.084 67.4211 143.936C67.7339 144.322 68.1289 144.613 68.5629 144.854C69.1419 145.18 69.762 145.406 70.3937 145.595C71.3727 145.884 72.3721 146.072 73.372 146.264C74.4634 146.47 75.5558 146.684 76.6385 146.952C76.9124 147.021 77.0333 147.141 77.0929 147.427C77.2631 148.252 77.6786 148.978 78.1621 149.658C79.2729 151.226 80.696 152.441 82.3946 153.336C82.6482 153.473 82.983 153.538 82.8803 153.968C82.8584 154.056 82.9546 154.175 83.0036 154.275C83.9306 156.311 85.3906 157.828 87.3988 158.816C87.7725 158.999 88.1553 159.157 88.5417 159.31C88.7266 159.385 88.8567 159.447 88.8666 159.695C88.8864 160.158 89.1152 160.559 89.3621 160.942C89.885 161.744 90.5794 162.378 91.3817 162.893C92.3753 163.535 93.4773 163.928 94.6213 164.196C96.7868 164.7 98.9762 165.098 101.175 165.442C104.637 165.991 107.882 165.366 110.972 163.734C112.802 162.767 114.451 161.552 116.035 160.239C116.309 160.01 116.572 159.786 116.974 159.798C117.211 159.802 117.453 159.711 117.69 159.641C121.155 158.641 124.549 157.434 127.802 155.872C134.733 152.546 141.15 148.391 147.212 143.675C149.331 142.027 151.342 140.262 153.136 138.257C153.944 137.354 154.682 136.401 155.271 135.341C155.894 134.219 156.275 133.024 156.326 131.735C156.357 131.017 156.31 130.303 156.215 129.592C155.738 126.092 154.998 122.644 153.996 119.254C153.906 118.95 153.959 118.821 154.238 118.693C154.872 118.403 155.474 118.047 155.996 117.567C157.046 116.601 157.253 115.452 156.596 114.189C156.308 113.636 155.928 113.139 155.55 112.646C154.802 111.675 154.035 110.715 153.321 109.719C150.786 106.189 148.566 102.469 146.509 98.643C145.224 96.2508 144.035 93.8101 142.666 91.4649C141.53 89.5203 140.251 87.6789 138.573 86.1518C136.123 83.9224 133.282 82.5701 129.939 82.3577C129.683 82.3399 129.419 82.4211 129.169 82.3088C129.183 82.254 129.181 82.2092 129.202 82.1821C129.294 82.0647 129.395 81.9503 129.495 81.8359C131.034 80.0545 132.307 78.1055 133.305 75.9695C135.062 72.2005 135.524 68.2916 134.695 64.2137C134.305 62.2883 133.772 60.4006 133.211 58.5245C133.137 58.2843 133.026 58.0406 133.065 57.7294C133.451 57.8743 133.798 58.0115 134.153 58.1357C135.83 58.7233 137.537 59.0213 139.321 58.7093C141.873 58.2626 143.752 56.354 144.112 53.7893C144.336 52.2095 144.006 50.7097 143.38 49.2665C142.47 47.1716 141.076 45.4259 139.432 43.8702C136.406 41.0044 132.89 38.9094 129.046 37.3406C125.387 35.8513 121.569 34.9942 117.659 34.5283C116.83 34.4294 116.025 34.2949 115.316 33.8096C115.085 33.654 114.811 33.5527 114.552 33.4413C109.274 31.1287 103.744 30.0436 97.9874 30.1057C94.6707 30.1434 91.4066 30.579 88.1838 31.3855C84.6122 32.2795 81.221 33.6131 78.047 35.488C76.2867 36.5284 74.6146 37.6887 73.1325 39.0995C72.836 39.3808 72.5524 39.534 72.159 39.5575C71.5347 39.597 70.9212 39.7251 70.3247 39.892C64.8289 41.4215 61.318 44.9513 59.7607 50.428C59.6944 50.5872 59.6557 50.7717 59.5947 51.0079Z" fill="#02BFFF"/>
<path d="M21.3346 189.226C21.5414 189.213 21.7491 189.208 21.9544 189.183C77.7317 182.366 133.509 175.55 189.282 168.734C190.091 168.636 190.013 168.735 189.915 167.926C183.1 112.161 176.285 56.396 169.47 0.631085C169.445 0.425801 169.4 0.222977 169.363 0.0191681C169.402 0.0388922 169.473 -0.0514482 169.483 0.061749C169.497 0.211173 169.519 0.359612 169.538 0.512569C176.388 56.5714 183.239 112.63 190.093 168.717C189.823 168.75 189.55 168.783 189.28 168.816C133.47 175.637 77.665 182.456 21.8546 189.268C21.6896 189.288 21.488 189.444 21.3346 189.226Z" fill="#A2EAF0"/>
<path d="M59.5958 51.0049C59.6568 50.7686 59.6961 50.5882 59.7479 50.4103C61.3086 44.9291 64.8201 41.4033 70.3118 39.8743C70.9083 39.7074 71.5253 39.5748 72.1461 39.5398C72.5435 39.5158 72.8231 39.3631 73.1196 39.0818C74.6063 37.6745 76.2779 36.5102 78.0341 35.4703C81.2081 33.5954 84.5993 32.2618 88.1709 31.3678C91.3897 30.5618 94.6578 30.1257 97.9745 30.088C103.731 30.0259 109.261 31.111 114.54 33.4236C114.799 33.539 115.072 33.6363 115.304 33.7919C116.017 34.2767 116.817 34.4117 117.647 34.5106C121.556 34.9765 125.374 35.8336 129.033 37.3229C132.88 38.8872 136.392 40.9827 139.419 43.8525C141.063 45.4082 142.457 47.1539 143.367 49.2488C143.993 50.692 144.323 52.1878 144.1 53.7715C143.738 56.3322 141.86 58.2409 139.308 58.6916C137.524 59.0035 135.817 58.7056 134.14 58.118C133.785 57.9938 133.438 57.8566 133.052 57.7116C133.013 58.0229 133.128 58.2621 133.198 58.5068C133.763 60.3864 134.292 62.2705 134.682 64.196C135.511 68.2739 135.05 72.1869 133.292 75.9518C132.295 78.0878 131.021 80.0368 129.482 81.8182C129.382 81.9326 129.285 82.0465 129.189 82.1644C129.168 82.1915 129.169 82.2322 129.156 82.2911C129.407 82.4034 129.671 82.3262 129.926 82.34C133.269 82.5524 136.106 83.9051 138.56 86.1341C140.238 87.6612 141.517 89.5026 142.653 91.4472C144.023 93.7924 145.215 96.2326 146.496 98.6253C148.549 102.452 150.773 106.171 153.308 109.702C154.022 110.697 154.788 111.653 155.537 112.628C155.916 113.121 156.295 113.618 156.583 114.171C157.24 115.431 157.033 116.579 155.983 117.549C155.465 118.025 154.863 118.381 154.225 118.675C153.946 118.803 153.893 118.932 153.983 119.236C154.985 122.623 155.725 126.07 156.202 129.574C156.297 130.286 156.344 131.003 156.313 131.718C156.262 133.007 155.881 134.201 155.258 135.323C154.669 136.384 153.932 137.34 153.123 138.24C151.329 140.244 149.318 142.009 147.199 143.657C141.137 148.373 134.724 152.527 127.789 155.855C124.536 157.416 121.142 158.624 117.677 159.623C117.441 159.693 117.198 159.784 116.961 159.78C116.56 159.772 116.3 159.992 116.022 160.222C114.439 161.539 112.789 162.749 110.959 163.717C107.869 165.348 104.624 165.974 101.162 165.424C98.9628 165.076 96.7779 164.681 94.6085 164.179C93.4649 163.914 92.3629 163.521 91.3688 162.875C90.566 162.356 89.8721 161.726 89.3492 160.924C89.1023 160.541 88.8695 160.141 88.8537 159.677C88.8438 159.429 88.7132 159.363 88.5288 159.292C88.1424 159.139 87.7596 158.981 87.3859 158.798C85.3782 157.814 83.9177 156.293 82.9908 154.257C82.9458 154.157 82.8455 154.038 82.8674 153.95C82.9702 153.521 82.6354 153.455 82.3817 153.319C80.6831 152.423 79.2605 151.212 78.1492 149.64C77.6657 148.96 77.2543 148.234 77.08 147.41C77.0204 147.123 76.8995 147.003 76.6256 146.934C75.5469 146.666 74.455 146.456 73.3591 146.247C72.3597 146.058 71.3598 145.866 70.3808 145.577C69.7451 145.389 69.129 145.162 68.55 144.837C68.1201 144.595 67.7251 144.304 67.4082 143.918C66.7164 143.071 66.7318 142.06 67.4478 141.233C68.0382 140.548 68.8343 140.21 69.674 139.96C70.5846 139.69 71.5209 139.596 72.4667 139.546C72.5884 139.539 72.7261 139.596 72.8552 139.449C72.7446 139.279 72.5607 139.179 72.3956 139.064C71.255 138.256 70.0731 137.509 68.8714 136.802C68.4139 136.536 68.5205 136.539 68.1046 136.88C65.2599 139.209 62.3921 141.516 59.412 143.674C57.6707 144.936 55.8949 146.15 53.9443 147.071C52.863 147.583 51.7463 147.973 50.5493 148.107C50.2872 148.135 50.0216 148.134 49.7606 148.138C48.3537 148.159 47.408 147.473 46.8375 146.215C46.3176 145.07 46.0705 143.85 45.8792 142.619C45.5584 140.562 45.4726 138.489 45.5085 136.41C45.6554 127.817 46.533 119.286 47.6293 110.773C48.2532 105.949 48.956 101.137 49.6091 96.3179C49.7641 95.1796 49.8648 94.0316 50.0113 92.8902C50.0514 92.583 49.9663 92.4545 49.6561 92.3903C48.7839 92.2068 47.963 91.8741 47.1567 91.4946C43.8494 89.9379 40.6987 88.125 37.9077 85.7453C35.7233 83.8838 34.0994 81.627 33.2232 78.8702C32.7455 77.368 32.4323 75.8416 32.5811 74.2506C32.665 73.3661 32.9037 72.5444 33.5603 71.9004C33.7025 71.7604 33.7316 71.6302 33.6521 71.4479C33.5741 71.2777 33.5193 71.0965 33.4604 70.9158C32.8945 69.1261 33.1255 67.4066 33.954 65.7611C34.4405 64.7947 35.1748 64.084 36.2729 63.8436C36.5276 63.7879 36.5331 63.632 36.5583 63.437C36.7188 62.3102 37.0145 61.2201 37.5183 60.1944C37.8031 59.6162 38.1411 59.0724 38.6136 58.6266C39.2984 57.9791 40.0961 57.6529 41.0376 57.836C41.3307 57.8942 41.4391 57.8115 41.5253 57.5477C42.4289 54.7123 44.2168 52.4267 46.0885 50.1921C46.3418 49.8915 46.6398 49.6222 46.9343 49.3575C48.3618 48.0677 50.0219 47.6116 51.9137 47.9482C52.9408 48.1291 53.9272 48.4457 54.8894 48.8306C56.3108 49.3964 57.6932 50.0445 59.0599 50.7313C59.2261 50.8213 59.3738 50.8931 59.5958 51.0049ZM90.48 143.734C90.5051 143.739 90.5348 143.747 90.5599 143.752C90.5449 143.73 90.5339 143.707 90.5188 143.684C90.3364 143.261 90.0149 142.937 89.7538 142.572C89.0539 141.592 88.3348 140.621 87.6273 139.646C87.4263 139.372 87.1954 139.188 86.8069 139.284C86.8259 139.507 86.9648 139.641 87.0686 139.787C87.8256 140.867 88.6013 141.933 89.3396 143.027C89.6247 143.454 89.9736 143.702 90.48 143.734ZM79.7331 147.992L79.7201 147.986C79.2194 147.7 78.667 147.559 78.1172 147.373C78.0389 147.701 78.1772 147.897 78.2782 148.089C78.5484 148.627 78.887 149.125 79.2634 149.598C80.5516 151.214 82.1827 152.358 84.1066 153.092C86.4757 153.991 88.9698 154.409 91.4141 155.022C91.7021 155.105 91.9931 155.18 92.275 155.28C92.5097 155.362 92.649 155.532 92.6 155.8C92.5566 156.046 92.3354 156.175 92.0367 156.138C91.908 156.121 91.7839 156.075 91.6532 156.042C89.5049 155.512 87.3521 154.979 85.2039 154.449C84.7964 154.29 84.3955 154.118 83.8967 154.049C84.3024 154.861 84.7507 155.554 85.3234 156.162C86.8951 157.825 88.8837 158.652 91.0933 159.015C91.4809 159.078 91.872 159.169 92.269 159.109C92.5589 159.208 92.8663 159.183 93.1645 159.216C93.4833 159.25 93.8036 159.264 94.1194 159.307C94.3768 159.341 94.5278 159.507 94.5114 159.774C94.4916 160.046 94.3057 160.163 94.0501 160.178C93.957 160.185 93.862 160.176 93.7674 160.171C92.5811 160.092 91.3958 160.02 90.2275 159.787C90.1064 159.765 89.9773 159.679 89.8613 159.799C90.1943 161.254 92.5282 162.868 94.8283 163.237C94.9126 163.324 95.0318 163.33 95.1409 163.354C97.2974 163.817 99.462 164.247 101.649 164.556C104.533 164.959 107.281 164.513 109.898 163.225C111.443 162.464 112.902 161.567 114.244 160.484C115.185 159.723 116.108 158.949 117.049 158.192C117.454 157.865 117.668 157.908 117.87 158.362C117.955 158.552 118.048 158.577 118.213 158.524C118.535 158.419 118.857 158.315 119.183 158.209C122.791 157.078 126.283 155.667 129.642 153.929C134.057 151.645 138.252 149.004 142.321 146.157C144.703 144.494 147.022 142.744 149.201 140.815C150.941 139.274 152.598 137.658 153.941 135.741C155.127 134.044 155.632 132.193 155.375 130.125C155.121 128.08 154.744 126.063 154.306 124.054C153.781 121.659 153.164 119.287 152.311 116.985C152.195 116.676 152.059 116.632 151.778 116.67C150.8 116.794 149.849 117.032 148.91 117.302C145.693 118.223 142.59 119.447 139.559 120.847C139.059 121.076 139.06 121.084 139.208 121.658C139.211 121.715 139.206 121.773 139.217 121.829C139.716 124.076 140.219 126.319 140.446 128.615C140.453 128.704 140.457 128.802 140.582 128.885C140.765 128.85 140.924 128.708 141.094 128.602C141.428 128.393 141.756 128.165 142.1 127.968C142.306 127.849 142.509 127.91 142.658 128.088C142.801 128.258 142.768 128.528 142.585 128.697C142.49 128.786 142.375 128.854 142.261 128.925C141.107 129.642 139.993 130.419 138.888 131.204C136.997 132.546 135.136 133.934 133.295 135.348C128.591 138.95 124.038 142.742 119.479 146.522C119.235 146.728 119.139 146.911 119.208 147.242C119.333 147.831 119.41 148.43 119.479 149.03C119.519 149.356 119.373 149.534 119.116 149.565C118.862 149.596 118.681 149.455 118.607 149.145C118.564 148.962 118.549 148.772 118.526 148.587C118.431 147.839 118.299 147.095 118.041 146.383C117.461 144.783 116.543 143.388 115.438 142.105C115.391 142.05 115.335 141.991 115.245 141.994C115.105 142.154 115.146 142.386 115.037 142.563C114.924 142.744 114.763 142.829 114.56 142.776C114.358 142.728 114.231 142.588 114.225 142.376C114.22 142.266 114.251 142.152 114.275 142.043C114.414 141.377 114.612 140.727 114.857 140.093C115.571 138.241 116.744 136.708 118.177 135.361C118.796 134.779 119.406 134.189 119.947 133.531C120.405 132.972 120.798 132.377 120.921 131.643C121.055 130.801 120.668 130.105 119.877 129.785C119.52 129.641 119.151 129.596 118.767 129.626C117.929 129.692 117.209 130.05 116.54 130.528C115.672 131.149 114.953 131.919 114.277 132.737C113.025 134.254 111.959 135.9 110.881 137.539C110.113 138.708 109.339 139.864 108.472 140.963C107.047 142.775 105.299 144.178 103.208 145.152C101.097 146.137 98.9153 146.902 96.6404 147.409C96.2786 147.49 95.943 147.519 95.6683 147.177C95.558 147.043 95.3504 146.983 95.1812 146.901C92.7821 145.756 90.3527 144.664 87.8675 143.718C84.1911 142.317 80.4445 141.177 76.5292 140.663C74.5778 140.407 72.6221 140.282 70.6675 140.636C69.88 140.777 69.1279 141.008 68.4772 141.5C68.1218 141.768 67.8297 142.085 67.8485 142.573C67.8109 143.068 68.13 143.372 68.4587 143.655C68.9836 144.105 69.6186 144.355 70.2654 144.566C71.6483 145.018 73.0857 145.246 74.512 145.517C76.3313 145.863 78.1191 146.319 79.8384 147.015C81.609 147.731 83.4231 148.301 85.3099 148.63C87.9936 149.095 90.6274 149.721 93.113 150.872C93.3104 150.982 93.5179 151.075 93.7011 151.204C93.8713 151.326 93.9145 151.513 93.8199 151.708C93.7147 151.917 93.547 152.016 93.3102 151.951C93.2213 151.925 93.1349 151.886 93.048 151.844C90.9011 150.791 88.6188 150.167 86.2786 149.738C84.1642 149.351 82.0735 148.891 80.0744 148.077C80.0227 148.055 79.9653 148.054 79.911 148.044C79.8498 148.011 79.798 147.989 79.7331 147.992ZM120.747 48.512C120.54 48.529 120.333 48.538 120.128 48.5631C117.879 48.8461 115.635 49.1367 113.386 49.4237C113.253 49.44 113.125 49.4638 112.991 49.4719C112.757 49.4884 112.668 49.6013 112.681 49.8367C112.702 50.214 112.703 50.5898 112.692 50.967C112.474 58.7434 106.083 65.0151 98.3018 65.0264C94.0416 65.0322 90.4431 63.4334 87.5188 60.3305C87.3824 60.1838 87.2843 59.9833 87.0647 59.9244C86.8853 60.0607 86.8334 60.2713 86.7408 60.4501C86.2705 61.3818 85.7113 62.255 85.0537 63.0584C80.8351 68.219 73.7466 69.8532 67.6903 67.0636C66.9197 66.7084 66.9117 66.7094 66.4049 67.376C66.3382 67.4658 66.2721 67.5597 66.2099 67.6531C65.2539 69.0568 64.6094 70.6022 64.201 72.2413C63.9487 73.2526 63.8252 74.2808 63.7846 75.3193C63.7678 75.7504 63.8089 75.7862 64.2342 75.6893C64.8266 75.5556 65.4214 75.4747 66.0206 75.3974C68.7155 75.0518 71.4124 74.7222 74.0985 74.3041C76.3915 73.9462 78.6945 73.6362 80.9901 73.2985C86.5915 72.4669 92.2083 71.7601 97.855 71.2988C99.2264 71.1884 100.604 71.0976 101.977 71.028C104.389 70.9089 106.802 70.8018 109.214 70.7808C111.214 70.7612 113.216 70.7616 115.207 70.9799C116.487 71.1217 117.752 71.343 118.896 71.9794C119.764 72.4616 120.445 73.1219 120.79 74.0725C121.313 75.5119 120.991 76.8259 120.134 78.0337C119.207 79.3399 117.891 80.138 116.436 80.7325C115.86 80.9663 115.267 81.1614 114.667 81.3327C114.134 81.4837 114.139 81.4912 114.2 82.023C114.246 82.4341 114.308 82.8472 114.338 83.2602C114.398 84.0496 114.474 84.841 114.433 85.6346C114.403 86.2265 114.31 86.8016 113.984 87.3113C113.484 88.0996 112.594 88.2777 111.824 87.755C111.441 87.4954 111.153 87.1506 110.91 86.7636C110.606 86.2819 110.379 85.7622 110.168 85.2406C109.874 84.5044 109.599 83.7617 109.239 83.0541C109.045 82.6693 109.037 82.6702 108.637 82.7763C106.254 83.4271 103.84 83.9712 101.429 84.4947C98.1809 85.198 94.9193 85.8213 91.643 86.3565C87.3214 87.0643 82.9796 87.6399 78.6113 87.9653C77.2958 88.0648 75.9742 88.1487 74.6554 88.1546C74.1981 88.1574 73.7389 88.1767 73.2826 88.1876C73.2849 88.2731 73.2793 88.2942 73.2848 88.3058C73.3189 88.3506 73.3535 88.3995 73.3981 88.4308C75.2138 89.7491 77.1741 90.7801 79.319 91.4494C79.462 91.5831 79.6575 91.6123 79.8324 91.6726C81.5158 92.2431 83.2455 92.6241 84.9895 92.9216C88.8572 93.5806 92.756 93.6925 96.6611 93.5216C99.4122 93.402 102.152 93.157 104.879 92.7013C107.729 92.2222 110.542 91.6088 113.294 90.7251C117.163 89.4884 120.818 87.8119 124.137 85.4455C127.755 82.8626 130.58 79.6045 132.477 75.5653C133.782 72.7789 134.389 69.8532 134.139 66.7748C133.991 64.9259 133.583 63.1252 133.087 61.3392C132.744 60.1025 132.357 58.8792 132.038 57.6394C131.947 57.2952 131.812 57.0911 131.501 56.9207C128.884 55.4961 126.55 53.6815 124.389 51.6415C123.428 50.7335 122.526 49.7693 121.738 48.7053C121.558 48.4619 121.368 48.3462 121.068 48.4359C120.97 48.4683 120.858 48.4861 120.747 48.512ZM68.5089 118.659C68.3429 118.471 68.1144 118.372 67.9105 118.242C67.431 117.929 67.4275 117.933 67.0094 118.323C65.3408 119.88 63.6681 121.436 61.9152 122.905C61.5003 123.254 61.0473 123.558 61.0621 124.214C61.0704 124.483 60.8215 124.619 60.5933 124.59C60.361 124.561 60.2005 124.385 60.2043 124.115C60.2058 123.926 60.24 123.738 60.2662 123.551C60.8664 119.27 61.256 114.97 61.5958 110.663C62.0436 104.967 62.3963 99.2613 62.6504 93.5517C62.6977 92.4674 62.8747 91.3755 62.672 90.2849C62.6448 90.1289 62.7387 89.9949 62.8125 89.8633C62.9702 89.5826 63.1324 89.3054 63.2776 89.0221C63.7165 88.1678 64.1595 87.3129 64.3995 86.3685C64.5052 85.9634 64.4845 85.6268 64.2663 85.245C63.7997 84.4359 63.9253 83.5912 64.5333 82.8837C64.7695 82.6097 65.0537 82.3952 65.3566 82.1989C65.474 82.1233 65.643 82.1026 65.7015 81.8789C65.5898 81.8681 65.4863 81.8562 65.3827 81.8444C64.8371 81.7926 64.2904 81.7654 63.7499 81.6885C63.0345 81.5839 62.354 81.3647 61.7516 80.9481C60.6577 80.1871 60.3344 78.8785 60.9503 77.7002C61.2749 77.0804 61.7546 76.5928 62.3846 76.2993C62.7714 76.1213 62.8731 75.8842 62.8813 75.4828C62.9272 73.0506 63.5029 70.7415 64.6275 68.5777C64.7494 68.3381 64.8064 68.1024 64.8137 67.8278C64.8394 67.0689 64.7077 66.3251 64.6444 65.573C64.6171 65.2495 64.4915 65.0238 64.2446 64.8089C63.0142 63.7336 61.9871 62.4824 61.1832 61.0527C61.1211 60.9459 61.0904 60.7944 60.8953 60.7693C60.6924 61.2148 60.6206 61.6975 60.5901 62.1833C60.5171 63.2912 60.4572 64.4056 60.4134 65.5181C60.3298 67.7752 59.2963 69.5479 57.6685 71.0378C57.4885 71.2027 57.3062 71.2822 57.0549 71.2312C55.0567 70.8258 53.1683 70.1497 51.4411 69.0535C50.1657 68.2452 49.0306 67.2809 48.2466 65.9795C46.8221 63.6166 46.6834 61.211 48.1637 58.8158C48.9271 57.5746 49.8838 56.4772 50.8585 55.394C51.3731 54.8245 52.0034 54.6331 52.7549 54.7986C53.3259 54.9249 53.8832 55.106 54.4405 55.2871C55.6235 55.6737 56.8186 56.026 58.0549 56.214C58.517 56.2842 58.977 56.371 59.4459 56.2973C59.5108 56.126 59.472 55.9755 59.4502 55.8311C59.2879 54.7029 59.2603 53.5747 59.4042 52.4459C59.4506 52.0562 59.3294 51.8667 58.9944 51.6993C57.2022 50.8071 55.4009 49.9406 53.5069 49.2855C53.008 49.1136 52.4973 48.98 51.9775 48.8719C50.2674 48.5171 48.7624 48.9053 47.474 50.0963C47.3091 50.2513 47.1396 50.4027 46.9843 50.5688C45.5303 52.1436 44.3093 53.8861 43.254 55.7472C42.8603 56.4367 42.6137 57.194 42.3582 57.9443C42.2983 58.1232 42.2254 58.2955 42.4242 58.451C43.2979 59.149 43.7792 60.1115 44.1682 61.1221C45.0781 63.4866 46.1346 65.78 47.457 67.943C47.7224 68.3763 47.9193 68.8506 48.0572 69.3444C48.3431 70.3798 47.9186 71.2855 46.9281 71.7048C46.3263 71.9622 45.6859 72.0037 45.0382 71.9521C44.8567 71.9375 44.6783 71.849 44.4915 71.9249C44.8955 74.6291 44.8676 74.7346 43.3574 76.0835C43.3581 76.1896 43.4349 76.2497 43.4931 76.3243C44.0485 76.9917 44.4796 77.7112 44.3755 78.6308C44.3584 78.7922 44.4422 78.876 44.5789 78.9246C44.703 78.9707 44.8236 79.0214 44.9482 79.0715C47.6694 80.1116 50.0801 81.6187 52.0165 83.825C52.1163 83.9395 52.2272 84.0444 52.3154 84.1643C52.4537 84.3599 52.429 84.559 52.2615 84.7265C52.0865 84.8991 51.8783 84.9 51.6971 84.7546C51.5204 84.6128 51.3655 84.4479 51.2105 84.283C49.7427 82.6689 48.0195 81.4047 46.0246 80.5251C45.5408 80.3105 45.0474 80.1175 44.5742 79.8893C44.1879 79.7037 43.8572 79.6379 43.5036 79.9875C43.2923 80.1972 42.9732 80.2607 42.6683 80.3061C42.1545 80.3811 41.6492 80.3244 41.1556 80.1968C39.7819 79.854 38.5661 79.1651 37.374 78.4365C37.0918 78.2667 37.0266 78.0337 37.1393 77.8197C37.2657 77.5837 37.5234 77.5195 37.8243 77.6747C38.0423 77.787 38.2466 77.9214 38.4615 78.0422C39.2651 78.4996 40.0857 78.9304 40.9697 79.2104C41.4758 79.3733 41.989 79.4944 42.5259 79.4084C43.2475 79.2957 43.605 78.7781 43.4566 78.065C43.3777 77.6865 43.1829 77.3631 42.9423 77.0656C42.634 76.6825 42.2743 76.3466 41.8787 76.0517C40.541 75.0672 39.2209 74.0602 37.915 73.035C37.6485 72.8265 37.3532 72.6502 37.0559 72.4904C36.6923 72.2898 36.3095 72.1323 35.8932 72.0688C34.8359 71.9079 34.0358 72.3815 33.6769 73.3895C33.5314 73.8036 33.4649 74.2284 33.4571 74.6665C33.4126 76.5757 33.9092 78.3656 34.6715 80.0904C35.6317 82.2649 37.1545 83.9948 38.9818 85.4751C41.3536 87.3995 43.9785 88.9212 46.7024 90.2837C48.0947 90.9797 49.5312 91.5354 51.0711 91.8007C51.1837 91.8196 51.2928 91.843 51.3993 91.879C51.629 91.9531 51.7352 92.1199 51.7149 92.3552C51.6922 92.5704 51.5484 92.731 51.3457 92.7108C50.9163 92.6734 50.912 92.9395 50.8835 93.2412C50.6222 95.7161 50.3116 98.1889 49.9593 100.655C48.965 107.562 47.9666 114.469 47.3419 121.425C46.8355 127.043 46.3291 132.661 46.4433 138.309C46.467 139.573 46.5113 140.838 46.7574 142.083C46.7798 142.901 47.006 143.682 47.1919 144.468C47.3271 145.04 47.5329 145.587 47.8086 146.105C48.1813 146.815 48.7618 147.185 49.5694 147.242C50.636 147.312 51.6282 147.039 52.5999 146.667C54.4307 145.97 56.0723 144.928 57.6693 143.821C60.9868 141.516 64.1293 138.983 67.2573 136.432C67.3687 136.341 67.5198 136.273 67.5384 136.091C67.5053 136.054 67.4743 136.001 67.4301 135.974C65.9486 135.15 64.4666 134.322 62.9249 133.607C61.4292 132.801 59.885 132.099 58.3443 131.393C57.418 130.967 56.479 130.571 55.5501 130.158C55.1613 129.985 55.0471 129.819 55.1062 129.534C55.1593 129.266 55.3277 129.106 55.5939 129.045C56.2925 128.878 56.9871 128.711 57.6857 128.544C57.9318 128.486 58.1914 128.47 58.4081 128.338C58.3767 128.215 58.3003 128.191 58.235 128.159C57.6323 127.84 57.021 127.551 56.3798 127.319C56.115 127.225 55.8885 127.109 55.901 126.777C55.9129 126.473 56.0904 126.288 56.4835 126.195C56.7769 126.123 57.0704 126.05 57.3658 125.993C60.5388 125.381 63.7299 125.285 66.9379 125.661C68.0446 125.791 69.1284 126.035 70.2244 126.211C71.9091 126.692 73.5872 127.185 75.1816 127.93C75.3679 128.018 75.5029 127.952 75.6395 127.833C75.9194 127.583 76.2083 127.339 76.4836 127.085C76.8472 126.75 76.8386 126.747 76.558 126.357C75.2984 124.607 73.8506 123.023 72.2526 121.58C71.0756 120.506 69.8677 119.482 68.5089 118.659ZM75.7396 123.838C75.8077 123.928 75.8683 124.022 75.94 124.108C76.9287 125.278 77.8271 126.512 78.5442 127.866C78.8894 128.519 79.1879 129.189 79.1667 129.952C79.1628 130.054 79.1853 130.137 79.2701 130.196C79.5457 130.379 79.7865 130.611 80.1317 130.761C80.1356 130.626 80.1428 130.551 80.1339 130.479C79.8229 127.432 79.8178 124.381 79.9308 121.328C80.1301 115.972 80.6558 110.646 81.446 105.345C81.5049 104.958 81.6292 104.571 81.572 104.169C81.5907 104.155 81.5962 104.134 81.5852 104.111C81.6407 104.063 81.6494 104.001 81.637 103.933C81.6782 103.768 81.7069 103.601 81.7651 103.443C81.8477 103.217 82.024 103.121 82.2578 103.162C82.4956 103.203 82.6174 103.363 82.6137 103.601C82.6097 103.769 82.5731 103.937 82.549 104.107C81.5004 110.805 80.824 117.538 80.7751 124.326C80.7578 126.591 80.834 128.853 81.0969 131.105C81.1352 131.451 81.2739 131.684 81.5459 131.904C83.4555 133.456 85.1799 135.198 86.7072 137.131C86.7844 137.228 86.8257 137.366 86.9902 137.374C87.3012 136.944 87.5997 136.511 87.9207 136.096C88.2453 135.677 88.5794 135.268 88.9275 134.874C92.8772 130.388 97.1966 126.286 101.829 122.508C104.244 120.538 106.713 118.643 109.339 116.962C110.138 116.448 110.142 116.451 110.835 117.073C111.271 117.465 111.732 117.826 112.196 118.182C112.516 118.425 112.795 118.505 113.163 118.268C113.462 118.076 113.806 117.952 114.132 117.806C115.232 117.312 116.347 116.849 117.475 116.413C118.064 116.186 118.185 116.241 118.413 116.805C118.525 117.086 118.649 117.361 118.772 117.635C121.182 122.983 123.716 128.274 126.173 133.599C126.822 135.003 127.456 136.412 128.106 137.816C128.255 138.137 128.272 138.143 128.541 137.938C128.84 137.71 129.125 137.463 129.414 137.223C130.564 136.335 131.709 135.443 132.86 134.563C134.911 132.993 136.981 131.445 139.105 129.976C139.414 129.763 139.598 129.528 139.559 129.145C139.545 128.995 139.563 128.842 139.549 128.692C139.463 127.886 139.376 127.079 139.206 126.287C139 125.303 139.005 125.311 137.987 125.341C136.982 125.37 135.991 125.254 135.031 124.951C133.586 124.494 132.747 123.543 132.624 122.005C132.607 121.799 132.594 121.592 132.581 121.385C132.535 120.574 132.449 119.768 132.287 118.974C131.761 116.346 130.983 113.786 130.196 111.227C128.528 105.805 126.617 100.458 125.15 94.9752C125.132 94.863 125.102 94.7523 125.105 94.6376C125.103 94.3599 125.244 94.1712 125.47 94.1517C125.709 94.1308 125.866 94.2464 125.946 94.4694C125.983 94.5751 126.017 94.6854 126.039 94.7971C126.404 96.3785 126.903 97.923 127.391 99.473C128.946 104.443 130.615 109.374 132.064 114.377C132.765 116.808 133.427 119.248 133.519 121.802C133.523 121.973 133.556 122.141 133.581 122.309C133.687 123.044 134.1 123.549 134.752 123.874C135.04 124.018 135.343 124.124 135.655 124.205C136.614 124.463 137.597 124.453 138.577 124.452C138.786 124.451 138.844 124.358 138.804 124.171C138.621 123.307 138.438 122.447 138.241 121.535C137.588 121.803 137.04 122.136 136.476 122.433C136.311 122.519 136.143 122.617 135.966 122.671C135.768 122.728 135.588 122.656 135.49 122.46C135.398 122.275 135.412 122.081 135.57 121.939C135.68 121.84 135.819 121.77 135.949 121.697C137.263 120.952 138.621 120.296 140.001 119.686C143.628 118.079 147.319 116.655 151.225 115.859C151.881 115.812 152.532 115.651 153.199 115.732C153.659 115.787 154.085 115.922 154.45 116.209C154.636 116.354 154.692 116.547 154.6 116.762C154.514 116.965 154.335 117.032 154.133 116.991C154.008 116.965 153.892 116.89 153.771 116.835C153.59 116.755 153.423 116.624 153.155 116.706C153.291 117.086 153.416 117.438 153.544 117.786C153.606 117.954 153.723 117.948 153.862 117.882C154.475 117.578 155.073 117.256 155.546 116.753C156.075 116.194 156.234 115.562 155.904 114.83C155.646 114.257 155.286 113.749 154.896 113.266C151.777 109.407 149.154 105.225 146.731 100.909C145.263 98.2939 143.945 95.5953 142.496 92.9698C141.436 91.0486 140.285 89.1874 138.763 87.5923C136.546 85.2609 133.889 83.7471 130.667 83.3238C129.924 83.2267 129.172 83.1552 128.43 83.3725C128.101 83.4168 127.834 83.5761 127.592 83.8058C125.937 85.3685 124.104 86.6873 122.146 87.8418C122.001 87.9248 121.836 87.9858 121.732 88.1333C121.013 89.169 120.052 89.9646 119.082 90.7491C115.069 93.9848 110.463 95.9081 105.418 96.8186C101.805 97.4726 98.1767 97.4993 94.5384 97.0125C91.6564 96.6293 88.8658 95.9245 86.3222 94.4664C85.6367 94.0722 84.9372 93.8309 84.167 93.7126C83.7759 93.6542 83.4322 93.6839 83.0712 93.8383C81.4718 94.524 80.1029 95.5574 78.8312 96.7178C77.2917 98.1274 75.98 99.7298 74.7873 101.436C73.2047 103.697 71.8782 106.114 70.5427 108.524C69.2507 110.855 67.8517 113.114 66.1731 115.19C65.8642 115.571 65.5824 115.973 65.3453 116.406C65.1815 116.704 65.0524 117.018 64.9876 117.357C64.91 117.759 65.0454 118.098 65.2724 118.417C65.3465 118.523 65.4435 118.58 65.5529 118.473C65.8751 118.168 66.2571 117.917 66.4941 117.516C66.4052 117.458 66.3359 117.425 66.2807 117.375C66.0253 117.157 65.9675 116.951 66.1099 116.746C66.2624 116.523 66.4758 116.497 66.7089 116.599C66.9334 116.699 67.1615 116.793 67.376 116.91C68.5643 117.541 69.6526 118.323 70.7202 119.136C72.5483 120.523 74.1981 122.123 75.7396 123.838ZM84.9124 44.5856C85.1323 44.379 85.1903 44.1513 85.2974 43.9585C88.0071 38.9864 92.203 36.2472 97.8454 36.0847C103.211 35.9274 107.416 38.2814 110.416 42.7395C111.225 43.9398 111.767 45.2667 112.172 46.647C112.291 47.0532 112.299 47.0522 112.719 47.0051C112.795 46.9957 112.867 46.9829 112.944 46.9735C115.127 46.6576 117.316 46.3453 119.499 46.0294C119.644 46.0076 119.801 46.0211 119.945 45.8973C119.876 45.534 119.662 45.217 119.537 44.8686C119.421 44.5479 119.289 44.2372 119.188 43.9145C119.093 43.6074 119.185 43.3919 119.414 43.2944C119.648 43.1965 119.868 43.2962 120.008 43.5732C120.057 43.6734 120.091 43.7837 120.129 43.8894C120.816 45.8358 121.869 47.5659 123.227 49.1158C125.013 51.1608 127.053 52.9173 129.266 54.4771C130.938 55.6577 132.694 56.6811 134.645 57.3373C136.132 57.8378 137.644 58.0739 139.214 57.788C141.48 57.3722 143.081 55.5996 143.25 53.3035C143.355 51.828 142.984 50.4599 142.342 49.1494C141.292 47.0103 139.744 45.2713 137.961 43.7242C134.981 41.1307 131.59 39.2287 127.906 37.8283C124.427 36.5049 120.812 35.7742 117.126 35.33C116.972 35.312 116.827 35.293 116.685 35.3675C116.47 35.4796 116.285 35.4041 116.106 35.2789C115.454 34.8234 114.738 34.4819 114.009 34.1666C108.622 31.8345 102.986 30.8115 97.13 31.0001C94.4851 31.0864 91.8692 31.4428 89.2852 32.0282C86.5146 32.6569 83.8368 33.5438 81.2687 34.7605C78.9057 35.8827 76.6848 37.2326 74.6653 38.8929C74.502 39.0272 74.2854 39.1272 74.2157 39.4258C76.3068 39.5216 78.2702 39.9762 80.1252 40.8811C81.9757 41.7825 83.5551 43.0398 84.9124 44.5856ZM118.448 128.754C118.808 128.69 119.165 128.704 119.519 128.758C121.118 129.012 122.083 130.353 121.766 131.907C121.621 132.624 121.277 133.25 120.841 133.83C120.089 134.833 119.138 135.644 118.262 136.527C117.15 137.656 116.264 138.932 115.681 140.413C115.556 140.726 115.542 140.981 115.828 141.216C116.001 141.358 116.134 141.546 116.282 141.72C117.247 142.869 118.038 144.124 118.655 145.491C118.812 145.844 118.836 145.841 119.137 145.628C119.197 145.584 119.257 145.536 119.316 145.488C121.896 143.334 124.468 141.178 127.087 139.072C127.522 138.725 127.521 138.713 127.275 138.171C126.731 136.967 126.196 135.762 125.637 134.564C123.376 129.705 121.112 124.85 118.852 119.991C118.492 119.222 118.152 118.443 117.8 117.673C117.634 117.313 117.625 117.31 117.249 117.442C117.179 117.467 117.109 117.496 117.038 117.521C113.934 118.733 110.992 120.261 108.193 122.062C105.473 123.808 102.895 125.749 100.41 127.809C96.3113 131.21 92.4344 134.854 88.7164 138.663C88.3497 139.038 88.344 139.092 88.6577 139.52C89.8293 141.117 91.0084 142.709 92.176 144.307C92.3378 144.528 92.5315 144.676 92.7787 144.793C93.8603 145.286 94.9383 145.783 96.0077 146.31C96.3377 146.47 96.6434 146.498 96.9877 146.407C98.7198 145.938 100.411 145.367 102.07 144.67C104.514 143.645 106.52 142.072 108.095 139.947C109.589 137.93 110.869 135.768 112.335 133.73C113.331 132.346 114.395 131.027 115.749 129.971C116.548 129.358 117.422 128.888 118.448 128.754ZM62.0894 55.6311C62.1475 55.9059 62.2321 56.4307 62.364 56.9416C63.9708 63.0366 70.0092 66.817 76.1709 65.488C80.629 64.5265 83.5704 61.7853 85.0625 57.4809C85.1802 57.1397 85.1649 56.8475 85.0134 56.5105C83.8466 53.916 83.4662 51.2049 83.8859 48.3879C83.9382 48.0465 83.8775 47.7843 83.6907 47.4925C80.8734 43.1591 75.5936 41.1734 70.58 42.5705C65.0093 44.1214 61.3515 49.626 62.0894 55.6311ZM112.814 76.9019C113.407 78.0141 113.728 79.1311 113.918 80.2885C113.962 80.5446 114.097 80.5852 114.318 80.5174C115.656 80.1047 116.973 79.6496 118.121 78.8067C118.956 78.1899 119.634 77.4493 119.967 76.4362C120.441 74.9975 119.911 73.6038 118.597 72.8452C118.188 72.6092 117.754 72.4294 117.296 72.2974C115.608 71.8174 113.875 71.7473 112.138 71.7023C109.252 71.6259 106.369 71.7372 103.484 71.865C100.543 71.9958 97.6046 72.1914 94.6794 72.4917C90.419 72.9306 86.1638 73.4465 81.928 74.0867C78.4585 74.6128 74.9825 75.1193 71.5086 75.6092C69.5447 75.886 67.5779 76.1059 65.6125 76.3706C65.0138 76.4519 64.4179 76.5574 63.8311 76.7027C63.0892 76.8832 62.4033 77.1876 61.9272 77.8382C61.2834 78.7217 61.4873 79.7548 62.4218 80.3147C62.6644 80.4607 62.9266 80.5676 63.2015 80.6443C63.7303 80.7921 64.2703 80.865 64.8189 80.9083C66.5186 81.0437 68.212 80.9267 69.9073 80.8257C72.8437 80.6507 75.7792 80.435 78.7132 80.2072C81.2145 80.0159 83.7125 79.7637 86.2148 79.5805C87.551 79.4826 88.8849 79.3318 90.2176 79.2057C92.8303 78.9559 95.4369 78.6905 98.0491 78.4366C98.3238 78.4112 98.4775 78.2984 98.6155 78.0569C99.225 76.9938 100.136 76.2901 101.291 75.912C102.033 75.6661 102.809 75.6365 103.588 75.6518C104.762 75.6716 105.925 75.6195 107.067 75.3082C107.719 75.1305 108.382 74.9719 109.06 74.8973C110.095 74.7789 111.019 75.0173 111.79 75.7116C112.111 75.9991 112.415 76.0478 112.814 75.9664C114.053 75.7128 115.279 75.4118 116.51 75.1225C116.939 75.0211 117.182 75.1017 117.264 75.3776C117.342 75.6418 117.168 75.8632 116.742 75.9807C116.288 76.1097 115.826 76.2111 115.369 76.3159C114.539 76.5113 113.716 76.6977 112.814 76.9019ZM65.3202 86.448C64.9888 87.7141 64.4193 88.8376 63.8102 89.9375C63.7066 90.1258 63.6819 90.3249 63.6748 90.5342C63.6394 91.5149 63.604 92.4956 63.56 93.4733C63.3604 97.824 63.1116 102.173 62.8053 106.52C62.4489 111.56 62.0639 116.599 61.4389 121.615C61.4214 121.772 61.3229 121.935 61.4632 122.114C62.5329 121.24 63.5465 120.307 64.5656 119.386C64.7829 119.192 64.6439 119.058 64.5357 118.908C64.0757 118.286 63.9724 117.608 64.1807 116.872C64.3005 116.448 64.4862 116.062 64.7146 115.691C65.0318 115.178 65.4023 114.7 65.7728 114.222C66.7309 113.002 67.6266 111.74 68.4024 110.399C69.3672 108.733 70.3058 107.054 71.2576 105.381C72.5287 103.146 73.8847 100.97 75.5033 98.971C77.2849 96.7678 79.2941 94.8228 81.7917 93.4309C81.8567 93.3944 81.9357 93.3725 81.9311 93.2341C81.7155 93.1747 81.4903 93.1041 81.2621 93.0422C79.306 92.5132 77.4187 91.8123 75.6211 90.8759C74.3122 90.1943 73.0614 89.4198 71.9632 88.4223C71.7284 88.2059 71.4974 88.0544 71.1659 88.0826C71.016 88.0928 70.8647 88.0582 70.7158 88.0437C69.343 87.9091 67.9871 87.6786 66.6984 87.162C66.2261 86.9746 65.7938 86.7128 65.3202 86.448ZM84.6402 86.4524C87.7617 86.0873 90.627 85.5982 93.4913 85.1338C94.7573 84.93 96.019 84.6901 97.2741 84.4305C99.2313 84.032 101.185 83.6053 103.14 83.1867C104.816 82.8266 106.481 82.4147 108.145 81.9868C108.529 81.8867 108.55 81.8229 108.31 81.4968C107.536 80.4475 106.553 79.6933 105.294 79.3161C104.216 78.9903 103.108 78.8846 101.994 78.9268C101.213 78.9568 100.403 78.8067 99.6626 79.2036C99.6167 79.2296 99.5534 79.2128 99.497 79.2197C97.712 79.3888 95.931 79.5574 94.1464 79.7306C92.6648 79.8749 91.1815 80.0398 89.6989 80.176C86.5076 80.4721 83.3104 80.7525 80.1118 80.9881C78.0225 81.1413 75.9367 81.3227 73.8514 81.4754C72.9121 81.5452 71.9689 81.5828 71.0287 81.6446C70.672 81.6678 70.2953 81.6607 69.9655 81.7705C69.3176 81.9845 68.6544 82.1064 67.9866 82.2248C67.3148 82.3436 66.6689 82.541 66.0574 82.8527C65.7537 83.0083 65.47 83.1941 65.2354 83.4475C64.8641 83.8523 64.806 84.3129 65.0461 84.8065C65.1716 85.0649 65.3607 85.2746 65.5754 85.4608C66.023 85.8473 66.5318 86.1324 67.0804 86.3432C68.2511 86.7965 69.4748 87.0147 70.7193 87.1363C73.3779 87.3956 76.0335 87.2631 78.6837 87.0536C80.7514 86.8908 82.8196 86.732 84.6402 86.4524ZM87.9019 142.729C87.9777 142.614 87.9251 142.551 87.885 142.49C87.5388 141.997 87.181 141.51 86.8459 141.008C86.0183 139.785 85.0995 138.651 83.9463 137.706C81.1078 135.372 78.0638 133.363 74.7283 131.809C71.978 130.532 69.1191 129.602 66.1054 129.178C63.2038 128.769 60.3175 128.819 57.4542 129.492C57.2756 129.534 57.0849 129.545 56.9456 129.709C57.075 129.865 57.2675 129.903 57.4363 129.98C60.9363 131.542 64.3761 133.213 67.7147 135.093C69.9827 136.368 72.2344 137.678 74.2301 139.367C74.4128 139.524 74.6108 139.574 74.8457 139.59C76.1235 139.683 77.3945 139.854 78.6569 140.088C81.6124 140.638 84.477 141.514 87.2963 142.554C87.4973 142.627 87.6957 142.746 87.9019 142.729ZM48.0413 62.6955C48.2016 64.2079 48.7976 65.5077 49.8328 66.5905C51.7532 68.5986 54.168 69.6721 56.8383 70.2609C57.0439 70.3052 57.1898 70.2629 57.3432 70.1134C58.5006 68.9874 59.2969 67.6808 59.4599 66.039C59.5426 65.2119 59.568 64.3835 59.602 63.5582C59.6423 62.6178 59.6907 61.6763 59.9422 60.7591C60.0606 60.3238 60.4574 59.9608 60.4068 59.5135C60.3553 59.0582 60.1181 58.6214 59.9618 58.1789C59.9429 58.124 59.9284 58.0726 59.9135 58.0173C59.8378 57.7651 59.8346 57.4386 59.6686 57.2833C59.4749 57.1027 59.1335 57.2506 58.8599 57.2187C58.7649 57.2098 58.6739 57.2005 58.5789 57.1917C57.0693 57.0412 55.6244 56.6172 54.1836 56.1601C53.665 55.9947 53.1454 55.8212 52.6146 55.69C52.1894 55.5867 51.8275 55.6677 51.5369 55.9974C50.5495 57.1108 49.5586 58.2287 48.797 59.5187C48.1795 60.5502 47.9164 61.6731 48.0413 62.6955ZM96.5707 37.0207C89.0858 37.9518 83.7707 44.7701 84.6972 52.2515C85.6179 59.6518 92.4488 64.9695 99.8743 64.0539C107.328 63.1389 112.62 56.3316 111.712 48.8603C110.853 41.8037 104.464 36.1582 96.5707 37.0207ZM84.1756 46.5794C84.3191 46.517 84.3099 46.4078 84.3534 46.3289C84.6193 45.8307 84.4956 45.4536 84.1246 45.0251C80.5306 40.8888 74.7613 39.2774 69.5573 40.9878C62.4367 43.3287 58.5059 50.9787 60.882 58.1195C62.5481 63.1288 66.0815 66.2675 71.264 67.2561C76.4007 68.2379 80.7495 66.583 84.2178 62.6704C85.0866 61.6899 85.7461 60.5676 86.2781 59.371C86.4 59.0987 86.4263 58.8789 86.2142 58.6475C86.0773 58.4967 86.022 58.2788 85.78 58.1368C84.6616 61.1536 82.7342 63.5012 79.9083 65.0476C77.0596 66.6091 74.0285 67.0122 70.8673 66.2832C65.5622 65.0605 61.673 60.5476 61.1635 55.0743C60.6638 49.6815 63.6595 44.5764 68.6049 42.3543C73.6913 40.0823 80.2936 41.2895 84.1756 46.5794ZM45.856 71.0555C46.0039 71.0293 46.1524 71.007 46.2993 70.9727C47.0845 70.7787 47.3918 70.251 47.1515 69.4878C47.0507 69.1651 46.9143 68.8509 46.7512 68.5521C46.4329 67.9537 46.0915 67.3663 45.7501 66.7789C44.7884 65.1275 44.0896 63.3541 43.3833 61.5857C43.112 60.9039 42.8207 60.2246 42.3495 59.6448C41.2551 58.312 39.8024 58.3588 38.8152 59.7744C38.0436 60.8819 37.6749 62.1444 37.4641 63.4611C37.4221 63.7195 37.48 63.8922 37.7675 63.9714C38.0972 64.0619 38.3924 64.2382 38.6695 64.4331C39.2494 64.8321 39.7354 65.3324 40.1851 65.8698C41.4334 67.3595 42.6817 68.8493 43.6977 70.5104C43.7998 70.6777 43.9217 70.8057 44.1203 70.8591C44.6942 71.0096 45.2608 71.1323 45.856 71.0555ZM99.6112 78.1477C101.068 78.031 102.381 77.9808 103.698 78.0935C106.291 78.3159 108.257 79.526 109.577 81.7709C109.892 82.3084 110.172 82.8625 110.413 83.4335C110.731 84.1994 111.042 84.9663 111.372 85.7267C111.543 86.1266 111.764 86.4999 112.072 86.8136C112.623 87.3714 113.147 87.2541 113.392 86.5174C113.565 85.9898 113.576 85.4451 113.558 84.8958C113.497 83.1956 113.275 81.515 112.929 79.8537C112.752 79.0012 112.511 78.1646 112.052 77.4199C111.256 76.12 110.348 75.5119 108.646 75.8629C108.316 75.9319 107.987 76.0129 107.658 76.098C106.595 76.3627 105.526 76.571 104.42 76.5468C103.835 76.5367 103.251 76.5426 102.67 76.5687C101.459 76.6227 100.47 77.1194 99.6112 78.1477ZM36.8951 71.3417C36.9474 71.1678 36.8119 71.0618 36.7473 70.9349C36.4881 70.4518 36.2601 69.9568 36.0629 69.4457C35.9425 69.1295 36.0428 68.8803 36.2925 68.7844C36.5191 68.6995 36.7593 68.7927 36.8731 69.0893C37.3061 70.2252 37.9647 71.2355 38.6083 72.2558C38.7545 72.483 38.9164 72.6716 39.1212 72.8427C40.0662 73.6219 41.0681 74.3328 42.0515 75.0583C42.4601 75.3597 42.7634 75.3676 43.1716 75.0644C43.666 74.6976 43.8571 74.1881 43.8447 73.585C43.8234 72.7093 43.5067 71.9227 43.0621 71.1927C41.8814 69.2535 40.4537 67.4997 38.9222 65.8321C38.682 65.5714 38.3934 65.3493 38.0987 65.1443C37.165 64.4904 35.9219 64.5483 35.1445 65.5747C34.726 66.1284 34.4537 66.7418 34.2809 67.4002C33.9769 68.5567 33.9627 69.7105 34.3876 70.8474C34.5329 71.2341 34.5349 71.2502 34.9596 71.1819C35.5126 71.0939 36.0496 71.1427 36.5798 71.3026C36.6778 71.3356 36.7817 71.4168 36.8951 71.3417ZM119.104 89.4962C119.038 89.492 119.021 89.4819 119.005 89.4879C118.884 89.5354 118.76 89.5873 118.64 89.6428C114.795 91.4118 110.758 92.5711 106.608 93.3478C103.56 93.9164 100.488 94.2509 97.3905 94.4089C94.4265 94.5587 91.4691 94.5279 88.5112 94.2929C88.3794 94.2845 88.2458 94.2273 88.07 94.3264C88.2006 94.3921 88.2799 94.4396 88.3623 94.4786C89.4022 94.9316 90.4791 95.2862 91.5845 95.5392C97.2922 96.8476 102.971 96.746 108.604 95.1384C112.276 94.0933 115.627 92.4009 118.596 89.9832C118.77 89.8393 118.964 89.7217 119.104 89.4962ZM57.7774 126.854C58.4447 127.267 59.1324 127.579 59.7463 128.023C59.9125 128.146 60.0885 128.149 60.2822 128.129C63.2213 127.876 66.1219 128.11 68.9799 128.831C75.1889 130.397 80.5314 133.564 85.2971 137.761C85.5992 138.026 85.8945 138.17 86.386 138.147C83.08 133.926 79.1815 130.575 74.2746 128.499C68.9543 126.248 63.4357 125.819 57.7774 126.854ZM87.5778 138.438C87.8374 138.39 87.9401 138.194 88.0778 138.05C91.2904 134.753 94.6248 131.584 98.1187 128.583C102.289 125.002 106.652 121.69 111.519 119.094C111.592 119.056 111.694 119.019 111.671 118.83C111.388 118.624 111.073 118.388 110.755 118.154C110.512 117.975 110.336 117.637 110.051 117.61C109.737 117.579 109.492 117.883 109.232 118.062C105.363 120.667 101.732 123.583 98.2688 126.702C95.081 129.567 92.0468 132.585 89.2493 135.836C88.6695 136.507 88.1173 137.204 87.6942 137.987C87.628 138.114 87.4944 138.224 87.5778 138.438ZM120.817 47.5188C120.603 46.8055 120.564 46.7817 119.901 46.8709C119.097 46.9814 118.297 47.0914 117.494 47.2058C115.929 47.4339 114.364 47.666 112.802 47.8896C112.573 47.9216 112.469 48.0078 112.5 48.2574C112.53 48.507 112.613 48.648 112.892 48.5935C112.984 48.5741 113.077 48.5708 113.174 48.559C115.547 48.2567 117.917 47.9549 120.286 47.6491C120.466 47.6229 120.661 47.6481 120.817 47.5188ZM78.0812 129.426C78.0158 128.691 77.6939 128.13 77.3258 127.558C76.9599 127.839 76.6472 128.123 76.3384 128.471C76.9471 128.805 77.5162 129.116 78.0812 129.426ZM65.6026 65.9257C65.6409 66.2397 65.6714 66.4892 65.7088 66.7951C65.898 66.6045 66.0477 66.4596 66.1478 66.2758C65.9889 66.1113 65.8377 66.0113 65.6026 65.9257Z" fill="#070504"/>
<path d="M129.414 137.219C129.125 137.459 128.84 137.706 128.541 137.934C128.276 138.138 128.255 138.133 128.106 137.812C127.46 136.408 126.822 134.999 126.173 133.595C123.712 128.27 121.178 122.979 118.772 117.631C118.649 117.356 118.525 117.081 118.413 116.801C118.185 116.236 118.064 116.182 117.475 116.409C116.347 116.841 115.235 117.308 114.132 117.802C113.806 117.948 113.462 118.072 113.163 118.264C112.795 118.501 112.516 118.42 112.196 118.177C111.732 117.822 111.275 117.457 110.835 117.069C110.143 116.451 110.138 116.448 109.338 116.958C106.713 118.639 104.244 120.538 101.829 122.504C97.2005 126.281 92.8812 130.383 88.9275 134.87C88.5798 135.268 88.2417 135.677 87.9207 136.092C87.5996 136.507 87.3017 136.944 86.9901 137.37C86.8257 137.362 86.7803 137.224 86.7071 137.127C85.1799 135.193 83.4559 133.455 81.5459 131.899C81.2779 131.679 81.1392 131.447 81.0969 131.1C80.838 128.848 80.7577 126.587 80.775 124.321C80.8239 117.534 81.5008 110.804 82.5489 104.103C82.5735 103.937 82.6102 103.769 82.6137 103.597C82.6214 103.359 82.4956 103.198 82.2578 103.158C82.024 103.117 81.8477 103.212 81.7651 103.439C81.7068 103.597 81.6782 103.764 81.637 103.928C81.5855 103.976 81.5643 104.035 81.5852 104.106C81.5962 104.13 81.5941 104.146 81.5719 104.165C81.3694 104.28 81.3437 104.504 81.2727 104.692C81.0462 105.312 80.8493 105.941 80.5971 106.552C79.7616 108.574 79.1096 110.659 78.5289 112.761C77.5636 116.261 76.7375 119.798 75.9702 123.348C75.931 123.528 75.9269 123.729 75.7315 123.835C74.19 122.119 72.5401 120.519 70.7021 119.118C69.6345 118.305 68.5467 117.527 67.3579 116.892C67.1434 116.775 66.9153 116.68 66.6908 116.581C66.4577 116.479 66.2443 116.505 66.0918 116.728C65.9494 116.933 66.0072 117.138 66.2626 117.356C66.3178 117.407 66.3871 117.439 66.476 117.498C66.239 117.899 65.8565 118.145 65.5348 118.454C65.4248 118.558 65.3279 118.5 65.2543 118.399C65.0273 118.079 64.8919 117.74 64.9695 117.339C65.0343 117 65.1639 116.69 65.3272 116.388C65.5643 115.955 65.8466 115.557 66.1549 115.172C67.8331 113.091 69.2325 110.837 70.5246 108.506C71.8601 106.096 73.1871 103.682 74.7691 101.418C75.9619 99.7114 77.2735 98.109 78.813 96.6994C80.0843 95.535 81.4537 94.5056 83.053 93.8199C83.4141 93.6655 83.7577 93.6358 84.1489 93.6942C84.9191 93.8125 85.6146 94.0543 86.3041 94.4481C88.8477 95.9062 91.6383 96.611 94.5203 96.9941C98.1585 97.481 101.787 97.4502 105.4 96.8003C110.445 95.8897 115.051 93.9664 119.063 90.7307C120.034 89.9502 120.995 89.1547 121.714 88.115C121.814 87.9679 121.983 87.9105 122.128 87.8234C124.087 86.6729 125.919 85.3501 127.574 83.7874C127.816 83.5577 128.078 83.399 128.412 83.3541C129.295 83.4627 130.069 83.838 130.774 84.3605C132.264 85.4571 133.622 86.7047 134.937 88.0065C137.526 90.5743 139.899 93.3115 141.825 96.4303C143.184 98.6295 144.428 100.888 145.577 103.203C147.451 106.965 149.116 110.826 150.788 114.683C150.952 115.059 151.192 115.414 151.208 115.845C147.301 116.641 143.611 118.068 139.983 119.672C138.603 120.282 137.245 120.938 135.931 121.683C135.801 121.756 135.663 121.826 135.552 121.925C135.394 122.067 135.381 122.261 135.473 122.445C135.57 122.638 135.751 122.714 135.948 122.657C136.126 122.607 136.294 122.509 136.458 122.419C137.022 122.121 137.566 121.789 138.224 121.521C138.417 122.433 138.604 123.297 138.787 124.157C138.826 124.344 138.768 124.437 138.56 124.438C137.579 124.439 136.596 124.445 135.637 124.19C135.324 124.106 135.025 123.999 134.735 123.859C134.082 123.535 133.669 123.029 133.563 122.295C133.538 122.126 133.506 121.959 133.501 121.788C133.41 119.237 132.748 116.794 132.046 114.363C130.601 109.359 128.932 104.428 127.373 99.4586C126.89 97.9122 126.391 96.3676 126.022 94.7828C125.996 94.6715 125.962 94.5653 125.928 94.4551C125.852 94.2315 125.691 94.1164 125.452 94.1374C125.226 94.1569 125.086 94.3496 125.087 94.6233C125.088 94.7334 125.119 94.8482 125.132 94.9609C125.076 94.9678 125.02 94.9787 124.964 94.9856C124.394 95.0675 124.333 95.1729 124.502 95.7242C124.606 96.067 124.697 96.4113 124.796 96.7546C125.166 98.0819 125.265 99.4589 125.5 100.811C125.93 103.259 126.167 105.738 126.505 108.201C127.107 112.589 127.732 116.973 128.056 121.395C128.158 122.763 128.414 124.121 128.448 125.502C128.472 126.438 128.623 127.372 128.685 128.312C128.798 130.039 128.936 131.766 129.085 133.488C129.218 134.743 129.259 135.984 129.414 137.219Z" fill="#CF9356"/>
<path d="M46.7489 142.08C46.5029 140.836 46.4586 139.571 46.4349 138.307C46.3207 132.659 46.8271 127.041 47.3335 121.423C47.9627 114.471 48.9565 107.559 49.9508 100.652C50.3072 98.1861 50.6143 95.7178 50.8751 93.2388C50.9076 92.9366 50.9079 92.671 51.3373 92.7084C51.5395 92.7246 51.6878 92.5676 51.7065 92.3529C51.7267 92.1175 51.6206 91.9507 51.3909 91.8767C51.2849 91.8447 51.1713 91.8177 51.0627 91.7983C49.5228 91.533 48.0863 90.9773 46.6939 90.2814C43.97 88.9188 41.3446 87.3931 38.9734 85.4728C37.1461 83.9925 35.6193 82.2631 34.6631 80.0881C33.9008 78.3633 33.4042 76.5733 33.4487 74.6641C33.4605 74.2255 33.5225 73.7972 33.6685 73.3871C34.0274 72.3792 34.8234 71.906 35.8848 72.0664C36.301 72.1299 36.6839 72.2874 37.0475 72.4881C37.3453 72.6519 37.6401 72.8242 37.9066 73.0327C39.2125 74.0578 40.5326 75.0649 41.8703 76.0494C42.2654 76.3402 42.6256 76.6802 42.9338 77.0633C43.1745 77.3607 43.3692 77.6842 43.4482 78.0626C43.5966 78.7757 43.2391 79.2933 42.5175 79.406C41.9805 79.4921 41.4668 79.3669 40.9613 79.2081C40.0768 78.924 39.2566 78.4972 38.4531 78.0398C38.2382 77.919 38.0333 77.7806 37.8158 77.6724C37.511 77.5176 37.2573 77.5813 37.1309 77.8174C37.0181 78.0313 37.0829 78.2604 37.3656 78.4342C38.5582 79.1668 39.7735 79.8516 41.1472 80.1944C41.6443 80.3175 42.1461 80.3788 42.6599 80.3037C42.9648 80.2583 43.2838 80.1948 43.4952 79.9851C43.8487 79.6355 44.1795 79.7013 44.5658 79.887C45.039 80.1151 45.5329 80.3121 46.0161 80.5227C48.0156 81.4059 49.7343 82.6666 51.2021 84.2807C51.353 84.4461 51.5125 84.6145 51.6887 84.7523C51.8699 84.8976 52.0781 84.8967 52.2531 84.7242C52.4206 84.5566 52.4453 84.3575 52.307 84.162C52.2223 84.0375 52.1074 83.9331 52.0081 83.8227C50.0717 81.6163 47.661 80.1093 44.9397 79.0692C44.8156 79.023 44.6946 78.9684 44.5705 78.9223C44.4333 78.8696 44.3455 78.7863 44.3671 78.6285C44.4752 77.7083 44.0441 76.9889 43.4846 76.3219C43.427 76.2513 43.3497 76.1872 43.349 76.0811C44.8591 74.7322 44.8876 74.6307 44.4831 71.9226C44.6659 71.8471 44.8482 71.9351 45.0298 71.9497C45.6775 72.0013 46.3179 71.9598 46.9196 71.7024C47.9102 71.2832 48.3342 70.3734 48.0488 69.3421C47.9108 68.8482 47.718 68.3734 47.4486 67.9406C46.1221 65.7782 45.0657 63.4847 44.1598 61.1197C43.7707 60.1092 43.2935 59.1461 42.4157 58.4486C42.2165 58.2891 42.2899 58.1208 42.3497 57.9419C42.6053 57.1917 42.8559 56.4339 43.2456 55.7449C44.3009 53.8837 45.526 52.1408 46.9759 50.5664C47.1272 50.4008 47.2966 50.2494 47.4655 50.0939C48.7539 48.9029 50.2625 48.5102 51.9691 48.8695C52.4849 48.9781 52.9955 49.1118 53.4985 49.2832C55.3965 49.9377 57.1973 50.8003 58.9859 51.697C59.3169 51.8649 59.4422 52.0538 59.3958 52.4435C59.2559 53.5718 59.2795 54.7006 59.4418 55.8287C59.4641 55.9771 59.5024 56.1236 59.4375 56.2949C58.9721 56.3641 58.5086 56.2818 58.0465 56.2116C56.8102 56.0236 55.6151 55.6713 54.4321 55.2848C53.8748 55.1037 53.3215 54.9221 52.7465 54.7963C51.995 54.6307 51.3647 54.8221 50.8501 55.3916C49.8749 56.4708 48.9227 57.5717 48.1553 58.8135C46.6749 61.2086 46.8137 63.6142 48.2381 65.9771C49.0222 67.2785 50.1573 68.2428 51.4327 69.0511C53.1599 70.1473 55.0523 70.823 57.0465 71.2289C57.2978 71.2798 57.4801 71.2004 57.6601 71.0354C59.2838 69.546 60.3213 67.7728 60.405 65.5157C60.4448 64.4037 60.5052 63.2933 60.5817 62.1809C60.6127 61.6992 60.6839 61.2125 60.8869 60.7669C61.082 60.7921 61.1122 60.9395 61.1748 61.0504C61.9786 62.48 63.0053 63.7272 64.2362 64.8065C64.483 65.0214 64.6087 65.2471 64.6359 65.5706C64.6992 66.3227 64.831 67.0665 64.8053 67.8254C64.7939 68.1005 64.741 68.3358 64.6191 68.5754C63.4985 70.7386 62.9188 73.0482 62.8729 75.4805C62.8652 75.8859 62.763 76.119 62.3762 76.297C61.7461 76.5905 61.2705 77.0776 60.9418 77.6978C60.3219 78.8766 60.6453 80.1853 61.7432 80.9458C62.3456 81.3624 63.0301 81.581 63.7415 81.6861C64.2825 81.7671 64.8292 81.7942 65.3743 81.842C65.4773 81.8498 65.5809 81.8617 65.6931 81.8766C65.6346 82.1002 65.4655 82.1209 65.3481 82.1965C65.0453 82.3929 64.761 82.6074 64.5249 82.8813C63.9168 83.5889 63.7913 84.4335 64.2578 85.2426C64.4801 85.624 64.4973 85.965 64.391 86.3661C64.1465 87.307 63.7076 88.1614 63.2691 89.0198C63.124 89.303 62.9618 89.5802 62.8041 89.861C62.7303 89.9925 62.6363 90.1266 62.6636 90.2826C62.8663 91.3731 62.6888 92.4611 62.642 93.5494C62.3879 99.259 62.0352 104.964 61.5874 110.661C61.2516 114.967 60.858 119.268 60.2577 123.549C60.2316 123.736 60.1974 123.924 60.1958 124.112C60.1916 124.378 60.3525 124.559 60.5848 124.588C60.8131 124.617 61.062 124.48 61.0536 124.212C61.0348 123.556 61.4878 123.252 61.9068 122.902C63.6597 121.434 65.3288 119.882 67.001 118.321C67.4191 117.931 67.4226 117.926 67.9021 118.24C68.1064 118.374 68.335 118.473 68.5005 118.657C68.5093 118.729 68.5147 118.806 68.5356 118.877C68.8484 119.999 69.2699 121.075 69.7665 122.13C70.076 122.79 70.3855 123.451 70.614 124.15C70.804 124.736 70.8145 125.29 70.3977 125.791C70.3013 125.904 70.2145 126.029 70.218 126.192C69.122 126.016 68.0342 125.773 66.9316 125.642C63.7236 125.266 60.5329 125.366 57.3594 125.974C57.064 126.031 56.7706 126.104 56.4771 126.176C56.0841 126.269 55.9065 126.454 55.8946 126.758C55.8821 127.091 56.1086 127.206 56.3735 127.3C57.0106 127.533 57.6259 127.821 58.2286 128.14C58.2939 128.173 58.3703 128.196 58.4017 128.319C58.185 128.451 57.9255 128.467 57.6793 128.525C56.9807 128.693 56.2862 128.859 55.5876 129.026C55.3213 129.087 55.1529 129.247 55.0998 129.515C55.0407 129.8 55.1549 129.966 55.5438 130.139C56.4726 130.552 57.4121 130.952 58.3379 131.374C59.8786 132.081 61.4269 132.782 62.9185 133.588C62.8607 133.751 62.7507 133.887 62.6302 134.003C61.9039 134.713 61.1922 135.442 60.4424 136.126C58.7637 137.667 57.0946 139.219 55.3262 140.66C53.9479 141.785 52.4301 142.636 50.7352 143.142C49.604 143.48 48.4981 143.423 47.5448 142.575C47.313 142.383 47.0939 142.128 46.7489 142.08Z" fill="#6E4F93"/>
<path d="M79.3272 91.4552C77.1823 90.7859 75.218 89.7554 73.4064 88.4367C73.3617 88.4054 73.3271 88.3565 73.2931 88.3116C73.2835 88.3005 73.2927 88.2749 73.2909 88.1934C73.7471 88.1826 74.2059 88.1592 74.6636 88.1605C75.9869 88.1581 77.304 88.0707 78.6196 87.9712C82.9878 87.6457 87.3296 87.0702 91.6512 86.3623C94.9276 85.8271 98.1891 85.2038 101.437 84.5006C103.853 83.9766 106.262 83.433 108.646 82.7821C109.049 82.6716 109.053 82.6711 109.248 83.0599C109.608 83.7676 109.882 84.5102 110.177 85.2464C110.388 85.7721 110.615 86.2918 110.918 86.7695C111.162 87.1564 111.449 87.5012 111.832 87.7608C112.603 88.2835 113.492 88.1054 113.992 87.3171C114.318 86.8075 114.407 86.2328 114.441 85.6404C114.483 84.8468 114.406 84.0554 114.347 83.2661C114.317 82.8531 114.254 82.4399 114.208 82.0289C114.147 81.4971 114.146 81.489 114.675 81.3386C115.275 81.1672 115.864 80.9727 116.444 80.7384C117.9 80.1478 119.216 79.3497 120.142 78.0395C121 76.8317 121.321 75.5178 120.798 74.0783C120.453 73.1278 119.768 72.468 118.904 71.9853C117.76 71.3448 116.495 71.1236 115.215 70.9857C113.224 70.7675 111.226 70.7665 109.222 70.7867C106.807 70.8082 104.393 70.9152 101.985 71.0338C100.609 71.104 99.2342 71.1902 97.8632 71.3046C92.2165 71.7659 86.5998 72.4727 80.9983 73.3043C78.7033 73.6461 76.4003 73.9561 74.1067 74.3099C71.4207 74.728 68.7238 75.0576 66.0288 75.4033C65.4296 75.4806 64.8303 75.5579 64.2425 75.6951C63.8172 75.792 63.7755 75.7522 63.7928 75.3252C63.8334 74.2866 63.9569 73.2584 64.2092 72.2471C64.6211 70.6035 65.2622 69.0626 66.2182 67.6589C66.2803 67.5655 66.3464 67.4717 66.4131 67.3818C66.9199 66.7153 66.928 66.7143 67.6986 67.0695C73.7548 69.8591 80.8433 68.2248 85.0619 63.0643C85.719 62.2568 86.2782 61.3837 86.7491 60.456C86.8411 60.2731 86.893 60.0625 87.0729 59.9302C87.2926 59.9892 87.3906 60.1896 87.527 60.3364C90.4513 63.4393 94.0503 65.0421 98.3101 65.0322C106.091 65.0209 112.486 58.7488 112.7 50.9728C112.711 50.5956 112.706 50.2163 112.689 49.8426C112.676 49.6031 112.764 49.4902 113 49.4778C113.129 49.4701 113.261 49.4458 113.394 49.4296C115.643 49.1425 117.887 48.856 120.136 48.5689C120.341 48.5438 120.549 48.5349 120.755 48.5178C120.897 48.909 121.268 49.1087 121.517 49.4052C122.615 50.7008 123.76 51.9459 124.967 53.1342C125.905 54.0572 126.821 55.0033 127.778 55.9078C128.433 56.5263 129.09 57.1488 129.756 57.7577C130.147 58.1144 130.543 58.4786 130.382 59.1029C130.366 59.1702 130.397 59.2523 130.405 59.3247C130.491 60.0618 130.783 60.7412 131.038 61.4289C131.456 62.5422 131.736 63.6928 131.979 64.8478C132.184 65.8236 132.18 66.825 132.151 67.8254C132.093 69.8588 131.705 71.8304 131.061 73.7515C130.369 75.8093 129.161 77.587 127.908 79.3374C127.622 79.736 127.249 80.0634 126.949 80.4474C126.32 81.2514 125.608 81.9798 124.854 82.6603C122.462 84.8195 119.802 86.5907 116.897 87.9875C115.249 88.7812 113.556 89.4621 111.802 89.9869C110.489 90.3802 109.177 90.7774 107.833 91.0725C107.391 91.1714 106.941 91.2305 106.511 91.3525C105.713 91.5767 104.893 91.7258 104.081 91.8332C102.027 92.1087 99.9765 92.4084 97.9009 92.5068C97.2268 92.5402 96.5477 92.566 95.8731 92.5953C94.768 92.6446 93.6596 92.5676 92.5505 92.5846C91.2698 92.6022 89.9935 92.5212 88.7218 92.4111C85.683 92.1492 82.6524 91.821 79.6332 91.3852C79.5125 91.3672 79.407 91.3393 79.3272 91.4552Z" fill="#6E4F93"/>
<path d="M85.2092 154.458C87.3574 154.988 89.5102 155.522 91.6585 156.052C91.7852 156.086 91.9128 156.127 92.042 156.148C92.3372 156.19 92.5578 156.056 92.6053 155.81C92.6543 155.542 92.5149 155.371 92.2803 155.29C91.9984 155.189 91.7079 155.119 91.4194 155.031C91.4036 154.735 91.1764 154.681 90.9527 154.623C90.6235 154.536 90.2892 154.475 89.9691 154.363C88.138 153.721 86.3165 153.057 84.5184 152.316C83.4171 151.863 82.3644 151.305 81.4738 150.503C80.6339 149.747 79.8011 148.983 78.9042 148.296C78.7957 148.211 78.6249 148.151 78.6809 147.907C79.0271 147.864 79.367 148.072 79.7168 147.993L79.7299 147.999C79.7816 148.021 79.8374 148.043 79.8891 148.065C79.9434 148.075 80.0048 148.076 80.0525 148.099C82.0516 148.912 84.1423 149.372 86.2567 149.759C88.5969 150.188 90.8792 150.812 93.0261 151.865C93.109 151.908 93.1954 151.946 93.2883 151.972C93.5251 152.037 93.6964 151.934 93.798 151.73C93.8931 151.538 93.8494 151.348 93.6792 151.225C93.496 151.097 93.2885 151.004 93.0911 150.893C93.0682 150.638 92.9117 150.494 92.6876 150.399C92.4113 150.277 92.135 150.156 91.8688 150.017C89.9592 149.033 88.008 148.144 85.983 147.419C84.864 147.02 83.7384 146.635 82.6294 146.219C81.0537 145.627 79.4277 145.225 77.7879 144.878C75.4479 144.384 73.0961 143.961 70.7989 143.281C69.8284 142.995 68.8458 142.711 67.8306 142.594C67.8114 142.102 68.104 141.789 68.4593 141.52C69.106 141.029 69.8621 140.797 70.6497 140.656C72.6042 140.303 74.56 140.428 76.5113 140.684C80.4266 141.198 84.1732 142.337 87.8496 143.739C90.3353 144.689 92.7602 145.778 95.1633 146.922C95.3326 147.003 95.5437 147.059 95.6504 147.197C95.9291 147.539 96.2607 147.511 96.6225 147.43C98.8969 146.919 101.079 146.158 103.19 145.173C105.281 144.199 107.025 142.793 108.454 140.984C109.321 139.885 110.094 138.724 110.863 137.56C111.941 135.921 113.006 134.271 114.259 132.757C114.935 131.939 115.654 131.169 116.522 130.548C117.191 130.07 117.911 129.713 118.749 129.647C119.133 129.617 119.502 129.661 119.859 129.806C120.646 130.126 121.038 130.826 120.903 131.664C120.784 132.397 120.387 132.993 119.929 133.552C119.392 134.21 118.778 134.799 118.159 135.382C116.726 136.729 115.557 138.261 114.84 140.114C114.594 140.748 114.396 141.397 114.257 142.064C114.233 142.173 114.206 142.287 114.208 142.397C114.213 142.613 114.34 142.748 114.542 142.797C114.749 142.845 114.91 142.764 115.019 142.584C115.128 142.407 115.087 142.175 115.227 142.015C115.317 142.012 115.372 142.067 115.42 142.126C116.525 143.409 117.443 144.804 118.023 146.404C118.281 147.116 118.413 147.86 118.509 148.608C118.532 148.797 118.546 148.983 118.589 149.166C118.664 149.475 118.844 149.617 119.098 149.586C119.355 149.554 119.501 149.377 119.461 149.051C119.392 148.451 119.315 147.852 119.19 147.262C119.117 146.932 119.212 146.745 119.461 146.543C124.02 142.762 128.574 138.97 133.277 135.368C135.119 133.959 136.979 132.567 138.87 131.225C139.975 130.44 141.089 129.662 142.244 128.945C142.353 128.875 142.472 128.807 142.567 128.718C142.751 128.548 142.783 128.279 142.64 128.109C142.491 127.931 142.288 127.87 142.082 127.989C141.739 128.19 141.415 128.413 141.076 128.622C140.906 128.729 140.751 128.87 140.564 128.906C140.44 128.827 140.44 128.729 140.429 128.636C140.201 126.339 139.698 124.097 139.199 121.85C139.188 121.794 139.193 121.736 139.19 121.679C140.563 121.413 141.967 121.47 143.349 121.277C144.506 121.115 145.673 121.005 146.83 120.843C147.581 120.739 148.333 120.807 149.083 120.826C149.439 120.835 149.66 121.004 149.804 121.346C150.382 122.701 150.764 124.117 151.018 125.565C151.165 126.397 151.227 127.239 151.25 128.094C151.273 129.055 151.304 130.012 151.213 130.966C151.109 132.058 150.876 133.128 150.273 134.076C149.58 135.161 148.746 136.125 147.789 136.986C146.044 138.551 144.167 139.937 142.231 141.248C139.092 143.372 135.923 145.458 132.708 147.461C131.189 148.406 129.672 149.36 128.148 150.298C126.206 151.491 124.25 152.666 122.252 153.764C120.839 154.541 119.339 155.104 117.764 155.419C116.592 155.656 115.474 156.005 114.38 156.482C112.833 157.157 111.456 158.126 110.041 159.018C108.539 159.966 106.988 160.813 105.358 161.515C103.798 162.188 102.182 162.671 100.493 162.918C99.694 163.036 98.8921 163.093 98.0956 163.195C97.9265 163.216 97.758 163.24 97.5895 163.232C96.7838 163.192 95.9729 163.242 95.1704 163.128C95.0332 163.108 94.9054 163.131 94.8185 163.256C92.5184 162.888 90.1845 161.273 89.8515 159.819C89.9675 159.698 90.1001 159.78 90.2177 159.807C91.386 160.04 92.5713 160.112 93.7576 160.191C93.8522 160.196 93.9472 160.205 94.0403 160.198C94.2958 160.183 94.4817 160.066 94.5016 159.794C94.522 159.526 94.371 159.361 94.1096 159.327C93.7938 159.284 93.4735 159.27 93.1547 159.235C92.8565 159.202 92.5491 159.228 92.2591 159.128C92.2254 158.953 92.0802 158.901 91.9385 158.845C91.3492 158.602 90.7589 158.352 90.1696 158.109C89.4727 157.822 88.7865 157.522 88.1655 157.088C87.1956 156.405 86.3463 155.574 85.4189 154.837C85.312 154.732 85.2248 154.62 85.2092 154.458Z" fill="#6E4F93"/>
<path d="M84.9111 44.5842C83.5578 43.0378 81.9779 41.7766 80.1234 40.8756C78.2689 39.9747 76.301 39.5166 74.2139 39.4203C74.2836 39.1218 74.5042 39.0213 74.6635 38.8874C76.6865 37.2226 78.9074 35.8727 81.2669 34.755C83.835 33.5383 86.5128 32.6514 89.2834 32.0228C91.8673 31.4374 94.4833 31.0809 97.1282 30.9947C102.984 30.8061 108.621 31.8331 114.008 34.1611C114.737 34.4765 115.452 34.818 116.104 35.2734C116.283 35.3987 116.468 35.4741 116.683 35.3621C116.825 35.2875 116.971 35.3065 117.124 35.3245C120.806 35.7692 124.421 36.5 127.904 37.8228C131.588 39.2232 134.979 41.1293 137.959 43.7188C139.738 45.2663 141.29 47.0049 142.34 49.1439C142.982 50.4504 143.354 51.8225 143.248 53.298C143.083 55.5896 141.478 57.3667 139.212 57.7825C137.646 58.0679 136.134 57.8319 134.643 57.3318C132.692 56.6756 130.932 55.6487 129.264 54.4717C127.052 52.9119 125.011 51.1554 123.225 49.1104C121.871 47.56 120.814 45.8304 120.127 43.884C120.089 43.7782 120.055 43.668 120.006 43.5678C119.866 43.2907 119.646 43.191 119.413 43.289C119.184 43.3864 119.087 43.6024 119.186 43.909C119.287 44.2317 119.423 44.5459 119.536 44.8631C119.664 45.211 119.878 45.528 119.943 45.8918C119.799 46.0197 119.643 46.0062 119.498 46.0239C117.314 46.3398 115.126 46.6522 112.942 46.968C112.865 46.9774 112.793 46.9903 112.717 46.9996C112.298 47.0468 112.294 47.0472 112.171 46.6415C111.764 45.2572 111.222 43.9304 110.414 42.7341C107.41 38.2764 103.205 35.9265 97.8436 36.0792C92.2012 36.2418 88.0058 38.985 85.2956 43.953C85.1854 44.1544 85.1315 44.3816 84.9111 44.5842Z" fill="#6E4F93"/>
<path d="M118.447 128.757C117.426 128.89 116.552 129.36 115.749 129.981C114.395 131.037 113.331 132.356 112.336 133.74C110.873 135.778 109.589 137.941 108.095 139.958C106.521 142.086 104.515 143.659 102.071 144.681C100.415 145.374 98.7198 145.944 96.9882 146.417C96.6444 146.513 96.3387 146.485 96.0082 146.321C94.9433 145.797 93.8607 145.296 92.7792 144.803C92.5285 144.691 92.3383 144.539 92.1764 144.317C91.0084 142.716 89.8293 141.123 88.6582 139.53C88.3445 139.103 88.3502 139.049 88.7169 138.673C92.4389 134.865 96.3113 131.217 100.41 127.82C102.896 125.759 105.473 123.818 108.193 122.072C110.996 120.271 113.939 118.743 117.039 117.531C117.109 117.502 117.179 117.477 117.25 117.452C117.626 117.321 117.638 117.319 117.801 117.683C118.153 118.457 118.497 119.232 118.852 120.002C121.113 124.861 123.381 129.715 125.637 134.574C126.192 135.773 126.732 136.977 127.275 138.182C127.521 138.723 127.523 138.735 127.087 139.083C124.468 141.188 121.897 143.345 119.317 145.499C119.257 145.547 119.202 145.594 119.138 145.639C118.837 145.851 118.813 145.854 118.655 145.502C118.039 144.135 117.247 142.875 116.282 141.731C116.134 141.557 116.001 141.369 115.829 141.227C115.542 140.988 115.556 140.737 115.681 140.424C116.264 138.943 117.15 137.666 118.262 136.538C119.134 135.651 120.09 134.844 120.842 133.841C121.277 133.26 121.621 132.634 121.767 131.918C122.079 130.364 121.114 129.019 119.519 128.769C119.164 128.706 118.803 128.693 118.447 128.757Z" fill="#3F713F"/>
<path d="M62.0887 55.6295C61.3512 49.6285 65.013 44.1234 70.5797 42.5729C75.5933 41.1759 80.8736 43.1656 83.6905 47.495C83.8768 47.7827 83.9379 48.0489 83.8857 48.3903C83.466 51.2074 83.8463 53.9185 85.0131 56.513C85.1651 56.8539 85.1844 57.1457 85.0622 57.4834C83.5701 61.7878 80.6287 64.529 76.1706 65.4905C70.009 66.8195 63.9705 63.0391 62.3637 56.9441C62.2273 56.4297 62.1468 55.9043 62.0887 55.6295Z" fill="#A2EAF0"/>
<path d="M94.8334 163.251C94.9202 163.126 95.044 163.102 95.1853 163.122C95.9877 163.236 96.7987 163.186 97.6044 163.227C97.7728 163.235 97.9414 163.21 98.1105 163.189C98.907 163.088 99.7089 163.031 100.507 162.913C102.197 162.665 103.814 162.186 105.373 161.509C107.003 160.808 108.554 159.96 110.056 159.013C111.471 158.121 112.848 157.152 114.395 156.477C115.485 156 116.606 155.647 117.779 155.414C119.354 155.099 120.854 154.535 122.266 153.758C124.265 152.66 126.217 151.486 128.163 150.292C129.686 149.354 131.205 148.405 132.723 147.455C135.942 145.448 139.107 143.366 142.246 141.242C144.182 139.931 146.059 138.542 147.804 136.98C148.765 136.119 149.599 135.155 150.288 134.07C150.891 133.122 151.124 132.052 151.227 130.961C151.32 130.01 151.288 129.05 151.265 128.088C151.242 127.237 151.18 126.391 151.033 125.559C150.779 124.116 150.398 122.7 149.819 121.341C149.676 121.003 149.454 120.829 149.098 120.82C148.348 120.801 147.596 120.734 146.845 120.838C145.688 121 144.521 121.11 143.364 121.271C141.982 121.465 140.578 121.408 139.205 121.673C139.057 121.099 139.057 121.095 139.555 120.863C142.592 119.466 145.694 118.237 148.907 117.318C149.85 117.047 150.801 116.808 151.775 116.685C152.057 116.651 152.193 116.696 152.308 117C153.161 119.306 153.782 121.673 154.303 124.069C154.745 126.078 155.122 128.095 155.372 130.14C155.629 132.208 155.123 134.055 153.938 135.757C152.595 137.673 150.938 139.289 149.198 140.83C147.019 142.759 144.7 144.509 142.318 146.173C138.245 149.015 134.049 151.656 129.639 153.944C126.28 155.682 122.788 157.093 119.18 158.225C118.858 158.325 118.536 158.434 118.21 158.539C118.045 158.592 117.955 158.562 117.867 158.377C117.661 157.924 117.451 157.88 117.046 158.208C116.105 158.964 115.183 159.743 114.241 160.499C112.899 161.582 111.444 162.479 109.895 163.24C107.279 164.532 104.534 164.974 101.646 164.571C99.4595 164.266 97.2949 163.836 95.1378 163.369C95.0368 163.344 94.9176 163.339 94.8334 163.251Z" fill="#5A3A83"/>
<path d="M112.815 76.9042C113.717 76.6999 114.544 76.5131 115.366 76.3227C115.827 76.2174 116.284 76.1125 116.739 75.9875C117.165 75.8659 117.342 75.6441 117.262 75.3843C117.179 75.1085 116.936 75.0278 116.507 75.1293C115.276 75.4186 114.051 75.7195 112.811 75.9732C112.409 76.055 112.105 76.0104 111.787 75.7183C111.016 75.0201 110.092 74.7857 109.057 74.904C108.376 74.9832 107.717 75.1413 107.064 75.315C105.921 75.6222 104.76 75.6784 103.585 75.6585C102.811 75.6428 102.03 75.6729 101.288 75.9188C100.133 76.2969 99.2228 77.0046 98.6128 78.0637C98.4743 78.3012 98.3211 78.418 98.0464 78.4434C95.4337 78.6932 92.827 78.9586 90.2148 79.2125C88.8821 79.3386 87.5483 79.4893 86.2121 79.5873C83.7103 79.7745 81.2118 80.0227 78.7104 80.2139C75.7764 80.4418 72.8404 80.6535 69.9045 80.8325C68.2132 80.933 66.5159 81.0505 64.8162 80.9151C64.2715 80.8713 63.7275 80.7989 63.1988 80.6511C62.9239 80.5744 62.6616 80.4675 62.4191 80.3215C61.4846 79.7616 61.2807 78.7284 61.9244 77.845C62.4005 77.1944 63.0824 76.8905 63.8283 76.7095C64.4152 76.5642 65.011 76.4587 65.6098 76.3774C67.5752 76.1127 69.5459 75.8923 71.5058 75.616C74.9797 75.1261 78.4557 74.6196 81.9252 74.0935C86.1606 73.4493 90.4162 72.9374 94.6767 72.4984C97.6018 72.1982 100.544 72.0021 103.482 71.8718C106.362 71.7445 109.249 71.6327 112.135 71.709C113.868 71.7546 115.605 71.8242 117.294 72.3042C117.751 72.4322 118.186 72.616 118.594 72.852C119.909 73.6106 120.438 75.0043 119.965 76.443C119.631 77.4561 118.958 78.2002 118.118 78.8135C116.975 79.6559 115.654 80.1114 114.315 80.5242C114.095 80.592 113.955 80.5519 113.915 80.2953C113.728 79.1334 113.404 78.0169 112.815 76.9042Z" fill="#5A3A83"/>
<path d="M65.3193 86.4501C65.7929 86.715 66.2252 86.9767 66.698 87.1682C67.9872 87.6888 69.3426 87.9153 70.7154 88.0499C70.8642 88.0644 71.0156 88.099 71.1655 88.0889C71.4975 88.0646 71.7244 88.2166 71.9628 88.4285C73.061 89.426 74.3113 90.1964 75.6207 90.8821C77.4183 91.8186 79.3056 92.5194 81.2617 93.0484C81.4899 93.1103 81.7146 93.1769 81.9307 93.2403C81.9353 93.3787 81.8523 93.4011 81.7913 93.4371C79.2932 94.825 77.284 96.77 75.5029 98.9772C73.8848 100.981 72.5288 103.156 71.2571 105.387C70.3054 107.06 69.3668 108.739 68.402 110.405C67.6262 111.746 66.7305 113.008 65.7724 114.228C65.4014 114.702 65.0309 115.181 64.7141 115.697C64.4858 116.068 64.2961 116.455 64.1803 116.878C63.972 117.614 64.0757 118.296 64.5353 118.914C64.6475 119.063 64.782 119.194 64.5651 119.392C63.5461 120.313 62.5325 121.246 61.4628 122.12C61.3265 121.941 61.421 121.778 61.4385 121.621C62.0634 116.605 62.4485 111.566 62.8049 106.526C63.1116 102.183 63.3605 97.8342 63.5596 93.4795C63.6036 92.5018 63.643 91.5206 63.6744 90.5404C63.6815 90.3311 63.7062 90.132 63.8098 89.9437C64.4184 88.8398 64.9839 87.7167 65.3193 86.4501Z" fill="#FFEE00"/>
<path d="M84.6404 86.4514C82.8193 86.7271 80.7476 86.8904 78.6799 87.0532C76.0296 87.2627 73.374 87.3952 70.7155 87.1359C69.4709 87.0143 68.2513 86.7956 67.0766 86.3427C66.5274 86.128 66.0187 85.8429 65.5716 85.4604C65.3568 85.2742 65.1683 85.0685 65.0422 84.8061C64.8027 84.3165 64.8603 83.8519 65.2316 83.447C65.4621 83.1942 65.7458 83.0083 66.0536 82.8522C66.6655 82.5446 67.3114 82.3472 67.9827 82.2243C68.6505 82.1059 69.3138 81.984 69.9617 81.77C70.2955 81.6598 70.6682 81.6674 71.0248 81.6442C71.9651 81.5824 72.9083 81.5448 73.8475 81.4749C75.9364 81.3177 78.0227 81.1404 80.108 80.9877C83.3066 80.752 86.4998 80.4721 89.695 80.1756C91.1777 80.0394 92.6609 79.8744 94.1426 79.7301C95.9271 79.557 97.7082 79.3884 99.4932 79.2193C99.5496 79.2124 99.6169 79.2287 99.6587 79.2031C100.399 78.8063 101.21 78.9564 101.99 78.9264C103.105 78.8842 104.213 78.9938 105.29 79.3157C106.549 79.6929 107.537 80.4506 108.306 81.4964C108.546 81.8225 108.525 81.8863 108.141 81.9863C106.482 82.4178 104.816 82.8297 103.136 83.1862C101.181 83.6049 99.2275 84.0315 97.2703 84.43C96.0146 84.6856 94.753 84.9256 93.4874 85.1334C90.6272 85.5973 87.7624 86.0904 84.6404 86.4514Z" fill="#5A3A83"/>
<path d="M129.412 137.221C129.257 135.986 129.216 134.745 129.11 133.508C128.961 131.786 128.823 130.058 128.71 128.332C128.648 127.392 128.493 126.459 128.473 125.522C128.439 124.141 128.18 122.788 128.081 121.415C127.758 116.993 127.131 112.604 126.53 108.221C126.193 105.758 125.955 103.278 125.525 100.831C125.286 99.4791 125.192 98.1017 124.821 96.7743C124.726 96.4305 124.635 96.0862 124.528 95.7439C124.358 95.1887 124.419 95.0872 124.989 95.0053C125.045 94.9984 125.101 94.9875 125.157 94.9806C126.624 100.464 128.54 105.81 130.203 111.232C130.99 113.792 131.769 116.352 132.294 118.98C132.453 119.777 132.543 120.583 132.589 121.391C132.602 121.598 132.615 121.804 132.632 122.011C132.754 123.548 133.59 124.5 135.038 124.956C136.003 125.259 136.993 125.375 137.995 125.347C139.012 125.316 139.003 125.309 139.213 126.293C139.38 127.089 139.471 127.895 139.556 128.698C139.571 128.847 139.553 129.001 139.567 129.15C139.605 129.533 139.426 129.768 139.113 129.982C136.988 131.451 134.918 132.999 132.867 134.569C131.703 135.442 130.558 136.334 129.412 137.221Z" fill="#A76A2B"/>
<path d="M87.9006 142.729C87.6949 142.75 87.4965 142.632 87.295 142.554C84.4757 141.514 81.6151 140.638 78.6556 140.088C77.3932 139.854 76.1262 139.682 74.8444 139.59C74.6095 139.574 74.411 139.52 74.2288 139.367C72.2291 137.679 69.9814 136.368 67.7134 135.093C64.3748 133.213 60.9309 131.543 57.435 129.98C57.2707 129.906 57.0742 129.869 56.9443 129.709C57.0836 129.545 57.2783 129.534 57.4529 129.492C60.3163 128.819 63.198 128.765 66.1041 129.178C69.1178 129.603 71.9767 130.532 74.727 131.809C78.0665 133.362 81.1065 135.373 83.945 137.706C85.0942 138.652 86.017 139.785 86.8446 141.008C87.1832 141.505 87.537 141.993 87.8837 142.49C87.9233 142.547 87.9759 142.61 87.9006 142.729Z" fill="#3F713F"/>
<path d="M48.0403 62.6974C47.9114 61.6755 48.179 60.5561 48.7875 59.5176C49.549 58.2275 50.5359 57.1101 51.5274 55.9962C51.8185 55.6706 52.1799 55.5856 52.6051 55.6889C53.1354 55.8161 53.6555 55.9935 54.1741 56.1589C55.6109 56.6166 57.0558 57.0405 58.5693 57.1906C58.6644 57.1994 58.7554 57.2087 58.8504 57.2175C59.128 57.2489 59.4699 57.105 59.659 57.2821C59.8251 57.4375 59.8282 57.7639 59.904 58.0161C59.9189 58.0715 59.9338 58.1268 59.9523 58.1777C60.1085 58.6202 60.3457 59.057 60.3973 59.5123C60.4479 59.9596 60.051 60.3227 59.9326 60.7579C59.6811 61.6752 59.6328 62.6166 59.5925 63.5571C59.559 64.3864 59.5336 65.2147 59.4503 66.0379C59.2879 67.6837 58.4956 68.9898 57.3336 70.1122C57.1803 70.2617 57.0343 70.304 56.8287 70.2597C54.1585 69.6709 51.7436 68.5974 49.8233 66.5893C48.7966 65.5096 48.2007 64.2098 48.0403 62.6974Z" fill="#FFEE00"/>
<path d="M79.3262 91.4535C79.406 91.3375 79.5116 91.3655 79.6277 91.3799C82.6469 91.8157 85.6815 92.1435 88.7163 92.4058C89.988 92.516 91.2644 92.5969 92.545 92.5793C93.6501 92.5628 94.7625 92.6393 95.8677 92.59C96.5422 92.5607 97.2208 92.5308 97.8954 92.5015C99.971 92.4031 102.022 92.1035 104.076 91.8279C104.888 91.7165 105.707 91.5714 106.505 91.3472C106.94 91.2247 107.386 91.1661 107.827 91.0672C109.167 90.7686 110.48 90.3754 111.796 89.9816C113.55 89.4568 115.244 88.7759 116.891 87.9822C119.797 86.5854 122.456 84.8102 124.848 82.655C125.602 81.9745 126.315 81.2502 126.943 80.4421C127.243 80.0581 127.616 79.7307 127.902 79.3321C129.156 77.5857 130.364 75.808 131.056 73.7462C131.7 71.8291 132.084 69.854 132.145 67.8201C132.174 66.8197 132.179 65.8183 131.974 64.8425C131.73 63.6875 131.455 62.5364 131.033 61.4236C130.774 60.7404 130.482 60.0611 130.4 59.3194C130.391 59.243 130.361 59.1649 130.377 59.0976C130.538 58.4773 130.142 58.1091 129.751 57.7524C129.084 57.1435 128.428 56.525 127.772 55.9025C126.816 54.998 125.9 54.0519 124.962 53.1289C123.75 51.941 122.605 50.692 121.511 49.3999C121.259 49.1039 120.891 48.9037 120.749 48.5125C120.861 48.4867 120.973 48.4689 121.079 48.4355C121.375 48.3503 121.568 48.4615 121.749 48.7049C122.537 49.7689 123.435 50.7335 124.4 51.6411C126.561 53.681 128.895 55.4957 131.512 56.9203C131.823 57.0906 131.962 57.2942 132.049 57.639C132.368 58.8787 132.755 60.102 133.098 61.3388C133.589 63.1212 133.998 64.926 134.15 66.7744C134.4 69.8568 133.793 72.7785 132.487 75.5649C130.591 79.6041 127.766 82.8622 124.147 85.4451C120.829 87.8115 117.173 89.4879 113.305 90.7247C110.552 91.6044 107.74 92.2218 104.889 92.7008C102.167 93.1601 99.423 93.4015 96.6719 93.5212C92.7668 93.692 88.868 93.5802 85.0003 92.9212C83.2523 92.6242 81.5226 92.2432 79.8432 91.6722C79.6648 91.6164 79.4697 91.5912 79.3262 91.4535Z" fill="#5A3A83"/>
<path d="M151.219 115.85C151.203 115.419 150.96 115.064 150.799 114.688C149.127 110.831 147.463 106.974 145.589 103.207C144.441 100.897 143.196 98.6343 141.836 96.435C139.911 93.3203 137.538 90.5831 134.949 88.0113C133.633 86.7095 132.276 85.4659 130.785 84.3653C130.08 83.8428 129.307 83.4674 128.424 83.3589C129.165 83.1376 129.917 83.2091 130.661 83.3102C133.883 83.7375 136.54 85.2513 138.756 87.5786C140.279 89.1778 141.43 91.0389 142.49 92.9562C143.938 95.5817 145.257 98.2803 146.724 100.895C149.147 105.212 151.77 109.393 154.889 113.252C155.279 113.736 155.639 114.243 155.897 114.816C156.227 115.544 156.068 116.18 155.54 116.739C155.066 117.238 154.468 117.565 153.856 117.868C153.717 117.938 153.599 117.941 153.538 117.772C153.409 117.425 153.285 117.072 153.148 116.692C153.416 116.611 153.587 116.741 153.765 116.821C153.885 116.872 154.001 116.952 154.127 116.977C154.328 117.018 154.508 116.951 154.593 116.749C154.685 116.533 154.629 116.34 154.444 116.195C154.074 115.909 153.649 115.773 153.193 115.719C152.526 115.641 151.875 115.798 151.219 115.85Z" fill="#A76A2B"/>
<path d="M46.7492 142.081C47.0941 142.129 47.3132 142.384 47.5471 142.592C48.5004 143.44 49.6063 143.497 50.7374 143.158C52.4323 142.653 53.9497 141.797 55.3284 140.677C57.0968 139.235 58.766 137.683 60.4447 136.142C61.194 135.454 61.9062 134.73 62.6324 134.02C62.753 133.903 62.863 133.767 62.9208 133.605C64.4625 134.319 65.9445 135.147 67.426 135.971C67.4702 135.999 67.5012 136.052 67.5343 136.089C67.5202 136.274 67.3651 136.342 67.2532 136.43C64.1252 138.981 60.9826 141.514 57.6652 143.819C56.0687 144.929 54.4266 145.967 52.5958 146.665C51.624 147.037 50.6279 147.31 49.5653 147.24C48.7541 147.188 48.1772 146.813 47.8045 146.103C47.5288 145.585 47.3225 145.034 47.1878 144.466C46.9978 143.681 46.7716 142.899 46.7492 142.081Z" fill="#5A3A83"/>
<path d="M96.5699 37.022C104.464 36.1595 110.856 41.8045 111.711 48.8656C112.62 56.3369 107.328 63.1442 99.8739 64.0592C92.4479 64.9708 85.6175 59.6571 84.6968 52.2568C83.7658 44.7719 89.0809 37.9535 96.5699 37.022ZM110.774 49.0169C109.918 42.0498 103.626 37.132 96.6552 37.988C89.6916 38.839 84.7546 45.1413 85.5961 52.0938C86.444 59.0659 92.781 64.0191 99.7597 63.1581C106.71 62.3005 111.633 55.9795 110.774 49.0169Z" fill="#6E4F93"/>
<path d="M84.1743 46.5814C80.2923 41.2914 73.6899 40.0842 68.6086 42.3638C63.6627 44.5819 60.6675 49.6909 61.1671 55.0838C61.6727 60.5576 65.5618 65.0704 70.871 66.2927C74.0322 67.0217 77.0633 66.6186 79.9119 65.0571C82.7379 63.5107 84.6612 61.1636 85.7837 58.1463C86.0292 58.2838 86.0809 58.5062 86.2178 58.657C86.4295 58.8844 86.4037 59.1082 86.2817 59.3804C85.7503 60.5811 85.0903 61.6994 84.2215 62.6798C80.7532 66.5925 76.4039 68.2434 71.2677 67.2656C66.0852 66.277 62.5518 63.1383 60.8856 58.129C58.5096 50.9882 62.4408 43.3422 69.561 40.9973C74.765 39.2869 80.5338 40.8942 84.1282 45.0346C84.4993 45.4631 84.623 45.8402 84.357 46.3384C84.3085 46.4097 84.3178 46.5189 84.1743 46.5814Z" fill="#6E4F93"/>
<path d="M45.8552 71.0572C45.2599 71.134 44.6894 71.0117 44.1239 70.8643C43.9254 70.8109 43.8035 70.6828 43.7014 70.5156C42.6849 68.8504 41.4366 67.3607 40.1888 65.875C39.7396 65.3416 39.2531 64.8372 38.6732 64.4383C38.3921 64.2439 38.1008 64.067 37.7711 63.9766C37.4877 63.8968 37.4298 63.7242 37.4677 63.4662C37.6786 62.1495 38.0472 60.887 38.8188 59.7796C39.8061 58.3639 41.2583 58.3131 42.3531 59.65C42.8284 60.2292 43.1152 60.905 43.3869 61.5908C44.0933 63.3592 44.7921 65.1327 45.7538 66.7841C46.0952 67.3715 46.4366 67.9589 46.7548 68.5573C46.914 68.8565 47.0504 69.1708 47.1551 69.4929C47.3955 70.2561 47.0882 70.7839 46.303 70.9779C46.1556 71.0082 46.0031 71.0309 45.8552 71.0572Z" fill="#6E4F93"/>
<path d="M75.7394 123.841C75.9354 123.739 75.9394 123.539 75.9782 123.354C76.7454 119.804 77.5715 116.268 78.5368 112.767C79.117 110.662 79.7696 108.58 80.6051 106.558C80.8577 105.951 81.0541 105.318 81.2807 104.698C81.3516 104.51 81.3734 104.287 81.5799 104.171C81.6412 104.572 81.5123 104.956 81.4539 105.347C80.6637 110.648 80.138 115.974 79.9387 121.33C79.8257 124.383 79.8313 127.438 80.1418 130.481C80.1507 130.553 80.1394 130.628 80.1396 130.763C79.7904 130.614 79.5496 130.382 79.278 130.198C79.1932 130.139 79.1707 130.056 79.1745 129.954C79.1958 129.191 78.8973 128.521 78.5521 127.868C77.8345 126.51 76.9361 125.276 75.9479 124.11C75.8682 124.025 75.8076 123.931 75.7394 123.841Z" fill="#A76A2B"/>
<path d="M99.61 78.1495C100.473 77.1208 101.462 76.624 102.669 76.5665C103.253 76.5359 103.837 76.53 104.418 76.5447C105.524 76.5688 106.594 76.3605 107.656 76.0959C107.986 76.0148 108.314 75.9297 108.645 75.8607C110.346 75.5098 111.258 76.1174 112.05 77.4177C112.505 78.1669 112.751 79.003 112.928 79.8515C113.274 81.5169 113.496 83.1974 113.556 84.8936C113.574 85.4429 113.564 85.9917 113.391 86.5153C113.15 87.2515 112.621 87.3692 112.071 86.8114C111.763 86.4977 111.541 86.1244 111.37 85.7246C111.04 84.9642 110.73 84.1973 110.412 83.4314C110.17 82.8563 109.894 82.3017 109.575 81.7687C108.251 79.5243 106.285 78.3143 103.696 78.0914C102.38 77.9826 101.062 78.0333 99.61 78.1495Z" fill="#A2EAF0"/>
<path d="M36.8956 71.3435C36.7782 71.4192 36.6783 71.3374 36.5808 71.3085C36.0466 71.1491 35.5135 71.0998 34.9605 71.1878C34.5358 71.2561 34.5338 71.24 34.3885 70.8533C33.9636 69.7164 33.9779 68.5626 34.2818 67.4061C34.4542 66.7436 34.727 66.1343 35.1455 65.5806C35.9224 64.5501 37.1654 64.4922 38.0997 65.1502C38.3903 65.3557 38.6829 65.5773 38.9231 65.838C40.4587 67.5051 41.8863 69.2589 43.063 71.1986C43.5076 71.9286 43.8244 72.7151 43.8456 73.5909C43.862 74.1935 43.667 74.7035 43.1726 75.0703C42.7643 75.3735 42.461 75.3656 42.0524 75.0642C41.0686 74.3347 40.0671 73.6278 39.1221 72.8486C38.9174 72.6775 38.7519 72.4934 38.6092 72.2617C37.9617 71.2419 37.307 70.2311 36.8741 69.0952C36.7602 68.7986 36.5196 68.7014 36.2935 68.7903C36.0437 68.8862 35.9394 69.1359 36.0638 69.4516C36.2611 69.9626 36.4891 70.4577 36.7483 70.9408C36.8164 71.0632 36.9478 71.1697 36.8956 71.3435Z" fill="#6E4F93"/>
<path d="M119.105 89.4985C118.965 89.724 118.767 89.8421 118.597 89.9855C115.628 92.4032 112.276 94.0916 108.605 95.1407C102.972 96.7483 97.2931 96.8499 91.5854 95.5415C90.48 95.2885 89.4071 94.9334 88.3632 94.4809C88.2768 94.4424 88.1975 94.3949 88.0709 94.3287C88.2467 94.2296 88.3798 94.2828 88.5121 94.2952C91.47 94.5302 94.4269 94.557 97.3914 94.4112C100.49 94.2573 103.561 93.9187 106.609 93.3502C110.759 92.5734 114.793 91.4186 118.641 89.6451C118.761 89.5896 118.882 89.5422 119.006 89.4902C119.022 89.4842 119.043 89.4898 119.105 89.4985Z" fill="#CF9356"/>
<path d="M57.7768 126.856C63.4311 125.822 68.9502 126.255 74.2746 128.505C79.1815 130.581 83.0839 133.932 86.3859 138.153C85.8944 138.176 85.5991 138.033 85.297 137.767C80.5272 133.57 75.1852 130.408 68.9798 128.837C66.1258 128.116 63.2213 127.882 60.2821 128.135C60.088 128.151 59.9159 128.147 59.7463 128.029C59.1359 127.581 58.4441 127.269 57.7768 126.856Z" fill="#A2EAF0"/>
<path d="M87.5771 138.441C87.4897 138.227 87.6273 138.116 87.6936 137.989C88.1162 137.202 88.6689 136.51 89.2487 135.838C92.0461 132.588 95.0804 129.57 98.2681 126.704C101.735 123.584 105.362 120.67 109.231 118.064C109.492 117.889 109.741 117.585 110.05 117.613C110.335 117.639 110.512 117.977 110.754 118.156C111.073 118.391 111.392 118.626 111.67 118.833C111.693 119.022 111.591 119.055 111.518 119.096C106.652 121.697 102.289 125.004 98.1181 128.586C94.6242 131.586 91.2897 134.756 88.0772 138.053C87.9395 138.196 87.8368 138.393 87.5771 138.441Z" fill="#A2EAF0"/>
<path d="M67.834 142.587C68.8492 142.704 69.8272 142.985 70.8022 143.275C73.0995 143.954 75.4553 144.377 77.7913 144.872C79.431 145.219 81.0576 145.625 82.6328 146.212C83.7458 146.628 84.8714 147.013 85.9864 147.412C88.0114 148.137 89.9625 149.026 91.8722 150.01C92.1384 150.149 92.4147 150.271 92.691 150.392C92.9155 150.491 93.0716 150.632 93.0945 150.886C90.6089 149.736 87.971 149.11 85.2914 148.645C83.4051 148.32 81.5904 147.745 79.8199 147.03C78.1006 146.333 76.3128 145.878 74.4934 145.532C73.0672 145.261 71.6298 145.032 70.2469 144.58C69.6001 144.369 68.965 144.12 68.4402 143.67C68.1155 143.386 67.7964 143.082 67.834 142.587Z" fill="#5A3A83"/>
<path d="M70.2215 126.196C70.2139 126.034 70.3052 125.912 70.4011 125.794C70.822 125.293 70.8114 124.739 70.6174 124.154C70.3894 123.459 70.0794 122.794 69.7699 122.133C69.2733 121.079 68.8558 120.002 68.539 118.881C68.5181 118.81 68.5168 118.732 68.5039 118.66C69.8627 119.483 71.0701 120.504 72.2456 121.565C73.8436 123.008 75.2914 124.592 76.5511 126.342C76.8321 126.736 76.8402 126.735 76.4766 127.07C76.2013 127.324 75.9124 127.568 75.6326 127.818C75.4964 127.941 75.361 128.003 75.1746 127.915C73.5842 127.17 71.9066 126.68 70.2215 126.196Z" fill="#5A3A83"/>
<path d="M79.7202 147.991C79.3663 148.071 79.0264 147.863 78.6843 147.905C78.6283 148.149 78.7991 148.21 78.9075 148.294C79.8044 148.981 80.6373 149.746 81.4772 150.501C82.3678 151.303 83.4205 151.861 84.5218 152.315C86.3159 153.055 88.1374 153.719 89.9725 154.361C90.2926 154.473 90.6269 154.534 90.9561 154.621C91.1757 154.68 91.407 154.733 91.4227 155.03C88.9779 154.413 86.4803 153.999 84.1152 153.1C82.1913 152.367 80.5603 151.222 79.2721 149.606C78.8956 149.133 78.557 148.635 78.2869 148.097C78.1893 147.9 78.0515 147.709 78.1259 147.381C78.6671 147.564 79.2155 147.705 79.7202 147.991Z" fill="#5A3A83"/>
<path d="M85.2089 154.459C85.2245 154.62 85.3122 154.736 85.4382 154.831C86.3657 155.568 87.2145 156.395 88.1848 157.082C88.8018 157.517 89.4921 157.817 90.1889 158.103C90.7782 158.346 91.3681 158.592 91.9579 158.839C92.0996 158.895 92.2448 158.947 92.2785 159.122C91.8775 159.184 91.4904 159.092 91.1028 159.029C88.8892 158.666 86.9042 157.835 85.3329 156.176C84.7602 155.568 84.3079 154.875 83.9062 154.062C84.4005 154.129 84.8009 154.296 85.2089 154.459Z" fill="#5A3A83"/>
<path d="M120.817 47.5219C120.661 47.6472 120.466 47.6261 120.285 47.6482C117.916 47.954 115.543 48.2563 113.174 48.5581C113.081 48.5695 112.984 48.5772 112.892 48.5926C112.613 48.6512 112.53 48.5061 112.499 48.2565C112.469 48.007 112.573 47.9247 112.802 47.8887C114.368 47.6646 115.933 47.4325 117.494 47.205C118.297 47.0905 119.097 46.9805 119.9 46.8701C120.564 46.7849 120.603 46.8086 120.817 47.5219Z" fill="#6E4F93"/>
<path d="M90.479 143.734C89.9726 143.702 89.6237 143.454 89.3387 143.027C88.6003 141.933 87.8246 140.868 87.0676 139.788C86.9639 139.641 86.8249 139.507 86.8059 139.284C87.1945 139.188 87.4289 139.368 87.6263 139.646C88.3338 140.621 89.0529 141.592 89.7529 142.572C90.0144 142.941 90.336 143.265 90.5179 143.684C90.5033 143.698 90.4932 143.716 90.479 143.734Z" fill="#3F713F"/>
<path d="M78.0803 129.428C77.5113 129.117 76.9418 128.803 76.3376 128.472C76.6464 128.124 76.955 127.841 77.325 127.559C77.6976 128.135 78.0195 128.696 78.0803 129.428Z" fill="#A76A2B"/>
<path d="M65.6016 65.9258C65.8367 66.0114 65.9878 66.1114 66.1468 66.2758C66.0467 66.4597 65.897 66.6046 65.7078 66.7952C65.6704 66.4893 65.6399 66.2397 65.6016 65.9258Z" fill="#FFEE00"/>
<path d="M81.5898 104.114C81.5689 104.043 81.5902 103.983 81.6416 103.936C81.658 104.004 81.6493 104.066 81.5898 104.114Z" fill="#A76A2B"/>
<path d="M90.5189 143.686C90.5339 143.709 90.5449 143.732 90.5599 143.755C90.5348 143.749 90.5052 143.741 90.48 143.736C90.4942 143.718 90.5043 143.7 90.5189 143.686Z" fill="#3F713F"/>
<path d="M79.8917 148.059C79.8399 148.036 79.7842 148.014 79.7324 147.992C79.7973 147.988 79.8491 148.011 79.8917 148.059Z" fill="#5A3A83"/>
<path d="M110.774 49.0172C111.629 55.9843 106.707 62.3052 99.7599 63.1583C92.7812 64.0193 86.4442 59.0661 85.5962 52.094C84.7503 45.138 89.6918 38.8392 96.6554 37.9882C103.627 37.1322 109.918 42.046 110.774 49.0172ZM96.7391 38.84C90.2685 39.647 85.6706 45.5484 86.4741 52.0235C87.2767 58.4905 93.1781 63.0884 99.6496 62.2893C106.113 61.4913 110.718 55.5769 109.911 49.1063C109.106 42.6232 103.214 38.0324 96.7391 38.84Z" fill="#070504"/>
<path d="M96.7402 38.8401C103.215 38.0326 109.107 42.6234 109.916 49.106C110.723 55.5765 106.118 61.4909 99.6548 62.289C93.1792 63.0885 87.2819 58.4901 86.4793 52.0231C85.6758 45.5481 90.2697 39.6472 96.7402 38.8401Z" fill="#A2EAF0"/>
</g>
<defs>
<clipPath id="clip0_1121_172">
<rect x="0.730469" y="20.6211" width="170" height="170" rx="20" transform="rotate(-6.96723 0.730469 20.6211)" fill="white"/>
</clipPath>
</defs>
</svg>
