<svg width="191" height="190" viewBox="0 0 191 190" fill="none" xmlns="http://www.w3.org/2000/svg">
<g clip-path="url(#clip0_1121_307)">
<path d="M21.4297 189.228C14.5618 133.028 7.694 76.8286 0.826172 20.6289C57.0381 13.7596 113.246 6.89073 169.458 0.0214033C169.495 0.225212 169.54 0.428036 169.565 0.63332C176.38 56.3983 183.195 112.163 190.01 167.928C190.108 168.737 190.186 168.638 189.377 168.737C133.6 175.553 77.8227 182.369 22.0495 189.185C21.8442 189.21 21.6364 189.215 21.4297 189.228ZM59.6904 51.0079C59.4688 50.9002 59.3207 50.8244 59.1685 50.749C57.8018 50.0622 56.4193 49.4141 54.998 48.8483C54.0318 48.4639 53.0453 48.1473 52.0222 47.9659C50.1309 47.6333 48.4704 48.0854 47.0429 49.3752C46.7484 49.6399 46.4499 49.9052 46.1971 50.2098C44.3254 52.4444 42.538 54.7341 41.6339 57.5654C41.5477 57.8292 41.4393 57.9119 41.1462 57.8537C40.2001 57.667 39.403 57.9973 38.7222 58.6443C38.2502 59.0942 37.9117 59.6339 37.6269 60.2121C37.1231 61.2378 36.8269 62.3239 36.6668 63.4547C36.6416 63.6497 36.6362 63.8057 36.3815 63.8613C35.2874 64.1012 34.5491 64.8124 34.0625 65.7788C33.2341 67.4243 33.003 69.1438 33.569 70.9335C33.6278 71.1142 33.6827 71.2954 33.7607 71.4657C33.8442 71.6475 33.8151 71.7776 33.6689 71.9181C33.0077 72.5586 32.7691 73.3803 32.6896 74.2683C32.5409 75.8593 32.8541 77.3857 33.3318 78.8879C34.208 81.6447 35.8319 83.9015 38.0162 85.763C40.8113 88.1422 43.9585 89.9596 47.2653 91.5123C48.0675 91.8923 48.8925 92.2245 49.7647 92.408C50.0748 92.4722 50.1595 92.5967 50.1199 92.9079C49.9734 94.0493 49.8722 95.1933 49.7176 96.3356C49.0606 101.155 48.3617 105.967 47.7378 110.79C46.6375 119.304 45.7599 127.835 45.6171 136.427C45.5807 138.503 45.667 140.58 45.9878 142.637C46.179 143.867 46.4262 145.087 46.9461 146.233C47.5165 147.491 48.4582 148.177 49.8692 148.155C50.1342 148.152 50.3998 148.152 50.6579 148.124C51.8509 147.991 52.9711 147.597 54.0529 147.089C56.007 146.163 57.7788 144.95 59.5206 143.691C62.5007 141.534 65.3685 139.227 68.2132 136.897C68.6331 136.556 68.5265 136.553 68.98 136.82C70.1857 137.527 71.3636 138.273 72.5042 139.082C72.6653 139.197 72.8486 139.293 72.9638 139.467C72.8347 139.613 72.697 139.557 72.5753 139.563C71.6295 139.613 70.6932 139.707 69.7826 139.978C68.9429 140.228 68.1468 140.566 67.5564 141.251C66.8404 142.078 66.8286 143.084 67.5168 143.936C67.8296 144.322 68.2247 144.613 68.6586 144.854C69.2376 145.18 69.8577 145.406 70.4894 145.595C71.4684 145.884 72.4678 146.072 73.4677 146.264C74.5591 146.47 75.6515 146.684 76.7342 146.952C77.0081 147.021 77.129 147.141 77.1886 147.427C77.3588 148.252 77.7743 148.978 78.2578 149.658C79.3686 151.226 80.7917 152.441 82.4903 153.336C82.7439 153.473 83.0787 153.538 82.976 153.968C82.9541 154.056 83.0503 154.175 83.0994 154.275C84.0263 156.311 85.4863 157.828 87.4945 158.816C87.8682 158.999 88.251 159.157 88.6374 159.31C88.8223 159.385 88.9524 159.447 88.9623 159.695C88.9821 160.158 89.2109 160.559 89.4578 160.942C89.9807 161.744 90.6751 162.378 91.4774 162.893C92.471 163.535 93.573 163.928 94.717 164.196C96.8825 164.7 99.0719 165.098 101.271 165.442C104.733 165.991 107.978 165.366 111.067 163.734C112.898 162.767 114.547 161.552 116.131 160.239C116.405 160.01 116.668 159.786 117.07 159.798C117.307 159.802 117.549 159.711 117.786 159.641C121.251 158.641 124.645 157.434 127.898 155.872C134.829 152.546 141.246 148.391 147.308 143.675C149.427 142.027 151.438 140.262 153.231 138.257C154.04 137.354 154.778 136.401 155.367 135.341C155.99 134.219 156.371 133.024 156.422 131.735C156.452 131.017 156.406 130.303 156.311 129.592C155.834 126.092 155.094 122.644 154.091 119.254C154.001 118.95 154.055 118.821 154.333 118.693C154.968 118.403 155.57 118.047 156.091 117.567C157.142 116.601 157.349 115.452 156.692 114.189C156.404 113.636 156.024 113.139 155.645 112.646C154.898 111.675 154.131 110.715 153.417 109.719C150.881 106.189 148.662 102.469 146.605 98.643C145.32 96.2508 144.131 93.8101 142.762 91.4649C141.626 89.5203 140.346 87.6789 138.669 86.1518C136.219 83.9224 133.378 82.5701 130.034 82.3577C129.779 82.3399 129.515 82.4211 129.264 82.3088C129.278 82.254 129.277 82.2092 129.298 82.1821C129.39 82.0647 129.49 81.9503 129.591 81.8359C131.13 80.0545 132.403 78.1055 133.4 75.9695C135.158 72.2005 135.62 68.2916 134.791 64.2137C134.4 62.2883 133.867 60.4006 133.307 58.5245C133.233 58.2843 133.121 58.0406 133.161 57.7294C133.546 57.8743 133.894 58.0115 134.248 58.1357C135.926 58.7233 137.633 59.0213 139.417 58.7093C141.969 58.2626 143.847 56.354 144.208 53.7893C144.432 52.2095 144.101 50.7097 143.476 49.2665C142.566 47.1716 141.172 45.4259 139.528 43.8702C136.501 41.0044 132.985 38.9094 129.141 37.3406C125.483 35.8513 121.664 34.9942 117.755 34.5283C116.926 34.4294 116.121 34.2949 115.412 33.8096C115.181 33.654 114.907 33.5527 114.648 33.4413C109.369 31.1287 103.84 30.0436 98.0831 30.1057C94.7664 30.1434 91.5023 30.579 88.2795 31.3855C84.7079 32.2795 81.3167 33.6131 78.1427 35.488C76.3824 36.5284 74.7103 37.6887 73.2282 39.0995C72.9317 39.3808 72.6481 39.534 72.2547 39.5575C71.6304 39.597 71.0169 39.7251 70.4204 39.892C64.9246 41.4215 61.4137 44.9513 59.8564 50.428C59.7901 50.5872 59.7514 50.7717 59.6904 51.0079Z" fill="#FFB494"/>
<path d="M21.4303 189.226C21.6371 189.213 21.8448 189.208 22.0501 189.183C77.8274 182.366 133.605 175.55 189.378 168.734C190.187 168.636 190.109 168.735 190.01 167.926C183.196 112.161 176.381 56.396 169.566 0.631085C169.541 0.425801 169.496 0.222977 169.459 0.0191681C169.498 0.0388922 169.569 -0.0514482 169.578 0.061749C169.592 0.211173 169.615 0.359612 169.633 0.512569C176.484 56.5714 183.335 112.63 190.189 168.717C189.919 168.75 189.645 168.783 189.376 168.816C133.566 175.637 77.7607 182.456 21.9503 189.268C21.7853 189.288 21.5837 189.444 21.4303 189.226Z" fill="#A2EAF0"/>
<path d="M59.6915 51.0049C59.7525 50.7686 59.7918 50.5882 59.8436 50.4103C61.4043 44.9291 64.9158 41.4033 70.4075 39.8743C71.004 39.7074 71.621 39.5748 72.2418 39.5398C72.6392 39.5158 72.9188 39.3631 73.2153 39.0818C74.702 37.6745 76.3736 36.5102 78.1298 35.4703C81.3038 33.5954 84.695 32.2618 88.2666 31.3678C91.4854 30.5618 94.7535 30.1257 98.0702 30.088C103.827 30.0259 109.356 31.111 114.635 33.4236C114.895 33.539 115.168 33.6363 115.399 33.7919C116.112 34.2767 116.913 34.4117 117.742 34.5106C121.652 34.9765 125.47 35.8336 129.129 37.3229C132.976 38.8872 136.488 40.9827 139.515 43.8525C141.159 45.4082 142.553 47.1539 143.463 49.2488C144.089 50.692 144.418 52.1878 144.195 53.7715C143.834 56.3322 141.955 58.2409 139.404 58.6916C137.62 59.0035 135.913 58.7056 134.235 58.118C133.881 57.9938 133.533 57.8566 133.148 57.7116C133.108 58.0229 133.223 58.2621 133.294 58.5068C133.859 60.3864 134.387 62.2705 134.778 64.196C135.607 68.2739 135.146 72.1869 133.387 75.9518C132.39 78.0878 131.117 80.0368 129.578 81.8182C129.477 81.9326 129.381 82.0465 129.285 82.1644C129.264 82.1915 129.265 82.2322 129.252 82.2911C129.502 82.4034 129.767 82.3262 130.022 82.34C133.365 82.5524 136.202 83.9051 138.656 86.1341C140.334 87.6612 141.613 89.5026 142.749 91.4472C144.118 93.7924 145.311 96.2326 146.592 98.6253C148.645 102.452 150.868 106.171 153.404 109.702C154.118 110.697 154.884 111.653 155.632 112.628C156.011 113.121 156.391 113.618 156.679 114.171C157.335 115.431 157.128 116.579 156.079 117.549C155.561 118.025 154.959 118.381 154.321 118.675C154.042 118.803 153.988 118.932 154.079 119.236C155.081 122.623 155.821 126.07 156.298 129.574C156.393 130.286 156.44 131.003 156.409 131.718C156.358 133.007 155.977 134.201 155.354 135.323C154.765 136.384 154.028 137.34 153.218 138.24C151.425 140.244 149.414 142.009 147.295 143.657C141.233 148.373 134.82 152.527 127.885 155.855C124.632 157.416 121.238 158.624 117.773 159.623C117.536 159.693 117.294 159.784 117.057 159.78C116.655 159.772 116.396 159.992 116.118 160.222C114.534 161.539 112.885 162.749 111.054 163.717C107.965 165.348 104.72 165.974 101.258 165.424C99.0585 165.076 96.8736 164.681 94.7042 164.179C93.5606 163.914 92.4587 163.521 91.4645 162.875C90.6617 162.356 89.9678 161.726 89.4449 160.924C89.198 160.541 88.9652 160.141 88.9494 159.677C88.9395 159.429 88.8089 159.363 88.6245 159.292C88.2381 159.139 87.8553 158.981 87.4816 158.798C85.4739 157.814 84.0134 156.293 83.0865 154.257C83.0415 154.157 82.9412 154.038 82.9631 153.95C83.0659 153.521 82.7311 153.455 82.4774 153.319C80.7788 152.423 79.3562 151.212 78.2449 149.64C77.7614 148.96 77.35 148.234 77.1757 147.41C77.1161 147.123 76.9952 147.003 76.7213 146.934C75.6426 146.666 74.5507 146.456 73.4548 146.247C72.4554 146.058 71.4555 145.866 70.4765 145.577C69.8408 145.389 69.2247 145.162 68.6457 144.837C68.2158 144.595 67.8208 144.304 67.5039 143.918C66.8122 143.071 66.8275 142.06 67.5435 141.233C68.1339 140.548 68.93 140.21 69.7697 139.96C70.6803 139.69 71.6166 139.596 72.5624 139.546C72.6841 139.539 72.8218 139.596 72.9509 139.449C72.8403 139.279 72.6564 139.179 72.4913 139.064C71.3507 138.256 70.1688 137.509 68.9671 136.802C68.5096 136.536 68.6162 136.539 68.2003 136.88C65.3556 139.209 62.4878 141.516 59.5077 143.674C57.7664 144.936 55.9906 146.15 54.04 147.071C52.9587 147.583 51.842 147.973 50.6451 148.107C50.3829 148.135 50.1173 148.134 49.8563 148.138C48.4494 148.159 47.5037 147.473 46.9332 146.215C46.4133 145.07 46.1662 143.85 45.9749 142.619C45.6541 140.562 45.5683 138.489 45.6042 136.41C45.7511 127.817 46.6287 119.286 47.725 110.773C48.3489 105.949 49.0517 101.137 49.7048 96.3179C49.8598 95.1796 49.9605 94.0316 50.107 92.8902C50.1471 92.583 50.062 92.4545 49.7518 92.3903C48.8796 92.2068 48.0587 91.8741 47.2524 91.4946C43.9451 89.9379 40.7944 88.125 38.0034 85.7453C35.819 83.8838 34.1951 81.627 33.3189 78.8702C32.8412 77.368 32.528 75.8416 32.6768 74.2506C32.7607 73.3661 32.9994 72.5444 33.656 71.9004C33.7982 71.7604 33.8273 71.6302 33.7478 71.4479C33.6698 71.2777 33.615 71.0965 33.5561 70.9158C32.9902 69.1261 33.2212 67.4066 34.0497 65.7611C34.5362 64.7947 35.2705 64.084 36.3687 63.8436C36.6233 63.7879 36.6288 63.632 36.654 63.437C36.8145 62.3102 37.1102 61.2201 37.614 60.1944C37.8988 59.6162 38.2368 59.0724 38.7093 58.6266C39.3941 57.9791 40.1918 57.6529 41.1333 57.836C41.4264 57.8942 41.5348 57.8115 41.621 57.5477C42.5246 54.7123 44.3125 52.4267 46.1842 50.1921C46.4375 49.8915 46.7355 49.6222 47.03 49.3575C48.4575 48.0677 50.1176 47.6116 52.0094 47.9482C53.0365 48.1291 54.0229 48.4457 54.9851 48.8306C56.4065 49.3964 57.7889 50.0445 59.1556 50.7313C59.3218 50.8213 59.4695 50.8931 59.6915 51.0049ZM90.5757 143.734C90.6008 143.739 90.6305 143.747 90.6556 143.752C90.6406 143.73 90.6296 143.707 90.6145 143.684C90.4321 143.261 90.1106 142.937 89.8496 142.572C89.1496 141.592 88.4305 140.621 87.723 139.646C87.522 139.372 87.2912 139.188 86.9026 139.284C86.9216 139.507 87.0605 139.641 87.1643 139.787C87.9213 140.867 88.697 141.933 89.4353 143.027C89.7204 143.454 90.0693 143.702 90.5757 143.734ZM79.8288 147.992L79.8158 147.986C79.3151 147.7 78.7627 147.559 78.2129 147.373C78.1346 147.701 78.2729 147.897 78.3739 148.089C78.6441 148.627 78.9827 149.125 79.3591 149.598C80.6473 151.214 82.2784 152.358 84.2023 153.092C86.5714 153.991 89.0655 154.409 91.5098 155.022C91.7978 155.105 92.0888 155.18 92.3707 155.28C92.6054 155.362 92.7447 155.532 92.6957 155.8C92.6523 156.046 92.4311 156.175 92.1324 156.138C92.0037 156.121 91.8796 156.075 91.7489 156.042C89.6006 155.512 87.4478 154.979 85.2996 154.449C84.8921 154.29 84.4912 154.118 83.9924 154.049C84.3981 154.861 84.8464 155.554 85.4191 156.162C86.9908 157.825 88.9794 158.652 91.189 159.015C91.5766 159.078 91.9677 159.169 92.3647 159.109C92.6546 159.208 92.962 159.183 93.2602 159.216C93.579 159.25 93.8993 159.264 94.2151 159.307C94.4725 159.341 94.6235 159.507 94.6071 159.774C94.5873 160.046 94.4014 160.163 94.1458 160.178C94.0527 160.185 93.9577 160.176 93.8632 160.171C92.6768 160.092 91.4915 160.02 90.3232 159.787C90.2021 159.765 90.073 159.679 89.957 159.799C90.29 161.254 92.6239 162.868 94.924 163.237C95.0083 163.324 95.1275 163.33 95.2366 163.354C97.3931 163.817 99.5577 164.247 101.744 164.556C104.629 164.959 107.377 164.513 109.993 163.225C111.539 162.464 112.998 161.567 114.34 160.484C115.281 159.723 116.203 158.949 117.145 158.192C117.55 157.865 117.763 157.908 117.966 158.362C118.05 158.552 118.143 158.577 118.309 158.524C118.631 158.419 118.953 158.315 119.279 158.209C122.887 157.078 126.379 155.667 129.737 153.929C134.152 151.645 138.348 149.004 142.416 146.157C144.799 144.494 147.118 142.744 149.297 140.815C151.037 139.274 152.694 137.658 154.037 135.741C155.222 134.044 155.727 132.193 155.471 130.125C155.217 128.08 154.839 126.063 154.402 124.054C153.876 121.659 153.26 119.287 152.406 116.985C152.291 116.676 152.155 116.632 151.874 116.67C150.896 116.794 149.945 117.032 149.005 117.302C145.788 118.223 142.686 119.447 139.654 120.847C139.155 121.076 139.156 121.084 139.304 121.658C139.307 121.715 139.302 121.773 139.312 121.829C139.812 124.076 140.315 126.319 140.542 128.615C140.549 128.704 140.553 128.802 140.677 128.885C140.861 128.85 141.019 128.708 141.19 128.602C141.524 128.393 141.852 128.165 142.195 127.968C142.401 127.849 142.605 127.91 142.753 128.088C142.897 128.258 142.864 128.528 142.681 128.697C142.585 128.786 142.471 128.854 142.357 128.925C141.203 129.642 140.089 130.419 138.983 131.204C137.092 132.546 135.232 133.934 133.39 135.348C128.687 138.95 124.134 142.742 119.575 146.522C119.33 146.728 119.234 146.911 119.303 147.242C119.428 147.831 119.506 148.43 119.575 149.03C119.615 149.356 119.469 149.534 119.211 149.565C118.958 149.596 118.777 149.455 118.703 149.145C118.66 148.962 118.645 148.772 118.622 148.587C118.527 147.839 118.395 147.095 118.136 146.383C117.557 144.783 116.639 143.388 115.534 142.105C115.486 142.05 115.43 141.991 115.341 141.994C115.201 142.154 115.242 142.386 115.132 142.563C115.02 142.744 114.859 142.829 114.656 142.776C114.454 142.728 114.327 142.588 114.321 142.376C114.316 142.266 114.347 142.152 114.37 142.043C114.509 141.377 114.708 140.727 114.953 140.093C115.666 138.241 116.84 136.708 118.272 135.361C118.892 134.779 119.502 134.189 120.042 133.531C120.501 132.972 120.894 132.377 121.017 131.643C121.151 130.801 120.763 130.105 119.973 129.785C119.616 129.641 119.247 129.596 118.862 129.626C118.025 129.692 117.305 130.05 116.636 130.528C115.768 131.149 115.049 131.919 114.373 132.737C113.12 134.254 112.055 135.9 110.977 137.539C110.208 138.708 109.435 139.864 108.568 140.963C107.143 142.775 105.394 144.178 103.303 145.152C101.193 146.137 99.011 146.902 96.7361 147.409C96.3743 147.49 96.0387 147.519 95.764 147.177C95.6537 147.043 95.4461 146.983 95.2769 146.901C92.8778 145.756 90.4484 144.664 87.9632 143.718C84.2868 142.317 80.5402 141.177 76.6249 140.663C74.6735 140.407 72.7178 140.282 70.7632 140.636C69.9757 140.777 69.2236 141.008 68.5729 141.5C68.2175 141.768 67.9254 142.085 67.9442 142.573C67.9066 143.068 68.2257 143.372 68.5544 143.655C69.0793 144.105 69.7143 144.355 70.3611 144.566C71.7441 145.018 73.1814 145.246 74.6077 145.517C76.427 145.863 78.2148 146.319 79.9341 147.015C81.7047 147.731 83.5188 148.301 85.4056 148.63C88.0893 149.095 90.7232 149.721 93.2087 150.872C93.4061 150.982 93.6136 151.075 93.7968 151.204C93.967 151.326 94.0102 151.513 93.9156 151.708C93.8104 151.917 93.6427 152.016 93.4059 151.951C93.317 151.925 93.2306 151.886 93.1437 151.844C90.9968 150.791 88.7145 150.167 86.3743 149.738C84.2599 149.351 82.1692 148.891 80.1701 148.077C80.1184 148.055 80.061 148.054 80.0067 148.044C79.9455 148.011 79.8937 147.989 79.8288 147.992ZM120.842 48.512C120.636 48.529 120.429 48.538 120.223 48.5631C117.974 48.8461 115.73 49.1367 113.482 49.4237C113.349 49.44 113.221 49.4638 113.087 49.4719C112.852 49.4884 112.764 49.6013 112.776 49.8367C112.798 50.214 112.799 50.5898 112.788 50.967C112.57 58.7434 106.179 65.0151 98.3975 65.0264C94.1373 65.0322 90.5388 63.4334 87.6145 60.3305C87.4781 60.1838 87.38 59.9833 87.1604 59.9244C86.981 60.0607 86.9291 60.2713 86.8365 60.4501C86.3662 61.3818 85.807 62.255 85.1494 63.0584C80.9308 68.219 73.8423 69.8532 67.786 67.0636C67.0154 66.7084 67.0074 66.7094 66.5006 67.376C66.4339 67.4658 66.3678 67.5597 66.3056 67.6531C65.3496 69.0568 64.7051 70.6022 64.2967 72.2413C64.0444 73.2526 63.9209 74.2808 63.8803 75.3193C63.8635 75.7504 63.9046 75.7862 64.3299 75.6893C64.9223 75.5556 65.5171 75.4747 66.1163 75.3974C68.8112 75.0518 71.5081 74.7222 74.1942 74.3041C76.4873 73.9462 78.7902 73.6362 81.0858 73.2985C86.6873 72.4669 92.304 71.7601 97.9507 71.2988C99.3221 71.1884 100.7 71.0976 102.072 71.028C104.485 70.9089 106.898 70.8018 109.31 70.7808C111.309 70.7612 113.311 70.7616 115.303 70.9799C116.583 71.1217 117.848 71.343 118.992 71.9794C119.859 72.4616 120.541 73.1219 120.886 74.0725C121.409 75.5119 121.087 76.8259 120.23 78.0337C119.303 79.3399 117.987 80.138 116.531 80.7325C115.955 80.9663 115.362 81.1614 114.762 81.3327C114.229 81.4837 114.234 81.4912 114.295 82.023C114.341 82.4341 114.404 82.8472 114.434 83.2602C114.494 84.0496 114.57 84.841 114.528 85.6346C114.498 86.2265 114.405 86.8016 114.079 87.3113C113.579 88.0996 112.69 88.2777 111.919 87.755C111.536 87.4954 111.249 87.1506 111.006 86.7636C110.702 86.2819 110.475 85.7622 110.264 85.2406C109.97 84.5044 109.695 83.7617 109.335 83.0541C109.141 82.6693 109.133 82.6702 108.733 82.7763C106.349 83.4271 103.936 83.9712 101.524 84.4947C98.2766 85.198 95.015 85.8213 91.7387 86.3565C87.4171 87.0643 83.0753 87.6399 78.707 87.9653C77.3915 88.0648 76.0699 88.1487 74.7511 88.1546C74.2938 88.1574 73.8346 88.1767 73.3783 88.1876C73.3806 88.2731 73.375 88.2942 73.3805 88.3058C73.4146 88.3506 73.4492 88.3995 73.4939 88.4308C75.3095 89.7491 77.2698 90.7801 79.4147 91.4494C79.5577 91.5831 79.7532 91.6123 79.9281 91.6726C81.6115 92.2431 83.3412 92.6241 85.0853 92.9216C88.9529 93.5806 92.8517 93.6925 96.7568 93.5216C99.5079 93.402 102.248 93.157 104.974 92.7013C107.824 92.2222 110.638 91.6088 113.39 90.7251C117.258 89.4884 120.914 87.8119 124.232 85.4455C127.851 82.8626 130.676 79.6045 132.572 75.5653C133.878 72.7789 134.485 69.8532 134.235 66.7748C134.087 64.9259 133.679 63.1252 133.183 61.3392C132.84 60.1025 132.453 58.8792 132.134 57.6394C132.043 57.2952 131.908 57.0911 131.597 56.9207C128.98 55.4961 126.646 53.6815 124.485 51.6415C123.524 50.7335 122.622 49.7693 121.834 48.7053C121.653 48.4619 121.463 48.3462 121.164 48.4359C121.066 48.4683 120.953 48.4861 120.842 48.512ZM68.6046 118.659C68.4386 118.471 68.2101 118.372 68.0062 118.242C67.5267 117.929 67.5232 117.933 67.1051 118.323C65.4365 119.88 63.7638 121.436 62.0109 122.905C61.596 123.254 61.143 123.558 61.1578 124.214C61.1661 124.483 60.9172 124.619 60.689 124.59C60.4567 124.561 60.2962 124.385 60.3 124.115C60.3015 123.926 60.3357 123.738 60.3619 123.551C60.9621 119.27 61.3517 114.97 61.6915 110.663C62.1393 104.967 62.492 99.2613 62.7461 93.5517C62.7934 92.4674 62.9704 91.3755 62.7677 90.2849C62.7405 90.1289 62.8344 89.9949 62.9082 89.8633C63.0659 89.5826 63.2281 89.3054 63.3733 89.0221C63.8122 88.1678 64.2552 87.3129 64.4952 86.3685C64.6009 85.9634 64.5802 85.6268 64.362 85.245C63.8954 84.4359 64.021 83.5912 64.629 82.8837C64.8652 82.6097 65.1494 82.3952 65.4523 82.1989C65.5697 82.1233 65.7387 82.1026 65.7972 81.8789C65.6855 81.8681 65.582 81.8562 65.4784 81.8444C64.9328 81.7926 64.3861 81.7654 63.8456 81.6885C63.1302 81.5839 62.4498 81.3647 61.8473 80.9481C60.7534 80.1871 60.4301 78.8785 61.046 77.7002C61.3706 77.0804 61.8503 76.5928 62.4803 76.2993C62.8671 76.1213 62.9688 75.8842 62.977 75.4828C63.0229 73.0506 63.5986 70.7415 64.7232 68.5777C64.8451 68.3381 64.9021 68.1024 64.9094 67.8278C64.9351 67.0689 64.8034 66.3251 64.7401 65.573C64.7128 65.2495 64.5872 65.0238 64.3403 64.8089C63.1099 63.7336 62.0828 62.4824 61.2789 61.0527C61.2168 60.9459 61.1861 60.7944 60.991 60.7693C60.7881 61.2148 60.7163 61.6975 60.6858 62.1833C60.6128 63.2912 60.5529 64.4056 60.5091 65.5181C60.4255 67.7752 59.392 69.5479 57.7643 71.0378C57.5842 71.2027 57.4019 71.2822 57.1506 71.2312C55.1524 70.8258 53.264 70.1497 51.5368 69.0535C50.2614 68.2452 49.1264 67.2809 48.3423 65.9795C46.9178 63.6166 46.7791 61.211 48.2594 58.8158C49.0228 57.5746 49.9795 56.4772 50.9542 55.394C51.4688 54.8245 52.0991 54.6331 52.8506 54.7986C53.4216 54.9249 53.9789 55.106 54.5363 55.2871C55.7192 55.6737 56.9143 56.026 58.1506 56.214C58.6127 56.2842 59.0727 56.371 59.5416 56.2973C59.6065 56.126 59.5677 55.9755 59.5459 55.8311C59.3836 54.7029 59.356 53.5747 59.4999 52.4459C59.5463 52.0562 59.4251 51.8667 59.0901 51.6993C57.2979 50.8071 55.4966 49.9406 53.6026 49.2855C53.1037 49.1136 52.593 48.98 52.0732 48.8719C50.3631 48.5171 48.8581 48.9053 47.5697 50.0963C47.4048 50.2513 47.2354 50.4027 47.08 50.5688C45.626 52.1436 44.405 53.8861 43.3497 55.7472C42.956 56.4367 42.7094 57.194 42.4539 57.9443C42.394 58.1232 42.3211 58.2955 42.5199 58.451C43.3936 59.149 43.8749 60.1115 44.2639 61.1221C45.1738 63.4866 46.2303 65.78 47.5527 67.943C47.8181 68.3763 48.015 68.8506 48.1529 69.3444C48.4388 70.3798 48.0143 71.2855 47.0238 71.7048C46.422 71.9622 45.7816 72.0037 45.1339 71.9521C44.9524 71.9375 44.774 71.849 44.5872 71.9249C44.9912 74.6291 44.9633 74.7346 43.4531 76.0835C43.4538 76.1896 43.5306 76.2497 43.5888 76.3243C44.1442 76.9917 44.5753 77.7112 44.4712 78.6308C44.4541 78.7922 44.5379 78.876 44.6746 78.9246C44.7987 78.9707 44.9193 79.0214 45.0439 79.0715C47.7652 80.1116 50.1758 81.6187 52.1122 83.825C52.212 83.9395 52.3229 84.0444 52.4111 84.1643C52.5494 84.3599 52.5247 84.559 52.3572 84.7265C52.1822 84.8991 51.974 84.9 51.7928 84.7546C51.6162 84.6128 51.4612 84.4479 51.3062 84.283C49.8384 82.6689 48.1152 81.4047 46.1203 80.5251C45.6365 80.3105 45.1431 80.1175 44.6699 79.8893C44.2836 79.7037 43.9529 79.6379 43.5993 79.9875C43.388 80.1972 43.0689 80.2607 42.764 80.3061C42.2502 80.3811 41.7449 80.3244 41.2513 80.1968C39.8776 79.854 38.6618 79.1651 37.4697 78.4365C37.1875 78.2667 37.1223 78.0337 37.235 77.8197C37.3614 77.5837 37.6191 77.5195 37.92 77.6747C38.138 77.787 38.3423 77.9214 38.5572 78.0422C39.3608 78.4996 40.1814 78.9304 41.0654 79.2104C41.5715 79.3733 42.0847 79.4944 42.6216 79.4084C43.3432 79.2957 43.7007 78.7781 43.5523 78.065C43.4734 77.6865 43.2786 77.3631 43.038 77.0656C42.7297 76.6825 42.37 76.3466 41.9744 76.0517C40.6367 75.0672 39.3167 74.0602 38.0107 73.035C37.7442 72.8265 37.4489 72.6502 37.1516 72.4904C36.788 72.2898 36.4052 72.1323 35.9889 72.0688C34.9316 71.9079 34.1315 72.3815 33.7726 73.3895C33.6271 73.8036 33.5606 74.2284 33.5528 74.6665C33.5083 76.5757 34.0049 78.3656 34.7672 80.0904C35.7274 82.2649 37.2502 83.9948 39.0775 85.4751C41.4493 87.3995 44.0742 88.9212 46.7981 90.2837C48.1904 90.9797 49.6269 91.5354 51.1668 91.8007C51.2794 91.8196 51.3885 91.843 51.495 91.879C51.7247 91.9531 51.8309 92.1199 51.8106 92.3552C51.7879 92.5704 51.6441 92.731 51.4414 92.7108C51.012 92.6734 51.0077 92.9395 50.9792 93.2412C50.7179 95.7161 50.4073 98.1889 50.055 100.655C49.0607 107.562 48.0623 114.469 47.4376 121.425C46.9312 127.043 46.4248 132.661 46.539 138.309C46.5627 139.573 46.607 140.838 46.8531 142.083C46.8755 142.901 47.1017 143.682 47.2876 144.468C47.4229 145.04 47.6286 145.587 47.9043 146.105C48.2771 146.815 48.8575 147.185 49.6651 147.242C50.7317 147.312 51.7239 147.039 52.6956 146.667C54.5264 145.97 56.168 144.928 57.765 143.821C61.0825 141.516 64.225 138.983 67.353 136.432C67.4644 136.341 67.6155 136.273 67.6341 136.091C67.601 136.054 67.57 136.001 67.5258 135.974C66.0443 135.15 64.5623 134.322 63.0206 133.607C61.5249 132.801 59.9807 132.099 58.44 131.393C57.5137 130.967 56.5747 130.571 55.6458 130.158C55.257 129.985 55.1428 129.819 55.2019 129.534C55.255 129.266 55.4234 129.106 55.6896 129.045C56.3882 128.878 57.0828 128.711 57.7814 128.544C58.0275 128.486 58.2871 128.47 58.5038 128.338C58.4724 128.215 58.396 128.191 58.3307 128.159C57.728 127.84 57.1167 127.551 56.4755 127.319C56.2107 127.225 55.9842 127.109 55.9967 126.777C56.0086 126.473 56.1861 126.288 56.5792 126.195C56.8726 126.123 57.1661 126.05 57.4615 125.993C60.6345 125.381 63.8256 125.285 67.0336 125.661C68.1403 125.791 69.2241 126.035 70.3201 126.211C72.0048 126.692 73.6829 127.185 75.2773 127.93C75.4636 128.018 75.5986 127.952 75.7353 127.833C76.0151 127.583 76.304 127.339 76.5793 127.085C76.9429 126.75 76.9343 126.747 76.6537 126.357C75.3941 124.607 73.9463 123.023 72.3483 121.58C71.1713 120.506 69.9634 119.482 68.6046 118.659ZM75.8353 123.838C75.9034 123.928 75.964 124.022 76.0357 124.108C77.0244 125.278 77.9228 126.512 78.6399 127.866C78.9851 128.519 79.2836 129.189 79.2624 129.952C79.2586 130.054 79.281 130.137 79.3658 130.196C79.6414 130.379 79.8822 130.611 80.2274 130.761C80.2313 130.626 80.2385 130.551 80.2296 130.479C79.9186 127.432 79.9135 124.381 80.0265 121.328C80.2258 115.972 80.7515 110.646 81.5417 105.345C81.6006 104.958 81.7249 104.571 81.6677 104.169C81.6864 104.155 81.6919 104.134 81.6809 104.111C81.7364 104.063 81.7451 104.001 81.7327 103.933C81.7739 103.768 81.8026 103.601 81.8608 103.443C81.9434 103.217 82.1198 103.121 82.3535 103.162C82.5913 103.203 82.7131 103.363 82.7094 103.601C82.7055 103.769 82.6688 103.937 82.6447 104.107C81.5961 110.805 80.9197 117.538 80.8708 124.326C80.8535 126.591 80.9297 128.853 81.1926 131.105C81.2309 131.451 81.3696 131.684 81.6416 131.904C83.5512 133.456 85.2756 135.198 86.8029 137.131C86.8801 137.228 86.9215 137.366 87.0859 137.374C87.3969 136.944 87.6954 136.511 88.0164 136.096C88.341 135.677 88.6751 135.268 89.0232 134.874C92.9729 130.388 97.2923 126.286 101.925 122.508C104.34 120.538 106.809 118.643 109.434 116.962C110.233 116.448 110.238 116.451 110.931 117.073C111.367 117.465 111.828 117.826 112.292 118.182C112.612 118.425 112.891 118.505 113.258 118.268C113.558 118.076 113.902 117.952 114.227 117.806C115.327 117.312 116.443 116.849 117.57 116.413C118.16 116.186 118.281 116.241 118.509 116.805C118.621 117.086 118.744 117.361 118.868 117.635C121.278 122.983 123.812 128.274 126.268 133.599C126.918 135.003 127.552 136.412 128.201 137.816C128.351 138.137 128.368 138.143 128.637 137.938C128.936 137.71 129.22 137.463 129.51 137.223C130.659 136.335 131.805 135.443 132.955 134.563C135.006 132.993 137.076 131.445 139.201 129.976C139.51 129.763 139.694 129.528 139.655 129.145C139.641 128.995 139.659 128.842 139.645 128.692C139.558 127.886 139.472 127.079 139.302 126.287C139.096 125.303 139.101 125.311 138.083 125.341C137.078 125.37 136.087 125.254 135.127 124.951C133.682 124.494 132.842 123.543 132.72 122.005C132.703 121.799 132.69 121.592 132.677 121.385C132.631 120.574 132.545 119.768 132.382 118.974C131.857 116.346 131.078 113.786 130.292 111.227C128.624 105.805 126.712 100.458 125.246 94.9752C125.228 94.863 125.198 94.7523 125.2 94.6376C125.199 94.3599 125.339 94.1712 125.566 94.1517C125.804 94.1308 125.961 94.2464 126.042 94.4694C126.079 94.5751 126.113 94.6854 126.135 94.7971C126.5 96.3785 126.999 97.923 127.487 99.473C129.042 104.443 130.711 109.374 132.16 114.377C132.861 116.808 133.523 119.248 133.614 121.802C133.619 121.973 133.652 122.141 133.676 122.309C133.782 123.044 134.195 123.549 134.848 123.874C135.135 124.018 135.438 124.124 135.75 124.205C136.709 124.463 137.693 124.453 138.673 124.452C138.881 124.451 138.939 124.358 138.9 124.171C138.717 123.307 138.534 122.447 138.337 121.535C137.683 121.803 137.136 122.136 136.572 122.433C136.406 122.519 136.239 122.617 136.061 122.671C135.864 122.728 135.684 122.656 135.586 122.46C135.494 122.275 135.507 122.081 135.666 121.939C135.776 121.84 135.915 121.77 136.044 121.697C137.359 120.952 138.717 120.296 140.097 119.686C143.724 118.079 147.415 116.655 151.321 115.859C151.977 115.812 152.627 115.651 153.295 115.732C153.755 115.787 154.18 115.922 154.546 116.209C154.731 116.354 154.788 116.547 154.696 116.762C154.61 116.965 154.43 117.032 154.229 116.991C154.103 116.965 153.988 116.89 153.867 116.835C153.686 116.755 153.518 116.624 153.251 116.706C153.387 117.086 153.512 117.438 153.64 117.786C153.701 117.954 153.819 117.948 153.958 117.882C154.571 117.578 155.168 117.256 155.642 116.753C156.17 116.194 156.33 115.562 156 114.83C155.742 114.257 155.381 113.749 154.991 113.266C151.872 109.407 149.249 105.225 146.826 100.909C145.359 98.2939 144.04 95.5953 142.592 92.9698C141.532 91.0486 140.381 89.1874 138.859 87.5923C136.641 85.2609 133.985 83.7471 130.763 83.3238C130.02 83.2267 129.267 83.1552 128.526 83.3725C128.196 83.4168 127.93 83.5761 127.688 83.8058C126.033 85.3685 124.2 86.6873 122.241 87.8418C122.096 87.9248 121.932 87.9858 121.828 88.1333C121.109 89.169 120.148 89.9646 119.177 90.7491C115.165 93.9848 110.559 95.9081 105.514 96.8186C101.901 97.4726 98.2724 97.4993 94.6342 97.0125C91.7521 96.6293 88.9615 95.9245 86.4179 94.4664C85.7324 94.0722 85.033 93.8309 84.2627 93.7126C83.8716 93.6542 83.5279 93.6839 83.1669 93.8383C81.5675 94.524 80.1986 95.5574 78.9269 96.7178C77.3874 98.1274 76.0757 99.7298 74.883 101.436C73.3004 103.697 71.9739 106.114 70.6384 108.524C69.3464 110.855 67.9474 113.114 66.2688 115.19C65.9599 115.571 65.6781 115.973 65.441 116.406C65.2772 116.704 65.1481 117.018 65.0833 117.357C65.0058 117.759 65.1411 118.098 65.3681 118.417C65.4422 118.523 65.5392 118.58 65.6486 118.473C65.9708 118.168 66.3528 117.917 66.5898 117.516C66.5009 117.458 66.4316 117.425 66.3764 117.375C66.121 117.157 66.0632 116.951 66.2056 116.746C66.3581 116.523 66.5715 116.497 66.8046 116.599C67.0291 116.699 67.2572 116.793 67.4717 116.91C68.66 117.541 69.7483 118.323 70.8159 119.136C72.644 120.523 74.2938 122.123 75.8353 123.838ZM85.0081 44.5856C85.228 44.379 85.286 44.1513 85.3931 43.9585C88.1028 38.9864 92.2987 36.2472 97.9411 36.0847C103.306 35.9274 107.512 38.2814 110.512 42.7395C111.32 43.9398 111.862 45.2667 112.268 46.647C112.387 47.0532 112.395 47.0522 112.814 47.0051C112.891 46.9957 112.963 46.9829 113.039 46.9735C115.223 46.6576 117.411 46.3453 119.595 46.0294C119.74 46.0076 119.896 46.0211 120.041 45.8973C119.972 45.534 119.757 45.217 119.633 44.8686C119.516 44.5479 119.384 44.2372 119.284 43.9145C119.189 43.6074 119.281 43.3919 119.51 43.2944C119.743 43.1965 119.964 43.2962 120.104 43.5732C120.153 43.6734 120.187 43.7837 120.224 43.8894C120.912 45.8358 121.965 47.5659 123.322 49.1158C125.108 51.1608 127.149 52.9173 129.362 54.4771C131.034 55.6577 132.789 56.6811 134.74 57.3373C136.227 57.8378 137.739 58.0739 139.31 57.788C141.575 57.3722 143.177 55.5996 143.346 53.3035C143.451 51.828 143.08 50.4599 142.437 49.1494C141.388 47.0103 139.839 45.2713 138.057 43.7242C135.076 41.1307 131.686 39.2287 128.001 37.8283C124.522 36.5049 120.908 35.7742 117.221 35.33C117.068 35.312 116.923 35.293 116.781 35.3675C116.566 35.4796 116.381 35.4041 116.202 35.2789C115.55 34.8234 114.834 34.4819 114.105 34.1666C108.718 31.8345 103.081 30.8115 97.2257 31.0001C94.5808 31.0864 91.9649 31.4428 89.3809 32.0282C86.6103 32.6569 83.9325 33.5438 81.3645 34.7605C79.0014 35.8827 76.7805 37.2326 74.761 38.8929C74.5977 39.0272 74.3811 39.1272 74.3114 39.4258C76.4025 39.5216 78.3659 39.9762 80.2209 40.8811C82.0714 41.7825 83.6508 43.0398 85.0081 44.5856ZM118.543 128.754C118.903 128.69 119.26 128.704 119.614 128.758C121.214 129.012 122.179 130.353 121.862 131.907C121.717 132.624 121.372 133.25 120.937 133.83C120.185 134.833 119.234 135.644 118.358 136.527C117.245 137.656 116.36 138.932 115.777 140.413C115.652 140.726 115.638 140.981 115.924 141.216C116.096 141.358 116.23 141.546 116.378 141.72C117.343 142.869 118.134 144.124 118.75 145.491C118.908 145.844 118.932 145.841 119.233 145.628C119.293 145.584 119.352 145.536 119.412 145.488C121.992 143.334 124.564 141.178 127.182 139.072C127.618 138.725 127.616 138.713 127.37 138.171C126.827 136.967 126.292 135.762 125.733 134.564C123.472 129.705 121.208 124.85 118.947 119.991C118.588 119.222 118.247 118.443 117.896 117.673C117.729 117.313 117.721 117.31 117.345 117.442C117.274 117.467 117.204 117.496 117.134 117.521C114.03 118.733 111.088 120.261 108.288 122.062C105.569 123.808 102.991 125.749 100.506 127.809C96.407 131.21 92.5301 134.854 88.8121 138.663C88.4454 139.038 88.4397 139.092 88.7534 139.52C89.925 141.117 91.1041 142.709 92.2717 144.307C92.4335 144.528 92.6273 144.676 92.8744 144.793C93.956 145.286 95.034 145.783 96.1034 146.31C96.4334 146.47 96.7391 146.498 97.0834 146.407C98.8155 145.938 100.507 145.367 102.166 144.67C104.61 143.645 106.616 142.072 108.19 139.947C109.684 137.93 110.964 135.768 112.431 133.73C113.426 132.346 114.491 131.027 115.845 129.971C116.644 129.358 117.518 128.888 118.543 128.754ZM62.1851 55.6311C62.2432 55.9059 62.3278 56.4307 62.4597 56.9416C64.0665 63.0366 70.105 66.817 76.2666 65.488C80.7247 64.5265 83.6661 61.7853 85.1582 57.4809C85.2759 57.1397 85.2606 56.8475 85.1091 56.5105C83.9423 53.916 83.562 51.2049 83.9817 48.3879C84.0339 48.0465 83.9733 47.7843 83.7864 47.4925C80.9691 43.1591 75.6893 41.1734 70.6757 42.5705C65.105 44.1214 61.4472 49.626 62.1851 55.6311ZM112.91 76.9019C113.503 78.0141 113.823 79.1311 114.014 80.2885C114.057 80.5446 114.193 80.5852 114.414 80.5174C115.752 80.1047 117.069 79.6496 118.216 78.8067C119.052 78.1899 119.729 77.4493 120.063 76.4362C120.537 74.9975 120.007 73.6038 118.693 72.8452C118.284 72.6092 117.85 72.4294 117.392 72.2974C115.704 71.8174 113.971 71.7473 112.233 71.7023C109.348 71.6259 106.465 71.7372 103.58 71.865C100.638 71.9958 97.7003 72.1914 94.7751 72.4917C90.5147 72.9306 86.2595 73.4465 82.0237 74.0867C78.5542 74.6128 75.0782 75.1193 71.6043 75.6092C69.6404 75.886 67.6736 76.1059 65.7082 76.3706C65.1095 76.4519 64.5136 76.5574 63.9268 76.7027C63.1849 76.8832 62.499 77.1876 62.0229 77.8382C61.3791 78.7217 61.583 79.7548 62.5175 80.3147C62.7601 80.4607 63.0223 80.5676 63.2972 80.6443C63.826 80.7921 64.366 80.865 64.9146 80.9083C66.6143 81.0437 68.3077 80.9267 70.003 80.8257C72.9394 80.6507 75.8749 80.435 78.8089 80.2072C81.3102 80.0159 83.8082 79.7637 86.3105 79.5805C87.6467 79.4826 88.9806 79.3318 90.3133 79.2057C92.926 78.9559 95.5326 78.6905 98.1448 78.4366C98.4195 78.4112 98.5732 78.2984 98.7112 78.0569C99.3207 76.9938 100.232 76.2901 101.386 75.912C102.129 75.6661 102.905 75.6365 103.683 75.6518C104.858 75.6716 106.02 75.6195 107.163 75.3082C107.815 75.1305 108.478 74.9719 109.155 74.8973C110.191 74.7789 111.115 75.0173 111.886 75.7116C112.207 75.9991 112.511 76.0478 112.91 75.9664C114.149 75.7128 115.375 75.4118 116.606 75.1225C117.035 75.0211 117.277 75.1017 117.36 75.3776C117.437 75.6418 117.264 75.8632 116.837 75.9807C116.383 76.1097 115.922 76.2111 115.465 76.3159C114.635 76.5113 113.812 76.6977 112.91 76.9019ZM65.4159 86.448C65.0845 87.7141 64.515 88.8376 63.9059 89.9375C63.8023 90.1258 63.7776 90.3249 63.7705 90.5342C63.7351 91.5149 63.6997 92.4956 63.6557 93.4733C63.4561 97.824 63.2073 102.173 62.901 106.52C62.5446 111.56 62.1596 116.599 61.5346 121.615C61.5171 121.772 61.4186 121.935 61.5589 122.114C62.6286 121.24 63.6422 120.307 64.6613 119.386C64.8786 119.192 64.7396 119.058 64.6314 118.908C64.1714 118.286 64.0681 117.608 64.2764 116.872C64.3962 116.448 64.5819 116.062 64.8103 115.691C65.1275 115.178 65.498 114.7 65.8686 114.222C66.8266 113.002 67.7223 111.74 68.4981 110.399C69.4629 108.733 70.4015 107.054 71.3533 105.381C72.6244 103.146 73.9804 100.97 75.599 98.971C77.3806 96.7678 79.3898 94.8228 81.8874 93.4309C81.9524 93.3944 82.0314 93.3725 82.0268 93.2341C81.8112 93.1747 81.586 93.1041 81.3578 93.0422C79.4017 92.5132 77.5144 91.8123 75.7168 90.8759C74.4079 90.1943 73.1572 89.4198 72.0589 88.4223C71.8241 88.2059 71.5931 88.0544 71.2616 88.0826C71.1117 88.0928 70.9604 88.0582 70.8115 88.0437C69.4387 87.9091 68.0828 87.6786 66.7941 87.162C66.3218 86.9746 65.8895 86.7128 65.4159 86.448ZM84.7359 86.4524C87.8574 86.0873 90.7227 85.5982 93.587 85.1338C94.853 84.93 96.1147 84.6901 97.3698 84.4305C99.327 84.032 101.281 83.6053 103.235 83.1867C104.911 82.8266 106.577 82.4147 108.24 81.9868C108.624 81.8867 108.645 81.8229 108.405 81.4968C107.632 80.4475 106.649 79.6933 105.389 79.3161C104.312 78.9903 103.204 78.8846 102.09 78.9268C101.309 78.9568 100.498 78.8067 99.7583 79.2036C99.7124 79.2296 99.6491 79.2128 99.5928 79.2197C97.8077 79.3888 96.0267 79.5574 94.2421 79.7306C92.7605 79.8749 91.2772 80.0398 89.7946 80.176C86.6033 80.4721 83.4061 80.7525 80.2075 80.9881C78.1182 81.1413 76.0324 81.3227 73.9471 81.4754C73.0078 81.5452 72.0646 81.5828 71.1244 81.6446C70.7677 81.6678 70.391 81.6607 70.0612 81.7705C69.4133 81.9845 68.7501 82.1064 68.0823 82.2248C67.4105 82.3436 66.7646 82.541 66.1531 82.8527C65.8494 83.0083 65.5657 83.1941 65.3311 83.4475C64.9598 83.8523 64.9017 84.3129 65.1418 84.8065C65.2673 85.0649 65.4564 85.2746 65.6711 85.4608C66.1187 85.8473 66.6275 86.1324 67.1761 86.3432C68.3468 86.7965 69.5705 87.0147 70.815 87.1363C73.4736 87.3956 76.1292 87.2631 78.7795 87.0536C80.8472 86.8908 82.9153 86.732 84.7359 86.4524ZM87.9976 142.729C88.0734 142.614 88.0208 142.551 87.9807 142.49C87.6345 141.997 87.2767 141.51 86.9416 141.008C86.114 139.785 85.1952 138.651 84.042 137.706C81.2035 135.372 78.1595 133.363 74.824 131.809C72.0737 130.532 69.2148 129.602 66.2011 129.178C63.2995 128.769 60.4132 128.819 57.5499 129.492C57.3713 129.534 57.1806 129.545 57.0413 129.709C57.1707 129.865 57.3632 129.903 57.532 129.98C61.032 131.542 64.4718 133.213 67.8104 135.093C70.0784 136.368 72.3301 137.678 74.3258 139.367C74.5085 139.524 74.7065 139.574 74.9414 139.59C76.2192 139.683 77.4902 139.854 78.7526 140.088C81.7081 140.638 84.5727 141.514 87.392 142.554C87.593 142.627 87.7914 142.746 87.9976 142.729ZM48.137 62.6955C48.2973 64.2079 48.8933 65.5077 49.9285 66.5905C51.8489 68.5986 54.2637 69.6721 56.934 70.2609C57.1396 70.3052 57.2855 70.2629 57.4389 70.1134C58.5963 68.9874 59.3926 67.6808 59.5556 66.039C59.6383 65.2119 59.6637 64.3835 59.6977 63.5582C59.738 62.6178 59.7864 61.6763 60.0379 60.7591C60.1563 60.3238 60.5531 59.9608 60.5025 59.5135C60.451 59.0582 60.2138 58.6214 60.0576 58.1789C60.0386 58.124 60.0241 58.0726 60.0092 58.0173C59.9335 57.7651 59.9303 57.4386 59.7643 57.2833C59.5706 57.1027 59.2292 57.2506 58.9556 57.2187C58.8606 57.2098 58.7696 57.2005 58.6746 57.1917C57.165 57.0412 55.7201 56.6172 54.2793 56.1601C53.7607 55.9947 53.2411 55.8212 52.7103 55.69C52.2851 55.5867 51.9232 55.6677 51.6326 55.9974C50.6452 57.1108 49.6543 58.2287 48.8927 59.5187C48.2752 60.5502 48.0121 61.6731 48.137 62.6955ZM96.6664 37.0207C89.1815 37.9518 83.8664 44.7701 84.7929 52.2515C85.7136 59.6518 92.5445 64.9695 99.97 64.0539C107.424 63.1389 112.716 56.3316 111.807 48.8603C110.949 41.8037 104.56 36.1582 96.6664 37.0207ZM84.2713 46.5794C84.4148 46.517 84.4056 46.4078 84.4491 46.3289C84.715 45.8307 84.5913 45.4536 84.2203 45.0251C80.6263 40.8888 74.857 39.2774 69.653 40.9878C62.5324 43.3287 58.6016 50.9787 60.9777 58.1195C62.6438 63.1288 66.1772 66.2675 71.3597 67.2561C76.4964 68.2379 80.8452 66.583 84.3135 62.6704C85.1823 61.6899 85.8418 60.5676 86.3738 59.371C86.4957 59.0987 86.522 58.8789 86.3099 58.6475C86.173 58.4967 86.1177 58.2788 85.8757 58.1368C84.7573 61.1536 82.8299 63.5012 80.004 65.0476C77.1553 66.6091 74.1242 67.0122 70.963 66.2832C65.6579 65.0605 61.7687 60.5476 61.2592 55.0743C60.7595 49.6815 63.7552 44.5764 68.7006 42.3543C73.787 40.0823 80.3893 41.2895 84.2713 46.5794ZM45.9517 71.0555C46.0996 71.0293 46.2481 71.007 46.3951 70.9727C47.1802 70.7787 47.4875 70.251 47.2472 69.4878C47.1465 69.1651 47.01 68.8509 46.8469 68.5521C46.5286 67.9537 46.1872 67.3663 45.8458 66.7789C44.8841 65.1275 44.1853 63.3541 43.479 61.5857C43.2077 60.9039 42.9164 60.2246 42.4452 59.6448C41.3508 58.312 39.8981 58.3588 38.9109 59.7744C38.1393 60.8819 37.7706 62.1444 37.5598 63.4611C37.5178 63.7195 37.5757 63.8922 37.8632 63.9714C38.1929 64.0619 38.4881 64.2382 38.7652 64.4331C39.3451 64.8321 39.8311 65.3324 40.2808 65.8698C41.5291 67.3595 42.7774 68.8493 43.7934 70.5104C43.8955 70.6777 44.0174 70.8057 44.216 70.8591C44.7899 71.0096 45.3565 71.1323 45.9517 71.0555ZM99.7069 78.1477C101.163 78.031 102.477 77.9808 103.794 78.0935C106.386 78.3159 108.352 79.526 109.673 81.7709C109.987 82.3084 110.268 82.8625 110.509 83.4335C110.827 84.1994 111.137 84.9663 111.467 85.7267C111.639 86.1266 111.86 86.4999 112.168 86.8136C112.718 87.3714 113.243 87.2541 113.488 86.5174C113.661 85.9898 113.672 85.4451 113.654 84.8958C113.593 83.1956 113.371 81.515 113.025 79.8537C112.847 79.0012 112.606 78.1646 112.148 77.4199C111.351 76.12 110.444 75.5119 108.742 75.8629C108.412 75.9319 108.082 76.0129 107.754 76.098C106.691 76.3627 105.622 76.571 104.516 76.5468C103.93 76.5367 103.347 76.5426 102.766 76.5687C101.555 76.6227 100.566 77.1194 99.7069 78.1477ZM36.9908 71.3417C37.0431 71.1678 36.9076 71.0618 36.843 70.9349C36.5838 70.4518 36.3558 69.9568 36.1586 69.4457C36.0382 69.1295 36.1385 68.8803 36.3882 68.7844C36.6148 68.6995 36.855 68.7927 36.9688 69.0893C37.4018 70.2252 38.0604 71.2355 38.704 72.2558C38.8502 72.483 39.0121 72.6716 39.2169 72.8427C40.1619 73.6219 41.1639 74.3328 42.1472 75.0583C42.5558 75.3597 42.8591 75.3676 43.2673 75.0644C43.7617 74.6976 43.9528 74.1881 43.9404 73.585C43.9191 72.7093 43.6024 71.9227 43.1578 71.1927C41.9771 69.2535 40.5494 67.4997 39.0179 65.8321C38.7777 65.5714 38.4891 65.3493 38.1944 65.1443C37.2607 64.4904 36.0176 64.5483 35.2402 65.5747C34.8217 66.1284 34.5494 66.7418 34.3766 67.4002C34.0726 68.5567 34.0584 69.7105 34.4833 70.8474C34.6286 71.2341 34.6306 71.2502 35.0553 71.1819C35.6083 71.0939 36.1453 71.1427 36.6755 71.3026C36.7735 71.3356 36.8774 71.4168 36.9908 71.3417ZM119.2 89.4962C119.134 89.492 119.116 89.4819 119.101 89.4879C118.98 89.5354 118.856 89.5873 118.736 89.6428C114.891 91.4118 110.853 92.5711 106.704 93.3478C103.656 93.9164 100.584 94.2509 97.4862 94.4089C94.5222 94.5587 91.5648 94.5279 88.6069 94.2929C88.4751 94.2845 88.3415 94.2273 88.1657 94.3264C88.2963 94.3921 88.3756 94.4396 88.458 94.4786C89.4979 94.9316 90.5748 95.2862 91.6802 95.5392C97.3879 96.8476 103.066 96.746 108.7 95.1384C112.371 94.0933 115.723 92.4009 118.691 89.9832C118.866 89.8393 119.06 89.7217 119.2 89.4962ZM57.8731 126.854C58.5404 127.267 59.2281 127.579 59.842 128.023C60.0082 128.146 60.1842 128.149 60.3779 128.129C63.317 127.876 66.2176 128.11 69.0756 128.831C75.2846 130.397 80.6271 133.564 85.3928 137.761C85.6949 138.026 85.9902 138.17 86.4817 138.147C83.1757 133.926 79.2772 130.575 74.3703 128.499C69.05 126.248 63.5314 125.819 57.8731 126.854ZM87.6735 138.438C87.9331 138.39 88.0358 138.194 88.1735 138.05C91.3861 134.753 94.7205 131.584 98.2144 128.583C102.385 125.002 106.748 121.69 111.615 119.094C111.688 119.056 111.79 119.019 111.766 118.83C111.484 118.624 111.169 118.388 110.85 118.154C110.608 117.975 110.432 117.637 110.147 117.61C109.832 117.579 109.588 117.883 109.328 118.062C105.459 120.667 101.828 123.583 98.3645 126.702C95.1767 129.567 92.1425 132.585 89.345 135.836C88.7652 136.507 88.213 137.204 87.7899 137.987C87.7237 138.114 87.5901 138.224 87.6735 138.438ZM120.913 47.5188C120.699 46.8055 120.659 46.7817 119.996 46.8709C119.193 46.9814 118.393 47.0914 117.59 47.2058C116.025 47.4339 114.46 47.666 112.898 47.8896C112.669 47.9216 112.565 48.0078 112.596 48.2574C112.626 48.507 112.709 48.648 112.988 48.5935C113.08 48.5741 113.173 48.5708 113.27 48.559C115.643 48.2567 118.013 47.9549 120.381 47.6491C120.562 47.6229 120.757 47.6481 120.913 47.5188ZM78.1769 129.426C78.1115 128.691 77.7896 128.13 77.4215 127.558C77.0556 127.839 76.7429 128.123 76.4342 128.471C77.0428 128.805 77.6119 129.116 78.1769 129.426ZM65.6983 65.9257C65.7366 66.2397 65.7671 66.4892 65.8045 66.7951C65.9937 66.6045 66.1434 66.4596 66.2435 66.2758C66.0846 66.1113 65.9334 66.0113 65.6983 65.9257Z" fill="#070504"/>
<path d="M129.51 137.219C129.22 137.459 128.936 137.706 128.637 137.934C128.372 138.138 128.351 138.133 128.201 137.812C127.556 136.408 126.918 134.999 126.268 133.595C123.808 128.27 121.274 122.979 118.868 117.631C118.744 117.356 118.621 117.081 118.509 116.801C118.281 116.236 118.16 116.182 117.57 116.409C116.443 116.841 115.331 117.308 114.227 117.802C113.902 117.948 113.558 118.072 113.258 118.264C112.891 118.501 112.611 118.42 112.292 118.177C111.827 117.822 111.37 117.457 110.931 117.069C110.238 116.451 110.234 116.448 109.434 116.958C106.809 118.639 104.34 120.538 101.925 122.504C97.2962 126.281 92.9769 130.383 89.0232 134.87C88.6755 135.268 88.3374 135.677 88.0164 136.092C87.6953 136.507 87.3974 136.944 87.0858 137.37C86.9214 137.362 86.876 137.224 86.8028 137.127C85.2756 135.193 83.5516 133.455 81.6416 131.899C81.3736 131.679 81.2349 131.447 81.1926 131.1C80.9337 128.848 80.8534 126.587 80.8707 124.321C80.9196 117.534 81.5965 110.804 82.6446 104.103C82.6692 103.937 82.7059 103.769 82.7094 103.597C82.7171 103.359 82.5913 103.198 82.3535 103.158C82.1197 103.117 81.9434 103.212 81.8608 103.439C81.8025 103.597 81.7739 103.764 81.7327 103.928C81.6812 103.976 81.66 104.035 81.6809 104.106C81.6919 104.13 81.6898 104.146 81.6676 104.165C81.4651 104.28 81.4394 104.504 81.3684 104.692C81.1419 105.312 80.945 105.941 80.6928 106.552C79.8573 108.574 79.2053 110.659 78.6246 112.761C77.6593 116.261 76.8332 119.798 76.0659 123.348C76.0267 123.528 76.0226 123.729 75.8272 123.835C74.2857 122.119 72.6358 120.519 70.7978 119.118C69.7302 118.305 68.6424 117.527 67.4536 116.892C67.2391 116.775 67.011 116.68 66.7865 116.581C66.5534 116.479 66.34 116.505 66.1875 116.728C66.0451 116.933 66.1029 117.138 66.3583 117.356C66.4135 117.407 66.4828 117.439 66.5717 117.498C66.3347 117.899 65.9522 118.145 65.6305 118.454C65.5205 118.558 65.4236 118.5 65.35 118.399C65.123 118.079 64.9876 117.74 65.0652 117.339C65.13 117 65.2596 116.69 65.4229 116.388C65.66 115.955 65.9423 115.557 66.2506 115.172C67.9288 113.091 69.3282 110.837 70.6203 108.506C71.9558 106.096 73.2828 103.682 74.8648 101.418C76.0576 99.7114 77.3692 98.109 78.9087 96.6994C80.18 95.535 81.5494 94.5056 83.1487 93.8199C83.5098 93.6655 83.8534 93.6358 84.2446 93.6942C85.0148 93.8125 85.7103 94.0543 86.3998 94.4481C88.9434 95.9062 91.734 96.611 94.616 96.9941C98.2542 97.481 101.882 97.4502 105.496 96.8003C110.54 95.8897 115.146 93.9664 119.159 90.7307C120.13 89.9502 121.091 89.1547 121.809 88.115C121.91 87.9679 122.079 87.9105 122.223 87.8234C124.183 86.6729 126.014 85.3501 127.67 83.7874C127.912 83.5577 128.174 83.399 128.508 83.3541C129.391 83.4627 130.164 83.838 130.869 84.3605C132.36 85.4571 133.717 86.7047 135.033 88.0065C137.622 90.5743 139.995 93.3115 141.92 96.4303C143.28 98.6295 144.524 100.888 145.673 103.203C147.546 106.965 149.211 110.826 150.884 114.683C151.048 115.059 151.287 115.414 151.303 115.845C147.397 116.641 143.707 118.068 140.079 119.672C138.699 120.282 137.341 120.938 136.027 121.683C135.897 121.756 135.758 121.826 135.648 121.925C135.49 122.067 135.477 122.261 135.569 122.445C135.666 122.638 135.846 122.714 136.044 122.657C136.221 122.607 136.389 122.509 136.554 122.419C137.118 122.121 137.662 121.789 138.319 121.521C138.513 122.433 138.7 123.297 138.882 124.157C138.922 124.344 138.864 124.437 138.655 124.438C137.675 124.439 136.691 124.445 135.733 124.19C135.42 124.106 135.121 123.999 134.83 123.859C134.178 123.535 133.765 123.029 133.659 122.295C133.634 122.126 133.601 121.959 133.597 121.788C133.506 119.237 132.843 116.794 132.142 114.363C130.697 109.359 129.028 104.428 127.469 99.4586C126.986 97.9122 126.487 96.3676 126.117 94.7828C126.091 94.6715 126.058 94.5653 126.024 94.4551C125.948 94.2315 125.787 94.1164 125.548 94.1374C125.322 94.1569 125.182 94.3496 125.183 94.6233C125.184 94.7334 125.214 94.8482 125.228 94.9609C125.172 94.9678 125.116 94.9787 125.059 94.9856C124.489 95.0675 124.429 95.1729 124.598 95.7242C124.701 96.067 124.792 96.4113 124.892 96.7546C125.262 98.0819 125.361 99.4589 125.596 100.811C126.026 103.259 126.263 105.738 126.601 108.201C127.202 112.589 127.828 116.973 128.152 121.395C128.254 122.763 128.51 124.121 128.544 125.502C128.568 126.438 128.719 127.372 128.781 128.312C128.894 130.039 129.031 131.766 129.18 133.488C129.313 134.743 129.355 135.984 129.51 137.219Z" fill="#CF9356"/>
<path d="M46.8446 142.08C46.5986 140.836 46.5543 139.571 46.5306 138.307C46.4164 132.659 46.9228 127.041 47.4292 121.423C48.0584 114.471 49.0522 107.559 50.0466 100.652C50.4029 98.1861 50.71 95.7178 50.9708 93.2388C51.0034 92.9366 51.0036 92.671 51.433 92.7084C51.6352 92.7246 51.7835 92.5676 51.8022 92.3529C51.8224 92.1175 51.7163 91.9507 51.4866 91.8767C51.3806 91.8447 51.267 91.8177 51.1584 91.7983C49.6185 91.533 48.182 90.9773 46.7896 90.2814C44.0657 88.9188 41.4404 87.3931 39.0691 85.4728C37.2418 83.9925 35.715 82.2631 34.7588 80.0881C33.9965 78.3633 33.4999 76.5733 33.5444 74.6641C33.5562 74.2255 33.6182 73.7972 33.7642 73.3871C34.1231 72.3792 34.9191 71.906 35.9805 72.0664C36.3968 72.1299 36.7796 72.2874 37.1432 72.4881C37.441 72.6519 37.7358 72.8242 38.0023 73.0327C39.3082 74.0578 40.6283 75.0649 41.966 76.0494C42.3611 76.3402 42.7213 76.6802 43.0296 77.0633C43.2702 77.3607 43.4649 77.6842 43.5439 78.0626C43.6923 78.7757 43.3348 79.2933 42.6132 79.406C42.0763 79.4921 41.5625 79.3669 41.057 79.2081C40.1725 78.924 39.3523 78.4972 38.5488 78.0398C38.3339 77.919 38.129 77.7806 37.9116 77.6724C37.6067 77.5176 37.353 77.5813 37.2266 77.8174C37.1138 78.0313 37.1786 78.2604 37.4613 78.4342C38.6539 79.1668 39.8692 79.8516 41.2429 80.1944C41.74 80.3175 42.2418 80.3788 42.7556 80.3037C43.0605 80.2583 43.3796 80.1948 43.5909 79.9851C43.9444 79.6355 44.2752 79.7013 44.6615 79.887C45.1347 80.1151 45.6286 80.3121 46.1119 80.5227C48.1113 81.4059 49.83 82.6666 51.2978 84.2807C51.4487 84.4461 51.6082 84.6145 51.7844 84.7523C51.9656 84.8976 52.1738 84.8967 52.3488 84.7242C52.5163 84.5566 52.541 84.3575 52.4027 84.162C52.318 84.0375 52.2031 83.9331 52.1038 83.8227C50.1674 81.6163 47.7567 80.1093 45.0354 79.0692C44.9113 79.023 44.7903 78.9684 44.6662 78.9223C44.529 78.8696 44.4412 78.7863 44.4628 78.6285C44.5709 77.7083 44.1398 76.9889 43.5803 76.3219C43.5227 76.2513 43.4454 76.1872 43.4447 76.0811C44.9548 74.7322 44.9833 74.6307 44.5788 71.9226C44.7616 71.8471 44.9439 71.9351 45.1255 71.9497C45.7732 72.0013 46.4136 71.9598 47.0154 71.7024C48.0059 71.2832 48.4299 70.3734 48.1445 69.3421C48.0065 68.8482 47.8137 68.3734 47.5443 67.9406C46.2178 65.7782 45.1614 63.4847 44.2555 61.1197C43.8664 60.1092 43.3892 59.1461 42.5114 58.4486C42.3122 58.2891 42.3856 58.1208 42.4454 57.9419C42.701 57.1917 42.9516 56.4339 43.3413 55.7449C44.3966 53.8837 45.6217 52.1408 47.0716 50.5664C47.2229 50.4008 47.3923 50.2494 47.5613 50.0939C48.8496 48.9029 50.3582 48.5102 52.0648 48.8695C52.5806 48.9781 53.0912 49.1118 53.5942 49.2832C55.4922 49.9377 57.293 50.8003 59.0816 51.697C59.4126 51.8649 59.5379 52.0538 59.4915 52.4435C59.3516 53.5718 59.3752 54.7006 59.5375 55.8287C59.5598 55.9771 59.5981 56.1236 59.5332 56.2949C59.0678 56.3641 58.6043 56.2818 58.1422 56.2116C56.9059 56.0236 55.7108 55.6713 54.5278 55.2848C53.9705 55.1037 53.4172 54.9221 52.8422 54.7963C52.0907 54.6307 51.4604 54.8221 50.9458 55.3916C49.9706 56.4708 49.0184 57.5717 48.251 58.8135C46.7706 61.2086 46.9094 63.6142 48.3338 65.9771C49.1179 67.2785 50.253 68.2428 51.5284 69.0511C53.2556 70.1473 55.148 70.823 57.1422 71.2289C57.3935 71.2798 57.5758 71.2004 57.7558 71.0354C59.3795 69.546 60.417 67.7728 60.5007 65.5157C60.5405 64.4037 60.6009 63.2933 60.6774 62.1809C60.7084 61.6992 60.7797 61.2125 60.9826 60.7669C61.1777 60.7921 61.2079 60.9395 61.2705 61.0504C62.0744 62.48 63.101 63.7272 64.3319 64.8065C64.5787 65.0214 64.7044 65.2471 64.7316 65.5706C64.795 66.3227 64.9267 67.0665 64.901 67.8254C64.8896 68.1005 64.8367 68.3358 64.7148 68.5754C63.5942 70.7386 63.0145 73.0482 62.9686 75.4805C62.9609 75.8859 62.8587 76.119 62.4719 76.297C61.8418 76.5905 61.3662 77.0776 61.0375 77.6978C60.4176 78.8766 60.741 80.1853 61.8389 80.9458C62.4413 81.3624 63.1258 81.581 63.8372 81.6861C64.3782 81.7671 64.9249 81.7942 65.47 81.842C65.5731 81.8498 65.6766 81.8617 65.7888 81.8766C65.7303 82.1002 65.5612 82.1209 65.4438 82.1965C65.141 82.3929 64.8567 82.6074 64.6206 82.8813C64.0125 83.5889 63.887 84.4335 64.3535 85.2426C64.5758 85.624 64.593 85.965 64.4868 86.3661C64.2422 87.307 63.8033 88.1614 63.3648 89.0198C63.2197 89.303 63.0575 89.5802 62.8998 89.861C62.826 89.9925 62.7321 90.1266 62.7593 90.2826C62.962 91.3731 62.7845 92.4611 62.7377 93.5494C62.4836 99.259 62.1309 104.964 61.6831 110.661C61.3473 114.967 60.9537 119.268 60.3534 123.549C60.3273 123.736 60.2931 123.924 60.2915 124.112C60.2873 124.378 60.4482 124.559 60.6805 124.588C60.9088 124.617 61.1577 124.48 61.1493 124.212C61.1305 123.556 61.5835 123.252 62.0025 122.902C63.7554 121.434 65.4245 119.882 67.0967 118.321C67.5148 117.931 67.5183 117.926 67.9978 118.24C68.2021 118.374 68.4307 118.473 68.5962 118.657C68.605 118.729 68.6104 118.806 68.6313 118.877C68.9441 119.999 69.3656 121.075 69.8622 122.13C70.1717 122.79 70.4812 123.451 70.7097 124.15C70.8997 124.736 70.9102 125.29 70.4934 125.791C70.397 125.904 70.3102 126.029 70.3137 126.192C69.2177 126.016 68.1299 125.773 67.0273 125.642C63.8193 125.266 60.6286 125.366 57.4551 125.974C57.1597 126.031 56.8663 126.104 56.5729 126.176C56.1798 126.269 56.0022 126.454 55.9903 126.758C55.9778 127.091 56.2043 127.206 56.4692 127.3C57.1063 127.533 57.7217 127.821 58.3244 128.14C58.3896 128.173 58.466 128.196 58.4974 128.319C58.2807 128.451 58.0212 128.467 57.775 128.525C57.0764 128.693 56.3819 128.859 55.6833 129.026C55.417 129.087 55.2486 129.247 55.1955 129.515C55.1364 129.8 55.2506 129.966 55.6395 130.139C56.5683 130.552 57.5078 130.952 58.4336 131.374C59.9743 132.081 61.5226 132.782 63.0142 133.588C62.9564 133.751 62.8464 133.887 62.7259 134.003C61.9996 134.713 61.2879 135.442 60.5381 136.126C58.8594 137.667 57.1903 139.219 55.4219 140.66C54.0436 141.785 52.5258 142.636 50.8309 143.142C49.6997 143.48 48.5938 143.423 47.6405 142.575C47.4087 142.383 47.1896 142.128 46.8446 142.08Z" fill="#6E4F93"/>
<path d="M79.4229 91.4552C77.278 90.7859 75.3137 89.7554 73.5021 88.4367C73.4574 88.4054 73.4228 88.3565 73.3888 88.3116C73.3792 88.3005 73.3884 88.2749 73.3866 88.1934C73.8428 88.1826 74.3016 88.1592 74.7593 88.1605C76.0826 88.1581 77.3997 88.0707 78.7153 87.9712C83.0835 87.6457 87.4253 87.0702 91.7469 86.3623C95.0233 85.8271 98.2848 85.2038 101.532 84.5006C103.948 83.9766 106.358 83.433 108.741 82.7821C109.145 82.6716 109.149 82.6711 109.343 83.0599C109.703 83.7676 109.978 84.5102 110.272 85.2464C110.484 85.7721 110.71 86.2918 111.014 86.7695C111.257 87.1564 111.545 87.5012 111.928 87.7608C112.698 88.2835 113.588 88.1054 114.088 87.3171C114.414 86.8075 114.503 86.2328 114.536 85.6404C114.578 84.8468 114.502 84.0554 114.442 83.2661C114.412 82.8531 114.35 82.4399 114.303 82.0289C114.243 81.4971 114.242 81.489 114.771 81.3386C115.371 81.1672 115.96 80.9727 116.54 80.7384C117.995 80.1478 119.311 79.3497 120.238 78.0395C121.095 76.8317 121.417 75.5178 120.894 74.0783C120.549 73.1278 119.864 72.468 119 71.9853C117.855 71.3448 116.59 71.1236 115.311 70.9857C113.319 70.7675 111.322 70.7665 109.318 70.7867C106.902 70.8082 104.489 70.9152 102.081 71.0338C100.704 71.104 99.3299 71.1902 97.9589 71.3046C92.3122 71.7659 86.6955 72.4727 81.094 73.3043C78.799 73.6461 76.496 73.9561 74.2024 74.3099C71.5164 74.728 68.8195 75.0576 66.1245 75.4033C65.5253 75.4806 64.926 75.5579 64.3382 75.6951C63.9129 75.792 63.8712 75.7522 63.8885 75.3252C63.9291 74.2866 64.0526 73.2584 64.3049 72.2471C64.7168 70.6035 65.3579 69.0626 66.3139 67.6589C66.376 67.5655 66.4421 67.4717 66.5088 67.3818C67.0156 66.7153 67.0237 66.7143 67.7943 67.0695C73.8505 69.8591 80.939 68.2248 85.1576 63.0643C85.8147 62.2568 86.3739 61.3837 86.8448 60.456C86.9368 60.2731 86.9887 60.0625 87.1686 59.9302C87.3883 59.9892 87.4863 60.1896 87.6227 60.3364C90.547 63.4393 94.146 65.0421 98.4058 65.0322C106.187 65.0209 112.582 58.7488 112.796 50.9728C112.807 50.5956 112.802 50.2163 112.785 49.8426C112.772 49.6031 112.86 49.4902 113.095 49.4778C113.225 49.4701 113.357 49.4458 113.49 49.4296C115.738 49.1425 117.983 48.856 120.232 48.5689C120.437 48.5438 120.644 48.5349 120.85 48.5178C120.992 48.909 121.364 49.1087 121.613 49.4052C122.711 50.7008 123.855 51.9459 125.063 53.1342C126.001 54.0572 126.917 55.0033 127.873 55.9078C128.529 56.5263 129.185 57.1488 129.852 57.7577C130.243 58.1144 130.639 58.4786 130.478 59.1029C130.462 59.1702 130.492 59.2523 130.501 59.3247C130.587 60.0618 130.878 60.7412 131.134 61.4289C131.552 62.5422 131.832 63.6928 132.075 64.8478C132.28 65.8236 132.276 66.825 132.247 67.8254C132.189 69.8588 131.801 71.8304 131.157 73.7515C130.465 75.8093 129.256 77.587 128.004 79.3374C127.717 79.736 127.345 80.0634 127.044 80.4474C126.415 81.2514 125.704 81.9798 124.949 82.6603C122.558 84.8195 119.898 86.5907 116.993 87.9875C115.345 88.7812 113.651 89.4621 111.897 89.9869C110.585 90.3802 109.273 90.7774 107.928 91.0725C107.487 91.1714 107.037 91.2305 106.606 91.3525C105.808 91.5767 104.989 91.7258 104.177 91.8332C102.123 92.1087 100.072 92.4084 97.9966 92.5068C97.3225 92.5402 96.6434 92.566 95.9689 92.5953C94.8637 92.6446 93.7553 92.5676 92.6462 92.5846C91.3655 92.6022 90.0892 92.5212 88.8175 92.4111C85.7787 92.1492 82.7481 91.821 79.7289 91.3852C79.6083 91.3672 79.5027 91.3393 79.4229 91.4552Z" fill="#6E4F93"/>
<path d="M85.3049 154.458C87.4531 154.988 89.6059 155.522 91.7542 156.052C91.8809 156.086 92.0085 156.127 92.1377 156.148C92.4329 156.19 92.6535 156.056 92.701 155.81C92.75 155.542 92.6107 155.371 92.376 155.29C92.0941 155.189 91.8036 155.119 91.5151 155.031C91.4993 154.735 91.2721 154.681 91.0484 154.623C90.7192 154.536 90.3849 154.475 90.0648 154.363C88.2337 153.721 86.4123 153.057 84.6141 152.316C83.5128 151.863 82.4601 151.305 81.5695 150.503C80.7296 149.747 79.8968 148.983 78.9999 148.296C78.8914 148.211 78.7206 148.151 78.7766 147.907C79.1228 147.864 79.4627 148.072 79.8125 147.993L79.8256 147.999C79.8773 148.021 79.9331 148.043 79.9848 148.065C80.0391 148.075 80.1005 148.076 80.1482 148.099C82.1473 148.912 84.238 149.372 86.3524 149.759C88.6926 150.188 90.9749 150.812 93.1218 151.865C93.2047 151.908 93.2911 151.946 93.384 151.972C93.6208 152.037 93.7921 151.934 93.8937 151.73C93.9888 151.538 93.9451 151.348 93.7749 151.225C93.5917 151.097 93.3842 151.004 93.1868 150.893C93.1639 150.638 93.0074 150.494 92.7833 150.399C92.507 150.277 92.2307 150.156 91.9645 150.017C90.0549 149.033 88.1037 148.144 86.0787 147.419C84.9597 147.02 83.8341 146.635 82.7251 146.219C81.1494 145.627 79.5234 145.225 77.8836 144.878C75.5436 144.384 73.1918 143.961 70.8946 143.281C69.9241 142.995 68.9415 142.711 67.9263 142.594C67.9071 142.102 68.1997 141.789 68.555 141.52C69.2017 141.029 69.9578 140.797 70.7454 140.656C72.6999 140.303 74.6557 140.428 76.607 140.684C80.5223 141.198 84.2689 142.337 87.9454 143.739C90.431 144.689 92.8559 145.778 95.259 146.922C95.4283 147.003 95.6394 147.059 95.7461 147.197C96.0248 147.539 96.3564 147.511 96.7182 147.43C98.9926 146.919 101.175 146.158 103.285 145.173C105.376 144.199 107.121 142.793 108.55 140.984C109.417 139.885 110.19 138.724 110.959 137.56C112.037 135.921 113.102 134.271 114.355 132.757C115.031 131.939 115.75 131.169 116.618 130.548C117.287 130.07 118.007 129.713 118.845 129.647C119.229 129.617 119.598 129.661 119.955 129.806C120.741 130.126 121.133 130.826 120.999 131.664C120.88 132.397 120.483 132.993 120.024 133.552C119.488 134.21 118.874 134.799 118.254 135.382C116.822 136.729 115.653 138.261 114.935 140.114C114.69 140.748 114.492 141.397 114.352 142.064C114.329 142.173 114.302 142.287 114.303 142.397C114.309 142.613 114.436 142.748 114.638 142.797C114.844 142.845 115.006 142.764 115.115 142.584C115.224 142.407 115.183 142.175 115.323 142.015C115.412 142.012 115.468 142.067 115.516 142.126C116.621 143.409 117.539 144.804 118.118 146.404C118.377 147.116 118.509 147.86 118.604 148.608C118.627 148.797 118.642 148.983 118.685 149.166C118.759 149.475 118.94 149.617 119.194 149.586C119.451 149.554 119.597 149.377 119.557 149.051C119.488 148.451 119.411 147.852 119.285 147.262C119.212 146.932 119.308 146.745 119.557 146.543C124.116 142.762 128.669 138.97 133.373 135.368C135.214 133.959 137.075 132.567 138.965 131.225C140.071 130.44 141.185 129.662 142.339 128.945C142.449 128.875 142.567 128.807 142.663 128.718C142.846 128.548 142.879 128.279 142.735 128.109C142.587 127.931 142.383 127.87 142.177 127.989C141.834 128.19 141.51 128.413 141.172 128.622C141.001 128.729 140.847 128.87 140.659 128.906C140.535 128.827 140.536 128.729 140.524 128.636C140.297 126.339 139.794 124.097 139.295 121.85C139.284 121.794 139.289 121.736 139.286 121.679C140.659 121.413 142.063 121.47 143.445 121.277C144.602 121.115 145.769 121.005 146.926 120.843C147.677 120.739 148.429 120.807 149.178 120.826C149.535 120.835 149.756 121.004 149.9 121.346C150.478 122.701 150.859 124.117 151.114 125.565C151.261 126.397 151.323 127.239 151.345 128.094C151.369 129.055 151.4 130.012 151.308 130.966C151.205 132.058 150.972 133.128 150.369 134.076C149.676 135.161 148.842 136.125 147.885 136.986C146.14 138.551 144.263 139.937 142.327 141.248C139.188 143.372 136.019 145.458 132.804 147.461C131.285 148.406 129.767 149.36 128.244 150.298C126.302 151.491 124.346 152.666 122.347 153.764C120.935 154.541 119.435 155.104 117.86 155.419C116.688 155.656 115.57 156.005 114.476 156.482C112.929 157.157 111.552 158.126 110.137 159.018C108.635 159.966 107.084 160.813 105.454 161.515C103.894 162.188 102.278 162.671 100.588 162.918C99.7897 163.036 98.9878 163.093 98.1913 163.195C98.0222 163.216 97.8537 163.24 97.6852 163.232C96.8795 163.192 96.0686 163.242 95.2662 163.128C95.1289 163.108 95.0011 163.131 94.9142 163.256C92.6141 162.888 90.2802 161.273 89.9472 159.819C90.0632 159.698 90.1958 159.78 90.3134 159.807C91.4817 160.04 92.667 160.112 93.8533 160.191C93.9479 160.196 94.0429 160.205 94.136 160.198C94.3915 160.183 94.5775 160.066 94.5973 159.794C94.6177 159.526 94.4667 159.361 94.2053 159.327C93.8895 159.284 93.5692 159.27 93.2504 159.235C92.9522 159.202 92.6448 159.228 92.3548 159.128C92.3211 158.953 92.1759 158.901 92.0342 158.845C91.4449 158.602 90.8546 158.352 90.2653 158.109C89.5684 157.822 88.8822 157.522 88.2612 157.088C87.2913 156.405 86.442 155.574 85.5146 154.837C85.4077 154.732 85.3205 154.62 85.3049 154.458Z" fill="#6E4F93"/>
<path d="M85.0068 44.5842C83.6535 43.0378 82.0736 41.7766 80.2191 40.8756C78.3646 39.9747 76.3967 39.5166 74.3096 39.4203C74.3793 39.1218 74.5999 39.0213 74.7592 38.8874C76.7822 37.2226 79.0031 35.8727 81.3626 34.755C83.9307 33.5383 86.6085 32.6514 89.3791 32.0228C91.963 31.4374 94.579 31.0809 97.2239 30.9947C103.08 30.8061 108.716 31.8331 114.103 34.1611C114.832 34.4765 115.548 34.818 116.2 35.2734C116.379 35.3987 116.564 35.4741 116.779 35.3621C116.921 35.2875 117.066 35.3065 117.22 35.3245C120.902 35.7692 124.517 36.5 128 37.8228C131.684 39.2232 135.075 41.1293 138.055 43.7188C139.833 45.2663 141.386 47.0049 142.436 49.1439C143.077 50.4504 143.449 51.8225 143.344 53.298C143.178 55.5896 141.574 57.3667 139.308 57.7825C137.741 58.0679 136.23 57.8319 134.739 57.3318C132.787 56.6756 131.028 55.6487 129.36 54.4717C127.147 52.9119 125.106 51.1554 123.32 49.1104C121.967 47.56 120.91 45.8304 120.222 43.884C120.185 43.7782 120.151 43.668 120.102 43.5678C119.962 43.2907 119.741 43.191 119.508 43.289C119.279 43.3864 119.183 43.6024 119.282 43.909C119.383 44.2317 119.519 44.5459 119.631 44.8631C119.76 45.211 119.974 45.528 120.039 45.8918C119.895 46.0197 119.738 46.0062 119.593 46.0239C117.41 46.3398 115.221 46.6522 113.037 46.968C112.961 46.9774 112.889 46.9903 112.812 46.9996C112.393 47.0468 112.389 47.0472 112.266 46.6415C111.86 45.2572 111.318 43.9304 110.51 42.7341C107.506 38.2764 103.301 35.9265 97.9393 36.0792C92.2969 36.2418 88.1015 38.985 85.3913 43.953C85.2811 44.1544 85.2272 44.3816 85.0068 44.5842Z" fill="#6E4F93"/>
<path d="M118.543 128.757C117.522 128.89 116.648 129.36 115.845 129.981C114.491 131.037 113.427 132.356 112.432 133.74C110.969 135.778 109.685 137.941 108.191 139.958C106.617 142.086 104.611 143.659 102.166 144.681C100.511 145.374 98.8155 145.944 97.0839 146.417C96.7401 146.513 96.4344 146.485 96.1039 146.321C95.039 145.797 93.9564 145.296 92.8749 144.803C92.6242 144.691 92.434 144.539 92.2721 144.317C91.1041 142.716 89.925 141.123 88.7539 139.53C88.4402 139.103 88.4459 139.049 88.8126 138.673C92.5346 134.865 96.407 131.217 100.506 127.82C102.991 125.759 105.569 123.818 108.289 122.072C111.092 120.271 114.035 118.743 117.134 117.531C117.204 117.502 117.275 117.477 117.345 117.452C117.721 117.321 117.733 117.319 117.896 117.683C118.248 118.457 118.592 119.232 118.948 120.002C121.208 124.861 123.477 129.715 125.733 134.574C126.288 135.773 126.828 136.977 127.371 138.182C127.617 138.723 127.618 138.735 127.183 139.083C124.564 141.188 121.992 143.345 119.412 145.499C119.353 145.547 119.297 145.594 119.233 145.639C118.932 145.851 118.908 145.854 118.751 145.502C118.134 144.135 117.343 142.875 116.378 141.731C116.23 141.557 116.097 141.369 115.924 141.227C115.638 140.988 115.652 140.737 115.777 140.424C116.36 138.943 117.246 137.666 118.358 136.538C119.23 135.651 120.186 134.844 120.937 133.841C121.373 133.26 121.717 132.634 121.862 131.918C122.175 130.364 121.21 129.019 119.615 128.769C119.26 128.706 118.899 128.693 118.543 128.757Z" fill="#3F713F"/>
<path d="M62.1844 55.6295C61.4469 49.6285 65.1087 44.1234 70.6754 42.5729C75.689 41.1759 80.9693 43.1656 83.7862 47.495C83.9725 47.7827 84.0336 48.0489 83.9814 48.3903C83.5617 51.2074 83.942 53.9185 85.1088 56.513C85.2608 56.8539 85.2801 57.1457 85.1579 57.4834C83.6658 61.7878 80.7244 64.529 76.2663 65.4905C70.1047 66.8195 64.0662 63.0391 62.4594 56.9441C62.323 56.4297 62.2425 55.9043 62.1844 55.6295Z" fill="#A2EAF0"/>
<path d="M94.9291 163.251C95.0159 163.126 95.1397 163.102 95.281 163.122C96.0835 163.236 96.8944 163.186 97.7001 163.227C97.8685 163.235 98.0371 163.21 98.2062 163.189C99.0027 163.088 99.8046 163.031 100.603 162.913C102.293 162.665 103.909 162.186 105.469 161.509C107.099 160.808 108.65 159.96 110.152 159.013C111.567 158.121 112.944 157.152 114.491 156.477C115.581 156 116.702 155.647 117.875 155.414C119.45 155.099 120.95 154.535 122.362 153.758C124.36 152.66 126.313 151.486 128.259 150.292C129.782 149.354 131.3 148.405 132.818 147.455C136.037 145.448 139.202 143.366 142.342 141.242C144.277 139.931 146.154 138.542 147.9 136.98C148.861 136.119 149.695 135.155 150.384 134.07C150.987 133.122 151.22 132.052 151.323 130.961C151.415 130.01 151.384 129.05 151.36 128.088C151.338 127.237 151.275 126.391 151.129 125.559C150.875 124.116 150.493 122.7 149.915 121.341C149.771 121.003 149.55 120.829 149.193 120.82C148.443 120.801 147.692 120.734 146.94 120.838C145.784 121 144.616 121.11 143.46 121.271C142.078 121.465 140.674 121.408 139.301 121.673C139.153 121.099 139.153 121.095 139.651 120.863C142.687 119.466 145.789 118.237 149.002 117.318C149.946 117.047 150.897 116.808 151.871 116.685C152.152 116.651 152.288 116.696 152.403 117C153.257 119.306 153.877 121.673 154.399 124.069C154.84 126.078 155.218 128.095 155.468 130.14C155.724 132.208 155.219 134.055 154.034 135.757C152.691 137.673 151.034 139.289 149.294 140.83C147.115 142.759 144.796 144.509 142.413 146.173C138.34 149.015 134.145 151.656 129.734 153.944C126.376 155.682 122.884 157.093 119.276 158.225C118.953 158.325 118.632 158.434 118.306 158.539C118.14 158.592 118.051 158.562 117.963 158.377C117.756 157.924 117.547 157.88 117.142 158.208C116.2 158.964 115.278 159.743 114.337 160.499C112.995 161.582 111.54 162.479 109.99 163.24C107.374 164.532 104.63 164.974 101.741 164.571C99.5552 164.266 97.3906 163.836 95.2336 163.369C95.1325 163.344 95.0133 163.339 94.9291 163.251Z" fill="#5A3A83"/>
<path d="M112.91 76.9042C113.813 76.6999 114.64 76.5131 115.462 76.3227C115.923 76.2174 116.38 76.1125 116.835 75.9875C117.261 75.8659 117.438 75.6441 117.357 75.3843C117.275 75.1085 117.032 75.0278 116.603 75.1293C115.372 75.4186 114.146 75.7195 112.907 75.9732C112.504 76.055 112.201 76.0104 111.883 75.7183C111.111 75.0201 110.188 74.7857 109.153 74.904C108.472 74.9832 107.813 75.1413 107.16 75.315C106.017 75.6222 104.855 75.6784 103.681 75.6585C102.906 75.6428 102.126 75.6729 101.384 75.9188C100.229 76.2969 99.3185 77.0046 98.7085 78.0637C98.57 78.3012 98.4168 78.418 98.1421 78.4434C95.5294 78.6932 92.9227 78.9586 90.3105 79.2125C88.9778 79.3386 87.644 79.4893 86.3078 79.5873C83.806 79.7745 81.3075 80.0227 78.8061 80.2139C75.8721 80.4418 72.9361 80.6535 70.0002 80.8325C68.3089 80.933 66.6116 81.0505 64.9119 80.9151C64.3672 80.8713 63.8232 80.7989 63.2945 80.6511C63.0196 80.5744 62.7573 80.4675 62.5148 80.3215C61.5803 79.7616 61.3764 78.7284 62.0201 77.845C62.4962 77.1944 63.1781 76.8905 63.924 76.7095C64.5109 76.5642 65.1067 76.4587 65.7055 76.3774C67.6709 76.1127 69.6416 75.8923 71.6015 75.616C75.0754 75.1261 78.5514 74.6196 82.0209 74.0935C86.2563 73.4493 90.5119 72.9374 94.7724 72.4984C97.6975 72.1982 100.64 72.0021 103.577 71.8718C106.458 71.7445 109.345 71.6327 112.23 71.709C113.964 71.7546 115.701 71.8242 117.389 72.3042C117.846 72.4322 118.281 72.616 118.69 72.852C120.004 73.6106 120.534 75.0043 120.06 76.443C119.727 77.4561 119.054 78.2002 118.214 78.8135C117.07 79.6559 115.749 80.1114 114.411 80.5242C114.19 80.592 114.051 80.5519 114.011 80.2953C113.824 79.1334 113.5 78.0169 112.91 76.9042Z" fill="#5A3A83"/>
<path d="M65.415 86.4501C65.8886 86.715 66.3209 86.9767 66.7937 87.1682C68.0829 87.6888 69.4383 87.9153 70.8111 88.0499C70.96 88.0644 71.1113 88.099 71.2612 88.0889C71.5932 88.0646 71.8201 88.2166 72.0585 88.4285C73.1567 89.426 74.407 90.1964 75.7164 90.8821C77.514 91.8186 79.4013 92.5194 81.3574 93.0484C81.5856 93.1103 81.8103 93.1769 82.0264 93.2403C82.031 93.3787 81.948 93.4011 81.887 93.4371C79.3889 94.825 77.3797 96.77 75.5986 98.9772C73.9805 100.981 72.6245 103.156 71.3529 105.387C70.4011 107.06 69.4625 108.739 68.4977 110.405C67.7219 111.746 66.8262 113.008 65.8681 114.228C65.4971 114.702 65.1266 115.181 64.8099 115.697C64.5815 116.068 64.3918 116.455 64.276 116.878C64.0677 117.614 64.1714 118.296 64.631 118.914C64.7432 119.063 64.8777 119.194 64.6609 119.392C63.6418 120.313 62.6282 121.246 61.5585 122.12C61.4222 121.941 61.5167 121.778 61.5342 121.621C62.1592 116.605 62.5442 111.566 62.9006 106.526C63.2074 102.183 63.4562 97.8342 63.6553 93.4795C63.6993 92.5018 63.7387 91.5206 63.7701 90.5404C63.7772 90.3311 63.8019 90.132 63.9055 89.9437C64.5141 88.8398 65.0796 87.7167 65.415 86.4501Z" fill="#FFEE00"/>
<path d="M84.7361 86.4514C82.915 86.7271 80.8433 86.8904 78.7756 87.0532C76.1253 87.2627 73.4697 87.3952 70.8112 87.1359C69.5666 87.0143 68.347 86.7956 67.1723 86.3427C66.6231 86.128 66.1144 85.8429 65.6673 85.4604C65.4525 85.2742 65.264 85.0685 65.1379 84.8061C64.8984 84.3165 64.956 83.8519 65.3273 83.447C65.5578 83.1942 65.8415 83.0083 66.1493 82.8522C66.7612 82.5446 67.4071 82.3472 68.0784 82.2243C68.7462 82.1059 69.4095 81.984 70.0574 81.77C70.3912 81.6598 70.7639 81.6674 71.1205 81.6442C72.0608 81.5824 73.004 81.5448 73.9432 81.4749C76.0321 81.3177 78.1184 81.1404 80.2037 80.9877C83.4023 80.752 86.5955 80.4721 89.7907 80.1756C91.2734 80.0394 92.7566 79.8744 94.2383 79.7301C96.0229 79.557 97.8039 79.3884 99.5889 79.2193C99.6453 79.2124 99.7126 79.2287 99.7544 79.2031C100.494 78.8063 101.305 78.9564 102.086 78.9264C103.2 78.8842 104.308 78.9938 105.385 79.3157C106.645 79.6929 107.632 80.4506 108.401 81.4964C108.641 81.8225 108.621 81.8863 108.237 81.9863C106.578 82.4178 104.912 82.8297 103.232 83.1862C101.277 83.6049 99.3232 84.0315 97.366 84.43C96.1103 84.6856 94.8487 84.9256 93.5831 85.1334C90.7229 85.5973 87.8581 86.0904 84.7361 86.4514Z" fill="#5A3A83"/>
<path d="M129.508 137.221C129.353 135.986 129.312 134.745 129.206 133.508C129.056 131.786 128.919 130.058 128.806 128.332C128.744 127.392 128.589 126.459 128.569 125.522C128.535 124.141 128.275 122.788 128.177 121.415C127.853 116.993 127.227 112.604 126.626 108.221C126.288 105.758 126.051 103.278 125.621 100.831C125.382 99.4791 125.287 98.1017 124.917 96.7743C124.822 96.4305 124.73 96.0862 124.623 95.7439C124.453 95.1887 124.514 95.0872 125.085 95.0053C125.141 94.9984 125.197 94.9875 125.253 94.9806C126.72 100.464 128.635 105.81 130.299 111.232C131.086 113.792 131.864 116.352 132.39 118.98C132.548 119.777 132.639 120.583 132.684 121.391C132.697 121.598 132.71 121.804 132.727 122.011C132.85 123.548 133.685 124.5 135.134 124.956C136.098 125.259 137.089 125.375 138.091 125.347C139.108 125.316 139.099 125.309 139.309 126.293C139.476 127.089 139.566 127.895 139.652 128.698C139.666 128.847 139.648 129.001 139.662 129.15C139.701 129.533 139.521 129.768 139.208 129.982C137.084 131.451 135.014 132.999 132.963 134.569C131.799 135.442 130.654 136.334 129.508 137.221Z" fill="#A76A2B"/>
<path d="M87.9964 142.729C87.7906 142.75 87.5922 142.632 87.3907 142.554C84.5714 141.514 81.7108 140.638 78.7513 140.088C77.4889 139.854 76.2219 139.682 74.9401 139.59C74.7052 139.574 74.5067 139.52 74.3245 139.367C72.3248 137.679 70.0771 136.368 67.8091 135.093C64.4705 133.213 61.0266 131.543 57.5307 129.98C57.3664 129.906 57.1699 129.869 57.04 129.709C57.1793 129.545 57.374 129.534 57.5486 129.492C60.412 128.819 63.2937 128.765 66.1998 129.178C69.2135 129.603 72.0724 130.532 74.8227 131.809C78.1622 133.362 81.2022 135.373 84.0407 137.706C85.1899 138.652 86.1127 139.785 86.9403 141.008C87.2789 141.505 87.6327 141.993 87.9794 142.49C88.019 142.547 88.0716 142.61 87.9964 142.729Z" fill="#3F713F"/>
<path d="M48.136 62.6974C48.0071 61.6755 48.2747 60.5561 48.8832 59.5176C49.6447 58.2275 50.6316 57.1101 51.6231 55.9962C51.9142 55.6706 52.2756 55.5856 52.7008 55.6889C53.2311 55.8161 53.7512 55.9935 54.2698 56.1589C55.7066 56.6166 57.1515 57.0405 58.665 57.1906C58.7601 57.1994 58.8511 57.2087 58.9461 57.2175C59.2237 57.2489 59.5656 57.105 59.7547 57.2821C59.9208 57.4375 59.9239 57.7639 59.9997 58.0161C60.0146 58.0715 60.0295 58.1268 60.048 58.1777C60.2042 58.6202 60.4414 59.057 60.493 59.5123C60.5436 59.9596 60.1467 60.3227 60.0283 60.7579C59.7768 61.6752 59.7285 62.6166 59.6882 63.5571C59.6547 64.3864 59.6293 65.2147 59.546 66.0379C59.3836 67.6837 58.5913 68.9898 57.4293 70.1122C57.276 70.2617 57.13 70.304 56.9244 70.2597C54.2542 69.6709 51.8393 68.5974 49.919 66.5893C48.8923 65.5096 48.2964 64.2098 48.136 62.6974Z" fill="#FFEE00"/>
<path d="M79.4219 91.4535C79.5017 91.3375 79.6073 91.3655 79.7234 91.3799C82.7426 91.8157 85.7772 92.1435 88.812 92.4058C90.0837 92.516 91.3601 92.5969 92.6407 92.5793C93.7458 92.5628 94.8582 92.6393 95.9634 92.59C96.6379 92.5607 97.3165 92.5308 97.9911 92.5015C100.067 92.4031 102.118 92.1035 104.172 91.8279C104.983 91.7165 105.803 91.5714 106.601 91.3472C107.035 91.2247 107.482 91.1661 107.923 91.0672C109.263 90.7686 110.576 90.3754 111.892 89.9816C113.646 89.4568 115.34 88.7759 116.987 87.9822C119.893 86.5854 122.552 84.8102 124.944 82.655C125.698 81.9745 126.41 81.2502 127.039 80.4421C127.339 80.0581 127.712 79.7307 127.998 79.3321C129.251 77.5857 130.46 75.808 131.152 73.7462C131.796 71.8291 132.179 69.854 132.241 67.8201C132.27 66.8197 132.274 65.8183 132.069 64.8425C131.826 63.6875 131.551 62.5364 131.129 61.4236C130.869 60.7404 130.578 60.0611 130.496 59.3194C130.486 59.243 130.456 59.1649 130.473 59.0976C130.634 58.4773 130.237 58.1091 129.847 57.7524C129.18 57.1435 128.524 56.525 127.868 55.9025C126.912 54.998 125.995 54.0519 125.057 53.1289C123.846 51.941 122.701 50.692 121.607 49.3999C121.354 49.1039 120.987 48.9037 120.845 48.5125C120.956 48.4867 121.068 48.4689 121.175 48.4355C121.471 48.3503 121.664 48.4615 121.845 48.7049C122.633 49.7689 123.531 50.7335 124.496 51.6411C126.657 53.681 128.991 55.4957 131.608 56.9203C131.919 57.0906 132.058 57.2942 132.145 57.639C132.464 58.8787 132.85 60.102 133.194 61.3388C133.685 63.1212 134.094 64.926 134.246 66.7744C134.496 69.8568 133.889 72.7785 132.583 75.5649C130.687 79.6041 127.862 82.8622 124.243 85.4451C120.925 87.8115 117.269 89.4879 113.4 90.7247C110.648 91.6044 107.835 92.2218 104.985 92.7008C102.263 93.1601 99.5187 93.4015 96.7676 93.5212C92.8625 93.692 88.9637 93.5802 85.096 92.9212C83.348 92.6242 81.6183 92.2432 79.9389 91.6722C79.7605 91.6164 79.5654 91.5912 79.4219 91.4535Z" fill="#5A3A83"/>
<path d="M151.315 115.85C151.299 115.419 151.056 115.064 150.895 114.688C149.223 110.831 147.559 106.974 145.685 103.207C144.536 100.897 143.292 98.6343 141.932 96.435C140.007 93.3203 137.634 90.5831 135.044 88.0113C133.729 86.7095 132.372 85.4659 130.881 84.3653C130.176 83.8428 129.403 83.4674 128.519 83.3589C129.26 83.1376 130.013 83.2091 130.756 83.3102C133.979 83.7375 136.635 85.2513 138.852 87.5786C140.375 89.1778 141.526 91.0389 142.585 92.9562C144.034 95.5817 145.352 98.2803 146.82 100.895C149.243 105.212 151.866 109.393 154.985 113.252C155.375 113.736 155.735 114.243 155.993 114.816C156.323 115.544 156.164 116.18 155.636 116.739C155.161 117.238 154.564 117.565 153.952 117.868C153.813 117.938 153.695 117.941 153.633 117.772C153.505 117.425 153.38 117.072 153.244 116.692C153.512 116.611 153.683 116.741 153.86 116.821C153.981 116.872 154.097 116.952 154.223 116.977C154.424 117.018 154.603 116.951 154.689 116.749C154.781 116.533 154.725 116.34 154.54 116.195C154.17 115.909 153.745 115.773 153.289 115.719C152.621 115.641 151.97 115.798 151.315 115.85Z" fill="#A76A2B"/>
<path d="M46.8449 142.081C47.1898 142.129 47.4089 142.384 47.6428 142.592C48.5961 143.44 49.702 143.497 50.8331 143.158C52.528 142.653 54.0454 141.797 55.4241 140.677C57.1925 139.235 58.8617 137.683 60.5404 136.142C61.2897 135.454 62.0019 134.73 62.7281 134.02C62.8487 133.903 62.9587 133.767 63.0165 133.605C64.5582 134.319 66.0402 135.147 67.5217 135.971C67.5659 135.999 67.5969 136.052 67.63 136.089C67.6159 136.274 67.4608 136.342 67.3489 136.43C64.2209 138.981 61.0783 141.514 57.7609 143.819C56.1644 144.929 54.5223 145.967 52.6915 146.665C51.7198 147.037 50.7236 147.31 49.661 147.24C48.8498 147.188 48.2729 146.813 47.9002 146.103C47.6245 145.585 47.4182 145.034 47.2835 144.466C47.0935 143.681 46.8673 142.899 46.8449 142.081Z" fill="#5A3A83"/>
<path d="M96.6656 37.022C104.559 36.1595 110.952 41.8045 111.807 48.8656C112.716 56.3369 107.424 63.1442 99.9696 64.0592C92.5436 64.9708 85.7132 59.6571 84.7925 52.2568C83.8615 44.7719 89.1766 37.9535 96.6656 37.022ZM110.869 49.0169C110.014 42.0498 103.722 37.132 96.7509 37.988C89.7873 38.839 84.8503 45.1413 85.6918 52.0938C86.5397 59.0659 92.8767 64.0191 99.8554 63.1581C106.806 62.3005 111.728 55.9795 110.869 49.0169Z" fill="#6E4F93"/>
<path d="M84.27 46.5814C80.388 41.2914 73.7856 40.0842 68.7043 42.3638C63.7584 44.5819 60.7632 49.6909 61.2629 55.0838C61.7684 60.5576 65.6576 65.0704 70.9667 66.2927C74.1279 67.0217 77.159 66.6186 80.0076 65.0571C82.8336 63.5107 84.7569 61.1636 85.8794 58.1463C86.1249 58.2838 86.1766 58.5062 86.3135 58.657C86.5252 58.8844 86.4994 59.1082 86.3774 59.3804C85.846 60.5811 85.186 61.6994 84.3172 62.6798C80.8489 66.5925 76.4996 68.2434 71.3634 67.2656C66.1809 66.277 62.6475 63.1383 60.9813 58.129C58.6053 50.9882 62.5365 43.3422 69.6567 40.9973C74.8607 39.2869 80.6295 40.8942 84.2239 45.0346C84.595 45.4631 84.7187 45.8402 84.4527 46.3384C84.4042 46.4097 84.4135 46.5189 84.27 46.5814Z" fill="#6E4F93"/>
<path d="M45.9509 71.0572C45.3556 71.134 44.7851 71.0117 44.2196 70.8643C44.0211 70.8109 43.8992 70.6828 43.7971 70.5156C42.7806 68.8504 41.5323 67.3607 40.2845 65.875C39.8353 65.3416 39.3488 64.8372 38.7689 64.4383C38.4878 64.2439 38.1965 64.067 37.8668 63.9766C37.5834 63.8968 37.5255 63.7242 37.5634 63.4662C37.7743 62.1495 38.1429 60.887 38.9145 59.7796C39.9018 58.3639 41.354 58.3131 42.4488 59.65C42.9241 60.2292 43.2109 60.905 43.4827 61.5908C44.189 63.3592 44.8878 65.1327 45.8495 66.7841C46.1909 67.3715 46.5323 67.9589 46.8505 68.5573C47.0097 68.8565 47.1461 69.1708 47.2508 69.4929C47.4912 70.2561 47.1839 70.7839 46.3987 70.9779C46.2513 71.0082 46.0988 71.0309 45.9509 71.0572Z" fill="#6E4F93"/>
<path d="M75.8351 123.841C76.0311 123.739 76.0351 123.539 76.0739 123.354C76.8411 119.804 77.6672 116.268 78.6325 112.767C79.2127 110.662 79.8653 108.58 80.7008 106.558C80.9534 105.951 81.1498 105.318 81.3764 104.698C81.4473 104.51 81.4691 104.287 81.6756 104.171C81.7369 104.572 81.608 104.956 81.5496 105.347C80.7594 110.648 80.2337 115.974 80.0344 121.33C79.9214 124.383 79.927 127.438 80.2375 130.481C80.2464 130.553 80.2351 130.628 80.2353 130.763C79.8861 130.614 79.6453 130.382 79.3737 130.198C79.2889 130.139 79.2664 130.056 79.2702 129.954C79.2915 129.191 78.993 128.521 78.6478 127.868C77.9302 126.51 77.0318 125.276 76.0436 124.11C75.9639 124.025 75.9033 123.931 75.8351 123.841Z" fill="#A76A2B"/>
<path d="M99.7058 78.1495C100.569 77.1208 101.558 76.624 102.764 76.5665C103.349 76.5359 103.932 76.53 104.514 76.5447C105.62 76.5688 106.69 76.3605 107.752 76.0959C108.081 76.0148 108.41 75.9297 108.741 75.8607C110.442 75.5098 111.354 76.1174 112.146 77.4177C112.601 78.1669 112.846 79.003 113.024 79.8515C113.37 81.5169 113.592 83.1974 113.652 84.8936C113.67 85.4429 113.659 85.9917 113.487 86.5153C113.246 87.2515 112.717 87.3692 112.166 86.8114C111.858 86.4977 111.637 86.1244 111.466 85.7246C111.136 84.9642 110.826 84.1973 110.507 83.4314C110.265 82.8563 109.989 82.3017 109.671 81.7687C108.347 79.5243 106.381 78.3143 103.792 78.0914C102.476 77.9826 101.158 78.0333 99.7058 78.1495Z" fill="#A2EAF0"/>
<path d="M36.9913 71.3435C36.8739 71.4192 36.774 71.3374 36.6765 71.3085C36.1423 71.1491 35.6092 71.0998 35.0562 71.1878C34.6315 71.2561 34.6295 71.24 34.4842 70.8533C34.0593 69.7164 34.0736 68.5626 34.3775 67.4061C34.5499 66.7436 34.8227 66.1343 35.2412 65.5806C36.0181 64.5501 37.2611 64.4922 38.1954 65.1502C38.486 65.3557 38.7786 65.5773 39.0189 65.838C40.5544 67.5051 41.982 69.2589 43.1587 71.1986C43.6033 71.9286 43.9201 72.7151 43.9413 73.5909C43.9577 74.1935 43.7627 74.7035 43.2683 75.0703C42.86 75.3735 42.5567 75.3656 42.1481 75.0642C41.1643 74.3347 40.1628 73.6278 39.2178 72.8486C39.0131 72.6775 38.8476 72.4934 38.7049 72.2617C38.0574 71.2419 37.4027 70.2311 36.9698 69.0952C36.8559 68.7986 36.6153 68.7014 36.3892 68.7903C36.1394 68.8862 36.0351 69.1359 36.1595 69.4516C36.3568 69.9626 36.5848 70.4577 36.844 70.9408C36.9121 71.0632 37.0435 71.1697 36.9913 71.3435Z" fill="#6E4F93"/>
<path d="M119.201 89.4985C119.061 89.724 118.863 89.8421 118.692 89.9855C115.724 92.4032 112.372 94.0916 108.701 95.1407C103.067 96.7483 97.3888 96.8499 91.6811 95.5415C90.5757 95.2885 89.5029 94.9334 88.4589 94.4809C88.3725 94.4424 88.2932 94.3949 88.1666 94.3287C88.3424 94.2296 88.4755 94.2828 88.6078 94.2952C91.5657 94.5302 94.5226 94.557 97.4871 94.4112C100.585 94.2573 103.657 93.9187 106.705 93.3502C110.854 92.5734 114.888 91.4186 118.737 89.6451C118.856 89.5896 118.977 89.5422 119.102 89.4902C119.117 89.4842 119.138 89.4898 119.201 89.4985Z" fill="#CF9356"/>
<path d="M57.8725 126.856C63.5268 125.822 69.0459 126.255 74.3703 128.505C79.2772 130.581 83.1796 133.932 86.4816 138.153C85.9901 138.176 85.6948 138.033 85.3927 137.767C80.623 133.57 75.281 130.408 69.0755 128.837C66.2215 128.116 63.317 127.882 60.3778 128.135C60.1837 128.151 60.0116 128.147 59.842 128.029C59.2316 127.581 58.5398 127.269 57.8725 126.856Z" fill="#A2EAF0"/>
<path d="M87.6728 138.441C87.5854 138.227 87.723 138.116 87.7893 137.989C88.2119 137.202 88.7646 136.51 89.3444 135.838C92.1418 132.588 95.1761 129.57 98.3638 126.704C101.831 123.584 105.458 120.67 109.327 118.064C109.587 117.889 109.836 117.585 110.146 117.613C110.431 117.639 110.607 117.977 110.85 118.156C111.168 118.391 111.487 118.626 111.766 118.833C111.789 119.022 111.687 119.055 111.614 119.096C106.748 121.697 102.384 125.004 98.2138 128.586C94.7199 131.586 91.3854 134.756 88.1729 138.053C88.0352 138.196 87.9325 138.393 87.6728 138.441Z" fill="#A2EAF0"/>
<path d="M67.9297 142.587C68.9449 142.704 69.9229 142.985 70.8979 143.275C73.1952 143.954 75.551 144.377 77.887 144.872C79.5268 145.219 81.1533 145.625 82.7285 146.212C83.8415 146.628 84.9671 147.013 86.0821 147.412C88.1071 148.137 90.0582 149.026 91.9679 150.01C92.2341 150.149 92.5104 150.271 92.7867 150.392C93.0112 150.491 93.1673 150.632 93.1902 150.886C90.7046 149.736 88.0667 149.11 85.3871 148.645C83.5008 148.32 81.6861 147.745 79.9156 147.03C78.1963 146.333 76.4085 145.878 74.5891 145.532C73.1629 145.261 71.7255 145.032 70.3426 144.58C69.6958 144.369 69.0607 144.12 68.5359 143.67C68.2112 143.386 67.8921 143.082 67.9297 142.587Z" fill="#5A3A83"/>
<path d="M70.3172 126.196C70.3096 126.034 70.4009 125.912 70.4968 125.794C70.9177 125.293 70.9071 124.739 70.7131 124.154C70.4851 123.459 70.1751 122.794 69.8656 122.133C69.369 121.079 68.9515 120.002 68.6347 118.881C68.6138 118.81 68.6125 118.732 68.5996 118.66C69.9584 119.483 71.1658 120.504 72.3413 121.565C73.9393 123.008 75.3871 124.592 76.6468 126.342C76.9279 126.736 76.9359 126.735 76.5723 127.07C76.297 127.324 76.0081 127.568 75.7283 127.818C75.5921 127.941 75.4567 128.003 75.2703 127.915C73.6799 127.17 72.0023 126.68 70.3172 126.196Z" fill="#5A3A83"/>
<path d="M79.8159 147.991C79.462 148.071 79.1221 147.863 78.78 147.905C78.724 148.149 78.8948 148.21 79.0032 148.294C79.9001 148.981 80.733 149.746 81.5729 150.501C82.4635 151.303 83.5162 151.861 84.6175 152.315C86.4116 153.055 88.2331 153.719 90.0682 154.361C90.3883 154.473 90.7226 154.534 91.0518 154.621C91.2714 154.68 91.5027 154.733 91.5184 155.03C89.0736 154.413 86.576 153.999 84.2109 153.1C82.287 152.367 80.656 151.222 79.3678 149.606C78.9913 149.133 78.6527 148.635 78.3826 148.097C78.285 147.9 78.1472 147.709 78.2216 147.381C78.7628 147.564 79.3112 147.705 79.8159 147.991Z" fill="#5A3A83"/>
<path d="M85.3046 154.459C85.3202 154.62 85.4079 154.736 85.5339 154.831C86.4614 155.568 87.3102 156.395 88.2805 157.082C88.8975 157.517 89.5878 157.817 90.2846 158.103C90.874 158.346 91.4638 158.592 92.0536 158.839C92.1953 158.895 92.3405 158.947 92.3742 159.122C91.9732 159.184 91.5861 159.092 91.1985 159.029C88.9849 158.666 86.9999 157.835 85.4286 156.176C84.8559 155.568 84.4036 154.875 84.002 154.062C84.4962 154.129 84.8966 154.296 85.3046 154.459Z" fill="#5A3A83"/>
<path d="M120.913 47.5219C120.757 47.6472 120.562 47.6261 120.381 47.6482C118.012 47.954 115.639 48.2563 113.269 48.5581C113.177 48.5695 113.08 48.5772 112.988 48.5926C112.709 48.6512 112.626 48.5061 112.595 48.2565C112.565 48.007 112.669 47.9247 112.897 47.8887C114.463 47.6646 116.028 47.4325 117.59 47.205C118.393 47.0905 119.192 46.9805 119.996 46.8701C120.66 46.7849 120.699 46.8086 120.913 47.5219Z" fill="#6E4F93"/>
<path d="M90.5747 143.734C90.0683 143.702 89.7194 143.454 89.4344 143.027C88.696 141.933 87.9203 140.868 87.1633 139.788C87.0596 139.641 86.9206 139.507 86.9016 139.284C87.2902 139.188 87.5246 139.368 87.722 139.646C88.4295 140.621 89.1486 141.592 89.8486 142.572C90.1101 142.941 90.4317 143.265 90.6136 143.684C90.599 143.698 90.5889 143.716 90.5747 143.734Z" fill="#3F713F"/>
<path d="M78.176 129.428C77.607 129.117 77.0375 128.803 76.4333 128.472C76.7421 128.124 77.0507 127.841 77.4207 127.559C77.7933 128.135 78.1152 128.696 78.176 129.428Z" fill="#A76A2B"/>
<path d="M65.6973 65.9258C65.9324 66.0114 66.0835 66.1114 66.2425 66.2758C66.1424 66.4597 65.9927 66.6046 65.8035 66.7952C65.7661 66.4893 65.7356 66.2397 65.6973 65.9258Z" fill="#FFEE00"/>
<path d="M81.6855 104.114C81.6646 104.043 81.6859 103.983 81.7373 103.936C81.7537 104.004 81.745 104.066 81.6855 104.114Z" fill="#A76A2B"/>
<path d="M90.6146 143.686C90.6296 143.709 90.6406 143.732 90.6556 143.755C90.6305 143.749 90.6009 143.741 90.5757 143.736C90.5899 143.718 90.6 143.7 90.6146 143.686Z" fill="#3F713F"/>
<path d="M79.9874 148.059C79.9356 148.036 79.8799 148.014 79.8281 147.992C79.893 147.988 79.9448 148.011 79.9874 148.059Z" fill="#5A3A83"/>
<path d="M110.87 49.0172C111.725 55.9843 106.803 62.3052 99.8556 63.1583C92.8769 64.0193 86.5399 59.0661 85.6919 52.094C84.846 45.138 89.7875 38.8392 96.7511 37.9882C103.722 37.1322 110.014 42.046 110.87 49.0172ZM96.8348 38.84C90.3642 39.647 85.7663 45.5484 86.5698 52.0235C87.3724 58.4905 93.2738 63.0884 99.7453 62.2893C106.209 61.4913 110.813 55.5769 110.006 49.1063C109.202 42.6232 103.309 38.0324 96.8348 38.84Z" fill="#070504"/>
<path d="M96.8359 38.8401C103.311 38.0326 109.203 42.6234 110.011 49.106C110.818 55.5765 106.214 61.4909 99.7505 62.289C93.2749 63.0885 87.3776 58.4901 86.575 52.0231C85.7715 45.5481 90.3654 39.6472 96.8359 38.8401Z" fill="#A2EAF0"/>
</g>
<defs>
<clipPath id="clip0_1121_307">
<rect x="0.826172" y="20.6211" width="170" height="170" rx="20" transform="rotate(-6.96723 0.826172 20.6211)" fill="white"/>
</clipPath>
</defs>
</svg>
