<svg width="600" height="693" viewBox="0 0 600 693" fill="none" xmlns="http://www.w3.org/2000/svg">
<g clip-path="url(#clip0_1028_914)">
<mask id="mask0_1028_914" style="mask-type:luminance" maskUnits="userSpaceOnUse" x="0" y="0" width="600" height="692">
<path d="M600 0.25H0V691.16H600V0.25Z" fill="white"/>
</mask>
<g mask="url(#mask0_1028_914)">
<path d="M235.296 157.47C227.809 156.4 227.453 156.044 231.018 155.687C237.791 154.618 253.478 156.044 264.528 158.539C290.198 164.6 313.371 180.286 337.971 207.737L344.386 215.224L353.656 213.798C393.228 207.381 433.871 212.372 467.738 228.058C477.008 232.336 491.623 240.892 493.406 243.031C494.118 243.744 495.188 248.379 495.903 253.014C498.398 269.769 497.328 282.246 491.981 291.874C489.128 297.221 489.128 298.646 490.911 303.281C492.336 306.846 496.616 309.341 500.536 309.341C509.093 309.341 518.006 295.794 522.283 276.899L524.066 269.414L527.276 272.979C545.456 293.299 559.716 321.464 561.856 341.426L562.568 346.774L559.361 342.141C554.013 333.941 549.021 328.594 542.248 323.959C530.126 315.759 517.293 313.264 483.423 311.481C452.766 309.699 435.296 307.204 418.183 301.499C388.951 291.874 373.976 279.396 339.396 233.406C324.066 213.085 314.441 202.033 304.816 192.764C283.781 172.443 262.746 161.748 235.296 157.47Z" fill="#FF007A"/>
<path d="M500.891 202.751C501.606 189.204 503.388 180.292 507.308 172.092C508.736 168.883 510.161 166.031 510.518 166.031C510.873 166.031 510.161 168.527 509.091 171.379C506.238 179.222 505.883 190.274 507.666 202.751C510.161 218.794 511.231 220.933 528.343 238.402C536.186 246.602 545.456 256.941 549.021 261.219L555.081 269.061L549.021 263.359C541.533 256.226 524.421 242.68 520.498 240.898C518.003 239.472 517.648 239.472 515.866 241.254C514.438 242.68 514.083 244.819 514.083 255.159C513.726 271.201 511.586 281.183 506.238 291.521C503.388 296.868 503.031 295.799 505.526 289.739C507.308 285.104 507.666 282.966 507.666 267.636C507.666 236.619 504.101 229.133 482.353 216.655C477.006 213.447 467.736 208.812 462.388 206.316C456.686 203.821 452.406 201.682 452.763 201.682C453.476 200.969 474.511 207.029 482.711 210.595C495.188 215.586 497.326 215.942 498.753 215.586C499.823 214.516 500.536 211.664 500.891 202.751Z" fill="#FF007A"/>
<path d="M249.911 255.87C234.938 235.192 225.312 203.107 227.451 179.221L228.164 171.734L231.729 172.447C238.146 173.517 249.198 177.795 254.546 181.004C268.806 189.56 275.223 201.324 281.283 230.558C283.066 239.114 285.561 249.096 286.631 252.305C288.413 257.652 295.186 270.13 300.891 277.972C304.813 283.677 302.318 286.53 293.403 285.817C279.858 284.39 261.676 271.912 249.911 255.87Z" fill="#FF007A"/>
<path d="M482.711 410.937C412.121 382.417 387.166 357.817 387.166 316.107C387.166 310.047 387.524 305.055 387.524 305.055C387.879 305.055 390.376 307.195 393.584 309.69C407.844 321.097 423.886 326.09 468.451 332.507C494.476 336.427 509.449 339.28 522.996 343.915C566.134 358.175 592.871 387.407 599.289 426.98C601.071 438.39 600.001 460.135 597.149 471.545C594.654 480.457 587.524 496.855 585.741 497.212C585.384 497.212 584.671 495.43 584.671 492.577C583.959 477.605 576.471 463.345 563.994 452.292C549.021 439.457 529.769 429.832 482.711 410.937Z" fill="#FF007A"/>
<path d="M432.799 422.697C432.086 417.35 430.304 410.575 429.234 407.725L427.451 402.375L430.661 406.298C435.294 411.645 438.859 418.063 442.069 426.975C444.564 433.748 444.564 435.888 444.564 446.94C444.564 457.635 444.206 460.13 442.069 466.19C438.504 475.818 434.226 482.59 427.096 490.078C414.261 503.268 397.506 510.398 373.619 513.605C369.341 513.963 357.219 515.033 346.524 515.745C319.786 517.17 301.961 520.023 285.919 525.728C283.779 526.44 281.641 527.152 281.284 526.797C280.571 526.085 291.624 519.668 300.536 515.388C313.014 509.328 325.846 506.12 354.011 501.128C367.916 498.99 382.176 496.137 385.741 494.712C421.034 483.66 438.504 456.207 432.799 422.697Z" fill="#FF007A"/>
<path d="M465.241 480.099C455.974 459.779 453.834 440.526 458.826 422.346C459.539 420.564 460.251 418.781 460.964 418.781C461.676 418.781 463.816 419.849 465.956 421.276C470.234 424.129 479.146 429.119 501.961 441.596C530.839 457.284 547.239 469.404 558.646 483.309C568.629 495.429 574.689 509.334 577.541 526.444C579.324 536.071 578.254 559.244 575.759 568.869C567.916 599.171 550.091 623.414 524.066 637.319C520.144 639.456 516.936 640.884 516.579 640.884C516.224 640.884 517.649 637.319 519.789 633.041C528.344 614.859 529.414 597.389 522.996 577.781C519.074 565.661 510.876 551.044 494.476 526.444C474.869 497.924 470.234 490.439 465.241 480.099Z" fill="#FF007A"/>
<path d="M199.643 589.19C226.024 567.088 258.465 551.403 288.413 546.41C301.248 544.27 322.638 544.985 334.403 548.193C353.298 553.185 370.41 563.88 379.323 577.07C387.878 589.905 391.8 600.955 395.72 625.555C397.148 635.18 398.93 645.163 399.285 647.303C402.138 660.135 407.843 670.118 414.973 675.465C426.025 683.665 445.275 684.023 464.17 676.893C467.378 675.823 470.23 674.753 470.23 675.11C470.943 675.823 461.318 682.24 454.9 685.448C445.988 690.083 438.858 691.508 429.233 691.508C412.12 691.508 397.503 682.595 385.738 664.77C383.243 661.205 378.253 650.868 373.975 641.24C361.495 612.365 355.08 603.808 340.463 594.183C327.628 585.983 311.23 584.2 298.75 590.26C282.353 598.103 278.073 619.138 289.483 631.973C294.118 637.32 302.673 641.598 309.803 642.668C322.993 644.45 334.403 634.11 334.403 620.92C334.403 612.365 331.193 607.373 322.638 603.453C311.23 598.46 298.75 604.165 299.108 615.215C299.108 619.85 301.248 622.703 305.883 624.843C308.733 626.268 308.733 626.268 306.595 625.91C296.255 623.773 293.76 610.938 301.96 602.738C311.943 592.755 332.976 597.035 340.106 610.938C342.958 616.643 343.316 628.05 340.821 635.18C334.758 650.868 317.645 659.065 300.178 654.433C288.413 651.223 283.423 648.015 269.161 633.398C244.206 607.73 234.581 602.738 198.93 597.39L192.156 596.32L199.643 589.19Z" fill="#FF007A"/>
<path fill-rule="evenodd" clip-rule="evenodd" d="M12.1234 15.5798C95.1892 116.471 223.175 273.332 229.592 281.89C234.94 289.02 232.801 295.792 223.888 300.785C218.897 303.637 208.558 306.49 203.567 306.49C197.863 306.49 191.089 303.637 186.455 299.002C183.246 295.792 169.343 275.472 137.97 226.631C114.084 189.198 93.7632 158.182 93.4067 157.826C91.9807 157.113 91.9807 157.113 135.474 234.831C162.925 283.672 171.838 301.14 171.838 303.28C171.838 307.915 170.412 310.41 164.708 316.827C155.082 327.522 150.804 339.645 147.596 364.955C144.031 393.12 134.405 413.085 106.954 446.952C90.9112 466.917 88.4157 470.483 84.4942 478.683C79.503 488.663 78.077 494.368 77.364 507.203C76.651 520.75 78.077 529.305 81.9987 542.14C85.5637 553.547 89.4852 561.035 99.111 575.65C107.31 588.485 112.302 598.11 112.302 601.675C112.302 604.528 113.015 604.528 125.849 601.675C156.508 594.545 181.82 582.425 195.724 567.452C204.28 558.182 206.419 553.19 206.419 540.357C206.419 532.157 206.063 530.375 203.924 525.382C200.359 517.54 193.585 511.123 178.968 501.14C159.717 487.95 151.517 477.255 149.378 462.995C147.596 450.875 149.735 442.675 160.43 420.215C171.482 397.042 174.334 387.415 176.116 363.888C177.186 348.913 178.968 342.852 183.246 338.217C187.881 333.227 191.802 331.445 202.854 330.017C221.036 327.522 232.801 322.887 242.07 313.975C250.268 306.49 253.833 299.003 254.191 287.95L254.548 279.75L249.913 274.76C233.157 255.508 1.0717 0.25 0.00218573 0.25C-0.354321 0.25 5.34978 7.02362 12.1234 15.5798ZM121.571 522.532C125.492 515.757 123.353 507.203 116.936 502.923C110.876 499.003 101.606 500.785 101.606 506.132C101.606 507.557 102.319 508.985 104.458 509.698C107.667 511.48 108.023 513.263 105.528 517.185C103.032 521.105 103.032 524.67 106.241 527.165C111.232 531.088 118.006 528.947 121.571 522.532Z" fill="#FF007A"/>
<path fill-rule="evenodd" clip-rule="evenodd" d="M265.956 335.012C257.399 337.507 249.2 346.777 246.704 356.045C245.278 361.75 245.991 372.087 248.487 375.297C252.409 380.287 255.974 381.715 265.956 381.715C285.564 381.715 302.319 373.157 304.101 362.819C305.884 354.262 298.399 342.497 288.059 337.15C282.711 334.3 271.661 333.23 265.956 335.012ZM288.771 352.837C291.624 348.559 290.554 343.924 285.206 340.714C275.581 334.654 260.964 339.647 260.964 348.914C260.964 353.549 268.451 358.542 275.581 358.542C280.216 358.542 286.634 355.689 288.771 352.837Z" fill="#FF007A"/>
</g>
</g>
<defs>
<clipPath id="clip0_1028_914">
<rect width="600" height="692.5" fill="white" transform="translate(0 0.25)"/>
</clipPath>
</defs>
</svg>
