<svg width="78" height="66" viewBox="0 0 78 66" fill="none" xmlns="http://www.w3.org/2000/svg">
<path d="M27.5225 2.96924C27.9353 11.5962 27.3805 20.4925 28.2389 29.0729" stroke="#161616" stroke-width="5" stroke-miterlimit="1.5" stroke-linecap="round" stroke-linejoin="round"/>
<path d="M3.40234 37.8604C7.94718 37.5452 13.5869 35.7972 18.1108 36.2927" stroke="#161616" stroke-width="5" stroke-miterlimit="1.5" stroke-linecap="round" stroke-linejoin="round"/>
<path d="M35.8047 34.6194C41.2295 35.2474 46.6732 34.4129 52.1202 35.0158" stroke="#161616" stroke-width="5" stroke-miterlimit="1.5" stroke-linecap="round" stroke-linejoin="round"/>
<path d="M27.8799 43.4775C27.695 49.9932 27.7198 56.5094 27.718 63.0268" stroke="#161616" stroke-width="5" stroke-miterlimit="1.5" stroke-linecap="round" stroke-linejoin="round"/>
<path d="M66.7934 40.5347C62.8429 41.4531 62.1228 46.6554 66.8549 46.7411C68.498 46.7709 71.9683 43.6203 69.5048 42.5459" stroke="#161616" stroke-width="5" stroke-miterlimit="1.5" stroke-linecap="round" stroke-linejoin="round"/>
<path d="M69.5315 17.5471C63.4288 15.5306 55.7004 24.3318 62.794 27.7857C70.4287 31.5035 79.4939 22.3243 71.442 17.3547" stroke="#161616" stroke-width="5" stroke-miterlimit="1.5" stroke-linecap="round" stroke-linejoin="round"/>
</svg>
