<svg width="20" height="20" viewBox="0 0 20 20" fill="none" xmlns="http://www.w3.org/2000/svg">
<g clip-path="url(#clip0_210_232)">
<path d="M3.92507 3.33118L7.56499 6.73128L6.44476 7.93035L4.74636 6.34528V13.2851C4.74636 14.1885 5.48222 14.9277 6.38892 14.9277H10.906V16.5702H6.38892C4.57471 16.5702 3.10379 15.1001 3.10379 13.2851V6.34528L1.40538 7.93035L0.285156 6.73128L3.92507 3.33118ZM13.7804 5.07229H9.2634V3.42973H13.7804C15.5947 3.42973 17.0656 4.89982 17.0656 6.71485V13.6547L18.764 12.0696L19.8842 13.2687L16.2443 16.6688L12.6044 13.2687L13.7246 12.0696L15.423 13.6547V6.71485C15.423 5.81145 14.6871 5.07229 13.7804 5.07229Z" fill="#7C7C7C"/>
</g>
<defs>
<clipPath id="clip0_210_232">
<rect width="19.7107" height="19.7107" fill="white" transform="translate(0.229492 0.144653)"/>
</clipPath>
</defs>
</svg>
