<svg width="137" height="64" viewBox="0 0 137 64" fill="none" xmlns="http://www.w3.org/2000/svg">
<path d="M134.39 21.7354L134.391 21.7287V11.5595C134.391 11.2744 134.296 11.0263 134.117 10.8492C133.941 10.672 133.693 10.5764 133.408 10.5764C133.122 10.5764 132.874 10.672 132.698 10.8492C132.52 11.0263 132.424 11.2744 132.424 11.5595V21.7287C132.424 22.5012 131.807 23.1184 131.035 23.1184H115.356C114.582 23.1184 113.966 22.5012 113.966 21.7287V6.05114C113.966 5.2786 114.582 4.66135 115.356 4.66135H125.526C125.811 4.66135 126.059 4.56575 126.237 4.3886C126.413 4.21144 126.509 3.96337 126.509 3.67833C126.509 3.39329 126.413 3.14523 126.237 2.96806C126.059 2.79092 125.811 2.69531 125.526 2.69531H115.356C113.501 2.69531 112 4.19665 112 6.05114V21.6439C112 23.4983 113.501 24.9997 115.356 24.9997H130.95C132.804 24.9997 134.302 23.5008 134.39 21.7354Z" fill="#9878A7" stroke="#9878A7" stroke-width="0.0349952"/>
<path d="M134.169 1H129.932C129.647 1 129.399 1.0956 129.222 1.27276C129.045 1.44991 128.949 1.69799 128.949 1.98302C128.949 2.26805 129.045 2.51613 129.222 2.69329C129.399 2.87043 129.647 2.96604 129.932 2.96604H132.656L123.31 12.3106C122.918 12.7025 122.918 13.2969 123.31 13.6886C123.507 13.8853 123.796 13.9826 123.999 13.9826C124.203 13.9826 124.492 13.8853 124.688 13.6886L134.034 4.3442V7.0676C134.034 7.35264 134.13 7.60072 134.306 7.77788C134.484 7.95502 134.732 8.05063 135.017 8.05063C135.301 8.05063 135.55 7.95502 135.727 7.77788C135.903 7.60072 136 7.35264 136 7.0676V2.83045C136 1.82339 135.177 1 134.169 1Z" fill="#9878A7" stroke="#9878A7" stroke-width="0.0349952"/>
<path fill-rule="evenodd" clip-rule="evenodd" d="M0 29.3312H6.74777C10.5037 29.3312 12.4624 31.2543 12.4624 33.6261C12.4624 35.2607 11.5368 36.3718 10.2454 36.9487V36.9915C11.892 37.5791 12.8175 38.8718 12.8175 40.5278C12.8175 42.8889 10.9879 44.9615 7.01679 44.9615H0V29.3312ZM6.5325 35.5278C7.65177 35.5278 8.15753 34.9616 8.15753 34.3312C8.15753 33.7009 7.65177 33.1133 6.5325 33.1133H4.55231V35.5171H6.5325V35.5278ZM6.59708 41.1795C7.78087 41.1795 8.35128 40.6133 8.35128 39.8868C8.35128 39.1602 7.75935 38.5941 6.61861 38.5941H4.55231V41.1795H6.59708ZM13.7861 38.6047V29.3312H18.3814V38.562C18.3814 40.3034 19.2424 41.2223 20.7167 41.2223C22.1911 41.2223 23.1167 40.3034 23.1167 38.5406V29.3312H27.7336V38.6047C27.7336 42.5364 25.0754 45.3675 20.7167 45.3675C16.3582 45.3675 13.7861 42.5364 13.7861 38.6047ZM39.4426 30.0898V34.1069C38.4525 33.4124 36.7629 32.9316 35.3961 32.9316C34.1477 32.9316 33.5235 33.3269 33.5235 33.8504C33.5235 34.3739 34.223 34.641 35.4606 35.0897C37.57 35.8269 40.4326 36.8099 40.4326 40.1325C40.4326 43.1025 38.1726 45.3034 34.2122 45.3034C32.1675 45.3034 30.2949 44.7158 29.1326 43.9466V39.7158C30.2734 40.6346 31.9953 41.3718 33.6634 41.3718C35.0732 41.3718 35.7297 40.8483 35.7297 40.2607C35.7297 39.5021 34.6535 39.1709 33.3728 38.7115C31.6832 38.1026 29.0142 37.0128 29.0142 33.9786C29.0035 31.2436 31.1774 29 35.0517 29C36.7629 29 38.3018 29.438 39.4426 30.0898ZM41.6057 29.3312H46.201V44.9615H41.6057V29.3312ZM62.5377 44.9722H58.1576L52.486 36.5855H52.4645V44.9722H48.1059V29.3312H52.486L58.1576 37.5791H58.1791V29.3312H62.5377V44.9722ZM64.4425 29.3312H75.3228V33.391H69.0382V35.2714H74.6881V38.9573H69.0382V40.9017H75.3228V44.9615H64.4425V29.3312ZM86.8489 30.0898V34.1069C85.8587 33.4124 84.1691 32.9316 82.8025 32.9316C81.5539 32.9316 80.9297 33.3269 80.9297 33.8504C80.9297 34.3739 81.6296 34.641 82.8671 35.0897C84.9761 35.8269 87.8392 36.8099 87.8392 40.1325C87.8392 43.1025 85.5789 45.3034 81.6185 45.3034C79.5741 45.3034 77.7012 44.7158 76.5388 43.9466V39.7158C77.6797 40.6346 79.4019 41.3718 81.0699 41.3718C82.4796 41.3718 83.1359 40.8483 83.1359 40.2607C83.1359 39.5021 82.0601 39.1709 80.779 38.7115C79.0894 38.1026 76.4207 37.0128 76.4207 33.9786C76.4096 31.2436 78.5838 29 82.4581 29C84.1691 29 85.708 29.438 86.8489 30.0898ZM99.0098 30.0898V34.1069C98.0201 33.4124 96.33 32.9316 94.9633 32.9316C93.7154 32.9316 93.0911 33.3269 93.0911 33.8504C93.0911 34.3739 93.7904 34.641 95.0279 35.0897C97.1375 35.8269 100 36.8099 100 40.1325C100 43.1025 97.7403 45.3034 93.78 45.3034C91.7349 45.3034 89.8621 44.7158 88.7002 43.9466V39.7158C89.8406 40.6346 91.5627 41.3718 93.2307 41.3718C94.6404 41.3718 95.2973 40.8483 95.2973 40.2607C95.2973 39.5021 94.221 39.1709 92.9404 38.7115C91.2509 38.1026 88.5815 37.0128 88.5815 33.9786C88.5711 31.2436 90.7447 29 94.6189 29C96.33 29 97.8695 29.438 99.0098 30.0898ZM10.0839 62.8569H14.6793V47.2265H10.0839V62.8569ZM31.0159 47.2265H26.6466V55.4744H26.6251L20.9535 47.2265H16.5734V62.8569H20.9428V54.4701H20.9643L26.6358 62.8569H31.0159V47.2265ZM38.4202 46.8846C34.5458 46.8846 32.3719 49.1282 32.3719 51.8633C32.3719 54.8975 35.0517 55.9872 36.7306 56.5962C38.022 57.0556 39.0874 57.3868 39.0874 58.1453C39.0874 58.7329 38.431 59.2564 37.0211 59.2564C35.353 59.2564 33.6311 58.5193 32.4903 57.6005V61.8312C33.6526 62.6005 35.5252 63.188 37.57 63.188C41.5304 63.188 43.7904 60.9872 43.7904 58.0171C43.7904 54.6944 40.9277 53.7009 38.8184 52.9744C37.57 52.5363 36.8812 52.2799 36.8812 51.7351C36.8812 51.1902 37.5162 50.8162 38.7538 50.8162C40.1206 50.8162 41.8102 51.297 42.8003 51.9914V47.9743C41.6595 47.3227 40.1206 46.8846 38.4202 46.8846ZM44.8666 62.8569H49.4619V47.2265H44.8666V62.8569ZM55.9514 58.7329H56.8339C59.2122 58.7329 60.7512 57.3974 60.7512 55.0471C60.7512 52.6966 59.2122 51.3398 56.8339 51.3398H55.9514V58.7329ZM65.4002 55.0471C65.4002 59.7586 61.8169 62.8569 56.6725 62.8569H51.356V47.2265H56.6725C61.8169 47.2265 65.4002 50.3462 65.4002 55.0471ZM66.6383 62.8569H77.5186V58.797H71.2333V56.8525H76.8832V53.1667H71.2333V51.2863H77.5186V47.2265H66.6383V62.8569ZM84.7504 54.609C85.9128 54.609 86.817 54.0641 86.817 52.9744C86.817 51.8846 85.9128 51.3398 84.7288 51.3398H83.7601V54.609H84.7504ZM92.2731 62.8569H86.86L83.8678 58.0278H83.7601V62.8569H79.1651V47.2265H84.7719C88.7107 47.2265 91.4551 48.9679 91.4551 52.6645C91.4551 54.1282 90.7988 56.265 88.1836 57.3547L92.2731 62.8569Z" fill="#9878A7"/>
</svg>
