<svg width="217" height="70" viewBox="0 0 217 70" fill="none" xmlns="http://www.w3.org/2000/svg">
<path d="M214.39 21.7354L214.391 21.7287V11.5595C214.391 11.2744 214.296 11.0263 214.117 10.8492C213.941 10.672 213.693 10.5764 213.408 10.5764C213.122 10.5764 212.874 10.672 212.698 10.8492C212.52 11.0263 212.424 11.2744 212.424 11.5595V21.7287C212.424 22.5012 211.807 23.1184 211.035 23.1184H195.356C194.582 23.1184 193.966 22.5012 193.966 21.7287V6.05114C193.966 5.2786 194.582 4.66135 195.356 4.66135H205.526C205.811 4.66135 206.059 4.56575 206.237 4.3886C206.413 4.21144 206.509 3.96337 206.509 3.67833C206.509 3.39329 206.413 3.14523 206.237 2.96806C206.059 2.79092 205.811 2.69531 205.526 2.69531H195.356C193.501 2.69531 192 4.19665 192 6.05114V21.6439C192 23.4983 193.501 24.9997 195.356 24.9997H210.95C212.804 24.9997 214.302 23.5008 214.39 21.7354Z" fill="#9878A7" stroke="#9878A7" stroke-width="0.0349952"/>
<path d="M214.169 1H209.931C209.646 1 209.399 1.0956 209.221 1.27276C209.045 1.44991 208.948 1.69799 208.948 1.98302C208.948 2.26805 209.045 2.51613 209.221 2.69329C209.399 2.87043 209.646 2.96604 209.931 2.96604H212.656L203.31 12.3106C202.918 12.7025 202.918 13.2969 203.31 13.6886C203.506 13.8853 203.795 13.9826 203.999 13.9826C204.202 13.9826 204.491 13.8853 204.688 13.6886L214.034 4.3442V7.0676C214.034 7.35264 214.129 7.60072 214.306 7.77788C214.484 7.95502 214.732 8.05063 215.017 8.05063C215.301 8.05063 215.55 7.95502 215.727 7.77788C215.903 7.60072 216 7.35264 216 7.0676V2.83045C216 1.82339 215.177 1 214.169 1Z" fill="#9878A7" stroke="#9878A7" stroke-width="0.0349952"/>
<mask id="mask0_541_7715" style="mask-type:luminance" maskUnits="userSpaceOnUse" x="0" y="26" width="180" height="44">
<path d="M180 26H0V69.3333H180V26Z" fill="white"/>
</mask>
<g mask="url(#mask0_541_7715)">
<mask id="mask1_541_7715" style="mask-type:luminance" maskUnits="userSpaceOnUse" x="0" y="26" width="181" height="44">
<path d="M0 26H180V69.3333H0V26Z" fill="white"/>
</mask>
<g mask="url(#mask1_541_7715)">
<path d="M59.1745 37.8681C59.0937 39.034 58.6796 39.9522 57.9319 40.6229C57.1846 41.292 56.1996 41.6265 54.977 41.6265C53.6399 41.6265 52.5886 41.1589 51.8232 40.2236C51.0563 39.2893 50.6729 38.0056 50.6729 36.3723V35.7092C50.6729 34.6676 50.8496 33.7496 51.2031 32.9552C51.5565 32.1617 52.0612 31.5531 52.7172 31.129C53.3742 30.704 54.1373 30.4916 55.0065 30.4922C56.209 30.4922 57.1783 30.8272 57.9145 31.4973C58.6491 32.1664 59.0742 33.1066 59.1896 34.3179H57.041C56.988 33.6183 56.8004 33.111 56.4783 32.7957C56.1555 32.4811 55.665 32.3237 55.0065 32.3237C54.29 32.3237 53.7541 32.5902 53.3986 33.1231C53.0426 33.6571 52.8599 34.4845 52.8503 35.6055V36.4242C52.8503 37.5952 53.021 38.4511 53.3623 38.9916C53.7042 39.5333 54.2426 39.804 54.9777 39.8034C55.6413 39.8034 56.1366 39.6461 56.4639 39.3314C56.7911 39.0156 56.9784 38.5282 57.0259 37.8689L59.1745 37.8681ZM70.2694 36.305C70.2694 37.3729 70.088 38.3082 69.7249 39.1109C69.3624 39.9151 68.8431 40.5354 68.1669 40.9719C67.4917 41.4083 66.7173 41.6265 65.8435 41.6265C64.9793 41.6265 64.208 41.4109 63.5293 40.9796C62.8521 40.5473 62.327 39.9309 61.9539 39.1302C61.5813 38.3291 61.3927 37.407 61.3882 36.3639V35.8283C61.3882 34.7615 61.5732 33.8226 61.9433 33.0116C62.3134 32.2007 62.8365 31.5779 63.5126 31.143C64.1883 30.7096 64.9604 30.4926 65.8292 30.4922C66.6984 30.4922 67.4708 30.7091 68.1465 31.143C68.8221 31.5779 69.3447 32.2007 69.7143 33.0116C70.0848 33.8226 70.2702 34.759 70.2702 35.8206L70.2694 36.305ZM68.0927 35.8136C68.0927 34.6772 67.8972 33.8139 67.5058 33.2237C67.1142 32.6331 66.5552 32.3377 65.8292 32.3377C65.1082 32.3377 64.5517 32.6292 64.16 33.2121C63.7683 33.7951 63.5703 34.6501 63.5663 35.7773V36.3057C63.5663 37.4123 63.762 38.2705 64.1532 38.8803C64.5445 39.4911 65.108 39.7964 65.8435 39.7964C66.5641 39.7964 67.1182 39.5024 67.5058 38.9143C67.8921 38.3262 68.0877 37.4689 68.0927 36.3422V35.8136ZM75.2323 41.478H73.0844V30.6407H75.2323V41.478ZM86.8226 41.478H84.6732L80.4909 34.3481V41.478H78.3422V30.6407H80.4909L84.6807 37.7861V30.6407H86.8226V41.478ZM97.46 32.4499H94.2654V41.478H92.1167V32.4499H88.9652V30.6407H97.46V32.4499ZM106.077 36.7816H101.952V39.6842H106.793V41.478H99.8023V30.6407H106.779V32.4499H101.952V35.0321H106.077V36.7816ZM111.32 39.6842H115.883V41.478H109.171V30.6407H111.32V39.6842ZM124.507 36.7809H120.382V39.6842H125.223V41.478H118.233V30.6407H125.209V32.4499H120.382V35.0321H124.507V36.7809ZM135.853 40.1083C135.466 40.5896 134.918 40.9629 134.212 41.228C133.506 41.4942 132.723 41.6273 131.863 41.6273C130.96 41.6273 130.169 41.4225 129.488 41.0129C128.808 40.6033 128.283 40.009 127.913 39.23C127.543 38.4511 127.353 37.5356 127.343 36.4837V35.7463C127.343 34.6645 127.519 33.7282 127.87 32.9374C128.22 32.1461 128.727 31.5406 129.388 31.1213C130.049 30.7019 130.824 30.4922 131.713 30.4922C132.949 30.4922 133.916 30.7986 134.614 31.4114C135.31 32.0243 135.724 32.9162 135.853 34.0873H133.762C133.665 33.4666 133.454 33.0127 133.127 32.7254C132.8 32.4375 132.35 32.2936 131.777 32.2936C131.046 32.2936 130.489 32.5789 130.107 33.1494C129.726 33.72 129.533 34.5686 129.528 35.6953V36.3871C129.528 37.5235 129.736 38.382 130.15 38.9623C130.566 39.5426 131.176 39.8329 131.978 39.8329C132.785 39.8329 133.359 39.6543 133.704 39.2973V37.4294H131.748V35.7842H135.853V40.1083ZM142.572 37.5114H140.859V41.478H138.71V30.6407H142.586C143.818 30.6407 144.768 30.9263 145.436 31.4973C146.105 32.0674 146.439 32.8734 146.439 33.9155C146.439 34.6553 146.285 35.2717 145.977 35.7649C145.669 36.2591 145.203 36.6524 144.577 36.945L146.833 41.3734V41.478H144.526L142.572 37.5114ZM140.859 35.7022H142.593C143.132 35.7022 143.549 35.5595 143.846 35.2743C144.143 34.9885 144.29 34.5952 144.29 34.0942C144.29 33.5835 144.15 33.1816 143.872 32.8886C143.592 32.5962 143.163 32.4499 142.586 32.4499H140.859V35.7022ZM155.077 39.2447H151.309L150.594 41.478H148.308L152.192 30.6407H154.182L158.085 41.478H155.802L155.077 39.2447ZM151.89 37.4371H154.497L153.187 33.3792L151.89 37.4371ZM162.326 37.66V41.478H160.177V30.6407H164.245C165.029 30.6407 165.717 30.7899 166.312 31.088C166.906 31.3851 167.364 31.8082 167.684 32.3571C168.004 32.9049 168.164 33.5289 168.164 34.2289C168.164 35.2905 167.814 36.1275 167.115 36.7399C166.415 37.3537 165.446 37.6605 164.209 37.66H162.326ZM162.326 35.8507H164.245C164.814 35.8507 165.247 35.712 165.545 35.4345C165.845 35.1559 165.994 34.759 165.993 34.2436C165.993 33.7122 165.843 33.2827 165.543 32.9552C165.242 32.6286 164.826 32.4602 164.296 32.4499H162.326V35.8507ZM179.244 41.478H177.096V36.8335H172.906V41.478H170.756V30.6407H172.906V35.0321H177.096V30.6407H179.244V41.478Z" fill="#9878A7"/>
<path d="M56.4512 51.042H54.1793V57.4514H52.9237V51.042H50.6723V49.9981H56.4512V51.042ZM58.8971 52.5169C59.0799 52.2907 59.3105 52.1097 59.5714 51.9873C59.8322 51.865 60.1167 51.8046 60.4036 51.8104C61.5583 51.8104 62.1431 52.4844 62.1583 53.8323V57.4514H60.9436V53.8788C60.9436 53.4965 60.8629 53.226 60.7016 53.0671C60.5387 52.9087 60.3007 52.8296 59.9876 52.8296C59.5006 52.8296 59.1371 53.0511 58.8971 53.4942V57.4514H57.6809V49.5888H58.8971V52.5169ZM66.1817 57.5537C65.4114 57.5537 64.7866 57.3054 64.3076 56.8092C63.8292 56.3124 63.5899 55.6513 63.5899 54.826V54.672C63.5899 54.119 63.6943 53.625 63.9031 53.1901C64.0957 52.7733 64.3998 52.4211 64.7803 52.1741C65.1579 51.9314 65.5959 51.8052 66.0418 51.8104C66.7785 51.8104 67.3479 52.0508 67.7503 52.5316C68.1517 53.0134 68.3526 53.6943 68.3531 54.5744V55.0767H64.8152C64.8524 55.5338 65.0019 55.8953 65.2636 56.1616C65.5253 56.4278 65.8545 56.5608 66.2514 56.5608C66.8085 56.5608 67.2623 56.3302 67.6127 55.869L68.2684 56.5098C68.0509 56.8412 67.7509 57.1072 67.3994 57.2804C67.0196 57.4667 66.6028 57.5601 66.1817 57.5537ZM66.0365 52.8079C65.7027 52.8079 65.4335 52.9276 65.2288 53.1669C65.0236 53.4052 64.8925 53.738 64.8355 54.1651H67.1514V54.0722C67.1256 53.6564 67.0175 53.3418 66.8268 53.1282C66.6363 52.9147 66.3728 52.8079 66.0365 52.8079ZM73.0952 57.4514V52.8341H72.2693V51.9125H73.0952V51.4057C73.0952 50.7913 73.2621 50.317 73.5958 49.9827C73.9291 49.6484 74.396 49.4812 74.9965 49.4812C75.2103 49.4812 75.4372 49.5119 75.6772 49.5733L75.6468 50.546C75.4936 50.516 75.3377 50.5022 75.1817 50.505C74.6014 50.505 74.3115 50.8104 74.3121 51.4212V51.9125H75.4109V52.8341H74.3113V57.4514H73.0952ZM79.9896 56.9098C79.6326 57.339 79.1254 57.5537 78.4679 57.5537C77.8805 57.5537 77.4363 57.378 77.1353 57.0267C76.8333 56.6759 76.6823 56.1672 76.6823 55.5007V51.9125H77.8984V55.4852C77.8984 56.1889 78.1835 56.5407 78.7537 56.5407C79.3442 56.5407 79.7425 56.324 79.9487 55.8907V51.9125H81.1648V57.4514H80.0191L79.9896 56.9098ZM84.3368 50.5661V51.9125H85.2927V52.8341H84.3368V55.9256C84.3368 56.1376 84.3776 56.2906 84.4593 56.3844C84.5415 56.4772 84.6875 56.524 84.8972 56.5244C85.0379 56.5244 85.1796 56.5074 85.3223 56.4734V57.436C85.0621 57.5127 84.7928 57.5521 84.5221 57.5537C83.5883 57.5537 83.1214 57.0264 83.1214 55.972V52.8341H82.2305V51.9125H83.1207V50.5669L84.3368 50.5661ZM89.91 56.9098C89.5531 57.3401 89.0461 57.5549 88.3891 57.5544C87.8017 57.5544 87.3573 57.3788 87.0557 57.0274C86.7532 56.6767 86.6022 56.168 86.6027 55.5014V51.9133H87.8188V55.486C87.8188 56.1897 88.1039 56.5414 88.6742 56.5414C89.2642 56.5414 89.6627 56.3248 89.8699 55.8914V51.9133H91.0861V57.4522H89.9403L89.91 56.9098ZM95.5686 53.0501C95.4049 53.0226 95.2392 53.0088 95.0733 53.009C94.5162 53.009 94.1407 53.2276 93.9472 53.6644V57.4522H92.7317V51.9133H93.8927L93.9222 52.5323C94.2162 52.0515 94.6231 51.8112 95.1428 51.8112C95.3163 51.8112 95.4597 51.8349 95.5732 51.8823L95.5686 53.0501ZM99.0355 57.5544C98.2646 57.5544 97.64 57.3062 97.1614 56.81C96.6834 56.3132 96.4442 55.6521 96.4437 54.8268V54.6728C96.4437 54.1197 96.5478 53.6258 96.7561 53.1909C96.949 52.774 97.2534 52.4218 97.6341 52.1749C98.0115 51.9323 98.4492 51.8061 98.8948 51.8112C99.6325 51.8112 100.202 52.0515 100.603 52.5323C101.005 53.0142 101.206 53.6951 101.207 54.5752V55.0774H97.6689C97.7062 55.5346 97.8557 55.8961 98.1174 56.1623C98.3791 56.4286 98.7083 56.5616 99.1052 56.5616C99.6623 56.5616 100.116 56.331 100.467 55.8698L101.122 56.5106C100.905 56.842 100.605 57.108 100.253 57.2812C99.8734 57.4674 99.4566 57.5609 99.0355 57.5544ZM98.8904 52.8087C98.5565 52.8087 98.2873 52.9283 98.0826 53.1677C97.8774 53.406 97.7463 53.7388 97.6893 54.1659H100.005V54.073C99.9789 53.6572 99.8707 53.3426 99.6807 53.129C99.4901 52.9159 99.2266 52.8091 98.8904 52.8087ZM105.293 54.631C105.293 54.0882 105.398 53.5994 105.609 53.1646C105.801 52.7486 106.109 52.3996 106.494 52.161C106.874 51.9272 107.312 51.8104 107.806 51.8104C108.536 51.8104 109.128 52.0508 109.584 52.5316C110.039 53.0134 110.286 53.6518 110.321 54.4468L110.327 54.7386C110.327 55.2843 110.225 55.7723 110.019 56.2026C109.828 56.617 109.522 56.9643 109.138 57.2008C108.757 57.436 108.316 57.5537 107.816 57.5537C107.052 57.5537 106.44 57.2937 105.981 56.7737C105.523 56.2526 105.293 55.5588 105.293 54.6921V54.631ZM106.509 54.7386C106.509 55.3086 106.625 55.7548 106.855 56.0772C107.084 56.3997 107.405 56.5608 107.816 56.5608C108.225 56.5608 108.545 56.3968 108.773 56.0687C109.002 55.7421 109.116 55.2629 109.116 54.631C109.116 54.0718 108.998 53.6281 108.763 53.3C108.528 52.9719 108.209 52.8081 107.805 52.8087C107.409 52.8087 107.094 52.9699 106.86 53.2922C106.626 53.6147 106.509 54.0968 106.509 54.7386ZM112.194 57.4514V52.8341H111.368V51.9125H112.194V51.4057C112.194 50.7913 112.36 50.317 112.694 49.9827C113.027 49.6484 113.494 49.4812 114.095 49.4812C114.308 49.4812 114.535 49.5119 114.775 49.5733L114.745 50.546C114.591 50.5161 114.436 50.5023 114.28 50.505C113.699 50.505 113.409 50.8104 113.409 51.4212V51.9125H114.509V52.8341H113.409V57.4514H112.194ZM119.913 51.9125L119.947 52.4913C120.327 52.0374 120.848 51.8104 121.508 51.8104C122.231 51.8104 122.727 52.0939 122.995 52.6608C123.388 52.0933 123.941 51.8099 124.656 51.8104C125.253 51.8104 125.697 51.9793 125.989 52.3172C126.281 52.6547 126.43 53.1527 126.437 53.8114V57.4514H125.221V53.8479C125.221 53.496 125.146 53.2383 124.996 53.0748C124.846 52.9108 124.597 52.8288 124.25 52.8288C123.974 52.8288 123.748 52.9049 123.573 53.057C123.395 53.2133 123.266 53.4207 123.205 53.6529L123.21 57.4522H121.994V53.8069C121.977 53.1548 121.653 52.8288 121.018 52.8288C120.53 52.8288 120.186 53.032 119.983 53.4386V57.4514H118.767V51.9125H119.913ZM127.867 54.6318C127.867 54.0886 127.973 53.5994 128.181 53.1646C128.376 52.7487 128.684 52.3999 129.068 52.161C129.448 51.9272 129.885 51.8104 130.379 51.8104C131.11 51.8104 131.703 52.0508 132.157 52.5316C132.613 53.0134 132.859 53.6518 132.895 54.4468L132.9 54.7386C132.9 55.2843 132.798 55.7723 132.594 56.2026C132.403 56.6171 132.096 56.9644 131.711 57.2008C131.33 57.436 130.889 57.5537 130.389 57.5537C129.625 57.5537 129.014 57.2937 128.556 56.7737C128.097 56.2526 127.867 55.5588 127.867 54.6921V54.6318ZM129.084 54.7386C129.084 55.3086 129.198 55.7548 129.428 56.0772C129.659 56.3997 129.979 56.5608 130.389 56.5608C130.799 56.5608 131.118 56.3968 131.347 56.0687C131.576 55.7421 131.689 55.2629 131.689 54.631C131.689 54.0718 131.573 53.6281 131.337 53.3C131.101 52.9719 130.783 52.8081 130.379 52.8087C129.981 52.8087 129.666 52.9699 129.433 53.2922C129.199 53.6147 129.083 54.0968 129.084 54.7386ZM135.467 51.9125L135.501 52.5524C135.903 52.0572 136.428 51.8099 137.078 51.8104C138.205 51.8104 138.779 52.4708 138.799 53.7913V57.4514H137.584V53.8633C137.584 53.512 137.509 53.2518 137.36 53.0826C137.213 52.9133 136.97 52.8288 136.633 52.8288C136.143 52.8288 135.777 53.0558 135.537 53.5097V57.4514H134.321V51.9125H135.467ZM142.83 57.5537C142.06 57.5537 141.436 57.3054 140.958 56.8092C140.479 56.3124 140.239 55.6513 140.239 54.826V54.672C140.239 54.119 140.344 53.625 140.553 53.1901C140.745 52.7732 141.05 52.4209 141.431 52.1741C141.808 51.9318 142.246 51.8054 142.691 51.8104C143.428 51.8104 143.998 52.0508 144.4 52.5316C144.801 53.0134 145.003 53.6943 145.003 54.5744V55.0767H141.466C141.501 55.5338 141.651 55.8953 141.913 56.1616C142.175 56.4278 142.505 56.5608 142.901 56.5608C143.458 56.5608 143.911 56.3302 144.261 55.869L144.918 56.5098C144.701 56.8411 144.401 57.1071 144.05 57.2804C143.669 57.4669 143.253 57.5604 142.83 57.5537ZM142.686 52.8079C142.353 52.8079 142.084 52.9276 141.878 53.1669C141.674 53.4052 141.543 53.738 141.486 54.1651H143.801V54.0722C143.775 53.6564 143.667 53.3418 143.477 53.1282C143.287 52.9147 143.024 52.8079 142.686 52.8079ZM148.185 55.6702L149.285 51.9125H150.58L148.429 58.2911C148.099 59.2228 147.539 59.6886 146.748 59.6886C146.55 59.6851 146.354 59.6541 146.163 59.5964V58.6339L146.394 58.6493C146.7 58.6493 146.931 58.5923 147.086 58.4783C147.241 58.3633 147.364 58.1713 147.454 57.9027L147.629 57.426L145.728 51.9125H147.039L148.185 55.6702ZM26.5311 57.5312L18.9031 60.8857V60.5498C17.4321 60.9306 15.8029 61.1503 14.2593 61.2207C7.08656 61.1503 1.39311 57.3532 1.32656 52.8349V51.1566C3.68243 54.6217 8.47891 56.9431 14.2593 56.8596C16.2158 56.9431 18.2163 56.6304 19.8976 56.1887L20.5608 54.511C18.5673 55.113 16.3906 55.5317 14.2601 55.517C7.08656 55.5317 1.39311 51.7346 1.32731 47.132V45.7902C3.68243 48.9938 8.46832 51.3152 14.2601 51.1573C16.8655 51.316 19.4135 50.7611 21.5554 49.8148L21.8882 48.1379C19.7947 49.2546 17.0818 49.903 14.2601 49.8148C7.08656 49.903 1.39311 46.1059 1.32731 41.4298V40.0872C3.68243 43.3651 8.47891 45.6872 14.2601 45.7902C17.5455 45.6872 20.6607 44.809 23.2147 43.4417L23.5459 41.429C21.2286 43.1662 17.8449 44.2859 14.2601 44.4477C7.08656 44.2859 1.39387 40.488 1.32731 35.7268C1.39311 31.1984 7.08656 27.4006 14.2601 27.341C18.5362 27.4013 22.5076 28.918 24.8725 31.3663L25.1032 31.754L26.7746 31.7618L26.5311 31.3663C24.1789 28.1341 19.4748 26 14.2601 26C6.32269 26 0 30.4247 0 35.7276V53.17C0.279078 58.3468 6.45731 62.5618 14.2601 62.5618C19.4135 62.5618 24.0452 60.5111 26.5311 57.5312Z" fill="#9878A7"/>
<path d="M23.4276 69.3337L26.1048 57.8232L18.4079 61.2087L23.094 41.2351H14.0562L16.3985 31.417H45.1826L42.8396 41.2351H33.4689L31.4603 46.6518L41.8352 42.2503L23.4276 69.3337ZM28.1136 55.4531L26.7749 62.2239L37.8193 45.2975L28.7822 49.3601L32.7989 39.8809H41.8352L43.5089 32.7712H17.402L15.7284 39.8809H24.7662L20.4145 58.8392L28.1128 55.4547L28.1136 55.4531Z" fill="#9878A7"/>
<path d="M73.0751 57.4611H74.2806V52.8229H75.397V51.9207H74.2806V51.3882C74.2806 51.1938 74.3139 51.03 74.3804 50.8969C74.4469 50.7663 74.552 50.6608 74.6807 50.5951C74.8143 50.5229 74.9729 50.4868 75.1564 50.4868C75.2472 50.4868 75.3304 50.4903 75.406 50.4976C75.4866 50.5043 75.5603 50.5162 75.6268 50.5332L75.6571 49.5814C75.5455 49.5504 75.4317 49.5281 75.3167 49.5149C75.1991 49.4969 75.0803 49.4883 74.9613 49.4893C74.5741 49.4893 74.2387 49.5626 73.9554 49.7091C73.677 49.8471 73.4476 50.0709 73.2997 50.349C73.15 50.6291 73.0751 50.9756 73.0751 51.3882V51.9207H72.2439V52.8221H73.0751V57.4611ZM58.9004 52.5574V49.5977H57.7002V57.4611H58.9004V53.507C58.9363 53.4368 58.9766 53.3708 59.0214 53.3089C59.1314 53.1557 59.268 53.0344 59.4314 52.9452C59.5977 52.857 59.7894 52.8129 60.0062 52.8129C60.2134 52.8129 60.3886 52.8487 60.5319 52.9204C60.6755 52.9886 60.7839 53.101 60.857 53.2578C60.9342 53.4151 60.9727 53.6267 60.9727 53.8923V57.4611H62.1829V53.9031C62.1829 53.524 62.1412 53.2031 62.058 52.9406C61.9923 52.6991 61.8704 52.4777 61.7025 52.2952C61.5482 52.1286 61.3559 52.0037 61.1429 51.9314C60.9104 51.8532 60.6669 51.8152 60.4222 51.8192C60.1302 51.8149 59.8411 51.8791 59.5773 52.0071C59.3134 52.1351 59.0819 52.3234 58.9004 52.5574ZM54.1826 57.4611V51.0308H56.4697V50.007H50.6704V51.0308H52.937V57.4611H54.1826Z" fill="#9878A7"/>
<path fill-rule="evenodd" clip-rule="evenodd" d="M66.1919 57.5644C65.8207 57.5702 65.4518 57.5024 65.1058 57.3648C64.7969 57.2353 64.5175 57.042 64.2852 56.7968C64.0597 56.5495 63.8843 56.2589 63.7694 55.9418C63.6479 55.6022 63.5869 55.2432 63.5894 54.8817V54.6773C63.5894 54.244 63.6512 53.8514 63.7747 53.4995C63.8978 53.1483 64.0694 52.848 64.2898 52.5989C64.5048 52.3491 64.7713 52.1514 65.0702 52.0201C65.3784 51.8851 65.7107 51.8171 66.0459 51.8204C66.4331 51.8204 66.772 51.887 67.0623 52.0201C67.3518 52.1531 67.5918 52.3409 67.7823 52.5834C67.976 52.8222 68.1197 53.1072 68.2134 53.4384C68.3092 53.7697 68.3574 54.1349 68.3579 54.5342V55.0611H64.8063C64.8184 55.236 64.8482 55.4016 64.8955 55.5579C64.9621 55.7628 65.0587 55.942 65.1852 56.0958C65.3123 56.2489 65.4661 56.3702 65.6465 56.4594C65.8261 56.5445 66.031 56.5871 66.2614 56.5871C66.5519 56.5871 66.8105 56.5272 67.0374 56.4075C67.2643 56.2879 67.4609 56.1189 67.6273 55.9008L68.2627 56.5305C68.1335 56.7179 67.9804 56.8865 67.8073 57.032C67.6208 57.1893 67.3923 57.3173 67.1221 57.4159C66.8228 57.5202 66.508 57.5705 66.1919 57.5644ZM64.8804 53.9043C64.8601 53.9938 64.8438 54.0841 64.8313 54.1751H67.1668V54.0784C67.1624 53.8638 67.1187 53.6519 67.0374 53.4539C66.9654 53.2651 66.8421 53.1012 66.682 52.9819C66.5217 52.8632 66.3081 52.8039 66.0413 52.8039C65.8412 52.8039 65.6627 52.848 65.5059 52.9362C65.3483 53.0253 65.2157 53.1539 65.1202 53.31C65.0097 53.4937 64.9287 53.6943 64.8804 53.9043Z" fill="#9878A7"/>
<path d="M79.3742 57.3766C79.6042 57.2639 79.8072 57.1005 79.9686 56.8985L79.9996 57.4633H81.1401V51.9236H79.9293V55.8995C79.845 56.0874 79.7114 56.2479 79.5435 56.363C79.347 56.4992 79.077 56.5673 78.7335 56.5673C78.6183 56.5681 78.5035 56.5509 78.3932 56.5162C78.2872 56.4824 78.1909 56.4226 78.1126 56.3421C78.0266 56.2504 77.9618 56.1401 77.9229 56.0194C77.8721 55.8556 77.8483 55.6843 77.8525 55.5125V51.9236H76.647V55.5025C76.647 55.8677 76.6903 56.182 76.777 56.445C76.8637 56.7081 76.9855 56.9212 77.1423 57.0842C77.3022 57.2482 77.4922 57.3694 77.7125 57.4478C77.9329 57.5263 78.1746 57.5655 78.4379 57.5655C78.8014 57.5655 79.1135 57.5025 79.3742 57.3766ZM85.2574 52.8252V51.9228H84.2916V50.5664H83.0861V51.9228H82.205V52.8244H83.0861V56.0086C83.0861 56.3877 83.1461 56.6916 83.2661 56.9202C83.3861 57.1492 83.553 57.3145 83.7667 57.4162C83.9801 57.5152 84.2251 57.5647 84.5019 57.5647C84.6723 57.5647 84.8225 57.5528 84.9526 57.5291C85.0857 57.5054 85.2025 57.4781 85.3029 57.4471L85.2975 56.5054C85.1576 56.5345 85.0153 56.5501 84.8725 56.5517C84.756 56.5517 84.6542 56.5363 84.567 56.5054C84.4794 56.4733 84.4064 56.4094 84.362 56.3258C84.3151 56.234 84.2916 56.1025 84.2916 55.9312V52.8244L85.2574 52.8252ZM89.2901 57.3766C89.527 57.2581 89.7254 57.0986 89.8853 56.8985L89.9155 57.4633H91.0567V51.9236H89.846V55.8995C89.7612 56.0872 89.6279 56.2475 89.4602 56.363C89.2635 56.4992 88.9933 56.5673 88.6494 56.5673C88.5294 56.5673 88.416 56.5503 88.3091 56.5162C88.2034 56.4823 88.1073 56.4225 88.0293 56.3421C87.943 56.2504 87.8779 56.1402 87.8388 56.0194C87.7882 55.8556 87.7646 55.6843 87.7691 55.5125V51.9236H86.5629V55.5025C86.5629 55.8677 86.6062 56.182 86.6929 56.445C86.7796 56.7081 86.9014 56.9212 87.0582 57.0842C87.2185 57.2482 87.4089 57.3694 87.6292 57.4478C87.8491 57.5263 88.0907 57.5655 88.3545 57.5655C88.7181 57.5655 89.0299 57.5025 89.2901 57.3766ZM93.9027 53.6771V57.4633H92.6972V51.9236H93.8483L93.8823 52.5744L93.9027 52.5381C94.0399 52.3131 94.2101 52.1375 94.4132 52.0111C94.62 51.8847 94.8584 51.8215 95.1287 51.8215C95.2023 51.8215 95.2807 51.8282 95.364 51.8416C95.4506 51.8555 95.5156 51.8711 95.5591 51.8881L95.5492 53.0349C95.3872 53.0081 95.2233 52.9943 95.0591 52.9938C94.8524 52.9938 94.6706 53.0247 94.5139 53.0866C94.3771 53.1355 94.252 53.2134 94.1466 53.3151C94.0413 53.4168 93.9582 53.5402 93.9027 53.6771Z" fill="#9878A7"/>
<path fill-rule="evenodd" clip-rule="evenodd" d="M99.0024 57.5647C98.6021 57.5647 98.2401 57.4981 97.9163 57.365C97.6074 57.2356 97.3281 57.0422 97.0958 56.797C96.8702 56.5498 96.6949 56.2591 96.58 55.942C96.4584 55.6024 96.3974 55.2434 96.4 54.8819V54.6776C96.4 54.2442 96.4618 53.8517 96.5853 53.4998C96.7083 53.1486 96.88 52.8483 97.1003 52.5991C97.3155 52.3492 97.5824 52.1515 97.8815 52.0203C98.1898 51.8853 98.522 51.8173 98.8572 51.8207C99.2439 51.8207 99.5825 51.8872 99.8729 52.0203C100.163 52.1534 100.404 52.3412 100.594 52.5837C100.787 52.8224 100.93 53.1076 101.023 53.4387C101.12 53.7699 101.168 54.1351 101.168 54.5344V55.0613H97.6169C97.629 55.2362 97.6586 55.4019 97.7061 55.5581C97.7726 55.763 97.8694 55.9422 97.9965 56.096C98.1225 56.2492 98.2759 56.3704 98.4563 56.4597C98.6369 56.5448 98.8421 56.5873 99.072 56.5873C99.341 56.5926 99.6073 56.531 99.848 56.4078C100.075 56.2881 100.271 56.1192 100.438 55.901L101.074 56.5309C100.945 56.7181 100.792 56.8868 100.619 57.0322C100.413 57.1999 100.181 57.3297 99.9326 57.4161C99.6333 57.5204 99.3185 57.5708 99.0024 57.5647ZM97.691 53.9045C97.6706 53.994 97.6543 54.0843 97.6419 54.1753H99.978V54.0787C99.9735 53.864 99.9294 53.6521 99.848 53.4542C99.776 53.2653 99.6526 53.1014 99.4925 52.9821C99.3321 52.8634 99.1186 52.8042 98.8519 52.8042C98.6518 52.8042 98.4732 52.8483 98.3164 52.9364C98.1626 53.0221 98.0343 53.1467 97.9314 53.3102C97.8194 53.4932 97.7382 53.6941 97.691 53.9045ZM105.231 54.6366V54.7542C105.231 55.1534 105.287 55.5239 105.401 55.8653C105.514 56.2059 105.679 56.5046 105.896 56.7614C106.113 57.0142 106.376 57.212 106.686 57.355C107.001 57.4948 107.356 57.5647 107.753 57.5647C108.146 57.5647 108.498 57.495 108.809 57.3557C109.119 57.2118 109.382 57.0137 109.599 56.7614C109.82 56.499 109.989 56.1946 110.095 55.8653C110.208 55.5239 110.265 55.1534 110.265 54.7542V54.6366C110.265 54.2372 110.208 53.8669 110.095 53.5253C109.989 53.1958 109.821 52.8911 109.599 52.6293C109.381 52.3723 109.109 52.1693 108.803 52.0358C108.469 51.8879 108.107 51.8146 107.742 51.8207C107.349 51.8207 106.996 51.8923 106.682 52.0358C106.372 52.1755 106.108 52.3734 105.891 52.6293C105.672 52.8921 105.505 53.1967 105.401 53.5253C105.287 53.8669 105.231 54.2372 105.231 54.6366ZM106.437 54.7542V54.6366C106.437 54.3904 106.462 54.1583 106.512 53.9401C106.557 53.7318 106.636 53.5328 106.747 53.352C106.854 53.1812 106.989 53.0479 107.152 52.952C107.319 52.8529 107.515 52.8034 107.742 52.8034C107.969 52.8034 108.164 52.8529 108.328 52.952C108.495 53.0479 108.632 53.181 108.738 53.3512C108.848 53.5214 108.928 53.7178 108.979 53.9401C109.032 54.1583 109.058 54.3904 109.058 54.6366V54.7542C109.058 55.0033 109.032 55.2389 108.979 55.4607C108.928 55.6824 108.85 55.877 108.744 56.0441C108.64 56.2081 108.499 56.3435 108.333 56.4388C108.156 56.5385 107.955 56.588 107.753 56.5819C107.522 56.5819 107.324 56.5342 107.157 56.4388C106.991 56.3434 106.85 56.208 106.747 56.0441C106.635 55.8656 106.556 55.6679 106.512 55.4607C106.46 55.2289 106.435 54.9918 106.437 54.7542Z" fill="#9878A7"/>
<path d="M113.306 57.461H112.1V52.8228H111.269V51.9206H112.1V51.3883C112.1 50.9755 112.175 50.6291 112.326 50.349C112.479 50.0653 112.698 49.8519 112.981 49.709C113.265 49.562 113.599 49.4888 113.987 49.4893C114.107 49.4893 114.225 49.4978 114.341 49.5148C114.459 49.5283 114.572 49.5504 114.682 49.5814L114.652 50.5332C114.58 50.5157 114.506 50.5038 114.431 50.4976C114.348 50.4907 114.266 50.4874 114.182 50.4875C113.998 50.4875 113.839 50.5234 113.706 50.595C113.578 50.6615 113.473 50.7669 113.406 50.8968C113.336 51.0504 113.301 51.2187 113.306 51.3883V51.9206H114.421V52.822H113.306V57.461ZM119.855 53.479V57.461H118.649V51.9214H119.785L119.823 52.5458C120 52.3188 120.216 52.1435 120.47 52.0196C120.74 51.8855 121.052 51.8187 121.406 51.8193C121.653 51.8193 121.878 51.8569 122.081 51.9323C122.288 52.0034 122.467 52.1177 122.617 52.275C122.728 52.3885 122.82 52.5259 122.893 52.6875C122.925 52.641 122.958 52.5956 122.992 52.5513C123.172 52.3227 123.395 52.1435 123.658 52.0135C123.941 51.8786 124.251 51.8121 124.563 51.8193C124.84 51.8193 125.087 51.8585 125.305 51.9368C125.525 52.0121 125.711 52.1316 125.865 52.2952C126.018 52.4587 126.135 52.6719 126.215 52.935C126.295 53.1946 126.335 53.5087 126.335 53.8776V57.461H125.125V53.8721C125.125 53.592 125.083 53.3754 125.003 53.2221C124.937 53.0775 124.819 52.9641 124.673 52.9049C124.53 52.8429 124.358 52.812 124.158 52.812C123.971 52.812 123.806 52.8482 123.663 52.9204C123.523 52.9878 123.402 53.0877 123.308 53.212C123.211 53.3363 123.137 53.4774 123.09 53.6284C123.091 53.6748 123.092 53.722 123.092 53.77V57.461H121.887V53.8784C121.887 53.6085 121.847 53.397 121.766 53.2438C121.697 53.0969 121.578 52.9805 121.431 52.9157C121.269 52.8435 121.092 52.8086 120.916 52.8136C120.688 52.8136 120.495 52.8579 120.336 52.9467C120.18 53.0345 120.048 53.1591 119.949 53.3104C119.915 53.364 119.882 53.4203 119.855 53.479Z" fill="#9878A7"/>
<path fill-rule="evenodd" clip-rule="evenodd" d="M127.746 54.7542V54.6366C127.746 54.2372 127.803 53.8669 127.916 53.5253C128.029 53.1812 128.193 52.8826 128.406 52.6293C128.623 52.373 128.893 52.1701 129.196 52.0358C129.53 51.8879 129.893 51.8146 130.257 51.8207C130.654 51.8207 131.008 51.8923 131.318 52.0358C131.631 52.1755 131.897 52.3734 132.114 52.6293C132.33 52.8821 132.496 53.1808 132.609 53.5253C132.723 53.8669 132.779 54.2372 132.779 54.6366V54.7542C132.779 55.1534 132.723 55.5239 132.609 55.8653C132.495 56.2059 132.33 56.5046 132.114 56.7614C131.896 57.0159 131.626 57.2186 131.323 57.355C131.013 57.4948 130.66 57.5647 130.267 57.5647C129.901 57.571 129.538 57.4999 129.201 57.3557C128.899 57.219 128.629 57.0161 128.411 56.7614C128.19 56.499 128.021 56.1946 127.916 55.8653C127.799 55.5072 127.741 55.1317 127.746 54.7542ZM128.951 54.6366V54.7542C128.951 55.0033 128.976 55.2389 129.026 55.4607C129.076 55.6824 129.155 55.877 129.261 56.0441C129.367 56.2118 129.505 56.3433 129.671 56.4388C129.838 56.5342 130.037 56.5819 130.267 56.5819C130.49 56.5819 130.685 56.5342 130.848 56.4388C131.014 56.3434 131.155 56.208 131.258 56.0441C131.369 55.8656 131.449 55.6679 131.493 55.4607C131.546 55.2389 131.573 55.0033 131.573 54.7542V54.6366C131.573 54.3904 131.546 54.1583 131.493 53.9401C131.448 53.7309 131.367 53.5317 131.254 53.352C131.151 53.1852 131.01 53.0475 130.843 52.952C130.664 52.8493 130.461 52.798 130.257 52.8034C130.03 52.8034 129.834 52.8529 129.667 52.952C129.501 53.0492 129.363 53.1862 129.261 53.3512C129.155 53.5214 129.076 53.7178 129.026 53.9401C128.975 54.1687 128.95 54.4022 128.951 54.6366Z" fill="#9878A7"/>
<path d="M135.386 53.526V57.4623H134.179V51.9226H135.316L135.355 52.5904L135.38 52.558C135.565 52.3267 135.797 52.1411 136.061 52.0147C136.337 51.8825 136.638 51.8161 136.941 51.8205C137.201 51.8205 137.437 51.8582 137.647 51.9334C137.861 52.0046 138.043 52.1223 138.193 52.2863C138.347 52.4504 138.464 52.6636 138.544 52.9263C138.624 53.1857 138.664 53.5049 138.664 53.8834V57.4623H137.453V53.8796C137.453 53.6134 137.414 53.4034 137.337 53.2497C137.273 53.1015 137.157 52.9831 137.013 52.917C136.847 52.8432 136.667 52.8083 136.487 52.8149C136.279 52.8149 136.095 52.8592 135.931 52.948C135.768 53.0363 135.627 53.1605 135.516 53.3116C135.468 53.3786 135.425 53.4501 135.386 53.526Z" fill="#9878A7"/>
<path fill-rule="evenodd" clip-rule="evenodd" d="M142.68 57.5644C142.309 57.5701 141.94 57.5023 141.595 57.3648C141.286 57.2353 141.006 57.042 140.774 56.7968C140.548 56.5495 140.374 56.2589 140.258 55.9418C140.137 55.6022 140.076 55.2432 140.078 54.8817V54.6773C140.078 54.244 140.14 53.8514 140.264 53.4995C140.387 53.1483 140.558 52.848 140.778 52.5989C140.994 52.3491 141.26 52.1514 141.559 52.0201C141.867 51.8851 142.199 51.8171 142.535 51.8204C142.922 51.8204 143.26 51.887 143.552 52.0201C143.842 52.1531 144.082 52.3409 144.272 52.5834C144.465 52.8222 144.608 53.1072 144.702 53.4384C144.798 53.7697 144.847 54.1349 144.847 54.5342V55.0611H141.295C141.307 55.236 141.337 55.4016 141.385 55.5579C141.452 55.7628 141.547 55.942 141.674 56.0958C141.802 56.2489 141.955 56.3702 142.135 56.4594C142.315 56.5445 142.52 56.5871 142.75 56.5871C143.04 56.5871 143.298 56.5272 143.526 56.4075C143.753 56.2879 143.949 56.1189 144.116 55.9008L144.752 56.5305C144.623 56.7179 144.469 56.8865 144.296 57.032C144.092 57.1995 143.859 57.3294 143.612 57.4159C143.312 57.5203 142.996 57.5706 142.68 57.5644ZM141.369 53.9043C141.349 53.9938 141.333 54.0841 141.32 54.1751H143.656V54.0784C143.652 53.8637 143.607 53.6519 143.526 53.4539C143.454 53.2651 143.33 53.1013 143.17 52.9819C143.01 52.8632 142.797 52.8039 142.53 52.8039C142.329 52.8039 142.152 52.848 141.995 52.9362C141.842 53.0219 141.713 53.1464 141.609 53.31C141.498 53.4937 141.417 53.6943 141.369 53.9043Z" fill="#9878A7"/>
<path d="M147.475 57.4498L145.558 51.9248H146.858L148.033 55.7088L149.16 51.9248H150.451L148.279 58.3088C148.223 58.4605 148.157 58.609 148.085 58.7537C148 58.9201 147.895 59.0738 147.769 59.2102C147.643 59.3568 147.484 59.4744 147.295 59.5631C147.104 59.6549 146.874 59.7008 146.604 59.7008C146.497 59.7008 146.394 59.6906 146.293 59.6699C146.2 59.6538 146.109 59.6353 146.018 59.6141L146.013 58.6717C146.093 58.679 146.173 58.6841 146.253 58.6871C146.423 58.6921 146.593 58.6662 146.754 58.6106C146.883 58.567 146.996 58.4851 147.079 58.3754C147.166 58.2659 147.239 58.1189 147.299 57.9342L147.475 57.4498Z" fill="#9878A7"/>
</g>
</g>
</svg>
