<svg width="187" height="63" viewBox="0 0 187 63" fill="none" xmlns="http://www.w3.org/2000/svg">
<path d="M184.39 21.7354L184.391 21.7287V11.5595C184.391 11.2744 184.296 11.0263 184.117 10.8492C183.941 10.672 183.693 10.5764 183.408 10.5764C183.122 10.5764 182.874 10.672 182.698 10.8492C182.52 11.0263 182.424 11.2744 182.424 11.5595V21.7287C182.424 22.5012 181.807 23.1184 181.035 23.1184H165.356C164.582 23.1184 163.966 22.5012 163.966 21.7287V6.05114C163.966 5.2786 164.582 4.66135 165.356 4.66135H175.526C175.811 4.66135 176.059 4.56575 176.237 4.3886C176.413 4.21144 176.509 3.96337 176.509 3.67833C176.509 3.39329 176.413 3.14523 176.237 2.96806C176.059 2.79092 175.811 2.69531 175.526 2.69531H165.356C163.501 2.69531 162 4.19665 162 6.05114V21.6439C162 23.4983 163.501 24.9997 165.356 24.9997H180.95C182.804 24.9997 184.302 23.5008 184.39 21.7354Z" fill="#9878A7" stroke="#9878A7" stroke-width="0.0349952"/>
<path d="M184.169 1H179.931C179.646 1 179.399 1.0956 179.221 1.27276C179.045 1.44991 178.948 1.69799 178.948 1.98302C178.948 2.26805 179.045 2.51613 179.221 2.69329C179.399 2.87043 179.646 2.96604 179.931 2.96604H182.656L173.31 12.3106C172.918 12.7025 172.918 13.2969 173.31 13.6886C173.506 13.8853 173.795 13.9826 173.999 13.9826C174.202 13.9826 174.491 13.8853 174.688 13.6886L184.034 4.3442V7.0676C184.034 7.35264 184.129 7.60072 184.306 7.77788C184.484 7.95502 184.732 8.05063 185.017 8.05063C185.301 8.05063 185.55 7.95502 185.727 7.77788C185.903 7.60072 186 7.35264 186 7.0676V2.83045C186 1.82339 185.177 1 184.169 1Z" fill="#9878A7" stroke="#9878A7" stroke-width="0.0349952"/>
<mask id="mask0_541_7850" style="mask-type:luminance" maskUnits="userSpaceOnUse" x="0" y="24" width="150" height="40">
<path d="M150 24H0V63.3293H150V24Z" fill="white"/>
</mask>
<g mask="url(#mask0_541_7850)">
<path d="M17.6549 48.2355H14.3363C14.2035 48.2355 14.0708 48.2355 14.0708 48.3418C14.0708 48.4481 13.8053 48.4481 13.8053 48.4481L12.2124 53.125C12.2124 53.125 12.2124 53.2314 12.0797 53.2314H11.9469L0.265486 53.3377H0.132744C0.132744 53.3377 0 53.3377 0 53.2314V53.125V53.0188C3.84956 44.1963 7.56638 35.2675 11.2832 26.445C11.5486 25.8072 11.8141 25.0632 11.9469 24.6379C11.9469 24.5317 12.0797 24.319 12.2124 24.2127C12.3451 24.1064 12.6106 24.1064 12.7433 24.1064H28.5398C28.6726 24.1064 28.938 24.2127 29.0708 24.2127C29.0708 24.319 29.2035 24.5317 29.2035 24.6379L29.4691 53.2314C29.4691 53.2314 29.4691 53.2314 29.4691 53.3377C29.4691 53.3377 29.4691 53.3377 29.4691 53.444C29.4691 53.444 29.4691 53.444 29.3363 53.444C29.3363 53.444 29.3363 53.444 29.2035 53.444H17.6549C17.6549 53.444 17.6549 53.444 17.5221 53.444C17.5221 53.444 17.5221 53.444 17.5221 53.3377L17.9203 48.5543V48.4481C17.9203 48.4481 17.9203 48.3418 17.7876 48.3418L17.6549 48.2355ZM18.5841 42.9207C18.7168 42.9207 18.7168 42.9207 18.8495 42.8145C18.8495 42.8145 18.9823 42.7081 18.9823 42.6018L19.7788 31.9723C19.7788 31.3345 19.7788 31.3345 19.5133 31.9723L15.2655 42.7081C15.2655 42.7081 15.2655 42.7081 15.2655 42.8145C15.2655 42.8145 15.2655 42.8145 15.2655 42.9207C15.2655 42.9207 15.2655 42.9207 15.3982 42.9207H18.5841Z" fill="#9878A7"/>
<path d="M58.1414 24.5306C60.929 24.8495 62.7874 26.0188 63.4511 27.8257C63.7165 28.6761 63.7165 30.058 63.3183 32.0776C62.1236 38.6679 60.929 44.1952 59.6015 48.6596C58.9379 50.7855 57.2121 52.1674 54.4245 52.8052C52.6989 53.2303 50.9732 53.4429 49.1148 53.4429C49.1148 53.4429 47.3891 53.4429 43.8051 53.4429C39.69 53.4429 35.7077 53.4429 31.7254 53.5492H31.5927C31.5927 53.5492 31.5927 53.5492 31.46 53.5492C31.46 53.5492 31.46 53.5492 31.46 53.4429V53.3366L37.8317 24.4243C37.8317 24.4243 37.8317 24.318 37.9644 24.318H38.0971C40.752 24.2117 44.9997 24.2117 50.7077 24.318C54.0264 24.2117 56.4157 24.318 58.1414 24.5306ZM51.2387 29.6327C50.4423 29.2076 49.6458 29.1013 48.8494 29.2076C48.8494 29.2076 48.7165 29.2076 48.7165 29.3139L48.5838 29.4202L44.4688 48.0218C44.4688 48.0218 44.4688 48.0218 44.4688 48.1281C44.4688 48.1281 44.4688 48.1281 44.4688 48.2345C44.4688 48.2345 44.4688 48.2345 44.6015 48.2345C44.6015 48.2345 44.6015 48.2345 44.7343 48.2345C46.0617 48.3408 46.9909 48.1281 47.5219 47.5967C47.9201 47.2778 48.1856 46.64 48.4511 45.577C49.6458 40.6875 50.7077 35.5853 51.7697 30.4831C51.7697 30.3768 51.7697 30.1642 51.637 30.058C51.637 29.8453 51.5042 29.739 51.2387 29.6327Z" fill="#9878A7"/>
<path d="M77.7876 43.3455C77.9204 43.3455 77.9204 43.3455 77.7876 43.3455C80.177 36.9678 82.4337 30.6964 84.5575 24.3186C84.5575 24.3186 84.5575 24.2124 84.6903 24.2124H84.8231C88.8054 24.1061 92.9204 24.1061 96.9027 24.2124C96.9027 24.2124 96.9027 24.2124 97.0354 24.2124C97.0354 24.2124 97.0354 24.2124 97.0354 24.3186C97.0354 24.3186 97.0354 24.3186 97.0354 24.4249L84.9558 53.231C84.9558 53.3372 84.8231 53.3372 84.8231 53.3372C84.8231 53.3372 84.6903 53.4436 84.5575 53.4436H67.0354C67.0354 53.4436 67.0354 53.4436 66.9027 53.4436C66.9027 53.4436 66.9027 53.4436 66.7699 53.4436C66.7699 53.4436 66.7699 53.4436 66.7699 53.3372C66.7699 53.3372 66.7699 53.3372 66.7699 53.231L66.6372 24.4249C66.6372 24.3186 66.6372 24.3186 66.7699 24.2124C66.7699 24.2124 66.9027 24.1061 67.0354 24.1061C70.885 23.9998 74.8673 23.9998 78.9823 24.1061C79.1151 24.1061 79.1151 24.1061 79.1151 24.2124C79.1151 24.3186 79.2478 24.3186 79.2478 24.3186C78.8496 30.8027 78.4514 37.0741 77.7876 43.3455C77.7876 43.2392 77.7876 43.2392 77.7876 43.3455Z" fill="#9878A7"/>
<path d="M108.717 35.4797H115.354C115.354 35.4797 115.354 35.4797 115.487 35.4797C115.487 35.4797 115.487 35.4797 115.487 35.586C115.487 35.586 115.487 35.586 115.487 35.6923C115.221 37.4993 114.823 39.2001 114.292 41.007C114.292 41.007 114.292 41.1133 114.159 41.1133H114.027L107.389 41.2197C107.256 41.2197 107.256 41.2197 107.124 41.326L106.991 41.4323L104.47 53.3373C104.47 53.3373 104.47 53.4436 104.336 53.4436H104.203H92.7879C92.7879 53.4436 92.7879 53.4436 92.6553 53.4436C92.6553 53.4436 92.6553 53.4436 92.6553 53.3373C92.6553 53.3373 92.6553 53.3373 92.6553 53.231L98.894 24.3187C98.894 24.3187 98.894 24.2124 99.0266 24.2124H99.1592C105.797 23.9998 113.097 23.8935 119.602 24.1062C119.602 24.1062 119.602 24.1062 119.735 24.1062C119.735 24.1062 119.735 24.1062 119.735 24.2124C119.735 24.3187 119.735 24.2124 119.735 24.3187L118.54 29.7398C118.54 29.7398 118.54 29.846 118.407 29.846H118.274L110.044 30.0587C109.912 30.0587 109.779 30.0587 109.779 30.165C109.646 30.2713 109.646 30.2713 109.646 30.3775L108.585 35.3734C108.585 35.3734 108.585 35.3735 108.585 35.4797C108.585 35.4797 108.585 35.4797 108.585 35.586C108.585 35.4797 108.585 35.4797 108.717 35.4797Z" fill="#9878A7"/>
<path d="M136.726 36.3292C136.859 36.8607 136.991 36.8607 137.124 36.3292L139.779 24.4241C139.779 24.4241 139.779 24.3178 139.912 24.3178C139.912 24.3178 140.044 24.3178 140.044 24.2115C143.097 24.1053 146.15 24.1053 149.203 24.2115C149.203 24.2115 149.336 24.2115 149.336 24.3178V24.4241C149.336 25.0619 149.203 26.0186 148.938 27.2941C147.08 36.0103 145.221 44.7265 143.23 53.4428C143.23 53.4428 143.23 53.5491 143.097 53.5491H142.965L133.009 53.4428H132.876L132.744 53.3364L129.823 41.2188V41.1125C129.823 41.1125 129.823 41.0062 129.691 41.0062C129.558 41.0062 129.558 41.0062 129.558 41.2188C128.629 45.1517 127.832 49.1909 126.903 53.2301C126.903 53.3364 126.77 53.4428 126.77 53.4428C126.638 53.5491 126.505 53.5491 126.505 53.5491H117.212C117.212 53.5491 117.212 53.5491 117.08 53.5491C117.08 53.5491 117.08 53.5491 117.08 53.4428C117.08 53.4428 117.08 53.4428 117.08 53.3364C118.938 44.7265 120.929 36.0103 122.788 27.4004C123.053 25.6997 123.053 25.6997 123.186 24.5304C123.186 24.4241 123.186 24.4241 123.318 24.4241L123.451 24.3178C126.638 24.2115 129.823 24.2115 133.009 24.3178C133.141 24.3178 133.141 24.3178 133.274 24.4241L133.407 24.5304L136.726 36.3292Z" fill="#9878A7"/>
<path d="M0.530905 61.5226C0.398161 61.5226 0.265418 61.5226 0.132675 61.4162C-6.87242e-05 61.4162 -6.87093e-05 61.31 -0.132812 61.2037C-0.132812 61.0974 -0.132812 60.9911 -6.87093e-05 60.8848L2.12383 57.1645C2.25657 57.0582 2.25657 56.9519 2.38931 56.8455C2.52206 56.7393 2.6548 56.7393 2.78754 56.7393C2.92028 56.7393 3.05303 56.7393 3.18577 56.8455C3.31851 56.9519 3.45125 57.0582 3.45125 57.1645L5.57515 60.8848C5.84064 61.0974 5.97339 61.2037 5.84064 61.2037C5.84064 61.31 5.70789 61.4162 5.70789 61.4162C5.57515 61.5226 5.44241 61.5226 5.30966 61.5226C5.17692 61.5226 4.91143 61.5226 4.91143 61.4162C4.77869 61.31 4.77869 61.2037 4.64595 61.0974L4.11498 60.1407L4.64595 60.4596H1.19462L1.7256 60.1407L1.19462 61.0974C1.06188 61.2037 1.06188 61.31 0.929133 61.4162C0.796392 61.5226 0.663648 61.5226 0.530905 61.5226ZM2.92028 57.9085L1.85834 59.9281L1.59286 59.6093H4.24772L3.98224 59.9281L2.92028 57.9085Z" fill="#9878A7"/>
<path d="M7.30092 61.5227C7.03543 61.5227 6.90269 61.5227 6.76995 61.4164C6.76995 61.3101 6.63721 61.0976 6.63721 60.9913V57.3772C6.63721 57.1646 6.63721 57.0584 6.76995 56.952C6.90269 56.8457 7.03543 56.8457 7.30092 56.8457H8.89384C9.95583 56.8457 10.7523 57.0584 11.2832 57.4835C11.8142 57.9087 12.0797 58.4402 12.0797 59.1842C12.0797 59.6095 11.9469 59.9283 11.8142 60.1409C11.6815 60.4598 11.416 60.6723 11.1504 60.885C10.885 61.0976 10.4868 61.2038 10.2213 61.3101C9.82302 61.4164 9.42479 61.4164 8.89384 61.4164H7.30092V61.5227ZM7.96463 60.6723H8.89384C9.15937 60.6723 9.5576 60.6723 9.69031 60.5661C9.95583 60.4598 10.0885 60.4598 10.2213 60.2472C10.4868 60.1409 10.6195 60.0346 10.7523 59.822C10.885 59.6095 10.885 59.3968 10.885 59.1842C10.885 58.6527 10.7523 58.3339 10.3541 58.015C10.0885 57.8024 9.5576 57.6961 8.89384 57.6961H7.96463V60.6723Z" fill="#9878A7"/>
<path d="M15.664 61.5226C15.5312 61.5226 15.3985 61.5226 15.2658 61.4162C15.133 61.31 15.0002 61.2037 15.0002 61.0974L12.8764 57.377C12.7437 57.2708 12.7437 57.1645 12.7437 57.0582C12.7437 56.9519 12.8764 56.8455 13.0091 56.8455C13.1419 56.7393 13.2746 56.7393 13.4073 56.7393C13.6728 56.7393 13.8055 56.7393 13.8055 56.8455C13.9383 56.9519 13.9383 57.0582 14.0711 57.1645L15.9294 60.5659H15.5312L17.3896 57.1645C17.5223 57.0582 17.5223 56.9519 17.6551 56.8455C17.7879 56.7393 17.9206 56.7393 18.0534 56.7393C18.1861 56.7393 18.3188 56.7393 18.4516 56.8455C18.5843 56.9519 18.5843 56.9519 18.5843 57.0582C18.5843 57.1645 18.5843 57.2708 18.4516 57.377L16.3276 61.2037C16.1949 61.31 16.1949 61.4162 16.0622 61.5226C15.9294 61.5226 15.7967 61.5226 15.664 61.5226Z" fill="#9878A7"/>
<path d="M19.5139 61.5226C19.3811 61.5226 19.2483 61.5226 19.1156 61.4162C18.9828 61.31 18.9829 61.31 18.9829 61.2037C18.9829 61.0974 18.9828 60.9911 19.1156 60.8848L21.2395 57.1645C21.3722 57.0582 21.3722 56.9519 21.505 56.8455C21.6377 56.7393 21.7704 56.7393 21.9032 56.7393C22.036 56.7393 22.1687 56.7393 22.3015 56.8455C22.4342 56.9519 22.5669 57.0582 22.5669 57.1645L24.6909 60.8848C24.8236 60.9911 24.8236 61.0974 24.8236 61.2037C24.8236 61.31 24.6909 61.4162 24.6909 61.4162C24.5581 61.5226 24.4253 61.5226 24.2926 61.5226C24.1598 61.5226 23.8944 61.5226 23.8944 61.4162C23.7616 61.31 23.7616 61.2037 23.6289 61.0974L23.0979 60.1407L23.6289 60.4596H20.1775L20.7085 60.1407L20.1775 61.0974C20.0448 61.2037 20.0448 61.31 19.9121 61.4162C19.7793 61.5226 19.6466 61.5226 19.5139 61.5226ZM21.9032 57.9085L20.8413 59.9281L20.5757 59.6093H23.2307L22.9651 59.9281L21.9032 57.9085Z" fill="#9878A7"/>
<path d="M26.2834 61.5226C26.1507 61.5226 25.8852 61.5226 25.8852 61.4162C25.7524 61.31 25.7524 61.2037 25.7524 61.0974V57.2708C25.7524 57.0582 25.7524 56.9519 25.8852 56.8455C26.0179 56.7393 26.1507 56.7393 26.2834 56.7393C26.4161 56.7393 26.5489 56.7393 26.6816 56.8455C26.8143 56.8455 26.8143 56.9519 26.9471 57.0582L29.8675 60.0344H29.602V57.2708C29.602 57.1645 29.602 56.9519 29.7347 56.9519C29.8675 56.8455 30.0002 56.8455 30.1329 56.8455C30.2657 56.8455 30.5311 56.8455 30.5311 56.9519C30.6639 57.0582 30.6639 57.1645 30.6639 57.2708V61.0974C30.6639 61.2037 30.6639 61.31 30.5311 61.4162C30.3984 61.5226 30.2657 61.5226 30.1329 61.5226C30.0002 61.5226 29.8675 61.5226 29.7347 61.4162C29.602 61.4162 29.602 61.31 29.4692 61.2037L26.5489 58.2275H26.8143V60.9911C26.8143 61.2037 26.8143 61.31 26.6816 61.31C26.5489 61.5226 26.4161 61.5226 26.2834 61.5226Z" fill="#9878A7"/>
<path d="M34.9115 61.6289C34.2478 61.6289 33.7168 61.5226 33.3186 61.31C32.9204 61.0974 32.5221 60.7785 32.2566 60.4596C31.9912 60.1407 31.8584 59.7156 31.8584 59.1841C31.8584 58.8651 31.9912 58.44 32.1239 58.2275C32.2566 57.9085 32.5221 57.696 32.7877 57.4833C33.0531 57.2708 33.3186 57.0582 33.7168 56.9519C34.1151 56.8455 34.5133 56.7393 35.0443 56.7393C35.3098 56.7393 35.5752 56.7393 35.9734 56.8455C36.2389 56.9519 36.5045 56.9519 36.7699 57.0582C36.9027 57.1645 37.0354 57.1645 37.0354 57.2708C37.0354 57.377 37.0354 57.4833 37.0354 57.5897C37.0354 57.696 36.9027 57.8022 36.9027 57.8022C36.7699 57.9085 36.7699 57.9085 36.6372 57.9085C36.5045 57.9085 36.3717 57.9085 36.2389 57.8022C36.1062 57.696 35.8407 57.696 35.708 57.5897C35.5752 57.5897 35.3098 57.4833 35.177 57.4833C34.7788 57.4833 34.5133 57.5897 34.2478 57.696C33.9824 57.8022 33.8496 58.0148 33.7168 58.2275C33.5841 58.44 33.5841 58.7589 33.5841 59.0778C33.5841 59.3966 33.5841 59.7156 33.7168 59.9281C33.8496 60.1407 33.9824 60.3533 34.2478 60.4596C34.5133 60.5659 34.7788 60.6722 35.177 60.6722C35.3098 60.6722 35.5752 60.6722 35.708 60.5659C35.8407 60.5659 36.1062 60.4596 36.2389 60.3533C36.3717 60.2471 36.5045 60.2471 36.6372 60.2471C36.7699 60.2471 36.9027 60.3533 36.9027 60.3533C37.0354 60.4596 37.0354 60.4596 37.0354 60.5659C37.0354 60.6722 37.0354 60.7785 37.0354 60.8848C37.0354 60.9911 36.9027 61.0974 36.7699 61.0974C36.5045 61.2037 36.2389 61.31 35.9734 61.31C35.4425 61.5226 35.177 61.6289 34.9115 61.6289Z" fill="#9878A7"/>
<path d="M38.4958 61.5227C38.2303 61.5227 38.0976 61.5227 37.9648 61.4164C37.832 61.3101 37.832 61.2038 37.832 60.9913V57.3772C37.832 57.1646 37.832 57.0584 37.9648 56.952C38.0976 56.8457 38.2303 56.8457 38.4958 56.8457H41.4161C41.5489 56.8457 41.6816 56.8457 41.8143 56.952C41.9472 57.0584 41.9472 57.1646 41.9472 57.2709C41.9472 57.3772 41.9472 57.4835 41.8143 57.5898C41.6816 57.6961 41.5489 57.6961 41.4161 57.6961H39.0267V58.759H41.1507C41.2834 58.759 41.4161 58.759 41.5489 58.8653C41.6816 58.9717 41.6816 59.078 41.6816 59.1842C41.6816 59.2905 41.6816 59.3968 41.5489 59.5031C41.4161 59.6094 41.2834 59.6095 41.1507 59.6095H39.0267V60.7786H41.4161C41.5489 60.7786 41.6816 60.7786 41.8143 60.885C41.9472 60.9913 41.9472 61.0976 41.9472 61.2038C41.9472 61.3101 41.9472 61.4164 41.8143 61.5227C41.6816 61.6291 41.5489 61.6291 41.4161 61.6291H38.4958V61.5227Z" fill="#9878A7"/>
<path d="M43.5397 61.5227C43.2742 61.5227 43.1415 61.5227 43.0088 61.4164C42.876 61.3101 42.876 61.2038 42.876 60.9913V57.3772C42.876 57.1646 42.876 57.0584 43.0088 56.952C43.1415 56.8457 43.2742 56.8457 43.5397 56.8457H45.1327C46.1945 56.8457 46.991 57.0584 47.522 57.4835C48.053 57.9087 48.3185 58.4402 48.3185 59.1842C48.3185 59.6095 48.1857 59.9283 48.053 60.1409C47.9203 60.4598 47.6548 60.6723 47.3892 60.885C47.1238 61.0976 46.7256 61.2038 46.4601 61.3101C46.0618 61.4164 45.6636 61.4164 45.1327 61.4164H43.5397V61.5227ZM44.2035 60.6723H45.1327C45.3982 60.6723 45.7963 60.6723 45.9291 60.5661C46.1945 60.4598 46.3274 60.4598 46.4601 60.2472C46.5928 60.1409 46.7256 59.9283 46.8583 59.822C46.991 59.6095 46.991 59.3968 46.991 59.1842C46.991 58.6527 46.8583 58.3339 46.4601 58.015C46.1945 57.8024 45.6636 57.6961 44.9999 57.6961H44.0707V60.6723H44.2035Z" fill="#9878A7"/>
<path d="M52.4333 61.5226C52.1678 61.5226 52.035 61.5226 51.9022 61.4162C51.7695 61.31 51.7695 61.2037 51.7695 60.9911V57.2708C51.7695 57.0582 51.7695 56.9519 51.9022 56.8455C52.035 56.7393 52.1678 56.7393 52.4333 56.7393H55.3536C55.4863 56.7393 55.6191 56.7393 55.7518 56.8455C55.8846 56.9519 55.8846 57.0582 55.8846 57.1645C55.8846 57.2708 55.8846 57.377 55.7518 57.4833C55.6191 57.5897 55.4863 57.5897 55.3536 57.5897H53.0969V58.7589H55.2209C55.3536 58.7589 55.4863 58.7589 55.6191 58.8651C55.7518 58.9715 55.7518 59.0778 55.7518 59.1841C55.7518 59.2904 55.7518 59.3966 55.6191 59.5029C55.4863 59.6093 55.3536 59.6093 55.2209 59.6093H53.0969V61.0974C52.9642 61.4162 52.8315 61.5226 52.4333 61.5226Z" fill="#9878A7"/>
<path d="M57.2125 61.5226C56.9471 61.5226 56.8143 61.5226 56.6815 61.4162C56.5488 61.31 56.5488 61.2037 56.5488 60.9911V57.2708C56.5488 57.0582 56.5488 56.9519 56.6815 56.8455C56.8143 56.7393 56.9471 56.7393 57.2125 56.7393C57.478 56.7393 57.6107 56.7393 57.7435 56.8455C57.8762 56.9519 57.8762 57.0582 57.8762 57.2708V60.9911C57.8762 61.2037 57.8762 61.31 57.7435 61.4162C57.6107 61.5226 57.3453 61.5226 57.2125 61.5226Z" fill="#9878A7"/>
<path d="M59.6018 61.5226C59.469 61.5226 59.2036 61.5226 59.2036 61.4162C59.0708 61.31 59.0708 61.2037 59.0708 61.0974V57.2708C59.0708 57.0582 59.0708 56.9519 59.2036 56.8455C59.3363 56.7393 59.469 56.7393 59.6018 56.7393C59.7346 56.7393 59.8673 56.7393 60.0001 56.8455C60.1328 56.8455 60.1328 56.9519 60.2655 57.0582L63.1858 60.0344H62.9204V57.2708C62.9204 57.1645 62.9204 56.9519 63.0531 56.9519C63.1858 56.8455 63.3186 56.8455 63.4513 56.8455C63.5841 56.8455 63.8496 56.8455 63.8496 56.9519C63.9823 57.0582 63.9823 57.1645 63.9823 57.2708V61.0974C63.9823 61.2037 63.9823 61.31 63.8496 61.4162C63.7169 61.5226 63.5841 61.5226 63.4513 61.5226C63.3186 61.5226 63.1858 61.5226 63.0531 61.4162C62.9204 61.4162 62.9204 61.31 62.7876 61.2037L59.8673 58.2275H60.1328V60.9911C60.1328 61.2037 60.1328 61.31 60.0001 61.31C60.0001 61.5226 59.8673 61.5226 59.6018 61.5226Z" fill="#9878A7"/>
<path d="M65.5755 61.5226C65.4427 61.5226 65.31 61.5226 65.1772 61.4162C65.0444 61.31 65.0444 61.31 65.0444 61.2037C65.0444 61.0974 65.0444 60.9911 65.1772 60.8848L67.3011 57.1645C67.4338 57.0582 67.4338 56.9519 67.5666 56.8455C67.6993 56.7393 67.8321 56.7393 67.9649 56.7393C68.0976 56.7393 68.2303 56.7393 68.3631 56.8455C68.4958 56.9519 68.6285 57.0582 68.6285 57.1645L70.7524 60.8848C70.8852 60.9911 70.8852 61.0974 70.8852 61.2037C70.8852 61.31 70.7524 61.4162 70.7524 61.4162C70.6197 61.5226 70.487 61.5226 70.3542 61.5226C70.2215 61.5226 69.9559 61.5226 69.9559 61.4162C69.8232 61.31 69.8232 61.2037 69.6905 61.0974L69.1595 60.1407L69.6905 60.4596H66.2391L66.7702 60.1407L66.2391 61.0974C66.1064 61.2037 66.1064 61.31 65.9737 61.4162C65.8409 61.5226 65.7082 61.5226 65.5755 61.5226ZM67.9649 57.9085L66.9029 59.9281L66.6374 59.6093H69.2923L69.0268 59.9281L67.9649 57.9085Z" fill="#9878A7"/>
<path d="M72.3449 61.5226C72.2122 61.5226 71.9467 61.5226 71.9467 61.4162C71.6812 61.31 71.6812 61.2037 71.6812 61.0974V57.2708C71.6812 57.0582 71.6811 56.9519 71.814 56.8455C71.9467 56.7393 72.0794 56.7393 72.2122 56.7393C72.3449 56.7393 72.4776 56.7393 72.6104 56.8455C72.7431 56.8455 72.7431 56.9519 72.8758 57.0582L75.7962 60.0344H75.6635V57.2708C75.6635 57.1645 75.6635 56.9519 75.7962 56.9519C75.929 56.8455 76.0617 56.8455 76.1944 56.8455C76.3272 56.8455 76.5926 56.8455 76.5926 56.9519C76.7254 57.0582 76.7255 57.1645 76.7255 57.2708V61.0974C76.7255 61.2037 76.7254 61.31 76.5926 61.4162C76.4599 61.5226 76.3272 61.5226 76.1944 61.5226C76.0617 61.5226 75.929 61.5226 75.7962 61.4162C75.6635 61.4162 75.6635 61.31 75.5308 61.2037L72.6104 58.2275H72.8758V60.9911C72.8758 61.2037 72.8758 61.31 72.7431 61.31C72.6104 61.5226 72.4776 61.5226 72.3449 61.5226Z" fill="#9878A7"/>
<path d="M80.8407 61.6289C80.1769 61.6289 79.646 61.5226 79.2477 61.31C78.8495 61.0974 78.4513 60.7785 78.1858 60.4596C77.9203 60.1407 77.7876 59.7156 77.7876 59.1841C77.7876 58.8651 77.9203 58.44 78.053 58.2275C78.1858 57.9085 78.4513 57.696 78.7168 57.4833C78.9822 57.2708 79.2477 57.0582 79.646 56.9519C80.0442 56.8455 80.4424 56.7393 80.9734 56.7393C81.2389 56.7393 81.5044 56.7393 81.9026 56.8455C82.1681 56.9519 82.4336 56.9519 82.6991 57.0582C82.8318 57.1645 82.9645 57.1645 82.9645 57.2708C82.9645 57.377 82.9645 57.4833 82.9645 57.5897C82.9645 57.696 82.8318 57.8022 82.8318 57.8022C82.6991 57.9085 82.6991 57.9085 82.5663 57.9085C82.4336 57.9085 82.3009 57.9085 82.1681 57.8022C82.0353 57.696 81.7698 57.696 81.6371 57.5897C81.5044 57.5897 81.2389 57.4833 81.1062 57.4833C80.7079 57.4833 80.4424 57.5897 80.1769 57.696C79.9115 57.8022 79.7787 58.0148 79.646 58.2275C79.5132 58.44 79.5132 58.7589 79.5132 59.0778C79.5132 59.3966 79.5132 59.7156 79.646 59.9281C79.7787 60.1407 79.9115 60.3533 80.1769 60.4596C80.4424 60.5659 80.7079 60.6722 81.1062 60.6722C81.2389 60.6722 81.5044 60.6722 81.6371 60.5659C81.7698 60.5659 82.0353 60.4596 82.1681 60.3533C82.3009 60.2471 82.4336 60.2471 82.5663 60.2471C82.6991 60.2471 82.8318 60.3533 82.8318 60.3533C82.9645 60.4596 82.9645 60.4596 82.9645 60.5659C82.9645 60.6722 82.9645 60.7785 82.9645 60.8848C82.9645 60.9911 82.8318 61.0974 82.6991 61.0974C82.4336 61.2037 82.1681 61.31 81.9026 61.31C81.5044 61.5226 81.2389 61.6289 80.8407 61.6289Z" fill="#9878A7"/>
<path d="M84.4249 61.5226C84.1595 61.5226 84.0267 61.5226 83.8939 61.4162C83.7612 61.31 83.7612 61.2037 83.7612 60.9911V57.2708C83.7612 57.0582 83.7612 56.9519 83.8939 56.8455C84.0267 56.7393 84.1595 56.7393 84.4249 56.7393C84.6904 56.7393 84.8231 56.7393 84.9559 56.8455C85.0886 56.9519 85.0886 57.0582 85.0886 57.2708V60.9911C85.0886 61.2037 85.0886 61.31 84.9559 61.4162C84.8231 61.5226 84.6904 61.5226 84.4249 61.5226Z" fill="#9878A7"/>
<path d="M86.4157 61.5226C86.283 61.5226 86.1503 61.5226 86.0175 61.4162C85.8848 61.31 85.8848 61.31 85.8848 61.2037C85.8848 61.0974 85.8848 60.9911 86.0175 60.8848L88.1414 57.1645C88.2742 57.0582 88.2742 56.9519 88.4069 56.8455C88.5396 56.7393 88.6724 56.7393 88.8051 56.7393C88.9378 56.7393 89.0706 56.7393 89.2033 56.8455C89.336 56.9519 89.4689 57.0582 89.4689 57.1645L91.5931 60.8848C91.7257 60.9911 91.7257 61.0974 91.7257 61.2037C91.7257 61.31 91.5931 61.4162 91.5931 61.4162C91.46 61.5226 91.3272 61.5226 91.1945 61.5226C91.0618 61.5226 90.7963 61.5226 90.7963 61.4162C90.7963 61.31 90.6635 61.2037 90.5307 61.0974L89.9998 60.1407L90.5307 60.4596H87.0795L87.6104 60.1407L87.0795 61.0974C86.9467 61.2037 86.9467 61.31 86.8139 61.4162C86.8139 61.5226 86.6812 61.5226 86.4157 61.5226ZM88.8051 57.9085L87.7431 59.9281L87.6104 59.7156H90.2653L89.9998 60.0344L88.8051 57.9085Z" fill="#9878A7"/>
<path d="M93.3184 61.5227C93.0531 61.5227 92.9205 61.5227 92.7879 61.4164C92.6553 61.3101 92.6553 61.2038 92.6553 60.9913V57.3772C92.6553 57.1646 92.6553 57.0584 92.7879 56.952C92.9205 56.8457 93.0531 56.8457 93.3184 56.8457C93.5845 56.8457 93.7172 56.8457 93.8498 56.952C93.9824 57.0584 93.9824 57.1646 93.9824 57.3772V60.6723H96.2388C96.3714 60.6723 96.505 60.6723 96.6376 60.7786C96.7702 60.8849 96.7702 60.9913 96.7702 61.0976C96.7702 61.2038 96.7702 61.3101 96.6376 61.4164C96.505 61.5227 96.3714 61.5227 96.2388 61.5227H93.3184Z" fill="#9878A7"/>
<path d="M100.354 61.5226C100.221 61.5226 99.9559 61.5226 99.9559 61.4162C99.8232 61.31 99.8232 61.2037 99.8232 61.0974V57.2708C99.8232 57.0582 99.8232 56.9519 99.9559 56.8455C100.088 56.7393 100.221 56.7393 100.354 56.7393C100.487 56.7393 100.62 56.7393 100.753 56.8455C100.885 56.8455 100.885 56.9519 101.018 57.0582L103.938 60.0344H103.673V57.2708C103.673 57.1645 103.673 56.9519 103.806 56.9519C103.938 56.8455 104.071 56.8455 104.203 56.8455C104.336 56.8455 104.602 56.8455 104.602 56.9519C104.735 57.0582 104.735 57.1645 104.735 57.2708V61.0974C104.735 61.2037 104.735 61.31 104.602 61.4162C104.47 61.5226 104.336 61.5226 104.203 61.5226C104.071 61.5226 103.938 61.5226 103.806 61.4162C103.673 61.4162 103.673 61.31 103.54 61.2037L100.62 58.2275H100.885V60.9911C100.885 61.2037 100.885 61.31 100.753 61.31C100.753 61.5226 100.62 61.5226 100.354 61.5226Z" fill="#9878A7"/>
<path d="M106.858 61.5227C106.593 61.5227 106.46 61.5227 106.327 61.4164C106.194 61.3101 106.194 61.0976 106.194 60.9913V57.3772C106.194 57.1646 106.194 57.0584 106.327 56.952C106.46 56.8457 106.593 56.8457 106.858 56.8457H109.779C109.911 56.8457 110.044 56.8457 110.177 56.952C110.309 57.0584 110.309 57.1646 110.309 57.2709C110.309 57.3772 110.309 57.4835 110.177 57.5898C110.044 57.6961 109.911 57.6961 109.779 57.6961H107.389V58.759H109.514C109.646 58.759 109.779 58.759 109.911 58.8653C110.044 58.9717 110.044 59.078 110.044 59.1842C110.044 59.2905 110.044 59.3968 109.911 59.5031C109.779 59.6094 109.646 59.6095 109.514 59.6095H107.389V60.7786H109.779C109.911 60.7786 110.044 60.7786 110.177 60.885C110.309 60.9913 110.309 61.0976 110.309 61.2038C110.309 61.3101 110.309 61.4164 110.177 61.5227C110.044 61.6291 109.911 61.6291 109.779 61.6291H106.858V61.5227Z" fill="#9878A7"/>
<path d="M113.362 61.5226C113.097 61.5226 112.964 61.5226 112.832 61.4162C112.699 61.31 112.699 61.2037 112.699 60.9911V57.5897H111.238C111.106 57.5897 110.973 57.5897 110.841 57.4833C110.708 57.377 110.708 57.2708 110.708 57.1645C110.708 57.0582 110.708 56.9519 110.841 56.8455C110.973 56.7393 111.106 56.7393 111.238 56.7393H115.487C115.62 56.7393 115.752 56.7393 115.885 56.8455C116.017 56.9519 116.017 57.0582 116.017 57.1645C116.017 57.2708 116.017 57.377 115.885 57.4833C115.752 57.5897 115.62 57.5897 115.487 57.5897H114.026V60.9911C114.026 61.2037 114.026 61.31 113.894 61.4162C113.761 61.5226 113.496 61.5226 113.362 61.5226Z" fill="#9878A7"/>
<path d="M118.806 61.5224C118.673 61.5224 118.541 61.5224 118.408 61.4161C118.274 61.3098 118.274 61.2035 118.142 61.0972L116.417 57.2706C116.283 57.058 116.417 56.9517 116.417 56.8454C116.549 56.7391 116.682 56.6328 116.947 56.6328C117.08 56.6328 117.213 56.6328 117.345 56.7391C117.479 56.8454 117.479 56.9517 117.611 57.058L118.938 60.3532H118.541L120 57.058C120 56.9517 120.133 56.8454 120.266 56.7391C120.399 56.6328 120.532 56.6328 120.664 56.6328C120.797 56.6328 120.93 56.6328 121.062 56.7391C121.195 56.8454 121.195 56.9517 121.327 57.058L122.788 60.3532H122.523L123.983 57.058C123.983 56.9517 124.115 56.8454 124.248 56.7391C124.381 56.6328 124.514 56.6328 124.647 56.6328C124.912 56.6328 125.045 56.7391 125.177 56.8454C125.31 56.9517 125.31 57.058 125.177 57.2706L123.452 61.0972C123.319 61.2035 123.319 61.3098 123.186 61.4161C123.053 61.5224 122.921 61.5224 122.788 61.5224C122.655 61.5224 122.523 61.5224 122.39 61.4161C122.257 61.3098 122.257 61.2035 122.124 61.0972L120.797 58.1209L119.47 61.0972C119.336 61.2035 119.336 61.3098 119.204 61.4161C119.071 61.5224 118.938 61.5224 118.806 61.5224Z" fill="#9878A7"/>
<path d="M128.761 61.6289C128.23 61.6289 127.699 61.5226 127.168 61.31C126.77 61.0974 126.372 60.7785 126.106 60.4596C125.841 60.1407 125.708 59.7156 125.708 59.1841C125.708 58.8651 125.841 58.44 125.973 58.2275C126.106 57.9085 126.372 57.696 126.505 57.4833C126.77 57.2708 127.035 57.0582 127.434 56.9519C127.832 56.8455 128.23 56.7393 128.628 56.7393C129.159 56.7393 129.69 56.8455 130.221 57.0582C130.62 57.2708 131.017 57.5897 131.283 57.9085C131.549 58.2274 131.681 58.6526 131.681 59.1841C131.681 59.5029 131.549 59.9281 131.416 60.1407C131.283 60.4596 131.017 60.6722 130.752 60.8848C130.487 61.0974 130.221 61.31 129.823 61.4162C129.425 61.5226 129.159 61.6289 128.761 61.6289ZM128.761 60.6722C129.026 60.6722 129.425 60.5659 129.558 60.4596C129.823 60.3533 129.956 60.1407 130.088 59.9281C130.221 59.7156 130.221 59.3966 130.221 59.0778C130.221 58.5463 130.088 58.2274 129.823 57.9085C129.558 57.5897 129.159 57.4833 128.628 57.4833C128.363 57.4833 127.964 57.5897 127.832 57.696C127.567 57.8022 127.434 58.0148 127.301 58.2275C127.168 58.44 127.168 58.7589 127.168 59.0778C127.168 59.6093 127.301 59.9281 127.567 60.2471C127.832 60.5659 128.23 60.6722 128.761 60.6722Z" fill="#9878A7"/>
<path d="M133.407 61.5226C133.142 61.5226 133.009 61.5226 132.876 61.4162C132.744 61.31 132.744 61.2037 132.744 60.9911V57.2708C132.744 57.0582 132.744 56.9519 132.876 56.8455C133.009 56.7393 133.142 56.7393 133.407 56.7393H135.398C136.062 56.7393 136.593 56.8455 136.991 57.1645C137.389 57.377 137.523 57.8022 137.523 58.2275C137.523 58.5463 137.389 58.7589 137.256 58.9715C137.124 59.1841 136.859 59.3966 136.593 59.5029C136.327 59.6093 135.929 59.7156 135.531 59.7156L135.664 59.6093H136.062C136.327 59.6093 136.461 59.6093 136.726 59.7156C136.859 59.8219 136.991 59.9281 137.124 60.1407L137.655 60.8848C137.788 60.9911 137.788 61.0974 137.788 61.2037C137.788 61.31 137.788 61.4162 137.655 61.4162C137.523 61.5226 137.389 61.5226 137.256 61.5226C137.124 61.5226 136.859 61.5226 136.859 61.4162C136.726 61.31 136.593 61.31 136.593 61.0974L135.797 59.9281C135.664 59.8219 135.664 59.7156 135.531 59.7156C135.398 59.7156 135.265 59.6093 135.133 59.6093H134.071V60.9911C134.071 61.2037 134.071 61.31 133.938 61.4162C133.673 61.5226 133.54 61.5226 133.407 61.5226ZM134.071 58.9715H135.265C135.664 58.9715 135.929 58.8651 136.062 58.7589C136.195 58.6526 136.327 58.44 136.327 58.2275C136.327 58.0148 136.195 57.8022 136.062 57.696C135.929 57.5897 135.664 57.4833 135.265 57.4833H134.071V58.9715Z" fill="#9878A7"/>
<path d="M139.248 61.5226C138.982 61.5226 138.85 61.5226 138.717 61.4162C138.584 61.31 138.584 61.2037 138.584 60.9911V57.2708C138.584 57.0582 138.584 56.9519 138.717 56.8455C138.85 56.7393 138.982 56.7393 139.248 56.7393C139.514 56.7393 139.646 56.7393 139.779 56.8455C139.912 56.9519 139.912 57.0582 139.912 57.2708V58.8651L142.168 57.0582C142.302 56.9519 142.302 56.9519 142.434 56.8455C142.567 56.8455 142.699 56.7393 142.832 56.7393C142.965 56.7393 143.23 56.7393 143.23 56.8455C143.363 56.9519 143.363 57.0582 143.363 57.1645C143.363 57.2708 143.23 57.377 143.23 57.4833L140.973 59.2904V58.8651L143.363 60.8848C143.496 60.9911 143.629 61.0974 143.629 61.2037C143.629 61.31 143.629 61.4162 143.496 61.5226C143.363 61.6289 143.23 61.6289 143.097 61.6289C142.965 61.6289 142.832 61.6289 142.699 61.5226C142.567 61.4162 142.434 61.4162 142.434 61.31L140.177 59.3966V61.0974C140.177 61.31 140.177 61.4162 140.044 61.5226C139.646 61.5226 139.381 61.5226 139.248 61.5226Z" fill="#9878A7"/>
</g>
</svg>
