<svg width="233" height="63" viewBox="0 0 233 63" fill="none" xmlns="http://www.w3.org/2000/svg">
<path d="M230.39 21.7354L230.391 21.7287V11.5595C230.391 11.2744 230.296 11.0263 230.117 10.8492C229.941 10.672 229.693 10.5764 229.408 10.5764C229.122 10.5764 228.874 10.672 228.698 10.8492C228.52 11.0263 228.424 11.2744 228.424 11.5595V21.7287C228.424 22.5012 227.807 23.1184 227.035 23.1184H211.356C210.582 23.1184 209.966 22.5012 209.966 21.7287V6.05114C209.966 5.2786 210.582 4.66135 211.356 4.66135H221.526C221.811 4.66135 222.059 4.56575 222.237 4.3886C222.413 4.21144 222.509 3.96337 222.509 3.67833C222.509 3.39329 222.413 3.14523 222.237 2.96806C222.059 2.79092 221.811 2.69531 221.526 2.69531H211.356C209.501 2.69531 208 4.19665 208 6.05114V21.6439C208 23.4983 209.501 24.9997 211.356 24.9997H226.95C228.804 24.9997 230.302 23.5008 230.39 21.7354Z" fill="#9878A7" stroke="#9878A7" stroke-width="0.0349952"/>
<path d="M230.169 1H225.931C225.646 1 225.399 1.0956 225.221 1.27276C225.045 1.44991 224.948 1.69799 224.948 1.98302C224.948 2.26805 225.045 2.51613 225.221 2.69329C225.399 2.87043 225.646 2.96604 225.931 2.96604H228.656L219.31 12.3106C218.918 12.7025 218.918 13.2969 219.31 13.6886C219.506 13.8853 219.795 13.9826 219.999 13.9826C220.202 13.9826 220.491 13.8853 220.688 13.6886L230.034 4.3442V7.0676C230.034 7.35264 230.129 7.60072 230.306 7.77788C230.484 7.95502 230.732 8.05063 231.017 8.05063C231.301 8.05063 231.55 7.95502 231.727 7.77788C231.903 7.60072 232 7.35264 232 7.0676V2.83045C232 1.82339 231.177 1 230.169 1Z" fill="#9878A7" stroke="#9878A7" stroke-width="0.0349952"/>
<path d="M36.6332 45.1731C36.3148 45.1731 35.9963 45.1813 35.6778 45.1731C35.2251 45.161 34.9872 44.9177 34.9719 44.435C34.9604 44.0537 34.9756 43.6683 34.9681 43.287C34.949 42.5569 34.6267 42.2162 33.9168 42.1554C33.1571 42.0905 32.6852 42.3785 32.6084 43.0883C32.547 43.6724 32.5432 44.2889 32.6737 44.8527C32.7542 45.2056 33.0765 45.5544 33.3758 45.7856C34.3427 46.536 35.3633 47.2175 36.3379 47.9557C36.7715 48.2842 37.1744 48.6655 37.5465 49.0671C38.1566 49.7282 38.4712 50.5354 38.4674 51.4683C38.4637 52.3079 38.4789 53.1516 38.4559 53.9912C38.4022 55.8449 37.4698 57.1104 35.7662 57.581C34.3044 57.9866 32.8348 57.9582 31.4075 57.3863C29.9265 56.7941 29.2243 55.5894 29.1552 53.9588C29.1246 53.2733 29.1437 52.5838 29.1552 51.8942C29.1629 51.2696 29.3893 51.0302 29.9687 51.0262C30.5327 51.0222 31.1005 51.0222 31.6646 51.0262C32.2324 51.0302 32.455 51.2614 32.4627 51.8536C32.4664 52.4499 32.4512 53.0462 32.4627 53.6424C32.4895 54.8349 33.6137 55.4961 34.596 54.8755C34.8032 54.7416 35.0219 54.4415 35.0449 54.2022C35.1178 53.4153 35.137 52.6203 35.1101 51.8293C35.0871 51.16 34.6459 50.7341 34.1471 50.3813C33.1495 49.6755 32.1595 48.9535 31.1504 48.2599C29.9917 47.4649 29.4008 46.3333 29.3202 44.9015C29.2857 44.3093 29.2896 43.7089 29.3279 43.1167C29.4392 41.4536 30.2373 40.3058 31.749 39.7744C33.1917 39.2633 34.6535 39.2146 36.0885 39.815C37.4967 40.4031 38.2948 41.6809 38.2948 43.2709C38.2948 43.6238 38.2985 43.9725 38.2948 44.3254C38.2871 44.9217 38.0607 45.1611 37.5044 45.1692C37.2128 45.1692 36.925 45.1692 36.6334 45.1692L36.6332 45.1731Z" fill="#9878A7"/>
<path d="M14.429 45.2019C14.9278 44.9261 15.3268 44.63 15.7681 44.4678C17.6213 43.8026 19.3134 45.0235 19.3479 47.1286C19.4016 50.3087 19.3671 53.4887 19.3594 56.6687C19.3594 57.2001 19.1023 57.4394 18.592 57.4516C18.1431 57.4637 17.6942 57.4516 17.2453 57.4516C16.4971 57.4516 16.2822 57.2285 16.2822 56.4456C16.2822 53.7686 16.2822 51.0955 16.2822 48.4185C16.2822 48.236 16.2822 48.0534 16.2822 47.8668C16.2669 47.3436 16.0136 47.015 15.557 46.9339C15.1196 46.8528 14.6707 47.1246 14.5287 47.5789C14.475 47.7492 14.452 47.9358 14.452 48.1183C14.452 50.9009 14.452 53.6834 14.452 56.4659C14.452 57.2244 14.2371 57.4434 13.5158 57.4475C13.0669 57.4475 12.6179 57.4556 12.169 57.4475C11.6395 57.4353 11.3901 57.1838 11.3901 56.6322C11.3901 51.2821 11.3901 45.932 11.3901 40.5779C11.3901 40.0547 11.6395 39.7951 12.1422 39.7788C12.6064 39.7667 13.0707 39.7748 13.535 39.7788C14.2064 39.7829 14.429 40.01 14.429 40.7118C14.4328 42.026 14.429 43.3402 14.429 44.6544C14.429 44.8328 14.429 45.0072 14.429 45.1938V45.2019Z" fill="#9878A7"/>
<path d="M51.9389 50.819C51.9389 49.9023 51.9236 48.9815 51.9389 48.0648C51.9735 46.057 52.971 44.7915 54.8358 44.4021C55.9408 44.1709 57.0305 44.2358 58.0588 44.7874C59.1485 45.3715 59.7394 46.3085 59.7624 47.6065C59.7816 48.7381 59.7777 49.8698 59.7739 51.0015C59.7739 51.5328 59.5283 51.7803 59.0218 51.7843C57.9053 51.7924 56.7888 51.7843 55.6722 51.7843C55.1389 51.7843 55.0161 51.9182 55.0123 52.4901C55.0123 53.0255 55.0046 53.5609 55.0123 54.0963C55.0199 54.506 55.1657 54.8427 55.5456 55.0171C56.0175 55.2361 56.5125 55.009 56.6468 54.4857C56.7082 54.2383 56.7082 53.9747 56.735 53.7151C56.7811 53.2527 57.0266 52.985 57.4679 52.9768C57.9897 52.9647 58.5115 52.9728 59.0333 52.9768C59.3633 52.9768 59.6357 53.1391 59.6703 53.4798C59.7854 54.6318 59.7086 55.7472 58.8799 56.6436C58.83 56.6963 58.7801 56.7531 58.7226 56.8018C57.3911 58.043 54.2334 57.9578 52.9749 56.6436C52.2075 55.8445 52.0003 54.8183 51.9581 53.7475C51.9197 52.77 51.9504 51.7924 51.9504 50.8108C51.9467 50.8108 51.9427 50.8108 51.9389 50.8108V50.819ZM56.7197 48.365C56.7197 48.1662 56.7312 47.9675 56.7197 47.7687C56.6852 47.2293 56.4358 46.9453 55.9869 46.9169C55.4574 46.8845 55.1197 47.1522 55.0545 47.7079C55.0161 48.0243 55.0391 48.3447 55.0391 48.6651C55.0391 49.3547 55.0813 49.4034 55.7182 49.4034C56.3884 49.4034 56.7235 49.0559 56.7235 48.3609L56.7197 48.365Z" fill="#9878A7"/>
<path d="M60.541 50.8192C60.541 49.9025 60.5256 48.9858 60.541 48.0691C60.5832 46.0167 61.554 44.7836 63.4609 44.3942C64.5352 44.1752 65.5942 44.2563 66.5995 44.7755C67.6969 45.3434 68.3108 46.2641 68.3491 47.5621C68.3837 48.7222 68.3722 49.8863 68.3645 51.0464C68.3645 51.5453 68.1074 51.7846 67.6163 51.7886C66.4997 51.7927 65.387 51.7886 64.2705 51.7886C63.7295 51.7886 63.6105 51.9184 63.6067 52.4903C63.6067 52.9933 63.599 53.5003 63.6067 54.0033C63.6104 54.1818 63.6336 54.3724 63.695 54.5387C63.8446 54.9443 64.1477 55.1228 64.5544 55.0903C64.9304 55.062 65.1722 54.8389 65.2489 54.4495C65.2949 54.2102 65.3065 53.9668 65.3256 53.7234C65.364 53.257 65.6019 52.9933 66.0508 52.9811C66.5573 52.969 67.0638 52.969 67.5702 52.9811C68.0537 52.9893 68.2839 53.2326 68.2916 53.7478C68.2993 54.1006 68.3184 54.4576 68.2724 54.8024C68.0997 56.0922 67.4628 57.017 66.258 57.4105C65.0954 57.7918 63.9175 57.8039 62.7549 57.3983C61.6422 57.0089 60.9746 56.1693 60.7329 54.9768C60.6178 54.413 60.5717 53.8289 60.5525 53.2529C60.5218 52.4457 60.5449 51.6345 60.5449 50.8233L60.541 50.8192ZM65.3295 48.3936C65.3295 48.1786 65.341 47.9677 65.3295 47.7527C65.2949 47.2457 65.0494 46.9658 64.6235 46.9212C64.1132 46.8685 63.7487 47.1119 63.6604 47.6148C63.6029 47.9393 63.6144 48.28 63.6105 48.6167C63.6028 49.3468 63.6642 49.4077 64.3395 49.4077C64.9969 49.4077 65.3269 49.0683 65.3295 48.3896V48.3936Z" fill="#9878A7"/>
<path d="M25.5406 51.7888C24.9765 51.7888 24.4087 51.7848 23.8447 51.7888C23.3804 51.7928 23.2461 51.9347 23.2384 52.4133C23.2347 52.9771 23.2192 53.545 23.2421 54.1088C23.2728 54.8998 23.9404 55.342 24.5313 54.9891C24.8805 54.7782 24.938 54.4171 24.9611 54.0439C25.0263 53.111 25.1567 52.9772 26.0431 52.9772C26.4344 52.9772 26.8258 52.9691 27.2172 52.9772C27.6814 52.9854 27.9193 53.2247 27.9347 53.6992C27.9462 54.0521 27.9538 54.4049 27.9155 54.7537C27.7812 55.9747 27.2172 56.8954 26.1006 57.3294C24.8652 57.808 23.599 57.8243 22.352 57.3821C21.3122 57.0171 20.6522 56.2302 20.3913 55.1147C20.2724 54.6158 20.2033 54.0885 20.1956 53.5734C20.1726 51.7076 20.1611 49.8418 20.1879 47.9801C20.2186 46.0534 21.1817 44.8405 22.9735 44.4227C23.9865 44.1874 24.9918 44.2281 25.9625 44.6459C27.2594 45.2056 27.9692 46.2115 27.9884 47.7082C28.0037 48.7952 27.9961 49.8782 27.9921 50.9653C27.9921 51.5453 27.7504 51.7847 27.1863 51.7888C26.6377 51.7928 26.0851 51.7888 25.5326 51.7888H25.5406ZM24.9152 48.3815C24.9152 48.1544 24.9343 47.9233 24.9114 47.7002C24.8577 47.1932 24.6083 46.9416 24.1632 46.9254C23.6836 46.9051 23.3805 47.12 23.2961 47.6191C23.2347 47.976 23.2462 48.345 23.2424 48.706C23.2387 49.3225 23.3268 49.4118 23.9177 49.4158C24.5904 49.4185 24.9217 49.0752 24.9114 48.3857L24.9152 48.3815Z" fill="#9878A7"/>
<path d="M4.18068 49.8946C4.18068 47.6921 4.18068 45.4896 4.18068 43.2871C4.18068 42.699 4.0886 42.6016 3.52073 42.6016C2.98357 42.6016 2.4464 42.6056 1.91307 42.6016C1.40276 42.5935 1.14569 42.3177 1.13417 41.7782C1.1265 41.3969 1.1265 41.0116 1.13417 40.6303C1.14185 40.0624 1.39509 39.7988 1.94376 39.7907C2.6958 39.7826 3.45167 39.7907 4.20754 39.7907C5.94566 39.7907 7.68762 39.7907 9.42574 39.7907C10.5001 39.7907 10.5768 39.8718 10.573 41.0238C10.573 41.2834 10.5807 41.5429 10.573 41.8025C10.55 42.342 10.3197 42.5773 9.80943 42.5854C9.28761 42.5935 8.76579 42.5854 8.24397 42.5854C7.59937 42.5854 7.51112 42.6787 7.51112 43.3479C7.51112 46.1021 7.51112 48.8562 7.51112 51.6103C7.51112 53.2612 7.51112 54.9161 7.51112 56.567C7.51112 57.2484 7.29626 57.4674 6.65166 57.4715C6.09914 57.4715 5.55046 57.4755 4.99795 57.4715C4.42241 57.4675 4.18836 57.216 4.18836 56.5994C4.18836 54.3645 4.18836 52.1336 4.18836 49.8986L4.18068 49.8946Z" fill="#9878A7"/>
<path d="M70.1563 51.318C70.1563 50.0484 70.1563 48.7788 70.1563 47.5092C70.1563 46.8968 70.0757 46.8116 69.5117 46.8035C68.8518 46.7913 68.6369 46.5642 68.6369 45.8584C68.6369 45.6921 68.6332 45.5217 68.6369 45.3554C68.6523 44.8281 68.8825 44.5807 69.3889 44.5523C70.1064 44.5117 70.1218 44.4996 70.1218 43.7613C70.1218 43.1042 70.1181 42.4472 70.1218 41.7901C70.1255 41.2709 70.3328 41.0153 70.8201 40.991C71.3688 40.9626 71.9213 40.9626 72.47 40.991C72.9457 41.0153 73.1568 41.283 73.1606 41.8022C73.1643 42.5202 73.1606 43.2381 73.1606 43.9601C73.1606 44.4468 73.2911 44.5685 73.7592 44.5929C74.0009 44.605 74.2772 44.5807 74.4805 44.6862C74.9985 44.962 74.7913 45.5096 74.8258 45.9598C74.8527 46.2883 74.7798 46.6007 74.4613 46.7183C74.2388 46.7994 73.9817 46.8116 73.74 46.8075C73.341 46.7994 73.1568 46.9617 73.1568 47.3997C73.1645 49.6022 73.1568 51.8047 73.1645 54.0032C73.1645 54.7576 73.4753 55.0578 74.2235 55.074C74.7952 55.0862 74.8834 55.1795 74.8949 55.8C74.8949 55.9055 74.8949 56.015 74.8949 56.1205C74.8949 57.3657 74.7376 57.5645 73.5405 57.5645C72.9074 57.5645 72.2628 57.5077 71.6489 57.3617C70.7626 57.1548 70.2331 56.4977 70.1985 55.5405C70.1525 54.137 70.187 52.7295 70.187 51.322C70.1755 51.322 70.164 51.322 70.1563 51.322V51.318Z" fill="#9878A7"/>
<path d="M40.0522 51.2696C40.0522 50.0163 40.0522 48.7629 40.0522 47.5055C40.0522 46.889 39.9754 46.8119 39.4037 46.8038C38.7514 46.7957 38.5404 46.5767 38.5366 45.9033C38.5366 45.7208 38.5366 45.5342 38.5366 45.3517C38.5481 44.8122 38.7668 44.577 39.2809 44.5526C40.0215 44.5161 40.033 44.504 40.033 43.7333C40.033 43.0924 40.033 42.4475 40.033 41.8066C40.033 41.2712 40.2555 41.0035 40.7581 40.9792C41.2953 40.9548 41.8325 40.9548 42.3658 40.9792C42.8493 41.0035 43.068 41.2631 43.0718 41.7782C43.0795 42.4799 43.0718 43.1857 43.0718 43.8874C43.0718 44.4675 43.1754 44.5729 43.7394 44.577C43.8545 44.577 43.9735 44.5729 44.0886 44.577C44.173 44.5851 44.2689 44.5891 44.3418 44.6297C44.9787 44.9866 44.714 45.6235 44.7217 46.1508C44.7294 46.5645 44.4377 46.7592 44.0579 46.7957C43.3979 46.8552 43.068 47.2284 43.068 47.9152C43.068 49.8743 43.068 51.8294 43.068 53.7885C43.068 54.7742 43.325 55.0703 44.2421 55.05C44.6296 55.0419 44.7754 55.2325 44.7907 55.5854C44.8061 55.9667 44.8138 56.352 44.787 56.7333C44.7564 57.143 44.5376 57.4269 44.1424 57.4837C43.187 57.6216 42.2278 57.6135 41.307 57.2647C40.4628 56.9442 40.0561 56.2222 40.0484 55.0743C40.0369 53.8047 40.0484 52.5352 40.0484 51.2656L40.0522 51.2696Z" fill="#9878A7"/>
<path d="M48.8845 45.6117C49.3487 44.9465 49.8897 44.5368 50.5842 44.3826C51.2327 44.2366 51.5665 44.5125 51.5703 45.2061C51.5703 45.6807 51.5549 46.1512 51.5511 46.6258C51.5435 47.2748 51.4053 47.3883 50.7953 47.3681C50.4538 47.3599 50.0931 47.3762 49.7746 47.4897C49.1914 47.7007 48.9344 48.2319 48.8922 48.8444C48.8423 49.5461 48.8423 50.2479 48.8384 50.9497C48.8308 52.7993 48.8384 54.6489 48.8384 56.4985C48.8384 57.2408 48.6274 57.4597 47.9406 57.4638C47.4763 57.4638 47.0121 57.4719 46.5478 57.4638C46.0452 57.4556 45.7958 57.2083 45.7804 56.677C45.765 56.174 45.7804 55.667 45.7767 55.164C45.7767 51.984 45.7767 48.8039 45.7767 45.6239C45.7767 44.764 45.9532 44.5774 46.7743 44.5774C47.1235 44.5774 47.4688 44.5774 47.8179 44.5774C48.6506 44.5774 48.7657 44.6788 48.8846 45.6077L48.8845 45.6117Z" fill="#9878A7"/>
<path d="M85.9949 40.1965C89.3868 40.1965 92.1148 41.3931 92.1148 44.7759C92.1148 47.8627 89.3829 49.1566 86.747 49.2539C89.1949 49.4527 90.4189 50.5478 90.9829 52.438L91.6429 54.4296C92.2069 56.3198 92.8669 56.9201 94.2788 57.5163H90.0429C89.5709 57.0174 89.1028 56.0237 88.723 54.8271L87.9709 52.3366C87.499 50.7425 86.747 49.3513 84.8631 49.3513H82.5072V54.3282C82.5072 55.9223 82.6952 56.8187 83.8271 57.4149H78.3633C79.4952 56.8187 79.6832 56.0196 79.6832 54.3282V43.2792C79.6832 41.6851 79.4952 40.7887 78.3633 40.1924H85.9911L85.9949 40.1965ZM82.4151 48.7591H85.2391C87.5949 48.7591 89.099 47.6639 89.099 44.8773C89.099 42.0907 87.687 40.7968 85.2391 40.7968H82.4151V48.7631V48.7591Z" fill="#9878A7"/>
<path d="M93.247 51.4446C93.247 47.7616 95.7909 45.0723 99.1789 45.0723C102.567 45.0723 105.111 47.6602 105.111 51.4446C105.111 55.229 102.663 57.7154 99.271 57.7154C95.8791 57.7154 93.2432 55.1276 93.2432 51.4446H93.247ZM102.195 51.4446C102.195 47.9603 101.159 45.5712 99.1827 45.5712C97.2067 45.5712 96.1707 47.9603 96.1707 51.4446C96.1707 54.9288 97.2067 57.3179 99.1827 57.3179C101.159 57.3179 102.195 54.9288 102.195 51.4446Z" fill="#9878A7"/>
<path d="M114.622 48.0614C114.622 46.5687 114.338 45.9725 113.21 45.3721H117.354V55.0299C117.354 56.6239 117.826 57.0214 118.862 57.5204H114.626V54.0361C114.062 56.4252 112.458 57.8205 110.482 57.8205C108.314 57.8205 106.902 56.2264 106.902 53.5413V48.1668C106.902 46.6742 106.619 46.0779 105.49 45.4776H109.634V53.3425C109.634 54.8352 110.198 56.2305 111.802 56.2305C113.406 56.2305 114.722 54.6364 114.722 51.9512V48.0695H114.626L114.622 48.0614Z" fill="#9878A7"/>
<path d="M123.194 45.3717V48.7546C123.758 46.4628 125.266 45.1689 127.338 45.1689C129.598 45.1689 131.01 46.763 131.01 49.4482V54.8226C131.01 56.4167 131.198 56.9115 132.234 57.5118H127.054C128.186 57.0129 128.278 56.5181 128.278 54.8226V49.5455C128.278 47.9514 127.714 46.6575 126.11 46.6575C124.414 46.6575 123.286 48.2517 123.286 50.9369V54.8186C123.286 56.4127 123.474 56.9076 124.51 57.5079H119.238C120.37 57.009 120.462 56.5141 120.462 54.8186V48.1502C120.462 46.6575 120.178 46.0613 119.05 45.461H123.194V45.3596V45.3717Z" fill="#9878A7"/>
<path d="M142.122 41.6892C142.122 40.1965 141.838 39.4989 140.71 39H144.853V54.8271C144.853 56.3198 145.137 56.916 146.173 57.5164H142.125V54.2309C141.654 56.121 140.149 57.7151 137.982 57.7151C135.158 57.7151 132.802 55.4234 132.802 51.5416C132.802 47.6599 135.158 45.072 138.074 45.072C140.242 45.072 141.654 46.5647 142.122 48.4549V41.6892ZM142.122 52.5394V50.4505C142.122 47.8627 140.522 46.37 138.922 46.37C136.946 46.37 135.722 48.3616 135.722 51.6471C135.722 54.7338 136.946 56.5267 138.922 56.5267C140.522 56.4252 142.122 54.9326 142.122 52.5435V52.5394Z" fill="#9878A7"/>
<path d="M154.177 53.436C153.989 55.8251 153.045 57.7153 150.693 57.7153C148.717 57.7153 147.493 56.5187 147.493 53.9309V45.9646H145.893V45.7658C147.965 45.3683 149.473 43.4741 149.941 41.085H150.129V45.3643H153.709L153.613 45.9605H150.129V53.8254C150.129 55.3181 150.693 56.1172 151.637 56.1172C152.769 56.1172 153.521 55.1234 153.805 53.3306L154.181 53.432L154.177 53.436Z" fill="#9878A7"/>
<path d="M166.797 56.6203C166.325 57.2165 165.477 57.7155 164.441 57.7155C163.029 57.7155 162.181 56.819 162.085 55.5251C162.085 55.4237 161.989 54.7301 161.989 54.5314C161.705 56.2228 160.105 57.7155 158.129 57.7155C156.153 57.7155 154.737 56.7217 154.737 54.6287C154.737 51.9395 157.373 51.3432 160.201 50.747L161.989 50.4468V48.7554C161.989 47.1613 161.329 45.6686 159.541 45.6686C158.033 45.6686 157.373 46.5651 157.373 47.6602C157.373 48.4552 157.749 49.0555 158.409 49.0555C158.505 49.0555 158.597 49.0555 158.785 48.9541C158.597 49.7491 157.937 50.1507 157.089 50.1507C156.053 50.1507 155.205 49.4531 155.205 48.2605C155.205 46.5691 156.993 45.1738 159.537 45.1738C162.833 45.1738 164.717 46.3704 164.717 49.453C164.717 51.4446 164.621 53.0387 164.621 54.6287C164.621 56.024 164.997 56.819 166.033 56.819C166.317 56.7176 166.597 56.7176 166.785 56.6203H166.797ZM160.581 51.1445C158.509 51.542 157.569 52.4384 157.569 54.2312C157.569 55.7239 158.321 56.4215 159.357 56.4215C160.677 56.4215 161.901 55.225 161.993 53.136V50.9457L160.581 51.1445Z" fill="#9878A7"/>
<path d="M169.621 54.6284C169.337 55.8249 168.397 57.3176 167.077 57.7151C167.361 56.2224 167.361 54.4296 167.361 52.2393V41.6892C167.361 40.1965 167.077 39.4989 165.949 39H170.093V48.755C170.565 46.8649 172.069 45.2708 174.236 45.2708C177.06 45.2708 179.416 47.5625 179.416 51.4443C179.416 55.326 176.968 57.9139 173.953 57.9139C171.785 57.7151 170.185 56.4212 169.621 54.6284ZM173.293 46.4633C171.785 46.4633 170.185 47.956 170.185 50.5438V52.9329C170.185 55.322 171.785 56.916 173.293 56.916C175.365 56.916 176.493 54.9245 176.493 51.5416C176.493 48.1588 175.269 46.4633 173.293 46.4633Z" fill="#9878A7"/>
<path d="M184.028 54.8271C184.028 56.4212 184.216 56.916 185.252 57.5164H179.98C181.112 57.0174 181.204 56.5226 181.204 54.8271V41.6892C181.204 40.1965 180.92 39.4989 179.792 39H183.936V54.8271H184.032H184.028Z" fill="#9878A7"/>
<path d="M196.648 50.9457H188.644C188.644 54.1298 190.152 56.3201 192.692 56.3201C194.292 56.3201 195.8 55.4237 196.46 53.5336L196.648 53.635C196.176 56.3242 194.2 57.8169 191.564 57.8169C188.456 57.8169 185.82 55.5251 185.82 51.546C185.82 47.5669 188.456 45.1738 191.472 45.1738C195.144 45.1738 196.652 47.5629 196.652 50.9498L196.648 50.9457ZM193.916 50.4468C193.916 47.859 193.54 45.6686 191.56 45.6686C190.052 45.6686 188.828 47.5588 188.736 50.4468H193.916Z" fill="#9878A7"/>
</svg>
