<svg width="227" height="63" viewBox="0 0 227 63" fill="none" xmlns="http://www.w3.org/2000/svg">
<path d="M224.39 21.7354L224.391 21.7287V11.5595C224.391 11.2744 224.296 11.0263 224.117 10.8492C223.941 10.672 223.693 10.5764 223.408 10.5764C223.122 10.5764 222.874 10.672 222.698 10.8492C222.52 11.0263 222.424 11.2744 222.424 11.5595V21.7287C222.424 22.5012 221.807 23.1184 221.035 23.1184H205.356C204.582 23.1184 203.966 22.5012 203.966 21.7287V6.05114C203.966 5.2786 204.582 4.66135 205.356 4.66135H215.526C215.811 4.66135 216.059 4.56575 216.237 4.3886C216.413 4.21144 216.509 3.96337 216.509 3.67833C216.509 3.39329 216.413 3.14523 216.237 2.96806C216.059 2.79092 215.811 2.69531 215.526 2.69531H205.356C203.501 2.69531 202 4.19665 202 6.05114V21.6439C202 23.4983 203.501 24.9997 205.356 24.9997H220.95C222.804 24.9997 224.302 23.5008 224.39 21.7354Z" fill="#9878A7" stroke="#9878A7" stroke-width="0.0349952"/>
<path d="M224.169 1H219.932C219.647 1 219.399 1.0956 219.222 1.27276C219.045 1.44991 218.949 1.69799 218.949 1.98302C218.949 2.26805 219.045 2.51613 219.222 2.69329C219.399 2.87043 219.647 2.96604 219.932 2.96604H222.656L213.31 12.3106C212.918 12.7025 212.918 13.2969 213.31 13.6886C213.507 13.8853 213.796 13.9826 213.999 13.9826C214.203 13.9826 214.492 13.8853 214.688 13.6886L224.034 4.3442V7.0676C224.034 7.35264 224.13 7.60072 224.306 7.77788C224.484 7.95502 224.732 8.05063 225.017 8.05063C225.301 8.05063 225.55 7.95502 225.727 7.77788C225.903 7.60072 226 7.35264 226 7.0676V2.83045C226 1.82339 225.177 1 224.169 1Z" fill="#9878A7" stroke="#9878A7" stroke-width="0.0349952"/>
<mask id="mask0_541_7747" style="mask-type:luminance" maskUnits="userSpaceOnUse" x="0" y="39" width="190" height="21">
<path d="M190 39H0V59.2538H190V39Z" fill="white"/>
</mask>
<g mask="url(#mask0_541_7747)">
<mask id="mask1_541_7747" style="mask-type:luminance" maskUnits="userSpaceOnUse" x="0" y="39" width="38" height="21">
<path d="M37.811 39H0V59.2538H37.811V39Z" fill="white"/>
</mask>
<g mask="url(#mask1_541_7747)">
<path d="M35.2786 49.1296C32.0101 43.0751 25.9056 39 18.9055 39C8.46706 39 0 48.0709 0 59.2538H18.9055C25.9004 59.2538 32.005 55.1787 35.2786 49.1241V49.1296Z" fill="#9878A7"/>
<path d="M18.9055 39C25.9004 39 32.005 43.0751 35.2786 49.1296C36.8895 46.1464 37.8109 42.689 37.8109 39H18.9055Z" fill="#9878A7"/>
</g>
<mask id="mask2_541_7747" style="mask-type:luminance" maskUnits="userSpaceOnUse" x="47" y="39" width="143" height="21">
<path d="M189.249 39H47.2637V59.2538H189.249V39Z" fill="white"/>
</mask>
<g mask="url(#mask2_541_7747)">
<path d="M58.7892 40.8613V43.5237H54.3379V57.808H51.7402V43.5237H47.2637V40.8613H58.7892Z" fill="#9878A7"/>
<path d="M60.4382 52.8687C60.6196 53.7889 61.033 54.4951 61.6808 54.9873C62.3285 55.4795 63.1186 55.7255 64.0534 55.7255C65.3489 55.7255 66.3204 55.226 66.9682 54.2244L68.9801 55.4843C67.8663 57.2437 66.2148 58.1222 64.0305 58.1222C62.193 58.1222 60.7092 57.5217 59.5792 56.3185C58.4491 55.1152 57.884 53.5945 57.884 51.754C57.884 49.9134 58.4422 48.432 59.5561 47.214C60.6702 45.996 62.1012 45.3857 63.8491 45.3857C65.5051 45.3857 66.8671 46.0083 67.9283 47.2509C68.9894 48.4935 69.5223 50.002 69.5223 51.7786C69.5223 52.0542 69.4925 52.4158 69.4327 52.8687H60.4382ZM60.4153 50.7378H67.0601C66.8948 49.7534 66.5134 49.0103 65.9185 48.5108C65.3235 48.0113 64.6254 47.7603 63.8283 47.7603C62.9235 47.7603 62.17 48.0261 61.5683 48.56C60.9665 49.0915 60.5806 49.8199 60.4153 50.7378Z" fill="#9878A7"/>
<path d="M76.9365 58.1222C75.2345 58.1222 73.815 57.5095 72.6758 56.2816C71.5389 55.0562 70.9692 53.5453 70.9692 51.754C70.9692 49.9626 71.5365 48.432 72.6758 47.214C73.8128 45.996 75.2322 45.3857 76.9365 45.3857C78.0367 45.3857 79.0382 45.6687 79.943 46.2323C80.8481 46.7982 81.5256 47.5561 81.9782 48.5083L79.8765 49.815C79.6192 49.2343 79.2334 48.779 78.712 48.4468C78.1929 48.1171 77.5934 47.9498 76.9158 47.9498C75.9213 47.9498 75.0898 48.314 74.4191 49.0398C73.7484 49.7658 73.4131 50.6712 73.4131 51.7514C73.4131 52.8317 73.7484 53.7373 74.4191 54.4631C75.0898 55.1891 75.9213 55.5532 76.9158 55.5532C77.5796 55.5532 78.1768 55.3835 78.712 55.0439C79.2472 54.7042 79.6491 54.254 79.9201 53.6881L82.0217 54.9725C81.5394 55.942 80.8458 56.7072 79.943 57.2733C79.0382 57.8392 78.0367 58.1198 76.9365 58.1198V58.1222Z" fill="#9878A7"/>
<path d="M89.7257 45.3865C91.0211 45.3865 92.0685 45.8294 92.8678 46.7178C93.6671 47.606 94.0645 48.8241 94.0645 50.3743V57.808H91.6229V50.6425C91.6229 49.7394 91.3978 49.0455 90.9453 48.5608C90.4929 48.076 89.875 47.8349 89.0918 47.8349C88.2328 47.8349 87.5392 48.1203 87.0131 48.6937C86.4849 49.2669 86.223 50.1431 86.223 51.3215V57.8104H83.7815V40.8613H86.223V47.2541C86.9603 46.0115 88.1294 45.3889 89.7257 45.3889V45.3865Z" fill="#9878A7"/>
<path d="M106.112 43.5237H99.4433V48.2679H105.884V50.9304H99.4433V57.8056H96.8459V40.8613H106.112V43.5237Z" fill="#9878A7"/>
<path d="M108.393 57.8069V40.1318H110.835V57.8044H108.393V57.8069Z" fill="#9878A7"/>
<path d="M118.992 58.1222C117.334 58.1222 115.925 57.5095 114.766 56.2816C113.606 55.0562 113.025 53.5453 113.025 51.754C113.025 49.9626 113.604 48.4542 114.766 47.2263C115.925 46.0009 117.334 45.3857 118.992 45.3857C120.651 45.3857 122.077 45.9985 123.23 47.2263C124.382 48.4542 124.959 49.9626 124.959 51.754C124.959 53.5453 124.382 55.0562 123.23 56.2816C122.077 57.5095 120.664 58.1222 118.992 58.1222ZM116.484 54.4903C117.161 55.2162 117.998 55.5803 118.992 55.5803C119.986 55.5803 120.823 55.2162 121.501 54.4903C122.179 53.7644 122.518 52.8515 122.518 51.754C122.518 50.6566 122.179 49.7436 121.501 49.0177C120.823 48.2918 119.986 47.9276 118.992 47.9276C117.998 47.9276 117.161 48.2918 116.484 49.0177C115.806 49.7436 115.467 50.6566 115.467 51.754C115.467 52.8515 115.806 53.7644 116.484 54.4903Z" fill="#9878A7"/>
<path d="M139.738 45.7012H142.315L138.766 57.8052H136.371L134.02 49.6458L131.648 57.8052H129.253L125.703 45.7012H128.281L130.472 54.0527L132.845 45.7012H135.171L137.521 54.0527L139.735 45.7012H139.738Z" fill="#9878A7"/>
<path d="M162.552 42.7939L161.123 44.3251L164.419 47.8555L165.848 46.3243L162.552 42.7939Z" fill="#9878A7"/>
<path d="M156.701 42.79L153.405 46.3204L154.835 47.8516L158.13 44.3212L156.701 42.79Z" fill="#9878A7"/>
<path d="M154.481 41.9686H164.665V44.0233H166.687V39.8672H166.496H164.665H154.481H152.653H152.46V44.0233H154.481V41.9686Z" fill="#9878A7"/>
<path d="M160.639 45.4326H158.618V48.5109H152.428V50.6124H154.748C154.054 54.6011 152.607 58.2701 152.591 58.3093L152.488 58.5702L154.431 59.1558L154.513 58.9614C154.53 58.9245 156.059 55.2999 156.79 50.6124H158.621V59.2543H160.642V50.6124H166.832V48.5109H160.642V45.4326H160.639Z" fill="#9878A7"/>
<path d="M149.271 39.0049L147.842 40.5361L150.619 43.5114L152.048 41.9802L149.271 39.0049Z" fill="#9878A7"/>
<path d="M149.272 43.9609L147.843 45.492L150.62 48.4674L152.049 46.9362L149.272 43.9609Z" fill="#9878A7"/>
<path d="M164.857 51.4277L162.912 52.0148L164.795 59.1772L166.74 58.5902L164.857 51.4277Z" fill="#9878A7"/>
<path d="M149.704 49.8138C149.18 54.0437 147.487 58.2662 147.469 58.3081L147.363 58.5714L149.306 59.157L149.389 58.965C149.405 58.9281 151.035 55.1362 151.66 50.333L151.687 50.1165L149.737 49.5283L149.704 49.8138Z" fill="#9878A7"/>
<path d="M179.482 39.209H177.461V40.9955H174.623V43.0969H177.461V44.4133H174.741V53.1315H177.461V54.475H174.623V56.5764H177.461V59.2512H179.482V56.5764H182.202V54.475H179.482V53.1315H180.041C181.233 53.1315 182.202 52.093 182.202 50.816V44.4133H179.482V43.0969H182.202V40.9955H179.482V39.209ZM180.181 50.8136C180.181 50.8996 180.116 50.9685 180.036 50.9685H176.764V49.8243H180.181V50.8136ZM180.181 46.5787V47.7229H176.764V46.5787H180.181Z" fill="#9878A7"/>
<path d="M187.227 39.8027H182.957V59.2544H184.979V52.6475H187.229V56.8257C187.229 56.9709 187.12 57.089 186.983 57.089H186.088V59.2544H186.967C188.226 59.2544 189.251 58.1569 189.251 56.8084V39.8027H187.229H187.227ZM187.227 50.5436H184.977V47.3053H187.227V50.5436ZM187.227 45.2039H184.977V41.9656H187.227V45.2039Z" fill="#9878A7"/>
<path d="M171.55 39.1201L170.121 40.6513L172.898 43.6266L174.328 42.0954L171.55 39.1201Z" fill="#9878A7"/>
<path d="M171.552 44.0781L170.123 45.6093L172.9 48.5846L174.33 47.0535L171.552 44.0781Z" fill="#9878A7"/>
<path d="M171.987 49.8127C171.464 54.0427 169.771 58.2652 169.753 58.307L169.647 58.5703L171.591 59.1559L171.673 58.9641C171.689 58.9271 173.319 55.1352 173.944 50.332L173.971 50.1155L172.021 49.5273L171.987 49.8127Z" fill="#9878A7"/>
</g>
</g>
</svg>
