<svg width="217" height="65" viewBox="0 0 217 65" fill="none" xmlns="http://www.w3.org/2000/svg">
<path d="M214.39 21.7354L214.391 21.7287V11.5595C214.391 11.2744 214.296 11.0263 214.117 10.8492C213.941 10.672 213.693 10.5764 213.408 10.5764C213.122 10.5764 212.874 10.672 212.698 10.8492C212.52 11.0263 212.424 11.2744 212.424 11.5595V21.7287C212.424 22.5012 211.807 23.1184 211.035 23.1184H195.356C194.582 23.1184 193.966 22.5012 193.966 21.7287V6.05114C193.966 5.2786 194.582 4.66135 195.356 4.66135H205.526C205.811 4.66135 206.059 4.56575 206.237 4.3886C206.413 4.21144 206.509 3.96337 206.509 3.67833C206.509 3.39329 206.413 3.14523 206.237 2.96806C206.059 2.79092 205.811 2.69531 205.526 2.69531H195.356C193.501 2.69531 192 4.19665 192 6.05114V21.6439C192 23.4983 193.501 24.9997 195.356 24.9997H210.95C212.804 24.9997 214.302 23.5008 214.39 21.7354Z" fill="#9878A7" stroke="#9878A7" stroke-width="0.0349952"/>
<path d="M214.169 1H209.931C209.646 1 209.399 1.0956 209.221 1.27276C209.045 1.44991 208.948 1.69799 208.948 1.98302C208.948 2.26805 209.045 2.51613 209.221 2.69329C209.399 2.87043 209.646 2.96604 209.931 2.96604H212.656L203.31 12.3106C202.918 12.7025 202.918 13.2969 203.31 13.6886C203.506 13.8853 203.795 13.9826 203.999 13.9826C204.202 13.9826 204.491 13.8853 204.688 13.6886L214.034 4.3442V7.0676C214.034 7.35264 214.129 7.60072 214.306 7.77788C214.484 7.95502 214.732 8.05063 215.017 8.05063C215.301 8.05063 215.55 7.95502 215.727 7.77788C215.903 7.60072 216 7.35264 216 7.0676V2.83045C216 1.82339 215.177 1 214.169 1Z" fill="#9878A7" stroke="#9878A7" stroke-width="0.0349952"/>
<mask id="mask0_541_7698" style="mask-type:luminance" maskUnits="userSpaceOnUse" x="0" y="34" width="180" height="32">
<path d="M180 34H0V65.0714H180V34Z" fill="white"/>
</mask>
<g mask="url(#mask0_541_7698)">
<path d="M30.4736 49.4768V49.4168C30.4436 40.9279 23.6057 34 15.2368 34C6.86786 34 0 40.9279 0 49.4768C0 58.0268 6.83678 64.9407 15.2368 64.9407C19.0912 64.9433 22.7984 63.4597 25.5868 60.7986C25.8614 60.5476 26.0251 60.1979 26.0419 59.8262C26.0587 59.4547 25.9272 59.0916 25.6763 58.817C25.4253 58.5424 25.0756 58.3786 24.7039 58.3618C24.3324 58.345 23.9692 58.4766 23.6946 58.7275L23.6646 58.7575C22.4615 59.9013 21.0396 60.7901 19.4845 61.3707C17.9293 61.9512 16.2727 62.2116 14.6144 62.136C12.9561 62.0605 11.3301 61.6506 9.83419 60.931C8.33822 60.2114 7.00308 59.197 5.90893 57.9486L12.4179 47.5107V52.3407C12.4179 54.6486 13.3179 55.3996 14.0743 55.6096C14.8307 55.8196 15.9654 55.6675 17.1943 53.7186L20.7654 47.92C20.8607 47.7507 20.9711 47.59 21.0932 47.4389V50.38C21.0932 52.5389 21.9632 54.2789 23.4621 55.1179C24.1541 55.4946 24.9351 55.6769 25.7223 55.6454C26.5096 55.6139 27.2736 55.3697 27.9332 54.9389C29.6646 53.815 30.5946 51.8468 30.4736 49.4768ZM26.5136 52.5143C26.2731 52.6799 25.9928 52.7783 25.7015 52.7992C25.4103 52.8201 25.1188 52.7627 24.8571 52.6332C24.2571 52.2743 23.8961 51.4654 23.8961 50.3554V46.9557C23.8961 45.3379 23.2661 44.1668 22.1871 43.8689C20.3561 43.3161 18.9782 45.5779 18.4671 46.4179L15.2368 51.6057V45.2179C15.2068 43.7489 14.7257 42.8789 13.8257 42.6079C13.2257 42.4289 12.3257 42.52 11.4568 43.84L4.22786 55.4168C3.26616 53.5843 2.76219 51.5462 2.75893 49.4768C2.75893 42.4879 8.36679 36.8189 15.2368 36.8189C22.1068 36.8189 27.7146 42.4879 27.7146 49.4768V49.5379C27.7864 50.8857 27.3536 51.9679 26.5146 52.5057L26.5136 52.5143ZM51.7104 44.1979C51.9091 44.3251 52.0752 44.4973 52.1952 44.7006C52.3152 44.9038 52.3859 45.1324 52.4014 45.3679C52.3994 45.7121 52.2637 46.0422 52.0231 46.2884C51.7825 46.5346 51.4556 46.6779 51.1114 46.6879C50.9481 46.6754 50.7869 46.6449 50.6304 46.5968C49.79 45.9665 48.7707 45.6204 47.7204 45.6089C45.1714 45.6089 43.4325 47.6768 43.4325 50.2557C43.4325 52.8346 45.2025 54.8757 47.7204 54.8757C48.9306 54.874 50.0926 54.4004 50.9593 53.5557C51.18 53.4004 51.4414 53.3168 51.7104 53.3157C51.9256 53.3134 52.1376 53.3681 52.3247 53.4746C52.5119 53.5811 52.6674 53.7353 52.7752 53.9216C52.8831 54.1079 52.9396 54.3195 52.9389 54.5348C52.9381 54.75 52.8802 54.9612 52.7711 55.1468C52.6671 55.3289 52.5193 55.4843 52.3404 55.5968C51.4622 56.327 50.4213 56.8351 49.3055 57.0787C48.1898 57.3221 47.0319 57.2937 45.9294 56.9959C44.8269 56.6979 43.8121 56.1392 42.9708 55.3669C42.1296 54.5946 41.4864 53.6312 41.0955 52.5581C40.7046 51.4851 40.5776 50.3337 40.725 49.2013C40.8724 48.0688 41.29 46.9884 41.9426 46.0511C42.5952 45.1139 43.4636 44.3473 44.4746 43.8161C45.4855 43.285 46.6094 43.0046 47.7514 42.9989C49.1636 42.9775 50.5479 43.3954 51.7104 44.1979ZM58.8482 47.1882C57.5026 47.1825 56.2097 47.7104 55.2527 48.6564C54.2957 49.6024 53.7528 50.889 53.7429 52.2346C53.7512 53.5876 54.2901 54.8833 55.2439 55.8431C56.1976 56.8029 57.49 57.35 58.8429 57.3668C61.4829 57.3668 63.7329 54.9968 63.7329 52.2346C63.7329 49.4746 61.5182 47.1882 58.8482 47.1882ZM58.8182 54.8671C57.5593 54.8671 56.5093 53.7271 56.5093 52.2571C56.5093 50.7282 57.5593 49.7971 58.8182 49.7971C59.9893 49.7971 60.9771 50.7582 60.9771 52.2571C60.9771 53.7571 59.9893 54.8757 58.8182 54.8757V54.8671ZM65.4171 55.8057V48.7257C65.4137 48.5422 65.4469 48.3597 65.5147 48.1891C65.5827 48.0186 65.6838 47.8632 65.8124 47.7321C65.941 47.601 66.0944 47.4969 66.2636 47.4258C66.4329 47.3546 66.6146 47.318 66.7982 47.3179C67.1676 47.3227 67.5202 47.4734 67.7789 47.7371C68.0376 48.0009 68.1815 48.3563 68.1793 48.7257V55.8057C68.1819 56.1754 68.0381 56.531 67.7793 56.795C67.5206 57.059 67.1679 57.2098 66.7982 57.2146C66.4305 57.2038 66.0813 57.0511 65.8239 56.7884C65.5663 56.5257 65.4206 56.1735 65.4171 55.8057ZM65.2071 44.6479C65.2011 44.4341 65.2378 44.2213 65.3147 44.0219C65.3917 43.8224 65.5077 43.6403 65.6557 43.4861C65.8038 43.3318 65.981 43.2086 66.1772 43.1234C66.3733 43.0384 66.5845 42.9931 66.7982 42.9904C67.0134 42.9928 67.2258 43.0377 67.4235 43.1225C67.6213 43.2071 67.8003 43.3299 67.9506 43.4839C68.1009 43.6378 68.2194 43.8199 68.2992 44.0196C68.379 44.2193 68.4187 44.4328 68.4161 44.6479C68.4161 45.0732 68.2471 45.4812 67.9463 45.782C67.6455 46.0828 67.2375 46.2518 66.8121 46.2518C66.3868 46.2518 65.9788 46.0828 65.678 45.782C65.3772 45.4812 65.2071 45.0732 65.2071 44.6479ZM73.4561 51.9679V55.8057C73.4561 56.172 73.3106 56.5232 73.0516 56.7823C72.7925 57.0413 72.4413 57.1868 72.075 57.1868C71.7087 57.1868 71.3575 57.0413 71.0984 56.7823C70.8394 56.5232 70.6939 56.172 70.6939 55.8057V48.3968C70.6939 48.1144 70.8061 47.8434 71.0058 47.6437C71.2055 47.444 71.4765 47.3318 71.7589 47.3318C72.0414 47.3318 72.3123 47.444 72.512 47.6437C72.7118 47.8434 72.8239 48.1144 72.8239 48.3968C73.2175 47.9946 73.6915 47.6799 74.2149 47.4731C74.7381 47.2663 75.2992 47.1721 75.8614 47.1968C78.6225 47.1968 79.8514 49.2668 79.8514 51.6368V55.8057C79.8514 56.172 79.7059 56.5232 79.447 56.7823C79.1879 57.0413 78.8367 57.1868 78.4704 57.1868C78.104 57.1868 77.7528 57.0413 77.4937 56.7823C77.2348 56.5232 77.0893 56.172 77.0893 55.8057V51.9679C77.0893 50.7668 76.9404 49.7586 75.2003 49.7586C73.9725 49.7586 73.4614 50.7775 73.4614 51.9679H73.4561ZM88.7839 53.4368C88.6438 53.4371 88.5055 53.4045 88.3802 53.3416C88.255 53.2787 88.1463 53.1873 88.0629 53.0746L84.8539 49.5957V55.8057C84.8591 55.9902 84.8271 56.174 84.7601 56.3459C84.693 56.5179 84.5922 56.6747 84.4635 56.8071C84.3347 56.9394 84.1809 57.0446 84.0108 57.1164C83.8407 57.1883 83.658 57.2253 83.4734 57.2253C83.2888 57.2253 83.1061 57.1883 82.936 57.1164C82.7659 57.0446 82.6121 56.9394 82.4833 56.8071C82.3546 56.6747 82.2538 56.5179 82.1867 56.3459C82.1196 56.174 82.0877 55.9902 82.0929 55.8057V43.5068C82.1354 43.4048 82.206 43.3169 82.2965 43.2534C82.387 43.1899 82.4936 43.1533 82.6039 43.1479C82.8418 43.1882 83.0559 43.3163 83.2039 43.5068L88.3339 49.2668C88.3862 49.341 88.4531 49.4038 88.5304 49.4513C88.6079 49.4989 88.694 49.5301 88.7839 49.5432C88.9624 49.5086 89.1224 49.4104 89.2339 49.2668L94.3618 43.5068C94.4328 43.4103 94.5223 43.3287 94.6251 43.2671C94.728 43.2055 94.8421 43.1649 94.9607 43.1479C95.0731 43.1451 95.1835 43.1785 95.2754 43.2431C95.3674 43.3077 95.4362 43.4001 95.4718 43.5068V55.8068C95.4752 55.9903 95.442 56.1728 95.3742 56.3434C95.3062 56.5139 95.2051 56.6693 95.0765 56.8004C94.948 56.9315 94.7945 57.0356 94.6254 57.1067C94.4561 57.1779 94.2744 57.2145 94.0907 57.2146C93.7214 57.2093 93.3691 57.0582 93.1107 56.7943C92.8521 56.5304 92.7085 56.1751 92.7107 55.8057V49.5957L89.4986 53.0746C89.3133 53.2812 89.057 53.4105 88.7807 53.4368H88.7839ZM114.729 49.7479H114.427C112.689 49.8357 112.36 50.8279 112.36 51.9571V55.795C112.36 56.1612 112.214 56.5123 111.955 56.7713C111.695 57.0301 111.345 57.1757 110.979 57.1761C110.612 57.1755 110.262 57.0296 110.002 56.7705C109.744 56.5114 109.599 56.1601 109.599 55.7939V48.3979C109.6 48.1153 109.712 47.8445 109.911 47.6446C110.111 47.4448 110.382 47.3323 110.665 47.3318C110.948 47.3323 111.217 47.4449 111.418 47.6447C111.617 47.8446 111.73 48.1154 111.73 48.3979C112.749 47.4368 113.589 47.2268 114.427 47.1957H114.704C115.04 47.2046 115.36 47.3444 115.595 47.5853C115.83 47.8261 115.962 48.1492 115.963 48.4857C115.963 48.8146 115.834 49.1304 115.604 49.366C115.375 49.6017 115.063 49.7386 114.734 49.7479H114.729ZM125.376 55.1457C125.503 55.3439 125.576 55.5711 125.586 55.8057C125.571 56.1672 125.421 56.5099 125.165 56.7656C124.909 57.0215 124.566 57.1718 124.205 57.1868C123.728 57.1868 123.305 56.8246 122.976 56.4046L119.799 52.7104V55.7746C119.799 56.1407 119.653 56.492 119.395 56.7508C119.135 57.0097 118.784 57.1552 118.417 57.1552C118.052 57.1552 117.701 57.0097 117.441 56.7508C117.183 56.492 117.037 56.1407 117.037 55.7746V44.53C117.036 44.2568 117.118 43.9895 117.269 43.7621C117.421 43.5348 117.636 43.3575 117.888 43.253C118.141 43.1484 118.419 43.1212 118.686 43.1747C118.954 43.2283 119.201 43.3603 119.394 43.5539C119.653 43.8121 119.799 44.1646 119.799 44.5289V51.5468L122.976 48.0389C123.305 47.6779 123.698 47.2889 124.175 47.2889C124.526 47.3044 124.857 47.4524 125.102 47.7031C125.347 47.9539 125.488 48.2884 125.495 48.6389C125.496 48.8615 125.434 49.0796 125.315 49.2679L122.797 52.0289L125.376 55.15V55.1457ZM142.054 57.3357H141.303C139.204 57.3357 137.973 56.4046 137.973 53.1357V49.7479H137.255C136.917 49.7479 136.592 49.6134 136.353 49.3741C136.113 49.1348 135.979 48.8102 135.979 48.4718C135.979 48.1333 136.113 47.8088 136.353 47.5694C136.592 47.3302 136.917 47.1957 137.255 47.1957H137.962V44.5868C137.956 44.31 138.033 44.0378 138.184 43.8057C138.335 43.5735 138.552 43.3925 138.808 43.2861C138.977 43.2154 139.159 43.1789 139.342 43.1789C139.711 43.1851 140.064 43.3363 140.322 43.5997C140.58 43.8631 140.725 44.2178 140.724 44.5868V47.1882H141.861C142.195 47.1983 142.511 47.3392 142.741 47.5804C142.971 47.8215 143.098 48.1437 143.092 48.4771C143.082 48.8031 142.949 49.113 142.721 49.3465C142.494 49.58 142.187 49.72 141.861 49.7393H140.724V52.5893C140.724 54.4782 140.811 54.8671 141.651 54.8671H142.044C142.369 54.8685 142.682 54.9989 142.912 55.2298C143.143 55.4606 143.271 55.7732 143.272 56.0993C143.265 56.4229 143.133 56.7312 142.904 56.9601C142.676 57.189 142.367 57.3208 142.044 57.3282L142.054 57.3357ZM155.4 44.1979C155.598 44.3255 155.764 44.4977 155.884 44.7009C156.003 44.9041 156.074 45.1325 156.09 45.3679C156.088 45.7122 155.953 46.0424 155.712 46.2888C155.471 46.535 155.144 46.6781 154.8 46.6879C154.637 46.6747 154.476 46.6441 154.32 46.5968C153.481 45.966 152.462 45.6199 151.412 45.6089C148.861 45.6089 147.121 47.6768 147.121 50.2557C147.121 52.8346 148.891 54.8757 151.412 54.8757C152.623 54.874 153.784 54.4004 154.651 53.5557C154.871 53.4014 155.132 53.3179 155.4 53.3157C155.562 53.3142 155.723 53.3449 155.872 53.4059C156.022 53.467 156.16 53.5572 156.274 53.6714C156.465 53.8618 156.587 54.1101 156.621 54.3774C156.656 54.6446 156.6 54.9157 156.463 55.1479C156.358 55.331 156.209 55.4848 156.029 55.5957C155.151 56.3245 154.111 56.8314 152.997 57.0739C151.881 57.3163 150.725 57.2871 149.624 56.9886C147.962 56.5392 146.519 55.5025 145.563 54.0706C144.606 52.6388 144.202 50.9087 144.424 49.2014C144.645 47.4938 145.479 45.9241 146.769 44.7836C148.059 43.6432 149.718 43.009 151.44 42.9989C152.853 42.972 154.239 43.3915 155.4 44.1979ZM106.061 47.2879C105.92 47.2879 105.781 47.3159 105.652 47.3705C105.522 47.425 105.405 47.5049 105.307 47.6054C105.209 47.706 105.132 47.8252 105.081 47.9559C105.03 48.0867 105.005 48.2264 105.009 48.3668L104.951 48.6989C104.555 48.2303 104.064 47.8514 103.51 47.5875C102.956 47.3238 102.353 47.181 101.74 47.1689C99.0418 47.1689 97.0929 49.4468 97.0929 52.2046C97.0929 54.9636 99.0107 57.3357 101.591 57.3357C102.671 57.3357 104.38 56.8546 104.921 55.8057L104.982 56.1346C104.979 56.2759 105.005 56.4161 105.059 56.5468C105.112 56.6775 105.192 56.7958 105.293 56.8944C105.395 56.9931 105.515 57.0699 105.647 57.1201C105.779 57.1704 105.92 57.1931 106.061 57.1868C106.203 57.1871 106.343 57.1594 106.474 57.1051C106.606 57.0509 106.725 56.9714 106.825 56.8711C106.925 56.7707 107.005 56.6516 107.059 56.5205C107.113 56.3892 107.141 56.2486 107.141 56.1068V48.3754C107.137 48.0895 107.022 47.8164 106.82 47.6136C106.619 47.4106 106.347 47.294 106.061 47.2879ZM102.041 54.8757C100.812 54.8757 99.8507 53.7079 99.8507 52.2657C99.8507 50.8246 100.84 49.78 102.041 49.78C103.241 49.78 104.322 50.7689 104.322 52.2657C104.322 53.7625 103.271 54.8757 102.041 54.8757ZM135.455 52.0257C135.394 48.9357 133.384 47.1957 130.716 47.1957C127.404 47.1957 126.005 49.5957 126.005 52.3568C126.005 55.8668 128.317 57.3657 131.106 57.3657C132.155 57.3657 133.265 57.2146 134.104 56.5846C134.279 56.4825 134.425 56.3388 134.53 56.166C134.635 55.9934 134.695 55.7974 134.704 55.5957C134.706 55.2988 134.592 55.013 134.385 54.7998C134.178 54.5865 133.896 54.463 133.6 54.4557C133.346 54.4579 133.097 54.5307 132.882 54.6657C132.313 54.9087 131.699 55.031 131.081 55.0246C130.391 55.0246 128.801 54.7482 128.801 53.1057H134.372C134.657 53.1003 134.929 52.9849 135.131 52.7835C135.333 52.5822 135.449 52.3107 135.455 52.0257ZM128.794 51.3293C128.794 50.1614 130.026 49.7725 130.774 49.7725C131.523 49.7725 132.754 50.1614 132.784 51.3293H128.794ZM166.404 47.2879C166.263 47.288 166.124 47.316 165.995 47.3705C165.866 47.4249 165.749 47.5047 165.65 47.605C165.552 47.7055 165.476 47.8249 165.424 47.9557C165.374 48.0866 165.349 48.2264 165.354 48.3668L165.294 48.6989C164.898 48.2302 164.408 47.8512 163.855 47.5874C163.301 47.3235 162.698 47.1809 162.085 47.1689C159.385 47.1689 157.435 49.4468 157.435 52.2046C157.435 54.9636 159.367 57.3357 161.932 57.3357C163.012 57.3357 164.725 56.8546 165.262 55.8057L165.324 56.1346C165.321 56.2756 165.348 56.4156 165.402 56.546C165.456 56.6764 165.536 56.7944 165.636 56.8932C165.737 56.992 165.857 57.0689 165.99 57.1195C166.122 57.17 166.262 57.1929 166.404 57.1868C166.617 57.1867 166.826 57.1234 167.004 57.0047C167.181 56.8861 167.32 56.7176 167.402 56.5204C167.456 56.3896 167.484 56.2493 167.484 56.1068V48.3754C167.479 48.0897 167.364 47.8168 167.162 47.6141C166.961 47.4114 166.69 47.2945 166.404 47.2879ZM162.383 54.8757C161.185 54.8757 160.194 53.7079 160.194 52.2657C160.194 50.8246 161.155 49.78 162.383 49.78C163.611 49.78 164.664 50.7689 164.664 52.2657C164.664 53.7625 163.62 54.8757 162.389 54.8757H162.383ZM175.347 47.1882C174.746 47.1773 174.149 47.2886 173.592 47.5155C173.035 47.7425 172.53 48.0802 172.108 48.5082C172.108 47.8204 171.658 47.3093 171.059 47.3093C170.916 47.3089 170.776 47.3365 170.644 47.3906C170.514 47.4447 170.394 47.5242 170.294 47.6245C170.193 47.7249 170.113 47.844 170.059 47.9753C170.005 48.1065 169.977 48.2472 169.977 48.3893V60.0282C169.978 60.394 170.124 60.7445 170.382 61.0031C170.64 61.2618 170.991 61.4074 171.357 61.4082C171.723 61.4079 172.074 61.2625 172.333 61.0037C172.591 60.7451 172.737 60.3942 172.738 60.0282V56.5268C173.486 57.0946 174.687 57.3357 175.499 57.355C178.109 57.355 180 54.9861 180 52.225C180 49.4629 178.018 47.1882 175.347 47.1882ZM175.016 54.8671C173.787 54.8671 172.738 53.7636 172.738 52.2582C172.738 50.7529 173.787 49.7725 175.016 49.7725C176.245 49.7725 177.206 50.7614 177.206 52.2582C177.206 53.7068 176.248 54.8757 175.016 54.8757V54.8671Z" fill="#9878A7"/>
</g>
</svg>
