<svg width="196" height="62" viewBox="0 0 196 62" fill="none" xmlns="http://www.w3.org/2000/svg">
<g clip-path="url(#clip0_541_7674)">
<path d="M194.39 20.7354L194.391 20.7287V10.5595C194.391 10.2744 194.296 10.0263 194.117 9.84916C193.941 9.672 193.693 9.57643 193.408 9.57643C193.122 9.57643 192.874 9.672 192.698 9.84916C192.52 10.0263 192.424 10.2744 192.424 10.5595V20.7287C192.424 21.5012 191.807 22.1184 191.035 22.1184H175.356C174.582 22.1184 173.966 21.5012 173.966 20.7287V5.05114C173.966 4.2786 174.582 3.66135 175.356 3.66135H185.526C185.811 3.66135 186.059 3.56575 186.237 3.3886C186.413 3.21144 186.509 2.96337 186.509 2.67833C186.509 2.39329 186.413 2.14523 186.237 1.96806C186.059 1.79092 185.811 1.69531 185.526 1.69531H175.356C173.501 1.69531 172 3.19665 172 5.05114V20.6439C172 22.4983 173.501 23.9997 175.356 23.9997H190.95C192.804 23.9997 194.302 22.5008 194.39 20.7354Z" fill="#9878A7" stroke="#9878A7" stroke-width="0.0349952"/>
<path d="M194.169 0H189.932C189.647 0 189.399 0.0956017 189.222 0.272756C189.045 0.44991 188.949 0.697985 188.949 0.983023C188.949 1.26805 189.045 1.51613 189.222 1.69329C189.399 1.87043 189.647 1.96604 189.932 1.96604H192.656L183.31 11.3106C182.918 11.7025 182.918 12.2969 183.31 12.6886C183.507 12.8853 183.796 12.9826 183.999 12.9826C184.203 12.9826 184.492 12.8853 184.688 12.6886L194.034 3.3442V6.0676C194.034 6.35264 194.13 6.60072 194.306 6.77788C194.484 6.95502 194.732 7.05063 195.017 7.05063C195.301 7.05063 195.55 6.95502 195.727 6.77788C195.903 6.60072 196 6.35264 196 6.0676V1.83045C196 0.823393 195.177 0 194.169 0Z" fill="#9878A7" stroke="#9878A7" stroke-width="0.0349952"/>
<mask id="mask0_541_7674" style="mask-type:luminance" maskUnits="userSpaceOnUse" x="0" y="34" width="160" height="29">
<path d="M160 34H0V62.4444H160V34Z" fill="white"/>
</mask>
<g mask="url(#mask0_541_7674)">
<path fill-rule="evenodd" clip-rule="evenodd" d="M67.7182 47.6033C66.7404 47.0166 65.4676 46.7224 64.2933 46.5268C63.8044 46.4291 63.2178 46.3313 62.728 46.2335C61.9458 46.0379 60.0853 45.6459 60.0853 44.5695C60.0853 43.6895 61.1618 43.3953 62.0427 43.3953C63.6089 43.3953 64.5876 43.8842 64.8809 45.3526L69.3822 44.0797C68.8933 41.0468 65.0764 40.0682 62.1404 40.0682C59.1067 40.0682 54.9973 41.046 54.9973 44.8628C54.9973 48.1899 57.5413 48.9731 60.1831 49.5606C60.8684 49.6584 61.5538 49.8539 62.1404 50.0495C63.0213 50.2451 64.6853 50.5384 64.6853 51.7135C64.6853 52.8868 63.2169 53.3766 62.0427 53.3766C60.3796 53.3766 59.2053 52.3988 59.0089 50.7348L54.6053 51.9082C55.192 55.5295 58.8133 56.6059 62.1404 56.6059C65.8596 56.6059 69.7733 55.1384 69.7733 51.0282C69.6756 49.6584 68.8933 48.3855 67.7182 47.6033ZM0 56.3117H5.57778V35.0762L0 36.6433V56.3117ZM17.3209 40.166C15.4622 40.166 13.3084 41.1437 12.3307 42.9055V40.0682L7.33956 41.438V56.3126H12.4284V47.7011C12.4284 45.7437 13.4062 44.3739 15.3636 44.3739C17.9084 44.3739 17.8107 46.6246 17.8107 48.5819V56.3117H22.8996V46.2317C22.9973 42.4157 21.4311 40.166 17.3209 40.166ZM46.3849 40.166C41.688 40.166 37.9698 43.5908 37.9698 48.3855C37.9698 53.7686 41.5902 56.7037 46.5813 56.7037C49.1253 56.7037 52.0613 55.8237 53.9209 54.2575L52.5502 50.5384C51.2791 52.2024 49.1253 53.2788 46.8747 53.2788C45.4071 53.2788 43.9387 52.6922 43.4498 51.3215L54.312 48.2877C54.312 43.3953 51.2773 40.166 46.3849 40.166ZM42.96 47.9944C42.8622 45.7437 44.0364 43.5908 46.3858 43.5908C47.9511 43.5908 49.1253 44.7651 49.4187 46.2335L42.96 47.9944ZM78.4836 43.8842L79.3636 40.5571H75.6453V36.2513L70.5564 37.7197V50.9304C70.5564 55.2362 71.7307 56.5082 76.0364 56.4104C76.6231 56.4104 77.6027 56.3126 78.2871 56.2148L79.3636 52.3002C78.6791 52.4957 77.3084 52.6913 76.5262 52.3979C75.9396 52.2024 75.6453 51.7135 75.6453 51.0282V43.8842H78.4836ZM33.8596 40.5571L30.9236 51.0282L27.9876 40.5571H22.6053L27.792 56.2148H33.664L38.9476 40.5571H33.8596ZM129.86 55.5295C127.609 55.5295 126.435 53.2788 126.435 51.1259C126.435 48.9731 127.609 46.7224 129.86 46.7224C131.327 46.7224 132.306 47.7002 132.599 49.1686L133.773 48.8753C133.382 46.7224 131.817 45.6459 129.86 45.6459C126.826 45.6459 125.162 48.1899 125.162 51.1259C125.162 54.0619 126.826 56.6059 129.86 56.6059C132.012 56.6059 133.48 55.1384 133.871 52.9855L132.697 52.6922C132.501 54.1597 131.327 55.5295 129.86 55.5295ZM139.743 45.6459C136.709 45.6459 135.046 48.1899 135.046 51.1259C135.046 54.0619 136.709 56.6059 139.743 56.6059C142.777 56.6059 144.44 54.0619 144.44 51.1259C144.44 48.1899 142.777 45.6459 139.743 45.6459ZM139.743 55.5304C137.492 55.5304 136.318 53.2788 136.318 51.1259C136.318 48.9731 137.492 46.7224 139.743 46.7224C141.994 46.7224 143.168 48.9731 143.168 51.1259C143.168 53.2788 141.994 55.5304 139.743 55.5304ZM156.575 45.6459C155.205 45.6459 154.03 46.3304 153.444 47.7011C153.052 46.3313 151.877 45.6459 150.605 45.6459C149.138 45.6459 147.964 46.3304 147.278 47.7988V45.7437L146.104 46.0371V56.1171H147.376V50.3428C147.376 48.3855 148.159 46.5268 150.312 46.5268C151.78 46.5268 152.367 47.7002 152.367 49.0708V56.0193H153.639V50.2451C153.639 48.4842 154.227 46.5268 156.38 46.5268C158.043 46.5268 158.728 47.5046 158.728 49.1686V56.1171H160V49.1686C159.902 47.0157 158.924 45.6459 156.575 45.6459ZM96.8809 40.166C95.0213 40.166 92.8684 41.1437 91.8898 42.9055V40.0682L86.8987 41.438V56.3126H91.9876V47.7011C91.9876 45.7437 92.9662 44.3739 94.9236 44.3739C97.4676 44.3739 97.3698 46.6246 97.3698 48.5819V56.3117H102.459V46.2317C102.556 42.4157 100.991 40.166 96.8809 40.166ZM80.0489 56.3117H85.1378V40.0682L80.0489 41.5357V56.3117ZM122.128 56.3117H123.792V54.1588H122.128V56.3117ZM114.887 42.5135C113.908 40.9482 112.44 40.0673 110.581 40.0673C106.178 40.0673 103.731 43.5899 103.731 47.7002C103.731 52.1037 105.884 55.4308 110.581 55.5286C112.244 55.5286 113.811 54.6486 114.789 53.1802V54.7464C114.789 56.7028 113.908 58.3668 111.756 58.3668C110.385 58.3668 109.211 57.5846 108.82 56.2139L104.22 57.4859C105.297 60.8131 108.526 61.6939 111.56 61.6939C116.061 61.6939 119.78 59.2477 119.78 54.2566V39.9704L114.887 41.3393V42.5135ZM111.756 51.7126C109.603 51.7126 108.82 49.8531 108.82 47.9935C108.82 46.0362 109.505 44.0788 111.853 44.0788C114.104 44.0788 114.985 46.0362 114.887 47.9935C114.887 49.9508 114.006 51.7126 111.756 51.7126Z" fill="#9878A7"/>
<path fill-rule="evenodd" clip-rule="evenodd" d="M79.9512 35.4676L85.4312 34V38.5991L79.9512 40.0676V35.4676Z" fill="#F4A41D"/>
</g>
</g>
<defs>
<clipPath id="clip0_541_7674">
<rect width="196" height="62" fill="white"/>
</clipPath>
</defs>
</svg>
