<svg width="229" height="63" viewBox="0 0 229 63" fill="none" xmlns="http://www.w3.org/2000/svg">
<path d="M226.39 21.7354L226.391 21.7287V11.5595C226.391 11.2744 226.296 11.0263 226.117 10.8492C225.941 10.672 225.693 10.5764 225.408 10.5764C225.122 10.5764 224.874 10.672 224.698 10.8492C224.52 11.0263 224.424 11.2744 224.424 11.5595V21.7287C224.424 22.5012 223.807 23.1184 223.035 23.1184H207.356C206.582 23.1184 205.966 22.5012 205.966 21.7287V6.05114C205.966 5.2786 206.582 4.66135 207.356 4.66135H217.526C217.811 4.66135 218.059 4.56575 218.237 4.3886C218.413 4.21144 218.509 3.96337 218.509 3.67833C218.509 3.39329 218.413 3.14523 218.237 2.96806C218.059 2.79092 217.811 2.69531 217.526 2.69531H207.356C205.501 2.69531 204 4.19665 204 6.05114V21.6439C204 23.4983 205.501 24.9997 207.356 24.9997H222.95C224.804 24.9997 226.302 23.5008 226.39 21.7354Z" fill="#9878A7" stroke="#9878A7" stroke-width="0.0349952"/>
<path d="M226.169 1H221.931C221.646 1 221.399 1.0956 221.221 1.27276C221.045 1.44991 220.948 1.69799 220.948 1.98302C220.948 2.26805 221.045 2.51613 221.221 2.69329C221.399 2.87043 221.646 2.96604 221.931 2.96604H224.656L215.31 12.3106C214.918 12.7025 214.918 13.2969 215.31 13.6886C215.506 13.8853 215.795 13.9826 215.999 13.9826C216.202 13.9826 216.491 13.8853 216.688 13.6886L226.034 4.3442V7.0676C226.034 7.35264 226.129 7.60072 226.306 7.77788C226.484 7.95502 226.732 8.05063 227.017 8.05063C227.301 8.05063 227.55 7.95502 227.727 7.77788C227.903 7.60072 228 7.35264 228 7.0676V2.83045C228 1.82339 227.177 1 226.169 1Z" fill="#9878A7" stroke="#9878A7" stroke-width="0.0349952"/>
<path d="M13.137 41H19.1793C19.4695 41 19.7048 41.2333 19.7048 41.521V47.5135H13.137V41Z" fill="#9878A7"/>
<path opacity="0.5" d="M19.7045 47.5146H13.1367V54.0282H19.7045V47.5146Z" fill="#9878A7"/>
<path opacity="0.25" d="M13.137 54.0273H19.7048V60.0198C19.7048 60.3076 19.4695 60.5409 19.1793 60.5409H13.137V54.0273Z" fill="#9878A7"/>
<path opacity="0.25" d="M0.525425 41H6.56781V47.5135H0V41.521C0 41.2333 0.235241 41 0.525425 41Z" fill="#9878A7"/>
<path d="M13.1361 47.5146H6.56836V54.0282H13.1361V47.5146Z" fill="#9878A7"/>
<path d="M0 54.0273H6.56781V60.5409H0.525425C0.235241 60.5409 0 60.3076 0 60.0198V54.0273Z" fill="#9878A7"/>
<path opacity="0.5" d="M13.1359 54.0273H6.56812V60.5409H13.1359V54.0273Z" fill="#9878A7"/>
<path opacity="0.5" d="M13.1359 41H6.56812V47.5135H13.1359V41Z" fill="#9878A7"/>
<path opacity="0.5" d="M6.56781 47.5146H0V54.0282H6.56781V47.5146Z" fill="#9878A7"/>
<path fill-rule="evenodd" clip-rule="evenodd" d="M36.7407 53.8158C36.7407 57.3635 33.7299 58.764 30.6023 58.764H23.4602C23.3669 58.764 23.2734 58.6706 23.2734 58.5772L23.3435 50.5949L23.2734 42.6125C23.2734 42.5192 23.3669 42.4258 23.4602 42.4258H30.4855C33.8232 42.4258 36.2972 43.6394 36.2972 46.4637C36.2972 48.4242 35.2703 49.5446 33.4731 50.0814C35.667 50.5715 36.7407 52.0186 36.7407 53.8158ZM26.8447 44.8993L26.798 49.0073H30.5325C31.9095 49.0073 32.7498 48.307 32.7498 46.9767C32.7498 45.5295 31.7462 44.8993 30.5325 44.8993H26.8447ZM26.8447 56.2897L26.798 51.4816H30.5325C31.9562 51.4816 33.1465 52.0885 33.1465 53.8156C33.1465 55.7295 32.0029 56.2897 30.5325 56.2897H26.8447ZM40.8896 45.5767H37.7154C37.622 45.5767 37.5286 45.4834 37.5286 45.39V42.6125C37.5286 42.5192 37.622 42.4258 37.7154 42.4258H40.8896C40.983 42.4258 41.0763 42.5192 41.0763 42.6125V45.39C41.0763 45.4834 40.983 45.5767 40.8896 45.5767ZM37.7154 58.7632H40.8896C40.983 58.7632 41.0763 58.6699 41.0763 58.5765L41.0296 52.7649L41.0763 46.9298C41.0763 46.8364 40.983 46.7431 40.8896 46.7431H37.7154C37.622 46.7431 37.5286 46.8364 37.5286 46.9298L37.5753 52.7649L37.5286 58.5765C37.5286 58.6699 37.622 58.7632 37.7154 58.7632ZM49.7985 56.4302V58.3441C49.7985 58.4608 49.7284 58.5542 49.6117 58.6008C48.9349 58.8109 48.1647 58.9977 47.4178 58.9977C45.3872 58.9977 43.45 57.9706 43.45 55.2399L43.4733 49.2181H42.0962C42.0029 49.2181 41.9095 49.1247 41.9095 49.0314V46.9307C41.9095 46.8373 42.0029 46.744 42.0962 46.744H43.4733L43.45 43.9199C43.45 43.8265 43.5434 43.7332 43.6367 43.7332H46.7643C46.8576 43.7332 46.9509 43.8265 46.9509 43.9199L46.9277 46.744H49.6351C49.7284 46.744 49.8218 46.8373 49.8218 46.9307V49.0314C49.8218 49.1247 49.7284 49.2181 49.6351 49.2181H46.9277L46.9509 55.1465C46.9509 56.1734 47.4645 56.5002 48.2347 56.5002C48.8182 56.5002 49.2617 56.4069 49.6117 56.2902C49.7052 56.2668 49.7985 56.3369 49.7985 56.4302ZM56.4202 59.0672C59.5711 59.0672 61.7885 57.0832 62.0219 54.3291C62.0452 54.2357 61.9519 54.1424 61.8585 54.1424H58.9177C58.8243 54.1424 58.7309 54.2125 58.7076 54.3291C58.5676 55.9162 57.6806 56.7566 56.4903 56.7332C54.7398 56.7098 53.8762 55.5195 53.8762 52.7653C53.8762 50.1045 54.7164 48.8208 56.4903 48.7975C57.4939 48.7975 58.3575 49.451 58.6143 50.828C58.6375 50.9447 58.7309 51.0148 58.8243 51.0148H61.6951C61.7885 51.0148 61.8819 50.9215 61.8585 50.828C61.6017 48.1906 59.5945 46.4402 56.4903 46.4402C52.5692 46.4402 50.2818 48.9609 50.2818 52.7887C50.2818 56.6165 52.5692 59.0672 56.4202 59.0672ZM75.0785 52.7187C75.0785 56.5465 72.8612 59.0672 68.94 59.0672C65.0189 59.0672 62.755 56.6165 62.755 52.7887C62.755 48.9609 65.0189 46.4402 68.94 46.4402C72.8612 46.4402 75.0785 48.8909 75.0785 52.7187ZM68.9393 56.7336C67.1888 56.7336 66.3253 55.5199 66.3253 52.8125C66.3253 50.1049 67.1421 48.798 68.916 48.7746C70.6432 48.7746 71.4834 50.0817 71.4834 52.7891C71.4834 55.5433 70.6664 56.7336 68.9393 56.7336ZM79.2049 45.5767H76.0306C75.9373 45.5767 75.8439 45.4834 75.8439 45.39V42.6125C75.8439 42.5192 75.9373 42.4258 76.0306 42.4258H79.2049C79.2982 42.4258 79.3916 42.5192 79.3916 42.6125V45.39C79.3916 45.4834 79.2982 45.5767 79.2049 45.5767ZM76.0306 58.7632H79.2049C79.2982 58.7632 79.3916 58.6699 79.3916 58.5765L79.345 52.7649L79.3916 46.9298C79.3916 46.8364 79.2982 46.7431 79.2049 46.7431H76.0306C75.9373 46.7431 75.8439 46.8364 75.8439 46.9298L75.8907 52.7649L75.8439 58.5765C75.8439 58.6699 75.9373 58.7632 76.0306 58.7632ZM83.7298 58.7632H80.5089C80.4154 58.7632 80.3221 58.6699 80.3221 58.5765L80.3688 52.9983V46.9298C80.3688 46.8364 80.4622 46.7431 80.5555 46.7431H83.5664C83.6598 46.7431 83.7531 46.8364 83.7531 46.9298L83.6832 48.2601C84.5 47.2098 85.8771 46.4629 87.5576 46.4629C90.1016 46.4629 91.7588 48.1901 91.7588 51.131V53.6518L91.8055 58.5765C91.8055 58.6699 91.7121 58.7632 91.6188 58.7632H88.4445C88.3512 58.7632 88.2577 58.6699 88.2577 58.5765L88.3045 53.6518V51.1777C88.3045 49.8706 87.5342 49.0304 86.4839 49.0304C85.2236 49.0304 83.8698 50.1974 83.8698 52.7649V53.6518L83.9165 58.5765C83.9165 58.6699 83.8231 58.7632 83.7298 58.7632ZM92.8429 58.763H96.1105C96.2038 58.763 96.2972 58.6697 96.2972 58.5763V55.6121C96.2972 55.5188 96.2038 55.4254 96.1105 55.4254H92.8429C92.7495 55.4254 92.6561 55.5188 92.6561 55.6121V58.5763C92.6561 58.6697 92.7495 58.763 92.8429 58.763ZM108.708 54.3291C108.474 57.0832 106.257 59.0672 103.106 59.0672C99.2548 59.0672 96.9675 56.6165 96.9675 52.7887C96.9675 48.9609 99.2548 46.4402 103.176 46.4402C106.28 46.4402 108.287 48.1906 108.544 50.828C108.568 50.9215 108.474 51.0148 108.381 51.0148H105.51C105.417 51.0148 105.323 50.9447 105.3 50.828C105.043 49.451 104.18 48.7975 103.176 48.7975C101.402 48.8208 100.562 50.1045 100.562 52.7653C100.562 55.5195 101.425 56.7098 103.176 56.7332C104.366 56.7566 105.253 55.9162 105.393 54.3291C105.417 54.2125 105.51 54.1424 105.604 54.1424H108.544C108.638 54.1424 108.731 54.2357 108.708 54.3291ZM115.626 59.0672C119.547 59.0672 121.764 56.5465 121.764 52.7187C121.764 48.8909 119.547 46.4402 115.626 46.4402C111.704 46.4402 109.441 48.9609 109.441 52.7887C109.441 56.6165 111.704 59.0672 115.626 59.0672ZM113.011 52.8125C113.011 55.5199 113.874 56.7336 115.625 56.7336C117.352 56.7336 118.169 55.5433 118.169 52.7891C118.169 50.0817 117.329 48.7746 115.602 48.7746C113.827 48.798 113.011 50.1049 113.011 52.8125ZM126.142 54.4453V52.7649C126.142 50.3141 127.263 49.0304 128.243 49.0304C129.224 49.0304 129.784 49.7306 129.784 51.1777V54.4453L129.737 58.5765C129.737 58.6699 129.83 58.7632 129.924 58.7632H133.098C133.192 58.7632 133.285 58.6699 133.285 58.5765L133.238 54.4453V52.7649C133.238 50.3141 134.382 49.0304 135.339 49.0304C136.296 49.0304 136.879 49.7306 136.879 51.1777V54.4453L136.832 58.5765C136.832 58.6699 136.926 58.7632 137.019 58.7632H140.193C140.287 58.7632 140.38 58.6699 140.38 58.5765L140.333 54.4453V51.131C140.333 47.9335 138.933 46.4629 136.506 46.4629C135.082 46.4629 133.892 46.9064 132.865 48.727C132.305 47.1866 131.091 46.4629 129.41 46.4629C127.87 46.4629 126.796 47.0932 125.956 48.2601L126.026 46.9298C126.026 46.8364 125.933 46.7431 125.84 46.7431H122.829C122.735 46.7431 122.642 46.8364 122.642 46.9298V54.4453L122.595 58.5765C122.595 58.6699 122.689 58.7632 122.782 58.7632H126.003C126.097 58.7632 126.189 58.6699 126.189 58.5765L126.142 54.4453Z" fill="#9878A7"/>
<path d="M147.285 52.7962V58.4679C147.285 58.6286 147.17 58.7434 147.01 58.7434H144.254C144.093 58.7434 143.979 58.6286 143.979 58.4679L144.116 50.7067L143.979 42.9455C143.979 42.7847 144.093 42.6699 144.254 42.6699H148.02C148.158 42.6699 148.295 42.7388 148.364 42.8536L154.794 54.2199L154.656 49.3978V42.9455C154.656 42.7847 154.771 42.6699 154.931 42.6699H157.687C157.848 42.6699 157.962 42.7847 157.962 42.9455L157.825 50.7067L157.962 58.4679C157.962 58.6286 157.848 58.7434 157.687 58.7434H153.783C153.646 58.7434 153.508 58.6745 153.439 58.5597L147.124 47.2623L147.285 52.7962ZM165.616 56.7457C166.764 56.7457 167.591 56.2405 167.912 55.0006C167.935 54.8399 168.05 54.748 168.211 54.748H170.966C171.15 54.748 171.265 54.8628 171.242 55.0465C170.897 57.159 168.854 59.0419 165.57 59.0419C161.621 59.0419 159.485 56.4472 159.485 52.8651C159.485 49.0993 161.736 46.6194 165.501 46.6194C169.359 46.6194 171.517 49.1682 171.609 53.2555C171.609 53.4392 171.494 53.531 171.334 53.531H162.953C163.09 55.7583 163.963 56.7457 165.616 56.7457ZM165.524 48.8927C164.124 48.8927 163.32 49.7193 163.044 51.3496H167.889C167.752 50.0867 167.04 48.8927 165.524 48.8927ZM178.24 58.4908C178.217 58.6745 178.102 58.7434 177.942 58.7434H174.405C174.245 58.7434 174.13 58.6516 174.107 58.4908L171.604 47.2164C171.558 47.0098 171.673 46.9179 171.857 46.9179H174.75C174.911 46.9179 175.025 46.9868 175.048 47.1705L176.357 55.988L177.988 47.1705C178.01 46.9868 178.125 46.9179 178.286 46.9179H181.937C182.098 46.9179 182.213 46.9868 182.236 47.1705L183.82 55.7813L185.175 47.1705C185.198 46.9868 185.312 46.9179 185.473 46.9179H188.091C188.275 46.9179 188.389 47.0098 188.343 47.2164L185.864 58.4908C185.841 58.6516 185.726 58.7434 185.565 58.7434H182.006C181.845 58.7434 181.73 58.6516 181.707 58.4908L179.847 49.7423L178.24 58.4908ZM194.559 59.019C191.275 59.019 188.864 57.6412 188.704 55.0465C188.704 54.8628 188.818 54.771 188.979 54.771H191.78C191.941 54.771 192.056 54.8628 192.056 55.0465C192.171 56.3094 193.043 56.8835 194.628 56.8835C195.983 56.8835 196.717 56.3554 196.717 55.4369C196.717 53.1866 188.979 55.368 188.979 50.4082C188.979 47.9512 190.954 46.6424 194.146 46.6424C197.222 46.6424 199.289 47.8594 199.542 50.2933C199.565 50.477 199.473 50.5689 199.289 50.5689H196.603C196.442 50.5689 196.35 50.477 196.304 50.3163C196.12 49.3289 195.477 48.7319 194.099 48.7319C192.975 48.7319 192.263 49.1452 192.263 50.1556C192.263 52.4059 200 50.1097 200 55.1384C200 57.6183 197.659 59.019 194.559 59.019Z" fill="#9878A7"/>
</svg>
