<svg width="236" height="62" viewBox="0 0 236 62" fill="none" xmlns="http://www.w3.org/2000/svg">
<g clip-path="url(#clip0_541_7544)">
<mask id="mask0_541_7544" style="mask-type:luminance" maskUnits="userSpaceOnUse" x="0" y="40" width="200" height="23">
<path d="M200 40H0V62.4852H200V40Z" fill="white"/>
</mask>
<g mask="url(#mask0_541_7544)">
<path d="M5.22427 51.1785L2.61214 53.6963L0 51.1785L2.61214 48.6606L5.22427 51.1785ZM11.5968 45.0359L16.0747 49.3799L18.6869 46.862L14.2089 42.5179L11.5968 40L8.9846 42.5179L4.47795 46.862L7.09008 49.3799L11.5968 45.0359ZM20.5814 48.6606L17.9692 51.1785L20.5814 53.6963L23.1935 51.1785L20.5814 48.6606ZM11.5968 57.2934L7.1188 52.9769L4.47795 55.4949L8.95592 59.8112L11.568 62.3292L14.1802 59.8112L18.6869 55.4949L16.0747 52.9769L11.5968 57.2934ZM11.5968 53.6963L14.2089 51.1785L11.5968 48.6606L8.9846 51.1785L11.5968 53.6963ZM39.2395 53.9453V53.9178C39.2395 52.2852 38.3209 51.4551 36.8569 50.9018C37.7755 50.4037 38.5218 49.629 38.5218 48.2454V48.2179C38.5218 46.2809 36.9144 45.0359 34.331 45.0359H28.4178V57.2934H34.4744C37.345 57.2934 39.2395 56.1866 39.2395 53.9453ZM35.7376 48.7159C35.7376 49.629 34.9624 50.0163 33.7281 50.0163H31.1447V47.4154H33.9002C35.0774 47.4154 35.7376 47.8581 35.7376 48.6882V48.7159ZM36.455 53.6134C36.455 54.5264 35.7088 54.9414 34.4744 54.9414H31.1447V52.2575H34.3883C35.8237 52.2575 36.455 52.7556 36.455 53.5857V53.6134ZM45.0954 57.2934V45.0359H42.3109V57.2934H45.0954ZM60.1366 57.2934V45.0359H57.3809V52.5896L51.4103 45.0359H48.827V57.2934H51.5826V49.5182L57.7542 57.3211H60.1366V57.2934ZM75.6373 57.2934L70.1834 44.9528H67.5998L62.146 57.2934H64.9877L66.1646 54.5541H71.5324L72.7092 57.2934H75.6373ZM70.5564 52.1746H67.1692L68.863 48.1902L70.5564 52.1746ZM88.9561 57.2934V45.0359H86.2006V52.5896L80.2299 45.0359H77.6466V57.2934H80.4021V49.5182L86.5738 57.3211H88.9561V57.2934ZM103.423 55.3289L101.644 53.5857C100.639 54.4711 99.7494 55.0245 98.3139 55.0245C96.1324 55.0245 94.6398 53.2813 94.6398 51.1785V51.1508C94.6398 49.0479 96.1899 47.3324 98.3139 47.3324C99.5772 47.3324 100.582 47.8581 101.558 48.7159L103.337 46.7237C102.16 45.5892 100.725 44.8421 98.3139 44.8421C94.4101 44.8421 91.6831 47.6921 91.6831 51.1785V51.2062C91.6831 54.7201 94.4676 57.5147 98.1992 57.5147C100.639 57.5147 102.103 56.6846 103.423 55.3289ZM115.336 57.2934V54.8862H108.447V52.3129H114.446V49.9057H108.447V47.4154H115.25V45.0082H105.662V57.2657H115.336V57.2934Z" fill="#9878A7"/>
<path d="M125.187 48.2378C125.187 49.198 125.762 49.617 128.171 50.1757C130.834 50.8043 132.219 51.7296 132.219 53.7723C132.219 56.0769 130.365 57.4387 127.723 57.4387C125.799 57.4387 123.982 56.7927 122.471 55.4833L123.802 53.9469C125.007 54.9595 126.212 55.5356 127.776 55.5356C129.143 55.5356 130.006 54.9246 130.006 53.9818C130.006 53.0914 129.503 52.62 127.164 52.0962C124.485 51.4677 122.975 50.6995 122.975 48.4298C122.975 46.2998 124.772 44.8682 127.273 44.8682C129.107 44.8682 130.564 45.4093 131.84 46.4045L130.654 48.0283C129.52 47.2077 128.388 46.7712 127.236 46.7712C125.942 46.7712 125.187 47.4172 125.187 48.2378Z" fill="#9878A7"/>
<path d="M146.149 54.9089L147.588 56.0961L146.167 57.6325L144.657 56.3231C143.595 57.0389 142.301 57.4754 140.826 57.4754C136.96 57.4754 134.262 54.6295 134.262 51.1727C134.262 47.7158 136.995 44.835 140.862 44.835C144.728 44.835 147.426 47.6809 147.426 51.1377C147.426 52.5345 146.959 53.844 146.149 54.9089ZM143.02 54.9089L140.862 53.1281L142.283 51.5567L144.458 53.4772C144.89 52.8313 145.106 52.0281 145.106 51.1727C145.106 48.7808 143.326 46.8079 140.826 46.8079C138.327 46.8079 136.581 48.7459 136.581 51.1377C136.581 53.5296 138.362 55.5025 140.862 55.5025C141.689 55.5025 142.426 55.2756 143.02 54.9089Z" fill="#9878A7"/>
<path d="M160.673 45.043V51.9742C160.673 55.6232 158.55 57.4565 155.259 57.4565C151.987 57.4565 149.9 55.6232 149.9 52.0791V45.043H152.112V51.9917C152.112 54.2614 153.317 55.4836 155.296 55.4836C157.255 55.4836 158.46 54.3313 158.46 52.0791V45.043H160.673Z" fill="#9878A7"/>
<path d="M169.764 44.9561L175.302 57.2647H172.965L171.688 54.3142H165.735L164.441 57.2647H162.174L167.714 44.9561H169.764ZM170.878 52.4111L168.702 47.5226L166.545 52.4111H170.878Z" fill="#9878A7"/>
<path d="M188.142 57.2644H185.534L182.441 53.0044H179.671V57.2644H177.459V45.043H183.07C185.966 45.043 187.746 46.527 187.746 48.9189C187.746 50.9442 186.506 52.1663 184.743 52.6376L188.142 57.2644ZM185.499 49.0411C185.499 47.6968 184.527 46.9984 182.89 46.9984H179.671V51.1013H182.909C184.491 51.1013 185.499 50.2982 185.499 49.0411Z" fill="#9878A7"/>
<path d="M199.79 45.043V46.9634H192.669V50.1411H198.981V52.0616H192.669V55.3439H199.88V57.2644H190.457V45.043H199.79Z" fill="#9878A7"/>
</g>
<path d="M234.39 20.7354L234.391 20.7287V10.5595C234.391 10.2744 234.296 10.0263 234.117 9.84916C233.941 9.672 233.693 9.57643 233.408 9.57643C233.122 9.57643 232.874 9.672 232.698 9.84916C232.52 10.0263 232.424 10.2744 232.424 10.5595V20.7287C232.424 21.5012 231.807 22.1184 231.035 22.1184H215.356C214.582 22.1184 213.966 21.5012 213.966 20.7287V5.05114C213.966 4.2786 214.582 3.66135 215.356 3.66135H225.526C225.811 3.66135 226.059 3.56575 226.237 3.3886C226.413 3.21144 226.509 2.96337 226.509 2.67833C226.509 2.39329 226.413 2.14523 226.237 1.96806C226.059 1.79092 225.811 1.69531 225.526 1.69531H215.356C213.501 1.69531 212 3.19665 212 5.05114V20.6439C212 22.4983 213.501 23.9997 215.356 23.9997H230.95C232.804 23.9997 234.302 22.5008 234.39 20.7354Z" fill="#9878A7" stroke="#9878A7" stroke-width="0.0349952"/>
<path d="M234.169 0H229.932C229.647 0 229.399 0.0956017 229.222 0.272756C229.045 0.44991 228.949 0.697985 228.949 0.983023C228.949 1.26805 229.045 1.51613 229.222 1.69329C229.399 1.87043 229.647 1.96604 229.932 1.96604H232.656L223.31 11.3106C222.918 11.7025 222.918 12.2969 223.31 12.6886C223.507 12.8853 223.796 12.9826 223.999 12.9826C224.203 12.9826 224.492 12.8853 224.688 12.6886L234.034 3.3442V6.0676C234.034 6.35264 234.13 6.60072 234.306 6.77788C234.484 6.95502 234.732 7.05063 235.017 7.05063C235.301 7.05063 235.55 6.95502 235.727 6.77788C235.903 6.60072 236 6.35264 236 6.0676V1.83045C236 0.823393 235.177 0 234.169 0Z" fill="#9878A7" stroke="#9878A7" stroke-width="0.0349952"/>
</g>
<defs>
<clipPath id="clip0_541_7544">
<rect width="236" height="62" fill="white"/>
</clipPath>
</defs>
</svg>
