<svg width="197" height="65" viewBox="0 0 197 65" fill="none" xmlns="http://www.w3.org/2000/svg">
<path d="M194.39 21.7354L194.391 21.7287V11.5595C194.391 11.2744 194.296 11.0263 194.117 10.8492C193.941 10.672 193.693 10.5764 193.408 10.5764C193.122 10.5764 192.874 10.672 192.698 10.8492C192.52 11.0263 192.424 11.2744 192.424 11.5595V21.7287C192.424 22.5012 191.807 23.1184 191.035 23.1184H175.356C174.582 23.1184 173.966 22.5012 173.966 21.7287V6.05114C173.966 5.2786 174.582 4.66135 175.356 4.66135H185.526C185.811 4.66135 186.059 4.56575 186.237 4.3886C186.413 4.21144 186.509 3.96337 186.509 3.67833C186.509 3.39329 186.413 3.14523 186.237 2.96806C186.059 2.79092 185.811 2.69531 185.526 2.69531H175.356C173.501 2.69531 172 4.19665 172 6.05114V21.6439C172 23.4983 173.501 24.9997 175.356 24.9997H190.95C192.804 24.9997 194.302 23.5008 194.39 21.7354Z" fill="#9878A7" stroke="#9878A7" stroke-width="0.0349952"/>
<path d="M194.169 1H189.931C189.646 1 189.399 1.0956 189.221 1.27276C189.045 1.44991 188.948 1.69799 188.948 1.98302C188.948 2.26805 189.045 2.51613 189.221 2.69329C189.399 2.87043 189.646 2.96604 189.931 2.96604H192.656L183.31 12.3106C182.918 12.7025 182.918 13.2969 183.31 13.6886C183.506 13.8853 183.795 13.9826 183.999 13.9826C184.202 13.9826 184.491 13.8853 184.688 13.6886L194.034 4.3442V7.0676C194.034 7.35264 194.129 7.60072 194.306 7.77788C194.484 7.95502 194.732 8.05063 195.017 8.05063C195.301 8.05063 195.55 7.95502 195.727 7.77788C195.903 7.60072 196 7.35264 196 7.0676V2.83045C196 1.82339 195.177 1 194.169 1Z" fill="#9878A7" stroke="#9878A7" stroke-width="0.0349952"/>
<mask id="mask0_541_7837" style="mask-type:luminance" maskUnits="userSpaceOnUse" x="0" y="36" width="160" height="29">
<path d="M160 36H0V64.5405H160V36Z" fill="white"/>
</mask>
<g mask="url(#mask0_541_7837)">
<path d="M16.0246 63.9322C14.5073 63.3415 13.1755 62.3515 12.1684 61.0657C11.1613 59.7799 10.5156 58.2455 10.2991 56.6227H20.603V45.9496H28.3544V55.4104C28.3537 56.8921 27.9949 58.3514 27.3089 59.6624C26.6229 60.9735 25.6303 62.0969 24.4167 62.9356C23.203 63.7744 21.8049 64.3035 20.3428 64.4771C18.8808 64.6506 17.3987 64.4637 16.0246 63.9322ZM9.06698 54.2598C7.87602 54.2595 6.69675 54.0232 5.59652 53.5642C4.49629 53.1052 3.49667 52.4326 2.6547 51.5848C1.81275 50.737 1.14497 49.7305 0.689473 48.623C0.233979 47.5154 -0.000316964 46.3284 3.21823e-07 45.1297C-0.000253504 43.931 0.234069 42.744 0.689591 41.6365C1.14512 40.529 1.81293 39.5226 2.65488 38.6748C3.49683 37.827 4.49645 37.1545 5.59664 36.6955C6.69684 36.2366 7.87606 36.0003 9.06698 36H18.4636V54.2603L9.06698 54.2598Z" fill="#9878A7"/>
<path d="M82.9772 60.7824C82.7846 60.705 82.6132 60.5825 82.4771 60.4252C82.341 60.2678 82.2441 60.08 82.1945 59.8774C82.2113 59.698 82.2646 59.524 82.3509 59.3662C82.4373 59.2083 82.5548 59.0701 82.6965 58.9598C82.9791 58.7802 83.3089 58.6902 83.643 58.7015C84.29 58.7481 84.9048 59.004 85.3954 59.431L85.9795 59.9017C86.3169 59.5809 86.5629 59.1751 86.6917 58.7264C86.8362 58.1741 86.9036 57.6041 86.8907 57.0331C86.8907 56.7507 86.8863 56.4056 86.8786 55.9978C86.8708 55.5899 86.8587 55.057 86.844 54.3988C86.8284 53.7404 86.812 52.9016 86.7955 51.8822C86.7791 50.863 86.7592 49.6011 86.7367 48.0965C86.7134 46.5909 86.6935 44.7879 86.6788 42.6874L84.2972 42.4278V41.4635H91.1432V42.4278L88.994 42.686C88.9785 43.6738 88.9663 44.6733 88.9594 45.6845C88.9516 46.6957 88.9482 47.7108 88.9473 48.7302V52.3982C88.9473 53.59 88.9274 54.5854 88.8885 55.3846C88.8643 56.0556 88.7908 56.7238 88.6671 57.3837C88.5806 57.8505 88.4267 58.3021 88.2113 58.7245C88.0012 59.1052 87.7374 59.4535 87.4286 59.7587C87.0239 60.1606 86.543 60.4765 86.0148 60.6876C85.4468 60.9176 84.8394 61.0332 84.2271 61.028C83.7984 61.0299 83.3737 60.9465 82.9772 60.7824ZM38.5022 56.7404C37.2803 56.1445 36.2604 55.1988 35.5703 54.022C34.7995 52.6299 34.4234 51.0515 34.4832 49.4591C34.454 48.2188 34.6807 46.9858 35.149 45.8381C35.5601 44.8647 36.1831 43.9966 36.972 43.2978C37.7464 42.6216 38.6484 42.1097 39.6241 41.7926C40.6348 41.4611 41.6918 41.2942 42.755 41.2986C43.5738 41.2896 44.3904 41.3876 45.1843 41.5904C45.9348 41.7945 46.6573 42.0914 47.3353 42.4744L47.4285 46.1216H45.652L44.9755 43.041C44.4537 42.775 43.8767 42.6368 43.2917 42.6379C42.4718 42.6362 41.6703 42.8818 40.9904 43.343C40.2139 43.8984 39.6167 44.6712 39.2728 45.5654C38.7948 46.8134 38.5724 48.1457 38.6191 49.4824C38.5725 50.8083 38.7867 52.1305 39.2496 53.3728C39.5815 54.2545 40.1622 55.0194 40.9203 55.5732C41.5907 56.0364 42.3855 56.2823 43.1985 56.2784C43.529 56.2781 43.8584 56.2388 44.1797 56.1612C44.5156 56.0797 44.8439 55.9695 45.1611 55.832L45.8148 52.8218H47.5914L47.4981 56.4432C46.8133 56.8131 46.0881 57.1013 45.3369 57.302C44.4412 57.5389 43.5178 57.6534 42.5916 57.6424C41.1777 57.6616 39.7784 57.353 38.5022 56.7404ZM51.6799 56.789C50.8033 56.2911 50.0891 55.5477 49.6241 54.6493C49.125 53.6637 48.876 52.5691 48.8993 51.4631C48.8726 50.3608 49.1429 49.2717 49.6816 48.3114C50.191 47.4309 50.9304 46.7077 51.8195 46.2204C52.7436 45.7132 53.7816 45.454 54.834 45.4676C55.8796 45.4531 56.912 45.704 57.8359 46.1971C58.7261 46.6782 59.4662 47.3985 59.9738 48.2778C60.5194 49.2462 60.7935 50.3454 60.7673 51.4582C60.793 52.5683 60.5439 53.6675 60.0425 54.6566C59.5747 55.5501 58.8609 56.289 57.9866 56.7846C57.0201 57.3137 55.9323 57.5774 54.8325 57.549C53.7332 57.5771 52.6459 57.3134 51.6799 56.7846V56.789ZM53.3395 47.8645C53.0123 48.6325 52.8486 49.8554 52.8486 51.5331C52.7843 52.7691 52.9508 54.0062 53.3395 55.1803C53.4354 55.5071 53.6319 55.7948 53.9006 56.0019C54.1694 56.2091 54.4965 56.325 54.835 56.3328C55.4888 56.3328 55.9795 55.9487 56.3071 55.1803C56.6954 54.0061 56.8617 52.769 56.7975 51.5331C56.8623 50.2902 56.696 49.046 56.3071 47.8645C55.9795 47.0965 55.4888 46.7123 54.835 46.712C54.497 46.7195 54.1701 46.8347 53.9013 47.041C53.6325 47.2474 53.4357 47.5341 53.3391 47.8602L53.3395 47.8645ZM143.703 56.7637C143.389 56.4958 143.141 56.1572 142.981 55.7753C142.821 55.3933 142.751 54.9788 142.78 54.5651C142.777 54.1218 142.885 53.6849 143.096 53.295C143.384 52.8231 143.781 52.4278 144.252 52.1425C145.008 51.673 145.816 51.2942 146.658 51.0138C147.017 50.889 147.429 50.7557 147.896 50.614C148.364 50.4723 148.831 50.3472 149.298 50.2386V49.6478C149.298 48.5034 149.126 47.7428 148.784 47.3661C148.558 47.1591 148.292 47.0021 148.002 46.9049C147.712 46.8076 147.405 46.7724 147.102 46.8015C146.93 46.8015 146.739 46.8097 146.529 46.8249C146.297 46.8444 146.066 46.8838 145.84 46.9425L145.396 48.4714C145.178 49.2232 144.773 49.5994 144.181 49.6001C144.045 49.616 143.907 49.6032 143.775 49.5622C143.645 49.5213 143.524 49.4532 143.42 49.3623C143.316 49.2715 143.233 49.1598 143.175 49.0347C143.117 48.9094 143.086 48.7734 143.083 48.6353C143.19 48.1949 143.382 47.78 143.648 47.4148C143.915 47.0496 144.251 46.7411 144.637 46.5073C145.541 45.9584 146.585 45.6847 147.64 45.7195C148.869 45.7195 149.781 46.0291 150.373 46.6483C150.966 47.2675 151.262 48.3212 151.261 49.8093V54.818C151.23 55.1903 151.311 55.5633 151.495 55.8879C151.563 55.9872 151.653 56.0681 151.759 56.1235C151.865 56.1789 151.983 56.207 152.102 56.2054C152.284 56.2112 152.463 56.1621 152.616 56.0644C152.767 55.9603 152.901 55.8334 153.013 55.688L153.481 56.2054C153.261 56.5986 152.943 56.9269 152.558 57.1576C152.216 57.34 151.834 57.433 151.447 57.4285C150.935 57.4456 150.436 57.2696 150.046 56.9349C149.665 56.5928 149.417 56.1261 149.346 55.6175C148.831 56.1411 148.268 56.6134 147.662 57.0278C147.136 57.353 146.527 57.5165 145.911 57.498C145.112 57.5187 144.331 57.2581 143.703 56.7613V56.7637ZM148.107 51.4723C147.717 51.6059 147.398 51.7194 147.149 51.8127C146.61 52.0056 146.106 52.2835 145.655 52.6361C145.377 52.8536 145.157 53.1362 145.012 53.4593C144.916 53.6985 144.864 53.9536 144.86 54.2116C144.835 54.4621 144.871 54.715 144.965 54.9486C145.058 55.1821 145.207 55.3893 145.397 55.5523C145.786 55.8284 146.254 55.9687 146.73 55.952C146.955 55.9533 147.179 55.9217 147.395 55.8582C147.662 55.7688 147.917 55.6462 148.155 55.4935C148.45 55.3132 148.832 55.0507 149.3 54.7057V51.1072C148.894 51.2157 148.497 51.3367 148.107 51.4699V51.4723ZM107.032 56.5492C106.487 55.9142 106.221 54.8205 106.237 53.2682L106.307 47.4128L104.648 47.0602V46.214L108.082 45.8843L108.317 46.1197L108.2 49.4119V53.0566C108.2 54.0766 108.355 54.7941 108.666 55.209C108.832 55.4195 109.047 55.5862 109.291 55.6947C109.535 55.8034 109.801 55.8506 110.067 55.8324C111.158 55.8324 112.248 55.3229 113.338 54.304L113.409 47.3894L111.75 47.0607V46.214L115.138 45.8843L115.372 46.1197L115.302 49.4119V56.0202L116.891 56.3499V57.196L113.643 57.3842L113.409 55.2931C112.871 55.9913 112.19 56.5648 111.411 56.9747C110.75 57.3161 110.017 57.4973 109.273 57.5039C108.852 57.524 108.433 57.4487 108.044 57.2835C107.656 57.1182 107.31 56.8673 107.032 56.5492ZM95.2902 56.8551C94.4548 56.4074 93.762 55.7308 93.2924 54.9037C92.7484 53.9162 92.4811 52.7987 92.5192 51.6703C92.4811 50.5269 92.7484 49.3942 93.2924 48.3897C93.7603 47.5493 94.453 46.8569 95.2902 46.3906C96.0807 45.9509 96.9689 45.7203 97.8727 45.7203C98.7756 45.7203 99.6639 45.9509 100.454 46.3906C101.293 46.8588 101.989 47.5504 102.463 48.3897C103.014 49.3919 103.284 50.5256 103.246 51.6703C103.285 52.8 103.014 53.9187 102.463 54.9037C101.987 55.7296 101.292 56.4055 100.454 56.8551C99.6587 57.2798 98.7722 57.5018 97.8727 57.5018C96.9724 57.5018 96.0859 57.2798 95.2902 56.8551ZM95.5471 48.0479C95.01 48.8794 94.7419 50.0867 94.741 51.6698C94.741 53.2379 95.01 54.4255 95.5471 55.2324C95.7953 55.6211 96.1413 55.9375 96.5495 56.15C96.9568 56.3624 97.4135 56.4635 97.8719 56.4432C98.3328 56.4626 98.7895 56.3611 99.1994 56.1489C99.6094 55.9366 99.957 55.6207 100.209 55.2324C100.754 54.4255 101.026 53.2379 101.026 51.6698C101.026 50.0861 100.754 48.8787 100.209 48.0479C99.9631 47.6514 99.6171 47.3274 99.2072 47.1086C98.7964 46.8897 98.3363 46.7838 97.8719 46.8015C97.41 46.7831 96.9508 46.8889 96.5417 47.108C96.1335 47.3271 95.7901 47.6517 95.548 48.0484L95.5471 48.0479ZM154.203 57.196V56.3514L156.072 56.0216C156.088 55.3791 156.099 54.748 156.108 54.1285C156.116 53.509 156.12 52.8858 156.119 52.2592V41.9342L154.203 41.6988V40.876L157.85 39.8174L158.177 40.0056L158.085 43.3449V52.2582C158.085 52.8851 158.088 53.5122 158.096 54.1392C158.104 54.7661 158.115 55.3933 158.131 56.0206L160 56.3503V57.1965L154.203 57.196ZM135.605 57.196V56.3514L137.334 56.0216C137.349 55.4419 137.361 54.8032 137.368 54.1051C137.376 53.4072 137.381 52.7911 137.381 52.2573V50.2586C137.381 49.1763 137.228 48.4307 136.925 48.0216C136.744 47.8072 136.516 47.6397 136.257 47.5333C135.999 47.4268 135.719 47.3847 135.442 47.4103C134.91 47.4107 134.385 47.5229 133.899 47.7395C133.306 48.0211 132.755 48.3853 132.263 48.8216V52.2553C132.263 52.7724 132.268 53.3798 132.275 54.0774C132.283 54.775 132.294 55.4217 132.311 56.0173L133.922 56.3469V57.1931H128.506V56.3514L130.235 56.0216C130.251 55.426 130.262 54.7835 130.27 54.094C130.278 53.4044 130.282 52.7929 130.282 52.2597V51.1295C130.282 50.4866 130.277 49.9535 130.27 49.5301C130.262 49.1067 130.243 48.6599 130.212 48.1899L128.366 47.9778V47.1545L131.637 45.7204L131.987 45.9559L132.174 47.8373C132.743 47.2157 133.415 46.6984 134.161 46.3084C134.834 45.9362 135.588 45.7346 136.357 45.7209C136.787 45.6892 137.219 45.7659 137.612 45.9443C138.006 46.1225 138.35 46.3968 138.612 46.7422C139.103 47.423 139.347 48.532 139.347 50.0694V52.2577C139.347 52.7907 139.352 53.4021 139.359 54.092C139.367 54.7819 139.378 55.4245 139.395 56.0197L141.029 56.3494V57.1955L135.605 57.196ZM118.666 57.196V56.3514L120.348 56.0455C120.364 55.4496 120.375 54.8028 120.383 54.1051C120.391 53.4074 120.396 52.7915 120.396 52.2573V51.1295C120.396 50.4866 120.391 49.9535 120.383 49.5301C120.375 49.1067 120.356 48.6599 120.325 48.1899L118.479 47.9778V47.1545L121.75 45.7204L122.1 45.9559L122.357 48.7311C122.681 47.8849 123.199 47.1273 123.868 46.5195C124.37 46.0341 125.03 45.7498 125.726 45.72C126.074 45.7179 126.418 45.7986 126.73 45.9553C127.017 46.0892 127.254 46.3115 127.406 46.59C127.406 47.7347 126.947 48.3069 126.028 48.3065C125.771 48.3084 125.516 48.2564 125.28 48.1539C125.034 48.0433 124.805 47.8957 124.603 47.7162L124.323 47.4575C123.856 47.8017 123.46 48.2329 123.154 48.7277C122.821 49.2787 122.56 49.8718 122.381 50.4915V52.2553C122.381 52.7724 122.386 53.376 122.393 54.0662C122.4 54.7565 122.412 55.399 122.428 55.9939L124.344 56.3469V57.1931L118.666 57.196ZM76.5381 57.196V56.0911L77.7533 55.8324C77.7684 55.2525 77.7761 54.6365 77.7765 53.9846V49.7863C77.8207 49.2393 77.7158 48.6905 77.473 48.1991C77.363 48.0435 77.2146 47.9194 77.0424 47.8388C76.8703 47.7583 76.6804 47.7243 76.4912 47.7401C75.7477 47.794 75.0422 48.0914 74.4823 48.5867V53.9846C74.4823 54.6508 74.49 55.2738 74.5055 55.8539L75.6037 56.0892V57.1941H69.4607V56.0911L70.7204 55.8091C70.7352 55.2447 70.743 54.6332 70.744 53.9748V50.8941C70.744 50.2517 70.7397 49.7533 70.732 49.4007C70.7242 49.0482 70.7049 48.6362 70.673 48.1665L69.2477 47.9545V47.0374L73.8508 45.4617L74.2716 45.7204L74.4112 47.4132C74.9047 46.7865 75.5222 46.2698 76.2245 45.896C76.8259 45.6057 77.4849 45.4568 78.1518 45.4608C78.6073 45.442 79.0613 45.5227 79.4828 45.6973C79.9043 45.8717 80.2833 46.136 80.5938 46.4718C81.2093 47.1461 81.5169 48.1574 81.5166 49.5058V54.0093C81.5166 54.6603 81.5245 55.2763 81.5403 55.8573L82.7085 56.0926V57.1975L76.5381 57.196ZM62.122 57.196V56.0911L63.384 55.8091C63.3991 55.2447 63.4069 54.6332 63.4072 53.9748V51.1295C63.4072 50.4866 63.4032 49.9494 63.3951 49.518C63.3871 49.0864 63.3677 48.6358 63.3371 48.166L61.8877 47.954V47.0374L66.7941 45.4617L67.1918 45.7204L67.1218 49.1303V53.987C67.1218 54.6532 67.1295 55.2763 67.1449 55.8563L68.3128 56.0916V57.1965L62.122 57.196ZM63.828 43.1908C63.6396 43.0259 63.4896 42.8213 63.3885 42.5916C63.2875 42.3618 63.2379 42.1125 63.2434 41.8612C63.2364 41.6065 63.285 41.3534 63.3861 41.1197C63.4871 40.8861 63.638 40.6777 63.828 40.5094C64.2162 40.1684 64.714 39.9806 65.2292 39.9806C65.7444 39.9806 66.2422 40.1684 66.6303 40.5094C66.8201 40.6779 66.9708 40.8864 67.0716 41.12C67.1724 41.3536 67.221 41.6066 67.214 41.8612C67.2195 42.1124 67.17 42.3616 67.0692 42.5913C66.9683 42.8211 66.8185 43.0257 66.6303 43.1908C66.2421 43.5315 65.7444 43.7192 65.2292 43.7192C64.7141 43.7192 64.2163 43.5315 63.828 43.1908Z" fill="#9878A7"/>
</g>
</svg>
