<svg width="115" height="93" viewBox="0 0 115 93" fill="none" xmlns="http://www.w3.org/2000/svg">
<path d="M3.06112 32.9696C20.7165 26.2295 38.2759 19.1134 56.0651 12.735C58.5286 11.8517 57.4906 13.033 56.4146 14.1612C53.605 17.1073 51.811 20.2097 49.7348 23.7297C49.0675 24.8608 41.139 37.8939 44.5984 38.3626C66.0929 41.2748 86.7764 49.595 107.575 55.359C113.433 56.9823 105.092 50.6242 103.81 48.5596C102.766 46.8789 99.5002 41.9946 100.206 43.843C100.918 45.7084 101.539 47.6434 102.759 49.2533C104.46 51.4989 106.073 53.9398 107.936 56.0497C109.008 57.2626 112.845 60.0609 111.314 59.5365C104.797 57.3038 95.7955 62.4878 89.7774 64.7853" stroke="black" stroke-width="5" stroke-linecap="round"/>
</svg>
