<svg width="151" height="61" viewBox="0 0 151 61" fill="none" xmlns="http://www.w3.org/2000/svg">
<path d="M7.68279 43.3489C7.73826 44.1785 8.93215 47.1983 7.48618 47.481C6.38921 47.6955 1.24127 44.3226 5.95697 44.7711C6.30581 44.8043 11.2249 46.3059 9.95476 47.4234C9.80369 47.5563 7.30192 45.9489 6.89634 45.7705" stroke="#161616" stroke-width="7" stroke-linecap="round"/>
<path d="M42.0526 44.3845C42.3627 44.4599 42.9496 50.3723 42.2425 50.5442C40.6281 50.9367 36.4035 49.088 37.4482 47.3735C38.0807 46.3356 41.8235 46.5249 42.907 46.6464C43.5596 46.7197 47.4782 48.8995 46.9181 49.0901C45.4441 49.5918 43.1204 46.2907 43.6428 46.2223C46.1402 45.8954 48.1442 46.2289 49.3152 48.2217C50.1803 49.694 49.0381 50.3549 47.369 50.5442C45.2523 50.7844 43.515 49.1372 42.6697 47.6562C41.6846 45.9304 45.1742 46.5657 46.3247 46.5657" stroke="#161616" stroke-width="7" stroke-linecap="round"/>
<path d="M61.9395 28.0846C67.8694 28.0846 73.7993 28.0846 79.7292 28.0846C80.7828 28.0846 89.643 27.4333 90.0928 28.1606C90.166 28.2789 89.4124 28.4452 89.4113 28.4456C87.9467 28.8896 86.6269 30.3499 85.6043 31.2003C80.9041 35.1087 76.7316 39.4561 72.8906 43.9293C70.0326 47.2578 66.9384 50.5376 64.4775 54.0745C63.3126 55.7487 62.6163 56.1127 65.4645 56.1264C78.6828 56.1896 91.8668 56.8103 105.086 56.8103" stroke="#161616" stroke-width="7" stroke-linecap="round"/>
<path d="M109.776 4.28094C111.79 4.23183 134.551 3.94893 134.545 4.0081C134.519 4.24202 133.924 4.78588 133.816 4.92408C131.717 7.62325 129.933 10.5485 128.13 13.3823C123.405 20.808 119.098 28.3659 114.147 35.6972C112.435 38.2335 110.812 40.8842 108.813 43.2784C108.618 43.5116 109.464 43.1008 109.776 42.9861C112.514 41.9824 115.341 41.1649 118.142 40.2966C128.601 37.0551 137.774 32.8855 147 27.7847" stroke="#161616" stroke-width="7" stroke-linecap="round"/>
</svg>
