<svg width="21" height="20" viewBox="0 0 21 20" fill="none" xmlns="http://www.w3.org/2000/svg">
<g id="market" clip-path="url(#clip0_18_767)">
<path id="Coinmarketcap" d="M15.7916 2.53531C13.9891 1.18168 12.0989 0.5 10.1404 0.5C8.92253 0.5 7.67538 0.762935 6.40875 1.29854C2.85243 2.78851 0.884278 5.51525 0.553004 9.41059C0.348394 11.816 1.04991 14.0266 2.62834 15.9645C4.39188 18.1361 6.71079 19.3145 9.49739 19.48C11.4461 19.6066 13.2778 19.1295 14.9439 18.0972C15.4506 17.7856 15.9183 17.396 16.3762 17.026L16.4444 16.9773C16.6977 16.7728 16.7367 16.4222 16.5418 16.1398C16.3567 15.8768 16.0157 15.7989 15.7429 15.9353C15.6552 15.984 15.5577 16.0619 15.4701 16.1398C13.9306 17.4837 12.1671 18.1654 10.1892 18.2043C8.20153 18.2238 6.38926 17.6297 4.83033 16.3638C4.60623 16.1787 4.40162 15.984 4.19701 15.7892C4.09958 15.7016 4.01189 15.6042 3.91446 15.5165L3.76831 15.3802L8.22101 8.33937L8.42562 8.69969C8.49382 8.82629 8.49383 8.93341 8.49383 9.00157V11.777C8.49383 12.1471 8.52306 12.5853 8.69844 12.9846C8.83484 13.3059 9.07843 13.5299 9.36098 13.6176C9.65328 13.7052 9.97481 13.637 10.2769 13.4423C10.5497 13.2572 10.7835 13.004 11.0076 12.6632C11.4753 11.9231 11.943 11.183 12.4009 10.4429L13.6286 8.48544L14.0183 8.61204V10.5597C14.0183 11.0077 14.0768 11.4069 14.1937 11.7867C14.4275 12.5366 14.9439 13.1306 15.6259 13.4325C16.2885 13.7247 17.0192 13.7149 17.6915 13.4033C18.5392 13.004 19.0946 12.3126 19.3576 11.3193C19.5915 10.4331 19.5135 9.54692 19.4064 8.79707C19.0361 6.17746 17.8085 4.07397 15.7721 2.54505L15.7916 2.53531ZM18.1982 10.6668C18.1202 11.368 17.8085 11.8744 17.2726 12.1763C16.9413 12.371 16.5516 12.41 16.2203 12.2931C15.8988 12.1763 15.6454 11.9328 15.5188 11.6017C15.4019 11.3193 15.3336 10.9785 15.3239 10.6376C15.3044 10.1702 15.3142 9.693 15.3142 9.22556C15.3142 8.9821 15.3142 8.7289 15.3142 8.48544C15.3142 8.06669 15.2557 7.72585 15.129 7.4337C14.9731 7.06364 14.7101 6.82019 14.3885 6.7228C14.067 6.63516 13.7065 6.71306 13.3752 6.93705C12.927 7.24867 12.6153 7.69664 12.4009 8.04722C11.9332 8.79707 11.4558 9.53718 10.9881 10.287L10.1794 11.5725L9.81892 11.5141L9.77995 11.2998V11.1148V10.1312C9.77995 9.24503 9.77995 8.36858 9.77995 7.48239C9.77995 7.14155 9.73123 6.83966 9.65328 6.58647C9.54611 6.24562 9.32201 6.00216 9.01997 5.934C8.72767 5.85609 8.40614 5.97295 8.15281 6.22615C7.90922 6.46961 7.71436 6.78123 7.51949 7.08312L7.46103 7.1805C6.4867 8.71916 5.51236 10.2578 4.53803 11.7867L3.29088 13.7539C3.29088 13.7539 3.25191 13.8123 3.22268 13.8415L2.99858 14.1532L2.78423 13.861C2.43347 13.2183 2.19963 12.5853 2.05348 11.9426C1.45913 9.24503 2.03399 6.82019 3.75856 4.73618C5.04468 3.18778 6.72054 2.24316 8.73741 1.9218C13.0147 1.24011 17.0875 4.01554 18.0228 8.24198C18.2177 9.12817 18.2761 9.91698 18.1982 10.6571V10.6668Z" fill="#FF4542"/>
</g>
<defs>
<clipPath id="clip0_18_767">
<rect width="20" height="20" fill="white" transform="translate(0.0183105)"/>
</clipPath>
</defs>
</svg>
