<svg width="20" height="20" viewBox="0 0 20 20" fill="none" xmlns="http://www.w3.org/2000/svg">
<g id="dexscreener">
<path id="back" fill-rule="evenodd" clip-rule="evenodd" d="M1.01831 10C1.01831 5.02944 5.04775 1 10.0183 1C14.9889 1 19.0183 5.02944 19.0183 10C19.0183 14.9706 14.9889 19 10.0183 19C5.04775 19 1.01831 14.9706 1.01831 10Z" stroke="#FF4542" stroke-width="1.2"/>
<g id="Group 7367">
<g id="Group 7423">
<path id="Vector" d="M8.59317 9.08477C8.58047 9.28436 8.57005 9.47298 8.554 9.66107C8.55227 9.68206 8.52179 9.70585 8.49919 9.71896C8.10644 9.94742 7.71275 10.1743 7.31932 10.4017C7.3002 10.4128 7.28136 10.4244 7.25261 10.4415C7.27788 10.4571 7.29686 10.4698 7.31665 10.4809C7.62545 10.6542 7.93359 10.8289 8.24373 10.9999C8.42233 11.0984 8.57178 11.2281 8.69624 11.389C8.95625 11.7255 9.13659 12.1053 9.29647 12.4957C9.56196 13.144 9.75647 13.8158 9.95138 14.4874C10.0177 14.7161 10.0855 14.9444 10.1679 15.1758C10.176 15.153 10.1849 15.1303 10.1919 15.107C10.3701 14.5142 10.5421 13.9195 10.7281 13.329C10.8961 12.7954 11.0937 12.2724 11.3697 11.7829C11.4179 11.6976 11.4711 11.6151 11.5248 11.5333C11.6828 11.2924 11.8836 11.1006 12.1416 10.9649C12.4333 10.8114 12.7178 10.6446 13.0053 10.4833C13.0261 10.4717 13.0462 10.4593 13.0748 10.4423C13.0433 10.4233 13.0211 10.4096 12.9985 10.3965C12.6088 10.1715 12.2197 9.94581 11.8289 9.72257C11.7846 9.69717 11.7698 9.66896 11.7673 9.61803C11.7598 9.46469 11.744 9.31176 11.7313 9.15883C11.7295 9.13717 11.7268 9.11552 11.7247 9.09587C11.8563 9.0817 11.9835 9.07608 12.1071 9.05295C12.4361 8.99146 12.7251 8.84855 12.9461 8.59229C13.2784 8.20688 13.3226 7.77028 13.1525 7.30306C13.1191 7.21136 13.071 7.125 13.0334 7.03463C13.0262 7.01725 13.0289 6.9861 13.0402 6.97207C13.2486 6.717 13.4592 6.46354 13.6693 6.20995C13.6719 6.20687 13.6767 6.20567 13.6879 6.19952C13.7227 6.26542 13.7588 6.33066 13.7922 6.39723C14.1118 7.03356 14.2475 7.70798 14.2336 8.41944C14.2232 8.95162 14.2272 9.48461 14.2428 10.0167C14.2816 11.3357 14.5782 12.5919 15.1873 13.7684C15.1914 13.7763 15.1946 13.7846 15.19 13.8027C14.7378 13.4382 14.2857 13.0738 13.8252 12.7026C13.4981 13.2333 13.1728 13.7607 12.8432 14.2954C12.4976 13.9704 12.1577 13.6505 11.8116 13.325C11.2617 14.2172 10.7154 15.1035 10.163 16C9.61049 15.1037 9.06427 14.2173 8.51443 13.3252C8.16887 13.6503 7.82851 13.9704 7.48295 14.2957C7.15503 13.7638 6.83045 13.2372 6.50092 12.7027C6.0444 13.0708 5.59202 13.4354 5.13951 13.8001L5.12988 13.7917C5.13884 13.7724 5.14713 13.7529 5.15689 13.7341C5.6221 12.826 5.89909 11.8619 6.02301 10.8508C6.08597 10.3364 6.09266 9.81989 6.09573 9.30307C6.09801 8.93545 6.096 8.56782 6.09627 8.2002C6.09667 7.49316 6.28864 6.83745 6.62645 6.22091C6.63046 6.21356 6.63647 6.20727 6.64436 6.19671C6.65853 6.21449 6.67043 6.23013 6.683 6.24524C6.88058 6.48333 7.07696 6.72248 7.27694 6.95843C7.30595 6.99265 7.30555 7.01618 7.28724 7.05161C7.1946 7.23034 7.11733 7.41495 7.09113 7.61681C7.02348 8.13951 7.25475 8.60205 7.71756 8.86901C7.96407 9.01125 8.23103 9.07996 8.51497 9.08464C8.5413 9.08504 8.56764 9.08464 8.59317 9.08464V9.08477Z" fill="#FF4542"/>
<path id="Vector_2" d="M6.26931 4.59468C6.36743 4.69641 6.44991 4.80122 6.55138 4.88196C6.67931 4.98383 6.82115 5.06872 6.96071 5.15507C7.00496 5.18248 7.0603 5.19237 7.1111 5.20841C7.19559 5.23488 7.26002 5.21951 7.32981 5.15093C8.01359 4.47971 8.8368 4.09672 9.78995 4.01677C11.0385 3.9121 12.1202 4.29711 13.0208 5.17366C13.0646 5.2163 13.1075 5.23742 13.1621 5.21804C13.2746 5.1782 13.3915 5.14411 13.4955 5.0873C13.6971 4.97754 13.8634 4.82247 14.0055 4.642C14.0184 4.62556 14.0314 4.60925 14.0572 4.59989C14.0317 4.66553 14.0083 4.73224 13.9801 4.79681C13.8024 5.20333 13.5464 5.55879 13.253 5.88738C12.5911 6.62878 11.8262 7.24011 10.9436 7.70171C10.8748 7.73767 10.8275 7.73647 10.7598 7.69155C10.3747 7.43542 9.91935 7.44544 9.53168 7.7124C9.49398 7.73834 9.46604 7.74302 9.42446 7.72149C8.36905 7.17273 7.47151 6.43481 6.75083 5.48634C6.56154 5.23729 6.405 4.96779 6.29578 4.67288C6.28749 4.65029 6.28014 4.62743 6.26904 4.59468H6.26931Z" fill="#FF4542"/>
<path id="Vector_3" d="M11.7465 10.4313C11.7288 10.4442 11.7207 10.4511 11.7114 10.4565C11.2632 10.7162 10.9457 11.0952 10.7118 11.5508C10.5114 11.9409 10.3784 12.3565 10.2464 12.7726C10.2212 12.8526 10.1956 12.9325 10.1642 13.0313C10.1502 12.9917 10.1426 12.9702 10.1349 12.9487C10.0011 12.5665 9.87987 12.1792 9.73001 11.8033C9.55649 11.3682 9.30316 10.981 8.9346 10.6813C8.82619 10.5931 8.70828 10.5165 8.59131 10.4321C8.59866 10.426 8.60829 10.4149 8.62045 10.4079C8.77485 10.319 8.92899 10.2299 9.08433 10.1427C9.18018 10.089 9.22068 10.0085 9.21654 9.89994C9.20544 9.61641 9.21373 9.33434 9.28271 9.05695C9.35877 8.75082 9.51064 8.49348 9.7641 8.30004C10.0206 8.1042 10.3079 8.10527 10.5642 8.30151C10.8624 8.52998 11.0215 8.84025 11.0708 9.20373C11.1014 9.42992 11.1044 9.66052 11.1087 9.88925C11.1109 10.012 11.152 10.095 11.2619 10.1535C11.4228 10.2392 11.5787 10.3343 11.7469 10.4312L11.7465 10.4313Z" fill="#FF4542"/>
<path id="Vector_4" d="M9.12822 8.27292C8.98572 8.35687 8.84081 8.40273 8.6872 8.42051C8.45045 8.44778 8.2244 8.41409 8.02013 8.28442C7.70946 8.08724 7.66895 7.77482 7.81667 7.46682C7.81827 7.46348 7.82362 7.46188 7.83231 7.45599C8.23255 7.76988 8.66381 8.03898 9.12822 8.27292Z" fill="#FF4542"/>
<path id="Vector_5" d="M12.4961 7.45362C12.635 7.69211 12.6369 8.00987 12.4018 8.21199C12.1814 8.40169 11.9199 8.45062 11.6392 8.4204C11.4856 8.40396 11.341 8.3569 11.1975 8.27295C11.6626 8.03821 12.0942 7.76964 12.4961 7.45348V7.45362Z" fill="#FF4542"/>
</g>
</g>
</g>
</svg>
