<svg width="21" height="20" viewBox="0 0 21 20" fill="none" xmlns="http://www.w3.org/2000/svg">
<g id="market">
<path id="dextools" fill-rule="evenodd" clip-rule="evenodd" d="M7.96849 2.01785C6.87246 2.5764 5.97579 3.04909 5.97601 3.06834C5.97653 3.11793 8.60643 4.42106 8.69977 4.41788C8.74221 4.41651 9.05023 4.27776 9.38427 4.10967L9.99162 3.80405L10.6549 4.13764L11.3182 4.47129L12.4044 3.99377C14.0411 3.2742 14.2111 3.19534 14.1845 3.16889C14.1491 3.13372 13.5621 2.82521 11.9694 2.00481C11.1996 1.6083 10.4525 1.21957 10.3091 1.14086C10.1656 1.06208 10.0287 0.998792 10.0047 1.00002C9.98079 1.00124 9.06445 1.45924 7.96842 2.01778L7.96849 2.01785ZM3.16142 4.4532L2.02052 5.02984V7.56033C2.02052 8.95212 2.03548 10.0908 2.05389 10.0908C2.07231 10.0908 2.63355 9.85275 3.30125 9.56176L4.5153 9.0327V6.3654L5.10859 6.68161C5.56573 6.9251 6.02324 7.168 6.48089 7.41048L7.25991 7.82314L7.60654 7.66975C7.82395 7.57338 8.04092 7.47615 8.25744 7.3779C8.42475 7.30164 8.83548 7.12065 9.17017 6.97563C9.50487 6.83053 9.81466 6.68457 9.85857 6.65134C9.91692 6.60715 9.20539 6.22247 7.22676 5.22835C5.73532 4.47901 4.46719 3.86828 4.4087 3.87123C4.3502 3.87419 3.78896 4.13598 3.16142 4.45313V4.4532ZM14.39 4.61517C13.6129 4.95834 12.9766 5.25285 12.9759 5.26965C12.9752 5.28644 13.3987 5.53281 13.9171 5.81709C14.4353 6.10144 14.8595 6.34925 14.8595 6.36792C14.8595 6.38659 14.4008 6.60398 13.8403 6.85122C13.2796 7.09838 11.8627 7.72446 10.6914 8.24249L6.7666 9.97817C5.77931 10.4148 4.88941 10.8084 4.789 10.8529C2.77243 11.746 2.21818 11.9938 2.14208 12.0363C2.06553 12.0791 2.04822 12.328 2.03459 13.5768L2.01831 15.0663L3.03861 15.5749L4.05883 16.0835L5.47357 15.4589C6.2517 15.1153 6.8883 14.8163 6.8883 14.7942C6.8883 14.7722 6.7445 14.6806 6.56886 14.5905C6.39315 14.5003 6.03031 14.3008 5.76258 14.1469C5.49486 13.993 5.22794 13.8519 5.1693 13.8331C5.11073 13.8145 5.06365 13.7818 5.06461 13.7605C5.06557 13.7392 5.68854 13.4497 6.44892 13.1171C7.92576 12.471 9.05598 11.9731 11.4824 10.8996C12.5674 10.4197 13.6526 9.94018 14.7378 9.46071C15.6915 9.03948 16.8005 8.54761 17.2021 8.36755L17.9323 8.04024L17.9485 6.53378L17.9648 5.02739L16.93 4.50777C16.3608 4.22197 15.8743 3.98887 15.8488 3.98973C15.8233 3.99052 15.1668 4.27199 14.3898 4.61524L14.39 4.61517ZM17.6551 10.0498C17.5026 10.1227 17.2015 10.2591 16.9858 10.353C16.7702 10.4468 16.361 10.6275 16.0765 10.7545L15.5593 10.9853L15.5475 12.3078C15.541 13.0351 15.5136 13.627 15.4867 13.6232C15.4254 13.6143 14.456 13.1279 13.4817 12.6171C12.7784 12.2484 12.7342 12.2338 12.5689 12.3138C12.4734 12.3602 11.9023 12.6107 11.2999 12.8707C10.6975 13.1307 10.185 13.3604 10.1609 13.3812C10.1368 13.4019 11.3492 14.0448 12.8551 14.8099L15.5931 16.201L16.7627 15.609C17.406 15.2835 17.9529 14.9865 17.9781 14.9492C18.0349 14.8652 18.03 9.90573 17.9732 9.91243C17.9507 9.9151 17.8076 9.97687 17.6551 10.0497L17.6551 10.0498ZM11.1782 15.8711C10.9753 15.9564 10.7725 16.0419 10.5697 16.1275C9.95744 16.3867 10.0774 16.3953 9.3489 16.0405C8.86369 15.8042 8.65454 15.7313 8.56377 15.7667C8.4957 15.7932 7.90963 16.0512 7.26138 16.3399C6.61314 16.6287 6.0603 16.8649 6.03282 16.8649C5.76082 16.8649 6.21302 17.1292 7.95774 17.9902L10.0039 19L10.8649 18.5842C11.3384 18.3555 12.2935 17.8974 12.9873 17.5664C13.6811 17.2353 14.2402 16.9558 14.2297 16.9452C14.2192 16.9347 13.6378 16.6426 12.9378 16.2962L11.665 15.6664L11.1782 15.8712V15.8711Z" fill="#01BFFF"/>
</g>
</svg>
